<?xml version="1.0" encoding="UTF-8"?>
<svg version="1.1" xmlns="http://www.w3.org/2000/svg" width="512" height="512">
<path d="M0 0 C0.72990646 -0.00974854 1.45981293 -0.01949707 2.21183777 -0.02954102 C18.57587221 -0.20303012 34.28520097 0.00841481 50.21484375 4.23828125 C50.94493652 4.43083496 51.6750293 4.62338867 52.42724609 4.82177734 C57.10262957 6.09688193 61.65470063 7.59873294 66.21484375 9.23828125 C66.83907227 9.46241699 67.46330078 9.68655273 68.10644531 9.91748047 C87.60863925 17.02880543 104.49432272 27.68072552 120.21484375 41.23828125 C120.70871582 41.66367187 121.20258789 42.0890625 121.71142578 42.52734375 C128.9946816 48.85136403 135.31465929 55.58680528 141.21484375 63.23828125 C142.02695312 64.24632813 142.8390625 65.254375 143.67578125 66.29296875 C160.0427943 86.73673539 170.8076324 110.99959602 176.40234375 136.55078125 C176.63497925 137.59709717 176.63497925 137.59709717 176.87231445 138.66455078 C179.88482415 153.3708515 180.66141909 168.32906294 180.65234375 183.30078125 C180.65241425 184.14789673 180.65248474 184.99501221 180.65255737 185.86779785 C180.60611463 200.47926904 179.292976 214.14197743 175.21484375 228.23828125 C174.91433105 229.28741699 174.61381836 230.33655273 174.30419922 231.41748047 C163.73495152 267.2825676 146.5307063 301.78659166 128.21484375 334.23828125 C127.60237793 335.32753906 126.98991211 336.41679687 126.35888672 337.5390625 C119.43597356 349.82960422 112.41477698 362.05665542 105.08984375 374.11328125 C104.6014502 374.91757568 104.11305664 375.72187012 103.60986328 376.55053711 C93.15101859 393.61259295 82.22704256 410.3888191 71.20800781 427.0925293 C69.31644163 429.96127283 67.42961238 432.83309551 65.54296875 435.70507812 C60.12031249 443.94296665 54.70184121 452.14881114 48.82128906 460.0690918 C46.46466045 463.25125673 44.24803045 466.52310565 42.02734375 469.80078125 C32.16130686 484.24143627 21.76159205 498.28996909 11.21484375 512.23828125 C8.04694219 510.8832104 6.40869056 509.55046029 4.4375 506.73828125 C3.93089844 506.02551025 3.42429688 505.31273926 2.90234375 504.57836914 C2.09796875 503.42002563 2.09796875 503.42002563 1.27734375 502.23828125 C0.11229016 500.59092585 -1.05308321 498.94379656 -2.21875 497.296875 C-3.10796143 496.03206299 -3.10796143 496.03206299 -4.01513672 494.74169922 C-6.20770901 491.64064594 -8.44244228 488.57177185 -10.68041992 485.50341797 C-17.39136536 476.29207616 -23.84890742 466.91969689 -30.25048828 457.49169922 C-32.15356867 454.69732569 -34.07373814 451.91501483 -35.99560547 449.13354492 C-46.20353885 434.35250163 -56.09967993 419.36626868 -65.78515625 404.23828125 C-66.23793945 403.53219727 -66.69072266 402.82611328 -67.15722656 402.09863281 C-81.78664983 379.24209203 -95.74967302 356.04090947 -108.78515625 332.23828125 C-109.65285645 330.66530273 -109.65285645 330.66530273 -110.53808594 329.06054688 C-143.32907498 269.55566329 -169.47531435 209.24015289 -156.78515625 140.23828125 C-156.65125488 139.4807959 -156.51735352 138.72331055 -156.37939453 137.94287109 C-148.31593308 94.04831909 -120.11061729 53.68735832 -83.70849609 28.53613281 C-59.26452652 12.04157299 -29.80522203 0.33120094 0 0 Z M-41.0078125 118.546875 C-53.22683955 132.88480847 -58.11482576 149.62290816 -56.78515625 168.23828125 C-54.58695444 184.43764232 -45.3779887 198.97953775 -33.09765625 209.48828125 C-20.12436574 219.29882858 -6.16509837 223.8262309 10.02734375 223.67578125 C11.17082275 223.66820801 12.31430176 223.66063477 13.49243164 223.65283203 C32.64370918 223.2796933 48.12537123 215.75652072 61.4375 201.9296875 C73.65652705 187.59175403 78.54451326 170.85365434 77.21484375 152.23828125 C74.87780432 135.01577448 64.76474495 119.90440892 51.26953125 109.34375 C38.62013442 100.62504809 25.74988158 96.6581819 10.40234375 96.80078125 C9.25886475 96.80835449 8.11538574 96.81592773 6.93725586 96.82373047 C-12.21402168 97.1968692 -27.69568373 104.72004178 -41.0078125 118.546875 Z " fill="#E21B1B" transform="translate(245.78515625,-0.23828125)"/>
</svg>
