<?xml version="1.0" encoding="UTF-8"?>
<svg version="1.1" xmlns="http://www.w3.org/2000/svg" width="512" height="512">
<path d="M0 0 C0.89557617 0.16097168 1.79115234 0.32194336 2.71386719 0.48779297 C49.96370009 9.0361204 93.05643779 31.40134136 128.45507812 63.61035156 C129.84521102 64.86076819 131.2721724 66.06994846 132.703125 67.2734375 C133.44046875 67.92570312 134.1778125 68.57796875 134.9375 69.25 C135.54464844 69.77078125 136.15179688 70.2915625 136.77734375 70.828125 C138.85666171 74.52173774 138.77436716 77.88398015 138 82 C136.35550605 85.88671602 134.18256986 89.37134657 131.9375 92.9375 C130.65492637 95.04867561 129.37372636 97.1606862 128.09375 99.2734375 C127.4234375 100.3675293 126.753125 101.46162109 126.0625 102.58886719 C123.95997025 106.06620451 121.92006126 109.57247453 119.90625 113.1015625 C119.57266983 113.68561356 119.23908966 114.26966461 118.895401 114.87141418 C117.2824225 117.69853552 115.67300918 120.52767706 114.06420898 123.35717773 C105.33925182 138.5695262 105.33925182 138.5695262 100.5 140.125 C95.70412004 139.95371857 93.23844168 138.25222768 89.89453125 134.87109375 C89.20746094 134.06800781 88.52039063 133.26492187 87.8125 132.4375 C56.2258783 96.58382232 11.80382091 76.65169723 -35.57250977 73.39672852 C-84.59047719 70.6614738 -131.26675943 88.52409193 -167.6640625 120.98046875 C-168.77747976 121.9853881 -169.88962284 122.99172253 -171 124 C-171.77085937 124.69738281 -172.54171875 125.39476562 -173.3359375 126.11328125 C-180.93231629 133.35309532 -187.38489936 142.00007023 -193.16943359 150.72875977 C-193.70184662 151.53104507 -194.23425964 152.33333038 -194.7828064 153.15992737 C-195.18448029 153.76715134 -195.58615417 154.37437531 -196 155 C-195.4094271 154.9981014 -194.81885419 154.9962028 -194.21038514 154.99424666 C-159.22172402 154.88239845 -124.23309362 154.79658861 -89.24429097 154.74467335 C-85.04477766 154.73841969 -80.84526472 154.73194809 -76.64575195 154.7253418 C-75.80969137 154.72403024 -74.97363079 154.72271869 -74.11223503 154.7213674 C-60.56818367 154.69960052 -47.02423823 154.66017197 -33.48024974 154.61423602 C-19.58672974 154.56750699 -5.69326528 154.53971214 8.20033008 154.52955753 C16.77606426 154.52269096 25.35149906 154.50099039 33.92714111 154.46041767 C39.80480568 154.43402311 45.68231509 154.4259915 51.56003466 154.43249311 C54.95318102 154.43570122 58.34580363 154.43072426 61.73885727 154.40397263 C65.4159418 154.37919812 69.09173187 154.38503957 72.7688446 154.39872742 C74.38119658 154.37688111 74.38119658 154.37688111 76.02612132 154.35459346 C83.22725201 154.42735156 83.22725201 154.42735156 87.17237568 157.35090351 C89.41881811 160.60706654 89.609772 162.11671517 89 166 C87.93701172 168.59521484 87.93701172 168.59521484 86.4296875 171.2109375 C85.86975098 172.19674805 85.30981445 173.18255859 84.73291016 174.19824219 C84.1197998 175.24657227 83.50668945 176.29490234 82.875 177.375 C82.24770996 178.46973633 81.62041992 179.56447266 80.97412109 180.69238281 C79.65614525 182.98660055 78.33392573 185.27744904 77.00195312 187.56347656 C75.07076176 190.87853141 73.15149382 194.20022996 71.234375 197.5234375 C67.85383454 203.36737018 64.43436103 209.18757721 61 215 C60.34547852 216.11592529 60.34547852 216.11592529 59.67773438 217.25439453 C58.58576356 219.11262147 57.48334258 220.96400635 56.375 222.8125 C55.52035156 224.24529297 55.52035156 224.24529297 54.6484375 225.70703125 C52.82183259 228.24783002 51.73501678 229.46098064 49 231 C45.96009953 231.29188454 43.12635032 231.40910641 40.08668518 231.38768005 C39.17616313 231.39306559 38.26564109 231.39845113 37.32752746 231.40399987 C34.26972872 231.4183328 31.21235962 231.41116253 28.15454102 231.40405273 C25.96504365 231.4097535 23.77554925 231.41671662 21.58605957 231.42485046 C15.63362854 231.44282928 9.68134453 231.4416046 3.72889447 231.43590808 C-1.23653165 231.43282307 -6.20192924 231.43890101 -11.16735131 231.44494683 C-23.54928538 231.45981027 -35.93114732 231.45616547 -48.31308014 231.44408352 C-59.06658097 231.43415097 -69.81990975 231.44709126 -80.57338404 231.47101771 C-91.61490535 231.49539998 -102.65634257 231.50461882 -113.69788986 231.49836498 C-119.89695389 231.49498916 -126.09587575 231.49745205 -132.29491997 231.51461601 C-138.12343186 231.53004894 -143.95161451 231.52617003 -149.78011322 231.50731087 C-151.92110441 231.50361489 -154.0621198 231.50676266 -156.20308876 231.51719666 C-159.12234261 231.53033903 -162.04049561 231.51891881 -164.95970154 231.50120544 C-166.23528471 231.51561295 -166.23528471 231.51561295 -167.53663725 231.53031152 C-171.48998288 231.48084067 -173.57560065 231.24665211 -177.06501865 229.21867466 C-179 227 -179 227 -179 223 C-183.62 223.33 -188.24 223.66 -193 224 C-193.66 225.65 -194.32 227.3 -195 229 C-198.43761116 231.29174077 -199.92071615 231.29524047 -203.98046875 231.4140625 C-205.14384766 231.45273438 -206.30722656 231.49140625 -207.50585938 231.53125 C-208.72080078 231.5621875 -209.93574219 231.593125 -211.1875 231.625 C-212.41404297 231.66367188 -213.64058594 231.70234375 -214.90429688 231.7421875 C-217.93604656 231.83656103 -220.96778841 231.92214549 -224 232 C-224.73225093 239.01893374 -225.15860166 245.94365179 -225.125 253 C-225.12886719 253.81210937 -225.13273438 254.62421875 -225.13671875 255.4609375 C-225.12964937 259.94292414 -224.91504182 264.353442 -224.49169922 268.81640625 C-224.35427811 270.27929077 -224.35427811 270.27929077 -224.21408081 271.77172852 C-224.14343414 272.50705811 -224.07278748 273.2423877 -224 274 C-222.77194515 274.00238835 -221.5438903 274.00477671 -220.27862167 274.00723743 C-191.13992725 274.06457296 -162.00130382 274.13728615 -132.86269872 274.22898628 C-129.27776955 274.24025471 -125.69283998 274.25139312 -122.10791016 274.26245117 C-121.39420247 274.26465486 -120.68049478 274.26685854 -119.94515958 274.269129 C-108.38249063 274.30452033 -96.81982174 274.32937409 -85.25711867 274.35034702 C-73.39644578 274.37209448 -61.53584329 274.4051348 -49.67523026 274.44870156 C-43.0117272 274.472853 -36.34828858 274.49138056 -29.68474579 274.49761391 C-23.41719783 274.50364112 -17.14984981 274.52355517 -10.88237572 274.55427551 C-8.57811303 274.56309374 -6.27382425 274.56677055 -3.96954536 274.56500816 C-0.83092405 274.56336509 2.30708066 274.5799722 5.44561768 274.60127258 C6.36390295 274.59642501 7.28218823 274.59157743 8.22830033 274.58658296 C14.34902583 274.65544814 14.34902583 274.65544814 17.5268364 276.33742046 C19.32421613 278.36590308 20.04954197 280.17028604 20.29541016 282.8737793 C19.90560861 285.67938398 18.8031839 287.56202242 17.3984375 290.01953125 C16.57448486 291.47866943 16.57448486 291.47866943 15.73388672 292.96728516 C15.1617041 293.96808105 14.58952148 294.96887695 14 296 C12.94603611 297.89869691 11.89395033 299.79843757 10.84375 301.69921875 C4.76901133 312.59647113 -1.36694565 323.45684714 -7.625 334.25 C-8.20443359 335.25506592 -8.78386719 336.26013184 -9.38085938 337.2956543 C-16.28618994 349.14309497 -16.28618994 349.14309497 -20 351 C-22.30578588 351.09473969 -24.61441886 351.12189586 -26.92214966 351.12025452 C-27.64256372 351.12110894 -28.36297779 351.12196337 -29.10522258 351.12284368 C-31.53127355 351.12449736 -33.95725613 351.11897895 -36.38330078 351.11352539 C-38.11756387 351.11324347 -39.85182707 351.11340135 -41.58609009 351.1139679 C-46.30483981 351.11425567 -51.0235643 351.10836209 -55.74230814 351.10139394 C-60.6697467 351.09515716 -65.59718579 351.09455634 -70.52462769 351.09336853 C-79.86021566 351.09025617 -89.19579198 351.08204407 -98.53137481 351.07201904 C-109.15757777 351.06085494 -119.78378128 351.0553467 -130.40998864 351.05032361 C-152.27333228 351.03986138 -174.13666541 351.02226378 -196 351 C-194.57453755 353.07846075 -193.14662946 355.15516826 -191.71728516 357.23095703 C-191.31715714 357.81492752 -190.91702911 358.39889801 -190.504776 359.00056458 C-187.37541515 363.53906566 -184.04177213 367.7660041 -180.375 371.875 C-179.85421875 372.473125 -179.3334375 373.07125 -178.796875 373.6875 C-147.51602493 409.28295008 -101.9015952 429.7005721 -54.9375 432.8125 C-7.3793117 435.11587383 39.43133677 418.59214028 74.76660156 386.78930664 C84.09001343 378.55561259 84.09001343 378.55561259 92 369.0625 C94.53878496 366.44437801 96.39187051 366.12697141 99.90234375 365.5546875 C103.41477856 366.30034405 104.79171859 368.24752881 107 371 C107.4895628 374.01636039 107.67579052 376.46412587 107.63110352 379.47460938 C107.64183647 380.73649834 107.64183647 380.73649834 107.65278625 382.02388 C107.66966036 384.79772665 107.65027885 387.56995413 107.62890625 390.34375 C107.62973507 392.27518853 107.63219494 394.206627 107.63621521 396.13806152 C107.63907233 400.18324042 107.62438037 404.22786537 107.59692383 408.27294922 C107.56284127 413.45502373 107.56886011 418.63610776 107.5875864 423.81822968 C107.598161 427.80572751 107.58921437 431.79299535 107.57420158 435.7804718 C107.56902269 437.69101783 107.56949802 439.60158791 107.57574654 441.51213074 C107.58120429 444.18374172 107.56080633 446.8539406 107.53344727 449.52539062 C107.54323608 450.7069146 107.54323608 450.7069146 107.55322266 451.91230774 C107.46633782 456.90834072 106.55005461 459.47683796 103 463 C101.27099609 464.41870117 101.27099609 464.41870117 99.5234375 465.54296875 C98.86287354 465.97158203 98.20230957 466.40019531 97.52172852 466.84179688 C96.4590979 467.50791992 96.4590979 467.50791992 95.375 468.1875 C94.62210693 468.66380859 93.86921387 469.14011719 93.09350586 469.63085938 C90.73932371 471.10481607 88.37319833 472.55688565 86 474 C85.29536621 474.43006348 84.59073242 474.86012695 83.86474609 475.30322266 C56.59617937 491.7234885 25.48397395 502.47185264 -6 507 C-7.19447754 507.17587646 -8.38895508 507.35175293 -9.61962891 507.53295898 C-21.45108101 509.16176396 -33.19599934 509.35904467 -45.125 509.3125 C-46.11956207 509.31034485 -47.11412415 509.3081897 -48.13882446 509.30596924 C-62.62165106 509.25560229 -76.76489867 508.89634203 -91 506 C-91.99805664 505.80664062 -92.99611328 505.61328125 -94.02441406 505.4140625 C-140.07668311 496.31315663 -183.83263596 475.47069699 -218 443 C-219.3894001 441.78427491 -220.78481591 440.57537389 -222.1875 439.375 C-229.00877751 433.43074389 -235.19722328 426.93420615 -241 420 C-241.41733398 419.50709473 -241.83466797 419.01418945 -242.26464844 418.50634766 C-282 371.32587553 -282 371.32587553 -282 351 C-283.07883957 351.00888245 -284.15767914 351.01776489 -285.26921082 351.0269165 C-295.43645021 351.10800466 -305.603624 351.16796656 -315.7711134 351.20724869 C-320.99834356 351.22812301 -326.22531266 351.25643808 -331.45239258 351.30175781 C-336.49688088 351.34522071 -341.54111809 351.36913827 -346.58577919 351.37950897 C-348.51032781 351.38689952 -350.4348627 351.40133154 -352.35930443 351.42292023 C-355.05518663 351.45196014 -357.75003147 351.45595577 -360.44604492 351.45410156 C-361.24158279 351.46848267 -362.03712067 351.48286377 -362.85676575 351.49768066 C-366.56416975 351.47009153 -368.79092226 351.12688464 -371.98750305 349.18695068 C-374 347 -374 347 -374.75390625 343.5546875 C-374.31059991 337.03583018 -370.23015142 331.57460123 -366.9375 326.125 C-366.21135659 324.89512459 -365.48693481 323.66423122 -364.76416016 322.43237305 C-363.26855295 319.88730691 -361.76446413 317.34754451 -360.25439453 314.81103516 C-358.06790491 311.12844596 -355.93079854 307.41914242 -353.80859375 303.69921875 C-353.47498337 303.115354 -353.14137299 302.53148926 -352.7976532 301.92993164 C-351.21450697 299.15897037 -349.63239752 296.38741813 -348.05053711 293.61572266 C-338.28172887 276.64086444 -338.28172887 276.64086444 -335 275 C-332.44637396 274.91341431 -329.9204558 274.88437484 -327.3671875 274.90234375 C-326.61535187 274.9037587 -325.86351624 274.90517365 -325.08889771 274.90663147 C-322.6842249 274.91223535 -320.27964473 274.92478843 -317.875 274.9375 C-316.24609509 274.9425145 -314.61718873 274.9470775 -312.98828125 274.95117188 C-308.99215173 274.96220603 -304.99609158 274.97947321 -301 275 C-301.10610596 274.12601562 -301.10610596 274.12601562 -301.21435547 273.234375 C-301.97067634 266.47135114 -302.15089288 259.80119542 -302.125 253 C-302.12886719 251.98421875 -302.13273437 250.9684375 -302.13671875 249.921875 C-302.13542969 248.91640625 -302.13414062 247.9109375 -302.1328125 246.875 C-302.13168457 245.98554688 -302.13055664 245.09609375 -302.12939453 244.1796875 C-301.94976487 239.76554283 -301.47452986 235.39097393 -301 231 C-301.84080612 231.00888245 -302.68161224 231.01776489 -303.54789734 231.0269165 C-311.47828496 231.10712118 -319.40853603 231.16799418 -327.33923626 231.20724869 C-331.41635654 231.22810852 -335.49314122 231.25639619 -339.57006836 231.30175781 C-343.50582482 231.34527382 -347.44125882 231.36914918 -351.37723732 231.37950897 C-352.87755216 231.38689011 -354.37784969 231.40130403 -355.87802696 231.42292023 C-357.98246531 231.45203262 -360.08557767 231.45595302 -362.19018555 231.45410156 C-363.38709518 231.46298401 -364.58400482 231.47186646 -365.81718445 231.48101807 C-369.66275916 230.89983738 -371.31119428 229.77175094 -374 227 C-375.77169407 218.90344991 -370.99431151 212.83934724 -366.9375 206.125 C-366.21135659 204.89512459 -365.48693481 203.66423122 -364.76416016 202.43237305 C-363.26855295 199.88730691 -361.76446413 197.34754451 -360.25439453 194.81103516 C-358.06790491 191.12844596 -355.93079854 187.41914242 -353.80859375 183.69921875 C-353.47498337 183.115354 -353.14137299 182.53148926 -352.7976532 181.92993164 C-351.21450697 179.15897037 -349.63239752 176.38741813 -348.05053711 173.61572266 C-338.28172887 156.64086444 -338.28172887 156.64086444 -335 155 C-333.30456409 154.90948931 -331.60556022 154.88245128 -329.90771484 154.88647461 C-328.31629166 154.88658791 -328.31629166 154.88658791 -326.69271851 154.88670349 C-324.96923691 154.89444542 -324.96923691 154.89444542 -323.2109375 154.90234375 C-321.45059677 154.90446617 -321.45059677 154.90446617 -319.6546936 154.90663147 C-315.89477015 154.91224311 -312.13490555 154.92479762 -308.375 154.9375 C-305.83073002 154.9425135 -303.28645912 154.94707667 -300.7421875 154.95117188 C-294.49477147 154.96221632 -288.24738994 154.97896582 -282 155 C-281.70581429 154.09310677 -281.70581429 154.09310677 -281.40568542 153.16789246 C-281.01187431 151.96753105 -281.01187431 151.96753105 -280.61010742 150.74291992 C-280.35210861 149.95269943 -280.0941098 149.16247894 -279.82829285 148.34831238 C-278.59676169 144.85676967 -277.0031004 141.6008704 -275.3125 138.3125 C-274.78813354 137.28286133 -274.78813354 137.28286133 -274.25317383 136.23242188 C-249.22903395 87.54164983 -210.36614746 49.36750877 -162 24 C-160.92685547 23.42983154 -160.92685547 23.42983154 -159.83203125 22.84814453 C-138.52512834 11.66590154 -114.61276777 4.33813877 -91 0 C-90.19401367 -0.16081055 -89.38802734 -0.32162109 -88.55761719 -0.48730469 C-60.60389422 -5.91249702 -27.90015671 -5.48097109 0 0 Z " fill="#FDAA36" transform="translate(374,3)"/>
<path d="M0 0 C0.89557617 0.16097168 1.79115234 0.32194336 2.71386719 0.48779297 C49.96370009 9.0361204 93.05643779 31.40134136 128.45507812 63.61035156 C129.84521102 64.86076819 131.2721724 66.06994846 132.703125 67.2734375 C133.44046875 67.92570312 134.1778125 68.57796875 134.9375 69.25 C135.54464844 69.77078125 136.15179688 70.2915625 136.77734375 70.828125 C138.85666171 74.52173774 138.77436716 77.88398015 138 82 C136.35550605 85.88671602 134.18256986 89.37134657 131.9375 92.9375 C130.65492637 95.04867561 129.37372636 97.1606862 128.09375 99.2734375 C127.4234375 100.3675293 126.753125 101.46162109 126.0625 102.58886719 C123.95997025 106.06620451 121.92006126 109.57247453 119.90625 113.1015625 C119.57266983 113.68561356 119.23908966 114.26966461 118.895401 114.87141418 C117.2824225 117.69853552 115.67300918 120.52767706 114.06420898 123.35717773 C105.33925182 138.5695262 105.33925182 138.5695262 100.5 140.125 C95.70412004 139.95371857 93.23844168 138.25222768 89.89453125 134.87109375 C89.20746094 134.06800781 88.52039063 133.26492187 87.8125 132.4375 C56.2258783 96.58382232 11.80382091 76.65169723 -35.57250977 73.39672852 C-84.59047719 70.6614738 -131.26675943 88.52409193 -167.6640625 120.98046875 C-168.77747976 121.9853881 -169.88962284 122.99172253 -171 124 C-171.77085937 124.69738281 -172.54171875 125.39476562 -173.3359375 126.11328125 C-180.93231629 133.35309532 -187.38489936 142.00007023 -193.16943359 150.72875977 C-193.70184662 151.53104507 -194.23425964 152.33333038 -194.7828064 153.15992737 C-195.18448029 153.76715134 -195.58615417 154.37437531 -196 155 C-195.4094271 154.9981014 -194.81885419 154.9962028 -194.21038514 154.99424666 C-159.22172402 154.88239845 -124.23309362 154.79658861 -89.24429097 154.74467335 C-85.04477766 154.73841969 -80.84526472 154.73194809 -76.64575195 154.7253418 C-75.80969137 154.72403024 -74.97363079 154.72271869 -74.11223503 154.7213674 C-60.56818367 154.69960052 -47.02423823 154.66017197 -33.48024974 154.61423602 C-19.58672974 154.56750699 -5.69326528 154.53971214 8.20033008 154.52955753 C16.77606426 154.52269096 25.35149906 154.50099039 33.92714111 154.46041767 C39.80480568 154.43402311 45.68231509 154.4259915 51.56003466 154.43249311 C54.95318102 154.43570122 58.34580363 154.43072426 61.73885727 154.40397263 C65.4159418 154.37919812 69.09173187 154.38503957 72.7688446 154.39872742 C74.38119658 154.37688111 74.38119658 154.37688111 76.02612132 154.35459346 C83.22725201 154.42735156 83.22725201 154.42735156 87.17237568 157.35090351 C89.41881811 160.60706654 89.609772 162.11671517 89 166 C87.93701172 168.59521484 87.93701172 168.59521484 86.4296875 171.2109375 C85.86975098 172.19674805 85.30981445 173.18255859 84.73291016 174.19824219 C84.1197998 175.24657227 83.50668945 176.29490234 82.875 177.375 C82.24770996 178.46973633 81.62041992 179.56447266 80.97412109 180.69238281 C79.65614525 182.98660055 78.33392573 185.27744904 77.00195312 187.56347656 C75.07076176 190.87853141 73.15149382 194.20022996 71.234375 197.5234375 C67.85383454 203.36737018 64.43436103 209.18757721 61 215 C60.34547852 216.11592529 60.34547852 216.11592529 59.67773438 217.25439453 C58.58576356 219.11262147 57.48334258 220.96400635 56.375 222.8125 C55.52035156 224.24529297 55.52035156 224.24529297 54.6484375 225.70703125 C52.82183259 228.24783002 51.73501678 229.46098064 49 231 C45.96009953 231.29188454 43.12635032 231.40910641 40.08668518 231.38768005 C39.17616313 231.39306559 38.26564109 231.39845113 37.32752746 231.40399987 C34.26972872 231.4183328 31.21235962 231.41116253 28.15454102 231.40405273 C25.96504365 231.4097535 23.77554925 231.41671662 21.58605957 231.42485046 C15.63362854 231.44282928 9.68134453 231.4416046 3.72889447 231.43590808 C-1.23653165 231.43282307 -6.20192924 231.43890101 -11.16735131 231.44494683 C-23.54928538 231.45981027 -35.93114732 231.45616547 -48.31308014 231.44408352 C-59.06658097 231.43415097 -69.81990975 231.44709126 -80.57338404 231.47101771 C-91.61490535 231.49539998 -102.65634257 231.50461882 -113.69788986 231.49836498 C-119.89695389 231.49498916 -126.09587575 231.49745205 -132.29491997 231.51461601 C-138.12343186 231.53004894 -143.95161451 231.52617003 -149.78011322 231.50731087 C-151.92110441 231.50361489 -154.0621198 231.50676266 -156.20308876 231.51719666 C-159.12234261 231.53033903 -162.04049561 231.51891881 -164.95970154 231.50120544 C-166.23528471 231.51561295 -166.23528471 231.51561295 -167.53663725 231.53031152 C-171.50162716 231.48069496 -173.55378194 231.26694409 -177.0298624 229.18742466 C-179 227 -179 227 -179.5625 223.5 C-179 220 -179 220 -177.50979233 217.81368637 C-173.91970314 215.21932996 -170.54607742 215.44126692 -166.28082275 215.48101807 C-165.39127419 215.47351681 -164.50172563 215.46601556 -163.58522105 215.458287 C-160.59857073 215.43795503 -157.61267558 215.44612334 -154.62597656 215.45410156 C-152.48747504 215.44536956 -150.34898006 215.43488509 -148.210495 215.42277527 C-142.39888202 215.39484917 -136.58748154 215.39151205 -130.7758112 215.39249516 C-124.70455699 215.38937174 -118.6333993 215.36376546 -112.56219482 215.34051514 C-101.06276475 215.2999078 -89.56339146 215.27960328 -78.06390071 215.26654124 C-64.97331672 215.25068724 -51.88282956 215.21227836 -38.79230165 215.17194796 C-11.86156691 215.0894842 15.06916523 215.03543255 42 215 C42.48859497 214.12770752 42.48859497 214.12770752 42.98706055 213.23779297 C44.55129735 210.44874211 46.11942249 207.66189321 47.6875 204.875 C48.45416992 203.50601563 48.45416992 203.50601563 49.23632812 202.109375 C55.32148113 191.30732825 61.67261191 180.66128553 68 170 C67.40231975 170.00113916 66.8046395 170.00227832 66.18884772 170.003452 C30.79111611 170.07053867 -4.60660458 170.12203559 -40.0043865 170.15319599 C-44.25154098 170.15694826 -48.49869533 170.16083121 -52.74584961 170.16479492 C-53.59140666 170.16558185 -54.43696371 170.16636878 -55.3081437 170.16717956 C-69.01193982 170.18024511 -82.71569831 170.20390526 -96.41947208 170.23145839 C-110.47344844 170.25948066 -124.52740505 170.27616952 -138.5814082 170.28226548 C-147.25840528 170.28638854 -155.93529601 170.29942602 -164.61226036 170.3237494 C-170.55670107 170.3395674 -176.50108654 170.34440933 -182.44554678 170.34050413 C-185.87881822 170.33857641 -189.31190339 170.34159883 -192.74514198 170.35761642 C-196.4620664 170.37244231 -200.17852792 170.36898963 -203.89546204 170.36076355 C-204.98786188 170.36950207 -206.08026172 170.3782406 -207.20576459 170.38724393 C-208.19753869 170.38127078 -209.18931278 170.37529764 -210.21114063 170.36914349 C-211.49896213 170.37085223 -211.49896213 170.37085223 -212.81280023 170.37259549 C-215.52455211 169.91064111 -216.40063054 169.21476904 -218 167 C-218.92998487 160.05115307 -216.94061211 156.11095931 -213.1875 150.375 C-212.69048584 149.59229736 -212.19347168 148.80959473 -211.68139648 148.00317383 C-203.66566813 135.59225342 -194.18519634 124.66060154 -184 114 C-183.32582031 113.27296875 -182.65164062 112.5459375 -181.95703125 111.796875 C-153.2624712 81.69511904 -110.88911323 63.21425872 -70.13989258 58.26635742 C-68.20057791 58.0249664 -66.26758785 57.73404334 -64.3359375 57.4375 C-58.07078083 56.66376518 -51.73965857 56.80821891 -45.4375 56.8125 C-44.76637177 56.81277191 -44.09524353 56.81304382 -43.40377808 56.81332397 C-33.77017704 56.83131456 -24.48247791 57.1565049 -15 59 C-13.80503906 59.20625 -12.61007812 59.4125 -11.37890625 59.625 C21.68962989 65.68125636 54.74449436 79.51892793 80 102 C80.87011719 102.76183594 81.74023438 103.52367188 82.63671875 104.30859375 C87.59766211 108.70596208 92.38180277 113.24417438 97 118 C100.58552097 113.84834414 103.10387533 109.42564015 105.6875 104.625 C108.25838411 99.88584193 110.84028681 95.18345633 113.72265625 90.625 C114.14780518 89.94872559 114.5729541 89.27245117 115.01098633 88.57568359 C115.82174584 87.2992366 116.64538889 86.03085989 117.4831543 84.77197266 C119.60291588 81.54973876 119.60291588 81.54973876 119.54296875 77.84765625 C117.58239687 75.49993347 115.46743513 73.70677458 113.0625 71.8125 C107.07912558 67.06759894 107.07912558 67.06759894 104.42578125 64.80078125 C83.9064799 47.29810001 59.25135023 35.0093967 34 26 C33.25041016 25.73074707 32.50082031 25.46149414 31.72851562 25.18408203 C-6.46049142 11.60001287 -50.11696604 8.52511932 -89.85839844 16.56738281 C-91.27412534 16.85336869 -92.69146216 17.131509 -94.11035156 17.40136719 C-134.73791217 25.14441404 -173.21407892 44.46136101 -204 72 C-204.87914062 72.76957031 -205.75828125 73.53914063 -206.6640625 74.33203125 C-216.30528935 82.85392062 -225.11916012 91.81674446 -233 102 C-233.42394043 102.5475293 -233.84788086 103.09505859 -234.28466797 103.65917969 C-247.75247855 121.18652396 -259.90619151 140.52217832 -267.47949219 161.36743164 C-269.2412229 165.98565146 -270.67414925 168.56314481 -275 171 C-278.86720357 171.30791419 -282.65972136 170.93799539 -286.51953125 170.625 C-310.2081555 167.94078762 -310.2081555 167.94078762 -331.91357422 174.52001953 C-337.73405153 180.39980063 -340.26179747 188.30859486 -342.61132812 196.07080078 C-344.92139024 203.20485626 -349.16333787 209.60293814 -353 216 C-351.78850533 215.99000725 -351.78850533 215.99000725 -350.55253601 215.97981262 C-342.94524203 215.91972943 -335.33806292 215.87403998 -327.73059368 215.84456348 C-323.81939774 215.82889991 -319.90839766 215.80764937 -315.99731445 215.77368164 C-312.22367741 215.74111231 -308.4502289 215.7231522 -304.67646217 215.71536827 C-303.23591964 215.70982035 -301.79538754 215.69898664 -300.35492516 215.68280983 C-298.3391766 215.66107041 -296.32323879 215.6597749 -294.30737305 215.65942383 C-293.15931686 215.65276199 -292.01126068 215.64610016 -290.82841492 215.63923645 C-288 216 -288 216 -286.1320343 217.11383057 C-284.44380714 219.92671571 -284.60319528 222.25378157 -284.58007812 225.51928711 C-284.57160858 226.17654282 -284.56313904 226.83379852 -284.55441284 227.51097107 C-284.53101676 229.68329222 -284.53002122 231.85490615 -284.53125 234.02734375 C-284.52414983 235.53805322 -284.51645104 237.04875999 -284.50817871 238.5594635 C-284.49472789 241.72616064 -284.49316766 244.89260845 -284.49902344 248.05932617 C-284.50491966 252.11623148 -284.47433598 256.17194006 -284.43390656 260.22861385 C-284.40804789 263.34878476 -284.4051504 266.46866684 -284.40879822 269.58893013 C-284.40710515 271.08446828 -284.39744445 272.58001951 -284.37965393 274.0754528 C-284.35749764 276.16822073 -284.36714407 278.25855827 -284.38476562 280.35131836 C-284.38271118 281.54139999 -284.38065674 282.73148163 -284.37854004 283.95762634 C-285 287 -285 287 -287.30082703 289.40919495 C-291.03107159 291.60768017 -294.10845131 291.10551844 -298.23828125 290.625 C-314.52792182 288.72953961 -314.52792182 288.72953961 -329.71533203 293.14044189 C-336.14126632 299.09898278 -339.2743494 307.8628665 -342.27966309 315.87281799 C-344.03688363 320.29969781 -346.31149167 324.36018487 -348.69018555 328.47827148 C-349.10571434 329.20687126 -349.52124313 329.93547104 -349.94936371 330.6861496 C-350.96182172 332.45996366 -351.98028139 334.2303499 -353 336 C-352.00663635 335.98889694 -351.01327271 335.97779388 -349.98980713 335.96635437 C-340.63168715 335.86502864 -331.27367835 335.7900589 -321.91513443 335.74093914 C-317.1036723 335.71483704 -312.29265272 335.67942798 -307.48144531 335.62280273 C-302.83894244 335.56850454 -298.1968654 335.53858408 -293.55406952 335.52561378 C-291.78217615 335.51636992 -290.01030629 335.4983186 -288.23859406 335.47134972 C-285.75783297 335.43508711 -283.27883473 335.43005326 -280.79785156 335.43237305 C-280.06417358 335.41439667 -279.33049561 335.39642029 -278.57458496 335.37789917 C-274.79087334 335.41622142 -273.31505336 335.68753996 -270.58273315 338.39736938 C-269.16492471 340.72879945 -267.99464272 342.91601718 -266.9921875 345.44921875 C-266.65074707 346.28815674 -266.30930664 347.12709473 -265.95751953 347.99145508 C-265.60028809 348.8811499 -265.24305664 349.77084473 -264.875 350.6875 C-250.24354071 385.82189339 -225.77787444 417.35629005 -196 441 C-195.02160156 441.79535156 -194.04320312 442.59070313 -193.03515625 443.41015625 C-184.18431927 450.45287773 -174.79729522 456.36216505 -165 462 C-164.26040039 462.42812988 -163.52080078 462.85625977 -162.75878906 463.29736328 C-131.35485269 481.25135154 -94.27254889 492.37867459 -58 493 C-57.01016113 493.02046387 -56.02032227 493.04092773 -55.00048828 493.06201172 C-4.70242361 493.96862066 42.3087811 482.37726815 84.94555664 455.16992188 C87 454 87 454 92 452 C92 432.86 92 413.72 92 394 C89.36 396.31 86.72 398.62 84 401 C42.09506367 435.59995332 -8.48233216 452.74323757 -63.00390625 448.78173828 C-113.08294893 443.88232712 -162.50827541 419.65127803 -194.87890625 380.5859375 C-200.9888251 373.01259029 -206.61844029 365.1036277 -212 357 C-212.62390625 356.09121094 -213.2478125 355.18242187 -213.890625 354.24609375 C-217.37285848 348.91697476 -219.00951346 345.39358526 -218 339 C-216.93346691 337.29989147 -216.93346691 337.29989147 -215 336 C-212.41967376 335.71181533 -210.0820914 335.60804222 -207.50202942 335.63923645 C-206.7317583 335.63667318 -205.96148718 335.6341099 -205.16787452 335.63146895 C-202.57890923 335.62651544 -199.99052316 335.64304947 -197.40161133 335.65942383 C-195.54897577 335.66026976 -193.6963392 335.65979562 -191.84370422 335.65809631 C-186.8067648 335.65723362 -181.77003858 335.67490364 -176.73314881 335.69581819 C-171.47206842 335.71453943 -166.21098344 335.71633183 -160.94987488 335.71989441 C-150.98387432 335.72922828 -141.01797218 335.75386021 -131.05201501 335.78394288 C-119.70755603 335.81744516 -108.36309241 335.83396239 -97.01859629 335.84902918 C-73.67900957 335.88040859 -50.33951029 335.93319515 -27 336 C-26.70301208 335.23644699 -26.40602417 334.47289398 -26.10003662 333.686203 C-24.80999241 330.5360164 -23.21012275 327.69091503 -21.515625 324.73828125 C-21.00850983 323.85223457 -21.00850983 323.85223457 -20.4911499 322.94828796 C-19.77653814 321.70106629 -19.06038238 320.45472813 -18.34277344 319.20922852 C-17.2642953 317.33731237 -16.19030475 315.46288413 -15.1171875 313.58789062 C-5.24726179 296.37089268 -5.24726179 296.37089268 -1 290 C-2.20228619 290.00460896 -3.40457237 290.00921793 -4.64329147 290.01396656 C-33.17093895 290.12221129 -61.69858357 290.20468021 -90.22638993 290.25532665 C-93.73621344 290.26158032 -97.24603651 290.26805192 -100.75585938 290.2746582 C-101.45461399 290.27596976 -102.1533686 290.27728131 -102.8732976 290.2786326 C-114.19355047 290.30040047 -125.51367663 290.33982952 -136.83385429 290.38576398 C-148.44587583 290.43249035 -160.05782337 290.45991291 -171.66993451 290.47044247 C-178.19382747 290.47697262 -184.71743285 290.49236706 -191.24123383 290.52865028 C-197.37747387 290.56250261 -203.51330695 290.57307459 -209.6496315 290.56553841 C-211.90555404 290.56691776 -214.16148971 290.57691379 -216.4173317 290.59602737 C-219.49053872 290.62079648 -222.56219636 290.61496361 -225.63543701 290.60127258 C-226.53426755 290.61583679 -227.43309808 290.630401 -228.35916591 290.64540654 C-234.37575408 290.57263515 -234.37575408 290.57263515 -237.53407669 287.67543316 C-239.38273226 284.30148148 -239.82451887 281.54343098 -240.234375 277.71875 C-240.30944275 277.02036011 -240.3845105 276.32197021 -240.46185303 275.60241699 C-241.1539232 268.59953559 -241.30383591 261.6053184 -241.26074219 254.57275391 C-241.25000015 252.50002835 -241.26073653 250.42816888 -241.2734375 248.35546875 C-241.28302774 241.27620152 -240.98636299 234.2600371 -240.234375 227.21875 C-240.09741211 225.92904297 -239.96044922 224.63933594 -239.81933594 223.31054688 C-238.87605453 219.49919528 -238.29555322 218.13295893 -235 216 C-232.08920028 215.6021857 -229.56451259 215.43841 -226.65625 215.46875 C-225.85014282 215.4649231 -225.04403564 215.46109619 -224.21350098 215.45715332 C-222.51227568 215.4544361 -220.81100847 215.4617841 -219.10986328 215.47851562 C-216.50849104 215.4999301 -213.90988028 215.47870981 -211.30859375 215.453125 C-209.65363975 215.45576831 -207.99868746 215.46089337 -206.34375 215.46875 C-205.56761353 215.46065308 -204.79147705 215.45255615 -203.99182129 215.44421387 C-200.41311522 215.50623341 -198.4027618 215.6878038 -195.53320312 217.91210938 C-193.91954703 220.10955953 -193.16458988 221.28426705 -193 224 C-194.08029437 227.7810303 -194.64306263 228.76204175 -198 231 C-200.72729492 231.31884766 -200.72729492 231.31884766 -203.98046875 231.4140625 C-205.14384766 231.45273438 -206.30722656 231.49140625 -207.50585938 231.53125 C-208.72080078 231.5621875 -209.93574219 231.593125 -211.1875 231.625 C-212.41404297 231.66367188 -213.64058594 231.70234375 -214.90429688 231.7421875 C-217.93604656 231.83656103 -220.96778841 231.92214549 -224 232 C-224.73225093 239.01893374 -225.15860166 245.94365179 -225.125 253 C-225.12886719 253.81210937 -225.13273438 254.62421875 -225.13671875 255.4609375 C-225.12964937 259.94292414 -224.91504182 264.353442 -224.49169922 268.81640625 C-224.35427811 270.27929077 -224.35427811 270.27929077 -224.21408081 271.77172852 C-224.14343414 272.50705811 -224.07278748 273.2423877 -224 274 C-222.77194515 274.00238835 -221.5438903 274.00477671 -220.27862167 274.00723743 C-191.13992725 274.06457296 -162.00130382 274.13728615 -132.86269872 274.22898628 C-129.27776955 274.24025471 -125.69283998 274.25139312 -122.10791016 274.26245117 C-121.39420247 274.26465486 -120.68049478 274.26685854 -119.94515958 274.269129 C-108.38249063 274.30452033 -96.81982174 274.32937409 -85.25711867 274.35034702 C-73.39644578 274.37209448 -61.53584329 274.4051348 -49.67523026 274.44870156 C-43.0117272 274.472853 -36.34828858 274.49138056 -29.68474579 274.49761391 C-23.41719783 274.50364112 -17.14984981 274.52355517 -10.88237572 274.55427551 C-8.57811303 274.56309374 -6.27382425 274.56677055 -3.96954536 274.56500816 C-0.83092405 274.56336509 2.30708066 274.5799722 5.44561768 274.60127258 C6.36390295 274.59642501 7.28218823 274.59157743 8.22830033 274.58658296 C14.34902583 274.65544814 14.34902583 274.65544814 17.5268364 276.33742046 C19.32421613 278.36590308 20.04954197 280.17028604 20.29541016 282.8737793 C19.90560861 285.67938398 18.8031839 287.56202242 17.3984375 290.01953125 C16.57448486 291.47866943 16.57448486 291.47866943 15.73388672 292.96728516 C15.1617041 293.96808105 14.58952148 294.96887695 14 296 C12.94603611 297.89869691 11.89395033 299.79843757 10.84375 301.69921875 C4.76901133 312.59647113 -1.36694565 323.45684714 -7.625 334.25 C-8.20443359 335.25506592 -8.78386719 336.26013184 -9.38085938 337.2956543 C-16.28618994 349.14309497 -16.28618994 349.14309497 -20 351 C-22.30578588 351.09473969 -24.61441886 351.12189586 -26.92214966 351.12025452 C-27.64256372 351.12110894 -28.36297779 351.12196337 -29.10522258 351.12284368 C-31.53127355 351.12449736 -33.95725613 351.11897895 -36.38330078 351.11352539 C-38.11756387 351.11324347 -39.85182707 351.11340135 -41.58609009 351.1139679 C-46.30483981 351.11425567 -51.0235643 351.10836209 -55.74230814 351.10139394 C-60.6697467 351.09515716 -65.59718579 351.09455634 -70.52462769 351.09336853 C-79.86021566 351.09025617 -89.19579198 351.08204407 -98.53137481 351.07201904 C-109.15757777 351.06085494 -119.78378128 351.0553467 -130.40998864 351.05032361 C-152.27333228 351.03986138 -174.13666541 351.02226378 -196 351 C-194.57453755 353.07846075 -193.14662946 355.15516826 -191.71728516 357.23095703 C-191.31715714 357.81492752 -190.91702911 358.39889801 -190.504776 359.00056458 C-187.37541515 363.53906566 -184.04177213 367.7660041 -180.375 371.875 C-179.85421875 372.473125 -179.3334375 373.07125 -178.796875 373.6875 C-147.51602493 409.28295008 -101.9015952 429.7005721 -54.9375 432.8125 C-7.3793117 435.11587383 39.43133677 418.59214028 74.76660156 386.78930664 C84.09001343 378.55561259 84.09001343 378.55561259 92 369.0625 C94.53878496 366.44437801 96.39187051 366.12697141 99.90234375 365.5546875 C103.41477856 366.30034405 104.79171859 368.24752881 107 371 C107.4895628 374.01636039 107.67579052 376.46412587 107.63110352 379.47460938 C107.64183647 380.73649834 107.64183647 380.73649834 107.65278625 382.02388 C107.66966036 384.79772665 107.65027885 387.56995413 107.62890625 390.34375 C107.62973507 392.27518853 107.63219494 394.206627 107.63621521 396.13806152 C107.63907233 400.18324042 107.62438037 404.22786537 107.59692383 408.27294922 C107.56284127 413.45502373 107.56886011 418.63610776 107.5875864 423.81822968 C107.598161 427.80572751 107.58921437 431.79299535 107.57420158 435.7804718 C107.56902269 437.69101783 107.56949802 439.60158791 107.57574654 441.51213074 C107.58120429 444.18374172 107.56080633 446.8539406 107.53344727 449.52539062 C107.54323608 450.7069146 107.54323608 450.7069146 107.55322266 451.91230774 C107.46633782 456.90834072 106.55005461 459.47683796 103 463 C101.27099609 464.41870117 101.27099609 464.41870117 99.5234375 465.54296875 C98.86287354 465.97158203 98.20230957 466.40019531 97.52172852 466.84179688 C96.4590979 467.50791992 96.4590979 467.50791992 95.375 468.1875 C94.62210693 468.66380859 93.86921387 469.14011719 93.09350586 469.63085938 C90.73932371 471.10481607 88.37319833 472.55688565 86 474 C85.29536621 474.43006348 84.59073242 474.86012695 83.86474609 475.30322266 C56.59617937 491.7234885 25.48397395 502.47185264 -6 507 C-7.19447754 507.17587646 -8.38895508 507.35175293 -9.61962891 507.53295898 C-21.45108101 509.16176396 -33.19599934 509.35904467 -45.125 509.3125 C-46.11956207 509.31034485 -47.11412415 509.3081897 -48.13882446 509.30596924 C-62.62165106 509.25560229 -76.76489867 508.89634203 -91 506 C-91.99805664 505.80664062 -92.99611328 505.61328125 -94.02441406 505.4140625 C-140.07668311 496.31315663 -183.83263596 475.47069699 -218 443 C-219.3894001 441.78427491 -220.78481591 440.57537389 -222.1875 439.375 C-229.00877751 433.43074389 -235.19722328 426.93420615 -241 420 C-241.41733398 419.50709473 -241.83466797 419.01418945 -242.26464844 418.50634766 C-282 371.32587553 -282 371.32587553 -282 351 C-283.07883957 351.00888245 -284.15767914 351.01776489 -285.26921082 351.0269165 C-295.43645021 351.10800466 -305.603624 351.16796656 -315.7711134 351.20724869 C-320.99834356 351.22812301 -326.22531266 351.25643808 -331.45239258 351.30175781 C-336.49688088 351.34522071 -341.54111809 351.36913827 -346.58577919 351.37950897 C-348.51032781 351.38689952 -350.4348627 351.40133154 -352.35930443 351.42292023 C-355.05518663 351.45196014 -357.75003147 351.45595577 -360.44604492 351.45410156 C-361.24158279 351.46848267 -362.03712067 351.48286377 -362.85676575 351.49768066 C-366.56416975 351.47009153 -368.79092226 351.12688464 -371.98750305 349.18695068 C-374 347 -374 347 -374.75390625 343.5546875 C-374.31059991 337.03583018 -370.23015142 331.57460123 -366.9375 326.125 C-366.21135659 324.89512459 -365.48693481 323.66423122 -364.76416016 322.43237305 C-363.26855295 319.88730691 -361.76446413 317.34754451 -360.25439453 314.81103516 C-358.06790491 311.12844596 -355.93079854 307.41914242 -353.80859375 303.69921875 C-353.47498337 303.115354 -353.14137299 302.53148926 -352.7976532 301.92993164 C-351.21450697 299.15897037 -349.63239752 296.38741813 -348.05053711 293.61572266 C-338.28172887 276.64086444 -338.28172887 276.64086444 -335 275 C-332.44637396 274.91341431 -329.9204558 274.88437484 -327.3671875 274.90234375 C-326.61535187 274.9037587 -325.86351624 274.90517365 -325.08889771 274.90663147 C-322.6842249 274.91223535 -320.27964473 274.92478843 -317.875 274.9375 C-316.24609509 274.9425145 -314.61718873 274.9470775 -312.98828125 274.95117188 C-308.99215173 274.96220603 -304.99609158 274.97947321 -301 275 C-301.10610596 274.12601562 -301.10610596 274.12601562 -301.21435547 273.234375 C-301.97067634 266.47135114 -302.15089288 259.80119542 -302.125 253 C-302.12886719 251.98421875 -302.13273437 250.9684375 -302.13671875 249.921875 C-302.13542969 248.91640625 -302.13414062 247.9109375 -302.1328125 246.875 C-302.13168457 245.98554688 -302.13055664 245.09609375 -302.12939453 244.1796875 C-301.94976487 239.76554283 -301.47452986 235.39097393 -301 231 C-301.84080612 231.00888245 -302.68161224 231.01776489 -303.54789734 231.0269165 C-311.47828496 231.10712118 -319.40853603 231.16799418 -327.33923626 231.20724869 C-331.41635654 231.22810852 -335.49314122 231.25639619 -339.57006836 231.30175781 C-343.50582482 231.34527382 -347.44125882 231.36914918 -351.37723732 231.37950897 C-352.87755216 231.38689011 -354.37784969 231.40130403 -355.87802696 231.42292023 C-357.98246531 231.45203262 -360.08557767 231.45595302 -362.19018555 231.45410156 C-363.38709518 231.46298401 -364.58400482 231.47186646 -365.81718445 231.48101807 C-369.66275916 230.89983738 -371.31119428 229.77175094 -374 227 C-375.77169407 218.90344991 -370.99431151 212.83934724 -366.9375 206.125 C-366.21135659 204.89512459 -365.48693481 203.66423122 -364.76416016 202.43237305 C-363.26855295 199.88730691 -361.76446413 197.34754451 -360.25439453 194.81103516 C-358.06790491 191.12844596 -355.93079854 187.41914242 -353.80859375 183.69921875 C-353.47498337 183.115354 -353.14137299 182.53148926 -352.7976532 181.92993164 C-351.21450697 179.15897037 -349.63239752 176.38741813 -348.05053711 173.61572266 C-338.28172887 156.64086444 -338.28172887 156.64086444 -335 155 C-333.30456409 154.90948931 -331.60556022 154.88245128 -329.90771484 154.88647461 C-328.31629166 154.88658791 -328.31629166 154.88658791 -326.69271851 154.88670349 C-324.96923691 154.89444542 -324.96923691 154.89444542 -323.2109375 154.90234375 C-321.45059677 154.90446617 -321.45059677 154.90446617 -319.6546936 154.90663147 C-315.89477015 154.91224311 -312.13490555 154.92479762 -308.375 154.9375 C-305.83073002 154.9425135 -303.28645912 154.94707667 -300.7421875 154.95117188 C-294.49477147 154.96221632 -288.24738994 154.97896582 -282 155 C-281.70581429 154.09310677 -281.70581429 154.09310677 -281.40568542 153.16789246 C-281.01187431 151.96753105 -281.01187431 151.96753105 -280.61010742 150.74291992 C-280.35210861 149.95269943 -280.0941098 149.16247894 -279.82829285 148.34831238 C-278.59676169 144.85676967 -277.0031004 141.6008704 -275.3125 138.3125 C-274.78813354 137.28286133 -274.78813354 137.28286133 -274.25317383 136.23242188 C-249.22903395 87.54164983 -210.36614746 49.36750877 -162 24 C-160.92685547 23.42983154 -160.92685547 23.42983154 -159.83203125 22.84814453 C-138.52512834 11.66590154 -114.61276777 4.33813877 -91 0 C-90.19401367 -0.16081055 -89.38802734 -0.32162109 -88.55761719 -0.48730469 C-60.60389422 -5.91249702 -27.90015671 -5.48097109 0 0 Z " fill="#010000" transform="translate(374,3)"/>
<path d="M0 0 C92.73 0 185.46 0 281 0 C279.45782782 3.85543044 277.90199218 7.08953498 275.83984375 10.6484375 C274.8952832 12.28232422 274.8952832 12.28232422 273.93164062 13.94921875 C273.27357422 15.07972656 272.61550781 16.21023437 271.9375 17.375 C270.99100586 19.01275391 270.99100586 19.01275391 270.02539062 20.68359375 C268.75288105 22.8793469 267.4582774 25.06246982 266.14008999 27.23110867 C264.6605918 29.73110959 263.45726281 32.21392656 262.36162663 34.90268803 C260.26225957 39.67698519 258.0357271 44.71386475 252.99192309 46.8507545 C246.82611869 48.24191032 240.51803963 47.87823171 234.24194336 47.70288086 C232.12241925 47.69864641 230.00287316 47.70103132 227.88336182 47.70951843 C222.14453462 47.71381458 216.41043072 47.62577941 210.67269969 47.52090907 C204.67116956 47.4269958 198.66952519 47.41831736 192.66737366 47.40052795 C181.30873049 47.35394604 169.95225861 47.23091506 158.5945707 47.08028561 C145.66142103 46.91249362 132.7281664 46.83011923 119.79419887 46.75485408 C93.19492978 46.5981575 66.59758665 46.3344032 40 46 C40 45.67 40 45.34 40 45 C102.7 45 165.4 45 230 45 C230.66 43.35 231.32 41.7 232 40 C232.96392723 38.1516517 233.95860134 36.31914876 234.9765625 34.5 C235.56566406 33.44683594 236.15476562 32.39367187 236.76171875 31.30859375 C237.37660156 30.21675781 237.99148438 29.12492187 238.625 28 C239.51251953 26.40865234 239.51251953 26.40865234 240.41796875 24.78515625 C244.75880617 17.05040275 249.3433786 9.56700977 254 2 C170.18 1.67 86.36 1.34 0 1 C0 0.67 0 0.34 0 0 Z " fill="#D7782E" transform="translate(161,173)"/>
<path d="M0 0 C76.56 0 153.12 0 232 0 C229.33677433 5.32645133 226.40875554 10.4919675 223.5 15.6875 C222.63761719 17.2353418 222.63761719 17.2353418 221.7578125 18.81445312 C220.5687682 20.93941547 219.35931864 23.05309248 218.12943077 25.1546793 C216.60118381 27.82256228 215.30240755 30.5196504 214.06510353 33.33335018 C208.84290679 44.52442338 208.84290679 44.52442338 204.13457823 46.96822476 C198.78392854 48.49015581 193.29344684 48.13231264 187.79052734 47.92993164 C185.95656789 47.92513011 184.1225758 47.92784041 182.28863525 47.93745422 C177.33194365 47.94231467 172.38230626 47.84271166 167.42724943 47.72369695 C162.24130707 47.61710195 157.05518545 47.60741443 151.86831665 47.58726501 C142.05687343 47.53451642 132.24866727 47.39515081 122.43864691 47.22432369 C111.2661723 47.0340136 100.09353936 46.94076682 88.9198463 46.85550129 C65.94477244 46.67801426 42.9725679 46.37918704 20 46 C20 45.67 20 45.34 20 45 C20.81537924 45.01051675 21.63075848 45.0210335 22.47084618 45.03186893 C42.33581727 45.28221091 62.19958771 45.43810627 82.0661068 45.48965549 C91.67381791 45.51684902 101.27936684 45.57567764 110.88623047 45.7097168 C119.26251626 45.82650534 127.63671756 45.88318871 136.01384223 45.86853737 C140.44822524 45.86285929 144.87790583 45.88669698 149.31135178 45.98260689 C166.33973483 47.0779853 166.33973483 47.0779853 182.24750519 42.66010666 C186.69852875 38.23356816 187.80444827 32.95617876 190 27 C194.95 18.42 199.9 9.84 205 1 C137.35 1 69.7 1 0 1 C0 0.67 0 0.34 0 0 Z " fill="#DB7A2F" transform="translate(141,293)"/>
<path d="M0 0 C0.46647658 7.35213638 0.82014859 14.70102994 1.03624344 22.06503677 C1.14007618 25.48686988 1.28022166 28.89850296 1.50878906 32.31445312 C2.94649849 54.357856 2.94649849 54.357856 -1.97924805 60.4465332 C-8.19824203 65.65055968 -15.39202907 68.46400969 -23 71 C-23.42312378 63.6008974 -23.75753241 56.20152498 -24.03149414 48.79541016 C-24.13494688 46.27854589 -24.2584374 43.76242019 -24.40258789 41.24755859 C-25.58271006 20.30349567 -25.58271006 20.30349567 -21.74682617 14.72070312 C-18.90639223 12.68435642 -16.21588249 11.34247466 -13 10 C-11.10528741 8.57388077 -11.10528741 8.57388077 -9.58984375 7.03125 C-2.22222222 0 -2.22222222 0 0 0 Z " fill="#F88535" transform="translate(466,397)"/>
<path d="M0 0 C6.38731868 4.59899008 12.21497626 9.66544942 18 15 C16.51132844 19.01591869 14.60866846 22.61812482 12.48046875 26.33203125 C12.14002029 26.92747238 11.79957184 27.52291351 11.44880676 28.13639832 C10.73001768 29.39202237 10.00966615 30.64675315 9.2878418 31.90063477 C8.19797472 33.79429997 7.11322955 35.69082363 6.02929688 37.58789062 C2.47048007 43.8017999 -1.14488331 49.9635992 -5 56 C-10.2916954 51.59025383 -15.17838636 46.91594956 -20 42 C-20.99887451 40.99887577 -21.9984556 39.99845321 -23 39 C-22.37049438 38.44735474 -22.37049438 38.44735474 -21.72827148 37.88354492 C-19.47116959 35.42365777 -17.99811685 32.76580083 -16.34765625 29.86328125 C-16.00625107 29.26501022 -15.66484589 28.6667392 -15.31309509 28.05033875 C-14.59226231 26.78494305 -13.8737701 25.51821155 -13.1574707 24.25024414 C-12.07447163 22.33368592 -10.9842103 20.42141709 -9.89257812 18.50976562 C-6.42597529 12.41972318 -3.04277796 6.31594903 0 0 Z " fill="#FC8736" transform="translate(477,66)"/>
</svg>
