<?xml version="1.0" encoding="UTF-8"?>
<svg version="1.1" xmlns="http://www.w3.org/2000/svg" width="512" height="512">
<path d="M0 0 C1.8625798 -0.00543112 3.72515529 -0.01255929 5.58772278 -0.02124023 C10.61050161 -0.03935888 15.63294904 -0.03245372 20.65573311 -0.01972389 C25.93337974 -0.00953648 31.21099961 -0.01900542 36.48864746 -0.02526855 C45.34844004 -0.03252832 54.20809886 -0.02300121 63.06787109 -0.00390625 C73.28414235 0.01785921 83.50009419 0.01080666 93.71635771 -0.01121187 C102.51677782 -0.02941359 111.31710225 -0.03190092 120.11753511 -0.0214572 C125.36097727 -0.01524844 130.60426972 -0.01431411 135.84770203 -0.02760315 C140.77928673 -0.03923072 145.71046303 -0.03101076 150.64200401 -0.00802612 C152.44261182 -0.00277571 154.24325451 -0.00418922 156.04384804 -0.01307678 C173.66280765 -0.09196763 187.67995058 3.33420328 200.94726562 15.70507812 C213.50925363 28.94244183 216.36728768 43.98041772 216.31079102 61.51147461 C216.31093704 62.7024324 216.31108307 63.8933902 216.31123352 65.12043762 C216.31065841 68.36787087 216.30566133 71.61526038 216.29865956 74.86268497 C216.2923859 78.26327749 216.29181906 81.66387097 216.29063416 85.06446838 C216.28753264 91.49578313 216.27933521 97.92708077 216.26928467 104.35838801 C216.25808683 111.68368065 216.25260384 119.00897414 216.24758923 126.33427322 C216.23715156 141.39538437 216.21957505 156.45647953 216.19726562 171.51757812 C216.87087631 171.6426474 217.544487 171.76771667 218.23851013 171.89657593 C219.12909622 172.06718536 220.01968231 172.2377948 220.93725586 172.41357422 C222.25704689 172.66305313 222.25704689 172.66305313 223.60350037 172.91757202 C227.44000413 173.80505622 230.7784603 175.33615005 234.25976562 177.14257812 C234.94876953 177.49666748 235.63777344 177.85075684 236.34765625 178.21557617 C255.77489571 188.55403525 265.6668741 209.48097712 271.88476562 229.74414062 C277.61369265 249.7370967 279.60648947 270.79665165 280.19726562 291.51757812 C280.22594727 292.47438477 280.25462891 293.43119141 280.28417969 294.41699219 C280.79787646 314.90634062 279.56468142 335.28614553 278.26464844 355.7277832 C277.58092558 366.70228263 277.06303674 377.63653876 277.05664062 388.63476562 C277.05603638 389.60344574 277.05543213 390.57212585 277.05480957 391.57015991 C277.15225358 408.00228686 278.68616028 426.00647278 290.88476562 438.20507812 C301.77833451 446.45187196 314.22488337 448.77815926 327.61132812 447.24023438 C335.49848279 445.8172941 341.93387156 441.86763289 346.88867188 435.55664062 C367.94999427 402.73869946 352.08745968 345.46417165 346.97851562 310.04125977 C346.80393829 308.82917343 346.62936096 307.6170871 346.44949341 306.36827087 C346.1198292 304.08641187 345.78800829 301.80486295 345.45358276 299.5236969 C345.01874233 296.5235947 344.60126914 293.52197756 344.19726562 290.51757812 C344.08795212 289.724422 343.97863861 288.93126587 343.86601257 288.11407471 C342.99175304 280.83644447 343.13450463 273.56128323 343.21199226 266.24662781 C343.2547544 261.38467165 343.24226478 256.52243982 343.24210453 251.66033173 C343.24510679 247.41015007 343.26598794 243.16143327 343.32397461 238.91162109 C343.37940442 234.76910323 343.38553283 230.62902643 343.35928154 226.48625183 C343.3580553 224.92025612 343.37429962 223.35413575 343.40919685 221.78852844 C343.67481376 212.64663562 343.67481376 212.64663562 340.05148315 204.45141602 C337.54679271 201.9492393 334.93438299 199.75795537 332.19726562 197.51757812 C329.02565089 193.97897755 326.09768034 190.2806803 323.19726562 186.51757812 C322.78976074 185.99180176 322.38225586 185.46602539 321.96240234 184.92431641 C308.90547612 167.9186622 299.56419766 149.46049134 301.19726562 127.51757812 C303.52424228 115.89599186 309.11510027 105.89103227 316.19726562 96.51757812 C296.02244738 81.4349616 272.5061364 70.94763504 247.82226562 65.95507812 C242.74022908 64.86884131 240.23749981 63.75219003 237.19726562 59.51757812 C235.64249873 56.40804433 235.91082126 53.95491052 236.19726562 50.51757812 C238.30591881 46.52619888 239.9665845 44.12750459 244.19726562 42.51757812 C250.85244835 42.33259103 257.47750716 44.11307147 263.82226562 45.95507812 C264.71469971 46.21385742 265.60713379 46.47263672 266.52661133 46.73925781 C300.31902675 56.94449129 329.78959464 75.25533493 355.19726562 99.51757812 C356.17953125 100.42056641 356.17953125 100.42056641 357.18164062 101.34179688 C373.82002047 117.06902735 386.98217943 137.98940713 388.41601562 161.03320312 C388.8535903 177.58811172 383.67410883 191.35547722 372.34570312 203.45898438 C370.19726562 205.51757813 370.19726562 205.51757813 368.09434509 206.78079224 C365.94789851 208.39814357 365.94789851 208.39814357 365.69606018 211.15084839 C365.69581093 212.74172775 365.69581093 212.74172775 365.69555664 214.36474609 C365.68617569 215.57226532 365.67679474 216.77978455 365.66712952 218.02389526 C365.67836349 219.33923248 365.68959747 220.6545697 365.70117188 222.00976562 C365.7010165 223.39332149 365.69952113 224.77687778 365.69676208 226.16043091 C365.69537354 229.08110512 365.70796951 232.00129132 365.73071289 234.921875 C365.758422 238.57143328 365.75625352 242.22014746 365.74403667 245.86976242 C365.66995078 273.41665398 368.66899706 300.28819425 372.75976562 327.51757812 C375.91183413 348.5480723 378.61829062 369.34498344 378.50976562 390.64257812 C378.50761047 391.41718384 378.50545532 392.19178955 378.50323486 392.98986816 C378.40779425 414.46897146 376.6272207 436.36848804 362.19726562 453.51757812 C361.62621094 454.22269531 361.05515625 454.9278125 360.46679688 455.65429688 C352.06117181 465.06357866 340.0450074 469.66450336 327.68896484 470.73486328 C307.90338798 471.67408875 290.35132753 468.44220017 274.82226562 455.20507812 C260.26223086 441.21139804 254.66825238 421.58973934 254.08740234 401.76855469 C254.01152314 397.18492856 254.00569555 392.60173041 254.00976562 388.01757812 C254.00867798 386.75557587 254.00867798 386.75557587 254.00756836 385.46807861 C254.00862685 374.22765149 254.36939581 363.10475241 255.19726562 351.89257812 C257.44533873 320.28894478 258.86298857 286.80508102 253.19726562 255.51757812 C253.0203418 254.53821289 252.84341797 253.55884766 252.66113281 252.54980469 C248.92202739 232.75644007 243.05168298 213.04046351 227.19726562 199.51757812 C221.75226563 197.04257812 221.75226563 197.04257812 216.19726562 194.51757812 C216.19726562 278.99757813 216.19726562 363.47757813 216.19726562 450.51757812 C218.17726563 451.17757813 220.15726562 451.83757812 222.19726562 452.51757812 C230.37363834 457.98820725 234.8410329 465.10348047 237.19726562 474.51757812 C237.54416256 479.01521253 237.52704251 483.50682461 237.51293945 488.015625 C237.50976292 490.1443936 237.53334666 492.27179157 237.55859375 494.40039062 C237.56086568 495.76497222 237.56157073 497.12955752 237.56054688 498.49414062 C237.56501831 500.33613037 237.56501831 500.33613037 237.56958008 502.21533203 C237.16378359 505.81454729 236.37721656 507.65509379 234.19726562 510.51757812 C230.88185372 512.72785273 229.87403798 512.76958947 226.01632118 512.77764034 C224.9370623 512.78470593 223.85780341 512.79177153 222.74583972 512.79905123 C221.55568581 512.79663614 220.36553191 512.79422106 219.13931274 512.79173279 C217.24803306 512.79958781 217.24803306 512.79958781 215.3185457 512.80760151 C211.81186925 512.82181183 208.3052813 512.82344423 204.79858017 512.8230046 C201.01934212 512.82465014 197.24014082 512.83771163 193.46092224 512.84919739 C185.19449942 512.8720663 176.92810225 512.8799699 168.66165209 512.88502383 C163.50212629 512.88827839 158.34260797 512.89479937 153.1830864 512.90202522 C138.90344037 512.92159294 124.6238013 512.93799637 110.34414101 512.94090176 C108.97294795 512.94118311 108.97294795 512.94118311 107.57405403 512.94147015 C105.7208213 512.94183641 103.86758858 512.9422001 102.01435585 512.94256126 C100.63439814 512.94283548 100.63439814 512.94283548 99.2265625 512.94311523 C98.30547059 512.94329578 97.38437868 512.94347633 96.4353749 512.94366235 C81.5044359 512.94720534 66.57364101 512.9742347 51.64275201 513.01161312 C36.320787 513.04966431 20.99889356 513.06905899 5.67688024 513.06936127 C-2.92889844 513.06994653 -11.5345052 513.07848267 -20.14023972 513.10735893 C-27.46697228 513.13183016 -34.79347022 513.13918463 -42.12023257 513.12411141 C-45.85968661 513.1169251 -49.59867693 513.11787303 -53.33807945 513.140522 C-57.38933467 513.16482516 -61.43952747 513.15052493 -65.49081421 513.13230896 C-66.67650667 513.14550893 -67.86219912 513.1587089 -69.08382165 513.17230886 C-77.92882898 513.08105396 -77.92882898 513.08105396 -81.00972939 510.10415745 C-84.77623921 504.6706107 -84.06202986 499.12225327 -84.09790039 492.72631836 C-84.10932707 491.31150233 -84.12962827 489.89672614 -84.15942383 488.48217773 C-84.38818901 477.61519248 -83.87107449 466.94243597 -75.99023438 458.58007812 C-72.55626325 454.99847833 -69.30470181 452.58848314 -64.80273438 450.51757812 C-64.14273438 450.51757812 -63.48273437 450.51757812 -62.80273438 450.51757812 C-62.80349382 449.6782426 -62.80425326 448.83890707 -62.80503571 447.97413713 C-62.84980533 398.2129966 -62.88411431 348.45185821 -62.90486503 298.69070156 C-62.90736641 292.71396702 -62.90995505 286.73723253 -62.91259766 280.76049805 C-62.91312228 279.57065279 -62.9136469 278.38080753 -62.91418742 277.15490635 C-62.92288673 257.89666678 -62.93865411 238.63843917 -62.95703997 219.38020668 C-62.97575217 199.61509776 -62.9868539 179.84999509 -62.99091136 160.08487767 C-62.99365368 147.89170747 -63.00231083 135.69857108 -63.01856731 123.50541129 C-63.02915048 115.14072023 -63.03233198 106.7760466 -63.02973713 98.41134933 C-63.02845792 93.58755594 -63.03039986 88.76382155 -63.04114532 83.94003868 C-63.05092484 79.51743322 -63.05133894 75.0949261 -63.04453216 70.67231598 C-63.0436917 69.07855354 -63.04618875 67.4847848 -63.05250074 65.89103464 C-63.12031142 47.70056183 -61.36542943 31.57260197 -48.80273438 17.51757812 C-47.98482422 16.57785156 -47.98482422 16.57785156 -47.15039062 15.61914062 C-34.32803065 1.80116211 -17.79086538 -0.08781406 0 0 Z M333.19726562 111.51757812 C327.45289698 118.14782531 323.92645686 125.10072897 322.75976562 133.76757812 C325.29047774 155.45939626 339.87886782 172.17391233 354.19726562 187.51757812 C359.86691634 183.56200786 363.25786142 179.22641843 365.19726562 172.51757812 C366.637388 160.70104082 365.4967071 149.97299767 358.57226562 140.14257812 C358.12496094 139.49192383 357.67765625 138.84126953 357.21679688 138.17089844 C350.67142345 128.74910378 343.41516123 119.55217495 335.19726562 111.51757812 C334.53726562 111.51757812 333.87726563 111.51757812 333.19726562 111.51757812 Z " fill="#F34336" transform="translate(103.802734375,-0.517578125)"/>
<path d="M0 0 C0.72913689 -0.00367669 1.45827379 -0.00735338 2.20950574 -0.01114148 C4.66532754 -0.02219991 7.12110707 -0.02602579 9.57695007 -0.02983093 C11.33265824 -0.03609392 13.08836507 -0.04274057 14.84407043 -0.04974365 C19.62305631 -0.06716783 24.40203217 -0.07770911 29.18104196 -0.08594918 C32.16511157 -0.09109596 35.14917806 -0.09717181 38.13324547 -0.10346031 C47.46484539 -0.12251569 56.79643737 -0.13674652 66.12805301 -0.14507228 C76.9089822 -0.15484929 87.68970632 -0.18117947 98.47056323 -0.22157317 C106.79757849 -0.25170499 115.12453486 -0.26653833 123.45160359 -0.26985329 C128.42783298 -0.27220699 133.40384338 -0.28120893 138.38001442 -0.30631447 C143.06104814 -0.32954916 147.74171797 -0.33384704 152.42279434 -0.32355309 C154.14130677 -0.3230565 155.85983683 -0.32941293 157.57829475 -0.34310913 C159.92405428 -0.36075956 162.26849815 -0.35375683 164.61425781 -0.34057617 C165.92705876 -0.34296453 167.23985971 -0.34535288 168.59244251 -0.34781361 C172.60046389 0.2348045 174.19323204 1.27024419 176.99760437 4.14717102 C179.13059739 7.28609444 179.25206646 9.88798101 179.26502991 13.63700867 C179.27782486 15.31087395 179.27782486 15.31087395 179.2908783 17.01855469 C179.28951874 18.84831596 179.28951874 18.84831596 179.28813171 20.71504211 C179.29484894 22.00321335 179.30156616 23.29138458 179.30848694 24.61859131 C179.32614528 28.14965545 179.33084224 31.68062264 179.33211851 35.21172667 C179.33354078 37.41891327 179.3378118 39.62607528 179.34311295 41.83325577 C179.36161274 49.5365429 179.36978363 57.23976085 179.36820984 64.94306946 C179.36700847 72.11860549 179.38810972 79.29384071 179.41969717 86.46930063 C179.44586682 92.63419424 179.45657685 98.79898964 179.45529902 104.96393836 C179.45478958 108.6440645 179.46046246 112.32392328 179.48165512 116.00399399 C179.50465374 120.10970809 179.4955125 124.2147501 179.48344421 128.32051086 C179.49468323 129.53630325 179.50592224 130.75209564 179.51750183 132.00473022 C179.43805258 142.62656067 179.43805258 142.62656067 174.99760437 147.14717102 C170.87720151 149.27161438 167.34451146 149.40053491 162.74833679 149.40786743 C161.66916253 149.41360575 161.66916253 149.41360575 160.56818676 149.41946 C158.16307406 149.42975957 155.75820144 149.42580371 153.35307312 149.42182922 C151.62647786 149.42617733 149.89988453 149.43136081 148.17329407 149.43731689 C143.48743171 149.45070615 138.80165001 149.45128574 134.11577225 149.4487536 C130.20407938 149.44768403 126.29240284 149.45256678 122.38071346 149.45735902 C113.15371415 149.46845353 103.92675556 149.46889164 94.69975281 149.46284485 C85.17881831 149.45680145 75.65803146 149.4691255 66.13712215 149.49041492 C57.9629036 149.50802138 49.7887321 149.51403386 41.61449528 149.51077718 C36.7322596 149.50896296 31.85012929 149.51161445 26.96791077 149.52549171 C22.37797242 149.53805023 17.78826466 149.53614474 13.19832993 149.52308083 C11.51369016 149.52071134 9.82903427 149.52346304 8.14441299 149.53170395 C5.84496393 149.54214169 3.54629288 149.53409536 1.24687195 149.52139282 C-0.03990952 149.52156056 -1.32669098 149.52172831 -2.65246582 149.52190113 C-6.27765804 149.1163796 -8.12628489 148.35082779 -11.00239563 146.14717102 C-13.26207691 142.7576491 -13.25651631 141.59267437 -13.26982117 137.6190033 C-13.27835114 136.469366 -13.2868811 135.3197287 -13.29566956 134.13525391 C-13.29476318 132.87284378 -13.29385681 131.61043365 -13.29292297 130.30976868 C-13.29890692 128.96769842 -13.30571216 127.62563161 -13.3132782 126.28356934 C-13.33095968 122.63681498 -13.33563449 118.99015445 -13.33690977 115.34336138 C-13.33880844 112.29914494 -13.34616566 109.25495038 -13.35325396 106.21074235 C-13.36954388 99.02808231 -13.37442239 91.84547241 -13.3730011 84.66279602 C-13.37179966 77.25380162 -13.39290027 69.84509853 -13.42448843 62.43617785 C-13.45064232 56.07514374 -13.46136876 49.71420482 -13.46009028 43.35311735 C-13.45958035 39.55396309 -13.46527993 35.75506765 -13.48644638 31.95596695 C-13.50581399 28.38209092 -13.50596391 24.80872094 -13.49141312 21.23482704 C-13.4883257 19.2999082 -13.5050121 17.3649894 -13.52229309 15.43014526 C-13.51390411 14.27486832 -13.50551514 13.11959137 -13.49687195 11.92930603 C-13.49796148 10.92752634 -13.49905102 9.92574665 -13.50017357 8.89361 C-12.86485538 5.38830675 -11.43285175 3.70183862 -9.00239563 1.14717102 C-6.02283436 -0.34260961 -3.32538925 0.01083427 0 0 Z " fill="#CFD7DB" transform="translate(98.00239562988281,42.85282897949219)"/>
<path d="M0 0 C0.89243408 0.2587793 1.78486816 0.51755859 2.7043457 0.78417969 C36.49676112 10.98941316 65.96732902 29.30025681 91.375 53.5625 C92.02984375 54.16449219 92.6846875 54.76648438 93.359375 55.38671875 C109.99775484 71.11394922 123.1599138 92.034329 124.59375 115.078125 C125.03132468 131.63303359 119.85184321 145.4003991 108.5234375 157.50390625 C106.375 159.5625 106.375 159.5625 104.27207947 160.82571411 C102.12563289 162.44306545 102.12563289 162.44306545 101.87379456 165.19577026 C101.87362839 166.25635651 101.87346222 167.31694275 101.87329102 168.40966797 C101.86391006 169.61718719 101.85452911 170.82470642 101.84486389 172.06881714 C101.85609787 173.38415436 101.86733185 174.69949158 101.87890625 176.0546875 C101.87875087 177.43824337 101.8772555 178.82179966 101.87449646 180.20535278 C101.87310792 183.12602699 101.88570389 186.0462132 101.90844727 188.96679688 C101.93615638 192.61635516 101.9339879 196.26506934 101.92177105 199.9146843 C101.84768515 227.46157585 104.84673144 254.33311613 108.9375 281.5625 C112.08956851 302.59299418 114.79602499 323.38990532 114.6875 344.6875 C114.68426727 345.84940857 114.68426727 345.84940857 114.68096924 347.03479004 C114.58552862 368.51389333 112.80495508 390.41340992 98.375 407.5625 C97.80394531 408.26761719 97.23289062 408.97273438 96.64453125 409.69921875 C88.23890619 419.10850054 76.22274178 423.70942523 63.86669922 424.77978516 C44.08112236 425.71901063 26.5290619 422.48712204 11 409.25 C-3.56003476 395.25631991 -9.15401325 375.63466122 -9.73486328 355.81347656 C-9.81074248 351.22985044 -9.81657008 346.64665228 -9.8125 342.0625 C-9.8132251 341.22116516 -9.8139502 340.37983032 -9.81469727 339.51300049 C-9.81363877 328.27257337 -9.45286981 317.14967429 -8.625 305.9375 C-6.3769269 274.33386665 -4.95927706 240.8500029 -10.625 209.5625 C-10.89038574 208.09345215 -10.89038574 208.09345215 -11.16113281 206.59472656 C-14.76953077 187.49327625 -20.45636396 165.99366239 -36.625 153.5625 C-40.55216273 151.3066759 -44.49260602 149.4408609 -48.625 147.5625 C-48.625 140.3025 -48.625 133.0425 -48.625 125.5625 C-37.41592218 126.96363473 -28.62090411 130.798138 -19.625 137.5625 C-19.02171875 138.00078125 -18.4184375 138.4390625 -17.796875 138.890625 C4.8057033 156.60615934 11.2881541 191.47109996 14.5625 218.1875 C15.56813715 227.29351249 16.11395437 236.40656641 16.375 245.5625 C16.40368164 246.51930664 16.43236328 247.47611328 16.46191406 248.46191406 C16.97561083 268.95126249 15.7424158 289.33106741 14.44238281 309.77270508 C13.75865995 320.7472045 13.24077112 331.68146063 13.234375 342.6796875 C13.23346863 344.13270767 13.23346863 344.13270767 13.23254395 345.61508179 C13.32998795 362.04720874 14.86389465 380.05139465 27.0625 392.25 C37.95606888 400.49679384 50.40261774 402.82308113 63.7890625 401.28515625 C71.67621717 399.86221597 78.11160594 395.91255477 83.06640625 389.6015625 C104.12772864 356.78362134 88.26519406 299.50909352 83.15625 264.08618164 C82.894384 262.26805214 82.894384 262.26805214 82.62722778 260.41319275 C82.29756357 258.13133375 81.96574266 255.84978483 81.63131714 253.56861877 C81.1964767 250.56851658 80.77900351 247.56689943 80.375 244.5625 C80.26568649 243.76934387 80.15637299 242.97618774 80.04374695 242.15899658 C79.16948741 234.88136634 79.312239 227.60620511 79.38972664 220.29154968 C79.43248877 215.42959353 79.41999915 210.5673617 79.41983891 205.7052536 C79.42284117 201.45507195 79.44372232 197.20635515 79.50170898 192.95654297 C79.5571388 188.81402511 79.56326721 184.6739483 79.53701591 180.53117371 C79.53578967 178.965178 79.55203399 177.39905763 79.58693123 175.83345032 C79.85254814 166.6915575 79.85254814 166.6915575 76.22921753 158.49633789 C73.72452708 155.99416118 71.11211736 153.80287724 68.375 151.5625 C65.20338527 148.02389942 62.27541472 144.32560217 59.375 140.5625 C58.96749512 140.03672363 58.55999023 139.51094727 58.14013672 138.96923828 C45.08321049 121.96358408 35.74193204 103.50541321 37.375 81.5625 C39.70197666 69.94091373 45.29283465 59.93595415 52.375 50.5625 C32.20018176 35.47988348 8.68387078 24.99255691 -16 20 C-21.08203655 18.91376318 -23.58476581 17.79711191 -26.625 13.5625 C-28.1797669 10.45296621 -27.91144437 7.99983239 -27.625 4.5625 C-21.44657462 -7.13237661 -10.7103646 -3.10942694 0 0 Z M69.375 65.5625 C63.63063136 72.19274718 60.10419123 79.14565084 58.9375 87.8125 C61.46821212 109.50431813 76.05660219 126.2188342 90.375 141.5625 C96.04465071 137.60692974 99.43559579 133.27134031 101.375 126.5625 C102.81512237 114.7459627 101.67444147 104.01791954 94.75 94.1875 C94.30269531 93.5368457 93.85539062 92.88619141 93.39453125 92.21582031 C86.84915782 82.79402566 79.59289561 73.59709682 71.375 65.5625 C70.715 65.5625 70.055 65.5625 69.375 65.5625 Z " fill="#445963" transform="translate(367.625,45.4375)"/>
<path d="M0 0 C1.08373911 -0.00382555 2.16747822 -0.00765109 3.28405792 -0.01159257 C6.91035349 -0.02189951 10.53649005 -0.0179347 14.16279602 -0.01396179 C16.76501614 -0.01830961 19.36723497 -0.02349299 21.9694519 -0.02944946 C28.30189036 -0.04218549 34.63428639 -0.04399141 40.9667355 -0.0416492 C46.11711896 -0.03986414 51.26748956 -0.04161973 56.41787148 -0.04587364 C57.15170446 -0.04646883 57.88553745 -0.04706402 58.64160779 -0.04767724 C60.13257028 -0.04888904 61.62353277 -0.05010318 63.11449526 -0.05131962 C77.09167755 -0.06219159 91.0688357 -0.06003469 105.04601935 -0.05393478 C117.81535432 -0.0487697 130.5846129 -0.06001083 143.35393276 -0.07903299 C156.48044358 -0.09843653 169.60691831 -0.10666275 182.73344356 -0.10290974 C190.09687456 -0.10100103 197.46024063 -0.10345275 204.8236599 -0.11762428 C211.75201057 -0.1308239 218.68020642 -0.12824387 225.60855675 -0.11521339 C228.14652559 -0.11285117 230.68450522 -0.11556956 233.2224617 -0.12383652 C236.69723004 -0.13433563 240.17148972 -0.12617732 243.64624023 -0.11352539 C244.64150355 -0.12089968 245.63676686 -0.12827396 246.66218966 -0.13587171 C257.12149668 -0.05620703 267.07438555 1.60962858 274.91011047 8.90913391 C283.55083808 17.8227266 284.79055472 28.07688081 284.60713196 40.0605011 C284.57782209 42.15406336 284.5866366 44.24513579 284.5995636 46.33882141 C284.54672501 57.75823345 284.54672501 57.75823345 281.14057922 62.26069641 C277.82516731 64.47097102 276.81735158 64.51270776 272.95963478 64.52075863 C271.8803759 64.52782422 270.80111701 64.53488981 269.68915331 64.54216951 C268.49899941 64.53975443 267.30884551 64.53733934 266.08262634 64.53485107 C264.82177322 64.54008775 263.56092009 64.54532443 262.2618593 64.5507198 C258.75518285 64.56493011 255.24859489 64.56656252 251.74189377 64.56612289 C247.96265572 64.56776842 244.18345442 64.58082992 240.40423584 64.59231567 C232.13781302 64.61518459 223.87141585 64.62308818 215.60496569 64.62814212 C210.44543989 64.63139668 205.28592157 64.63791766 200.12639999 64.64514351 C185.84675397 64.66471123 171.5671149 64.68111465 157.28745461 64.68402004 C155.91626155 64.6843014 155.91626155 64.6843014 154.51736762 64.68458844 C152.6641349 64.68495469 150.81090218 64.68531839 148.95766945 64.68567955 C147.57771174 64.68595376 147.57771174 64.68595376 146.1698761 64.68623352 C145.24878419 64.68641407 144.32769228 64.68659462 143.3786885 64.68678064 C128.4477495 64.69032363 113.51695461 64.71735298 98.58606561 64.75473141 C83.2641006 64.79278259 67.94220716 64.81217728 52.62019384 64.81247956 C44.01441516 64.81306482 35.4088084 64.82160095 26.80307388 64.85047722 C19.47634132 64.87494845 12.14984338 64.88230292 4.82308103 64.86722969 C1.08362699 64.86004338 -2.65536333 64.86099132 -6.39476585 64.88364029 C-10.44602107 64.90794345 -14.49621387 64.89364322 -18.54750061 64.87542725 C-19.73319307 64.88862721 -20.91888552 64.90182718 -22.14050806 64.91542715 C-30.98551538 64.82417225 -30.98551538 64.82417225 -34.06641579 61.84727573 C-37.83292561 56.41372899 -37.11871626 50.86537156 -37.15458679 44.46943665 C-37.16601347 43.05462061 -37.18631467 41.63984443 -37.21611023 40.22529602 C-37.44487541 29.35831077 -36.9277609 18.68555426 -29.04692078 10.32319641 C-20.65133842 1.61666656 -11.65337611 -0.04376107 0 0 Z " fill="#455963" transform="translate(56.85942077636719,447.7393035888672)"/>
</svg>
