<?xml version="1.0" encoding="UTF-8"?>
<svg version="1.1" xmlns="http://www.w3.org/2000/svg" width="512" height="512">
<path d="M0 0 C11.55 0 23.1 0 35 0 C35 14.52 35 29.04 35 44 C50.84 44 66.68 44 83 44 C83 55.22 83 66.44 83 78 C67.16 78 51.32 78 35 78 C35 97.47 35 116.94 35 137 C36.65 137.33 38.3 137.66 40 138 C41.28149546 138.44847885 42.54978077 138.93675553 43.80078125 139.46435547 C44.51779205 139.7640625 45.23480286 140.06376953 45.97354126 140.37255859 C46.74539764 140.70078613 47.51725403 141.02901367 48.3125 141.3671875 C49.13744965 141.71362305 49.96239929 142.06005859 50.81234741 142.41699219 C53.54345153 143.56523648 56.27169934 144.72011216 59 145.875 C60.9212152 146.68416388 62.84260496 147.49291339 64.76416016 148.30126953 C69.82425079 150.43144664 74.88186475 152.56743456 79.93859863 154.70556641 C82.94676679 155.97749173 85.95525629 157.24865358 88.96386719 158.51953125 C89.93593613 158.93015305 90.90800507 159.34077484 91.90953064 159.76383972 C92.8752449 160.17177261 93.84095917 160.57970551 94.8359375 161 C100.57088183 163.42265292 106.3056759 165.84565794 112.03979492 168.27026367 C126.99519764 174.59119015 141.98654842 180.81799053 157 187 C157 199.87 157 212.74 157 226 C151 225 151 225 140 220 C139.67 234.85 139.34 249.7 139 265 C140.65 265.33 142.3 265.66 144 266 C145.32756385 266.47243804 146.64098762 266.98658854 147.93676758 267.5402832 C148.68428284 267.85683365 149.4317981 268.17338409 150.20196533 268.49952698 C151.00801208 268.84644089 151.81405884 269.1933548 152.64453125 269.55078125 C153.50544373 269.91658798 154.3663562 270.28239471 155.25335693 270.6592865 C157.12427969 271.45472487 158.99431248 272.252259 160.86355591 273.05163574 C165.94129241 275.22269639 171.0258353 277.37772772 176.109375 279.53515625 C177.16786148 279.98486786 178.22634796 280.43457947 179.31690979 280.8979187 C190.71009107 285.73485821 202.1341349 290.49692167 213.5625 295.25 C215.56682233 296.08404369 217.57113553 296.91810932 219.57543945 297.75219727 C223.48646326 299.37952714 227.39770602 301.00632938 231.30908203 302.6328125 C240.20805737 306.33373405 249.10383453 310.04233083 258 313.75 C265.425 316.84375 265.425 316.84375 273 320 C273 333.2 273 346.4 273 360 C268.05 358.02 263.1 356.04 258 354 C257.67 393.93 257.34 433.86 257 475 C260.3 475.33 263.6 475.66 267 476 C269.77270108 478.20684371 271.42745556 479.85491112 273 483 C273 492.57 273 502.14 273 512 C104.04 512 -64.92 512 -239 512 C-239 483 -239 483 -235 477 C-230.61315474 474.90194357 -228.05620724 475 -223 475 C-223.33 435.07 -223.66 395.14 -224 354 C-228.95 355.98 -233.9 357.96 -239 360 C-239 346.8 -239 333.6 -239 320 C-231.4203125 316.844375 -231.4203125 316.844375 -223.6875 313.625 C-194.18226245 301.33274128 -164.69551285 288.9972251 -135.25 276.5625 C-133.78978928 275.94586487 -133.78978928 275.94586487 -132.30007935 275.31677246 C-129.5384492 274.15032736 -126.77698505 272.98349059 -124.015625 271.81640625 C-123.20401413 271.47346024 -122.39240326 271.13051422 -121.55619812 270.7771759 C-120.79289688 270.4544017 -120.02959564 270.1316275 -119.24316406 269.79907227 C-118.16524597 269.34517624 -118.16524597 269.34517624 -117.06555176 268.8821106 C-115.70220215 268.29988111 -114.34413883 267.70509374 -112.99206543 267.09713745 C-110.13241694 265.81788249 -108.17397502 265 -105 265 C-105 250.15 -105 235.3 -105 220 C-109.95 221.98 -114.9 223.96 -120 226 C-120.99 226 -121.98 226 -123 226 C-123 213.13 -123 200.26 -123 187 C-117.946875 184.89625 -112.89375 182.7925 -107.6875 180.625 C-89.26127252 172.94967711 -70.84750084 165.24474872 -52.43637085 157.53329468 C-41.56246997 152.97880325 -30.6874298 148.42703395 -19.8125 143.875 C-13.604375 141.27625 -7.39625 138.6775 -1 136 C-0.67 116.86 -0.34 97.72 0 78 C-15.84 78 -31.68 78 -48 78 C-48 66.78 -48 55.56 -48 44 C-32.16 44 -16.32 44 0 44 C0 29.48 0 14.96 0 0 Z " fill="#B7BAC9" transform="translate(239,0)"/>
<path d="M0 0 C11.55 0 23.1 0 35 0 C35 14.52 35 29.04 35 44 C50.84 44 66.68 44 83 44 C83 55.22 83 66.44 83 78 C67.16 78 51.32 78 35 78 C35 97.47 35 116.94 35 137 C36.65 137.33 38.3 137.66 40 138 C41.28149546 138.44847885 42.54978077 138.93675553 43.80078125 139.46435547 C44.51779205 139.7640625 45.23480286 140.06376953 45.97354126 140.37255859 C46.74539764 140.70078613 47.51725403 141.02901367 48.3125 141.3671875 C49.13744965 141.71362305 49.96239929 142.06005859 50.81234741 142.41699219 C53.54345153 143.56523648 56.27169934 144.72011216 59 145.875 C60.9212152 146.68416388 62.84260496 147.49291339 64.76416016 148.30126953 C69.82425079 150.43144664 74.88186475 152.56743456 79.93859863 154.70556641 C82.94676679 155.97749173 85.95525629 157.24865358 88.96386719 158.51953125 C89.93593613 158.93015305 90.90800507 159.34077484 91.90953064 159.76383972 C92.8752449 160.17177261 93.84095917 160.57970551 94.8359375 161 C100.57088183 163.42265292 106.3056759 165.84565794 112.03979492 168.27026367 C126.99519764 174.59119015 141.98654842 180.81799053 157 187 C157 199.87 157 212.74 157 226 C152.19880692 225.19980115 149.35886096 224.45116558 145.125 222.4375 C144.15820312 221.98246094 143.19140625 221.52742187 142.1953125 221.05859375 C141.47085937 220.70925781 140.74640625 220.35992187 140 220 C139.20162412 250.65711272 138.8112286 281.30098011 138.69667697 311.96783662 C138.67425576 317.73318412 138.64715155 323.49850993 138.62062073 329.26383972 C138.5714293 340.09961502 138.52622945 350.93540283 138.48259836 361.77120179 C138.43258188 374.14203649 138.37791049 386.51284939 138.32291877 398.88366282 C138.21023336 424.25575558 138.10377764 449.62786914 138 475 C115.89 475 93.78 475 71 475 C70.96132813 466.47285156 70.96132813 466.47285156 70.921875 457.7734375 C70.8966724 454.14578991 70.87031329 450.51822289 70.83984375 446.890625 C70.79171865 441.14811021 70.74759586 435.40578222 70.72900391 429.66308594 C70.71372392 425.02682734 70.67908091 420.39106152 70.63169098 415.75502396 C70.61699306 413.99709003 70.60896574 412.23908571 70.60811615 410.48109055 C70.59305784 394.92835012 68.76223694 381.79736397 59 369 C58.43410156 368.44699219 57.86820313 367.89398438 57.28515625 367.32421875 C56 366 56 366 56 364 C55.13955078 363.59394531 55.13955078 363.59394531 54.26171875 363.1796875 C51.96309895 361.98075282 49.93209796 360.61528199 47.8125 359.125 C34.41146591 350.11015964 18.2581559 348.72895772 2.5 351.6484375 C-0.18535183 352.56176937 -2.52456798 353.61798541 -5 355 C-5.93972656 355.52078125 -6.87945312 356.0415625 -7.84765625 356.578125 C-21.18177948 364.54629554 -28.55414099 375.15767068 -33 390 C-34.0621218 394.2988855 -34.17060529 398.50751486 -34.20532227 402.91137695 C-34.21522186 403.69239273 -34.22512146 404.47340851 -34.23532104 405.27809143 C-34.26679567 407.84812434 -34.2916377 410.4181757 -34.31640625 412.98828125 C-34.33698791 414.77475961 -34.3579847 416.56123322 -34.37937927 418.34770203 C-34.43447475 423.04119013 -34.48393909 427.73472127 -34.53222656 432.42828369 C-34.59138388 438.06433044 -34.65754273 443.70029883 -34.72252655 449.33628082 C-34.82037843 457.89080588 -34.90934227 466.44538205 -35 475 C-57.77 475 -80.54 475 -104 475 C-104.13155629 448.39658817 -104.26217118 421.79317224 -104.39115143 395.18974781 C-104.45109386 382.83198058 -104.51142913 370.47421553 -104.57275391 358.11645508 C-104.62632339 347.32127496 -104.67908998 336.52609124 -104.73096704 325.73090285 C-104.75835591 320.03693109 -104.78609583 314.34296163 -104.81480408 308.64899635 C-104.9634762 279.09908331 -105.03078512 249.55028912 -105 220 C-106.04800781 220.433125 -107.09601563 220.86625 -108.17578125 221.3125 C-109.55457596 221.87527335 -110.93348839 222.43775835 -112.3125 223 C-113.00279297 223.28617188 -113.69308594 223.57234375 -114.40429688 223.8671875 C-117.41545674 225.08910744 -119.71886984 226 -123 226 C-123 213.13 -123 200.26 -123 187 C-117.946875 184.89625 -112.89375 182.7925 -107.6875 180.625 C-89.26127252 172.94967711 -70.84750084 165.24474872 -52.43637085 157.53329468 C-41.56246997 152.97880325 -30.6874298 148.42703395 -19.8125 143.875 C-13.604375 141.27625 -7.39625 138.6775 -1 136 C-0.67 116.86 -0.34 97.72 0 78 C-15.84 78 -31.68 78 -48 78 C-48 66.78 -48 55.56 -48 44 C-32.16 44 -16.32 44 0 44 C0 29.48 0 14.96 0 0 Z " fill="#E5EEF5" transform="translate(239,0)"/>
<path d="M0 0 C6.74937096 1.12489516 6.74937096 1.12489516 10.05029297 2.5402832 C11.17145256 3.01510887 11.17145256 3.01510887 12.31526184 3.49952698 C13.11614731 3.84644089 13.91703278 4.1933548 14.7421875 4.55078125 C15.60168503 4.91658798 16.46118256 5.28239471 17.34672546 5.6592865 C19.21201925 6.45391633 21.07606555 7.2514795 22.93899536 8.05163574 C26.95488378 9.77625501 30.97690302 11.48634568 34.99873352 13.197052 C37.11367425 14.09666839 39.22832424 14.99696856 41.34269714 15.8979187 C52.72345656 20.74409055 64.14081334 25.50128143 75.5625 30.25 C77.56691865 31.08400778 79.57131332 31.91807322 81.57568359 32.75219727 C85.48661735 34.37954805 89.39777233 36.00636554 93.30908203 37.6328125 C102.20805737 41.33373405 111.10383453 45.04233083 120 48.75 C124.95 50.8125 129.9 52.875 135 55 C135 68.2 135 81.4 135 95 C130.05 93.02 125.1 91.04 120 89 C119.98969254 90.51367661 119.97938507 92.02735321 119.96876526 93.5868988 C119.87122059 107.81714359 119.76856449 122.04734116 119.66066074 136.27751064 C119.60531202 143.59425169 119.55182737 150.91099762 119.50268555 158.2277832 C119.45986385 164.60286076 119.41359105 170.97790216 119.36312145 177.35292393 C119.3365042 180.73045889 119.31165082 184.1079866 119.29092598 187.48556328 C119.2669606 191.25011097 119.23689564 195.01456229 119.20532227 198.77905273 C119.1995668 199.90689682 119.19381134 201.03474091 119.18788147 202.19676208 C119.17809265 203.21624939 119.16830383 204.23573669 119.15821838 205.28611755 C119.15176583 206.17749137 119.14531328 207.06886518 119.1386652 207.98725033 C119 210 119 210 118 211 C115.59671471 211.09766542 113.22220648 211.12996828 110.81846619 211.12025452 C109.67787344 211.12153615 109.67787344 211.12153615 108.51423842 211.12284368 C105.9468875 211.12450078 103.37960083 211.11897339 100.81225586 211.11352539 C98.97961936 211.11324354 97.14698275 211.11340121 95.31434631 211.1139679 C90.32281938 211.11425596 85.33131625 211.10835777 80.33979487 211.10139394 C75.12940894 211.09516191 69.91902251 211.09455672 64.70863342 211.09336853 C54.83468975 211.09025477 44.96075709 211.08204078 35.08681828 211.07201904 C21.74933955 211.05877445 8.41185784 211.05335836 -4.9256258 211.04751682 C-25.95042546 211.03810092 -46.97520187 211.0181823 -68 211 C-68 183.94 -68 156.88 -68 129 C-67.67 129 -67.34 129 -67 129 C-67 155.73 -67 182.46 -67 210 C-44.89 210 -22.78 210 0 210 C0 140.7 0 71.4 0 0 Z " fill="#B7BAC9" transform="translate(377,265)"/>
<path d="M0 0 C11.55 0 23.1 0 35 0 C35 14.52 35 29.04 35 44 C50.84 44 66.68 44 83 44 C83 55.22 83 66.44 83 78 C67.16 78 51.32 78 35 78 C35 97.47 35 116.94 35 137 C36.65 137.33 38.3 137.66 40 138 C41.28149546 138.44847885 42.54978077 138.93675553 43.80078125 139.46435547 C44.51779205 139.7640625 45.23480286 140.06376953 45.97354126 140.37255859 C46.74539764 140.70078613 47.51725403 141.02901367 48.3125 141.3671875 C49.13744965 141.71362305 49.96239929 142.06005859 50.81234741 142.41699219 C53.54345153 143.56523648 56.27169934 144.72011216 59 145.875 C60.9212152 146.68416388 62.84260496 147.49291339 64.76416016 148.30126953 C69.82425079 150.43144664 74.88186475 152.56743456 79.93859863 154.70556641 C82.94676679 155.97749173 85.95525629 157.24865358 88.96386719 158.51953125 C89.93593613 158.93015305 90.90800507 159.34077484 91.90953064 159.76383972 C92.8752449 160.17177261 93.84095917 160.57970551 94.8359375 161 C100.57088183 163.42265292 106.3056759 165.84565794 112.03979492 168.27026367 C126.99519764 174.59119015 141.98654842 180.81799053 157 187 C157 199.87 157 212.74 157 226 C151.7421093 225.12368488 148.01815814 223.77851568 143.3671875 221.4609375 C133.76671803 216.8149227 123.97582616 212.70632962 114.125 208.625 C112.25292365 207.84594586 110.38101987 207.06647694 108.50927734 206.28662109 C104.62531424 204.66870443 100.74062271 203.05255475 96.85546875 201.4375 C90.18767382 198.66396336 83.52698484 195.87357552 76.86746216 193.08024597 C72.32194874 191.17370502 67.77551892 189.26945822 63.22607422 187.37231445 C55.87965177 184.30790222 48.53471451 181.24343735 41.22775269 178.08581543 C38.52568305 176.91936961 35.81872572 175.76456535 33.11102295 174.61126709 C31.31445812 173.84016598 29.525464 173.05149906 27.73681641 172.26220703 C26.67382324 171.81087402 25.61083008 171.35954102 24.515625 170.89453125 C23.15872559 170.30442261 23.15872559 170.30442261 21.77441406 169.70239258 C15.19962452 168.03786693 9.36851169 170.8359145 3.421875 173.40234375 C2.59424149 173.75151352 1.76660797 174.10068329 0.91389465 174.46043396 C-1.81069058 175.61186298 -4.53025445 176.77469114 -7.25 177.9375 C-9.16638476 178.74971836 -11.08313925 179.56106487 -13.00024414 180.37158203 C-16.99456406 182.06101122 -20.98725476 183.75421337 -24.97900391 185.44970703 C-30.78372266 187.91216961 -36.59876101 190.34934824 -42.41796875 192.77734375 C-43.33871185 193.16159012 -44.25945496 193.54583649 -45.20809937 193.94172668 C-47.04425652 194.70784673 -48.88044801 195.47388452 -50.7166748 196.23983765 C-66.7964413 202.94778752 -66.7964413 202.94778752 -82.81640625 209.796875 C-83.81914833 210.23025681 -83.81914833 210.23025681 -84.84214783 210.6723938 C-87.88856372 211.99019854 -90.9316217 213.31465242 -93.97045898 214.64990234 C-95.00114502 215.0980127 -96.03183105 215.54612305 -97.09375 216.0078125 C-97.97740234 216.39598145 -98.86105469 216.78415039 -99.77148438 217.18408203 C-102 218 -102 218 -105 218 C-105 218.66 -105 219.32 -105 220 C-107.43504509 221.0063655 -109.87270864 222.00526413 -112.3125 223 C-113.00279297 223.28617188 -113.69308594 223.57234375 -114.40429688 223.8671875 C-117.41545674 225.08910744 -119.71886984 226 -123 226 C-123 213.13 -123 200.26 -123 187 C-117.946875 184.89625 -112.89375 182.7925 -107.6875 180.625 C-89.26127252 172.94967711 -70.84750084 165.24474872 -52.43637085 157.53329468 C-41.56246997 152.97880325 -30.6874298 148.42703395 -19.8125 143.875 C-13.604375 141.27625 -7.39625 138.6775 -1 136 C-0.67 116.86 -0.34 97.72 0 78 C-15.84 78 -31.68 78 -48 78 C-48 66.78 -48 55.56 -48 44 C-32.16 44 -16.32 44 0 44 C0 29.48 0 14.96 0 0 Z " fill="#B00715" transform="translate(239,0)"/>
<path d="M0 0 C0.83550574 -0.00320648 1.67101149 -0.00641296 2.53183559 -0.0097166 C5.33801528 -0.01803332 8.14398247 -0.01208644 10.95016575 -0.00622082 C12.97975844 -0.00924073 15.00935 -0.01312941 17.03893954 -0.01781338 C22.62146299 -0.02812266 28.20392244 -0.02590411 33.78645122 -0.02163279 C39.80494788 -0.0191709 45.82342892 -0.02817302 51.8419199 -0.03567028 C63.63455033 -0.04843402 75.42716282 -0.05021475 87.21979754 -0.04787002 C96.80245455 -0.04603783 106.38510487 -0.0477954 115.96776104 -0.05209446 C117.34416885 -0.05269686 118.72057666 -0.05329806 120.09698446 -0.05389806 C122.17105776 -0.05480531 124.24513106 -0.05571397 126.31920436 -0.05663041 C145.60417844 -0.06506067 164.88915 -0.06939511 184.17412567 -0.06522369 C185.26476761 -0.06498913 185.26476761 -0.06498913 186.37744271 -0.06474983 C190.06270427 -0.06394404 193.74796581 -0.06309826 197.43322735 -0.06223653 C198.16514125 -0.06206544 198.89705514 -0.06189435 199.65114825 -0.06171808 C201.13125574 -0.06137142 202.61136324 -0.06102289 204.09147073 -0.06067249 C227.12564743 -0.05531443 250.15978586 -0.06324782 273.19395542 -0.08170605 C299.06887809 -0.10241636 324.94377705 -0.11315066 350.81870848 -0.10913056 C353.57695996 -0.10873521 356.33521145 -0.10837366 359.09346294 -0.10803318 C360.11220155 -0.10789708 360.11220155 -0.10789708 361.15152074 -0.10775824 C371.40915946 -0.10659171 381.66677426 -0.11324471 391.92440701 -0.1238451 C403.58816053 -0.13588624 415.25187069 -0.13718981 426.9156267 -0.12505493 C432.86883057 -0.11915011 438.82193126 -0.11811104 444.77512836 -0.13005733 C450.22234983 -0.14086147 455.66938129 -0.13787822 461.11659367 -0.12379565 C463.08960781 -0.1211336 465.06263658 -0.12356221 467.03563642 -0.13153151 C469.71372122 -0.14159991 472.39114075 -0.13324781 475.06919861 -0.12025452 C475.83843239 -0.12756386 476.60766616 -0.13487321 477.40021005 -0.14240405 C482.50526315 -0.0909279 486.12243864 0.71641046 490.59751987 3.25447559 C493.59751987 8.25447559 493.59751987 8.25447559 493.59751987 37.25447559 C324.63751987 37.25447559 155.67751987 37.25447559 -18.40248013 37.25447559 C-18.40248013 8.25447559 -18.40248013 8.25447559 -14.40248013 2.25447559 C-9.76124741 -0.06047351 -5.09014918 -0.029004 0 0 Z " fill="#423E3E" transform="translate(18.402480125427246,474.7455244064331)"/>
<path d="M0 0 C3.66110543 3.00088857 6.96364166 6.28300528 10.24755859 9.68798828 C10.91142578 10.32091797 11.57529297 10.95384766 12.25927734 11.60595703 C24.74518098 24.31632635 28.77029163 42.2269558 28.66772461 59.40332031 C28.16437841 78.28603921 20.57658475 95.26389061 7.24755859 108.68798828 C-8.92843995 122.74849956 -27.10492506 128.67136778 -48.27197266 127.86279297 C-65.75174239 126.63095093 -82.40928765 118.01415422 -94.16015625 105.14648438 C-100.03280121 98.35061077 -104.74015739 91.19797696 -107.75244141 82.68798828 C-108.14302734 81.61677734 -108.53361328 80.54556641 -108.93603516 79.44189453 C-114.2778524 62.56618816 -113.82537309 43.02926798 -106.02197266 27.01220703 C-102.00697663 19.31072398 -96.93059805 12.79145219 -90.75244141 6.68798828 C-89.74117187 5.64384766 -89.74117187 5.64384766 -88.70947266 4.57861328 C-65.08296965 -18.29432396 -26.09523302 -19.53688802 0 0 Z " fill="#7C5C41" transform="translate(297.75244140625,213.31201171875)"/>
<path d="M0 0 C1.42602539 -0.01160156 1.42602539 -0.01160156 2.88085938 -0.0234375 C11.59284899 0.00057901 18.32518021 1.59616194 26.1875 5.5625 C27.34507812 6.13613281 28.50265625 6.70976562 29.6953125 7.30078125 C41.42723124 14.09222841 49.41572344 26.32439918 53.0625 39.25 C53.33351535 42.14203293 53.31587831 45.0145929 53.28955078 47.91748047 C53.28979185 48.78056383 53.29003292 49.64364719 53.2902813 50.5328846 C53.28879521 53.31109249 53.27359491 56.08902796 53.2578125 58.8671875 C53.25486988 60.58862173 53.25283079 62.31005776 53.25170898 64.03149414 C53.24124705 70.39602348 53.21332451 76.76051445 53.1875 83.125 C53.14625 97.35625 53.105 111.5875 53.0625 126.25 C18.7425 126.25 -15.5775 126.25 -50.9375 126.25 C-51.02 112.286875 -51.1025 98.32375 -51.1875 83.9375 C-51.22391602 79.54783936 -51.26033203 75.15817871 -51.29785156 70.63549805 C-51.31591797 65.22619629 -51.31591797 65.22619629 -51.3192749 62.68440247 C-51.32536985 60.92984444 -51.33933875 59.17530193 -51.35980225 57.42085266 C-51.54556946 40.63779403 -48.71125448 27.381721 -36.9375 14.625 C-26.46202587 4.62891197 -14.38287773 -0.11653918 0 0 Z " fill="#7C5C40" transform="translate(255.9375,349.75)"/>
<path d="M0 0 C11.55 0 23.1 0 35 0 C35 14.52 35 29.04 35 44 C50.84 44 66.68 44 83 44 C83 55.22 83 66.44 83 78 C67.16 78 51.32 78 35 78 C35 97.47 35 116.94 35 137 C26 134 26 134 22.375 132.25 C16.66868535 130.13655013 12.57657272 131.64916608 7.25 134.0625 C6.51265625 134.42472656 5.7753125 134.78695312 5.015625 135.16015625 C3 136 3 136 0 136 C0 116.86 0 97.72 0 78 C-15.84 78 -31.68 78 -48 78 C-48 66.78 -48 55.56 -48 44 C-32.16 44 -16.32 44 0 44 C0 29.48 0 14.96 0 0 Z " fill="#F0C300" transform="translate(239,0)"/>
<path d="M0 0 C9.01185273 4.56278348 14.70473441 11.46107329 18 21 C19.11455496 27.00793584 19.17720412 32.92002994 19.203125 39.0078125 C19.20882507 40.05145966 19.21452515 41.09510681 19.22039795 42.17037964 C19.22980792 44.36731971 19.23636593 46.56427365 19.24023438 48.76123047 C19.24998843 52.12101551 19.28106934 55.48020073 19.3125 58.83984375 C19.31902628 60.97916305 19.32427822 63.1184867 19.328125 65.2578125 C19.3404718 66.2599881 19.3528186 67.2621637 19.36553955 68.29470825 C19.33747579 77.06632875 19.33747579 77.06632875 16 81 C13.3662458 82.3168771 11.3699316 82.14885629 8.42041016 82.17700195 C7.25224762 82.18983719 6.08408508 82.20267242 4.88052368 82.21589661 C3.61284149 82.22328354 2.3451593 82.23067047 1.0390625 82.23828125 C-0.25818756 82.246353 -1.55543762 82.25442474 -2.89199829 82.26274109 C-5.64088816 82.27776646 -8.3897522 82.28760557 -11.13867188 82.29516602 C-14.65845441 82.30623419 -18.17760536 82.34063901 -21.69716454 82.38033772 C-25.05589724 82.41277679 -28.4145602 82.4172801 -31.7734375 82.42578125 C-33.66888809 82.45204338 -33.66888809 82.45204338 -35.60263062 82.47883606 C-36.77709747 82.47591049 -37.95156433 82.47298492 -39.16162109 82.4699707 C-40.1948349 82.47583694 -41.22804871 82.48170319 -42.29257202 82.48774719 C-45.78112238 81.85927964 -46.93527432 80.85498223 -49 78 C-49.52139282 75.47375488 -49.52139282 75.47375488 -49.54931641 72.59570312 C-49.56838043 71.51357544 -49.58744446 70.43144775 -49.60708618 69.31652832 C-49.60526337 68.14988647 -49.60344055 66.98324463 -49.6015625 65.78125 C-49.61013275 64.57239136 -49.618703 63.36353271 -49.62753296 62.11804199 C-49.63902436 59.55593366 -49.64001648 56.99376006 -49.63134766 54.43164062 C-49.6250675 50.5418075 -49.67179114 46.6550773 -49.72265625 42.765625 C-49.72720673 40.27083714 -49.72860714 37.77604117 -49.7265625 35.28125 C-49.74498199 34.130802 -49.76340149 32.980354 -49.78237915 31.79504395 C-49.66972972 21.78172084 -46.43361828 13.58573414 -39.75 6.0625 C-28.55911544 -4.15417809 -13.7670071 -5.47786319 0 0 Z " fill="#7C5C41" transform="translate(450,361)"/>
<path d="M0 0 C7.09587806 5.83556539 12.32398573 13.11643024 13.92150879 22.35961914 C14.12007037 25.73198193 14.14782922 29.05590469 14.09375 32.43359375 C14.09524551 34.25836243 14.09524551 34.25836243 14.09677124 36.11999512 C14.09212377 38.66795452 14.07286945 41.21592609 14.03955078 43.76367188 C13.99197126 47.67009773 13.99850078 51.57382286 14.01171875 55.48046875 C14.00057592 57.96486005 13.98636293 60.4492399 13.96875 62.93359375 C13.97148422 64.68355652 13.97148422 64.68355652 13.97427368 66.46887207 C13.95520966 67.55099976 13.93614563 68.63312744 13.91650391 69.74804688 C13.90728912 70.69780396 13.89807434 71.64756104 13.88858032 72.62609863 C13.19637333 75.97997013 12.12264801 77.14828547 9.3671875 79.15234375 C6.67321777 79.65354919 6.67321777 79.65354919 3.56054688 79.65405273 C2.3925354 79.66343369 1.22452393 79.67281464 0.02111816 79.68247986 C-1.23624146 79.67124588 -2.49360107 79.6600119 -3.7890625 79.6484375 C-5.08348267 79.64989273 -6.37790283 79.65134796 -7.71154785 79.65284729 C-10.4486936 79.65423025 -13.18531469 79.6416919 -15.92236328 79.61889648 C-19.42637829 79.59051112 -22.92952188 79.59325004 -26.43360138 79.6059866 C-29.78134603 79.61462401 -33.12883255 79.59949438 -36.4765625 79.5859375 C-37.73392212 79.58887314 -38.99128174 79.59180878 -40.28674316 79.59483337 C-41.45475464 79.5821492 -42.62276611 79.56946503 -43.82617188 79.55639648 C-44.85335327 79.5509935 -45.88053467 79.54559052 -46.93884277 79.5400238 C-50.04333261 79.09326719 -51.40445776 78.33174367 -53.6328125 76.15234375 C-54.58211568 73.3044342 -54.76427398 71.51848015 -54.77807617 68.56420898 C-54.78445602 67.6357164 -54.79083588 66.70722382 -54.79740906 65.75059509 C-54.79852188 64.74750809 -54.7996347 63.74442108 -54.80078125 62.7109375 C-54.80410965 61.67348892 -54.80743805 60.63604034 -54.81086731 59.56715393 C-54.81593435 57.36728356 -54.8182757 55.1674055 -54.81811523 52.9675293 C-54.82028813 49.62730918 -54.83840861 46.28742669 -54.85742188 42.94726562 C-54.86035868 40.80599071 -54.86234155 38.66471423 -54.86328125 36.5234375 C-54.87046677 35.53452011 -54.87765228 34.54560272 -54.88505554 33.52671814 C-54.8505396 22.86264801 -53.40438451 13.68109584 -46.6328125 5.15234375 C-33.5932548 -6.88588273 -15.23759132 -10.69344317 0 0 Z " fill="#7C5C41" transform="translate(97.6328125,363.84765625)"/>
<path d="M0 0 C3.44695691 0.68939138 5.8397748 1.21691934 8.93676758 2.5402832 C9.68428284 2.85683365 10.4317981 3.17338409 11.20196533 3.49952698 C12.00801208 3.84644089 12.81405884 4.1933548 13.64453125 4.55078125 C14.93589996 5.09949135 14.93589996 5.09949135 16.25335693 5.6592865 C18.12427969 6.45472487 19.99431248 7.252259 21.86355591 8.05163574 C26.94129241 10.22269639 32.0258353 12.37772772 37.109375 14.53515625 C38.16786148 14.98486786 39.22634796 15.43457947 40.31690979 15.8979187 C51.71009107 20.73485821 63.1341349 25.49692167 74.5625 30.25 C76.56682233 31.08404369 78.57113553 31.91810932 80.57543945 32.75219727 C84.48646326 34.37952714 88.39770602 36.00632938 92.30908203 37.6328125 C101.20805737 41.33373405 110.10383453 45.04233083 119 48.75 C123.95 50.8125 128.9 52.875 134 55 C134 68.2 134 81.4 134 95 C124.59745741 91.12836482 115.26297336 87.28347667 106 83.125 C94.99011622 78.23479682 83.88499852 73.59610973 72.75 69 C58.25235557 63.01439663 43.77262066 56.9888135 29.32067871 50.89355469 C27.32808083 50.05327237 25.3351648 49.21374409 23.34191895 48.375 C20.55647867 47.20262802 17.772203 46.02753508 14.98828125 44.8515625 C14.16509903 44.50541901 13.34191681 44.15927551 12.49378967 43.80264282 C11.72409348 43.47670135 10.95439728 43.15075989 10.16137695 42.81494141 C9.16772881 42.39554794 9.16772881 42.39554794 8.15400696 41.96768188 C5.39676757 40.72899944 2.70358328 39.35179164 0 38 C0 25.46 0 12.92 0 0 Z " fill="#AF0715" transform="translate(378,265)"/>
<path d="M0 0 C0 12.54 0 25.08 0 38 C-14.61635638 44.74601064 -14.61635638 44.74601064 -20.6328125 47.234375 C-21.29644806 47.50983658 -21.96008362 47.78529816 -22.64382935 48.06910706 C-24.06486557 48.65864752 -25.48637219 49.24705532 -26.9083252 49.8343811 C-30.01001853 51.11556543 -33.10929441 52.40255324 -36.20874023 53.68916321 C-37.86894644 54.37830831 -39.52926724 55.06717742 -41.18969727 55.75578308 C-53.06620726 60.68284125 -64.92197584 65.65959091 -76.7800293 70.63085938 C-84.392188 73.82122387 -92.00482281 77.00943263 -99.63671875 80.15234375 C-112.83603818 85.56031485 -112.83603818 85.56031485 -125.6328125 91.84375 C-128 93 -128 93 -134 95 C-134 81.8 -134 68.6 -134 55 C-126.4203125 51.844375 -126.4203125 51.844375 -118.6875 48.625 C-89.18226245 36.33274128 -59.69551285 23.9972251 -30.25 11.5625 C-29.27652618 11.15140991 -28.30305237 10.74031982 -27.30007935 10.31677246 C-24.5384492 9.15032736 -21.77698505 7.98349059 -19.015625 6.81640625 C-18.20401413 6.47346024 -17.39240326 6.13051422 -16.55619812 5.7771759 C-15.79289688 5.4544017 -15.02959564 5.1316275 -14.24316406 4.79907227 C-13.524552 4.49647491 -12.80593994 4.19387756 -12.06555176 3.8821106 C-10.70220215 3.29988111 -9.34413883 2.70509374 -7.99206543 2.09713745 C-5.13241694 0.81788249 -3.17397502 0 0 0 Z " fill="#AF0715" transform="translate(134,265)"/>
<path d="M0 0 C0.87065598 0.37141113 1.74131195 0.74282227 2.63835144 1.12548828 C5.49597102 2.34669188 8.34742227 3.5816735 11.19921875 4.81640625 C13.20653276 5.67637609 15.21435369 6.53516355 17.22265625 7.39282227 C21.37989363 9.16861716 25.53539442 10.94838962 29.68994141 12.73046875 C39.23154697 16.8162413 48.80920045 20.81574596 58.38671875 24.81640625 C60.17272168 25.56347934 61.95869206 26.31063026 63.74462891 27.05786133 C78.44217013 33.20482021 93.15821629 39.30652447 107.88671875 45.37890625 C107.88671875 52.30890625 107.88671875 59.23890625 107.88671875 66.37890625 C104.50509643 65.70258179 102.12702459 65.19710613 99.0859375 63.91455078 C98.3689418 63.61484879 97.65194611 63.31514679 96.91322327 63.00636292 C96.14135178 62.67813034 95.36948029 62.34989777 94.57421875 62.01171875 C93.74913315 61.66523788 92.92404755 61.31875702 92.07395935 60.96177673 C89.34297752 59.81361283 86.61486113 58.65879888 83.88671875 57.50390625 C81.96769565 56.69548716 80.04850327 55.88746979 78.12915039 55.07983398 C73.07022064 52.94971294 68.013736 50.81384857 62.95782471 48.67657471 C58.93950238 46.97866841 54.91985096 45.2839236 50.90010071 43.58940125 C46.99894436 41.9447892 43.09823548 40.29911732 39.19754028 38.65341187 C37.28462971 37.84652049 35.37160508 37.03989945 33.45846558 36.23355103 C24.45263004 32.43762609 15.45014065 28.63707995 6.48828125 24.73828125 C5.26255486 24.2080122 4.03672936 23.67797219 2.81079102 23.14819336 C0.65879054 22.21559209 -1.48955381 21.2744797 -3.63305664 20.32250977 C-4.5533667 19.92475342 -5.47367676 19.52699707 -6.421875 19.1171875 C-7.19329834 18.77727783 -7.96472168 18.43736816 -8.75952148 18.0871582 C-14.38072127 16.39572572 -18.43046916 17.63307295 -23.66796875 19.95703125 C-24.3051886 20.23533279 -24.94240845 20.51363434 -25.59893799 20.80036926 C-26.99395993 21.41070957 -28.38687087 22.02589225 -29.77789307 22.64529419 C-33.66591726 24.37544617 -37.57048702 26.06767976 -41.47265625 27.765625 C-42.31438385 28.13300278 -43.15611145 28.50038055 -44.02334595 28.87889099 C-54.70680088 33.53042911 -65.47505489 37.97846245 -76.23828125 42.44140625 C-93.34913118 49.5396107 -93.34913118 49.5396107 -110.40625 56.765625 C-111.18830811 57.1000209 -111.97036621 57.43441681 -112.77612305 57.77894592 C-116.37304243 59.31796818 -119.96716199 60.8630435 -123.55712891 62.41821289 C-124.80103395 62.95215536 -126.04500722 63.48593891 -127.2890625 64.01953125 C-128.35036377 64.47875977 -129.41166504 64.93798828 -130.50512695 65.41113281 C-133.11328125 66.37890625 -133.11328125 66.37890625 -136.11328125 66.37890625 C-136.11328125 59.44890625 -136.11328125 52.51890625 -136.11328125 45.37890625 C-128.21875 42.07421875 -128.21875 42.07421875 -125.47738647 40.92669678 C-120.7994752 38.96853902 -116.12162038 37.01024652 -111.44384766 35.05175781 C-102.4966415 31.30588126 -93.54929534 27.56034833 -84.59979248 23.81996155 C-81.85882764 22.67427102 -79.11812848 21.52794661 -76.37744141 20.3815918 C-72.79366728 18.88279819 -69.20856156 17.38725118 -65.62255859 15.89379883 C-57.16863887 12.36809405 -48.74092902 8.79629143 -40.359375 5.1015625 C-38.0953737 4.11138554 -35.83085997 3.12238942 -33.56622314 2.13366699 C-31.49135624 1.22027353 -29.42627956 0.28700541 -27.36083984 -0.64746094 C-26.10818775 -1.19566878 -24.85511981 -1.74292776 -23.6015625 -2.2890625 C-22.53462158 -2.76625732 -21.46768066 -3.24345215 -20.3684082 -3.73510742 C-12.95459597 -5.75301221 -6.72880555 -2.94757839 0 0 Z " fill="#CDD4D9" transform="translate(270.11328125,172.62109375)"/>
<path d="M0 0 C0 7.26 0 14.52 0 22 C-8.88819512 26.17226798 -17.83558941 30.08696356 -26.9083252 33.8343811 C-30.01001853 35.11556543 -33.10929441 36.40255324 -36.20874023 37.68916321 C-37.86894644 38.37830831 -39.52926724 39.06717742 -41.18969727 39.75578308 C-50.29133139 43.53166343 -59.37985853 47.33873873 -68.46801758 51.14691162 C-73.01210595 53.05078296 -77.55688154 54.95301251 -82.1015625 56.85546875 C-87.45762344 59.09769582 -92.81334021 61.34073679 -98.16821289 63.58580017 C-100.98656755 64.76690644 -103.80583631 65.94582636 -106.625 67.125 C-107.59598633 67.53274658 -108.56697266 67.94049316 -109.56738281 68.3605957 C-110.42428711 68.71855225 -111.28119141 69.07650879 -112.1640625 69.4453125 C-113.25388428 69.90188232 -113.25388428 69.90188232 -114.36572266 70.36767578 C-116 71 -116 71 -117 71 C-117 63.74 -117 56.48 -117 49 C-106.2479169 43.93457418 -95.3469138 39.31365584 -84.375 34.75 C-82.49354767 33.96533882 -80.61220206 33.18042171 -78.73095703 32.39526367 C-74.81191599 30.75979887 -70.89241686 29.12543859 -66.97265625 27.49169922 C-61.05202214 25.02295353 -55.13490863 22.54585488 -49.21875 20.06640625 C-48.26215485 19.66555817 -47.30555969 19.26471008 -46.31997681 18.85171509 C-42.615145 17.29918369 -38.91035689 15.74654828 -35.20574951 14.19348145 C-26.25057394 10.43988043 -17.29211456 6.69418357 -8.3203125 2.98046875 C-7.59423798 2.67853104 -6.86816345 2.37659332 -6.12008667 2.06550598 C-1.11581546 0 -1.11581546 0 0 0 Z " fill="#A3A3B0" transform="translate(134,303)"/>
<path d="M0 0 C13.36979171 5.30473961 26.67672708 10.74120121 39.9375 16.3125 C41.77585018 17.08356459 43.61422979 17.854559 45.45263672 18.62548828 C59.51677087 24.52609898 73.57226244 30.44730662 87.625 36.375 C88.58848358 36.78118561 89.55196716 37.18737122 90.54464722 37.60586548 C93.29319409 38.76492465 96.04121484 39.92522178 98.7890625 41.0859375 C99.9911158 41.59266747 99.9911158 41.59266747 101.217453 42.1096344 C106.50809932 44.34678029 111.74890139 46.6661784 117 49 C117 56.26 117 63.52 117 71 C106.0578534 66.87241511 95.27962878 62.40635654 84.5 57.875 C82.62537654 57.08874553 80.75070098 56.30261527 78.87597656 55.51660156 C68.81192141 51.2945269 58.75539215 47.05474458 48.703125 42.8046875 C47.69797852 42.37981049 46.69283203 41.95493347 45.65722656 41.5171814 C40.8166801 39.47073924 35.97694094 37.42242625 31.13867188 35.37060547 C22.01547648 31.5067014 12.87791591 27.70870762 3.64941406 24.10253906 C1 23 1 23 0 22 C-0.08700342 20.36527118 -0.10701063 18.72685945 -0.09765625 17.08984375 C-0.09443359 16.10048828 -0.09121094 15.11113281 -0.08789062 14.09179688 C-0.07951172 13.05087891 -0.07113281 12.00996094 -0.0625 10.9375 C-0.05798828 9.89271484 -0.05347656 8.84792969 -0.04882812 7.77148438 C-0.03699913 5.1809334 -0.02051689 2.59049441 0 0 Z " fill="#A3A4B1" transform="translate(378,303)"/>
<path d="M0 0 C5.38297754 2.33639752 8.26465282 6.09072852 10.60546875 11.38671875 C11.22635898 14.73582404 11.19365619 17.95869729 11.09375 21.35546875 C11.08667526 22.27638306 11.07960052 23.19729736 11.0723114 24.14611816 C11.04453125 27.06051106 10.98182566 29.97291586 10.91796875 32.88671875 C10.89286462 34.87366999 10.87005518 36.86065162 10.84960938 38.84765625 C10.799028 43.69537495 10.70115043 48.5388468 10.60546875 53.38671875 C-1.60453125 53.38671875 -13.81453125 53.38671875 -26.39453125 53.38671875 C-26.48661373 47.67504711 -26.56617444 41.96597427 -26.61425781 36.25415039 C-26.63431153 34.31330617 -26.6615617 32.3725219 -26.69628906 30.43188477 C-26.745083 27.63412643 -26.76756252 24.8371703 -26.78515625 22.0390625 C-26.80580139 21.17836655 -26.82644653 20.31767059 -26.84771729 19.43089294 C-26.85014047 12.85149873 -25.36485403 8.55601052 -20.76171875 3.64453125 C-14.26834939 -1.28498999 -8.04017325 -2.05922871 0 0 Z " fill="#423E3E" transform="translate(442.39453125,374.61328125)"/>
<path d="M0 0 C4.31633181 3.18586395 7.91120739 6.79612218 9.625 11.9375 C9.71067246 13.30342183 9.74273647 14.67314858 9.73852539 16.04174805 C9.73844986 16.86237228 9.73837433 17.68299652 9.73829651 18.52848816 C9.73313522 19.40982925 9.72797394 20.29117035 9.72265625 21.19921875 C9.7212413 22.10501175 9.71982635 23.01080475 9.71836853 23.94404602 C9.71277001 26.83773091 9.70021781 29.73133849 9.6875 32.625 C9.68248481 34.58658742 9.67792193 36.54817606 9.67382812 38.50976562 C9.66365187 43.31906418 9.64407613 48.12819553 9.625 52.9375 C-2.585 52.9375 -14.795 52.9375 -27.375 52.9375 C-27.4901884 47.10128773 -27.58960258 41.26906322 -27.6496582 35.43261719 C-27.67470683 33.45005891 -27.70875584 31.46759211 -27.75219727 29.48535156 C-27.81327619 26.62542074 -27.84130629 23.76671708 -27.86328125 20.90625 C-27.88908768 20.02884155 -27.9148941 19.15143311 -27.94148254 18.24743652 C-27.94430456 11.96856246 -26.42570684 7.7774106 -22.375 2.9375 C-15.84172093 -2.39578904 -7.91617751 -2.49212996 0 0 Z " fill="#423E3E" transform="translate(86.375,375.0625)"/>
<path d="M0 0 C6.39022636 3.65749542 10.22394864 9.08921368 12.5625 16 C13.73022901 24.0020167 12.17516393 30.38233391 7.5625 37 C2.99797731 42.12712665 -1.67432183 44.59846982 -8.5859375 45.3359375 C-16.51798165 45.43196709 -22.19617527 44.91208948 -28.1484375 39.421875 C-33.76323417 33.34146105 -36.12363399 27.11516716 -35.83984375 18.83984375 C-34.80752638 11.55348716 -31.50090623 6.49379276 -25.8125 1.9375 C-18.28370233 -3.52280548 -8.44986689 -3.82683941 0 0 Z " fill="#423E3E" transform="translate(267.4375,249)"/>
<path d="M0 0 C0 17.16 0 34.32 0 52 C-9.9 52 -19.8 52 -30 52 C-30.41381065 20.9642016 -30.41381065 20.9642016 -19.9375 9.3125 C-14.61916958 4.29874357 -7.36905894 0 0 0 Z " fill="#9D7B58" transform="translate(250,366)"/>
<path d="M0 0 C9.9 0 19.8 0 30 0 C30 13.86 30 27.72 30 42 C20.1 42 10.2 42 0 42 C0 28.14 0 14.28 0 0 Z " fill="#9D7B58" transform="translate(220,434)"/>
<path d="M0 0 C8.0370027 0.39204891 14.14469525 5.55616923 19.46484375 11.19140625 C26.83834798 19.87825729 27.32435823 30.11795578 27.125 41.125 C27.08375 44.38375 27.0425 47.6425 27 51 C17.76 51 8.52 51 -1 51 C-1.02290307 43.89750243 -1.04283197 36.79513197 -1.05493164 29.69262695 C-1.05997349 27.27432828 -1.06680678 24.85603267 -1.07543945 22.43774414 C-1.08751157 18.97020717 -1.09322963 15.50271034 -1.09765625 12.03515625 C-1.10281754 10.94662857 -1.10797882 9.85810089 -1.11329651 8.73658752 C-1.11337204 7.73562546 -1.11344757 6.73466339 -1.11352539 5.70336914 C-1.115746 4.81734512 -1.11796661 3.93132111 -1.12025452 3.01844788 C-1 1 -1 1 0 0 Z " fill="#9D7B58" transform="translate(267,367)"/>
<path d="M0 0 C9.24 0 18.48 0 28 0 C28 13.53 28 27.06 28 41 C18.76 41 9.52 41 0 41 C0 27.47 0 13.94 0 0 Z " fill="#9D7B58" transform="translate(266,434)"/>
<path d="M0 0 C4.95 0 9.9 0 15 0 C20 11.5 20 11.5 20 16 C18.1015625 18.359375 18.1015625 18.359375 15.625 20.75 C14.81289062 21.54921875 14.00078125 22.3484375 13.1640625 23.171875 C11 25 11 25 9 25 C4.46187004 16.68818444 1.16027895 9.54007134 0 0 Z " fill="#D41635" transform="translate(202,278)"/>
<path d="M0 0 C4.95 0 9.9 0 15 0 C13.87609995 8.54164039 11.62741824 15.66442351 7 23 C6.01 23.66 5.02 24.32 4 25 C0.7 21.7 -2.6 18.4 -6 15 C-4 10 -2 5 0 0 Z " fill="#F983A9" transform="translate(295,278)"/>
<path d="M0 0 C6.54244383 5.23395506 9.77466902 13.54967352 10.8125 21.75 C10.9053125 23.35875 10.9053125 23.35875 11 25 C6.05 25 1.1 25 -4 25 C-9 13.5 -9 13.5 -9 9 C-7.03125 6.640625 -7.03125 6.640625 -4.5 4.25 C-3.6646875 3.45078125 -2.829375 2.6515625 -1.96875 1.828125 C-0.99421875 0.92320312 -0.99421875 0.92320312 0 0 Z " fill="#D41535" transform="translate(299,238)"/>
<path d="M0 0 C3.80635497 3.20760251 7.54563567 6.40746109 11 10 C9 15 7 20 5 25 C0.05 25 -4.9 25 -10 25 C-8.82858498 16.09724584 -6.57162612 6.57162612 0 0 Z " fill="#FA83AA" transform="translate(212,238)"/>
<path d="M0 0 C2.35546875 0.93359375 2.35546875 0.93359375 5.35546875 2.93359375 C7.66546875 3.59359375 9.97546875 4.25359375 12.35546875 4.93359375 C12.35546875 10.21359375 12.35546875 15.49359375 12.35546875 20.93359375 C3.4691451 19.62678145 -6.48021437 16.93375021 -12.64453125 9.93359375 C-11.10125351 8.22849659 -9.53416375 6.54492635 -7.95703125 4.87109375 C-7.08691406 3.93136719 -6.21679688 2.99164063 -5.3203125 2.0234375 C-2.64453125 -0.06640625 -2.64453125 -0.06640625 0 0 Z " fill="#D4B35D" transform="translate(235.64453125,304.06640625)"/>
<path d="M0 0 C2.140625 1.84765625 2.140625 1.84765625 4.25 4.0625 C4.95640625 4.79597656 5.6628125 5.52945312 6.390625 6.28515625 C6.92171875 6.85105469 7.4528125 7.41695313 8 8 C6.16023194 12.70940627 3.20515961 13.75948879 -1.1875 15.828125 C-11.2 20 -11.2 20 -16 20 C-16 14.72 -16 9.44 -16 4 C-3.36973479 -1.62870515 -3.36973479 -1.62870515 0 0 Z " fill="#61A3B9" transform="translate(280,305)"/>
<path d="M0 0 C5.72462377 0 8.07537791 0.57125305 13.125 2.8125 C14.32382812 3.33457031 15.52265625 3.85664063 16.7578125 4.39453125 C19.47213717 5.7386125 21.67923718 7.07757707 24 9 C22.61502389 12.07696662 21.00995268 14.36645782 18.6875 16.8125 C18.11386719 17.43769531 17.54023438 18.06289062 16.94921875 18.70703125 C15 20 15 20 12.6015625 19.828125 C8.29032584 18.4557794 4.18161207 16.72839966 0 15 C0 10.05 0 5.1 0 0 Z " fill="#D6B55E" transform="translate(264,217)"/>
<path d="M0 0 C0 4.95 0 9.9 0 15 C-11.28981723 20.03133159 -11.28981723 20.03133159 -14.125 19.90625 C-16.68370469 18.66954273 -18.2949943 16.99025598 -20.25 14.9375 C-20.95640625 14.20402344 -21.6628125 13.47054687 -22.390625 12.71484375 C-22.92171875 12.14894531 -23.4528125 11.58304688 -24 11 C-23 8 -23 8 -19.98046875 6.2109375 C-18.72120319 5.5886183 -17.45659409 4.97702252 -16.1875 4.375 C-15.55779297 4.06304687 -14.92808594 3.75109375 -14.27929688 3.4296875 C-9.02220475 0.87009595 -5.85857109 0 0 0 Z " fill="#61A4BA" transform="translate(248,217)"/>
</svg>
