<?xml version="1.0" encoding="UTF-8"?>
<svg version="1.1" xmlns="http://www.w3.org/2000/svg" width="512" height="512">
<path d="M0 0 C4.83069385 3.74625237 7.16206148 7.37732953 8.0625 13.375 C8.14155625 15.43233273 8.17029825 17.49195513 8.16015625 19.55078125 C8.15532227 21.28618164 8.15532227 21.28618164 8.15039062 23.05664062 C8.13782227 24.85391602 8.13782227 24.85391602 8.125 26.6875 C8.12048828 27.90501953 8.11597656 29.12253906 8.11132812 30.37695312 C8.09956578 33.37635226 8.08312826 36.37565089 8.0625 39.375 C9.15046875 39.49488281 10.2384375 39.61476562 11.359375 39.73828125 C15.97840833 40.53248213 17.80985805 42.04843437 21.0625 45.375 C24.71254909 50.86295616 24.41617518 55.91181376 24.25 62.25 C24.188125 65.59125 24.12625 68.9325 24.0625 72.375 C34.6225 72.375 45.1825 72.375 56.0625 72.375 C56.7225 70.395 57.3825 68.415 58.0625 66.375 C61.6494983 63.9836678 63.217511 64.12284042 67.48001003 64.11773109 C68.13736217 64.11422502 68.79471431 64.11071895 69.4719862 64.10710663 C71.69018295 64.09775069 73.90811955 64.1027266 76.12632751 64.10757446 C77.72649064 64.10384031 79.32665194 64.09923974 80.92681032 64.09384382 C85.33614125 64.08156941 89.74539656 64.08187948 94.15474069 64.08423257 C98.90533208 64.08463961 103.65589887 64.07361242 108.40647888 64.06411743 C117.71797067 64.04748255 127.02943715 64.04200678 136.34094255 64.04089268 C143.90663081 64.03994346 151.47231069 64.03583949 159.03799629 64.02949142 C180.47097447 64.01187286 201.90393258 64.00265361 223.33691805 64.00415237 C225.07122882 64.00427224 225.07122882 64.00427224 226.84057617 64.00439453 C228.57699535 64.00451717 228.57699535 64.00451717 230.3484937 64.00464229 C249.11796148 64.00545555 267.88734907 63.98630946 286.65679365 63.9581178 C305.91232498 63.92942337 325.16781716 63.91557558 344.42337042 63.91730535 C355.24070054 63.91797041 366.05794658 63.91242763 376.87525749 63.89094925 C386.08384671 63.87278274 395.29231375 63.86835274 404.50091308 63.8819681 C409.20215862 63.88852051 413.90316946 63.88853344 418.60439301 63.8712616 C422.90439314 63.85562579 427.20397062 63.85829635 431.50395984 63.87582986 C433.06315224 63.87892083 434.62237545 63.87518923 436.18153154 63.86410971 C438.29458893 63.85008342 440.40614416 63.86049723 442.51914883 63.87722206 C443.69465563 63.87678733 444.87016244 63.87635259 446.08129066 63.87590468 C449.68219274 64.47874506 450.85599937 65.5238133 453.0625 68.375 C453.57043457 70.42358398 453.57043457 70.42358398 453.58007812 72.62109375 C453.59268677 73.44875244 453.60529541 74.27641113 453.61828613 75.12915039 C453.60614075 76.45740845 453.60614075 76.45740845 453.59375 77.8125 C453.5975769 78.7295874 453.60140381 79.6466748 453.60534668 80.59155273 C453.60806549 82.52816873 453.60070646 84.46482147 453.58398438 86.40136719 C453.56257394 89.36476553 453.58378669 92.32573951 453.609375 95.2890625 C453.60673172 97.17188035 453.60160673 99.05469669 453.59375 100.9375 C453.60184692 101.82300537 453.60994385 102.70851074 453.61828613 103.62084961 C453.59937317 104.86233765 453.59937317 104.86233765 453.58007812 106.12890625 C453.57689575 106.85408447 453.57371338 107.5792627 453.57043457 108.32641602 C452.82523261 111.33193856 451.46540633 112.45086281 449.0625 114.375 C446.08244133 114.87639666 446.08244133 114.87639666 442.52194214 114.87836456 C441.86343616 114.88417833 441.20493018 114.88999209 440.52646947 114.89598203 C438.31008359 114.91063176 436.09479659 114.89667494 433.87841797 114.88293457 C432.2773882 114.88754156 430.67636265 114.89389311 429.07534599 114.90184355 C424.66818067 114.91858796 420.26136048 114.91026743 415.85419369 114.89789867 C411.10428938 114.88887133 406.35444561 114.90280637 401.60455322 114.91381836 C392.29650332 114.93163299 382.98858222 114.92775051 373.68052721 114.9161678 C366.11771618 114.90714531 358.55494133 114.90590433 350.99212646 114.91026306 C349.91698316 114.91087599 348.84183985 114.91148893 347.73411644 114.91212043 C345.55018948 114.91339929 343.36626254 114.91469615 341.18233562 114.9160108 C320.68912283 114.92742522 300.19598154 114.91428937 279.70278049 114.89280933 C262.10715638 114.87493758 244.51163782 114.87804144 226.91601562 114.89648438 C206.49764581 114.91787587 186.0793387 114.9263265 165.66095924 114.91403532 C163.48493068 114.91276108 161.30890211 114.9115036 159.13287354 114.91026306 C158.06214155 114.90964596 156.99140957 114.90902886 155.88823116 114.90839306 C148.33186458 114.90493499 140.77553768 114.91077832 133.21917725 114.92018127 C124.01425868 114.93138353 114.8094766 114.92839863 105.60457373 114.9070583 C100.90535562 114.89652395 96.20636532 114.89246651 91.50714874 114.90565491 C87.20902342 114.91753547 82.91133803 114.91108843 78.61325288 114.8897447 C77.05476959 114.88526014 75.49624947 114.88758623 73.93778968 114.89724785 C71.82567754 114.90934186 69.71508926 114.89701109 67.60305786 114.87836456 C66.42809313 114.87771515 65.2531284 114.87706574 64.04255867 114.87639666 C60.4019442 114.26386109 59.24808404 113.30706786 57.0625 110.375 C56.7325 109.055 56.4025 107.735 56.0625 106.375 C45.5025 106.375 34.9425 106.375 24.0625 106.375 C24.0625 141.355 24.0625 176.335 24.0625 212.375 C27.3625 212.375 30.6625 212.375 34.0625 212.375 C37.23443184 213.63055635 38.53853326 214.41778867 40.16796875 217.39453125 C41.42371512 221.57852461 41.39163426 225.53013104 41.375 229.875 C41.39111328 230.71675781 41.40722656 231.55851563 41.42382812 232.42578125 C41.42762864 237.25243455 41.16833753 240.4454732 38.0625 244.375 C35.45834998 246.97915002 33.6313023 246.62858906 30.08311462 246.66827393 C29.24567215 246.66736755 28.40822968 246.66646118 27.54541016 246.66552734 C26.66396835 246.67224457 25.78252655 246.67896179 24.87437439 246.68588257 C21.95004698 246.70493635 19.02594819 246.70879056 16.1015625 246.7109375 C14.07376001 246.71736062 12.04595847 246.7240886 10.01815796 246.73110962 C5.76273449 246.74310108 1.50739231 246.74678856 -2.74804688 246.74560547 C-8.20485221 246.74540225 -13.66113691 246.77269952 -19.11781883 246.80714989 C-23.30767212 246.82937282 -27.49739925 246.83344441 -31.68730545 246.83238602 C-33.69918232 246.83474912 -35.7110623 246.84361232 -37.72288132 246.85905075 C-40.5361666 246.87861634 -43.3483181 246.87290978 -46.16162109 246.86083984 C-46.99501511 246.87207886 -47.82840912 246.88331787 -48.6870575 246.89489746 C-52.32605909 246.85516344 -54.48566007 246.70946425 -57.4536438 244.51248169 C-59.37068371 241.75100271 -59.45366438 240.00310325 -59.46875 236.65625 C-59.47390625 235.55925781 -59.4790625 234.46226562 -59.484375 233.33203125 C-59.46890625 232.19121094 -59.4534375 231.05039062 -59.4375 229.875 C-59.46070313 228.16376953 -59.46070313 228.16376953 -59.484375 226.41796875 C-59.47921875 225.32097656 -59.4740625 224.22398437 -59.46875 223.09375 C-59.46423828 222.09279297 -59.45972656 221.09183594 -59.45507812 220.06054688 C-58.80032839 216.66326049 -57.61930854 215.49759189 -54.9375 213.375 C-52.05538698 212.41429566 -50.23899956 212.26918117 -47.25 212.3125 C-46.44175781 212.32152344 -45.63351563 212.33054687 -44.80078125 212.33984375 C-43.87845703 212.35724609 -43.87845703 212.35724609 -42.9375 212.375 C-42.94118717 211.55777718 -42.94487434 210.74055435 -42.94867325 209.8985672 C-43.03706465 190.00084149 -43.10322928 170.10314968 -43.14474869 150.20526886 C-43.16536158 140.58273766 -43.19345784 130.96033763 -43.23925781 121.33789062 C-43.27916455 112.94958644 -43.30494207 104.56137727 -43.31385398 96.17298079 C-43.31906223 91.73259689 -43.33127693 87.29248478 -43.36042023 82.85218811 C-43.38765003 78.66938871 -43.39592979 74.48697203 -43.38993073 70.30409241 C-43.39102759 68.77227699 -43.39893652 67.24044826 -43.4143219 65.70870972 C-43.49061298 57.71874018 -43.49715187 51.21627163 -38.9375 44.375 C-36.97265625 42.5 -36.97265625 42.5 -35 41.375 C-34.35160156 40.983125 -33.70320313 40.59125 -33.03515625 40.1875 C-30.55450379 39.22665137 -28.57711083 39.31841554 -25.9375 39.375 C-25.95844727 38.50286865 -25.97939453 37.6307373 -26.00097656 36.73217773 C-26.06951195 33.46872202 -26.11947177 30.20604076 -26.15722656 26.94213867 C-26.17723246 25.53478866 -26.20444662 24.12752062 -26.23925781 22.72045898 C-26.59112596 8.12310532 -26.59112596 8.12310532 -21.9375 2.375 C-15.63994574 -2.63733911 -7.35232055 -3.76312321 0 0 Z " fill="#DBD6D9" transform="translate(58.9375,133.625)"/>
<path d="M0 0 C4.83069385 3.74625237 7.16206148 7.37732953 8.0625 13.375 C8.14155625 15.43233273 8.17029825 17.49195513 8.16015625 19.55078125 C8.15532227 21.28618164 8.15532227 21.28618164 8.15039062 23.05664062 C8.13782227 24.85391602 8.13782227 24.85391602 8.125 26.6875 C8.12048828 27.90501953 8.11597656 29.12253906 8.11132812 30.37695312 C8.09956578 33.37635226 8.08312826 36.37565089 8.0625 39.375 C9.15046875 39.49488281 10.2384375 39.61476562 11.359375 39.73828125 C15.97840833 40.53248213 17.80985805 42.04843437 21.0625 45.375 C24.71303808 50.86369136 24.41766201 55.90463781 24.25 62.25 C24.22969727 63.71179688 24.22969727 63.71179688 24.20898438 65.203125 C24.17381962 67.59432863 24.1246067 69.98436975 24.0625 72.375 C23.49853516 72.3843457 22.93457031 72.39369141 22.35351562 72.40332031 C19.75568008 72.45757486 17.15954081 72.54110683 14.5625 72.625 C13.675625 72.63917969 12.78875 72.65335937 11.875 72.66796875 C4.45878572 72.94062369 -1.17167606 74.54003046 -6.4375 79.9375 C-8.79018841 85.3290776 -9.11037575 90.90654926 -7.20703125 96.53515625 C-5.01690789 100.74555666 -3.1594368 101.84183792 1.0625 104.375 C8.6525 104.705 16.2425 105.035 24.0625 105.375 C24.0625 140.685 24.0625 175.995 24.0625 212.375 C27.3625 212.375 30.6625 212.375 34.0625 212.375 C37.23443184 213.63055635 38.53853326 214.41778867 40.16796875 217.39453125 C41.42371512 221.57852461 41.39163426 225.53013104 41.375 229.875 C41.39111328 230.71675781 41.40722656 231.55851563 41.42382812 232.42578125 C41.42762864 237.25243455 41.16833753 240.4454732 38.0625 244.375 C35.45834998 246.97915002 33.6313023 246.62858906 30.08311462 246.66827393 C29.24567215 246.66736755 28.40822968 246.66646118 27.54541016 246.66552734 C26.66396835 246.67224457 25.78252655 246.67896179 24.87437439 246.68588257 C21.95004698 246.70493635 19.02594819 246.70879056 16.1015625 246.7109375 C14.07376001 246.71736062 12.04595847 246.7240886 10.01815796 246.73110962 C5.76273449 246.74310108 1.50739231 246.74678856 -2.74804688 246.74560547 C-8.20485221 246.74540225 -13.66113691 246.77269952 -19.11781883 246.80714989 C-23.30767212 246.82937282 -27.49739925 246.83344441 -31.68730545 246.83238602 C-33.69918232 246.83474912 -35.7110623 246.84361232 -37.72288132 246.85905075 C-40.5361666 246.87861634 -43.3483181 246.87290978 -46.16162109 246.86083984 C-46.99501511 246.87207886 -47.82840912 246.88331787 -48.6870575 246.89489746 C-52.32605909 246.85516344 -54.48566007 246.70946425 -57.4536438 244.51248169 C-59.37068371 241.75100271 -59.45366438 240.00310325 -59.46875 236.65625 C-59.47390625 235.55925781 -59.4790625 234.46226562 -59.484375 233.33203125 C-59.46890625 232.19121094 -59.4534375 231.05039062 -59.4375 229.875 C-59.46070313 228.16376953 -59.46070313 228.16376953 -59.484375 226.41796875 C-59.47921875 225.32097656 -59.4740625 224.22398437 -59.46875 223.09375 C-59.46423828 222.09279297 -59.45972656 221.09183594 -59.45507812 220.06054688 C-58.80032839 216.66326049 -57.61930854 215.49759189 -54.9375 213.375 C-52.05538698 212.41429566 -50.23899956 212.26918117 -47.25 212.3125 C-46.44175781 212.32152344 -45.63351563 212.33054687 -44.80078125 212.33984375 C-43.87845703 212.35724609 -43.87845703 212.35724609 -42.9375 212.375 C-42.94118717 211.55777718 -42.94487434 210.74055435 -42.94867325 209.8985672 C-43.03706465 190.00084149 -43.10322928 170.10314968 -43.14474869 150.20526886 C-43.16536158 140.58273766 -43.19345784 130.96033763 -43.23925781 121.33789062 C-43.27916455 112.94958644 -43.30494207 104.56137727 -43.31385398 96.17298079 C-43.31906223 91.73259689 -43.33127693 87.29248478 -43.36042023 82.85218811 C-43.38765003 78.66938871 -43.39592979 74.48697203 -43.38993073 70.30409241 C-43.39102759 68.77227699 -43.39893652 67.24044826 -43.4143219 65.70870972 C-43.49061298 57.71874018 -43.49715187 51.21627163 -38.9375 44.375 C-36.97265625 42.5 -36.97265625 42.5 -35 41.375 C-34.35160156 40.983125 -33.70320313 40.59125 -33.03515625 40.1875 C-30.55450379 39.22665137 -28.57711083 39.31841554 -25.9375 39.375 C-25.95844727 38.50286865 -25.97939453 37.6307373 -26.00097656 36.73217773 C-26.06951195 33.46872202 -26.11947177 30.20604076 -26.15722656 26.94213867 C-26.17723246 25.53478866 -26.20444662 24.12752062 -26.23925781 22.72045898 C-26.59112596 8.12310532 -26.59112596 8.12310532 -21.9375 2.375 C-15.63994574 -2.63733911 -7.35232055 -3.76312321 0 0 Z " fill="#FEAA5A" transform="translate(58.9375,133.625)"/>
<path d="M0 0 C5.08590654 5.32246033 6.02562784 9.65691439 5.95117188 16.8046875 C5.92603516 17.75601563 5.90089844 18.70734375 5.875 19.6875 C5.85469727 21.14929688 5.85469727 21.14929688 5.83398438 22.640625 C5.79881962 25.03182863 5.7496067 27.42186975 5.6875 29.8125 C5.12353516 29.8218457 4.55957031 29.83119141 3.97851562 29.84082031 C1.38068008 29.89507486 -1.21545919 29.97860683 -3.8125 30.0625 C-5.1428125 30.08376953 -5.1428125 30.08376953 -6.5 30.10546875 C-13.91621428 30.37812369 -19.54667606 31.97753046 -24.8125 37.375 C-27.16518841 42.7665776 -27.48537575 48.34404926 -25.58203125 53.97265625 C-23.39190789 58.18305666 -21.5344368 59.27933792 -17.3125 61.8125 C-9.7225 62.1425 -2.1325 62.4725 5.6875 62.8125 C5.6875 92.8425 5.6875 122.8725 5.6875 153.8125 C-33.3125 153.8125 -33.3125 153.8125 -39.3125 149.8125 C-43.11913501 144.77128067 -44.43823474 141.27583368 -44.43275452 135.02290344 C-44.43412918 133.81555542 -44.43550385 132.6082074 -44.43692017 131.36427307 C-44.43338105 130.02450537 -44.42974624 128.68473791 -44.42602539 127.3449707 C-44.42574335 125.93567914 -44.42590158 124.52638743 -44.4264679 123.11709595 C-44.42675521 119.28887046 -44.42086905 115.4606762 -44.41389394 111.63245797 C-44.40764952 107.63259301 -44.40705574 103.63272736 -44.40586853 99.63285828 C-44.40275843 92.05747586 -44.39454936 84.48210785 -44.38451904 76.90673178 C-44.37334794 68.28288632 -44.36784494 59.65904017 -44.36282361 51.03518927 C-44.3523665 33.29428468 -44.33477325 15.5533935 -44.3125 -2.1875 C-39.75953108 -2.35639799 -35.20636731 -2.516807 -30.65283203 -2.66967773 C-29.10685369 -2.72273708 -27.56095031 -2.77803336 -26.01513672 -2.83569336 C-23.78108892 -2.91862283 -21.54688675 -2.99325074 -19.3125 -3.06640625 C-18.63195557 -3.09344131 -17.95141113 -3.12047638 -17.25024414 -3.14833069 C-11.03218334 -3.33764078 -5.30296509 -3.50195808 0 0 Z " fill="#FEC263" transform="translate(77.3125,176.1875)"/>
<path d="M0 0 C15.57692007 -0.09342624 31.15378935 -0.16397072 46.7309227 -0.20724869 C53.96361403 -0.22787723 61.19613132 -0.25600311 68.42871094 -0.30175781 C74.73237227 -0.341617 81.03590755 -0.3674307 87.3396914 -0.37635398 C90.67788643 -0.38157052 94.01543539 -0.3959296 97.35356903 -0.42292023 C101.07935689 -0.45185375 104.80439176 -0.45596005 108.53027344 -0.45410156 C110.19183472 -0.47567322 110.19183472 -0.47567322 111.88696289 -0.49768066 C112.90216003 -0.49218201 113.91735718 -0.48668335 114.96331787 -0.48101807 C115.84455196 -0.48470524 116.72578606 -0.48839241 117.63372421 -0.49219131 C120.78381554 0.1630356 121.99169125 1.54601518 124 4 C124.50793457 6.04858398 124.50793457 6.04858398 124.51757812 8.24609375 C124.53018677 9.07375244 124.54279541 9.90141113 124.55578613 10.75415039 C124.54768921 11.63965576 124.53959229 12.52516113 124.53125 13.4375 C124.53699036 14.8131311 124.53699036 14.8131311 124.54284668 16.21655273 C124.54556549 18.15316873 124.53820646 20.08982147 124.52148438 22.02636719 C124.50007394 24.98976553 124.52128669 27.95073951 124.546875 30.9140625 C124.54423172 32.79688035 124.53910673 34.67969669 124.53125 36.5625 C124.53934692 37.44800537 124.54744385 38.33351074 124.55578613 39.24584961 C124.54317749 40.0735083 124.53056885 40.90116699 124.51757812 41.75390625 C124.51439575 42.47908447 124.51121338 43.2042627 124.50793457 43.95141602 C123.75030699 47.00705313 122.52510871 48.1477064 120 50 C116.82354736 50.48101807 116.82354736 50.48101807 113.02832031 50.45410156 C112.3352327 50.45468567 111.64214508 50.45526978 110.92805481 50.45587158 C108.64422985 50.45309169 106.36172103 50.42200707 104.078125 50.390625 C102.49201165 50.3831622 100.90588906 50.37746945 99.31976318 50.37347412 C95.15039497 50.35822065 90.98158644 50.31894187 86.81243896 50.2746582 C82.55602591 50.23369898 78.29952219 50.21546175 74.04296875 50.1953125 C65.695056 50.15244683 57.34759767 50.0841996 49 50 C49 49.34 49 48.68 49 48 C48.43456482 47.7595546 47.86912964 47.51910919 47.28656006 47.27137756 C44.52596539 45.73642635 42.64754795 43.89449218 40.41503906 41.65795898 C39.51440735 40.7604039 38.61377563 39.86284882 37.68585205 38.93809509 C36.71226124 37.95760846 35.73885657 36.97693697 34.765625 35.99609375 C33.76279579 34.99207206 32.75959623 33.98842016 31.75604248 32.98512268 C29.65830228 30.88582091 27.56395797 28.78320894 25.47216797 26.67797852 C22.78480182 23.97356819 20.09084461 21.27584254 17.39456558 18.58032131 C15.32515323 16.51063778 13.25835158 14.43836418 11.19243622 12.36519051 C10.19942322 11.3689867 9.20579576 10.37339501 8.21155548 9.37841606 C6.82763889 7.99234338 5.4474117 6.60258996 4.06738281 5.21264648 C3.28002747 4.42147934 2.49267212 3.63031219 1.68145752 2.81517029 C0 1 0 1 0 0 Z " fill="#ECE8EA" transform="translate(388,198)"/>
<path d="M0 0 C9.99526352 -1.44389729 19.98181602 -2.39699388 30.0625 -2.9375 C30.80646027 -2.97758556 31.55042053 -3.01767113 32.31692505 -3.05897141 C51.12859354 -3.95234032 66.31556698 -2.47685142 80.77734375 10.4296875 C92.13381382 20.82369852 102.13334008 32.84929119 111.41931152 45.09544373 C112.86904991 47.10229571 112.86904991 47.10229571 115 48 C115 48.66 115 49.32 115 50 C105.04890282 51.50795769 95.10717826 52.49958148 85.0625 53.0625 C84.32054634 53.1042976 83.57859268 53.1460952 82.81415558 53.18915939 C63.58241544 54.14396066 48.45123104 52.27492067 33.70703125 39.125 C29.01300982 34.83228388 24.64180348 30.27675899 20.375 25.5625 C19.84556416 24.97860126 19.31612831 24.39470253 18.77064896 23.79310989 C0 2.94209354 0 2.94209354 0 0 Z " fill="#FE5F7A" transform="translate(322,198)"/>
<path d="M0 0 C9.95109718 -1.50795769 19.89282174 -2.49958148 29.9375 -3.0625 C30.67945366 -3.1042976 31.42140732 -3.1460952 32.18584442 -3.18915939 C51.41758456 -4.14396066 66.54876896 -2.27492067 81.29296875 10.875 C85.98699018 15.16771612 90.35819652 19.72324101 94.625 24.4375 C95.41915377 25.3133481 95.41915377 25.3133481 96.22935104 26.20689011 C115 47.05790646 115 47.05790646 115 50 C105.04890282 51.50795769 95.10717826 52.49958148 85.0625 53.0625 C84.32054634 53.1042976 83.57859268 53.1460952 82.81415558 53.18915939 C63.58241544 54.14396066 48.45123104 52.27492067 33.70703125 39.125 C29.01300982 34.83228388 24.64180348 30.27675899 20.375 25.5625 C19.84556416 24.97860126 19.31612831 24.39470253 18.77064896 23.79310989 C0 2.94209354 0 2.94209354 0 0 Z " fill="#ECE9EB" transform="translate(256,198)"/>
<path d="M0 0 C9.95109718 -1.50795769 19.89282174 -2.49958148 29.9375 -3.0625 C30.67945366 -3.1042976 31.42140732 -3.1460952 32.18584442 -3.18915939 C51.41758456 -4.14396066 66.54876896 -2.27492067 81.29296875 10.875 C85.98699018 15.16771612 90.35819652 19.72324101 94.625 24.4375 C95.41915377 25.3133481 95.41915377 25.3133481 96.22935104 26.20689011 C115 47.05790646 115 47.05790646 115 50 C105.04890282 51.50795769 95.10717826 52.49958148 85.0625 53.0625 C84.32054634 53.1042976 83.57859268 53.1460952 82.81415558 53.18915939 C63.58241544 54.14396066 48.45123104 52.27492067 33.70703125 39.125 C29.01300982 34.83228388 24.64180348 30.27675899 20.375 25.5625 C19.84556416 24.97860126 19.31612831 24.39470253 18.77064896 23.79310989 C0 2.94209354 0 2.94209354 0 0 Z " fill="#FE5F7A" transform="translate(190,198)"/>
<path d="M0 0 C9.95109718 -1.50795769 19.89282174 -2.49958148 29.9375 -3.0625 C30.67945366 -3.1042976 31.42140732 -3.1460952 32.18584442 -3.18915939 C51.41758456 -4.14396066 66.54876896 -2.27492067 81.29296875 10.875 C85.98699018 15.16771612 90.35819652 19.72324101 94.625 24.4375 C95.41915377 25.3133481 95.41915377 25.3133481 96.22935104 26.20689011 C115 47.05790646 115 47.05790646 115 50 C105.04890282 51.50795769 95.10717826 52.49958148 85.0625 53.0625 C84.32054634 53.1042976 83.57859268 53.1460952 82.81415558 53.18915939 C63.58241544 54.14396066 48.45123104 52.27492067 33.70703125 39.125 C29.01300982 34.83228388 24.64180348 30.27675899 20.375 25.5625 C19.84556416 24.97860126 19.31612831 24.39470253 18.77064896 23.79310989 C0 2.94209354 0 2.94209354 0 0 Z " fill="#ECE9EB" transform="translate(124,198)"/>
<path d="M0 0 C0.83121368 -0.0049649 1.66242737 -0.00992981 2.51882935 -0.01504517 C5.27053656 -0.02965864 8.02218613 -0.03646718 10.77392578 -0.04199219 C12.68580121 -0.04774399 14.59767661 -0.05350172 16.509552 -0.05926514 C20.51939157 -0.06977258 24.5292111 -0.07561703 28.5390625 -0.07910156 C33.67615599 -0.08458796 38.81298464 -0.10862019 43.94999504 -0.13707352 C47.89967624 -0.15569976 51.84929363 -0.16090547 55.79901505 -0.16243744 C57.69283624 -0.16546416 59.58665631 -0.17349334 61.48043442 -0.18662262 C64.13039038 -0.203684 66.77969885 -0.20180279 69.4296875 -0.1953125 C70.6018985 -0.20913467 70.6018985 -0.20913467 71.79779053 -0.22323608 C76.32407381 -0.18852234 79.25011055 0.34764098 82.84423828 3.16113281 C85.57539346 7.58378892 85.17602821 12.62260351 85.15673828 17.66113281 C85.17285156 18.50289063 85.18896484 19.34464844 85.20556641 20.21191406 C85.20936692 25.03856736 84.95007581 28.23160602 81.84423828 32.16113281 C79.24008826 34.76528283 77.41304058 34.41472187 73.86485291 34.45440674 C73.02741043 34.45350037 72.18996796 34.45259399 71.32714844 34.45166016 C70.44570663 34.45837738 69.56426483 34.4650946 68.65611267 34.47201538 C65.73178526 34.49106917 62.80768647 34.49492337 59.88330078 34.49707031 C57.85549829 34.50349343 55.82769675 34.51022141 53.79989624 34.51724243 C49.54447277 34.5292339 45.28913059 34.53292137 41.03369141 34.53173828 C35.57688607 34.53153506 30.12060137 34.55883233 24.66391945 34.5932827 C20.47406616 34.61550563 16.28433903 34.61957723 12.09443283 34.61851883 C10.08255596 34.62088193 8.07067598 34.62974514 6.05885696 34.64518356 C3.24557168 34.66474916 0.43342018 34.65904259 -2.37988281 34.64697266 C-3.21327682 34.65821167 -4.04667084 34.66945068 -4.90531921 34.68103027 C-8.54432081 34.64129626 -10.70392179 34.49559706 -13.67190552 32.2986145 C-15.58894543 29.53713553 -15.6719261 27.78923606 -15.68701172 24.44238281 C-15.69216797 23.34539062 -15.69732422 22.24839844 -15.70263672 21.11816406 C-15.68716797 19.97734375 -15.67169922 18.83652344 -15.65576172 17.66113281 C-15.67123047 16.5203125 -15.68669922 15.37949219 -15.70263672 14.20410156 C-15.69748047 13.10710937 -15.69232422 12.01011719 -15.68701172 10.87988281 C-15.6825 9.87892578 -15.67798828 8.87796875 -15.67333984 7.84667969 C-15.0185901 4.4493933 -13.83757026 3.28372471 -11.15576172 1.16113281 C-7.40614255 -0.08874025 -3.90637344 0.00555907 0 0 Z " fill="#C9C5C9" transform="translate(15.15576171875,345.8388671875)"/>
<path d="M0 0 C2.42353821 1.93579102 2.42353821 1.93579102 4.97387695 4.50390625 C5.44277847 4.97061737 5.91167999 5.43732849 6.39479065 5.91818237 C7.93575955 7.45684736 9.4619929 9.00928264 10.98828125 10.5625 C12.0565038 11.63564704 13.1255415 12.70798324 14.19535828 13.77954102 C16.43135161 16.02316522 18.66073065 18.27308315 20.88500977 20.52832031 C23.74265638 23.42566071 26.61107851 26.31201768 29.4837923 29.19441223 C32.21801227 31.93857957 34.94722926 34.6876986 37.67578125 37.4375 C38.1997027 37.9648172 38.72362415 38.4921344 39.26342201 39.03543091 C40.73608429 40.51961047 42.20518319 42.00721818 43.6730957 43.49609375 C44.51072952 44.34357178 45.34836334 45.1910498 46.21138 46.06420898 C48 48 48 48 48 49 C40.52534555 49.10134735 33.050868 49.1714435 25.57568359 49.21972656 C23.03232197 49.23985272 20.48900667 49.26715637 17.94580078 49.30175781 C14.29187596 49.3502297 10.63856244 49.37295916 6.984375 49.390625 C5.84570984 49.41127014 4.70704468 49.43191528 3.53387451 49.45318604 C2.47307678 49.45348816 1.41227905 49.45379028 0.31933594 49.45410156 C-0.61332092 49.46298401 -1.54597778 49.47186646 -2.50689697 49.48101807 C-5.75272286 48.85477002 -6.92965677 47.51376435 -9 45 C-10.59071024 41.23654813 -10.18031645 36.941351 -10.203125 32.91015625 C-10.21167511 31.73784706 -10.21167511 31.73784706 -10.22039795 30.54185486 C-10.22982544 28.8919306 -10.23637297 27.24198769 -10.24023438 25.59204102 C-10.24995291 23.07469807 -10.28100176 20.55816761 -10.3125 18.04101562 C-10.31902953 16.43490066 -10.3242802 14.82877988 -10.328125 13.22265625 C-10.3404718 12.47355484 -10.3528186 11.72445343 -10.36553955 10.95265198 C-10.34646735 6.45670092 -9.79391983 3.56722174 -7 0 C-4.2104847 -1.39475765 -2.9568227 -0.92913787 0 0 Z " fill="#FA4455" transform="translate(125,199)"/>
<path d="M0 0 C7.47465445 -0.10134735 14.949132 -0.1714435 22.42431641 -0.21972656 C24.96767803 -0.23985272 27.51099333 -0.26715637 30.05419922 -0.30175781 C33.70812404 -0.3502297 37.36143756 -0.37295916 41.015625 -0.390625 C42.72362274 -0.42159271 42.72362274 -0.42159271 44.46612549 -0.45318604 C46.05732208 -0.45363922 46.05732208 -0.45363922 47.68066406 -0.45410156 C48.61332092 -0.46298401 49.54597778 -0.47186646 50.50689697 -0.48101807 C53.81251284 0.15676583 54.98262542 1.3452014 57 4 C57.50793457 6.04858398 57.50793457 6.04858398 57.51757812 8.24609375 C57.53018677 9.07375244 57.54279541 9.90141113 57.55578613 10.75415039 C57.54768921 11.63965576 57.53959229 12.52516113 57.53125 13.4375 C57.5350769 14.3545874 57.53890381 15.2716748 57.54284668 16.21655273 C57.54556549 18.15316873 57.53820646 20.08982147 57.52148438 22.02636719 C57.50007394 24.98976553 57.52128669 27.95073951 57.546875 30.9140625 C57.54423172 32.79688035 57.53910673 34.67969669 57.53125 36.5625 C57.53934692 37.44800537 57.54744385 38.33351074 57.55578613 39.24584961 C57.46251999 45.368042 57.46251999 45.368042 55.12597656 48.56054688 C52.46444975 50.36260959 51.1511315 50.60212704 48 50 C46.296875 48.53125 46.296875 48.53125 44.75 46.5 C41.60909374 42.62166358 38.23079435 39.44663409 34.40625 36.25 C32.40090466 34.37487189 30.66867382 32.5037176 28.88671875 30.42578125 C24.28630692 25.09098494 19.30177483 20.15591375 14.3125 15.1875 C13.36636846 14.23779754 12.42040397 13.28792864 11.47460938 12.33789062 C10.12012695 10.9853418 10.12012695 10.9853418 8.73828125 9.60546875 C7.92399658 8.79231201 7.10971191 7.97915527 6.27075195 7.14135742 C4.07755761 4.9809421 4.07755761 4.9809421 1.70385742 3.3371582 C1.14158447 2.895896 0.57931152 2.45463379 0 2 C0 1.34 0 0.68 0 0 Z " fill="#FE5F7A" transform="translate(455,198)"/>
<path d="M0 0 C4.83069385 3.74625237 7.16206148 7.37732953 8.0625 13.375 C8.14155625 15.43233273 8.17029825 17.49195513 8.16015625 19.55078125 C8.15765869 20.59403564 8.15516113 21.63729004 8.15258789 22.7121582 C8.14348389 24.024021 8.13437988 25.33588379 8.125 26.6875 C8.104375 30.874375 8.08375 35.06125 8.0625 39.375 C-3.1575 39.375 -14.3775 39.375 -25.9375 39.375 C-26.06125 32.1665625 -26.06125 32.1665625 -26.1875 24.8125 C-26.22391602 23.31001709 -26.26033203 21.80753418 -26.29785156 20.25952148 C-26.40078844 7.8880026 -26.40078844 7.8880026 -21.9375 2.375 C-15.63994574 -2.63733911 -7.35232055 -3.76312321 0 0 Z " fill="#FF8B56" transform="translate(58.9375,133.625)"/>
<path d="M0 0 C0.89176941 -0.0107959 1.78353882 -0.0215918 2.70233154 -0.03271484 C3.83368027 -0.05041931 3.83368027 -0.05041931 4.98788452 -0.06848145 C8.00062266 0.12369485 9.71208883 1.04840858 11.92645264 3.05517578 C13.92248701 6.28685048 14.00622758 9.03416812 13.96942139 12.73486328 C13.96321777 13.5442334 13.95701416 14.35360352 13.95062256 15.1875 C13.94264648 15.80383301 13.93467041 16.42016602 13.92645264 17.05517578 C4.65978117 17.14802725 -4.60672912 17.21901725 -13.87376499 17.26242447 C-18.1772618 17.28326223 -22.48043935 17.31150956 -26.78375244 17.35693359 C-30.93996742 17.40052828 -35.09587612 17.42434154 -39.25230217 17.43468475 C-40.83469397 17.44205179 -42.41706979 17.45643797 -43.99933052 17.47809601 C-46.22308144 17.50731269 -48.44558138 17.51112441 -50.66949463 17.50927734 C-51.93302261 17.51815979 -53.1965506 17.52704224 -54.49836731 17.53619385 C-59.38141089 16.87921094 -63.27683974 15.06802868 -66.63214111 11.30908203 C-68.5346414 7.64782592 -69.24837799 5.13222597 -69.07354736 1.05517578 C-60.64093704 0.92388293 -52.20831428 0.79343131 -43.77567482 0.66402435 C-39.85917149 0.60389603 -35.9426729 0.54348872 -32.02618408 0.48242188 C-28.239577 0.42339081 -24.45295887 0.36512125 -20.66633224 0.30735779 C-19.22881027 0.28529934 -17.79129233 0.26297632 -16.35377884 0.2403717 C-10.90259461 0.15478 -5.45095637 0.09785461 0 0 Z " fill="#DAD7DA" transform="translate(86.07354736328125,345.94482421875)"/>
<path d="M0 0 C0.94746094 0.89203125 1.89492188 1.7840625 2.87109375 2.703125 C3.71800781 3.54359375 4.56492187 4.3840625 5.4375 5.25 C6.73494141 6.52617187 6.73494141 6.52617187 8.05859375 7.828125 C10 10 10 10 10 12 C-11.78 12 -33.56 12 -56 12 C-56 11.34 -56 10.68 -56 10 C-56.53109375 9.79503906 -57.0621875 9.59007812 -57.609375 9.37890625 C-61.01824422 7.4126794 -63.51195901 4.73776919 -66.25 1.9375 C-66.80429687 1.38255859 -67.35859375 0.82761719 -67.9296875 0.25585938 C-72 -3.85956743 -72 -3.85956743 -72 -5 C-63.64664019 -5.27034822 -55.29327245 -5.50722573 -46.93784237 -5.70202446 C-43.0575678 -5.79352815 -39.17829323 -5.89631527 -35.29907227 -6.02539062 C-31.55170585 -6.14965517 -27.80466552 -6.24362383 -24.05597115 -6.31708145 C-22.62963551 -6.35026641 -21.20350554 -6.39415979 -19.77784538 -6.44918442 C-11.2235521 -6.77135339 -5.63596857 -6.84327543 0 0 Z " fill="#DBD6D9" transform="translate(493,236)"/>
<path d="M0 0 C8.32807952 -0.37392416 16.65255237 -0.65653169 24.98699951 -0.82899475 C28.85929548 -0.91186105 32.72577871 -1.02376856 36.59472656 -1.20703125 C63.62590697 -2.45513984 63.62590697 -2.45513984 71.6953125 3.59765625 C75.70385034 7.26645216 79.22149254 11.31610514 82 16 C82 16.33 82 16.66 82 17 C73.67192048 17.37392416 65.34744763 17.65653169 57.01300049 17.82899475 C53.14070452 17.91186105 49.27422129 18.02376856 45.40527344 18.20703125 C18.37409303 19.45513984 18.37409303 19.45513984 10.3046875 13.40234375 C6.29614966 9.73354784 2.77850746 5.68389486 0 1 C0 0.67 0 0.34 0 0 Z " fill="#DBD7DA" transform="translate(289,231)"/>
<path d="M0 0 C8.32807952 -0.37392416 16.65255237 -0.65653169 24.98699951 -0.82899475 C28.85929548 -0.91186105 32.72577871 -1.02376856 36.59472656 -1.20703125 C63.62590697 -2.45513984 63.62590697 -2.45513984 71.6953125 3.59765625 C75.70385034 7.26645216 79.22149254 11.31610514 82 16 C82 16.33 82 16.66 82 17 C73.67192048 17.37392416 65.34744763 17.65653169 57.01300049 17.82899475 C53.14070452 17.91186105 49.27422129 18.02376856 45.40527344 18.20703125 C18.37409303 19.45513984 18.37409303 19.45513984 10.3046875 13.40234375 C6.29614966 9.73354784 2.77850746 5.68389486 0 1 C0 0.67 0 0.34 0 0 Z " fill="#DBD7DA" transform="translate(157,231)"/>
<path d="M0 0 C7.97165386 -0.32687116 15.94043623 -0.57432499 23.91716957 -0.72537041 C27.6229958 -0.79793623 31.32418681 -0.89599243 35.02734375 -1.05615234 C60.97026391 -2.14994371 60.97026391 -2.14994371 68.07714844 3.14355469 C71.61880607 6.40208724 74.30876491 10.026693 77 14 C77.99 14.495 77.99 14.495 79 15 C79 15.66 79 16.32 79 17 C70.63716024 17.3267156 62.27705126 17.57425447 53.90937614 17.72537041 C50.02206498 17.79796539 46.13916543 17.8960894 42.25439453 18.05615234 C13.66928883 19.20456645 13.66928883 19.20456645 5.681427 11.92922974 C3.11602959 9.09953158 1.00753043 6.25195837 -1 3 C-0.67 2.01 -0.34 1.02 0 0 Z " fill="#FA4556" transform="translate(358,231)"/>
<path d="M0 0 C7.9368826 -0.37412915 15.86997087 -0.65662272 23.81354523 -0.82899475 C27.50439493 -0.91182366 31.18913486 -1.02364056 34.87646484 -1.20703125 C60.62125204 -2.45509317 60.62125204 -2.45509317 68.6015625 3.59765625 C72.61253502 7.28189871 76.16334499 11.3375231 79 16 C79 16.33 79 16.66 79 17 C70.63716024 17.3267156 62.27705126 17.57425447 53.90937614 17.72537041 C50.02206498 17.79796539 46.13916543 17.8960894 42.25439453 18.05615234 C13.66928883 19.20456645 13.66928883 19.20456645 5.681427 11.92922974 C3.11602959 9.09953158 1.00753043 6.25195837 -1 3 C-0.67 2.01 -0.34 1.02 0 0 Z " fill="#FA4456" transform="translate(226,231)"/>
<path d="M0 0 C5.65431955 0.3833437 8.89508433 0.77780102 13 5 C17.53089768 11.3108932 17.13065087 17.52386705 17 25 C10.95897042 24.78803405 7.92727521 23.72258153 3.4453125 19.66796875 C-0.15487775 15.5131546 -0.2259383 12.20066797 -0.125 6.75 C-0.10695312 5.48671875 -0.08890625 4.2234375 -0.0703125 2.921875 C-0.04710937 1.95765625 -0.02390625 0.9934375 0 0 Z " fill="#FFA959" transform="translate(50,132)"/>
<path d="M0 0 C7.26 0 14.52 0 22 0 C22.49201389 12.30034722 22.49201389 12.30034722 20.296875 15.421875 C18 17 18 17 15.4609375 17.4765625 C12.31729174 16.867793 11.55518177 15.88894406 9.625 13.375 C6.39472599 9.38507913 2.97363814 6.24378624 -1 3 C-0.67 2.01 -0.34 1.02 0 0 Z " fill="#FA4455" transform="translate(490,231)"/>
<path d="M0 0 C5.60525362 4.66732274 10.79461593 9.64317437 15.9375 14.8125 C16.71673828 15.58787109 17.49597656 16.36324219 18.29882812 17.16210938 C19.03423828 17.89880859 19.76964844 18.63550781 20.52734375 19.39453125 C21.19499756 20.06331299 21.86265137 20.73209473 22.55053711 21.42114258 C24 23 24 23 24 24 C11.46078222 25.03219171 11.46078222 25.03219171 6.375 21.375 C2.31155945 17.67161114 0.14332324 14.59981687 -0.16796875 8.953125 C-0.18552706 5.96118888 -0.13057865 2.98880028 0 0 Z " fill="#FE5F79" transform="translate(132,207)"/>
<path d="M0 0 C2.64 0 5.28 0 8 0 C8 2.64 8 5.28 8 8 C6.85073734 7.04578192 5.70569459 6.08647955 4.5625 5.125 C3.92441406 4.59132812 3.28632812 4.05765625 2.62890625 3.5078125 C1 2 1 2 0 0 Z " fill="#DCD0D3" transform="translate(124,198)"/>
</svg>
