<?xml version="1.0" encoding="UTF-8"?>
<svg version="1.1" xmlns="http://www.w3.org/2000/svg" width="512" height="512">
<path d="M0 0 C20.26774237 15.31661386 32.08811645 36.85747951 40.62548828 60.32495117 C44.85466038 71.91162694 48.84500978 81.75119691 60.64501953 87.24316406 C65.21672015 89.02928687 69.39158174 89.58903312 74.27001953 89.99316406 C83.75839636 91.01520811 91.9461703 93.96026561 98.64501953 101.05566406 C104.0214665 107.90079898 106.77201458 115.47307826 106.76806736 124.16879749 C106.77005841 125.14016991 106.77204946 126.11154234 106.77410084 127.11235029 C106.771188 128.17168781 106.76827516 129.23102533 106.76527405 130.32246399 C106.76655569 132.01946285 106.76655569 132.01946285 106.76786321 133.75074452 C106.76951303 137.54942186 106.76400474 141.34805523 106.75854492 145.14672852 C106.75770632 147.86664355 106.75837699 150.58655773 106.75898743 153.30647278 C106.75951169 159.16628285 106.75637507 165.02608178 106.75074959 170.88588905 C106.74262139 179.3581785 106.74001801 187.83046257 106.7387616 196.3027555 C106.73657316 210.04860112 106.72991869 223.7944408 106.72045898 237.5402832 C106.7112795 250.89282196 106.70420129 264.24535911 106.69995117 277.59790039 C106.69955709 278.83254613 106.69955709 278.83254613 106.69915504 280.09213421 C106.69785 284.2213847 106.69658629 288.35063519 106.69534314 292.4798857 C106.684977 326.73431609 106.66736432 360.98873944 106.64501953 395.24316406 C107.25895065 395.30388596 107.87288177 395.36460785 108.50541687 395.4271698 C109.31291885 395.51106461 110.12042084 395.59495941 110.95239258 395.68139648 C111.7519487 395.76274338 112.55150482 395.84409027 113.37528992 395.92790222 C122.61049604 397.21065769 129.43873669 403.38977786 135.46069336 410.01586914 C139.36963133 414.27500418 142.83652664 416.93954321 148.68017578 417.57128906 C149.67919922 417.54550781 150.67822266 417.51972656 151.70751953 417.49316406 C152.70912109 417.47769531 153.71072266 417.46222656 154.74267578 417.44628906 C157.46746011 417.25559083 159.97359257 416.78757809 162.64501953 416.24316406 C172.4719262 415.36163273 182.79370068 416.45913536 190.77001953 422.68066406 C191.38876953 423.52628906 192.00751953 424.37191406 192.64501953 425.24316406 C193.16974854 425.88068604 193.69447754 426.51820801 194.23510742 427.17504883 C196.43629396 431.96505944 196.09260975 436.68524406 196.07861328 441.89550781 C196.08385513 443.02839737 196.08909698 444.16128693 196.09449768 445.32850647 C196.10091382 447.72151877 196.09958621 450.11456263 196.09106445 452.50756836 C196.08255796 456.16414702 196.11131849 459.81916167 196.14306641 463.47558594 C196.14467864 465.80305943 196.14410047 468.13053568 196.14111328 470.45800781 C196.15234726 471.54879135 196.16358124 472.63957489 196.17515564 473.76341248 C196.11884181 479.91340851 195.77837076 483.57711815 191.64501953 488.24316406 C186.50860484 492.76810081 183.45702822 493.39013112 176.76317215 493.37738514 C175.52145233 493.38091348 175.52145233 493.38091348 174.25464725 493.38451311 C171.45061538 493.39122753 168.64662959 493.39074416 165.84259033 493.39033508 C163.82398748 493.39363219 161.80538528 493.39735743 159.78678393 493.40147656 C154.21611416 493.4115221 148.64545516 493.41521745 143.0747776 493.41786587 C137.07600061 493.42176136 131.07723222 493.43134017 125.07846069 493.44007874 C111.26554374 493.45892875 97.45262613 493.46910222 83.63969997 493.47753942 C76.81660259 493.4817436 69.99350609 493.48696589 63.17040946 493.49222394 C39.82275165 493.51011527 16.4750936 493.52511223 -6.87257004 493.53254414 C-8.33878206 493.5330189 -9.80499408 493.53349478 -11.2712061 493.5339718 C-12.36189044 493.53432636 -12.36189044 493.53432636 -13.47460881 493.53468809 C-17.15869103 493.53588931 -20.84277325 493.53710475 -24.52685547 493.53833008 C-25.25797806 493.53857023 -25.98910065 493.53881038 -26.74237848 493.53905781 C-50.45298427 493.54695267 -74.16354006 493.57038776 -97.87412402 493.60288602 C-122.93129853 493.63716737 -147.98844378 493.6568937 -173.04564214 493.66018838 C-175.79523167 493.66060593 -178.54482119 493.66108549 -181.29441071 493.66161156 C-182.30998 493.66179634 -182.30998 493.66179634 -183.34606585 493.66198487 C-194.25173981 493.66431899 -205.1573558 493.67999077 -216.06300909 493.7004534 C-227.02075271 493.7206879 -237.97843601 493.72586598 -248.9361963 493.71668277 C-254.87510635 493.71212321 -260.8138278 493.71412024 -266.75271225 493.73344421 C-272.18589627 493.75097058 -277.61875264 493.75016419 -283.05193964 493.73454692 C-285.02102194 493.73215477 -286.99012631 493.73657684 -288.95917472 493.74837557 C-291.62977488 493.76339114 -294.29919849 493.75389408 -296.96976852 493.73814869 C-297.73956401 493.7483709 -298.5093595 493.7585931 -299.30248213 493.76912507 C-304.46805647 493.70236324 -307.36907402 492.48780627 -311.35498047 489.24316406 C-314.97838931 485.13010538 -316.46973306 482.80739821 -316.54785156 477.36962891 C-316.56391449 476.3545224 -316.57997742 475.33941589 -316.5965271 474.29354858 C-316.64102442 469.63401944 -316.68206883 464.9746336 -316.70507812 460.31494141 C-316.72160798 457.86106869 -316.74885824 455.40724353 -316.78710938 452.95361328 C-316.84203886 449.41185571 -316.86378095 445.87122851 -316.87841797 442.32910156 C-316.90108734 441.23922943 -316.92375671 440.1493573 -316.94711304 439.02645874 C-316.92854801 432.29089721 -316.05862637 427.30218377 -311.35498047 422.24316406 C-302.92612332 416.41484398 -293.31515342 415.65242277 -283.35498047 416.24316406 C-281.68741658 416.57197948 -280.02074152 416.90533421 -278.35498047 417.24316406 C-269.37798242 418.0234191 -269.37798242 418.0234191 -261.17529297 414.84082031 C-258.68711572 412.65699092 -256.45376903 410.26192773 -254.16748047 407.86816406 C-247.87310428 401.29912419 -240.90856367 396.61589286 -231.66015625 395.67919922 C-230.44937912 395.55383286 -230.44937912 395.55383286 -229.21414185 395.42593384 C-228.60061859 395.36561981 -227.98709534 395.30530579 -227.35498047 395.24316406 C-227.35611963 394.66295364 -227.35725879 394.08274322 -227.35843247 393.48495066 C-227.42559819 359.08048354 -227.47705606 324.67602953 -227.50817646 290.27151076 C-227.51192848 286.13852659 -227.51581146 282.00554256 -227.51977539 277.87255859 C-227.52056232 277.04977202 -227.52134925 276.22698545 -227.52216003 275.37926595 C-227.53520626 262.06495643 -227.55885579 248.75068585 -227.58643886 235.43639942 C-227.61451484 221.76998359 -227.63116136 208.10358812 -227.63724595 194.43714464 C-227.64135785 186.00737745 -227.65433486 177.57772035 -227.67872987 169.14798705 C-227.69461414 163.36375101 -227.69937475 157.57957171 -227.6954846 151.79531546 C-227.6935672 148.46036962 -227.69811292 145.12577037 -227.71259689 141.79083252 C-227.72755696 138.16831485 -227.72392075 134.54626544 -227.71574402 130.92373657 C-227.72448254 129.87896326 -227.73322107 128.83418994 -227.7422244 127.75775683 C-227.6785582 117.29804118 -225.21076027 108.30333761 -218.35498047 100.24316406 C-211.68714462 94.03611361 -204.63440818 91.09975785 -195.54248047 90.30566406 C-185.48908729 89.23534083 -177.36802659 86.77199892 -170.35498047 79.24316406 C-165.68618806 73.09010005 -163.26541449 66.13042635 -160.66748047 58.93066406 C-149.19168973 28.25880908 -132.31029671 2.97948613 -101.76782227 -11.12451172 C-68.49541425 -25.70459819 -29.27714538 -21.05764882 0 0 Z " fill="#B6ADB7" transform="translate(316.35498046875,18.7568359375)"/>
<path d="M0 0 C6.07159245 2.478201 12.25564902 2.37676455 18.33203125 -0.0625 C20.36991851 -1.10782811 22.38601418 -2.1974102 24.37109375 -3.33984375 C32.19534661 -7.43934343 43.77710294 -6.86439095 52.3046875 -5.06640625 C60.33516316 -2.3251249 67.22935478 1.84948416 72.6875 8.375 C76.4982748 12.91660833 79.70082009 15.91576958 85.7734375 16.51953125 C89.4201086 16.57330254 92.86908129 16.50237871 96.4453125 15.74609375 C109.08562505 13.35009421 119.88409432 15.78316151 130.66015625 22.44140625 C133.2001974 24.35366487 135.03959734 26.36629376 137.0625 28.8125 C141.85047541 34.53872514 147.2930611 37.80277844 154.75 38.6875 C158.08929188 38.34087452 158.08929188 38.34087452 161.29296875 37.25 C172.46416288 34.28645005 184.01345051 35.54362275 194.0625 41.25 C197.67405485 43.99848058 200.85714729 47.04464729 204.0625 50.25 C205.52943621 51.59677762 207.00771632 52.93136388 208.5 54.25 C209.11746094 54.806875 209.73492187 55.36375 210.37109375 55.9375 C213.70056529 58.5211084 216.88738298 58.38510004 220.9375 58.375 C221.96617187 58.37757813 222.99484375 58.38015625 224.0546875 58.3828125 C226.85030654 58.25936958 229.33100957 57.81797658 232.0625 57.25 C241.88940667 56.36846867 252.21118115 57.4659713 260.1875 63.6875 C260.80625 64.533125 261.425 65.37875 262.0625 66.25 C262.587229 66.88752197 263.11195801 67.52504395 263.65258789 68.18188477 C265.85377443 72.97189537 265.51009022 77.69208 265.49609375 82.90234375 C265.5013356 84.03523331 265.50657745 85.16812286 265.51197815 86.33534241 C265.51839428 88.72835471 265.51706668 91.12139857 265.50854492 93.5144043 C265.50003842 97.17098296 265.52879896 100.82599761 265.56054688 104.48242188 C265.56215911 106.80989537 265.56158094 109.13737162 265.55859375 111.46484375 C265.56982773 112.55562729 265.58106171 113.64641083 265.59263611 114.77024841 C265.53632228 120.92024445 265.19585122 124.58395409 261.0625 129.25 C255.92608531 133.77493675 252.87450869 134.39696706 246.18065262 134.38422108 C244.9389328 134.38774942 244.9389328 134.38774942 243.67212772 134.39134905 C240.86809585 134.39806347 238.06411006 134.39758009 235.2600708 134.39717102 C233.24146794 134.40046812 231.22286575 134.40419336 229.2042644 134.4083125 C223.63359463 134.41835804 218.06293563 134.42205338 212.49225807 134.42470181 C206.49348108 134.42859729 200.49471268 134.43817611 194.49594116 134.44691467 C180.6830242 134.46576469 166.8701066 134.47593816 153.05718044 134.48437535 C146.23408306 134.48857954 139.41098656 134.49380183 132.58788993 134.49905988 C109.24023212 134.51695121 85.89257407 134.53194817 62.54491043 134.53938007 C61.07869841 134.53985483 59.61248639 134.54033072 58.14627437 134.54080774 C57.05559003 134.5411623 57.05559003 134.5411623 55.94287166 134.54152403 C52.25878944 134.54272525 48.57470722 134.54394069 44.890625 134.54516602 C44.15950241 134.54540617 43.42837981 134.54564632 42.67510199 134.54589374 C18.9644962 134.5537886 -4.74605959 134.5772237 -28.45664355 134.60972196 C-53.51381806 134.64400331 -78.57096331 134.66372963 -103.62816167 134.66702431 C-106.3777512 134.66744187 -109.12734072 134.66792143 -111.87693024 134.66844749 C-112.89249953 134.66863228 -112.89249953 134.66863228 -113.92858538 134.6688208 C-124.83425934 134.67115493 -135.73987533 134.68682671 -146.64552862 134.70728934 C-157.60327224 134.72752384 -168.56095554 134.73270192 -179.51871583 134.72351871 C-185.45762588 134.71895915 -191.39634733 134.72095618 -197.33523178 134.74028015 C-202.7684158 134.75780651 -208.20127217 134.75700013 -213.63445917 134.74138286 C-215.60354147 134.73899071 -217.57264585 134.74341278 -219.54169425 134.75521151 C-222.21229441 134.77022708 -224.88171802 134.76073002 -227.55228806 134.74498463 C-228.32208354 134.75520683 -229.09187903 134.76542904 -229.88500166 134.77596101 C-235.050576 134.70919918 -237.95159355 133.49464221 -241.9375 130.25 C-245.56090884 126.13694131 -247.0522526 123.81423415 -247.13037109 118.37646484 C-247.14643402 117.36135834 -247.16249695 116.34625183 -247.17904663 115.30038452 C-247.22354395 110.64085537 -247.26458837 105.98146954 -247.28759766 101.32177734 C-247.30412751 98.86790463 -247.33137778 96.41407947 -247.36962891 93.96044922 C-247.42455839 90.41869164 -247.44630048 86.87806445 -247.4609375 83.3359375 C-247.48360687 82.24606537 -247.50627625 81.15619324 -247.52963257 80.03329468 C-247.51106754 73.29773315 -246.6411459 68.3090197 -241.9375 63.25 C-233.50864285 57.42167992 -223.89767295 56.65925871 -213.9375 57.25 C-212.26993611 57.57881541 -210.60326105 57.91217015 -208.9375 58.25 C-199.96050195 59.03025504 -199.96050195 59.03025504 -191.7578125 55.84765625 C-188.76697613 53.2226518 -186.09143475 50.28596462 -183.35107422 47.40356445 C-176.98831904 40.94624834 -168.63237805 36.52922435 -159.51171875 36.08203125 C-158.22910156 36.07558594 -156.94648438 36.06914062 -155.625 36.0625 C-153.71267578 36.04123047 -153.71267578 36.04123047 -151.76171875 36.01953125 C-147.86638872 36.25428556 -144.65035623 37.09251484 -140.9375 38.25 C-133.85098562 39.06320657 -128.83045192 37.26924563 -122.9375 33.25 C-121.07413134 31.35893796 -119.43784571 29.3754293 -117.7734375 27.30859375 C-112.42785094 21.31471265 -104.92875746 16.51238705 -96.9375 15.25 C-89.85446726 14.8783161 -82.90046621 14.73529066 -75.9375 16.25 C-69.11148927 16.92926045 -63.51293827 16.49095203 -57.9375 12.25 C-55.8645852 10.06950879 -53.93601808 7.79916957 -51.99609375 5.5 C-38.84122654 -8.87799528 -16.0795352 -9.57929756 0 0 Z " fill="#C68F78" transform="translate(246.9375,377.75)"/>
<path d="M0 0 C19.30537697 15.41414599 30.65988066 36.21020917 38.98046875 59.08178711 C43.20964085 70.66846288 47.19999025 80.50803285 59 86 C63.57170062 87.78612281 67.74656221 88.34586906 72.625 88.75 C82.11337683 89.77204405 90.30115076 92.71710155 97 99.8125 C102.37644697 106.65763492 105.12699505 114.22991419 105.12304783 122.92563343 C105.12503888 123.89700585 105.12702993 124.86837827 105.12908131 125.86918622 C105.12616847 126.92852374 105.12325563 127.98786127 105.12025452 129.07929993 C105.12153615 130.77629879 105.12153615 130.77629879 105.12284368 132.50758046 C105.12449349 136.30625779 105.11898521 140.10489117 105.11352539 143.90356445 C105.11268679 146.62347949 105.11335746 149.34339367 105.1139679 152.06330872 C105.11449216 157.92311879 105.11135554 163.78291772 105.10573006 169.64272499 C105.09760186 178.11501444 105.09499848 186.58729851 105.09374207 195.05959143 C105.09155363 208.80543706 105.08489916 222.55127674 105.07543945 236.29711914 C105.06625997 249.6496579 105.05918175 263.00219505 105.05493164 276.35473633 C105.05466892 277.17783349 105.05440619 278.00093065 105.05413551 278.84897015 C105.05283047 282.97822064 105.05156676 287.10747113 105.05032361 291.23672163 C105.03995746 325.49115203 105.02234479 359.74557537 105 394 C103.95199219 394.13277344 102.90398437 394.26554687 101.82421875 394.40234375 C100.44529222 394.58057235 99.06638707 394.75896641 97.6875 394.9375 C96.99720703 395.02451172 96.30691406 395.11152344 95.59570312 395.20117188 C92.59857712 395.59210135 89.87549881 396.0415004 87 397 C80.45141926 397.80186703 75.27307079 395.76647913 70 392 C65.78418904 388.24244584 62.64380227 384.91149118 62.13422108 379.12244797 C62.1029497 377.27319585 62.10961543 375.42304874 62.14717102 373.57391357 C62.13992876 372.54901235 62.13268649 371.52411112 62.12522477 370.46815228 C62.10939679 367.04662247 62.14328947 363.62742764 62.17700195 360.20605469 C62.17566191 357.74833831 62.17118809 355.29062195 62.16381836 352.83291626 C62.15457844 347.54748567 62.1663833 342.26274332 62.19695473 336.97743988 C62.24079199 329.33161494 62.24206435 321.68623105 62.23234489 314.04030791 C62.21734459 301.62835091 62.23054801 289.21660213 62.2644043 276.8046875 C62.26642143 276.06260706 62.26843857 275.32052662 62.27051684 274.5559589 C62.27460915 273.05398238 62.27870304 271.55200586 62.28279851 270.05002935 C62.28583876 268.93296563 62.28583876 268.93296563 62.28894043 267.79333496 C62.29199064 266.67524384 62.29199064 266.67524384 62.29510247 265.53456502 C62.31726406 257.24766207 62.33213427 248.96075099 62.34448242 240.67382812 C62.3455961 239.93144263 62.34670979 239.18905714 62.34785721 238.42417511 C62.36580155 226.05251944 62.36774667 213.68089543 62.36069459 201.30923009 C62.35731972 193.68034797 62.36991057 186.05179022 62.40309598 178.42297772 C62.42770426 172.58412125 62.4328013 166.7453563 62.4307785 160.90644455 C62.43344443 158.50861437 62.44304931 156.1107807 62.45998955 153.71300888 C62.482202 150.44777225 62.48009138 147.18343241 62.47187805 143.91815186 C62.49068094 142.48470873 62.49068094 142.48470873 62.50986367 141.02230716 C62.51498108 135.86676097 62.51498108 135.86676097 60.12163067 131.42576981 C57.62930286 129.75088558 55.77036711 129.30061065 52.8125 128.8125 C35.01868859 124.73294324 19.95163704 112.88821448 9.76953125 97.96875 C5.05708112 90.06265264 1.53322862 81.75683242 -1.4375 73.0625 C-8.01551924 54.0593333 -17.63883191 37.40075925 -35.875 27.6875 C-50.46657992 20.87438317 -66.71293741 19.4808289 -82 25 C-101.64837518 33.06538163 -111.79315483 46.89160819 -119.87109375 65.81640625 C-121.90117484 70.69755038 -123.80754551 75.62198379 -125.6875 80.5625 C-129.59648246 90.82663112 -133.9552092 100.26547661 -142 108 C-142.33 108 -142.66 108 -143 108 C-143.27917459 96.62099786 -143.49182313 85.24282204 -143.62174606 73.86108112 C-143.68413473 68.57468748 -143.76861268 63.2906518 -143.90527344 58.00561523 C-144.03655609 52.89604573 -144.1075907 47.78872974 -144.13852692 42.67760277 C-144.16054384 40.73701711 -144.20354103 38.79654223 -144.26876068 36.85692787 C-144.80921787 20.10337932 -144.80921787 20.10337932 -138.88713455 13.18116283 C-136.39328252 10.60734962 -133.75906132 8.28281766 -131 6 C-130.03995056 5.13631302 -129.07990112 4.27262604 -128.09075928 3.38276672 C-92.59309645 -28.22082033 -37.26799608 -28.16394124 0 0 Z " fill="#CBC5CD" transform="translate(318,20)"/>
<path d="M0 0 C6.07159245 2.478201 12.25564902 2.37676455 18.33203125 -0.0625 C20.36991851 -1.10782811 22.38601418 -2.1974102 24.37109375 -3.33984375 C32.19534661 -7.43934343 43.77710294 -6.86439095 52.3046875 -5.06640625 C61.39339957 -1.96388556 68.50041494 3.00367844 74.5546875 10.41796875 C75.9719652 12.13999787 77.4604602 13.70072199 79.0625 15.25 C78.30066406 15.46914063 77.53882813 15.68828125 76.75390625 15.9140625 C64.07859908 19.80685347 55.0966895 26.06944207 48.0625 37.5 C44.93638798 41.79840403 41.09364158 44.75250299 35.75390625 45.62890625 C32.26937075 45.71704796 29.5457915 45.42183698 26.25 44.25 C17.91388168 41.63474719 8.458006 42.69103815 0.6328125 46.40234375 C-7.48767091 50.85750258 -12.72419316 57.08728028 -18 64.5625 C-20.93631586 68.51705443 -23.33871849 70.37930922 -27.9375 72.25 C-32.32037913 72.85721949 -36.01798571 72.52758922 -40.25 71.25 C-50.50850532 68.46803245 -59.99136086 70.27367706 -69.12109375 75.5 C-75.73990951 80.04156559 -80.17657948 86.56517066 -84.93359375 92.9140625 C-88.63544564 97.22928166 -92.96016263 99.04544786 -98.5625 99.625 C-101.9375 99.25 -101.9375 99.25 -104.671875 98.2578125 C-113.15224016 95.64066631 -122.57075502 96.07718444 -130.625 99.75 C-136.24566959 102.97272088 -139.66594776 106.83012203 -141.46582031 113.08642578 C-141.96018286 115.35404529 -142.14430304 117.47954994 -142.25390625 119.796875 C-142.29580078 120.64121094 -142.33769531 121.48554688 -142.38085938 122.35546875 C-142.42017578 123.22816406 -142.45949219 124.10085938 -142.5 125 C-142.56477539 126.33224609 -142.56477539 126.33224609 -142.63085938 127.69140625 C-142.73663615 129.87745963 -142.83872546 132.06362089 -142.9375 134.25 C-154.95950339 134.34271225 -166.98142161 134.41377146 -179.00370979 134.45724869 C-184.58626058 134.47811644 -190.16856663 134.50641969 -195.75097656 134.55175781 C-201.13911212 134.59524388 -206.52701239 134.61914322 -211.91530991 134.62950897 C-213.97021056 134.63689533 -216.02509845 134.65131919 -218.07989883 134.67292023 C-220.95996094 134.70199056 -223.83905288 134.70595444 -226.71923828 134.70410156 C-227.56728531 134.71848267 -228.41533234 134.73286377 -229.28907776 134.74768066 C-234.65746297 134.71035107 -237.66957581 133.7988869 -241.9375 130.25 C-245.56090884 126.13694131 -247.0522526 123.81423415 -247.13037109 118.37646484 C-247.14643402 117.36135834 -247.16249695 116.34625183 -247.17904663 115.30038452 C-247.22354395 110.64085537 -247.26458837 105.98146954 -247.28759766 101.32177734 C-247.30412751 98.86790463 -247.33137778 96.41407947 -247.36962891 93.96044922 C-247.42455839 90.41869164 -247.44630048 86.87806445 -247.4609375 83.3359375 C-247.48360687 82.24606537 -247.50627625 81.15619324 -247.52963257 80.03329468 C-247.51106754 73.29773315 -246.6411459 68.3090197 -241.9375 63.25 C-233.50864285 57.42167992 -223.89767295 56.65925871 -213.9375 57.25 C-212.26993611 57.57881541 -210.60326105 57.91217015 -208.9375 58.25 C-199.96050195 59.03025504 -199.96050195 59.03025504 -191.7578125 55.84765625 C-188.76697613 53.2226518 -186.09143475 50.28596462 -183.35107422 47.40356445 C-176.98831904 40.94624834 -168.63237805 36.52922435 -159.51171875 36.08203125 C-158.22910156 36.07558594 -156.94648438 36.06914062 -155.625 36.0625 C-153.71267578 36.04123047 -153.71267578 36.04123047 -151.76171875 36.01953125 C-147.86638872 36.25428556 -144.65035623 37.09251484 -140.9375 38.25 C-133.85098562 39.06320657 -128.83045192 37.26924563 -122.9375 33.25 C-121.07413134 31.35893796 -119.43784571 29.3754293 -117.7734375 27.30859375 C-112.42785094 21.31471265 -104.92875746 16.51238705 -96.9375 15.25 C-89.85446726 14.8783161 -82.90046621 14.73529066 -75.9375 16.25 C-69.11148927 16.92926045 -63.51293827 16.49095203 -57.9375 12.25 C-55.8645852 10.06950879 -53.93601808 7.79916957 -51.99609375 5.5 C-38.84122654 -8.87799528 -16.0795352 -9.57929756 0 0 Z " fill="#BC7B62" transform="translate(246.9375,377.75)"/>
<path d="M0 0 C0.33 0 0.66 0 1 0 C1.45645705 11.28195086 1.83513427 22.56363904 2.11652184 33.85139179 C2.24961521 39.09391551 2.40872206 44.33286378 2.62890625 49.57250977 C2.84070642 54.63606164 2.98204292 59.69727559 3.0760994 64.76433372 C3.12395098 66.69025346 3.19654768 68.61573263 3.29502487 70.53972816 C4.02102817 85.18445633 4.02102817 85.18445633 0.64025307 89.89429665 C-3.09495856 93.72024443 -7.35816869 96.39747176 -12 99 C-13.21891182 99.7159584 -13.21891182 99.7159584 -14.46244812 100.44638062 C-16.47265625 101.53515625 -16.47265625 101.53515625 -20.0625 103.0625 C-21.27035156 103.58972656 -22.47820312 104.11695313 -23.72265625 104.66015625 C-24.80417969 105.10230469 -25.88570312 105.54445313 -27 106 C-27.88171875 106.37125 -28.7634375 106.7425 -29.671875 107.125 C-31.84796895 107.94286081 -33.91379946 108.47572329 -36.1875 108.9375 C-40.21296869 109.61247729 -40.21296869 109.61247729 -42 113 C-42.2948305 115.01392296 -42.2948305 115.01392296 -42.24215984 117.25113964 C-42.24530844 118.12302809 -42.24845704 118.99491654 -42.25170106 119.89322585 C-42.24499148 120.85176744 -42.23828191 121.81030903 -42.23136902 122.79789734 C-42.23264918 124.3246076 -42.23264918 124.3246076 -42.2339552 125.88216048 C-42.23457152 129.30912906 -42.22102857 132.73590092 -42.20776367 136.1628418 C-42.2056034 138.61332637 -42.20441596 141.06381197 -42.20413208 143.51429749 C-42.20207318 148.80010337 -42.19442909 154.08585884 -42.1826992 159.37164879 C-42.16483115 167.72913626 -42.16872254 176.08654838 -42.17634583 184.44404602 C-42.17870112 187.3035497 -42.18094086 190.16305347 -42.18316364 193.02255726 C-42.18372818 193.73721504 -42.18429271 194.45187283 -42.18487435 195.18818691 C-42.19106898 203.32492039 -42.19341597 211.46165294 -42.19360352 219.59838867 C-42.19362695 220.34224738 -42.19365039 221.08610608 -42.19367454 221.85250596 C-42.19342424 233.9005541 -42.17432062 245.94851596 -42.15000685 257.99653616 C-42.12567586 270.36811037 -42.12812455 282.7394925 -42.15368825 295.11106426 C-42.16847789 302.74047552 -42.16147904 310.36924122 -42.12638716 317.99858896 C-42.10156095 323.84908549 -42.11325023 329.69915114 -42.13843155 335.54965782 C-42.14293137 337.94740626 -42.13545797 340.34521171 -42.11510277 342.74287796 C-42.08903957 346.01864287 -42.10607466 349.29149553 -42.13371277 352.56718445 C-42.11584959 353.51457243 -42.09798641 354.46196041 -42.07958192 355.43805712 C-42.19510762 361.75360112 -43.83670968 364.91754808 -48.24629098 369.4336732 C-52.7342246 373.44207518 -58.09318358 376.23671826 -64.1875 376.4375 C-68.00108044 375.99987601 -71.32218541 375.07798014 -75 374 C-76.73844682 373.77939594 -78.48135955 373.59211873 -80.2265625 373.43359375 C-81.12197754 373.35036865 -82.01739258 373.26714355 -82.93994141 373.18139648 C-83.61976074 373.12153564 -84.29958008 373.0616748 -85 373 C-85.06869897 338.0094621 -85.12154546 303.01893787 -85.15319599 268.0283467 C-85.15694801 263.89536253 -85.16083099 259.7623785 -85.16479492 255.62939453 C-85.16558185 254.80660796 -85.16636878 253.98382139 -85.16717956 253.13610189 C-85.18022579 239.82179236 -85.20387532 226.50752179 -85.23145839 213.19323535 C-85.25953437 199.52681952 -85.2761809 185.86042406 -85.28226548 172.19398057 C-85.28637738 163.76421338 -85.29935439 155.33455629 -85.3237494 146.90482299 C-85.33963367 141.12058695 -85.34439428 135.33640765 -85.34050413 129.5521514 C-85.33858673 126.21720556 -85.34313246 122.88260631 -85.35761642 119.54766846 C-85.37257649 115.92515079 -85.36894028 112.30310137 -85.36076355 108.68057251 C-85.36950207 107.63579919 -85.3782406 106.59102588 -85.38724393 105.51459277 C-85.32357773 95.05487711 -82.8557798 86.06017355 -76 78 C-69.33216415 71.79294955 -62.27942771 68.85659378 -53.1875 68.0625 C-43.13410682 66.99217677 -35.01304612 64.52883486 -28 57 C-23.33159522 50.84744685 -20.90853451 43.88749313 -18.3125 36.6875 C-8.25780036 9.64672702 -8.25780036 9.64672702 0 0 Z " fill="#B6ADB7" transform="translate(174,41)"/>
<path d="M0 0 C0 87.78 0 175.56 0 266 C-2.97 265.67 -5.94 265.34 -9 265 C-21.09225085 264.2845516 -29.22217242 265.74139941 -39.78515625 271.64453125 C-40.57929932 272.08772705 -41.37344238 272.53092285 -42.19165039 272.98754883 C-42.78840576 273.32165771 -43.38516113 273.6557666 -44 274 C-44.11403185 242.36401346 -44.20253219 210.72808533 -44.25532665 179.09194135 C-44.26158028 175.35808751 -44.26805188 171.62423409 -44.2746582 167.89038086 C-44.27596976 167.14702933 -44.27728131 166.40367781 -44.2786326 165.63780048 C-44.30039671 153.59720946 -44.33982372 141.55673765 -44.38576398 129.51621739 C-44.43250076 117.16403513 -44.46028949 104.81191536 -44.47044247 92.45964831 C-44.47730745 84.83589119 -44.49899923 77.21247099 -44.53958233 69.58881756 C-44.56910511 63.74567877 -44.57228116 57.90271346 -44.56553841 52.05949783 C-44.56691701 49.66047908 -44.57690312 47.26144788 -44.59602737 44.86250496 C-44.62082196 41.59262122 -44.61495372 38.3241913 -44.60127258 35.05427551 C-44.61583679 34.09999359 -44.630401 33.14571168 -44.64540654 32.16251212 C-44.59412748 27.64346735 -44.48008761 25.63582966 -41.68507671 21.93410778 C-38.92054173 19.94276482 -36.67449994 19.25159321 -33.36328125 18.578125 C-21.75769705 15.739073 -11.17388232 9.38698919 -2.49609375 1.3203125 C-1 0 -1 0 0 0 Z " fill="#A79CA8" transform="translate(175,129)"/>
<path d="M0 0 C3.85421701 1.19130344 5.09356978 1.81793388 7.4375 5.0625 C7.98842666 8.11419202 7.90285053 11.11094601 7.828125 14.203125 C7.82246521 15.08530701 7.81680542 15.96748901 7.81097412 16.87640381 C7.78861591 19.68899213 7.73842132 22.50029795 7.6875 25.3125 C7.66743425 27.22133574 7.64918361 29.13019149 7.6328125 31.0390625 C7.588753 35.71403445 7.51972984 40.38804992 7.4375 45.0625 C8.23446289 45.04155273 9.03142578 45.02060547 9.85253906 44.99902344 C13.46406434 44.91586678 17.07538824 44.86383966 20.6875 44.8125 C22.56888672 44.76222656 22.56888672 44.76222656 24.48828125 44.7109375 C26.29619141 44.69160156 26.29619141 44.69160156 28.140625 44.671875 C29.80593262 44.6404541 29.80593262 44.6404541 31.50488281 44.60839844 C35.12222231 45.16852593 36.27062539 46.15912061 38.4375 49.0625 C38.99155168 52.94086179 39.18188111 55.06510921 36.79980469 58.25683594 C33.72907031 60.60399918 31.97525411 60.52547649 28.140625 60.453125 C26.93535156 60.44023437 25.73007812 60.42734375 24.48828125 60.4140625 C23.23402344 60.38054687 21.97976563 60.34703125 20.6875 60.3125 C19.41777344 60.29445312 18.14804687 60.27640625 16.83984375 60.2578125 C13.70496923 60.21067153 10.5716144 60.14487664 7.4375 60.0625 C7.45415459 61.30491707 7.45415459 61.30491707 7.47114563 62.57243347 C7.57140576 70.3850575 7.64749417 78.19746492 7.69656086 86.01058483 C7.72263507 90.02727428 7.75799178 94.04343138 7.81469727 98.05981445 C7.86909709 101.93723581 7.89893691 105.81414575 7.91188622 109.69191933 C7.92111202 111.16993574 7.93912858 112.64792471 7.96615028 114.12572289 C8.00255088 116.19925374 8.00744139 118.27068254 8.00512695 120.34448242 C8.02178154 122.11319954 8.02178154 122.11319954 8.03877258 123.91764832 C7.25539431 128.01497212 5.65781699 129.49772091 2.4375 132.0625 C-0.625 132.625 -0.625 132.625 -3.5625 132.0625 C-5.86525556 130.1954009 -7.24073871 128.70602259 -8.5625 126.0625 C-8.65417789 123.96894981 -8.68000933 121.87240823 -8.67602539 119.77685547 C-8.67617142 119.13282776 -8.67631744 118.48880005 -8.6764679 117.82525635 C-8.6757704 115.69336598 -8.66798566 113.56156263 -8.66015625 111.4296875 C-8.65829149 109.95281014 -8.65686786 108.47593216 -8.65586853 106.99905396 C-8.65204792 103.10937801 -8.64222152 99.21973933 -8.63116455 95.33007812 C-8.62094064 91.36198429 -8.61636881 87.39388445 -8.61132812 83.42578125 C-8.60059885 75.63800384 -8.58352789 67.85025714 -8.5625 60.0625 C-9.35946289 60.08344727 -10.15642578 60.10439453 -10.97753906 60.12597656 C-14.58906434 60.20913322 -18.20038824 60.26116034 -21.8125 60.3125 C-23.69388672 60.36277344 -23.69388672 60.36277344 -25.61328125 60.4140625 C-27.42119141 60.43339844 -27.42119141 60.43339844 -29.265625 60.453125 C-30.93093262 60.4845459 -30.93093262 60.4845459 -32.62988281 60.51660156 C-36.24722231 59.95647407 -37.39562539 58.96587939 -39.5625 56.0625 C-40.11655168 52.18413821 -40.30688111 50.05989079 -37.92480469 46.86816406 C-34.85407031 44.52100082 -33.10025411 44.59952351 -29.265625 44.671875 C-27.45771484 44.69121094 -27.45771484 44.69121094 -25.61328125 44.7109375 C-24.35902344 44.74445313 -23.10476562 44.77796875 -21.8125 44.8125 C-20.54277344 44.83054688 -19.27304688 44.84859375 -17.96484375 44.8671875 C-14.82996923 44.91432847 -11.6966144 44.98012336 -8.5625 45.0625 C-8.58868408 43.87696533 -8.61486816 42.69143066 -8.6418457 41.4699707 C-8.73249021 37.06261134 -8.78980088 32.655334 -8.8371582 28.24731445 C-8.86226999 26.34124893 -8.89636645 24.43527941 -8.93969727 22.52954102 C-9.00049744 19.78638002 -9.02874245 17.04449414 -9.05078125 14.30078125 C-9.07658768 13.45163651 -9.1023941 12.60249176 -9.12898254 11.72761536 C-9.13104269 7.36106601 -8.9589834 5.59051539 -6.25463867 1.98901367 C-3.5625 0.0625 -3.5625 0.0625 0 0 Z " fill="#7C6D7A" transform="translate(256.5625,93.9375)"/>
<path d="M0 0 C1.0163855 -0.0112793 2.032771 -0.02255859 3.07995605 -0.03417969 C4.18915909 -0.02608276 5.29836212 -0.01798584 6.44117737 -0.00964355 C8.20027939 -0.02015747 8.20027939 -0.02015747 9.99491882 -0.03088379 C13.2079482 -0.045471 16.42031828 -0.04205386 19.63333774 -0.02936745 C22.99825842 -0.01923207 26.36313542 -0.02863482 29.72805786 -0.03491211 C35.3797444 -0.042188 41.03122181 -0.03260359 46.68287659 -0.0135498 C53.21205117 0.00820858 59.74072592 0.00117533 66.26988834 -0.02085543 C71.87938598 -0.03902386 77.48873336 -0.04156047 83.09825093 -0.03110075 C86.44688515 -0.02487228 89.79528469 -0.02401182 93.14390373 -0.0372467 C96.87875613 -0.04739508 100.61264668 -0.03193253 104.34742737 -0.00964355 C106.00819557 -0.02178894 106.00819557 -0.02178894 107.70251465 -0.03417969 C115.15028888 0.04824301 115.15028888 0.04824301 119.14956665 2.3215332 C120.95899963 4.50793457 120.95899963 4.50793457 121.52149963 8.00793457 C120.86853716 12.07081221 120.11964952 12.99764134 116.95899963 15.50793457 C114.57266235 16.01129913 114.57266235 16.01129913 111.87330627 16.01586914 C110.33393906 16.03278809 110.33393906 16.03278809 108.76347351 16.05004883 C107.64334869 16.0419519 106.52322388 16.03385498 105.36915588 16.0255127 C104.18506134 16.03252197 103.0009668 16.03953125 101.7809906 16.04675293 C98.53703974 16.06133991 95.2937419 16.05792366 92.04980087 16.04523659 C88.65371588 16.0351034 85.25767424 16.04450314 81.86158752 16.05078125 C76.15862709 16.05805678 70.45587391 16.04847264 64.75294495 16.02941895 C58.16126808 16.00765011 51.57008609 16.01470157 44.97842121 16.03672457 C39.31713534 16.05488147 33.65599838 16.05743556 27.9946928 16.04696989 C24.61423316 16.04073644 21.23400607 16.03989491 17.8535614 16.05311584 C14.08497956 16.06325122 10.31735384 16.04782049 6.54884338 16.0255127 C5.42871857 16.03360962 4.30859375 16.04170654 3.15452576 16.05004883 C2.12828094 16.03876953 1.10203613 16.02749023 0.04469299 16.01586914 C-1.29148827 16.01360699 -1.29148827 16.01360699 -2.65466309 16.01129913 C-5.84894954 15.33750896 -7.05035447 14.04882726 -9.04100037 11.50793457 C-9.54100037 8.00793457 -9.54100037 8.00793457 -9.04100037 4.50793457 C-6.25843264 0.96200088 -4.4728255 0.00764694 0 0 Z " fill="#7B6C79" transform="translate(200.04100036621094,326.4920654296875)"/>
<path d="M0 0 C1.02624481 -0.0112793 2.05248962 -0.02255859 3.10983276 -0.03417969 C4.22995758 -0.02608276 5.3500824 -0.01798584 6.50415039 -0.00964355 C8.28029221 -0.02015747 8.28029221 -0.02015747 10.09231567 -0.03088379 C13.33626653 -0.04547077 16.57956437 -0.04205452 19.8235054 -0.02936745 C23.21959039 -0.01923426 26.61563203 -0.028634 30.01171875 -0.03491211 C35.71467919 -0.04218764 41.41743236 -0.0326035 47.12036133 -0.0135498 C53.7120382 0.00821903 60.30322018 0.00116757 66.89488506 -0.02085543 C72.55617093 -0.03901233 78.21730789 -0.04156642 83.87861347 -0.03110075 C87.25907312 -0.0248673 90.63930021 -0.02402577 94.01974487 -0.0372467 C97.78832671 -0.04738208 101.55595244 -0.03195135 105.32446289 -0.00964355 C106.44458771 -0.01774048 107.56471252 -0.0258374 108.71878052 -0.03417969 C110.25814774 -0.01726074 110.25814774 -0.01726074 111.82861328 0 C113.16479454 0.00226215 113.16479454 0.00226215 114.52796936 0.00457001 C117.72198266 0.67830256 118.92110269 1.96956379 120.91430664 4.50793457 C121.47680664 8.00793457 121.47680664 8.00793457 120.91430664 11.50793457 C118.73667314 14.13924554 116.93554503 15.35062523 113.53362846 15.87464905 C110.4499639 16.03088429 107.39034169 16.04809272 104.30273438 16.0255127 C103.12824738 16.03252197 101.95376038 16.03953125 100.74368286 16.04675293 C97.53077916 16.06132303 94.31853658 16.05793503 91.10564303 16.04523659 C87.7402604 16.03509218 84.37492115 16.04450603 81.00953674 16.05078125 C75.35963031 16.05805251 69.70993323 16.0484828 64.06005859 16.02941895 C57.53027539 16.00764039 51.00099159 16.01471033 44.47122043 16.03672457 C38.86086901 16.05488106 33.25066783 16.05743608 27.64029652 16.04696989 C24.29115014 16.04073757 20.94223847 16.03989201 17.59310722 16.05311584 C13.8605538 16.06325109 10.12896572 16.04782123 6.39648438 16.0255127 C5.28728134 16.03360962 4.17807831 16.04170654 3.03526306 16.05004883 C2.01887756 16.03876953 1.00249207 16.02749023 -0.04469299 16.01586914 C-0.92680734 16.01436104 -1.80892168 16.01285294 -2.71776676 16.01129913 C-5.8983055 15.33519266 -7.10118883 14.03686546 -9.08569336 11.50793457 C-9.58569336 8.00793457 -9.58569336 8.00793457 -9.08569336 4.50793457 C-6.29170881 0.94164739 -4.49298787 0.00760662 0 0 Z " fill="#7B6C79" transform="translate(200.085693359375,292.4920654296875)"/>
<path d="M0 0 C1.24809448 -0.00615326 2.49618896 -0.01230652 3.78210449 -0.01864624 C5.14055112 -0.00484935 6.49899042 0.0096847 7.85742188 0.02490234 C9.25459625 0.02728797 10.65177388 0.02819184 12.0489502 0.02767944 C14.97440736 0.0308045 17.89937341 0.04734576 20.82470703 0.07421875 C24.5707241 0.10819854 28.3162019 0.11584713 32.06235504 0.11432838 C34.94660572 0.11487279 37.83073899 0.12585112 40.71495056 0.14033127 C42.09601453 0.14668629 43.47709177 0.15063513 44.85816956 0.15211868 C46.78960973 0.15646528 48.72099961 0.1755677 50.65234375 0.1953125 C51.75058472 0.2029361 52.84882568 0.21055969 53.98034668 0.21841431 C56.81004114 0.48432402 58.46898807 0.92972955 60.82617188 2.48583984 C62.38077492 5.59504594 62.55337881 9.11667012 61.82617188 12.48583984 C58.55974892 15.6803815 56.03304585 15.86445819 51.56054688 15.87402344 C49.65837402 15.88820816 49.65837402 15.88820816 47.71777344 15.90267944 C46.3372364 15.89730958 44.95670222 15.89115659 43.57617188 15.88427734 C42.156574 15.88629906 40.73697714 15.88921131 39.31738281 15.89297485 C36.34495131 15.89739366 33.37279061 15.89098175 30.40039062 15.87695312 C26.59375451 15.85986111 22.78775298 15.86970472 18.98114014 15.88767052 C16.05057001 15.89852056 13.12014988 15.8950565 10.1895752 15.88728714 C8.78617274 15.88528849 7.38275658 15.88773266 5.97937012 15.8947258 C4.01684842 15.90235941 2.05427886 15.88865789 0.09179688 15.87402344 C-1.02420898 15.87163666 -2.14021484 15.86924988 -3.29003906 15.86679077 C-6.53109387 15.43864474 -7.92734505 14.84492303 -10.17382812 12.48583984 C-10.85724521 7.1039303 -10.85724521 7.1039303 -10.17382812 4.48583984 C-7.05269673 0.51307554 -4.97278712 -0.01290484 0 0 Z " fill="#7B6C79" transform="translate(230.173828125,257.51416015625)"/>
</svg>
