<?xml version="1.0" encoding="UTF-8"?>
<svg version="1.1" xmlns="http://www.w3.org/2000/svg" width="440" height="464">
<path d="M0 0 C145.2 0 290.4 0 440 0 C440 153.12 440 306.24 440 464 C294.8 464 149.6 464 0 464 C0 310.88 0 157.76 0 0 Z " fill="#FCFCFD" transform="translate(0,0)"/>
<path d="M0 0 C145.2 0 290.4 0 440 0 C440 153.12 440 306.24 440 464 C294.8 464 149.6 464 0 464 C0 310.88 0 157.76 0 0 Z M86 10 C85.56768066 10.96075439 85.13536133 11.92150879 84.68994141 12.91137695 C51.22820026 87.16728317 51.22820026 87.16728317 27 113 C27.804375 114.010625 28.60875 115.02125 29.4375 116.0625 C44.9893648 136.84745675 53.58502456 158.7625059 50.25 185 C49.09044101 192.20525963 47.26098938 199.06629924 45 206 C44.78811035 206.65967773 44.5762207 207.31935547 44.35791016 207.99902344 C40.38401367 220.15681413 34.96149537 231.54572043 29.34643555 243.0090332 C21.23307923 259.57930463 13.46270507 276.04033325 9 294 C8.68289062 295.13179688 8.36578125 296.26359375 8.0390625 297.4296875 C1.70917107 323.0396152 5.4904812 353.05843213 19.08007812 375.80810547 C21.52680438 379.68988987 24.20270483 383.3609962 27 387 C27.54011719 387.72445313 28.08023437 388.44890625 28.63671875 389.1953125 C37.13833345 399.77414792 49.44709616 407.22959501 61 414 C61.95132813 414.60585938 62.90265625 415.21171875 63.8828125 415.8359375 C84.38758023 428.6304656 109.44014213 432.39474405 133.24581718 432.15213394 C135.50732511 432.13216134 137.76821201 432.13052541 140.02980042 432.13400269 C146.44765538 432.14354414 152.86488263 432.14433938 159.2824707 432.07910156 C196.10269492 431.73306158 196.10269492 431.73306158 210.8125 445.1875 C213.25515406 447.92133137 215.35263087 450.70526174 217 454 C220.25603819 452.60859106 221.99424558 451.06896049 224.1875 448.3125 C231.16364167 440.13408711 239.5136418 433.77946874 250.48149109 432.63751221 C253.82737954 432.5320868 257.15657079 432.48719047 260.50321007 432.5141449 C262.75807042 432.53170841 265.01168122 432.52373414 267.26655579 432.5098877 C272.87467459 432.48052235 278.48254258 432.49324398 284.09069824 432.50506592 C303.45851686 432.53920775 322.00717152 432.35651024 341 428 C342.45226055 427.68510013 343.90464599 427.37077545 345.35717773 427.05712891 C354.35890679 425.02782674 362.15173288 421.31646456 370.21191406 416.9609375 C371.7824172 416.11693144 373.3704583 415.30573089 374.9609375 414.5 C401.02613836 401.0469931 418.43069445 380.91777367 427.4375 353 C439.18157961 313.05878238 423.9207249 276.49666381 406.578125 241.0390625 C397.89908482 223.22468879 389.43905898 204.82031421 387 185 C386.82210938 183.85917969 386.64421875 182.71835938 386.4609375 181.54296875 C383.74716151 160.68369055 389.94764309 140.72824075 402.25 123.8125 C403.49516157 122.20457483 404.74453081 120.59988994 406 119 C407.37457045 117.02308969 408.68962062 115.02016821 410 113 C409.1646875 112.12601563 409.1646875 112.12601563 408.3125 111.234375 C402.42303197 104.90717624 397.59737923 98.30770541 393 91 C392.11634766 89.62714844 392.11634766 89.62714844 391.21484375 88.2265625 C375.53924368 63.398542 362.38856024 37.04265395 351 10 C346.98521165 10.53365038 343.35937217 11.491719 339.55224609 12.86547852 C326.01113794 17.72883426 312.09462787 21.18618436 298 24 C297.34026184 24.13273315 296.68052368 24.26546631 296.00079346 24.40222168 C270.47002 29.43672255 244.7278552 29.45192602 218.8125 29.4375 C217.97873211 29.43775555 217.14496422 29.43801109 216.28593063 29.43827438 C197.78472278 29.43954311 179.37968022 29.37872417 161 27 C159.91098389 26.86924072 158.82196777 26.73848145 157.69995117 26.60375977 C155.18971753 26.28808054 152.68921852 25.93907725 150.1875 25.5625 C149.32189453 25.43399658 148.45628906 25.30549316 147.56445312 25.1730957 C145.0412885 24.7920606 142.52040258 24.39885332 140 24 C139.29568848 23.89075195 138.59137695 23.78150391 137.86572266 23.66894531 C122.68557485 21.26292335 107.85464483 16.8683792 93.375 11.76171875 C90.93290524 10.97848112 88.51624095 10.48407335 86 10 Z " fill="#FEFEFE" transform="translate(0,0)"/>
<path d="M0 0 C5.44565918 0.60030889 10.20854426 1.97371909 15.375 3.75 C33.64662661 9.7516689 52.93231894 12.76344496 72 15 C72.96063354 15.12127258 72.96063354 15.12127258 73.94067383 15.24499512 C89.40821336 17.17162889 104.80203139 17.39851209 120.375 17.375 C122.31605621 17.37468277 122.31605621 17.37468277 124.29632568 17.37435913 C162.35774411 17.31248447 201.3360603 14.49031229 237.23828125 0.76171875 C240.4612157 -0.12720942 241.95573807 -0.45038069 245 1 C246.30475913 3.60639682 247.22763737 5.94046565 248.125 8.6875 C255.57033146 29.35324101 266.32866403 48.56195526 279.9609375 65.8046875 C280.61231689 66.63202393 280.61231689 66.63202393 281.27685547 67.47607422 C282.40162475 68.87743347 283.55877741 70.25263807 284.71875 71.625 C286 74 286 74 285.453125 76.41015625 C283.75215581 79.4417223 282.03099945 82.45190984 280.25 85.4375 C266.97734778 108.42612011 260.92280704 136.67714932 267.28881836 163.01025391 C268.30133193 166.44714922 269.56968638 169.71671209 271 173 C271.36480469 173.83998535 271.72960937 174.6799707 272.10546875 175.54541016 C275.8671355 184.03502942 279.89601486 192.35192874 284.6875 200.3125 C299.20987891 224.49363092 304.56648046 255.0113232 297.76806641 282.58300781 C297.20277727 284.72946801 296.6062472 286.86478353 296 289 C295.81276367 289.69319336 295.62552734 290.38638672 295.43261719 291.10058594 C291.4159023 305.87016452 285.45255371 318.58153374 275 330 C274.23945313 330.85335938 273.47890625 331.70671875 272.6953125 332.5859375 C266.31910888 339.38025283 259.11108308 344.48657474 251 349 C250.34 349 249.68 349 249 349 C247.4952701 344.14361505 246.58724397 339.56437313 246.02441406 334.48999023 C245.11395653 326.67168238 243.91461876 318.92295454 242.609375 311.16015625 C242.38172726 309.79309277 242.15431128 308.42599069 241.92710876 307.05885315 C241.3287249 303.46437224 240.7259581 299.87064077 240.12191391 296.27710724 C239.74666346 294.04263218 239.37272189 291.80794176 238.99917603 289.57318115 C236.11467659 272.32060261 233.18478238 255.08013985 229.99267578 237.88134766 C228.27015148 228.58220384 226.67033122 219.26737971 225.125 209.9375 C225.00435181 209.20929047 224.88370361 208.48108093 224.75939941 207.73080444 C223.98231694 203.0356195 223.20865505 198.33987365 222.43548584 193.64404297 C220.94165551 184.57428404 219.44266036 175.50538565 217.9375 166.4375 C217.76596405 165.40405457 217.5944281 164.37060913 217.41769409 163.30584717 C214.93788286 148.38999176 212.32743677 133.51018122 209.50390625 118.65527344 C208.71575314 114.50219535 207.94308358 110.34662139 207.1875 106.1875 C206.95417969 104.92292969 206.72085937 103.65835938 206.48046875 102.35546875 C206.02593571 99.18112827 205.9068636 96.20095107 206 93 C204.95070313 93.11601562 203.90140625 93.23203125 202.8203125 93.3515625 C199 93 199 93 196.3046875 90.5859375 C195.4730011 89.53246807 194.66337467 88.46126216 193.875 87.375 C193.06804687 86.33085938 192.26109375 85.28671875 191.4296875 84.2109375 C191.03620117 83.6859668 190.64271484 83.16099609 190.23730469 82.62011719 C188.24267101 80.00835928 186.11914027 77.51129435 184 75 C180.32470117 76.22509961 179.79625066 77.38725476 177.6875 80.5625 C177.07519531 81.45839844 176.46289062 82.35429688 175.83203125 83.27734375 C174.67681578 84.99415651 173.52753394 86.71499101 172.38671875 88.44140625 C171.88785156 89.16199219 171.38898438 89.88257813 170.875 90.625 C170.22144531 91.60339844 170.22144531 91.60339844 169.5546875 92.6015625 C168 94 168 94 165.3203125 94.2109375 C164.17175781 94.10652344 164.17175781 94.10652344 163 94 C163 95.98 163 97.96 163 100 C156.4 100 149.8 100 143 100 C141.66749678 81.01182916 141.90526796 62.02365166 142 43 C141.06502686 43.05575195 140.13005371 43.11150391 139.16674805 43.16894531 C136 43 136 43 133.33203125 40.296875 C132.47252764 39.12879767 131.63311572 37.94571776 130.8125 36.75 C130.38775391 36.16347656 129.96300781 35.57695313 129.52539062 34.97265625 C128.33549205 33.32567377 127.16707548 31.66323322 126 30 C125.40574219 29.24203125 124.81148437 28.4840625 124.19921875 27.703125 C123 26 123 26 123 24 C118.41879222 28.27089424 115.15287505 32.97523457 111.83789062 38.26757812 C110.59765625 40.11328125 110.59765625 40.11328125 108 43 C104.68359375 43.41796875 104.68359375 43.41796875 102 43 C102.01160156 44.26585937 102.02320313 45.53171875 102.03515625 46.8359375 C102.14097637 64.57238115 101.58488482 82.27590099 101 100 C94.4 100 87.8 100 81 100 C81 98.02 81 96.04 81 94 C80.13761719 94.17144531 79.27523437 94.34289062 78.38671875 94.51953125 C74.45105379 93.91579026 74.16442821 93.44721337 71.89453125 90.38671875 C70.84656744 88.83403219 69.81985346 87.26683616 68.8125 85.6875 C67.77966419 84.12736759 66.74458758 82.5687158 65.70703125 81.01171875 C65.2581958 80.31522217 64.80936035 79.61872559 64.34692383 78.90112305 C63.03877567 77.05473013 61.64670905 75.54580998 60 74 C57.87283345 76.60240364 55.74864719 79.20722396 53.625 81.8125 C53.02171875 82.55048828 52.4184375 83.28847656 51.796875 84.04882812 C51.21679688 84.76103516 50.63671875 85.47324219 50.0390625 86.20703125 C49.50490723 86.8616333 48.97075195 87.51623535 48.42041016 88.19067383 C47.20566898 89.73801774 46.09120531 91.36319204 45 93 C41.375 93.6875 41.375 93.6875 38 94 C36.32529165 103.6652837 34.66047741 113.33226289 33 123 C32.79788469 124.17661823 32.79788469 124.17661823 32.59168625 125.37700653 C27.9846134 152.20971542 23.47653719 179.05867755 19.00390625 205.9140625 C18.87254131 206.70274688 18.74117637 207.49143126 18.60583067 208.30401516 C15.92530796 224.39779089 13.24797373 240.49209546 10.5765081 256.58737719 C9.54680805 262.79098715 8.51602621 268.99441683 7.48458236 275.1977371 C6.88310774 278.81564918 6.28225015 282.43366095 5.68310738 286.05195999 C2.2594366 306.72628066 -1.32241232 327.36948597 -5 348 C-11.60808656 346.86907891 -15.79617628 343.06456853 -21 339 C-22.05960938 338.19369141 -22.05960938 338.19369141 -23.140625 337.37109375 C-39.11860038 324.41334542 -47.07436574 305.4021935 -52 286 C-52.23460937 285.09121094 -52.46921875 284.18242187 -52.7109375 283.24609375 C-56.8361617 266.05765958 -56.45306964 247.02154656 -52 230 C-51.80664062 229.08992187 -51.61328125 228.17984375 -51.4140625 227.2421875 C-48.6991055 215.43036161 -42.54228735 204.5279701 -36.5 194.125 C-21.4045631 167.97871171 -16.51343503 139.89175092 -23.9296875 110.2890625 C-27.30167167 99.19639732 -32.48876741 88.14655836 -39.33984375 78.75390625 C-41 76 -41 76 -41.03125 73.9921875 C-39.53074924 71.09349284 -37.55090815 68.64368586 -35.5 66.125 C-30.62629504 59.95420427 -26.27818627 53.58192904 -22.16064453 46.88623047 C-21.36787477 45.59785454 -20.56908886 44.31316615 -19.76513672 43.03173828 C-11.25645539 29.43552682 -4.90572218 15.26525412 0 0 Z " fill="#28579E" transform="translate(96,40)"/>
<path d="M0 0 C4.53134652 0.74487888 8.74356631 2.24098632 13.0625 3.75 C22.90477394 7.10442213 32.87171492 9.67023339 43 12 C44.2271875 12.28746094 45.454375 12.57492188 46.71875 12.87109375 C68.2329419 17.54703861 90.51843244 19.12037536 112.48828125 19.2734375 C113.25909216 19.27977896 114.02990307 19.28612041 114.82407188 19.29265404 C164.25857846 19.68822208 212.36703661 18.70068212 259.22021484 0.93554688 C262 0 262 0 265 0 C265.30591064 0.66717041 265.61182129 1.33434082 265.92700195 2.02172852 C269.0553041 8.83806067 272.19771346 15.64776188 275.35400391 22.45117188 C276.38934488 24.6834051 277.42310519 26.91637283 278.45458984 29.15039062 C290.45075929 55.06724867 304.29152652 81.9863296 324 103 C322.16226052 105.8331817 320.32065333 108.59137982 318.234375 111.25 C303.71671818 129.99721038 297.89773309 151.24038535 300.67333984 174.71801758 C303.96320048 198.32977521 315.19270638 219.93065674 325.48828125 241.12890625 C332.54647043 255.70895036 339.74079919 271.04706971 343 287 C343.30357422 288.42892578 343.30357422 288.42892578 343.61328125 289.88671875 C348.64299927 318.25159109 344.17489275 346.35843392 328.609375 370.7109375 C309.28768773 398.19275484 277.33040911 413.94581136 245 420 C243.6506839 420.25504555 243.6506839 420.25504555 242.27410889 420.51524353 C234.07849634 421.9264323 226.06940512 422.28225349 217.78225136 422.27439499 C215.48895687 422.27341097 213.19610765 422.28658474 210.90287781 422.30337524 C204.39353687 422.34911251 197.88425267 422.37425647 191.37475586 422.38085938 C187.36545383 422.38590192 183.3566326 422.41027118 179.34749413 422.44618607 C177.83464647 422.45590285 176.3217321 422.45836098 174.80886269 422.45301437 C161.48571866 422.40808381 151.9039457 424.80347899 142 434 C139.54646877 436.63427726 137.17108222 439.30900146 134.84765625 442.05859375 C134.23792969 442.69925781 133.62820312 443.33992188 133 444 C132.34 444 131.68 444 131 444 C129.7734375 442.49609375 129.7734375 442.49609375 128.375 440.4375 C121.96824714 431.72615978 114.28030108 426.47780041 104 423 C98.60317827 422.22511275 93.30064577 422.22967552 87.8671875 422.30078125 C86.33943687 422.29713251 84.81169089 422.29040718 83.28396606 422.2808075 C79.28964806 422.26189744 75.29620878 422.27560619 71.30194092 422.29931641 C64.17786828 422.33801569 57.05377808 422.32989154 49.9296875 422.30078125 C49.1724577 422.29829628 48.41522789 422.29581131 47.63505173 422.29325104 C36.1977356 422.23787441 25.1878877 421.49608778 14 419 C13.27421249 418.8411734 12.54842499 418.6823468 11.80064392 418.51870728 C-10.19177766 413.67707691 -28.21212068 403.51416806 -46 390 C-46.74507812 389.44183594 -47.49015625 388.88367188 -48.2578125 388.30859375 C-63.18355973 376.25318253 -72.31997861 358.2679096 -77 340 C-77.44666016 338.53046875 -77.44666016 338.53046875 -77.90234375 337.03125 C-87.56368449 301.05722549 -72.94879931 266.46974278 -57.34375 234.81640625 C-41.52250252 202.80194523 -41.52250252 202.80194523 -35 168 C-34.9484375 166.93523437 -34.896875 165.87046875 -34.84375 164.7734375 C-34.23215548 141.78767672 -44.17311073 121.1140158 -59 104 C-58.1875 102.91666667 -57.375 101.83333333 -56.5625 100.75 C-56.03148682 100.03908203 -55.50047363 99.32816406 -54.95336914 98.59570312 C-53.64009171 96.85057556 -52.31538871 95.11399352 -50.97998047 93.38574219 C-45.34974597 86.03800181 -40.3331495 78.43981861 -35.5625 70.5 C-35.19593292 69.89393921 -34.82936584 69.28787842 -34.45169067 68.66345215 C-28.46367375 58.74627108 -23.01497719 48.64885592 -18.046875 38.18164062 C-16.71816902 35.41267686 -15.32432578 32.6796232 -13.92797852 29.94433594 C-8.92686954 20.12702466 -4.45297754 10.07517264 0 0 Z M5 18 C4.81566406 18.83917969 4.63132813 19.67835937 4.44140625 20.54296875 C-1.08072274 43.44139694 -12.31010705 65.89945089 -26 85 C-26.53157715 85.7429834 -27.0631543 86.4859668 -27.61083984 87.25146484 C-31.38372474 92.51815075 -35.18198046 97.76595674 -39 103 C-38.15341797 104.69316407 -37.30679081 106.38630558 -36.45996094 108.0793457 C-35.73066552 109.53842886 -35.0021624 110.99790826 -34.27441406 112.45776367 C-32.62506445 115.76407862 -30.96712873 119.06373456 -29.2734375 122.34765625 C-25.98007094 128.75705425 -23.16448487 135.12174809 -21 142 C-20.69964844 142.89074219 -20.39929688 143.78148437 -20.08984375 144.69921875 C-12.12328979 172.45246952 -21.39642497 199.00157938 -34.41992188 223.29541016 C-52.01348176 256.19362736 -57.62881846 290.16664796 -46.6796875 326.48046875 C-42.03863828 340.97828418 -35.27189455 353.69528242 -25 365 C-24.44957031 365.63164062 -23.89914063 366.26328125 -23.33203125 366.9140625 C-3.50802825 388.35335463 29.66640462 399.98389685 58.17944336 401.21948242 C62.61868697 401.36392894 67.0589483 401.4376122 71.5 401.5 C99.19171667 401.88901266 99.19171667 401.88901266 111.0625 406.875 C112.27035156 407.36742187 113.47820312 407.85984375 114.72265625 408.3671875 C117.88548783 409.94294864 120.28583955 411.76480904 123 414 C123.66 414 124.32 414 125 414 C125.27585938 414.57234375 125.55171875 415.1446875 125.8359375 415.734375 C126.99467848 417.98964267 128.26875706 420.10856378 129.625 422.25 C130.07101563 422.95640625 130.51703125 423.6628125 130.9765625 424.390625 C131.31429687 424.92171875 131.65203125 425.4528125 132 426 C133.48098543 424.0570162 134.92238478 422.11944523 136.25390625 420.0703125 C142.11300548 411.36036798 151.74175621 406.49737121 161.8203125 404.0859375 C163.25263784 403.8338873 164.68784322 403.59785774 166.125 403.375 C166.92268799 403.24875244 167.72037598 403.12250488 168.54223633 402.99243164 C177.48994795 401.71944788 186.47006142 401.57273097 195.49291992 401.33886719 C230.832317 400.38079444 265.36250976 390.31814745 290.63623047 364.48876953 C311.16457103 342.07884817 318.10314426 310.19732911 317.34765625 280.68359375 C317.08870905 275.22528388 316.4095816 269.92614093 315.375 264.5625 C315.16508423 263.46615234 315.16508423 263.46615234 314.95092773 262.34765625 C312.04179192 249.17464865 306.2407556 236.97855798 300.050354 225.08569336 C294.13013427 213.68215779 288.48043899 202.42603011 285 190 C284.63390625 188.80246094 284.2678125 187.60492188 283.890625 186.37109375 C277.90692664 161.74382484 285.38275481 136.0569779 298.15771484 115.07617188 C299.07696118 113.59489763 300.01551159 112.12538805 300.97509766 110.66992188 C303.52770163 106.82304112 303.52770163 106.82304112 303.56640625 102.38671875 C301.64751501 99.46292188 299.57803756 96.71111283 297.375 94 C292.81505233 88.21581174 288.83285649 82.24775728 285.10986328 75.8828125 C283.87298231 73.78452257 282.60640935 71.70549711 281.33984375 69.625 C271.90209141 53.94388692 262.75017288 36.28998471 260 18 C255.2452522 18.72498135 251.0192784 20.46034864 246.5625 22.1875 C220.49091885 31.99794033 193.6337289 36.41740851 166 39 C165.0114502 39.09571289 164.02290039 39.19142578 163.00439453 39.29003906 C113.99435841 43.5925961 62.57604259 38.60140141 16.21191406 21.79101562 C12.49651113 20.46232848 8.74813545 19.2327201 5 18 Z " fill="#BA7D2F" transform="translate(86,10)"/>
<path d="M0 0 C0.50273437 0.37125 1.00546875 0.7425 1.5234375 1.125 C4.01393589 3.14534271 4.01393589 3.14534271 6.59765625 2.640625 C9.2834193 1.85376467 11.32264453 0.82143095 13.7109375 -0.625 C19.82288572 -4.32660244 26.17955287 -4.87106261 33.2109375 -4.125 C39.3218133 -2.36994192 44.80360653 0.58358115 50.2109375 3.875 C50.79101562 3.46507812 51.37109375 3.05515625 51.96875 2.6328125 C60.15014048 -3.01045684 67.12800626 -5.7219498 77.2109375 -4.125 C81.0959736 -2.67763361 84.67481114 -0.68992107 88.27734375 1.34375 C91.10265715 3.10636368 91.10265715 3.10636368 94.2109375 2.875 C96.13746895 1.8558444 96.13746895 1.8558444 98.0859375 0.5 C105.0090034 -4.14252655 110.95954204 -4.96865889 119.2109375 -4.125 C125.34366766 -2.43980219 130.80492488 0.58438362 136.2109375 3.875 C137.33242188 3.13443359 137.33242188 3.13443359 138.4765625 2.37890625 C139.46140625 1.73824219 140.44625 1.09757812 141.4609375 0.4375 C142.43546875 -0.20058594 143.41 -0.83867187 144.4140625 -1.49609375 C151.56129593 -5.65865847 161.1708602 -5.21918232 169.08984375 -3.5 C171.81211986 -2.35189014 173.30290068 -1.39051444 175.2109375 0.875 C176.76148636 4.81264815 177.42205632 8.66779886 177.92724609 12.85888672 C178.22324654 14.96247683 178.6635628 16.99592949 179.13671875 19.06640625 C181.24522955 29.12624686 181.24522955 29.12624686 178.64453125 33.5234375 C176.29516049 35.72163136 174.00862333 37.29297528 171.2109375 38.875 C170.4890625 39.32359375 169.7671875 39.7721875 169.0234375 40.234375 C162.39200552 43.79389364 154.81210621 44.23522484 147.62109375 42.109375 C143.30127271 40.29806901 139.70454978 38.03052077 136.2109375 34.875 C133.71723623 36.02593905 131.60218265 37.29848164 129.3359375 38.875 C122.57588468 43.2014338 116.08917687 43.68759827 108.2109375 42.875 C102.43872072 41.32616175 97.61294357 38.983539 93.2109375 34.875 C90.23979262 35.92363937 87.93795864 37.06489834 85.3359375 38.875 C78.7891203 43.06496301 71.81569062 43.75082831 64.2109375 42.875 C58.80636911 41.25696564 54.40541634 38.66356153 50.2109375 34.875 C47.42269664 36.20715952 44.89776 37.71418567 42.3359375 39.4375 C38.88539924 41.59408641 36.33912709 42.62730862 32.2109375 42.875 C31.4478125 42.92527344 30.6846875 42.97554688 29.8984375 43.02734375 C22.17593541 43.32164642 16.6056678 41.86012131 10.5234375 37.0625 C7.50155973 34.52490006 7.50155973 34.52490006 4.6484375 35.3125 C2.82419739 36.48188468 1.01387981 37.67303846 -0.7890625 38.875 C-7.81406794 43.55833696 -14.026545 43.56772982 -22.2265625 42.375 C-27.67865065 40.07938394 -32.19516207 36.56913968 -36.7890625 32.875 C-37.71332031 32.25431641 -37.71332031 32.25431641 -38.65625 31.62109375 C-40.61580118 28.6006821 -39.66473598 25.26882198 -39.1640625 21.875 C-39.05779541 21.11477539 -38.95152832 20.35455078 -38.84204102 19.57128906 C-38.51406824 17.33491733 -38.15447614 15.10551364 -37.7890625 12.875 C-37.62535156 11.75609375 -37.46164063 10.6371875 -37.29296875 9.484375 C-36.50612878 5.51218975 -35.89654246 2.8303889 -32.76953125 0.1328125 C-22.95699994 -5.62777802 -9.84875272 -6.19310215 0 0 Z " fill="#7B7B7B" transform="translate(146.7890625,347.125)"/>
<path d="M0 0 C0.50273437 0.37125 1.00546875 0.7425 1.5234375 1.125 C4.01393589 3.14534271 4.01393589 3.14534271 6.59765625 2.640625 C9.2834193 1.85376467 11.32264453 0.82143095 13.7109375 -0.625 C19.82288572 -4.32660244 26.17955287 -4.87106261 33.2109375 -4.125 C38.22672367 -2.68445427 42.67739756 -0.51356235 47.0859375 2.25 C50.0269632 4.24373679 50.0269632 4.24373679 52.6484375 3.125 C53.421875 2.50625 53.421875 2.50625 54.2109375 1.875 C54.2109375 4.875 54.2109375 4.875 52.953125 6.2421875 C52.33695312 6.73976563 51.72078125 7.23734375 51.0859375 7.75 C48.21046045 10.12829118 45.46671022 12.57136542 42.80859375 15.1875 C42.20611816 15.77289551 41.60364258 16.35829102 40.98291016 16.96142578 C39.77781828 18.13636631 38.58305546 19.32201316 37.39990234 20.51904297 C33.52241575 24.25377305 30.82597059 25.83436044 25.2109375 25.875 C22.4609375 24.375 22.4609375 24.375 20.2109375 22.875 C19.2209375 23.205 18.2309375 23.535 17.2109375 23.875 C20.80283664 27.71461632 22.71333145 28.80253519 28.0859375 29.0625 C31.52103246 29.03081093 34.10251232 28.42921259 37.2109375 26.875 C35.8984375 28.875 35.8984375 28.875 33.2109375 30.875 C27.80157541 31.75265001 23.54555789 31.65150641 18.7734375 28.875 C17.9278125 28.215 17.0821875 27.555 16.2109375 26.875 C14.8909375 26.875 13.5709375 26.875 12.2109375 26.875 C12.2109375 27.535 12.2109375 28.195 12.2109375 28.875 C10.91860143 30.24810707 9.58656604 31.58534824 8.2109375 32.875 C8.80132812 33.16117187 9.39171875 33.44734375 10 33.7421875 C12.2109375 34.875 12.2109375 34.875 15.5859375 37 C22.41893591 40.4164992 31.06945574 40.05872103 38.2265625 37.7265625 C42.63571632 35.94238586 45.64353664 33.1498852 48.9609375 29.8125 C55.58052238 23.29368164 55.58052238 23.29368164 59.2109375 21.875 C59.6234375 22.65875 60.0359375 23.4425 60.4609375 24.25 C62.34136356 27.07063909 63.15328156 27.65193762 66.2109375 28.875 C68.56658346 29.32311137 68.56658346 29.32311137 70.9609375 29.5 C71.76015625 29.57476562 72.559375 29.64953125 73.3828125 29.7265625 C73.98609375 29.77554688 74.589375 29.82453125 75.2109375 29.875 C75.2109375 30.205 75.2109375 30.535 75.2109375 30.875 C68.2878819 31.36754941 65.0359425 30.84659432 59.2109375 26.875 C55.88315325 27.48238122 55.88315325 27.48238122 53.2109375 28.875 C53.2109375 29.535 53.2109375 30.195 53.2109375 30.875 C52.5509375 30.875 51.8909375 30.875 51.2109375 30.875 C55.49179963 35.86933915 60.05043661 38.54327499 66.59765625 39.23046875 C76.98238776 39.46222153 83.38228142 37.10080335 91.0234375 30.25 C91.6316333 29.725271 92.2398291 29.20054199 92.86645508 28.65991211 C95.70208841 26.19653274 98.36651017 23.71078441 100.953125 20.98046875 C103.30169956 18.53810127 105.25366165 16.53407393 108.2109375 14.875 C112.28133196 15.03095381 115.54849325 16.14125738 119.2109375 17.875 C119.2109375 21.5610549 118.52235354 23.02425356 116.2109375 25.875 C113.2734375 26.375 113.2734375 26.375 110.2109375 25.875 C108.85471505 24.90626968 107.51676697 23.91065785 106.2109375 22.875 C105.2209375 23.205 104.2309375 23.535 103.2109375 23.875 C106.53215225 27.3069219 108.46839313 29.0360198 113.2734375 29.375 C122.29073111 29.21705377 128.49277917 20.72092484 134.67871094 14.9465332 C142.33786929 7.8749368 148.98341598 2.48415291 159.69921875 2.671875 C163.28682326 2.96200787 165.38588226 3.61495581 168.2109375 5.875 C170.23640378 11.30693229 170.4163911 16.12229929 170.2109375 21.875 C169.8809375 21.875 169.5509375 21.875 169.2109375 21.875 C168.2209375 16.925 167.2309375 11.975 166.2109375 6.875 C159.8098211 4.74129453 155.45315433 4.03091744 149.20703125 6.74609375 C143.20915725 10.24788281 138.27338949 15.17530333 133.2109375 19.875 C130.58238159 22.25654622 127.92057127 24.58633778 125.2109375 26.875 C124.2828125 27.679375 123.3546875 28.48375 122.3984375 29.3125 C117.69765356 31.61680585 113.35103755 31.67167721 108.2109375 30.875 C104.7734375 28.875 104.7734375 28.875 102.2109375 26.875 C100.8909375 26.875 99.5709375 26.875 98.2109375 26.875 C98.2109375 27.535 98.2109375 28.195 98.2109375 28.875 C98.8915625 29.143125 99.5721875 29.41125 100.2734375 29.6875 C102.39146991 30.54372587 104.47238969 31.4938256 106.5234375 32.5 C112.1152102 34.58506779 116.65570695 34.81937175 122.0859375 32.4375 C127.47371054 29.44896964 131.76684937 25.08377333 136.2109375 20.875 C149.80015276 8.15923206 149.80015276 8.15923206 156.9609375 7.5625 C160.2109375 7.875 160.2109375 7.875 163.2109375 8.875 C164.8229884 15.63985645 165.47712345 21.92458914 165.2109375 28.875 C160.84364182 31.31872275 157.13291654 31.67970451 152.2109375 30.875 C149.0128325 29.48851037 146.11467406 27.79709512 143.2109375 25.875 C144.58244582 20.69374633 147.8342951 17.72027063 152.2109375 14.875 C155.6484375 14 155.6484375 14 158.2109375 13.875 C159.80231835 18.05237474 160.42371808 21.40660785 160.2109375 25.875 C155.43030013 26.20853284 153.21904645 25.36652719 149.2109375 22.875 C148.2209375 23.205 147.2309375 23.535 146.2109375 23.875 C151.29548576 28.02292095 153.53289473 29.22647594 160.2109375 28.875 C161.2009375 28.215 162.1909375 27.555 163.2109375 26.875 C163.2671654 23.90971821 163.16777554 21.18649974 162.8984375 18.25 C162.83720703 17.44820313 162.77597656 16.64640625 162.71289062 15.8203125 C162.55945242 13.83741876 162.38698057 11.85601481 162.2109375 9.875 C152.26060564 9.91578005 147.90790825 13.40470688 140.8828125 19.98828125 C140.27920898 20.55321289 139.67560547 21.11814453 139.05371094 21.70019531 C137.85559004 22.82974331 136.66561127 23.96801261 135.48535156 25.11621094 C127.89915847 32.37351032 121.17116561 36.32159784 110.5078125 36.30859375 C105.02028655 35.58689306 100.76684056 32.88835321 96.2109375 29.875 C95.5509375 30.865 94.8909375 31.855 94.2109375 32.875 C94.8915625 33.1225 95.5721875 33.37 96.2734375 33.625 C99.2109375 34.875 99.2109375 34.875 102.3359375 36.9375 C106.94775163 39.68822727 111.9568473 39.68497865 117.2109375 39.875 C117.2109375 40.205 117.2109375 40.535 117.2109375 40.875 C116.4684375 41.019375 115.7259375 41.16375 114.9609375 41.3125 C112.33161502 41.78870217 112.33161502 41.78870217 110.34765625 42.515625 C106.05652754 43.23735049 101.99428285 40.73916855 98.2109375 38.875 C95.0859375 36.625 95.0859375 36.625 93.2109375 34.875 C90.23979262 35.92363937 87.93795864 37.06489834 85.3359375 38.875 C78.7891203 43.06496301 71.81569062 43.75082831 64.2109375 42.875 C58.80636911 41.25696564 54.40541634 38.66356153 50.2109375 34.875 C47.42269664 36.20715952 44.89776 37.71418567 42.3359375 39.4375 C38.88539924 41.59408641 36.33912709 42.62730862 32.2109375 42.875 C31.4478125 42.92527344 30.6846875 42.97554688 29.8984375 43.02734375 C22.17593541 43.32164642 16.6056678 41.86012131 10.5234375 37.0625 C7.50155973 34.52490006 7.50155973 34.52490006 4.6484375 35.3125 C2.82419739 36.48188468 1.01387981 37.67303846 -0.7890625 38.875 C-7.81406794 43.55833696 -14.026545 43.56772982 -22.2265625 42.375 C-27.67865065 40.07938394 -32.19516207 36.56913968 -36.7890625 32.875 C-37.71332031 32.25431641 -37.71332031 32.25431641 -38.65625 31.62109375 C-40.61580118 28.6006821 -39.66473598 25.26882198 -39.1640625 21.875 C-39.05779541 21.11477539 -38.95152832 20.35455078 -38.84204102 19.57128906 C-38.51406824 17.33491733 -38.15447614 15.10551364 -37.7890625 12.875 C-37.62535156 11.75609375 -37.46164063 10.6371875 -37.29296875 9.484375 C-36.50612878 5.51218975 -35.89654246 2.8303889 -32.76953125 0.1328125 C-22.95699994 -5.62777802 -9.84875272 -6.19310215 0 0 Z " fill="#797979" transform="translate(146.7890625,347.125)"/>
<path d="M0 0 C0.87454834 0.00523682 1.74909668 0.01047363 2.65014648 0.01586914 C3.59438477 0.0190918 4.53862305 0.02231445 5.51147461 0.02563477 C6.50469727 0.03401367 7.49791992 0.04239258 8.52124023 0.05102539 C9.51833008 0.05553711 10.51541992 0.06004883 11.54272461 0.06469727 C14.01478872 0.07652532 16.48673541 0.0930069 18.95874023 0.11352539 C19.21636746 13.99677017 18.50836895 27.80363423 17.73193359 41.66259766 C17.52069859 45.43570023 17.31630484 49.20912661 17.11303711 52.98266602 C16.97996994 55.41823458 16.8465197 57.85378225 16.71264648 60.28930664 C16.62195641 61.95380608 16.62195641 61.95380608 16.5294342 63.65193176 C16.12597049 70.81758688 15.59088543 77.96444947 14.95874023 85.11352539 C13.63874023 85.11352539 12.31874023 85.11352539 10.95874023 85.11352539 C10.95874023 70.26352539 10.95874023 55.41352539 10.95874023 40.11352539 C8.97874023 41.43352539 6.99874023 42.75352539 4.95874023 44.11352539 C3.63874023 44.11352539 2.31874023 44.11352539 0.95874023 44.11352539 C0.9703418 44.88591553 0.98194336 45.65830566 0.99389648 46.45410156 C1.06402209 54.82722381 0.63386694 63.08273655 -0.04125977 71.42602539 C-0.13665039 72.65514648 -0.23204102 73.88426758 -0.33032227 75.15063477 C-0.56285219 78.13864427 -0.79988725 81.12621948 -1.04125977 84.11352539 C-4.01125977 84.11352539 -6.98125977 84.11352539 -10.04125977 84.11352539 C-9.44467405 73.07156142 -8.66864684 62.06382509 -7.66625977 51.05102539 C-7.53546177 49.59799089 -7.40476737 48.14494707 -7.27416992 46.69189453 C-7.00371312 43.69034103 -6.73119411 40.6889836 -6.45727539 37.68774414 C-6.10601795 33.83588225 -5.76145566 29.98345177 -5.41848755 26.13084412 C-5.15221903 23.15042927 -4.88185951 20.17039633 -4.61029053 17.19046021 C-4.48128064 15.76796288 -4.3537093 14.34533432 -4.2276001 12.9225769 C-4.05256917 10.95329013 -3.87129934 8.98456082 -3.68969727 7.01586914 C-3.58834473 5.89688232 -3.48699219 4.77789551 -3.38256836 3.625 C-2.91194079 0.16194863 -2.91194079 0.16194863 0 0 Z " fill="#305DA1" transform="translate(177.041259765625,150.886474609375)"/>
<path d="M0 0 C6.93 0 13.86 0 21 0 C21.91833959 9.32749702 22.83211007 18.65541167 23.73806 27.98412037 C24.15900051 32.31676057 24.58186443 36.64919429 25.00927734 40.98120117 C25.42242531 45.16937689 25.83032054 49.35803523 26.23472595 53.54706383 C26.38916286 55.13744699 26.54542543 56.72765407 26.70362854 58.31766701 C27.55539749 66.89097107 28.25704242 75.37152018 28 84 C25.36 84 22.72 84 20 84 C18.69935129 70.30340807 17.66341468 56.76259957 18 43 C17.13375 43.0825 16.2675 43.165 15.375 43.25 C11.24011993 42.94371259 9.25357303 41.47891278 6 39 C6.03029297 39.68811768 6.06058594 40.37623535 6.09179688 41.08520508 C6.71108294 55.39904971 7.15535892 69.67245555 7 84 C6.01 84 5.02 84 4 84 C2.9053975 77.45952878 2.58717446 70.91396007 2.24609375 64.296875 C2.18092056 63.06447083 2.11574738 61.83206665 2.04859924 60.56231689 C1.91171385 57.95341328 1.77649288 55.34442187 1.64282227 52.73535156 C1.44033363 48.80500138 1.22928874 44.87517531 1.01757812 40.9453125 C0.29930779 27.27443964 -0.16097532 13.68990104 0 0 Z " fill="#2E5CA0" transform="translate(240,151)"/>
<path d="M0 0 C6.07913364 2.80575399 8.30892307 7.41345996 10.6060791 13.36248779 C11.9328835 17.77098096 11.93429571 21.93620551 11.828125 26.5078125 C11.82246521 27.44809296 11.81680542 28.38837341 11.81097412 29.35714722 C11.7888165 32.32197846 11.73866127 35.28554218 11.6875 38.25 C11.66740827 40.27602405 11.64916222 42.30206729 11.6328125 44.328125 C11.59244296 49.26128229 11.51411656 54.19174457 11.4375 59.125 C3.5175 59.125 -4.4025 59.125 -12.5625 59.125 C-12.65475863 53.04105573 -12.73426748 46.95957694 -12.78222656 40.87548828 C-12.80223625 38.80964902 -12.82945283 36.74386563 -12.86425781 34.67822266 C-12.91324716 31.69419497 -12.93557564 28.71092154 -12.953125 25.7265625 C-12.97377014 24.81572906 -12.99441528 23.90489563 -13.01568604 22.96646118 C-13.01811288 15.89650261 -11.67587372 9.01372339 -7.15020752 3.36099243 C-4.85692241 1.220645 -3.15564819 0.15393406 0 0 Z " fill="#2A589E" transform="translate(218.5625,271.875)"/>
<path d="M0 0 C3.42959816 1.64871149 4.42108267 4.36560063 5.94921875 7.7265625 C7.68632047 13.41730772 7.32034425 19.0774257 7.05371094 24.95019531 C6.8965703 28.60521446 6.78939226 32.26119283 6.68359375 35.91796875 C6.45769349 43.58828951 6.19707446 51.25690365 5.92578125 58.92578125 C-2.32421875 58.92578125 -10.57421875 58.92578125 -19.07421875 58.92578125 C-18.6708378 48.51855265 -18.03871086 38.20886086 -16.82421875 27.86328125 C-16.72713623 26.92540771 -16.63005371 25.98753418 -16.5300293 25.02124023 C-15.47459935 16.62614661 -12.69720679 8.33388853 -6.01171875 2.73828125 C-5.36074219 2.16722656 -4.70976562 1.59617187 -4.0390625 1.0078125 C-2.07421875 -0.07421875 -2.07421875 -0.07421875 0 0 Z " fill="#2B599F" transform="translate(140.07421875,272.07421875)"/>
<path d="M0 0 C5.97724817 2.63702125 9.33753623 7.21549375 12.125 12.9375 C13.19828811 16.60383529 13.77538943 20.28428975 14.3125 24.0625 C14.47266602 25.09697266 14.63283203 26.13144531 14.79785156 27.19726562 C16.36957307 37.7415643 17.28617385 48.3123688 18.125 58.9375 C9.875 58.9375 1.625 58.9375 -6.875 58.9375 C-7.1632458 54.31527271 -7.44915527 49.69301106 -7.72949219 45.0703125 C-7.82519035 43.50317485 -7.92215943 41.93611419 -8.02050781 40.36914062 C-9.99024302 8.9337746 -9.99024302 8.9337746 -3.35546875 1.15625 C-1.875 -0.0625 -1.875 -0.0625 0 0 Z " fill="#2C5A9F" transform="translate(296.875,272.0625)"/>
<path d="M0 0 C4.5162005 2.08290282 7.47586373 4.71373087 10 9 C13.25266784 17.94211694 14.47602918 27.42390549 15.75 36.8125 C15.87785889 37.75416016 16.00571777 38.69582031 16.13745117 39.66601562 C16.25193604 40.58705078 16.3664209 41.50808594 16.484375 42.45703125 C16.58459961 43.26116455 16.68482422 44.06529785 16.78808594 44.89379883 C17.10816678 49.5854907 17 54.29740238 17 59 C9.08 59 1.16 59 -7 59 C-7.88365827 56.34902518 -8.18012105 54.55558905 -8.31640625 51.81640625 C-8.35886475 50.98101318 -8.40132324 50.14562012 -8.44506836 49.28491211 C-8.60864142 45.49280575 -8.75949524 41.70056531 -8.89160156 37.90722656 C-8.96194388 36.02065832 -9.04393685 34.13447486 -9.13964844 32.24902344 C-9.69943269 21.10645652 -9.81137723 12.3967175 -3 3 C-2.03165101 1.9693205 -1.04288329 0.9551934 0 0 Z " fill="#2C5A9F" transform="translate(255,272)"/>
<path d="M0 0 C6.0830148 4.10249835 8.93298433 8.97173972 11 16 C11.46791017 21.56206483 11.20599463 26.99967478 10.875 32.5625 C10.81006765 34.01747161 10.74755458 35.47255327 10.6875 36.92773438 C10.35830795 44.32392641 9.73757881 51.6242119 9 59 C0.75 59 -7.5 59 -16 59 C-15.22638244 50.49020682 -14.408354 41.99835306 -13.43530273 33.51049805 C-13.26956905 32.04044843 -13.10977363 30.56971763 -12.95581055 29.09838867 C-11.85032795 18.57003853 -10.43192965 10.15114865 -3 2 C-2.01 1.34 -1.02 0.68 0 0 Z " fill="#2C5A9F" transform="translate(179,272)"/>
<path d="M0 0 C65.01 0 130.02 0 197 0 C197 1.98 197 3.96 197 6 C131.99 6 66.98 6 0 6 C0 4.02 0 2.04 0 0 Z " fill="#3662A4" transform="translate(119,249)"/>
<path d="M0 0 C1.24523437 -0.03996094 2.49046875 -0.07992188 3.7734375 -0.12109375 C8.65227066 0.5864855 12.17047195 1.83145756 15.625 5.4375 C16.98455654 8.67837113 17.32412324 11.82946907 17.625 15.3125 C17.78548828 16.62154297 17.78548828 16.62154297 17.94921875 17.95703125 C18.23783221 20.44960203 18.44615252 22.9349313 18.625 25.4375 C18.73070312 26.72269531 18.83640625 28.00789063 18.9453125 29.33203125 C18.625 32.4375 18.625 32.4375 16.8671875 34.58203125 C16.08601563 35.13246094 15.30484375 35.68289063 14.5 36.25 C13.73429687 36.81332031 12.96859375 37.37664062 12.1796875 37.95703125 C5.29739499 41.94539343 -1.59550951 42.22493623 -9.375 41.4375 C-13.91446448 40.00658185 -17.1203459 37.87954327 -20.375 34.4375 C-20.045 33.4475 -19.715 32.4575 -19.375 31.4375 C-16.67255659 32.47078719 -14.30989725 33.47981679 -11.875 35.0625 C-5.81663607 37.44257154 1.11040758 37.80457693 7.24609375 35.41796875 C9.28843537 34.21295079 11.00712364 33.17268462 12.625 31.4375 C12.625 30.4475 12.625 29.4575 12.625 28.4375 C12.3671875 29.05109375 12.109375 29.6646875 11.84375 30.296875 C9.75287777 33.96930443 6.53179686 35.14394519 2.625 36.4375 C-4.72934373 37.85087551 -9.42495818 35.81352779 -15.5390625 31.75 C-16.14492188 31.316875 -16.75078125 30.88375 -17.375 30.4375 C-16.715 29.4475 -16.055 28.4575 -15.375 27.4375 C-10.69983221 29.25562081 -10.69983221 29.25562081 -8.484375 30.49609375 C-6.09885409 31.5607429 -4.47346689 31.67394373 -1.875 31.625 C-1.1221875 31.61855469 -0.369375 31.61210937 0.40625 31.60546875 C2.58490143 31.44053563 4.52704811 31.03350906 6.625 30.4375 C6.4084375 28.90029297 6.4084375 28.90029297 6.1875 27.33203125 C5.99982375 25.97137846 5.81233358 24.61070001 5.625 23.25 C5.52960938 22.57646484 5.43421875 21.90292969 5.3359375 21.20898438 C4.84175387 17.59085423 4.51153869 14.08953599 4.625 10.4375 C-1.96888426 9.69413935 -6.39090949 10.21338234 -11.76171875 14.19140625 C-15.92711274 17.77152814 -19.87403904 21.58093953 -23.83740234 25.38208008 C-28.3066648 29.6114925 -32.67272562 33.00144483 -38.375 35.4375 C-39.365 35.9325 -39.365 35.9325 -40.375 36.4375 C-48.14374788 36.96419477 -53.92641961 34.93196512 -60.375 30.4375 C-60.375 29.7775 -60.375 29.1175 -60.375 28.4375 C-58.75 27.6875 -58.75 27.6875 -56.375 27.4375 C-55.529375 28.076875 -54.68375 28.71625 -53.8125 29.375 C-50.13164698 32.06305297 -46.58790945 31.91781139 -42.15625 31.96875 C-35.45610871 30.68894773 -30.78662233 25.14031601 -26.0625 20.5625 C-10.28004853 5.55699508 -10.28004853 5.55699508 -2.05859375 5.390625 C-1.31738281 5.48859375 -0.57617188 5.5865625 0.1875 5.6875 C1.30318359 5.81898438 1.30318359 5.81898438 2.44140625 5.953125 C4.82779409 6.48248474 6.57683856 7.09575433 8.625 8.4375 C9.875 12.0625 9.875 12.0625 10.625 15.4375 C9.91211068 9.94569182 9.91211068 9.94569182 6.625 5.9375 C-0.07926061 4.82012323 -6.18545651 4.46967329 -12.24609375 7.91015625 C-16.99286892 11.31564082 -21.14205632 15.42734283 -25.375 19.4375 C-27.99969351 21.82358501 -30.66397603 24.15025494 -33.375 26.4375 C-33.94605469 26.94539063 -34.51710938 27.45328125 -35.10546875 27.9765625 C-38.98855234 31.15766988 -42.10953169 32.2048054 -47.15234375 31.9453125 C-51.009493 31.06406575 -53.38969201 28.97818765 -56.375 26.4375 C-55.715 25.4475 -55.055 24.4575 -54.375 23.4375 C-49.5 25.3125 -49.5 25.3125 -48.375 26.4375 C-44.8883734 26.79307665 -42.9347334 26.76737423 -39.8828125 24.96875 C-39.09648437 24.2984375 -38.31015625 23.628125 -37.5 22.9375 C-36.63503906 22.2053125 -35.77007812 21.473125 -34.87890625 20.71875 C-32.64978189 18.68784731 -30.53214696 16.60526606 -28.4375 14.4375 C-20.20197784 5.98481397 -12.04385456 0.21107786 0 0 Z " fill="#F7F7F7" transform="translate(305.375,345.5625)"/>
<path d="M0 0 C0.825 0.5775 1.65 1.155 2.5 1.75 C2.995 2.1625 3.49 2.575 4 3 C3.67 3.99 3.34 4.98 3 6 C0.39440972 5.51748328 -1.26952729 4.83565409 -3.5625 3.4375 C-5.95904831 1.74600749 -5.95904831 1.74600749 -9 2 C-6.36 3.32 -3.72 4.64 -1 6 C-1 6.99 -1 7.98 -1 9 C-1.66 9.33 -2.32 9.66 -3 10 C-3.99 9.360625 -4.98 8.72125 -6 8.0625 C-10.57845698 5.34969285 -14.80240768 4.95389188 -20 6 C-23.13129725 7.51356247 -25.466479 9.63870404 -28 12 C-28.91652344 12.84691406 -29.83304688 13.69382812 -30.77734375 14.56640625 C-32.30311587 15.97735402 -33.82779185 17.38927483 -35.34692383 18.80737305 C-49.07475862 31.49742435 -49.07475862 31.49742435 -57.0625 32.3125 C-62.76487325 31.85993069 -68.10871095 30.0482566 -72.80859375 26.71875 C-75.43847684 22.92482029 -73.61870022 17.32542634 -73 13 C-72.88527344 12.18789063 -72.77054687 11.37578125 -72.65234375 10.5390625 C-72.04061689 7.34382899 -71.35478725 5.34370014 -69 3.0625 C-62.03806997 0.59681645 -55.84583534 0.38272047 -48.91796875 3.03125 C-46.43605221 4.28484532 -44.72243394 5.82823546 -43 8 C-43.61875 8.2475 -44.2375 8.495 -44.875 8.75 C-47.35068687 10.20628639 -47.95125002 11.37812506 -49 14 C-51.57855061 13.57024157 -53.72812837 13.14005508 -56.0625 11.9375 C-58.24137335 10.70962605 -58.24137335 10.70962605 -62 11 C-62.66 14.63 -63.32 18.26 -64 22 C-54.12579567 21.1250705 -50.44894804 18.2490953 -44 11 C-32.03211652 -0.47314814 -16.12345885 -11.30262568 0 0 Z " fill="#DDDDDD" transform="translate(190,350)"/>
<path d="M0 0 C2.89376573 2.31501259 3.5947119 4.17674714 4.265625 7.79296875 C4.63032231 11.22720174 4.62327425 14.54832098 4.5 18 C4.17 18 3.84 18 3.5 18 C2.51 13.05 1.52 8.1 0.5 3 C-5.9011164 0.86629453 -10.25778317 0.15591744 -16.50390625 2.87109375 C-22.50178025 6.37288281 -27.43754801 11.30030333 -32.5 16 C-35.12855591 18.38154622 -37.79036623 20.71133778 -40.5 23 C-41.428125 23.804375 -42.35625 24.60875 -43.3125 25.4375 C-48.01328394 27.74180585 -52.35989995 27.79667721 -57.5 27 C-60.9375 25 -60.9375 25 -63.5 23 C-64.82 23 -66.14 23 -67.5 23 C-67.5 23.66 -67.5 24.32 -67.5 25 C-66.819375 25.268125 -66.13875 25.53625 -65.4375 25.8125 C-63.31946759 26.66872587 -61.23854781 27.6188256 -59.1875 28.625 C-53.5957273 30.71006779 -49.05523055 30.94437175 -43.625 28.5625 C-38.23722696 25.57396964 -33.94408813 21.20877333 -29.5 17 C-15.91078474 4.28423206 -15.91078474 4.28423206 -8.75 3.6875 C-5.5 4 -5.5 4 -2.5 5 C-0.8879491 11.76485645 -0.23381405 18.04958914 -0.5 25 C-4.86729568 27.44372275 -8.57802096 27.80470451 -13.5 27 C-16.698105 25.61351037 -19.59626344 23.92209512 -22.5 22 C-21.12849168 16.81874633 -17.8766424 13.84527063 -13.5 11 C-10.0625 10.125 -10.0625 10.125 -7.5 10 C-5.90861915 14.17737474 -5.28721942 17.53160785 -5.5 22 C-10.28063737 22.33353284 -12.49189105 21.49152719 -16.5 19 C-17.985 19.495 -17.985 19.495 -19.5 20 C-14.41545174 24.14792095 -12.17804277 25.35147594 -5.5 25 C-4.51 24.34 -3.52 23.68 -2.5 23 C-2.4437721 20.03471821 -2.54316196 17.31149974 -2.8125 14.375 C-2.9043457 13.17230469 -2.9043457 13.17230469 -2.99804688 11.9453125 C-3.15148508 9.96241876 -3.32395693 7.98101481 -3.5 6 C-13.45033186 6.04078005 -17.80302925 9.52970688 -24.828125 16.11328125 C-25.43172852 16.67821289 -26.03533203 17.24314453 -26.65722656 17.82519531 C-27.85534746 18.95474331 -29.04532623 20.09301261 -30.22558594 21.24121094 C-37.81177903 28.49851032 -44.53977189 32.44659784 -55.203125 32.43359375 C-60.69065095 31.71189306 -64.94409694 29.01335321 -69.5 26 C-70.16 26.99 -70.82 27.98 -71.5 29 C-70.819375 29.2475 -70.13875 29.495 -69.4375 29.75 C-66.5 31 -66.5 31 -63.375 33.0625 C-58.76318587 35.81322727 -53.7540902 35.80997865 -48.5 36 C-48.5 36.33 -48.5 36.66 -48.5 37 C-49.2425 37.144375 -49.985 37.28875 -50.75 37.4375 C-53.37932248 37.91370217 -53.37932248 37.91370217 -55.36328125 38.640625 C-59.65440996 39.36235049 -63.71665465 36.86416855 -67.5 35 C-70.625 32.75 -70.625 32.75 -72.5 31 C-75.47114488 32.04863937 -77.77297886 33.18989834 -80.375 35 C-86.90037097 39.17623742 -93.91408412 39.9098867 -101.5 39 C-104.67299535 37.94691352 -107.57697742 36.61668409 -110.5 35 C-110.5 34.01 -110.5 33.02 -110.5 32 C-109.736875 32.309375 -108.97375 32.61875 -108.1875 32.9375 C-103.81590744 34.66580404 -100.45351386 35.18943974 -95.75 35.25 C-94.55890625 35.27578125 -93.3678125 35.3015625 -92.140625 35.328125 C-84.74843711 34.66187631 -80.00666215 31.14398175 -74.6875 26.375 C-74.0793042 25.850271 -73.4711084 25.32554199 -72.84448242 24.78491211 C-70.00884909 22.32153274 -67.34442733 19.83578441 -64.7578125 17.10546875 C-62.40923794 14.66310127 -60.45727585 12.65907393 -57.5 11 C-53.42960554 11.15595381 -50.16244425 12.26625738 -46.5 14 C-46.5 17.6860549 -47.18858396 19.14925356 -49.5 22 C-52.4375 22.5 -52.4375 22.5 -55.5 22 C-56.85622245 21.03126968 -58.19417053 20.03565785 -59.5 19 C-60.49 19.33 -61.48 19.66 -62.5 20 C-59.17878525 23.4319219 -57.24254437 25.1610198 -52.4375 25.5 C-43.42020639 25.34205377 -37.21815833 16.84592484 -31.03222656 11.0715332 C-21.66750013 2.42520907 -13.09669658 -3.74191331 0 0 Z " fill="#7A7A7A" transform="translate(312.5,351)"/>
<path d="M0 0 C0.63164062 0.433125 1.26328125 0.86625 1.9140625 1.3125 C1.9140625 2.3025 1.9140625 3.2925 1.9140625 4.3125 C-1.0859375 5.3125 -1.0859375 5.3125 -3.1796875 4.31640625 C-3.97375 3.84074219 -4.7678125 3.36507813 -5.5859375 2.875 C-11.24257233 -0.07700477 -15.80446298 -0.58753217 -22.0859375 0.3125 C-22.86710937 0.415625 -23.64828125 0.51875 -24.453125 0.625 C-27.21283086 1.43370501 -28.27717095 2.03824205 -30.0859375 4.3125 C-32.39961109 10.95165866 -33.0859375 18.33414617 -33.0859375 25.3125 C-25.54070853 30.30304515 -19.20111347 32.97912852 -10.0859375 31.3125 C-3.02089021 28.65836774 2.49496524 22.35674241 7.9140625 17.3125 C9.72294745 15.6626943 11.53534682 14.01673208 13.3515625 12.375 C14.15464844 11.64410156 14.95773438 10.91320312 15.78515625 10.16015625 C20.40829013 6.14778501 23.25279151 5.95661607 29.171875 6.04296875 C32.58709888 6.37865315 35.0464012 7.45239537 37.9140625 9.3125 C37.2540625 10.6325 36.5940625 11.9525 35.9140625 13.3125 C33.74531998 12.80646008 31.91438623 12.31266187 29.9140625 11.3125 C26.6872549 10.90668659 24.0974106 10.6360613 21.19287109 12.29638672 C19.41161724 13.70652436 17.75497567 15.19198954 16.1015625 16.75 C15.19579468 17.56392212 15.19579468 17.56392212 14.27172852 18.39428711 C12.47056348 20.01784223 10.69084311 21.66234286 8.9140625 23.3125 C7.0622815 25.00261758 5.20843205 26.69047463 3.3515625 28.375 C2.60777344 29.06722656 1.86398438 29.75945312 1.09765625 30.47265625 C-5.49264495 36.02548607 -11.25077987 36.77786605 -19.6875 36.73046875 C-25.09472939 36.06544169 -28.83402486 33.5762921 -33.0859375 30.3125 C-34.00503906 29.72082031 -34.92414063 29.12914062 -35.87109375 28.51953125 C-38.0859375 26.3125 -38.0859375 26.3125 -38.42578125 23.24609375 C-38.00579731 19.59671877 -37.57953161 15.95275655 -37.0859375 12.3125 C-37.0034375 11.260625 -36.9209375 10.20875 -36.8359375 9.125 C-36.09552108 2.31316893 -36.09552108 2.31316893 -33.31640625 -0.44140625 C-22.86390622 -7.24813633 -10.3540573 -6.44517688 0 0 Z " fill="#F7F7F7" transform="translate(148.0859375,350.6875)"/>
<path d="M0 0 C0.825 0.5775 1.65 1.155 2.5 1.75 C2.995 2.1625 3.49 2.575 4 3 C3.67 3.99 3.34 4.98 3 6 C-0.50625349 5.3506938 -2.96542279 3.82074633 -6 2 C-11.76730356 0.2207255 -18.05161171 -0.19644742 -23.6953125 2.09375 C-28.53200147 4.87447638 -32.47857568 8.1550347 -36.2890625 12.20703125 C-39.31568238 15.37876304 -42.63497045 18.19580871 -46 21 C-46.5878125 21.50015625 -47.175625 22.0003125 -47.78125 22.515625 C-52.14320439 25.96553438 -55.40356625 27 -61 27 C-64.36232538 25.69242902 -66.45949455 24.54050545 -69 22 C-69.11216723 17.24223989 -68.28616228 12.19129751 -66 8 C-61.7583342 5.1722228 -57.98284464 5.33562072 -53 6 C-50.58950862 7.08922007 -49.04624924 8.27684275 -47 10 C-47.66 11.32 -48.32 12.64 -49 14 C-51.57855061 13.57024157 -53.72812837 13.14005508 -56.0625 11.9375 C-58.24137335 10.70962605 -58.24137335 10.70962605 -62 11 C-62.66 14.63 -63.32 18.26 -64 22 C-54.12579567 21.1250705 -50.44894804 18.2490953 -44 11 C-32.03211652 -0.47314814 -16.12345885 -11.30262568 0 0 Z " fill="#F7F7F7" transform="translate(190,350)"/>
<path d="M0 0 C4.72613681 0.5593541 7.88683759 2.61008102 11.81640625 5.13671875 C14.0107085 6.28668423 14.0107085 6.28668423 16.27734375 5.14453125 C16.84582031 4.76683594 17.41429687 4.38914062 18 4 C18 7 18 7 16.7421875 8.3671875 C16.12601562 8.86476563 15.50984375 9.36234375 14.875 9.875 C11.99952295 12.25329118 9.25577272 14.69636542 6.59765625 17.3125 C5.99518066 17.89789551 5.39270508 18.48329102 4.77197266 19.08642578 C3.56688078 20.26136631 2.37211796 21.44701316 1.18896484 22.64404297 C-2.68453739 26.37493538 -5.38697289 28.00661914 -11 28 C-13.73455259 27.04025403 -15.56401753 25.64055962 -18 24 C-17.68151851 21.02750614 -16.96374181 19.96160897 -14.875 17.75 C-11.28872692 15.56705117 -9.13387309 15.54068077 -5 16 C-4.01 16.66 -3.02 17.32 -2 18 C0.12816413 17.84311576 0.12816413 17.84311576 2 17 C2.33 16.34 2.66 15.68 3 15 C-2.58025638 12.58691616 -8.0797544 11.43113491 -14 13 C-19.2634524 16.19089205 -23.60344931 20.74179343 -28 25 C-29.98773349 26.86805638 -31.99228889 28.71573312 -34 30.5625 C-34.825 31.34753906 -35.65 32.13257813 -36.5 32.94140625 C-42.04822378 37.51002177 -46.76957639 38.66044809 -53.8125 38.484375 C-59.13362802 37.67577221 -63.91945939 35.52932312 -68 32 C-69.75858839 27.59560745 -68.69150527 22.98887896 -67.9375 18.4375 C-67.84017578 17.68275391 -67.74285156 16.92800781 -67.64257812 16.15039062 C-66.9407466 11.89061108 -66.49633444 10.41702667 -63.06640625 7.53515625 C-58.86102225 5.42978566 -55.96315434 4.88278642 -51.3125 4.9375 C-50.31863281 4.94652344 -49.32476562 4.95554687 -48.30078125 4.96484375 C-47.16189453 4.98224609 -47.16189453 4.98224609 -46 5 C-46 5.66 -46 6.32 -46 7 C-47.175625 6.95875 -48.35125 6.9175 -49.5625 6.875 C-53.65596814 6.86774208 -57.10404156 7.70134719 -61 9 C-61.99 9.33 -62.98 9.66 -64 10 C-64.33868777 12.20751848 -64.67071689 14.41605911 -65 16.625 C-65.185625 17.85476563 -65.37125 19.08453125 -65.5625 20.3515625 C-66.16303016 25.1731223 -66.16303016 25.1731223 -66 30 C-64.44301163 31.75132043 -64.44301163 31.75132043 -62.25 32.8125 C-61.55390625 33.21082031 -60.8578125 33.60914063 -60.140625 34.01953125 C-55.40180042 36.19005127 -50.15587919 37.15457992 -45.12548828 35.31420898 C-39.98959248 32.80472689 -36.17411983 29.75260496 -32.125 25.75 C-30.91656818 24.59113149 -29.70561653 23.43488499 -28.4921875 22.28125 C-27.90405273 21.72179687 -27.31591797 21.16234375 -26.70996094 20.5859375 C-14.92843343 9.65892398 -14.92843343 9.65892398 -5.6875 9.69921875 C-1.48798807 10.16922227 1.38759308 11.85931442 5 14 C5 13.01 5 12.02 5 11 C-0.673142 8.54582388 -5.81839396 6.53753096 -12 6 C-12 5.67 -12 5.34 -12 5 C-4.29198093 4.52808047 0.49270707 5.66180471 7 10 C7.99 10 8.98 10 10 10 C10 9.34 10 8.68 10 8 C8.31195879 6.70492087 8.31195879 6.70492087 6.1875 5.5 C5.47980469 5.0771875 4.77210938 4.654375 4.04296875 4.21875 C3.36878906 3.8165625 2.69460937 3.414375 2 3 C1.01 2.34 0.02 1.68 -1 1 C-0.67 0.67 -0.34 0.34 0 0 Z " fill="#747474" transform="translate(183,345)"/>
<path d="M0 0 C0.33848652 1.89492006 0.67056911 3.79098466 1 5.6875 C1.185625 6.74324219 1.37125 7.79898437 1.5625 8.88671875 C1.95375412 11.67091099 2.20226567 14.19788051 2 17 C-0.26087778 19.62261823 -1.82621987 19.9732646 -5.25 20.5 C-10.08391625 19.85547783 -13.11311001 17.82682908 -17 15 C-16.34 14.01 -15.68 13.02 -15 12 C-14.34 12.28875 -13.68 12.5775 -13 12.875 C-9.37500535 14.23437299 -5.76653307 15.10624639 -2 16 C-2.99 10.06 -2.99 10.06 -4 4 C-11.10774361 6.73481541 -15.67771908 9.98910616 -21 15.375 C-29.33365925 23.70865925 -36.38497726 29.95427825 -48.5 30.5 C-56.47589255 30.5 -61.63878488 27.56702624 -68 23 C-67.34 21.68 -66.68 20.36 -66 19 C-65.01773438 19.6496875 -65.01773438 19.6496875 -64.015625 20.3125 C-56.90396509 24.65181791 -51.30628235 26.32012645 -43 25 C-35.62885201 22.98249438 -30.40771999 17.09722889 -25 12 C-22.37213469 9.61834909 -19.70421396 7.29431205 -17 5 C-16.43925781 4.49082031 -15.87851562 3.98164063 -15.30078125 3.45703125 C-10.44626807 -0.58273846 -6.15247028 -0.55706471 0 0 Z " fill="#F7F7F7" transform="translate(309,357)"/>
<path d="M0 0 C1 3 1 3 1 6 C6.04308144 9.02584887 9.27224689 9.45458358 15 9 C17.88214887 8.11785113 17.88214887 8.11785113 20 7 C18.6875 9 18.6875 9 16 11 C10.59063791 11.87765001 6.33462039 11.77650641 1.5625 9 C0.2940625 8.01 0.2940625 8.01 -1 7 C-2.32 7 -3.64 7 -5 7 C-5 7.66 -5 8.32 -5 9 C-6.29233607 10.37310707 -7.62437146 11.71034824 -9 13 C-8.40960938 13.28617187 -7.81921875 13.57234375 -7.2109375 13.8671875 C-5 15 -5 15 -1.625 17.125 C5.20799841 20.5414992 13.85851824 20.18372103 21.015625 17.8515625 C25.42477882 16.06738586 28.43259914 13.2748852 31.75 9.9375 C38.36958488 3.41868164 38.36958488 3.41868164 42 2 C42.4125 2.78375 42.825 3.5675 43.25 4.375 C45.13042606 7.19563909 45.94234406 7.77693762 49 9 C51.35564596 9.44811137 51.35564596 9.44811137 53.75 9.625 C54.54921875 9.69976562 55.3484375 9.77453125 56.171875 9.8515625 C57.07679688 9.92503906 57.07679688 9.92503906 58 10 C58 10.33 58 10.66 58 11 C51.0769444 11.49254941 47.825005 10.97159432 42 7 C38.67221575 7.60738122 38.67221575 7.60738122 36 9 C36 9.66 36 10.32 36 11 C35.34 11 34.68 11 34 11 C35.32 12.32 36.64 13.64 38 15 C37.67 15.99 37.34 16.98 37 18 C35.68 17.01 34.36 16.02 33 15 C30.21175914 16.33215952 27.6868225 17.83918567 25.125 19.5625 C21.67446174 21.71908641 19.12818959 22.75230862 15 23 C14.236875 23.05027344 13.47375 23.10054688 12.6875 23.15234375 C4.96499791 23.44664642 -0.6052697 21.98512131 -6.6875 17.1875 C-9.70937777 14.64990006 -9.70937777 14.64990006 -12.5625 15.4375 C-14.38674011 16.60688468 -16.19705769 17.79803846 -18 19 C-25.02500544 23.68333696 -31.2374825 23.69272982 -39.4375 22.5 C-45.64934061 19.88448816 -52.7690276 15.37062826 -57 10 C-56.8125 6.375 -56.8125 6.375 -56 3 C-55.34 2.67 -54.68 2.34 -54 2 C-54.04125 3.175625 -54.0825 4.35125 -54.125 5.5625 C-53.75759631 8.74478115 -53.22051589 9.79309126 -50.84765625 12.01953125 C-48.28459646 13.80727486 -45.71654465 15.45603453 -43 17 C-42.04480469 17.58201172 -42.04480469 17.58201172 -41.0703125 18.17578125 C-35.38448034 20.43938613 -28.07898379 19.56379221 -22.3125 18 C-14.11226516 13.04891481 -7.06788531 6.41914222 0 0 Z " fill="#777777" transform="translate(164,367)"/>
<path d="M0 0 C0.55945313 0.52980469 1.11890625 1.05960937 1.6953125 1.60546875 C1.6953125 2.59546875 1.6953125 3.58546875 1.6953125 4.60546875 C-2.22999172 4.60546875 -3.12854146 4.34888942 -6.3671875 2.60546875 C-11.73146865 0.16076357 -16.48668007 -0.46280945 -22.3046875 0.60546875 C-28.79900767 3.23778195 -33.60440733 7.56420254 -38.37109375 12.58984375 C-41.48266189 15.83341782 -44.85282933 18.732407 -48.3046875 21.60546875 C-48.89121094 22.1159375 -49.47773438 22.62640625 -50.08203125 23.15234375 C-53.74163024 26.10657785 -56.55736552 27.33431051 -61.3046875 27.046875 C-64.7899251 26.27767217 -67.34953199 24.57557243 -70.3046875 22.60546875 C-70.3046875 21.61546875 -70.3046875 20.62546875 -70.3046875 19.60546875 C-66.3046875 19.60546875 -66.3046875 19.60546875 -64.4921875 20.66796875 C-61.22115501 22.06983982 -58.57002058 21.79816668 -55.3046875 20.60546875 C-52.20108552 18.33262327 -49.56120473 15.65563342 -46.8671875 12.91796875 C-33.66694851 -0.21059473 -18.51682407 -12.05677452 0 0 Z " fill="#F6F6F6" transform="translate(234.3046875,350.39453125)"/>
<path d="M0 0 C0 1.32 0 2.64 0 4 C-2.99451698 3.36215446 -5.41026785 2.33493592 -8.125 0.9375 C-14.35808892 -1.87149073 -19.93883656 -2.06751889 -26.3828125 0.1796875 C-30.40237523 2.00838794 -33.48429749 4.63169363 -36.75 7.5625 C-37.64972534 8.3500769 -37.64972534 8.3500769 -38.56762695 9.15356445 C-41.49328924 11.72568175 -44.37941779 14.33897296 -47.24609375 16.9765625 C-47.74463867 17.43474365 -48.24318359 17.8929248 -48.75683594 18.36499023 C-50.10899849 19.61493299 -51.45130442 20.87551405 -52.79296875 22.13671875 C-56.25719641 25.06138529 -59.45953338 25.33859575 -63.92578125 25.2890625 C-67.33852157 24.81346404 -69.45644189 23.22561335 -72 21 C-72 20.01 -72 19.02 -72 18 C-68 18 -68 18 -65 20 C-62.21555423 20.75383338 -62.21555423 20.75383338 -59 20 C-56.03293279 17.99540425 -53.56477934 15.48757863 -51 13 C-35.47596637 -1.47793972 -20.91273761 -14.08152272 0 0 Z " fill="#F6F6F6" transform="translate(279,352)"/>
<path d="M0 0 C3.6875 1.5 3.6875 1.5 6 3 C5.34 4.32 4.68 5.64 4 7 C1.83125748 6.49396008 0.00032373 6.00016187 -2 5 C-6.83943694 4.77985835 -10.78238454 5.33907454 -14.484375 8.58984375 C-15.59048777 9.6883144 -16.67858415 10.80516113 -17.75 11.9375 C-18.94620676 13.12285904 -20.14682627 14.30377963 -21.3515625 15.48046875 C-21.95258789 16.07134277 -22.55361328 16.6622168 -23.17285156 17.27099609 C-26.01080394 19.95650902 -29.0282883 22.3716297 -32.125 24.75 C-33.15882813 25.54921875 -34.19265625 26.3484375 -35.2578125 27.171875 C-41.41561343 31.27707562 -48.82648628 30.59378078 -56 30 C-59.01299393 29.06938108 -61.42078639 27.79508083 -64 26 C-64.825 25.46375 -65.65 24.9275 -66.5 24.375 C-66.995 23.92125 -67.49 23.4675 -68 23 C-68 22.34 -68 21.68 -68 21 C-66.25 20.34765625 -66.25 20.34765625 -64 20 C-62.0625 20.99609375 -62.0625 20.99609375 -60 22.4375 C-54.37839864 25.73834159 -49.37793204 25.99843471 -43 25 C-35.53332893 22.86294231 -29.99643266 16.52653403 -24.57885742 11.25341797 C-11.16100546 -1.78372233 -11.16100546 -1.78372233 0 0 Z " fill="#F7F7F7" transform="translate(266,357)"/>
<path d="M0 0 C3.1875 1.5 3.1875 1.5 5 3 C4.34 4.32 3.68 5.64 3 7 C0.83125748 6.49396008 -0.99967627 6.00016187 -3 5 C-5.92328907 4.39098144 -7.19348825 4.19887786 -10 5 C-13.64793238 7.67515041 -16.78323748 10.82890131 -20 14 C-24.10226769 17.72864108 -28.3166873 21.32413329 -32.625 24.8125 C-33.31851563 25.37582031 -34.01203125 25.93914062 -34.7265625 26.51953125 C-41.51530474 30.94037886 -49.18065872 30.74087366 -57 30 C-60.00681537 29.06382896 -62.42898551 27.80229408 -65 26 C-66.2375 25.13375 -66.2375 25.13375 -67.5 24.25 C-67.995 23.8375 -68.49 23.425 -69 23 C-68.505 21.515 -68.505 21.515 -68 20 C-64.61146103 20.410732 -62.86175104 21.09504616 -60 23.0625 C-54.69228944 26.17789533 -48.92728856 26.02242274 -43 25 C-36.56161264 22.18630887 -31.45413361 17.8445621 -26.6796875 12.76171875 C-23.66353503 9.59826581 -20.3521877 6.79810709 -17 4 C-15.6078125 2.7934375 -15.6078125 2.7934375 -14.1875 1.5625 C-9.49567247 -0.73741546 -5.13303893 -0.67868448 0 0 Z " fill="#F7F7F7" transform="translate(224,357)"/>
<path d="M0 0 C1.90997597 1.19628388 3.72843171 2.43080317 5.5078125 3.8125 C4.5178125 4.8025 3.5278125 5.7925 2.5078125 6.8125 C1.05375 5.8225 1.05375 5.8225 -0.4296875 4.8125 C-4.78197648 2.35059916 -8.58722327 1.96591365 -13.4921875 2.8125 C-18.60148517 5.01478348 -21.86351506 7.97139488 -25.68359375 11.953125 C-33.09478257 19.57240335 -42.34696855 28.10969158 -53.3046875 29.1875 C-57.86368301 29.06638816 -61.85881318 27.57591145 -65.4921875 24.8125 C-66.71875 22.671875 -66.71875 22.671875 -67.4921875 20.8125 C-63.4921875 20.8125 -63.4921875 20.8125 -61.4296875 22.3125 C-56.80963399 24.67167626 -52.56164077 24.75907841 -47.4921875 23.8125 C-43.98556774 22.00243903 -41.34009555 19.52034699 -38.4921875 16.8125 C-36.99388224 15.43739756 -35.49553765 14.06233731 -33.99609375 12.68847656 C-32.95464519 11.73208396 -31.91556323 10.77310766 -30.87890625 9.81152344 C-21.8064825 1.42128065 -12.7434386 -6.07210867 0 0 Z " fill="#F6F6F6" transform="translate(227.4921875,353.1875)"/>
<path d="M0 0 C2.1953125 1.09375 2.1953125 1.09375 5.3828125 3.09375 C5.3828125 4.41375 5.3828125 5.73375 5.3828125 7.09375 C0.70622251 5.27507612 0.70622251 5.27507612 -1.484375 4.046875 C-5.3974157 2.29819014 -9.42576806 2.57819202 -13.6171875 3.09375 C-18.71501929 5.53646106 -22.67219828 9.7863127 -26.828125 13.578125 C-29.80076904 16.25933335 -32.81137227 18.88320724 -35.8671875 21.46875 C-36.82109375 22.28085937 -37.775 23.09296875 -38.7578125 23.9296875 C-44.04937705 27.93450548 -48.34976686 29.74783254 -54.9375 29.59765625 C-59.80429027 28.68247266 -63.64177675 25.93574577 -67.6171875 23.09375 C-66.6271875 21.60875 -66.6271875 21.60875 -65.6171875 20.09375 C-61.6171875 22.09375 -61.6171875 22.09375 -59.79296875 23.12109375 C-55.43292634 25.07019709 -51.25119765 25.05689721 -46.6171875 24.09375 C-42.45141641 21.64718603 -39.07758383 18.43031731 -35.6171875 15.09375 C-33.9364386 13.51183917 -32.25027976 11.93604363 -30.56005859 10.36425781 C-29.462713 9.33812732 -28.37386976 8.3027977 -27.29541016 7.25683594 C-19.46237182 -0.20059466 -10.80415443 -3.74114004 0 0 Z " fill="#F6F6F6" transform="translate(269.6171875,352.90625)"/>
<path d="M0 0 C1.875 0.3125 1.875 0.3125 4 1 C6.26598448 4.39897673 6.23742654 5.56319173 6.1953125 9.54296875 C6.18564453 11.15268555 6.18564453 11.15268555 6.17578125 12.79492188 C6.15902344 13.91447266 6.14226562 15.03402344 6.125 16.1875 C6.11597656 17.31865234 6.10695312 18.44980469 6.09765625 19.61523438 C6.07406862 22.41036828 6.041153 25.20507845 6 28 C3.03 28 0.06 28 -3 28 C-3.08714316 24.08347368 -3.14043985 20.16719689 -3.1875 16.25 C-3.21263672 15.13882813 -3.23777344 14.02765625 -3.26367188 12.8828125 C-3.27333984 11.81289062 -3.28300781 10.74296875 -3.29296875 9.640625 C-3.3086792 8.65610352 -3.32438965 7.67158203 -3.34057617 6.65722656 C-2.94965182 3.60717591 -2.03157056 2.25886277 0 0 Z " fill="#2B599F" transform="translate(207,207)"/>
<path d="M0 0 C3.16115776 1.36983503 3.9927092 1.9890638 6 5 C6.22705078 7.4519043 6.22705078 7.4519043 6.1953125 10.32421875 C6.18564453 11.86625977 6.18564453 11.86625977 6.17578125 13.43945312 C6.15902344 14.51130859 6.14226562 15.58316406 6.125 16.6875 C6.11597656 17.77095703 6.10695312 18.85441406 6.09765625 19.97070312 C6.0740734 22.6473571 6.04116126 25.32356797 6 28 C3.03 28 0.06 28 -3 28 C-3.08736736 24.27098186 -3.14051482 20.54222835 -3.1875 16.8125 C-3.21263672 15.75740234 -3.23777344 14.70230469 -3.26367188 13.61523438 C-3.27333984 12.59365234 -3.28300781 11.57207031 -3.29296875 10.51953125 C-3.31653442 9.11344604 -3.31653442 9.11344604 -3.34057617 7.67895508 C-2.93729071 4.50673189 -1.79632118 2.61264246 0 0 Z " fill="#2E5BA0" transform="translate(226,207)"/>
<path d="M0 0 C3 1 3 1 4 3 C4.35619221 11.38099316 4.02443589 19.67645841 3 28 C-0.3 28 -3.6 28 -7 28 C-6.60278592 24.45516528 -6.18307261 20.91548023 -5.75 17.375 C-5.64042969 16.37597656 -5.53085938 15.37695312 -5.41796875 14.34765625 C-4.68109297 8.49143293 -3.78585725 4.58370319 0 0 Z " fill="#3460A3" transform="translate(155,207)"/>
<path d="M0 0 C3 1 3 1 4 3 C5.14057508 21.71884984 5.14057508 21.71884984 2 28 C-0.97 28 -3.94 28 -7 28 C-4.72900763 4.72900763 -4.72900763 4.72900763 0 0 Z " fill="#325FA2" transform="translate(136,207)"/>
<path d="M0 0 C4.55771003 3.83414559 5.96973015 7.13128191 6.8125 12.875 C6.93302734 13.55691406 7.05355469 14.23882812 7.17773438 14.94140625 C7.91098644 19.34091864 8.11054115 23.54344629 8 28 C5.03 28 2.06 28 -1 28 C-1.87114086 22.0109066 -2.13666786 16.1058062 -2.1875 10.0625 C-2.20039063 9.30461182 -2.21328125 8.54672363 -2.2265625 7.76586914 C-2.23002776 5.84243271 -2.12296503 3.91950497 -2 2 C-1.34 1.34 -0.68 0.68 0 0 Z " fill="#325FA2" transform="translate(279,207)"/>
<path d="M0 0 C1.89453125 0.640625 1.89453125 0.640625 4 2 C5.01171875 4.609375 5.01171875 4.609375 5.6875 7.75 C5.91824219 8.77609375 6.14898437 9.8021875 6.38671875 10.859375 C7.53200211 16.72439299 8.10277772 22.03889195 8 28 C5.36 28 2.72 28 0 28 C-1.66037937 21.83287661 -2.21569433 15.85798327 -2.25 9.5 C-2.25902344 8.79359375 -2.26804687 8.0871875 -2.27734375 7.359375 C-2.24762427 2.24762427 -2.24762427 2.24762427 0 0 Z " fill="#2F5DA1" transform="translate(298,207)"/>
<path d="M0 0 C1.3082869 2.15482548 2.06983474 3.42300478 1.76171875 5.96875 C0.5445855 9.21443866 -1.49747368 10.31496683 -4.42578125 12.0078125 C-10.32171106 14.28029531 -16.92059002 14.26134025 -22.765625 11.8671875 C-25.1875 10.5 -25.1875 10.5 -27.29296875 9.09375 C-28.94276814 7.82016966 -28.94276814 7.82016966 -31 8 C-29.25161252 12.24228028 -27.19856681 13.24920298 -23.17578125 15.1171875 C-20.15838507 16.3414811 -17.15829479 17.2104263 -14 18 C-14 18.33 -14 18.66 -14 19 C-22.66435737 19.70729448 -27.21455074 17.42835941 -34 12 C-36.49370127 13.15093905 -38.60875485 14.42348164 -40.875 16 C-46.60782909 19.66901062 -51.33358023 20.44442798 -58 20 C-58.66 19.34 -59.32 18.68 -60 18 C-59.05898438 17.82984375 -58.11796875 17.6596875 -57.1484375 17.484375 C-46.01810984 15.31822428 -40.4469172 11.60071645 -32.26953125 3.92578125 C-30 2 -30 2 -27 1 C-27.33 2.65 -27.66 4.3 -28 6 C-21.7279577 10.24196098 -16.6039966 12.29170455 -9 11 C-5.91151183 10.13644245 -3.3941358 9.16909954 -1 7 C0.13956727 3.37346335 0.13956727 3.37346335 0 0 Z " fill="#7C7C7C" transform="translate(317,370)"/>
<path d="M0 0 C0.99386719 0.00902344 1.98773438 0.01804687 3.01171875 0.02734375 C4.15060547 0.04474609 4.15060547 0.04474609 5.3125 0.0625 C5.3125 0.7225 5.3125 1.3825 5.3125 2.0625 C4.136875 2.02125 2.96125 1.98 1.75 1.9375 C-2.34346814 1.93024208 -5.79154156 2.76384719 -9.6875 4.0625 C-10.6775 4.3925 -11.6675 4.7225 -12.6875 5.0625 C-13.02618777 7.27001848 -13.35821689 9.47855911 -13.6875 11.6875 C-13.873125 12.91726563 -14.05875 14.14703125 -14.25 15.4140625 C-14.85053016 20.2356223 -14.85053016 20.2356223 -14.6875 25.0625 C-13.13051163 26.81382043 -13.13051163 26.81382043 -10.9375 27.875 C-10.24140625 28.27332031 -9.5453125 28.67164063 -8.828125 29.08203125 C-4.08930042 31.25255127 1.15662081 32.21707992 6.18701172 30.37670898 C11.32290752 27.86722689 15.13838017 24.81510496 19.1875 20.8125 C20.39593182 19.65363149 21.60688347 18.49738499 22.8203125 17.34375 C23.40844727 16.78429687 23.99658203 16.22484375 24.60253906 15.6484375 C36.3843141 4.7211944 36.3843141 4.7211944 45.69140625 4.76171875 C49.67187983 5.21849441 52.05115349 6.79373721 55.3125 9.0625 C52.3125 10.0625 52.3125 10.0625 50.4296875 9.1796875 C49.73101562 8.81101562 49.03234375 8.44234375 48.3125 8.0625 C44.39228735 7.01268034 41.2475132 7.04266773 37.3125 8.0625 C32.04416577 11.23984115 27.70658207 15.80668437 23.3125 20.0625 C21.32476651 21.93055638 19.32021111 23.77823312 17.3125 25.625 C16.4875 26.41003906 15.6625 27.19507813 14.8125 28.00390625 C9.26427622 32.57252177 4.54292361 33.72294809 -2.5 33.546875 C-7.82112802 32.73827221 -12.60695939 30.59182312 -16.6875 27.0625 C-18.44608839 22.65810745 -17.37900527 18.05137896 -16.625 13.5 C-16.52767578 12.74525391 -16.43035156 11.99050781 -16.33007812 11.21289062 C-15.6282466 6.95311108 -15.18383444 5.47952667 -11.75390625 2.59765625 C-7.54852225 0.49228566 -4.65065434 -0.05471358 0 0 Z " fill="#868686" transform="translate(131.6875,349.9375)"/>
<path d="M0 0 C3.875 0.875 3.875 0.875 5 2 C5.08685603 3.56172745 5.10702219 5.12729344 5.09765625 6.69140625 C5.09443359 7.63564453 5.09121094 8.57988281 5.08789062 9.55273438 C5.07951172 10.54595703 5.07113281 11.53917969 5.0625 12.5625 C5.05798828 13.55958984 5.05347656 14.55667969 5.04882812 15.58398438 C5.03700007 18.05604849 5.02051849 20.52799518 5 23 C3.02 23 1.04 23 -1 23 C-1.02894547 19.54168414 -1.04678 16.08339928 -1.0625 12.625 C-1.07087891 11.64015625 -1.07925781 10.6553125 -1.08789062 9.640625 C-1.09111328 8.69960937 -1.09433594 7.75859375 -1.09765625 6.7890625 C-1.10289307 5.91975098 -1.10812988 5.05043945 -1.11352539 4.15478516 C-1 2 -1 2 0 0 Z " fill="#3864A5" transform="translate(216,104)"/>
<path d="M0 0 C1.9375 0.375 1.9375 0.375 4 1 C5.20029908 3.40059817 5.11459743 4.89360649 5.09765625 7.5703125 C5.09282227 8.91416016 5.09282227 8.91416016 5.08789062 10.28515625 C5.07951172 11.22230469 5.07113281 12.15945312 5.0625 13.125 C5.05798828 14.06988281 5.05347656 15.01476562 5.04882812 15.98828125 C5.03702357 18.32558387 5.02055759 20.66276061 5 23 C3.02 23 1.04 23 -1 23 C-1.02894547 19.54168414 -1.04678 16.08339928 -1.0625 12.625 C-1.07087891 11.64015625 -1.07925781 10.6553125 -1.08789062 9.640625 C-1.09111328 8.69960937 -1.09433594 7.75859375 -1.09765625 6.7890625 C-1.10289307 5.91975098 -1.10812988 5.05043945 -1.11352539 4.15478516 C-1 2 -1 2 0 0 Z " fill="#426BA9" transform="translate(226,104)"/>
<path d="M0 0 C1.32 0.66 2.64 1.32 4 2 C4 8.93 4 15.86 4 23 C2.02 23 0.04 23 -2 23 C-2.05789006 19.54173658 -2.09355821 16.08359707 -2.125 12.625 C-2.14175781 11.64015625 -2.15851563 10.6553125 -2.17578125 9.640625 C-2.18222656 8.69960937 -2.18867188 7.75859375 -2.1953125 6.7890625 C-2.20578613 5.91975098 -2.21625977 5.05043945 -2.22705078 4.15478516 C-2 2 -2 2 0 0 Z " fill="#446DAA" transform="translate(207,104)"/>
<path d="M0 0 C2.89376573 2.31501259 3.5947119 4.17674714 4.265625 7.79296875 C4.63032231 11.22720174 4.62327425 14.54832098 4.5 18 C4.17 18 3.84 18 3.5 18 C2.51 13.05 1.52 8.1 0.5 3 C-5.9011164 0.86629453 -10.25778317 0.15591744 -16.50390625 2.87109375 C-22.50178025 6.37288281 -27.43754801 11.30030333 -32.5 16 C-35.12855591 18.38154622 -37.79036623 20.71133778 -40.5 23 C-41.428125 23.804375 -42.35625 24.60875 -43.3125 25.4375 C-48.01587347 27.74307523 -52.35783217 27.79227475 -57.5 27 C-59.95332965 25.9117161 -61.44646934 24.77602651 -63.5 23 C-63.17 22.34 -62.84 21.68 -62.5 21 C-61.695625 21.66 -60.89125 22.32 -60.0625 23 C-56.68198985 25.19812515 -53.85780406 25.77658288 -49.84375 25.5625 C-42.31376763 23.75530423 -36.52996296 16.203514 -31.03222656 11.0715332 C-21.66750013 2.42520907 -13.09669658 -3.74191331 0 0 Z " fill="#8A8A8A" transform="translate(312.5,351)"/>
<path d="M0 0 C5.7097955 0.41778991 8.60957142 2.57546571 13 6 C9.60495437 10.72881356 9.60495437 10.72881356 7.1875 11.8125 C4.11815566 12.07558666 1.07826095 12.05919733 -2 12 C-2.17835515 7.45194365 -1.99785435 4.1205746 0 0 Z " fill="#7C7C7C" transform="translate(128,360)"/>
<path d="M0 0 C2.8125 1.4375 2.8125 1.4375 5.8125 3.4375 C5.4825 4.7575 5.1525 6.0775 4.8125 7.4375 C4.1525 7.4375 3.4925 7.4375 2.8125 7.4375 C2.8125 8.7575 2.8125 10.0775 2.8125 11.4375 C-1.79694716 11.75178049 -3.63092763 11.2827579 -7.1875 8.4375 C-8.5075 8.4375 -9.8275 8.4375 -11.1875 8.4375 C-9.31382877 3.37858768 -5.6232733 -0.99234235 0 0 Z " fill="#7B7B7B" transform="translate(217.1875,361.5625)"/>
<path d="M0 0 C1.21236328 0.01353516 1.21236328 0.01353516 2.44921875 0.02734375 C3.37154297 0.04474609 3.37154297 0.04474609 4.3125 0.0625 C3.9825 0.7225 3.6525 1.3825 3.3125 2.0625 C1.14916383 2.38130743 -0.98373415 2.44157522 -3.16796875 2.5234375 C-9.91547154 3.96708926 -14.68484629 9.80075081 -19.4375 14.4375 C-33.96463219 28.20430897 -33.96463219 28.20430897 -44.125 28.8125 C-51.02317443 28.51756618 -56.04154655 25.86418409 -61.6875 22.0625 C-61.0275 21.7325 -60.3675 21.4025 -59.6875 21.0625 C-59.3575 20.4025 -59.0275 19.7425 -58.6875 19.0625 C-57.965625 19.84625 -57.24375 20.63 -56.5 21.4375 C-52.29239185 25.36460094 -48.74973727 26.62663278 -42.91796875 26.4296875 C-33.70598097 24.91317813 -27.16891341 18.24689282 -20.6875 12.0625 C-7.09377965 -0.1028084 -7.09377965 -0.1028084 0 0 Z " fill="#888888" transform="translate(218.6875,354.9375)"/>
<path d="M0 0 C1.32 0 2.64 0 4 0 C7.81288101 6.10060962 7.14454964 14.06161708 7 21 C5.35 21 3.7 21 2 21 C0.27669093 13.90673679 -0.2494783 7.29031024 0 0 Z " fill="#315EA2" transform="translate(269,146)"/>
<path d="M0 0 C1.92578125 0.6484375 1.92578125 0.6484375 4 2 C4.79296875 4.5390625 4.79296875 4.5390625 5.1875 7.625 C5.40599609 9.22988281 5.40599609 9.22988281 5.62890625 10.8671875 C5.81259766 12.41792969 5.81259766 12.41792969 6 14 C6.11214844 14.84820312 6.22429687 15.69640625 6.33984375 16.5703125 C6.57635057 18.37813173 6.79101457 20.18879296 7 22 C5.02 22 3.04 22 1 22 C0.66131223 19.79248152 0.32928311 17.58394089 0 15.375 C-0.185625 14.14523438 -0.37125 12.91546875 -0.5625 11.6484375 C-1.58031088 3.16062176 -1.58031088 3.16062176 0 0 Z " fill="#3661A4" transform="translate(291,145)"/>
<path d="M0 0 C0.99 0.33 1.98 0.66 3 1 C3.10152799 7.7685324 3.03026944 14.30324864 2 21 C0.02 21 -1.96 21 -4 21 C-4.29190915 14.57799871 -3.53539681 8.24584256 -2 2 C-1.34 1.34 -0.68 0.68 0 0 Z " fill="#3460A3" transform="translate(142,146)"/>
<path d="M0 0 C0.99 0.66 1.98 1.32 3 2 C2.47594437 8.69007182 1.89536075 15.3487487 1 22 C-0.98 22 -2.96 22 -5 22 C-4.71681868 19.4363053 -4.42377507 16.87438474 -4.125 14.3125 C-4.04636719 13.59126953 -3.96773437 12.87003906 -3.88671875 12.12695312 C-2.77663536 2.77663536 -2.77663536 2.77663536 0 0 Z " fill="#3460A3" transform="translate(164,145)"/>
<path d="M0 0 C0.66 0.33 1.32 0.66 2 1 C2.18451025 15.78132118 2.18451025 15.78132118 1 22 C-0.98 22 -2.96 22 -5 22 C-4.74475503 19.08119874 -4.47149924 16.1660237 -4.1875 13.25 C-4.11724609 12.425 -4.04699219 11.6 -3.97460938 10.75 C-3.21404926 3.20524364 -3.21404926 3.20524364 0 0 Z " fill="#3864A5" transform="translate(153,145)"/>
<path d="M0 0 C0.99 0 1.98 0 3 0 C5.04538889 6.95432222 5.58169634 13.77875787 6 21 C4.35 21 2.7 21 1 21 C-0.71175852 17.57648296 -0.42717827 13.71647679 -0.625 9.9375 C-0.70234375 8.67583008 -0.70234375 8.67583008 -0.78125 7.38867188 C-0.89783157 5.26105823 -0.9538259 3.13030492 -1 1 C-0.67 0.67 -0.34 0.34 0 0 Z " fill="#305DA1" transform="translate(281,146)"/>
<path d="M0 0 C16.27159133 -0.96471885 16.27159133 -0.96471885 22.3203125 2.97265625 C25.99098231 7.40306935 26.58711544 13.41273962 27 19 C26.5546875 21.43359375 26.5546875 21.43359375 26 23 C26 22.01 26 21.02 26 20 C25.34 20 24.68 20 24 20 C23.93683594 19.18015625 23.87367188 18.3603125 23.80859375 17.515625 C23.13904519 10.64099355 23.13904519 10.64099355 19.125 5.3125 C14.85810472 3.49411847 10.25439517 3.46995523 5.671875 3.37109375 C2.68233396 2.95587972 1.81487942 2.34318337 0 0 Z " fill="#838383" transform="translate(298,343)"/>
<path d="M0 0 C0.99386719 0.00902344 1.98773438 0.01804687 3.01171875 0.02734375 C4.15060547 0.04474609 4.15060547 0.04474609 5.3125 0.0625 C5.3125 0.7225 5.3125 1.3825 5.3125 2.0625 C4.136875 2.02125 2.96125 1.98 1.75 1.9375 C-2.34346814 1.93024208 -5.79154156 2.76384719 -9.6875 4.0625 C-10.6775 4.3925 -11.6675 4.7225 -12.6875 5.0625 C-13.02618777 7.27001848 -13.35821689 9.47855911 -13.6875 11.6875 C-13.873125 12.91726563 -14.05875 14.14703125 -14.25 15.4140625 C-14.85073866 20.2356175 -14.85073866 20.2356175 -14.6875 25.0625 C-13.12704449 26.77934605 -13.12704449 26.77934605 -10.9375 27.8125 C-10.24140625 28.19921875 -9.5453125 28.5859375 -8.828125 28.984375 C-5.76115318 30.53011976 -5.76115318 30.53011976 -2.6875 32.0625 C-5.6875 33.0625 -5.6875 33.0625 -8.3515625 32.0234375 C-9.32867187 31.50007813 -10.30578125 30.97671875 -11.3125 30.4375 C-12.29476562 29.92960937 -13.27703125 29.42171875 -14.2890625 28.8984375 C-16.6875 27.0625 -16.6875 27.0625 -17.58984375 24.88671875 C-17.72464482 20.98827187 -17.261311 17.34094463 -16.625 13.5 C-16.52767578 12.74525391 -16.43035156 11.99050781 -16.33007812 11.21289062 C-15.6282466 6.95311108 -15.18383444 5.47952667 -11.75390625 2.59765625 C-7.54852225 0.49228566 -4.65065434 -0.05471358 0 0 Z " fill="#919191" transform="translate(131.6875,349.9375)"/>
<path d="M0 0 C0.66 0.33 1.32 0.66 2 1 C-20.54854111 24.01830239 -20.54854111 24.01830239 -32.75 24.3125 C-38.40230729 24.29192121 -41.4642269 23.29874408 -46 20 C-45.67 19.34 -45.34 18.68 -45 18 C-44.2575 18.474375 -43.515 18.94875 -42.75 19.4375 C-38.01193969 22.12957972 -33.42779326 22.6759889 -28 22 C-20.64534465 19.81427913 -15.43680976 14.12753016 -10 9 C-8.12907231 7.30798616 -6.25421748 5.6203021 -4.375 3.9375 C-3.53710938 3.18339844 -2.69921875 2.42929687 -1.8359375 1.65234375 C-0.92714844 0.83443359 -0.92714844 0.83443359 0 0 Z " fill="#808080" transform="translate(293,359)"/>
<path d="M0 0 C0.92683594 -0.00515625 1.85367188 -0.0103125 2.80859375 -0.015625 C5.72304176 0.26548488 7.91140497 1.03752097 10.5625 2.25 C10.2325 2.91 9.9025 3.57 9.5625 4.25 C8.593125 3.899375 7.62375 3.54875 6.625 3.1875 C1.24469292 1.70439724 -3.62817934 1.88908342 -8.6953125 4.34375 C-13.88017425 7.59557967 -18.0559551 11.6658734 -22.28515625 16.05859375 C-25.17657216 19.00248545 -28.26356448 21.61630882 -31.4375 24.25 C-32.0975 23.92 -32.7575 23.59 -33.4375 23.25 C-10.67317751 -0.05921319 -10.67317751 -0.05921319 0 0 Z " fill="#818181" transform="translate(217.4375,349.75)"/>
<path d="M0 0 C1.34379037 1.34379037 2.67703988 2.69819737 4 4.0625 C6.85451538 6.82781178 8.76327573 7.17632757 12.625 7.5625 C13.44226563 7.64628906 14.25953125 7.73007812 15.1015625 7.81640625 C15.72804687 7.87699219 16.35453125 7.93757813 17 8 C17 8.33 17 8.66 17 9 C10.0769444 9.49254941 6.825005 8.97159432 1 5 C-2.32778425 5.60738122 -2.32778425 5.60738122 -5 7 C-5 7.66 -5 8.32 -5 9 C-5.66 9 -6.32 9 -7 9 C-5.68 10.32 -4.36 11.64 -3 13 C-3.33 13.99 -3.66 14.98 -4 16 C-7.465 14.02 -7.465 14.02 -11 12 C-7.72469104 7.36279281 -4.69564393 3.31457218 0 0 Z " fill="#727272" transform="translate(205,369)"/>
<path d="M0 0 C0.99 0.66 1.98 1.32 3 2 C0.64012532 4.35987468 -5.19462398 3.46266877 -8.38671875 3.62109375 C-11.88634333 3.98808141 -14.71248128 4.78781591 -18 6 C-19.66088045 6.36106097 -21.32618981 6.70462173 -23 7 C-22 4 -22 4 -20.13671875 2.83203125 C-13.44107652 0.04485004 -7.24210987 -0.94797785 0 0 Z " fill="#7D7D7D" transform="translate(224,343)"/>
<path d="M0 0 C2.5502402 0.91547084 3.7299841 1.80800707 5.4375 3.875 C4.375 5.375 4.375 5.375 2.4375 6.875 C-1.25 7.0625 -1.25 7.0625 -4.5625 6.875 C-5.2225 5.555 -5.8825 4.235 -6.5625 2.875 C-4.24957337 0.73340127 -3.21466444 -0.1568129 0 0 Z " fill="#F4F4F4" transform="translate(175.5625,363.125)"/>
<path d="M0 0 C3.5625 0.3125 3.5625 0.3125 5.5 1.8125 C5.850625 2.3075 6.20125 2.8025 6.5625 3.3125 C5.5 4.8125 5.5 4.8125 3.5625 6.3125 C-0.125 6.5 -0.125 6.5 -3.4375 6.3125 C-4.0975 4.9925 -4.7575 3.6725 -5.4375 2.3125 C-3.4375 0.3125 -3.4375 0.3125 0 0 Z " fill="#F8F8F8" transform="translate(260.4375,363.6875)"/>
<path d="M0 0 C0.66 0.33 1.32 0.66 2 1 C1.625 2.9375 1.625 2.9375 1 5 C-1.79870027 6.39935013 -3.90498792 6.25265405 -7 6 C-8.875 4.5 -8.875 4.5 -10 3 C-7.29533098 -0.81835627 -4.38726992 -0.31907418 0 0 Z " fill="#F8F8F8" transform="translate(221,364)"/>
<path d="M0 0 C4.69148936 1.82446809 4.69148936 1.82446809 6.8125 3.03125 C9.50218937 4.22239815 11.82232079 4.41588006 14.75 4.625 C15.73484375 4.69976562 16.7196875 4.77453125 17.734375 4.8515625 C18.48203125 4.90054687 19.2296875 4.94953125 20 5 C20 5.33 20 5.66 20 6 C19.2575 6.144375 18.515 6.28875 17.75 6.4375 C15.12269252 6.91206009 15.12269252 6.91206009 13.15234375 7.640625 C10.25606539 8.12421413 8.5246478 7.39014809 5.8125 6.3125 C4.93207031 5.97863281 4.05164063 5.64476562 3.14453125 5.30078125 C1 4 1 4 0.19921875 1.85546875 C0.13347656 1.24316406 0.06773437 0.63085938 0 0 Z " fill="#7A7A7A" transform="translate(244,382)"/>
<path d="M0 0 C0.68449219 0.30679687 1.36898437 0.61359375 2.07421875 0.9296875 C5.32877506 2.12027285 8.38379086 2.64013204 11.8125 3.125 C13.55466797 3.37636719 13.55466797 3.37636719 15.33203125 3.6328125 C16.65267578 3.81457031 16.65267578 3.81457031 18 4 C16.68 4.33 15.36 4.66 14 5 C14 5.66 14 6.32 14 7 C8.58609132 6.53328373 4.79482068 5.75702189 0 3 C0 2.01 0 1.02 0 0 Z " fill="#767676" transform="translate(202,383)"/>
<path d="M0 0 C0.763125 0.309375 1.52625 0.61875 2.3125 0.9375 C6.21252568 2.47937062 9.51950936 3.21925371 13.6875 3.5625 C14.68136719 3.64628906 15.67523438 3.73007812 16.69921875 3.81640625 C17.83810547 3.90728516 17.83810547 3.90728516 19 4 C19 4.33 19 4.66 19 5 C18.2575 5.144375 17.515 5.28875 16.75 5.4375 C14.11640071 5.92281764 14.11640071 5.92281764 12.0859375 6.62109375 C9.53010662 7.08535517 8.25590389 6.61176245 5.875 5.625 C5.19179687 5.34914063 4.50859375 5.07328125 3.8046875 4.7890625 C2.52061734 4.22762922 1.25348905 3.62674453 0 3 C0 2.01 0 1.02 0 0 Z " fill="#757575" transform="translate(159,383)"/>
<path d="M0 0 C0.33 0 0.66 0 1 0 C1.061875 1.2375 1.12375 2.475 1.1875 3.75 C1.60356929 7.30550124 1.84255104 7.84639125 4.5625 10.5 C5.366875 10.995 6.17125 11.49 7 12 C6.67 12.99 6.34 13.98 6 15 C3.06144949 12.88450084 0.35273932 10.7644687 -2 8 C-2.0625 4.125 -2.0625 4.125 -1 1 C-0.67 0.67 -0.34 0.34 0 0 Z " fill="#707070" transform="translate(109,369)"/>
<path d="M0 0 C0.33 0.66 0.66 1.32 1 2 C1.66 2 2.32 2 3 2 C2.34 7.28 1.68 12.56 1 18 C-2 15 -2 15 -2.109375 12.6953125 C-1.99078125 11.84710938 -1.8721875 10.99890625 -1.75 10.125 C-1.57404297 8.80242187 -1.57404297 8.80242187 -1.39453125 7.453125 C-0.9923204 4.9522496 -0.57573491 2.46743534 0 0 Z " fill="#808080" transform="translate(110,355)"/>
<path d="M0 0 C3.37462715 0.54723683 5.08235 1.0549 8 3 C8 3.66 8 4.32 8 5 C5.29120665 6.35439668 2.99066732 6.06501451 0 6 C0 4.02 0 2.04 0 0 Z " fill="#F7F7F7" transform="translate(129,363)"/>
<path d="M0 0 C0.66 0.33 1.32 0.66 2 1 C2 1.66 2 2.32 2 3 C0.2984375 3.8353125 0.2984375 3.8353125 -1.4375 4.6875 C-4.55468831 6.4222876 -4.55468831 6.4222876 -5.9375 9.75 C-5.958125 10.4925 -5.97875 11.235 -6 12 C-6.66 12 -7.32 12 -8 12 C-8.48837209 6.62790698 -8.48837209 6.62790698 -6.25 3.75 C-4.19054415 2.14820101 -2.44776844 0.89751509 0 0 Z " fill="#727272" transform="translate(119,345)"/>
<path d="M0 0 C1.91740583 0.78987473 3.83389641 1.58197148 5.75 2.375 C7.35101563 3.03628906 7.35101563 3.03628906 8.984375 3.7109375 C11.37555926 4.73307585 13.69383183 5.80213595 16 7 C9.34454208 7.54330269 5.54165256 6.77304004 0 3 C0 2.01 0 1.02 0 0 Z " fill="#707070" transform="translate(287,382)"/>
<path d="M0 0 C0.80179687 0.00451172 1.60359375 0.00902344 2.4296875 0.01367188 C4.41149006 0.02546832 6.39325433 0.04340395 8.375 0.0625 C8.375 0.3925 8.375 0.7225 8.375 1.0625 C7.51777344 1.18367188 6.66054688 1.30484375 5.77734375 1.4296875 C-0.16804491 2.30105224 -5.90648588 3.20065819 -11.625 5.0625 C-11.25 3.125 -11.25 3.125 -10.625 1.0625 C-7.31505287 -0.59247356 -3.63377 -0.03834335 0 0 Z " fill="#737373" transform="translate(302.625,343.9375)"/>
<path d="M0 0 C12.66970387 -0.3690205 12.66970387 -0.3690205 18 2 C18 2.66 18 3.32 18 4 C15.56077639 3.91299202 13.12521586 3.80613998 10.6875 3.6875 C9.99720703 3.66494141 9.30691406 3.64238281 8.59570312 3.61914062 C3.44325817 3.3453392 3.44325817 3.3453392 1.01953125 1.45703125 C0.68308594 0.97621094 0.34664062 0.49539063 0 0 Z " fill="#868686" transform="translate(254,343)"/>
<path d="M0 0 C0.969375 0.66 1.93875 1.32 2.9375 2 C7.21584339 4.44352539 11.16376754 4.82638535 16 4 C18.32219658 2.55269907 18.32219658 2.55269907 20 1 C20.99 1.33 21.98 1.66 23 2 C18.35981291 6.01313478 14.73727456 6.61482829 8.63671875 6.3984375 C4.77233801 5.81448663 2.8635037 4.63132773 0 2 C0 1.34 0 0.68 0 0 Z " fill="#868686" transform="translate(249,372)"/>
<path d="M0 0 C5.09448798 0.43173627 8.84512277 0.75400216 13 4 C13 4.66 13 5.32 13 6 C8.39146203 5.27991594 4.32762591 3.68704061 0 2 C0 1.34 0 0.68 0 0 Z " fill="#717171" transform="translate(135,344)"/>
<path d="M0 0 C0 1.98 0 3.96 0 6 C-2.97 5.505 -2.97 5.505 -6 5 C-6 4.01 -6 3.02 -6 2 C-3 0 -3 0 0 0 Z " fill="#F1F1F1" transform="translate(304,364)"/>
<path d="M0 0 C0.66 0 1.32 0 2 0 C2.66 0.99 3.32 1.98 4 3 C6.56282742 3.72965366 6.56282742 3.72965366 9 4 C9.33 4.99 9.66 5.98 10 7 C3.6 6.50769231 3.6 6.50769231 0.5625 3.9375 C-0.2109375 2.9784375 -0.2109375 2.9784375 -1 2 C-0.67 1.34 -0.34 0.68 0 0 Z " fill="#808080" transform="translate(167,366)"/>
<path d="M0 0 C1.60407328 -0.02708567 3.2082785 -0.04643483 4.8125 -0.0625 C5.70582031 -0.07410156 6.59914062 -0.08570313 7.51953125 -0.09765625 C10 0 10 0 13 1 C13 1.66 13 2.32 13 3 C8.71 3 4.42 3 0 3 C0 2.01 0 1.02 0 0 Z " fill="#848484" transform="translate(170,343)"/>
<path d="M0 0 C0 0.66 0 1.32 0 2 C-2.22890995 3.11445498 -3.53055106 3.16480286 -6 3.1875 C-7.051875 3.20876953 -7.051875 3.20876953 -8.125 3.23046875 C-10 3 -10 3 -12 1 C-7.95858806 0.36605303 -4.0934693 -0.12404452 0 0 Z " fill="#707070" transform="translate(269,387)"/>
<path d="M0 0 C0 0.66 0 1.32 0 2 C-1.62324086 2.22162329 -3.248721 2.42689803 -4.875 2.625 C-6.23238281 2.79902344 -6.23238281 2.79902344 -7.6171875 2.9765625 C-8.40351563 2.98429687 -9.18984375 2.99203125 -10 3 C-10.66 2.34 -11.32 1.68 -12 1 C-7.95858806 0.36605303 -4.0934693 -0.12404452 0 0 Z " fill="#6D6D6D" transform="translate(183,387)"/>
<path d="M0 0 C0.33 1.32 0.66 2.64 1 4 C4.465 3.505 4.465 3.505 8 3 C7.01 4.485 7.01 4.485 6 6 C2.375 6.1875 2.375 6.1875 -1 6 C-0.67 4.02 -0.34 2.04 0 0 Z " fill="#696969" transform="translate(127,366)"/>
<path d="M0 0 C3.3 0 6.6 0 10 0 C8.68 0.33 7.36 0.66 6 1 C6 1.66 6 2.32 6 3 C4.35 3 2.7 3 1 3 C0.67 2.01 0.34 1.02 0 0 Z " fill="#8B8B8B" transform="translate(210,387)"/>
<path d="M0 0 C5.875 3.625 5.875 3.625 7 7 C3.22454612 5.90931332 0.52956528 5.0916909 -2 2 C-1.34 1.34 -0.68 0.68 0 0 Z " fill="#707070" transform="translate(296,366)"/>
<path d="M0 0 C0.99 0 1.98 0 3 0 C3 1.98 3 3.96 3 6 C1.35 5.67 -0.3 5.34 -2 5 C-2 4.34 -2 3.68 -2 3 C-1.34 3 -0.68 3 0 3 C0 2.01 0 1.02 0 0 Z " fill="#818181" transform="translate(304,367)"/>
<path d="M0 0 C3.625 -0.1875 3.625 -0.1875 7 0 C7 0.99 7 1.98 7 3 C4.03 3 1.06 3 -2 3 C-1.34 2.01 -0.68 1.02 0 0 Z " fill="#919191" transform="translate(299,387)"/>
<path d="M0 0 C3.63 0 7.26 0 11 0 C11 0.33 11 0.66 11 1 C10.2575 1.144375 9.515 1.28875 8.75 1.4375 C6.07834232 1.94746381 6.07834232 1.94746381 3.8125 2.625 C2 3 2 3 0 2 C0 1.34 0 0.68 0 0 Z " fill="#8C8C8C" transform="translate(253,387)"/>
<path d="M0 0 C3.63 0 7.26 0 11 0 C11 0.33 11 0.66 11 1 C10.2575 1.144375 9.515 1.28875 8.75 1.4375 C6.47972261 1.90187492 4.24240521 2.41863569 2 3 C1.34 2.01 0.68 1.02 0 0 Z " fill="#8C8C8C" transform="translate(167,387)"/>
<path d="M0 0 C1.98 0 3.96 0 6 0 C6 0.99 6 1.98 6 3 C4.02 3 2.04 3 0 3 C0 2.01 0 1.02 0 0 Z " fill="#838383" transform="translate(214,370)"/>
<path d="M0 0 C0.33 0 0.66 0 1 0 C1 2.97 1 5.94 1 9 C0.01 8.01 -0.98 7.02 -2 6 C-1.57894737 1.57894737 -1.57894737 1.57894737 0 0 Z " fill="#8B8B8B" transform="translate(110,364)"/>
</svg>
