<?xml version="1.0" encoding="UTF-8"?>
<svg version="1.1" xmlns="http://www.w3.org/2000/svg" width="512" height="512">
<path d="M0 0 C1.19133545 -0.00953201 2.3826709 -0.01906403 3.61010742 -0.02888489 C4.89763916 -0.02797348 6.1851709 -0.02706207 7.51171875 -0.02612305 C8.84546034 -0.03001018 10.1792007 -0.03434489 11.51293945 -0.03910828 C14.30716975 -0.0465677 17.10127369 -0.04628097 19.89550781 -0.04101562 C23.47693095 -0.03521649 27.05783769 -0.05216331 30.63917542 -0.0753603 C33.39297511 -0.09008768 36.14665008 -0.09097083 38.90048218 -0.08785057 C40.86312128 -0.08861387 42.82574103 -0.10249292 44.78833008 -0.11653137 C46.57533325 -0.10718819 46.57533325 -0.10718819 48.3984375 -0.09765625 C49.44862061 -0.09828568 50.49880371 -0.0989151 51.58081055 -0.0995636 C54.19921875 0.2746582 54.19921875 0.2746582 56.03051758 1.62361145 C57.93121732 4.30876675 57.69877101 6.06659601 57.19921875 9.2746582 C55.59357735 11.63151041 54.09871084 13.57048443 52.19921875 15.6496582 C51.72226562 16.19493164 51.2453125 16.74020508 50.75390625 17.30200195 C49.58212153 18.63783653 48.3923987 19.95789891 47.19921875 21.2746582 C48.93644887 26.40405872 51.9628898 29.683691 55.51953125 33.67700195 C57.55493081 36.82477104 57.68062631 38.59240254 57.19921875 42.2746582 C55.19921875 44.2746582 55.19921875 44.2746582 52.94662476 44.51516724 C51.54097763 44.5085054 51.54097763 44.5085054 50.10693359 44.50170898 C49.0459848 44.50155792 47.98503601 44.50140686 46.89193726 44.50125122 C45.16845566 44.48576736 45.16845566 44.48576736 43.41015625 44.4699707 C42.23659576 44.46714081 41.06303528 44.46431091 39.85391235 44.46139526 C36.09391213 44.45017176 32.33414736 44.42506313 28.57421875 44.3996582 C26.02995135 44.38963121 23.48568023 44.38050488 20.94140625 44.37231445 C14.69391926 44.3502253 8.44660896 44.31568057 2.19921875 44.2746582 C2.19921875 51.8646582 2.19921875 59.4546582 2.19921875 67.2746582 C3.84921875 67.6046582 5.49921875 67.9346582 7.19921875 68.2746582 C9.58088814 69.21174576 11.91237546 70.18076538 14.25 71.21606445 C14.90880661 71.50319809 15.56761322 71.79033173 16.24638367 72.08616638 C18.33688367 72.99854674 20.42430809 73.91773502 22.51171875 74.8371582 C23.93404676 75.45935588 25.35657085 76.08110555 26.77929688 76.70239258 C30.25489537 78.22130422 33.72775307 79.74632603 37.19921875 81.2746582 C37.36357422 80.33493164 37.36357422 80.33493164 37.53125 79.3762207 C37.68980469 78.55895508 37.84835937 77.74168945 38.01171875 76.8996582 C38.23794922 75.68149414 38.23794922 75.68149414 38.46875 74.4387207 C39.19921875 72.2746582 39.19921875 72.2746582 42.19921875 70.2746582 C44.87599424 70.07899975 47.4486838 70.00076558 50.12583923 70.01396179 C51.35051646 70.00822347 51.35051646 70.00822347 52.59993464 70.00236923 C55.34525238 69.99202174 58.09036166 69.99603467 60.83569336 70 C62.80006606 69.9956545 64.76443707 69.99047189 66.72880554 69.98451233 C72.0717203 69.9710938 77.41456445 69.97054682 82.75749278 69.97307563 C87.21346566 69.97414339 91.66942413 69.96926698 96.12539393 69.96447021 C106.63528328 69.95336518 117.14513691 69.95294323 127.6550293 69.95898438 C138.50741418 69.96502634 149.35966949 69.95270974 160.21203226 69.93141431 C169.52079152 69.91381763 178.82950946 69.90779388 188.13828474 69.91105205 C193.70182889 69.91286812 199.2652806 69.91019655 204.82880974 69.89633751 C210.05973489 69.8837952 215.29045756 69.8856691 220.52137947 69.8987484 C222.4434834 69.90112158 224.36560142 69.89835309 226.28768921 69.89012527 C228.90723513 69.87971868 231.52609393 69.88770915 234.14561462 69.9004364 C234.91010656 69.89306212 235.67459849 69.88568783 236.46225685 69.87809008 C239.54853691 69.90973725 241.88006189 70.11895388 244.67250538 71.48127937 C246.70586924 73.86980349 246.69285125 75.22402184 246.68023682 78.34294128 C246.6884848 79.91415993 246.6884848 79.91415993 246.69689941 81.51712036 C246.67532776 83.24017899 246.67532776 83.24017899 246.65332031 84.99804688 C246.65390442 86.2079277 246.65448853 87.41780853 246.65509033 88.66435242 C246.65277925 91.98264024 246.63270603 95.29993541 246.6047945 98.61804748 C246.57980677 102.08536724 246.57744095 105.55269991 246.57269287 109.02009583 C246.56025528 115.58624402 246.52742336 122.15212614 246.48729491 128.71815711 C246.44260134 136.19325846 246.42059629 143.66837244 246.40051317 151.14357412 C246.35869118 166.52075629 246.28832423 181.89767295 246.19921875 197.2746582 C247.58947266 197.46995117 247.58947266 197.46995117 249.0078125 197.66918945 C255.47709047 198.89653105 259.49766072 203.03078432 263.19921875 208.2746582 C265.47349995 213.68961344 265.28322375 218.64822275 264.9765625 224.4074707 C265.24098113 227.8124404 266.19795256 229.53832979 268.19921875 232.2746582 C269.40578125 233.2337207 269.40578125 233.2337207 270.63671875 234.2121582 C274.41547946 237.25359975 276.67011589 240.68734964 278.19921875 245.2746582 C278.8332139 252.87220662 279.1803977 260.09964298 274.19921875 266.2746582 C272.8293132 267.47166305 271.43177194 268.63759587 270.01171875 269.7746582 C267.15331117 272.11335531 265.68437101 273.4974849 265.19921875 277.2121582 C265.1010228 279.89962622 265.25850644 282.51969979 265.38671875 285.2121582 C265.44003752 290.64000943 263.49830776 295.8502073 259.74404907 299.80917358 C259.20412323 300.33967316 258.66419739 300.87017273 258.10791016 301.41674805 C257.29237167 302.22128922 257.29237167 302.22128922 256.46035767 303.04208374 C256.04418182 303.44883331 255.62800598 303.85558289 255.19921875 304.2746582 C255.67866943 305.24290527 256.15812012 306.21115234 256.65209961 307.20874023 C258.43607163 310.81668377 260.20966027 314.42964989 261.98022461 318.04418945 C262.74662442 319.60514056 263.51579883 321.16473266 264.2878418 322.72290039 C265.39982128 324.96836766 266.50158974 327.21860219 267.6015625 329.4699707 C267.94638168 330.16083771 268.29120087 330.85170471 268.64646912 331.56350708 C270.52891242 335.44429828 271.90160387 338.90296405 272.19921875 343.2746582 C270.69921875 345.7121582 270.69921875 345.7121582 268.19921875 347.2746582 C261.36987978 347.2746582 254.63582382 344.35566586 248.19921875 342.2746582 C247.57273437 343.40645508 246.94625 344.53825195 246.30078125 345.7043457 C245.47543653 347.18621464 244.64990603 348.66798011 243.82421875 350.1496582 C243.41171875 350.89602539 242.99921875 351.64239258 242.57421875 352.41137695 C242.17460937 353.12680664 241.775 353.84223633 241.36328125 354.5793457 C240.81341553 355.569104 240.81341553 355.569104 240.25244141 356.57885742 C239.19921875 358.2746582 239.19921875 358.2746582 237.19921875 360.2746582 C233.88671875 360.6496582 233.88671875 360.6496582 230.19921875 359.2746582 C228.93212891 357.01635742 228.93212891 357.01635742 227.80078125 354.0793457 C227.16547485 352.45343506 227.16547485 352.45343506 226.51733398 350.79467773 C226.08235596 349.63307129 225.64737793 348.47146484 225.19921875 347.2746582 C224.75843994 346.11434082 224.31766113 344.95402344 223.86352539 343.75854492 C222.51984855 340.18699362 221.1996871 336.60760295 219.88671875 333.0246582 C219.20512695 331.17420898 219.20512695 331.17420898 218.50976562 329.28637695 C217.40398032 326.28329685 216.30050505 323.27939043 215.19921875 320.2746582 C211.56921875 320.2746582 207.93921875 320.2746582 204.19921875 320.2746582 C203.97105469 321.46317383 203.74289062 322.65168945 203.5078125 323.8762207 C202.14417577 329.99999302 200.05771392 335.85341922 197.94067383 341.75170898 C197.25679123 343.66343259 196.58806275 345.58004063 195.91992188 347.49731445 C195.48744141 348.71032227 195.05496094 349.92333008 194.609375 351.1730957 C194.21886963 352.27314941 193.82836426 353.37320312 193.42602539 354.5065918 C192.26579653 357.12443753 191.45699193 358.55942831 189.19921875 360.2746582 C186.32421875 360.9621582 186.32421875 360.9621582 183.19921875 360.2746582 C181.04865463 357.87668405 179.67637031 355.12144712 178.19921875 352.2746582 C177.26379366 350.6068261 176.32634831 348.9401252 175.38671875 347.2746582 C174.6553878 345.94251075 173.92541016 344.60961432 173.19921875 343.2746582 C168.62793975 343.82321168 164.5248608 344.69210623 160.19921875 346.2746582 C159.56085141 354.2542499 161.35383761 357.79697014 166.44921875 364.0246582 C168.85291275 368.48866135 168.55244797 372.30982527 168.19921875 377.2746582 C169.10800781 377.45448242 169.10800781 377.45448242 170.03515625 377.63793945 C173.40376731 378.62906509 174.96474593 380.62857197 177.19921875 383.2746582 C179.03648535 387.38663582 179.41249283 390.79590255 179.19921875 395.2746582 C180.25109375 395.3365332 181.30296875 395.3984082 182.38671875 395.4621582 C187.09457521 396.46547188 188.36755979 397.39567333 191.19921875 401.2746582 C191.80547116 404.89989128 191.67159641 408.42472987 191.51171875 412.0871582 C191.48916016 413.06620117 191.46660156 414.04524414 191.44335938 415.05395508 C191.38461602 417.46243275 191.30254004 419.86774898 191.19921875 422.2746582 C192.36839844 422.22825195 193.53757812 422.1818457 194.7421875 422.1340332 C196.29033895 422.09650226 197.83851814 422.06010352 199.38671875 422.0246582 C200.15564453 421.99114258 200.92457031 421.95762695 201.71679688 421.9230957 C205.55499398 421.85720391 207.71471481 422.00297375 211.125 423.9152832 C215.62831327 429.03769604 215.53862619 434.72746555 215.51171875 441.2121582 C215.52783203 441.98495117 215.54394531 442.75774414 215.56054688 443.55395508 C215.56503575 448.86429814 214.86295769 452.63777931 212.19921875 457.2746582 C208.16219413 460.3943352 205.03900428 460.65092157 200.01020908 460.65497494 C199.29374375 460.65963486 198.57727841 460.66429478 197.839102 460.6690959 C195.4317388 460.68107286 193.02493716 460.67164033 190.61756897 460.66233826 C188.87686059 460.66651 187.13615494 460.67198663 185.39545435 460.67865807 C180.60681666 460.69315235 175.8183505 460.68885554 171.02970326 460.68149126 C165.86737571 460.67677173 160.70508593 460.68925863 155.54277039 460.69950867 C145.42741597 460.71672579 135.3121236 460.71753066 125.19675834 460.71229576 C116.9770514 460.70825832 108.75736284 460.70969255 100.53765678 460.71504402 C98.7844678 460.71616665 98.7844678 460.71616665 96.99586086 460.71731197 C94.62164891 460.7188434 92.24743696 460.72038175 89.87322503 460.72192694 C67.59638316 460.73566247 45.3195764 460.73020684 23.04273533 460.71874172 C2.65164725 460.70880776 -17.73935011 460.72175099 -38.13042419 460.74567591 C-59.05619055 460.77004367 -79.98191461 460.77968054 -100.90769488 460.77302319 C-112.66067267 460.76952586 -124.41358068 460.77179689 -136.16654778 460.78927422 C-146.17140259 460.80396714 -156.17613846 460.80466977 -166.18099087 460.7872033 C-171.28754038 460.77866701 -176.39387716 460.77660775 -181.5004158 460.79185486 C-186.17298798 460.80563376 -190.84516381 460.80102685 -195.51771266 460.78161562 C-197.21012056 460.77783433 -198.9025597 460.78083844 -200.59493994 460.79122727 C-202.89241736 460.80433022 -205.18851317 460.79287538 -207.48593044 460.77522945 C-208.76287759 460.77512212 -210.03982474 460.77501478 -211.35546726 460.77490419 C-215.43234781 460.18295723 -217.61276583 458.83664245 -220.80078125 456.2746582 C-222.96230985 451.95160101 -222.07504973 446.21051356 -222.11328125 441.4621582 C-222.14228516 440.27299805 -222.17128906 439.08383789 -222.20117188 437.85864258 C-222.20955078 436.71073242 -222.21792969 435.56282227 -222.2265625 434.38012695 C-222.24114502 433.32978271 -222.25572754 432.27943848 -222.27075195 431.19726562 C-221.68473311 427.55298945 -220.333444 425.90691839 -217.80078125 423.2746582 C-214.49083412 421.61968464 -210.80955125 422.17381485 -207.17578125 422.2121582 C-206.37398437 422.21666992 -205.5721875 422.22118164 -204.74609375 422.22583008 C-202.76429119 422.23762652 -200.78252692 422.25556215 -198.80078125 422.2746582 C-198.82696533 421.66468994 -198.85314941 421.05472168 -198.88012695 420.42626953 C-198.98443844 417.64683062 -199.04921107 414.86780381 -199.11328125 412.0871582 C-199.15517578 411.12745117 -199.19707031 410.16774414 -199.24023438 409.17895508 C-199.36364697 402.04570713 -199.36364697 402.04570713 -196.51953125 398.1496582 C-193.24319966 395.89011918 -190.73775044 395.50624463 -186.80078125 395.2746582 C-186.775 394.62239258 -186.74921875 393.97012695 -186.72265625 393.2980957 C-186.34924121 387.54410942 -185.6612112 383.81634049 -181.80078125 379.2746582 C-178.80078125 377.2746582 -178.80078125 377.2746582 -175.80078125 377.2746582 C-175.8471875 376.62239258 -175.89359375 375.97012695 -175.94140625 375.2980957 C-176.24831632 367.86648769 -174.60836327 364.49481871 -169.69250488 358.85656738 C-166.6117034 354.13493112 -167.24448929 348.65448926 -167.28320312 343.21411133 C-167.27619385 342.00367661 -167.26918457 340.79324188 -167.26196289 339.54612732 C-167.24740426 336.23798016 -167.25077333 332.93083764 -167.26347923 329.62274742 C-167.27363565 326.15420599 -167.26420625 322.68570628 -167.25793457 319.21716309 C-167.2506658 313.39331391 -167.26022545 307.56966791 -167.27929688 301.74584961 C-167.30106438 295.02125341 -167.29401244 288.29714238 -167.27199125 281.57255793 C-167.2538151 275.78975868 -167.25128967 270.00710515 -167.26174593 264.22428656 C-167.26796879 260.7744893 -167.2688501 257.32491978 -167.25559998 253.87513733 C-167.24185579 250.02830273 -167.2609274 246.18200768 -167.28320312 242.33520508 C-167.2751062 241.19736069 -167.26700928 240.0595163 -167.25866699 238.88719177 C-167.32535695 232.67100265 -167.66768985 229.01511374 -171.80078125 224.2746582 C-176.18659296 218.91422167 -176.2738898 214.92446167 -175.80078125 208.2746582 C-176.40664062 208.15477539 -177.0125 208.03489258 -177.63671875 207.91137695 C-181.00532981 206.92025132 -182.56630843 204.92074444 -184.80078125 202.2746582 C-186.65942595 198.11483435 -186.86970767 194.77993969 -186.80078125 190.2746582 C-187.65309326 190.29560547 -188.50540527 190.31655273 -189.38354492 190.33813477 C-192.56107558 190.40651064 -195.73822996 190.45655558 -198.91625977 190.49438477 C-200.28878148 190.51443811 -201.66121842 190.54168849 -203.03344727 190.57641602 C-205.01150169 190.62520372 -206.99019244 190.64554697 -208.96875 190.6652832 C-210.15750732 190.68623047 -211.34626465 190.70717773 -212.57104492 190.72875977 C-216.43652006 190.1852732 -218.04728606 188.98313798 -220.80078125 186.2746582 C-222.96658152 181.94305767 -222.11959731 176.21991676 -222.17578125 171.4621582 C-222.23185547 169.67841797 -222.23185547 169.67841797 -222.2890625 167.85864258 C-222.38806018 158.063372 -222.38806018 158.063372 -219.40234375 155.01293945 C-216.21137854 152.88083808 -214.46652129 152.18411639 -210.70996094 151.92919922 C-205.74332108 151.41310508 -201.76037369 149.87890372 -197.25390625 147.80200195 C-196.45831299 147.44786224 -195.66271973 147.09372253 -194.84301758 146.72885132 C-192.24046714 145.5677352 -189.64589845 144.38978114 -187.05078125 143.2121582 C-185.20475366 142.38607378 -183.35806219 141.56147148 -181.51074219 140.73828125 C-177.73840421 139.05686934 -173.96819462 137.37081803 -170.19921875 135.68188477 C-163.23488356 132.56831945 -156.2351778 129.5387651 -149.22769165 126.52386475 C-145.48369956 124.91285591 -141.74196625 123.29661562 -138 121.6809082 C-137.21477463 121.34199554 -136.42954926 121.00308289 -135.62052917 120.65390015 C-125.19423547 116.15214186 -114.77778529 111.62766906 -104.3604126 107.10531616 C-100.87820813 105.59363819 -97.39590572 104.08218609 -93.91357422 102.57080078 C-81.9927747 97.39701504 -81.9927747 97.39701504 -70.07275391 92.22143555 C-50.00948982 83.50826982 -29.91176886 74.87699412 -9.80078125 66.2746582 C-9.79491501 65.47730255 -9.78904877 64.6799469 -9.78300476 63.85842896 C-9.72516328 56.35360502 -9.65313673 48.84911636 -9.56506634 41.34459114 C-9.52028872 37.48617759 -9.48104941 33.62787143 -9.4543457 29.76928711 C-9.42838572 26.04732321 -9.38803656 22.32577096 -9.33759499 18.60406113 C-9.32087649 17.18231186 -9.30939331 15.76049131 -9.30316734 14.33865738 C-9.29358114 12.35122734 -9.26385674 10.36392498 -9.2331543 8.37670898 C-9.21649971 6.67794113 -9.21649971 6.67794113 -9.19950867 4.94485474 C-9.0021386 3.62310745 -9.0021386 3.62310745 -8.80078125 2.2746582 C-5.35666316 -0.02142052 -4.05681885 0.01779818 0 0 Z M-106.80078125 190.2746582 C-107.04828125 191.9865332 -107.29578125 193.6984082 -107.55078125 195.4621582 C-108.39140473 200.06782768 -109.24046976 203.02849185 -112.80078125 206.2746582 C-113.81398438 206.63817383 -113.81398438 206.63817383 -114.84765625 207.0090332 C-117.0973302 208.16729062 -117.0973302 208.16729062 -117.63671875 211.06762695 C-117.81460938 212.18782227 -117.9925 213.30801758 -118.17578125 214.4621582 C-119.25473489 219.88689735 -120.51296107 223.08287067 -124.49609375 226.9074707 C-127.10022808 229.63635399 -126.93097396 232.70134296 -126.94795227 236.25787354 C-126.95510757 237.28682236 -126.96226288 238.31577118 -126.96963501 239.37590027 C-126.97232391 240.50425797 -126.97501282 241.63261566 -126.9777832 242.79516602 C-126.9843544 243.98404922 -126.9909256 245.17293243 -126.99769592 246.39784241 C-127.01744333 250.34114947 -127.02909682 254.28444322 -127.0390625 258.2277832 C-127.04311105 259.58689138 -127.047228 260.94599935 -127.05141258 262.30510712 C-127.07046001 268.69151569 -127.08469142 275.07791275 -127.09302455 281.46434426 C-127.10279277 288.82842586 -127.12910295 296.19220655 -127.16952544 303.55618215 C-127.19972047 309.25312273 -127.21449665 314.94997723 -127.21780556 320.64699626 C-127.22015241 324.04718177 -127.2290643 327.44704565 -127.25426674 330.84714508 C-127.27858376 334.64386512 -127.27770613 338.43979838 -127.27075195 342.23657227 C-127.28356201 343.35683304 -127.29637207 344.47709381 -127.30957031 345.63130188 C-127.25808002 353.34487631 -126.08110877 357.80137024 -120.67578125 363.5246582 C-118.61122651 366.55267183 -118.39989364 368.25760963 -117.92578125 371.8371582 C-117.31722868 376.44812757 -117.31722868 376.44812757 -113.86328125 379.5871582 C-112.85265625 380.1440332 -111.84203125 380.7009082 -110.80078125 381.2746582 C-107.79402956 385.83662628 -107.25972856 389.95086937 -106.80078125 395.2746582 C-101.52078125 395.2746582 -96.24078125 395.2746582 -90.80078125 395.2746582 C-90.59453125 393.3977832 -90.38828125 391.5209082 -90.17578125 389.5871582 C-89.06513846 382.76233875 -89.06513846 382.76233875 -85.80078125 380.0871582 C-84.16406034 379.09830599 -82.5111459 378.12984053 -80.80078125 377.2746582 C-80.34485813 374.43780324 -80.0986792 371.60553591 -79.8515625 368.7434082 C-78.75510073 365.12386154 -77.78452034 364.04265787 -75.29171753 361.34143066 C-70.81389175 355.67969771 -70.80783436 350.75837184 -70.89501953 343.73754883 C-70.8827533 342.51198776 -70.87048706 341.2864267 -70.85784912 340.02372742 C-70.83244261 336.68590464 -70.83821387 333.35114826 -70.86050272 330.01350212 C-70.87833851 326.50631747 -70.86175808 322.99925573 -70.85079956 319.49206543 C-70.83809672 313.6044182 -70.8547609 307.71738742 -70.88818359 301.82983398 C-70.92627513 295.04184581 -70.91393287 288.25532972 -70.87539876 281.46737719 C-70.84353885 275.61899311 -70.83919548 269.77104985 -70.85746944 263.92260695 C-70.86833197 260.43850069 -70.86998062 256.95508432 -70.84671402 253.47102356 C-70.8225655 249.58403181 -70.85611688 245.69866268 -70.89501953 241.81176758 C-70.87376511 240.10019722 -70.87376511 240.10019722 -70.8520813 238.35404968 C-70.98352887 231.24209889 -72.35172735 227.3940542 -77.20905876 222.13452911 C-79.43765713 219.53049147 -79.72248876 217.26724242 -79.92578125 213.8996582 C-80.02234237 210.9175633 -80.02234237 210.9175633 -80.80078125 208.2746582 C-83.14045497 206.54583753 -83.14045497 206.54583753 -85.80078125 205.2746582 C-88.31434779 203.39371965 -88.75265499 202.4669059 -89.53125 199.35668945 C-89.95442708 196.3293457 -90.37760417 193.30200195 -90.80078125 190.2746582 C-96.08078125 190.2746582 -101.36078125 190.2746582 -106.80078125 190.2746582 Z M-11.80078125 190.2746582 C-11.88328125 191.6359082 -11.96578125 192.9971582 -12.05078125 194.3996582 C-12.56601198 198.95086295 -13.7688905 201.73745233 -16.80078125 205.2746582 C-17.65414062 205.7077832 -18.5075 206.1409082 -19.38671875 206.5871582 C-22.04399755 208.05645743 -22.04399755 208.05645743 -22.48046875 210.8762207 C-22.54492188 211.87395508 -22.609375 212.87168945 -22.67578125 213.8996582 C-23.40325651 219.8419066 -25.28871917 223.02106706 -29.2421875 227.43481445 C-31.85792124 230.52256029 -31.92811921 233.30446012 -31.94122314 237.18867493 C-31.94693329 238.2022406 -31.95264343 239.21580627 -31.95852661 240.26008606 C-31.95964447 241.37131332 -31.96076233 242.48254059 -31.96191406 243.62744141 C-31.96687897 244.79842377 -31.97184387 245.96940613 -31.97695923 247.1758728 C-31.98906742 250.38881137 -31.99652598 253.60171354 -32.00096989 256.8146708 C-32.0039027 258.82301059 -32.00800792 260.8313447 -32.01247406 262.83968163 C-32.02614637 269.12624564 -32.03581414 275.41279664 -32.03967595 281.6993745 C-32.04415519 288.95078146 -32.06169778 296.2019998 -32.09067655 303.45334941 C-32.11231052 309.06195374 -32.12238116 314.67050506 -32.12371707 320.27915066 C-32.12476396 323.62730163 -32.13209643 326.97513433 -32.14853668 330.32326698 C-32.16557644 334.06022078 -32.16372165 337.7967146 -32.15722656 341.53369141 C-32.16644135 342.63884598 -32.17565613 343.74400055 -32.18515015 344.88264465 C-32.14619507 352.03149966 -31.40659174 356.60529136 -26.23828125 361.8996582 C-23.58195025 364.85462997 -23.32620861 367.50728937 -22.86328125 371.3996582 C-22.34595591 376.29274069 -22.34595591 376.29274069 -18.86328125 379.7121582 C-17.85265625 380.2277832 -16.84203125 380.7434082 -15.80078125 381.2746582 C-12.25150035 385.55827308 -12.20186171 389.90018004 -11.80078125 395.2746582 C-6.52078125 395.2746582 -1.24078125 395.2746582 4.19921875 395.2746582 C4.44671875 393.5627832 4.69421875 391.8509082 4.94921875 390.0871582 C5.78984223 385.48148873 6.63890726 382.52082456 10.19921875 379.2746582 C10.88242188 379.01297852 11.565625 378.75129883 12.26953125 378.48168945 C14.44586264 377.41937329 14.44586264 377.41937329 14.88671875 374.8840332 C15.04140625 373.46864258 15.04140625 373.46864258 15.19921875 372.0246582 C15.91740539 367.16259821 17.06567212 364.1678525 20.19921875 360.2746582 C23.30818378 356.24451835 24.32243262 353.46730277 24.33966064 348.36064148 C24.34537079 347.34707581 24.35108093 346.33351013 24.35696411 345.28923035 C24.35808197 344.17800308 24.35919983 343.06677582 24.36035156 341.921875 C24.36531647 340.75089264 24.37028137 339.57991028 24.37539673 338.3734436 C24.38750492 335.16050504 24.39496348 331.94760286 24.39940739 328.73464561 C24.4023402 326.72630581 24.40644542 324.71797171 24.41091156 322.70963478 C24.42458387 316.42307076 24.43425164 310.13651976 24.43811345 303.84994191 C24.44259269 296.59853494 24.46013528 289.34731661 24.48911405 282.09596699 C24.51074802 276.48736267 24.52081866 270.87881134 24.52215457 265.27016574 C24.52320146 261.92201478 24.53053393 258.57418208 24.54697418 255.22604942 C24.56401394 251.48909563 24.56215915 247.7526018 24.55566406 244.015625 C24.56487885 242.91047043 24.57409363 241.80531586 24.58358765 240.66667175 C24.54463257 233.51781674 23.80502924 228.94402505 18.63671875 223.6496582 C15.98038775 220.69468644 15.72464611 218.04202704 15.26171875 214.1496582 C14.74439341 209.25657572 14.74439341 209.25657572 11.26171875 205.8371582 C10.25109375 205.3215332 9.24046875 204.8059082 8.19921875 204.2746582 C4.64993785 199.99104332 4.60029921 195.64913637 4.19921875 190.2746582 C-1.08078125 190.2746582 -6.36078125 190.2746582 -11.80078125 190.2746582 Z M64.19921875 287.2746582 C63.99535656 299.31848967 63.99535656 299.31848967 63.85742188 311.36254883 C63.81569746 316.28081632 63.76653259 321.19816505 63.67114258 326.11572266 C63.59465529 330.08398506 63.55314057 334.05126147 63.53507805 338.02020454 C63.52221949 339.52848381 63.49710897 341.0367137 63.45910835 342.54456902 C63.1668167 352.69717244 63.1668167 352.69717244 67.68505859 361.56274414 C68.31801849 362.21490906 68.95097839 362.86707397 69.6031189 363.53900146 C71.89854999 366.0351363 72.09033243 368.26929485 72.26171875 371.5871582 C72.68932638 376.37745776 72.68932638 376.37745776 76.13671875 379.7121582 C77.14734375 380.2277832 78.15796875 380.7434082 79.19921875 381.2746582 C82.74849965 385.55827308 82.79813829 389.90018004 83.19921875 395.2746582 C88.47921875 395.2746582 93.75921875 395.2746582 99.19921875 395.2746582 C99.44671875 393.5627832 99.69421875 391.8509082 99.94921875 390.0871582 C100.79466768 385.48744304 101.58875112 382.47250096 105.19921875 379.2746582 C106.85115316 378.57228016 108.51674838 377.90037033 110.19921875 377.2746582 C110.19019531 376.58500977 110.18117188 375.89536133 110.171875 375.18481445 C110.39390341 368.14747925 111.90476232 364.38978996 116.60546875 359.1496582 C119.60987126 355.61506702 119.32109144 352.23280255 119.31274414 347.78369141 C119.31289017 347.1297641 119.31303619 346.47583679 119.31318665 345.80209351 C119.31249063 343.64317494 119.30471283 341.48434292 119.296875 339.32543945 C119.29500971 337.82757108 119.29358633 336.32970209 119.29258728 334.83183289 C119.28877082 330.89120802 119.27894795 326.95062006 119.2678833 323.01000977 C119.25585106 318.28098056 119.25126279 313.551939 119.24542999 308.82289886 C119.23573574 301.64012631 119.21657311 294.45743474 119.19921875 287.2746582 C101.04921875 287.2746582 82.89921875 287.2746582 64.19921875 287.2746582 Z M159.19921875 298.2746582 C159.19921875 304.5446582 159.19921875 310.8146582 159.19921875 317.2746582 C161.67465122 313.97408158 162.96037964 311.76265035 164.38671875 308.0246582 C164.73089844 307.13262695 165.07507813 306.2405957 165.4296875 305.3215332 C165.68363281 304.64606445 165.93757813 303.9705957 166.19921875 303.2746582 C163.88921875 301.6246582 161.57921875 299.9746582 159.19921875 298.2746582 Z " fill="#040303" transform="translate(227.80078125,25.725341796875)"/>
<path d="M0 0 C61.38 0 122.76 0 186 0 C186 38.28 186 76.56 186 116 C180.45858283 114.89171657 180.45858283 114.89171657 178.1875 111.6875 C174.10743128 106.68014294 170.25918174 104.34722517 163.7734375 103.65625 C157.40739718 103.2855511 157.40739718 103.2855511 151.64070511 105.50259972 C148.69135031 107.17501846 147.05517473 107.37976624 143.69793701 107.39199829 C142.64915375 107.40309128 141.60037048 107.41418427 140.51980591 107.4256134 C139.37986176 107.42260727 138.2399176 107.41960114 137.06542969 107.41650391 C135.2525798 107.42938194 135.2525798 107.42938194 133.40310669 107.44252014 C130.09751836 107.46328701 126.79237496 107.47098967 123.48675442 107.47317934 C120.02782858 107.47884655 116.56902464 107.50212198 113.11016846 107.52377319 C106.56313039 107.56226541 100.01612731 107.58650589 93.46900487 107.60489786 C81.72953449 107.63834173 69.99016844 107.69594436 58.25082326 107.75888956 C54.12903256 107.78042274 50.00727837 107.79566809 45.88544416 107.80572915 C42.72927956 107.81436643 39.57313988 107.82893956 36.41699219 107.84228516 C35.26895111 107.84332748 34.12091003 107.84436981 32.93807983 107.84544373 C31.90057587 107.85089706 30.8630719 107.8563504 29.79412842 107.86196899 C28.88712566 107.86452509 27.98012291 107.86708118 27.04563522 107.86971474 C25.00634321 107.7734125 25.00634321 107.7734125 24 109 C23.7499227 111.45809998 23.7499227 111.45809998 24 114 C27.07740978 117.07740978 30.72403017 116.30860913 34.85595703 116.31884766 C35.77308472 116.32889328 36.6902124 116.3389389 37.63513184 116.34928894 C40.67601883 116.38025685 43.71681725 116.39719378 46.7578125 116.4140625 C48.8624651 116.43276321 50.96711013 116.45233578 53.07174683 116.4727478 C58.61850525 116.52419093 64.16528802 116.56375134 69.7121582 116.60089111 C75.36936525 116.64085457 81.02646997 116.69198175 86.68359375 116.7421875 C97.78899075 116.83909094 108.89444537 116.92344942 120 117 C119.22914063 117.60328125 118.45828125 118.2065625 117.6640625 118.828125 C111.67979008 123.7067987 109.78567102 127.57154396 107 135 C79.61 135.33 52.22 135.66 24 136 C24 138.31 24 140.62 24 143 C25.98563395 144.98563395 29.92143055 144.18481344 32.64086914 144.20532227 C33.44080795 144.21522186 34.24074677 144.22512146 35.06492615 144.23532104 C37.72163892 144.26702918 40.3783696 144.29173008 43.03515625 144.31640625 C44.87219215 144.33696775 46.70922324 144.357964 48.54624939 144.37937927 C53.39104318 144.43468304 58.23588025 144.48405555 63.08074951 144.53222656 C68.02066925 144.58238111 72.96052583 144.63809866 77.90039062 144.69335938 C87.60020651 144.80104246 97.30007714 144.90246473 107 145 C106.2645008 149.59377769 105.07509032 151.3290432 101.625 154.5 C98.17632027 157.65780198 98.17632027 157.65780198 95.77700806 161.60235596 C94 164 94 164 91.02645874 164.63250732 C89.81035919 164.63615295 88.59425964 164.63979858 87.34130859 164.64355469 C86.66948044 164.6524321 85.99765228 164.66130951 85.3054657 164.67045593 C83.08595431 164.69414874 80.86802467 164.68294755 78.6484375 164.671875 C77.10810625 164.68245049 75.56778939 164.69536024 74.02749634 164.71051025 C69.97371755 164.74475294 65.92041985 164.75009147 61.86651611 164.74859619 C56.144611 164.75182012 50.4228404 164.7944272 44.70108032 164.83233643 C41.65281862 164.85241387 38.60481315 164.86168693 35.55648804 164.86248779 C34.1709594 164.8663067 32.78543083 164.87015053 31.39990234 164.87402344 C30.18539398 164.87448669 28.97088562 164.87494995 27.71957397 164.87542725 C25.08538556 164.68994433 25.08538556 164.68994433 24 166 C23.7499227 168.45809998 23.7499227 168.45809998 24 171 C26.7951035 173.7951035 28.55227406 173.27548643 32.46923828 173.31884766 C33.13277313 173.32889328 33.79630798 173.3389389 34.47994995 173.34928894 C36.67672852 173.38021988 38.87338469 173.39718312 41.0703125 173.4140625 C42.59204163 173.43276623 44.11376031 173.45233904 45.63546753 173.4727478 C49.64343105 173.52415924 53.65142823 173.56373649 57.6595459 173.60089111 C61.74837634 173.64087448 65.83706568 173.69199259 69.92578125 173.7421875 C77.95042459 173.83905339 85.97513753 173.92342379 94 174 C94.18900879 174.5470459 94.37801758 175.0940918 94.57275391 175.65771484 C94.82976074 176.37652832 95.08676758 177.0953418 95.3515625 177.8359375 C95.60244629 178.5479834 95.85333008 179.2600293 96.11181641 179.99365234 C97.44593473 183.00733689 99.57812436 184.80877918 102 187 C107 192.46321526 107 192.46321526 107 195 C71.69 195 36.38 195 0 195 C0 130.65 0 66.3 0 0 Z " fill="#E6E6FC" transform="translate(277,107)"/>
<path d="M0 0 C0.7319458 0.32582565 1.4638916 0.65165131 2.21801758 0.98735046 C4.54597357 2.0268049 6.86660289 3.08161212 9.1875 4.13671875 C10.74695307 4.83497407 12.3068452 5.53224967 13.8671875 6.22851562 C16.74092076 7.5154565 19.61343917 8.80487436 22.48046875 10.10668945 C23.0530542 10.36650101 23.62563965 10.62631256 24.21557617 10.89399719 C26.8950977 12.15801594 29.53758242 13.49925996 32.1875 14.82421875 C32.1875 34.29421875 32.1875 53.76421875 32.1875 73.82421875 C-40.7425 73.82421875 -113.6725 73.82421875 -188.8125 73.82421875 C-186.23576897 71.24748772 -183.69713204 70.36575367 -180.33203125 68.9453125 C-179.66544998 68.66204605 -178.99886871 68.3787796 -178.31208801 68.08692932 C-176.85591873 67.46858605 -175.39883914 66.85238327 -173.940979 66.23803711 C-169.92888557 64.54670896 -165.92397289 62.83850085 -161.91796875 61.1328125 C-161.07995728 60.7764975 -160.2419458 60.4201825 -159.37854004 60.05307007 C-150.70831155 56.36310536 -142.07130809 52.59843014 -133.4375 48.82421875 C-130.181183 47.40190058 -126.92462073 45.98014474 -123.66796875 44.55859375 C-122.82129639 44.18898026 -121.97462402 43.81936676 -121.10229492 43.43855286 C-109.32574404 38.29974982 -97.53742372 33.18801824 -85.75 28.07421875 C-84.60892792 27.57913818 -83.46785583 27.08405762 -82.29220581 26.57397461 C-71.63858232 21.95179471 -60.98434005 17.33104608 -50.328125 12.71484375 C-49.29637901 12.26775307 -49.29637901 12.26775307 -48.24378967 11.81163025 C-45.15034562 10.47130419 -42.05618054 9.1327246 -38.96069336 7.79711914 C-34.18115626 5.73284958 -29.41163115 3.65503866 -24.67578125 1.4921875 C-23.92143799 1.15058594 -23.16709473 0.80898437 -22.38989258 0.45703125 C-20.536776 -0.386225 -18.68981396 -1.24297645 -16.84375 -2.1015625 C-10.49998428 -4.34967535 -5.89869391 -2.70908972 0 0 Z " fill="#7885BE" transform="translate(234.8125,105.17578125)"/>
<path d="M0 0 C4.40931387 1.10443617 6.54783319 2.87121439 9.29296875 6.44921875 C12.85291345 10.57755798 15.6503533 12.57241404 21.04296875 13.51171875 C24.89131546 13.77401288 28.69748937 13.94871345 32.5546875 14.0078125 C36.56986906 14.58783313 38.19523148 15.68511496 41.04296875 18.51171875 C42.29242769 21.01063663 42.19704977 23.21853947 42.28149414 25.97070312 C42.62123824 35.91858967 44.07013857 41.67506003 51.23046875 48.88671875 C51.92527344 49.53382813 52.62007813 50.1809375 53.3359375 50.84765625 C55.29676852 52.75912997 56.02198698 53.74888161 56.09765625 56.5 C55.77424226 60.68328961 55.5525661 62.90303303 52.79296875 66.19921875 C51.88546875 66.96234375 50.97796875 67.72546875 50.04296875 68.51171875 C43.77886974 75.32905727 42.71479613 80.12998223 42.65234375 89.22460938 C42.49416697 94.22035926 41.78555745 96.87425894 38.04296875 100.51171875 C35.54393814 101.76123406 33.33576694 101.66573227 30.58349609 101.75048828 C22.72557027 102.01802984 16.09956113 102.33389487 10.34375 108.26171875 C9.31743086 109.45453519 8.32092501 110.67417157 7.3671875 111.92578125 C5.52930955 114.12689761 3.69135987 115.34515956 0.9140625 116.05859375 C-3.54393952 116.43069023 -6.00537801 116.29164509 -9.5546875 113.3828125 C-11.25327927 111.57920733 -12.93804941 109.76249408 -14.609375 107.93359375 C-19.8921651 102.48379365 -25.33181047 102.38526712 -32.64453125 102.07421875 C-33.90652344 102.05488281 -35.16851562 102.03554688 -36.46875 102.015625 C-40.49982917 101.43330785 -42.1345815 100.39700597 -44.95703125 97.51171875 C-46.3654877 93.2863494 -46.27262816 89.00108854 -46.38671875 84.58007812 C-46.71498223 77.26937684 -49.23991399 72.80801845 -54.58203125 67.76171875 C-59.74264737 62.85161797 -59.74264737 62.85161797 -60.45703125 58.38671875 C-59.74183986 52.84398545 -56.76361495 50.38923259 -52.95703125 46.51171875 C-47.26307013 40.11141815 -46.7221362 35.20025198 -46.61523438 26.84765625 C-46.42725028 21.84640507 -45.70088456 19.15021033 -41.95703125 15.51171875 C-39.45815475 14.2622805 -37.25042587 14.35756246 -34.49829102 14.2734375 C-26.17979008 13.98843533 -19.80120576 13.55088762 -13.80078125 7.24609375 C-13.04796875 6.42625 -12.29515625 5.60640625 -11.51953125 4.76171875 C-7.73718265 0.77651062 -5.47416104 -0.44870172 0 0 Z " fill="#F9C32C" transform="translate(439.95703125,219.48828125)"/>
<path d="M0 0 C137.28 0 274.56 0 416 0 C416 5.61 416 11.22 416 17 C278.72 17 141.44 17 0 17 C0 11.39 0 5.78 0 0 Z " fill="#7582BA" transform="translate(16,458)"/>
<path d="M0 0 C122.1 0 244.2 0 370 0 C370 5.28 370 10.56 370 16 C247.9 16 125.8 16 0 16 C0 10.72 0 5.44 0 0 Z " fill="#B97F46" transform="translate(39,432)"/>
<path d="M0 0 C82.5 0 165 0 250 0 C250 5.28 250 10.56 250 16 C167.5 16 85 16 0 16 C0 10.72 0 5.44 0 0 Z " fill="#BA8047" transform="translate(16,189)"/>
<path d="M0 0 C12.54 0 25.08 0 38 0 C38 6.72434608 38 6.72434608 34.5625 10.6875 C30.93268105 14.93328823 29.87911265 17.6425474 29.84609985 23.22877502 C29.83749939 24.31228745 29.82889893 25.39579987 29.82003784 26.512146 C29.81577789 27.70124573 29.81151794 28.89034546 29.80712891 30.11547852 C29.79895142 31.36781784 29.79077393 32.62015717 29.78234863 33.91044617 C29.75748014 38.06659628 29.74081836 42.22270997 29.7265625 46.37890625 C29.72120095 47.81224002 29.71582344 49.24557374 29.71043015 50.67890739 C29.68880034 56.64524876 29.67006728 62.61158746 29.65880775 68.57795811 C29.64259349 77.11246951 29.60947899 85.64652384 29.55240691 94.18086296 C29.51360422 100.18952252 29.49416263 106.19806039 29.48888719 112.20684189 C29.48524635 115.7910777 29.47336288 119.37482579 29.44078445 122.95892525 C29.40488637 126.96580915 29.40910069 130.97172168 29.41650391 134.97875977 C29.40009857 136.15368988 29.38369324 137.32862 29.36679077 138.53915405 C29.42353453 146.06488097 30.74979824 151.70750178 35 158 C35.54967752 158.461457 36.09935505 158.92291399 36.66568947 159.39835453 C38 161 38 161 38 167 C25.46 167 12.92 167 0 167 C0 161 0 161 1.20703125 159.1640625 C1.73683594 158.65617188 2.26664062 158.14828125 2.8125 157.625 C7.75134593 152.86907429 9.14899186 146.95409321 9.39440918 140.32180786 C9.41817214 138.10934385 9.42564128 135.89666626 9.41992188 133.68408203 C9.42839142 132.47002686 9.43686096 131.25597168 9.44558716 130.00512695 C9.46489885 126.69493493 9.4707399 123.38530825 9.46883965 120.07509851 C9.46871939 117.30199121 9.47730575 114.52893579 9.48561716 111.75584304 C9.50480865 105.208124 9.50775065 98.66053242 9.50097656 92.11279297 C9.49433888 85.38022793 9.51719831 78.64821118 9.55429029 71.9157573 C9.58507767 66.11503121 9.5963376 60.31448068 9.59245348 54.51367462 C9.59039525 51.05810298 9.5957201 47.60295826 9.62034607 44.14746475 C9.64693442 40.28966397 9.63281653 36.43257074 9.61523438 32.57470703 C9.62849762 31.4450351 9.64176086 30.31536316 9.65542603 29.15145874 C9.57719421 21.73665754 8.11375397 16.22838069 4 10 C3.236875 9.2575 2.47375 8.515 1.6875 7.75 C0 6 0 6 0 0 Z " fill="#F3C291" transform="translate(62,235)"/>
<path d="M0 0 C12.21 0 24.42 0 37 0 C37 7 37 7 35.7578125 9.07421875 C35.21898437 9.60660156 34.68015625 10.13898438 34.125 10.6875 C30.15584788 14.70458874 28.75284645 17.64935054 28.73257446 23.36248779 C28.72404449 24.4502652 28.71551453 25.5380426 28.70672607 26.65878296 C28.70763245 27.8474295 28.70853882 29.03607605 28.70947266 30.26074219 C28.70275543 31.51644012 28.69603821 32.77213806 28.68911743 34.06588745 C28.6714589 37.50824623 28.66676202 40.95050555 28.66548586 44.39290524 C28.66406319 46.54583454 28.65979132 48.69873864 28.65449142 50.85166168 C28.63598901 58.36922304 28.62782075 65.8867135 28.62939453 73.40429688 C28.63059479 80.40029679 28.60951591 87.39598762 28.5779072 94.39190936 C28.55170544 100.40651733 28.54102892 106.42102464 28.54230535 112.43568921 C28.54281401 116.02422021 28.53718529 119.61247671 28.51594925 123.20095062 C28.49288353 127.20807296 28.50211145 131.21450903 28.51416016 135.22167969 C28.49730164 136.99250412 28.49730164 136.99250412 28.48010254 138.79910278 C28.53254879 145.67019142 29.29866779 150.15882256 33 156 C33.7425 156.680625 34.485 157.36125 35.25 158.0625 C37 160 37 160 37 167 C24.79 167 12.58 167 0 167 C0 160 0 160 1.2421875 157.99609375 C2.05042969 157.22458984 2.05042969 157.22458984 2.875 156.4375 C7.3304153 152.12198905 8.10923257 147.51942887 8.26742554 141.47293091 C8.28537198 139.21394569 8.29228829 136.9548566 8.29052734 134.69580078 C8.29724457 133.45931793 8.30396179 132.22283508 8.31088257 130.94888306 C8.32659571 127.56856831 8.33323581 124.18849932 8.33451414 120.80816507 C8.335939 118.69308204 8.34021491 116.57802452 8.34550858 114.46294785 C8.36399185 107.07505415 8.37218125 99.68723246 8.37060547 92.29931641 C8.36940423 85.42710476 8.39050726 78.55520725 8.4220928 71.68307507 C8.44829442 65.77033652 8.45897116 59.85770033 8.45769465 53.94490421 C8.45718619 50.41899928 8.46280451 46.89337379 8.48405075 43.36752701 C8.50711684 39.4325573 8.49788842 35.49801447 8.48583984 31.56298828 C8.50269836 29.8249292 8.50269836 29.8249292 8.51989746 28.05175781 C8.46690403 21.23354564 7.66121972 16.80122434 4 11 C3.2575 10.319375 2.515 9.63875 1.75 8.9375 C0 7 0 7 0 0 Z " fill="#F6C593" transform="translate(158,235)"/>
<path d="M0 0 C4.62 0 9.24 0 14 0 C14.02505615 2.26673584 14.0501123 4.53347168 14.07592773 6.86889648 C14.15923739 14.34083462 14.24794411 21.81270155 14.33933926 29.28454494 C14.39460922 33.81670586 14.44803559 38.34887318 14.49731445 42.88110352 C14.54489811 47.25128548 14.59723848 51.62138648 14.65294075 55.99147224 C14.67339158 57.66248635 14.69210006 59.33352269 14.70907402 61.00457573 C14.73305793 63.3370356 14.7631202 65.66934107 14.79467773 68.00170898 C14.8004332 68.6994191 14.80618866 69.39712921 14.81211853 70.11598206 C14.59440636 73.33793024 14.59440636 73.33793024 16 76 C18.01594582 76.23427778 20.038474 76.41336124 22.0625 76.5625 C23.71958984 76.68818359 23.71958984 76.68818359 25.41015625 76.81640625 C26.26480469 76.87699219 27.11945313 76.93757813 28 77 C28.00364563 77.85697983 28.00729126 78.71395966 28.01104736 79.59690857 C28.04903243 87.70292903 28.10600382 95.80855144 28.18390274 103.91429043 C28.22328554 108.08081494 28.25551874 112.24713103 28.27099609 116.41381836 C28.28622381 120.44061026 28.32077611 124.4668288 28.36830902 128.49336433 C28.3830602 130.0237636 28.3910374 131.55424476 28.39188385 133.08471489 C28.35037062 145.10775889 28.35037062 145.10775889 33 156 C33.7425 156.70125 34.485 157.4025 35.25 158.125 C37 160 37 160 37 167 C24.79 167 12.58 167 0 167 C0 160 0 160 1.2421875 157.9609375 C1.78101563 157.43757812 2.31984375 156.91421875 2.875 156.375 C7.03222697 152.25793947 8.24550587 148.3305743 8.27415466 142.51725769 C8.28412979 141.42810562 8.29410492 140.33895355 8.30438232 139.21679688 C8.305047 138.03174561 8.30571167 136.84669434 8.30639648 135.62573242 C8.31472 134.36988846 8.32304352 133.11404449 8.33161926 131.82014465 C8.35352034 128.3819877 8.36235726 124.94391965 8.36744571 121.50570083 C8.37109464 119.3549436 8.37733749 117.20420947 8.3844471 115.05346107 C8.40892684 107.54238492 8.42199018 100.03137767 8.42553711 92.52026367 C8.42917074 85.53156516 8.45905707 78.54330625 8.50094169 71.55474204 C8.53569404 65.54435964 8.5510864 59.53412259 8.55178314 53.52364045 C8.55257432 49.93840422 8.56123844 46.35361605 8.58978081 42.76848412 C8.62093333 38.76616025 8.61187846 34.7648768 8.59936523 30.76245117 C8.61419952 29.5834726 8.62903381 28.40449402 8.64431763 27.18978882 C8.58168237 20.14844296 7.64203942 15.4192261 3 10 C2.45034293 9.57945941 1.90068586 9.15891882 1.33437252 8.72563457 C0 7 0 7 0 0 Z " fill="#F8C694" transform="translate(253,235)"/>
<path d="M0 0 C6.55655298 3.5732371 9.89701315 7.70979962 13.125 14.3125 C14.82164192 22.96537377 14.40320702 30.94621487 9.49609375 38.40625 C5.263602 43.84967263 0.18651607 46.35449464 -6.25 48.5 C-15.11042082 49.4756059 -21.16999827 47.16769344 -28.5 42.375 C-33.96422008 36.66240628 -36.53807854 30.93637225 -36.875 23 C-36.54985791 15.73564122 -34.62769975 9.83530184 -29.3828125 4.65625 C-20.05742636 -2.74600203 -10.98222645 -4.99439542 0 0 Z " fill="#F0F0FB" transform="translate(449.25,254.5)"/>
<path d="M0 0 C6.27 0 12.54 0 19 0 C19.0093457 2.0430835 19.01869141 4.08616699 19.02832031 6.19116211 C19.06220462 12.96866848 19.11781656 19.74587403 19.18390274 26.523139 C19.22328224 30.62912956 19.25551703 34.73490872 19.27099609 38.84106445 C19.28622603 42.80950562 19.32078211 46.77736524 19.36830902 50.74554634 C19.38305794 52.25361618 19.39103726 53.76176909 19.39188385 55.26991081 C19.40308852 65.22868115 19.85555438 73.51515744 26.75 81.1875 C29 84 29 84 29 90 C16.46 90 3.92 90 -9 90 C-9 84 -9 84 -7.7578125 82.09375 C-6.94957031 81.30484375 -6.94957031 81.30484375 -6.125 80.5 C-1.29742639 75.74239123 -0.75128786 70.37062919 -0.68115234 63.80126953 C-0.67110672 63.10788986 -0.6610611 62.41451019 -0.65071106 61.70011902 C-0.62003042 59.42769129 -0.60288657 57.15538054 -0.5859375 54.8828125 C-0.56721364 53.29954024 -0.54763932 51.71627784 -0.5272522 50.13302612 C-0.47605356 45.9804466 -0.43636246 41.82783478 -0.39910889 37.67510986 C-0.35899204 33.43176359 -0.30793484 29.18855029 -0.2578125 24.9453125 C-0.16119852 16.63029273 -0.07775958 8.31521749 0 0 Z " fill="#F7C694" transform="translate(357,312)"/>
<path d="M0 0 C6.90271338 5.15532839 13.27044228 12.15902158 14.8125 20.875 C16.13913137 32.90147131 14.81427457 41.79452307 7.8125 51.875 C1.51835763 59.59907375 -7.27824286 63.91563719 -17.11328125 65.28125 C-28.33381797 65.66214516 -37.58285663 61.72911571 -45.90625 54.3515625 C-53.07104398 46.85777287 -56.0176741 37.1718917 -55.91748047 26.95947266 C-55.37067989 17.70371069 -51.12350064 9.18990182 -44.375 2.8125 C-30.75279702 -7.67633075 -14.70124758 -9.57135605 0 0 Z M-42.1015625 15.84765625 C-45.98600334 23.09954401 -46.6535423 30.72961853 -44.3828125 38.69921875 C-41.04485047 46.21538841 -35.54335187 50.74341291 -28.25 54.3125 C-19.11046296 55.99119048 -12.25329659 54.79277508 -4.43359375 49.7421875 C0.50191936 46.00653597 3.63309396 40.95174921 4.8125 34.875 C5.50781056 26.26384609 4.40800729 20.06130208 -0.125 12.75 C-5.05323886 7.34675016 -12.92048996 3.61807661 -20.1875 3.125 C-29.15276412 3.76124455 -37.12069777 8.46692032 -42.1015625 15.84765625 Z " fill="#070503" transform="translate(458.1875,248.125)"/>
<path d="M0 0 C0 0.66 0 1.32 0 2 C-0.91136719 2.49886719 -1.82273438 2.99773437 -2.76171875 3.51171875 C-11.65051722 8.42204423 -20.32558827 13.61626054 -28.94067383 18.99121094 C-34.88518849 22.69802398 -40.86046498 26.34546103 -46.875 29.9375 C-55.11744878 34.86147508 -63.32691183 39.83750362 -71.52099609 44.84155273 C-79.32355742 49.60237751 -87.16135497 54.29681298 -95 59 C-8.375 59.495 -8.375 59.495 80 60 C80 40.86 80 21.72 80 2 C80.33 2 80.66 2 81 2 C81 21.47 81 40.94 81 61 C8.07 61 -64.86 61 -140 61 C-137.42326897 58.42326897 -134.88463204 57.54153492 -131.51953125 56.12109375 C-130.51965935 55.69619408 -130.51965935 55.69619408 -129.49958801 55.26271057 C-128.04341873 54.6443673 -126.58633914 54.02816452 -125.128479 53.41381836 C-121.11638557 51.72249021 -117.11147289 50.0142821 -113.10546875 48.30859375 C-112.26745728 47.95227875 -111.4294458 47.59596375 -110.56604004 47.22885132 C-101.8958136 43.53888748 -93.2587398 39.77436425 -84.625 36 C-81.39603191 34.58938877 -78.16682892 33.17931622 -74.9375 31.76953125 C-74.09516312 31.40177582 -73.25282623 31.03402039 -72.38496399 30.65512085 C-57.81952969 24.29948706 -43.23548907 17.98651635 -28.65478516 11.66601562 C-26.47037735 10.71875058 -24.28596979 9.77148498 -22.1015625 8.82421875 C-21.1125293 8.39574142 -20.12349609 7.9672641 -19.10449219 7.52580261 C-18.16847168 7.11985367 -17.23245117 6.71390472 -16.26806641 6.2956543 C-15.38306458 5.91218842 -14.49806274 5.52872253 -13.58624268 5.13363647 C-10.29927398 3.6928484 -7.03381036 2.2060634 -3.77377319 0.70539856 C-2 0 -2 0 0 0 Z " fill="#596395" transform="translate(186,118)"/>
<path d="M0 0 C1.68886574 -0.00639748 1.68886574 -0.00639748 3.41184998 -0.01292419 C4.65294525 -0.01247101 5.89404053 -0.01201782 7.17274475 -0.0115509 C9.1264222 -0.01658882 9.1264222 -0.01658882 11.11956787 -0.02172852 C14.69805382 -0.03057858 18.27651587 -0.03290704 21.8550117 -0.0335443 C24.83971109 -0.03449265 27.82440488 -0.03817006 30.80910212 -0.0417164 C37.84926451 -0.0498647 44.88941412 -0.05230028 51.92958069 -0.05158997 C59.19819813 -0.05098899 66.4667414 -0.06154387 73.73534006 -0.07733363 C79.97062338 -0.09039732 86.20588243 -0.09577436 92.44117934 -0.09513456 C96.16754833 -0.09487923 99.89385143 -0.09774929 103.62020683 -0.10831261 C107.77449005 -0.11976709 111.92860642 -0.11525397 116.082901 -0.10920715 C117.94150757 -0.11763641 117.94150757 -0.11763641 119.83766174 -0.12623596 C120.96639206 -0.12204147 122.09512238 -0.11784698 123.25805664 -0.11352539 C124.2408557 -0.11407016 125.22365477 -0.11461493 126.23623562 -0.1151762 C128.69252014 0.13371277 128.69252014 0.13371277 131.69252014 2.13371277 C132.00502014 5.13371277 132.00502014 5.13371277 131.69252014 8.13371277 C129.0722846 10.75394831 127.95533943 10.38492132 124.30238342 10.38768005 C123.15819946 10.3933197 122.0140155 10.39895935 120.8351593 10.4047699 C119.5737915 10.40072144 118.31242371 10.39667297 117.01283264 10.39250183 C115.67589629 10.3952108 114.33896143 10.3987712 113.00202942 10.40312195 C109.36572885 10.41225952 105.72954144 10.40869611 102.09323883 10.40236378 C98.29315886 10.39731084 94.49308877 10.40199326 90.69300842 10.40513611 C84.31066645 10.40877782 77.92837072 10.4039713 71.54603577 10.39445496 C64.16037605 10.38356999 56.77482674 10.38709543 49.38916969 10.39810777 C43.05538295 10.40717482 36.7216295 10.40846878 30.38783836 10.40323043 C26.60170557 10.40010751 22.81562472 10.39971016 19.02949524 10.40630341 C15.47052576 10.41206782 11.91169906 10.40809673 8.35274506 10.39651489 C6.41845904 10.39259555 4.484161 10.39856167 2.54988098 10.4047699 C1.40569702 10.39913025 0.26151306 10.3934906 -0.91734314 10.38768005 C-1.91581268 10.386926 -2.91428223 10.38617195 -3.94300842 10.38539505 C-6.30747986 10.13371277 -6.30747986 10.13371277 -8.30747986 8.13371277 C-8.05747986 4.57121277 -8.05747986 4.57121277 -7.30747986 1.13371277 C-4.73035275 -0.15485079 -2.88672375 0.00492426 0 0 Z " fill="#050505" transform="translate(308.30747985839844,184.8662872314453)"/>
<path d="M0 0 C1.14418396 -0.00563965 2.28836792 -0.0112793 3.46722412 -0.01708984 C4.72859192 -0.01304138 5.98995972 -0.00899292 7.28955078 -0.00482178 C8.62648713 -0.00753074 9.96342199 -0.01109114 11.300354 -0.01544189 C14.93665457 -0.02457947 18.57284198 -0.02101606 22.20914459 -0.01468372 C26.00922457 -0.00963078 29.80929466 -0.0143132 33.609375 -0.01745605 C39.99171697 -0.02109777 46.3740127 -0.01629124 52.75634766 -0.0067749 C60.14200738 0.00411006 67.52755669 0.00058462 74.91321373 -0.01042771 C81.24700047 -0.01949477 87.58075392 -0.02078873 93.91454506 -0.01555037 C97.70067785 -0.01242746 101.4867587 -0.0120301 105.27288818 -0.01862335 C108.83185766 -0.02438776 112.39068436 -0.02041668 115.94963837 -0.00883484 C117.88392438 -0.00491549 119.81822242 -0.01088162 121.75250244 -0.01708984 C122.8966864 -0.0114502 124.04087036 -0.00581055 125.21972656 0 C126.21819611 0.00075405 127.21666565 0.0015081 128.24539185 0.002285 C130.60986328 0.25396729 130.60986328 0.25396729 132.60986328 2.25396729 C132.92236328 5.25396729 132.92236328 5.25396729 132.60986328 8.25396729 C129.24075313 10.50004072 128.1236576 10.50641974 124.18212891 10.5146637 C122.49120117 10.52529091 122.49120117 10.52529091 120.76611328 10.53613281 C119.52861328 10.5336554 118.29111328 10.53117798 117.01611328 10.52862549 C115.0622168 10.53629189 115.0622168 10.53629189 113.06884766 10.54411316 C109.49452922 10.55751538 105.92031645 10.55808057 102.34597778 10.55554986 C99.36370744 10.55448115 96.38145856 10.55936087 93.39919281 10.56415528 C86.36523334 10.57525432 79.33132727 10.57568541 72.29736328 10.56964111 C65.0360649 10.56359755 57.77496011 10.57592103 50.51369476 10.59721118 C44.2826285 10.61481033 38.05162396 10.62083129 31.82053375 10.61757344 C28.09750608 10.615758 24.37461655 10.61842266 20.65161133 10.63228798 C16.50215014 10.64716315 12.35308477 10.63791106 8.20361328 10.62628174 C6.96611328 10.63392548 5.72861328 10.64156921 4.45361328 10.64944458 C2.76268555 10.63892311 2.76268555 10.63892311 1.03759766 10.62818909 C-0.43465271 10.6284407 -0.43465271 10.6284407 -1.93664551 10.6286974 C-4.39013672 10.25396729 -4.39013672 10.25396729 -6.20983887 8.89073467 C-7.87060589 6.58768099 -7.74529233 5.02418103 -7.39013672 2.25396729 C-4.76990118 -0.36626826 -3.652956 0.00275874 0 0 Z " fill="#060607" transform="translate(307.39013671875,156.74603271484375)"/>
<path d="M0 0 C1.12728516 -0.00701431 2.25457031 -0.01402863 3.41601562 -0.02125549 C4.65351563 -0.01361176 5.89101563 -0.00596802 7.16601562 0.00190735 C8.46861328 -0.00174332 9.77121094 -0.00539398 11.11328125 -0.00915527 C14.68766952 -0.01856911 18.2617842 -0.0091349 21.83615112 0.00417686 C25.57436164 0.01548402 29.31255855 0.01138442 33.05078125 0.00942993 C39.32882157 0.00854672 45.60675397 0.01963293 51.88476562 0.03804016 C59.14603297 0.05920824 66.40714219 0.06271784 73.66843414 0.0564782 C80.64966421 0.05078605 87.63083852 0.05642844 94.61206055 0.06765175 C97.58489003 0.07229971 100.55768544 0.07317074 103.53051758 0.0710659 C107.67993475 0.06883477 111.82912985 0.08328288 115.97851562 0.0995636 C117.21601563 0.09708618 118.45351563 0.09460876 119.72851562 0.09205627 C120.85580078 0.09914108 121.98308594 0.10622589 123.14453125 0.11352539 C124.12603149 0.11557826 125.10753174 0.11763113 126.11877441 0.11974621 C128.57226562 0.3742218 128.57226562 0.3742218 131.57226562 2.3742218 C131.88476562 5.3742218 131.88476562 5.3742218 131.57226562 8.3742218 C128.95203008 10.99445735 127.83508491 10.62543035 124.18212891 10.62818909 C123.03794495 10.63382874 121.89376099 10.63946838 120.71490479 10.64527893 C119.45353699 10.64123047 118.19216919 10.63718201 116.89257812 10.63301086 C115.55564178 10.63571983 114.21870692 10.63928023 112.8817749 10.64363098 C109.24547433 10.65276856 105.60928693 10.64920515 101.97298431 10.64287281 C98.17290434 10.63781987 94.37283425 10.64250229 90.57275391 10.64564514 C84.19041194 10.64928685 77.80811621 10.64448033 71.42578125 10.63496399 C64.04012153 10.62407903 56.65457222 10.62760446 49.26891518 10.6386168 C42.93512843 10.64768385 36.60137498 10.64897781 30.26758385 10.64373946 C26.48145105 10.64061654 22.69537021 10.64021919 18.90924072 10.64681244 C15.35027125 10.65257685 11.79144454 10.64860576 8.23249054 10.63702393 C6.29820453 10.63310458 4.36390648 10.6390707 2.42962646 10.64527893 C1.2854425 10.63963928 0.14125854 10.63399963 -1.03759766 10.62818909 C-2.0360672 10.62743504 -3.03453674 10.62668098 -4.06326294 10.62590408 C-6.42773438 10.3742218 -6.42773438 10.3742218 -8.42773438 8.3742218 C-8.78288998 5.60400805 -8.90820355 4.04050809 -7.24743652 1.73745441 C-4.75251418 -0.13162043 -3.10239929 -0.00053021 0 0 Z " fill="#060607" transform="translate(308.427734375,127.62577819824219)"/>
<path d="M0 0 C4.62 0 9.24 0 14 0 C14.69149944 37.67339109 15.23314245 75.3402553 14.77595139 113.01970673 C14.75004103 115.30887488 14.72975148 117.59803121 14.71096802 119.88726807 C14.68046245 123.48390454 14.63462422 127.08001899 14.57631874 130.67630959 C14.5478545 132.60926489 14.53262531 134.5424011 14.51786804 136.47550964 C14.35958098 144.45532152 13.84696032 149.81411584 8.375 155.9375 C5.34167856 159.84888817 5.25154963 162.13670719 5 167 C3.35 167 1.7 167 0 167 C-0.41275143 163.62919662 -0.71548422 161.04451862 1.265625 158.15234375 C2.31092872 156.99794279 3.38565067 155.86928315 4.4921875 154.7734375 C7.63440774 151.07766551 8.2508076 147.25476479 8.27415466 142.51725769 C8.28412979 141.42810562 8.29410492 140.33895355 8.30438232 139.21679688 C8.305047 138.03174561 8.30571167 136.84669434 8.30639648 135.62573242 C8.31472 134.36988846 8.32304352 133.11404449 8.33161926 131.82014465 C8.35352034 128.3819877 8.36235726 124.94391965 8.36744571 121.50570083 C8.37109464 119.3549436 8.37733749 117.20420947 8.3844471 115.05346107 C8.40892684 107.54238492 8.42199018 100.03137767 8.42553711 92.52026367 C8.42917074 85.53156516 8.45905707 78.54330625 8.50094169 71.55474204 C8.53569404 65.54435964 8.5510864 59.53412259 8.55178314 53.52364045 C8.55257432 49.93840422 8.56123844 46.35361605 8.58978081 42.76848412 C8.62093333 38.76616025 8.61187846 34.7648768 8.59936523 30.76245117 C8.61419952 29.5834726 8.62903381 28.40449402 8.64431763 27.18978882 C8.58168237 20.14844296 7.64203942 15.4192261 3 10 C2.45034293 9.57945941 1.90068586 9.15891882 1.33437252 8.72563457 C0 7 0 7 0 0 Z " fill="#D6A573" transform="translate(253,235)"/>
<path d="M0 0 C12.87 0 25.74 0 39 0 C37 4 37 4 34.8125 6.375 C32.75700364 8.85497968 32.75700364 8.85497968 32.875 11.8125 C34.21667976 16.12095665 34.21667976 16.12095665 40 23 C26.8 23 13.6 23 0 23 C0 15.41 0 7.82 0 0 Z " fill="#2A91F8" transform="translate(229,37)"/>
<path d="M0 0 C1.65 0 3.3 0 5 0 C5.07476562 0.56847656 5.14953125 1.13695312 5.2265625 1.72265625 C6.15814663 7.19342975 7.60992126 10.38382205 11.5625 14.296875 C14.60499783 17.90157352 15.25039653 21.68575485 15.26742554 26.29292297 C15.27595551 27.34000427 15.28448547 28.38708557 15.29327393 29.46589661 C15.29191437 31.17334297 15.29191437 31.17334297 15.29052734 32.9152832 C15.30060318 34.72589737 15.30060318 34.72589737 15.31088257 36.5730896 C15.32661065 39.87702142 15.33323675 43.18070182 15.33451414 46.48465371 C15.3359381 48.55165633 15.34021236 50.61863279 15.34550858 52.68562889 C15.36400043 59.90493816 15.37218038 67.12417369 15.37060547 74.34350586 C15.36940478 81.05948957 15.39049475 87.77515155 15.4220928 94.49105388 C15.44829824 100.26789265 15.45897096 106.04462662 15.45769465 111.82152432 C15.4571862 115.26696321 15.46280381 118.71211613 15.48405075 122.1574955 C15.50712436 126.00396762 15.49788611 129.85000327 15.48583984 133.6965332 C15.49707886 134.82875809 15.50831787 135.96098297 15.51989746 137.1275177 C15.45443274 145.36459795 13.84849185 150.92880611 8.3125 157.0625 C5.63279734 160.46644662 5.25602414 162.73293107 5 167 C3.35 167 1.7 167 0 167 C-0.44009533 163.99268192 -0.62229665 161.84750878 1.23046875 159.32421875 C2.25629487 158.22240551 3.31014147 157.1457897 4.39453125 156.1015625 C9.57496328 149.32036437 9.44101965 141.8458757 9.41992188 133.68408203 C9.42839142 132.47002686 9.43686096 131.25597168 9.44558716 130.00512695 C9.46489885 126.69493493 9.4707399 123.38530825 9.46883965 120.07509851 C9.46871939 117.30199121 9.47730575 114.52893579 9.48561716 111.75584304 C9.50480865 105.208124 9.50775065 98.66053242 9.50097656 92.11279297 C9.49433888 85.38022793 9.51719831 78.64821118 9.55429029 71.9157573 C9.58507767 66.11503121 9.5963376 60.31448068 9.59245348 54.51367462 C9.59039525 51.05810298 9.5957201 47.60295826 9.62034607 44.14746475 C9.64693442 40.28966397 9.63281653 36.43257074 9.61523438 32.57470703 C9.62849762 31.4450351 9.64176086 30.31536316 9.65542603 29.15145874 C9.57719421 21.73665754 8.11375397 16.22838069 4 10 C3.236875 9.2575 2.47375 8.515 1.6875 7.75 C0 6 0 6 -0.25 2.75 C-0.1675 1.8425 -0.085 0.935 0 0 Z " fill="#E5B07C" transform="translate(62,235)"/>
<path d="M0 0 C1.32 0 2.64 0 4 0 C4.15855469 0.65226563 4.31710938 1.30453125 4.48046875 1.9765625 C6.07763608 7.95932188 7.86819354 11.44441852 12 16 C13.71395238 19.52964108 14.2517824 22.34948577 14.26069641 26.25495911 C14.26778122 27.29362625 14.27486603 28.3322934 14.28216553 29.4024353 C14.27968811 30.53138214 14.27721069 31.66032898 14.2746582 32.82348633 C14.27976913 34.02080887 14.28488007 35.21813141 14.29014587 36.45173645 C14.30165301 39.72877992 14.30411704 43.00566629 14.30158257 46.28272462 C14.30051085 49.02354787 14.30540157 51.76434795 14.310188 54.50516623 C14.32127575 60.97554846 14.32172526 67.44587264 14.31567383 73.91625977 C14.30963919 80.57766006 14.32193362 87.23884885 14.3432439 93.90021306 C14.36089692 99.63034144 14.36685529 105.36040273 14.36360615 111.09055728 C14.36179842 114.50799383 14.36437781 117.92527964 14.37832069 121.34269142 C14.3906777 125.15806915 14.38389676 128.97295995 14.37231445 132.78833008 C14.37995819 133.91120422 14.38760193 135.03407837 14.39547729 136.190979 C14.34352253 143.94700917 13.64635785 149.90182496 8.4375 156 C5.41639968 159.71827732 4.88276458 162.34542311 4 167 C2.68 167 1.36 167 0 167 C-0.72926045 161.04437299 -0.72926045 161.04437299 1.265625 158.1875 C2.30965534 157.0522437 3.3843348 155.94415881 4.4921875 154.87109375 C9.13061204 149.11512133 8.29596978 141.67771481 8.29052734 134.69580078 C8.29724457 133.45931793 8.30396179 132.22283508 8.31088257 130.94888306 C8.32659571 127.56856831 8.33323581 124.18849932 8.33451414 120.80816507 C8.335939 118.69308204 8.34021491 116.57802452 8.34550858 114.46294785 C8.36399185 107.07505415 8.37218125 99.68723246 8.37060547 92.29931641 C8.36940423 85.42710476 8.39050726 78.55520725 8.4220928 71.68307507 C8.44829442 65.77033652 8.45897116 59.85770033 8.45769465 53.94490421 C8.45718619 50.41899928 8.46280451 46.89337379 8.48405075 43.36752701 C8.50711684 39.4325573 8.49788842 35.49801447 8.48583984 31.56298828 C8.50269836 29.8249292 8.50269836 29.8249292 8.51989746 28.05175781 C8.46690403 21.23354564 7.66121972 16.80122434 4 11 C3.2575 10.319375 2.515 9.63875 1.75 8.9375 C0 7 0 7 -0.25 3.25 C-0.1675 2.1775 -0.085 1.105 0 0 Z " fill="#E5B07B" transform="translate(158,235)"/>
<path d="M0 0 C1.32 0 2.64 0 4 0 C4 64.35 4 128.7 4 195 C2.68 195 1.36 195 0 195 C0 130.65 0 66.3 0 0 Z " fill="#D1D1F0" transform="translate(277,107)"/>
<path d="M0 0 C5.52011164 0.07873376 8.07665641 1.79118764 12.1875 5.375 C14.51221777 9.6524807 13.04991766 12.72012927 11.75 17.25 C10.63341821 20.64092943 9.39793335 23.97751811 8.125 27.3125 C7.80015625 28.17810547 7.4753125 29.04371094 7.140625 29.93554688 C6.34908318 32.04244496 5.55216278 34.14712802 4.75 36.25 C1.36866005 33.0885846 -0.02337801 30.74761395 -1.25 26.25 C-6.26047725 26.08015331 -9.63638808 26.14092026 -14.25 28.25 C-15.24 28.25 -16.23 28.25 -17.25 28.25 C-15.51621585 22.35513389 -12.84391176 16.95697508 -10.1875 11.4375 C-9.72794922 10.47134766 -9.26839844 9.50519531 -8.79492188 8.50976562 C-4.76776554 0.09472382 -4.76776554 0.09472382 0 0 Z " fill="#F35058" transform="translate(409.25,330.75)"/>
<path d="M0 0 C2.9546522 1.00532506 3.89261757 1.82591642 5.55566406 4.52197266 C6.03745117 5.5588623 6.51923828 6.59575195 7.015625 7.6640625 C7.54414063 8.78554688 8.07265625 9.90703125 8.6171875 11.0625 C9.15601563 12.238125 9.69484375 13.41375 10.25 14.625 C10.80429687 15.80835938 11.35859375 16.99171875 11.9296875 18.2109375 C13.29768382 21.13561929 14.65385927 24.06521059 16 27 C12.17591794 28.27469402 10.76261161 27.25420387 7 26 C3.95659873 25.16650049 3.95659873 25.16650049 1 26 C-0.58120882 27.91661675 -1.74606231 29.8676759 -2.921875 32.0546875 C-4 34 -4 34 -6 36 C-9.18930017 30.19091754 -11.27121366 24.42230949 -13.09375 18.05078125 C-13.90402217 15.11662693 -13.90402217 15.11662693 -14.90625 12.85546875 C-15.625 11.125 -15.625 11.125 -16 8 C-12.04486584 1.32739271 -7.7357087 -0.86114493 0 0 Z " fill="#F35058" transform="translate(469,331)"/>
<path d="M0 0 C1.05119019 -0.00945648 2.10238037 -0.01891296 3.1854248 -0.02865601 C4.31984009 -0.02258331 5.45425537 -0.01651062 6.62304688 -0.01025391 C8.37059265 -0.01455917 8.37059265 -0.01455917 10.15344238 -0.01895142 C12.61808762 -0.02099408 15.082749 -0.0154502 17.54736328 -0.00292969 C21.32686502 0.01312018 25.10529727 -0.00277254 28.88476562 -0.02197266 C31.27669508 -0.01999026 33.66862386 -0.01614667 36.06054688 -0.01025391 C37.19496216 -0.0163266 38.32937744 -0.02239929 39.49816895 -0.02865601 C41.07495422 -0.01447128 41.07495422 -0.01447128 42.68359375 0 C43.60942261 0.00238678 44.53525146 0.00477356 45.48913574 0.00723267 C47.84179688 0.38818359 47.84179688 0.38818359 49.66418457 1.47494507 C50.84179688 3.38818359 50.84179688 3.38818359 50.84179688 10.38818359 C31.37179687 10.38818359 11.90179688 10.38818359 -8.15820312 10.38818359 C-8.15820312 3.38818359 -8.15820312 3.38818359 -6.98059082 1.47494507 C-4.54138785 0.02035238 -2.83712434 0.00731409 0 0 Z " fill="#C9935E" transform="translate(250.158203125,411.61181640625)"/>
<path d="M0 0 C1.05119019 -0.00945648 2.10238037 -0.01891296 3.1854248 -0.02865601 C4.31984009 -0.02258331 5.45425537 -0.01651062 6.62304688 -0.01025391 C8.37059265 -0.01455917 8.37059265 -0.01455917 10.15344238 -0.01895142 C12.61808762 -0.02099408 15.082749 -0.0154502 17.54736328 -0.00292969 C21.32686502 0.01312018 25.10529727 -0.00277254 28.88476562 -0.02197266 C31.27669508 -0.01999026 33.66862386 -0.01614667 36.06054688 -0.01025391 C37.19496216 -0.0163266 38.32937744 -0.02239929 39.49816895 -0.02865601 C41.07495422 -0.01447128 41.07495422 -0.01447128 42.68359375 0 C43.60942261 0.00238678 44.53525146 0.00477356 45.48913574 0.00723267 C47.84179688 0.38818359 47.84179688 0.38818359 49.66418457 1.47494507 C50.84179688 3.38818359 50.84179688 3.38818359 50.84179688 10.38818359 C31.37179688 10.38818359 11.90179688 10.38818359 -8.15820312 10.38818359 C-8.15820312 3.38818359 -8.15820312 3.38818359 -6.98059082 1.47494507 C-4.54138785 0.02035238 -2.83712434 0.00731409 0 0 Z " fill="#C9945E" transform="translate(155.158203125,411.61181640625)"/>
<path d="M0 0 C1.54664085 -0.01407143 1.54664085 -0.01407143 3.12452698 -0.02842712 C4.2319072 -0.01719315 5.33928741 -0.00595917 6.48022461 0.00561523 C7.62164413 0.00416 8.76306366 0.00270477 9.93907166 0.00120544 C12.35068313 0.00286477 14.76230515 0.01442959 17.17382812 0.03515625 C20.87211897 0.06412713 24.56897835 0.05576171 28.26733398 0.04272461 C30.60913785 0.04896136 32.95093718 0.05735179 35.29272461 0.06811523 C36.40212906 0.0651796 37.51153351 0.06224396 38.65455627 0.05921936 C40.19646889 0.07824562 40.19646889 0.07824562 41.76953125 0.09765625 C43.12710289 0.10576073 43.12710289 0.10576073 44.51210022 0.11402893 C46.82006836 0.50170898 46.82006836 0.50170898 48.63572693 1.58946228 C49.82006836 3.50170898 49.82006836 3.50170898 49.82006836 10.50170898 C30.35006836 10.50170898 10.88006836 10.50170898 -9.17993164 10.50170898 C-9.17993164 4.50170898 -9.17993164 4.50170898 -7.50367737 2.1580658 C-4.74411158 0.19105816 -3.36128705 0.0006166 0 0 Z " fill="#C9935E" transform="translate(346.179931640625,411.498291015625)"/>
<path d="M0 0 C1.02794174 -0.01268417 2.05588348 -0.02536835 3.11497498 -0.03843689 C4.22437943 -0.03550125 5.33378387 -0.03256561 6.47680664 -0.02954102 C8.18750084 -0.03740379 8.18750084 -0.03740379 9.93275452 -0.04542542 C12.34611191 -0.05185273 14.7595006 -0.05049951 17.17285156 -0.04199219 C20.86913786 -0.03348828 24.56387648 -0.06222645 28.26000977 -0.09399414 C30.60310826 -0.09560632 32.9462095 -0.0950283 35.28930664 -0.09204102 C36.39668686 -0.10327499 37.50406708 -0.11450897 38.64500427 -0.12608337 C39.67609818 -0.11670242 40.70719208 -0.10732147 41.76953125 -0.09765625 C42.6753746 -0.09749008 43.58121796 -0.09732391 44.51451111 -0.09715271 C47.82270028 0.58379811 48.99442572 1.67063119 50.94946289 4.40405273 C50.94946289 6.38405273 50.94946289 8.36405273 50.94946289 10.40405273 C31.47946289 10.40405273 12.00946289 10.40405273 -8.05053711 10.40405273 C-8.05053711 3.40405273 -8.05053711 3.40405273 -6.86619568 1.49180603 C-4.46122502 0.05099838 -2.80095719 0.01672125 0 0 Z " fill="#C9945E" transform="translate(60.050537109375,411.595947265625)"/>
<path d="M0 0 C19.14 0 38.28 0 58 0 C58 2.31 58 4.62 58 7 C55.44584077 9.55415923 54.50006876 9.25705997 50.95532227 9.2746582 C49.90405655 9.28419022 48.85279083 9.29372223 47.76966858 9.30354309 C46.63009201 9.30263168 45.49051544 9.30172028 44.31640625 9.30078125 C43.14996078 9.30506638 41.98351532 9.3093515 40.78172302 9.31376648 C38.31111298 9.31951802 35.84048599 9.32000402 33.36987305 9.31567383 C29.58157558 9.3125159 25.79406008 9.33595686 22.00585938 9.36132812 C19.60937599 9.36360115 17.21289049 9.3643046 14.81640625 9.36328125 C13.67885391 9.372491 12.54130157 9.38170074 11.36927795 9.39118958 C9.78765114 9.38184639 9.78765114 9.38184639 8.17407227 9.37231445 C7.2452272 9.37294388 6.31638214 9.3735733 5.35939026 9.3742218 C3 9 3 9 1.17662048 7.85173035 C0 6 0 6 0 0 Z " fill="#D69D64" transform="translate(52,216)"/>
<path d="M0 0 C19.14 0 38.28 0 58 0 C58 2.31 58 4.62 58 7 C55.44584077 9.55415923 54.50006876 9.25705997 50.95532227 9.2746582 C49.90405655 9.28419022 48.85279083 9.29372223 47.76966858 9.30354309 C46.63009201 9.30263168 45.49051544 9.30172028 44.31640625 9.30078125 C43.14996078 9.30506638 41.98351532 9.3093515 40.78172302 9.31376648 C38.31111298 9.31951802 35.84048599 9.32000402 33.36987305 9.31567383 C29.58157558 9.3125159 25.79406008 9.33595686 22.00585938 9.36132812 C19.60937599 9.36360115 17.21289049 9.3643046 14.81640625 9.36328125 C13.67885391 9.372491 12.54130157 9.38170074 11.36927795 9.39118958 C9.78765114 9.38184639 9.78765114 9.38184639 8.17407227 9.37231445 C7.2452272 9.37294388 6.31638214 9.3735733 5.35939026 9.3742218 C3 9 3 9 1.17662048 7.85173035 C0 6 0 6 0 0 Z " fill="#D79D64" transform="translate(147,216)"/>
<path d="M0 0 C6.27 0 12.54 0 19 0 C19 0.33 19 0.66 19 1 C14.38 1 9.76 1 5 1 C5.02094727 3.04832031 5.04189453 5.09664063 5.06347656 7.20703125 C5.12993768 13.996253 5.17401138 20.78548961 5.20724869 27.57495117 C5.2280691 31.68897802 5.25628411 35.80266983 5.30175781 39.91650391 C5.34541523 43.89117701 5.36917877 47.8655291 5.37950897 51.84042358 C5.38686487 53.35221404 5.401229 54.86398814 5.42292023 56.37564087 C5.626218 71.13873908 5.626218 71.13873908 1 78 C0.278125 78.66 -0.44375 79.32 -1.1875 80 C-3.96269634 83.06228562 -3.7290281 85.93542149 -4 90 C-5.65 90 -7.3 90 -9 90 C-9.44727321 86.94363309 -9.59562736 84.82174516 -7.734375 82.25390625 C-6.68654704 81.11197723 -5.61167127 79.99411081 -4.5078125 78.90625 C-0.9663713 74.42898755 -0.74008552 69.32134402 -0.68115234 63.80126953 C-0.67110672 63.10788986 -0.6610611 62.41451019 -0.65071106 61.70011902 C-0.62003042 59.42769129 -0.60288657 57.15538054 -0.5859375 54.8828125 C-0.56721364 53.29954024 -0.54763932 51.71627784 -0.5272522 50.13302612 C-0.47605356 45.9804466 -0.43636246 41.82783478 -0.39910889 37.67510986 C-0.35899204 33.43176359 -0.30793484 29.18855029 -0.2578125 24.9453125 C-0.16119852 16.63029273 -0.07775958 8.31521749 0 0 Z " fill="#D4A372" transform="translate(357,312)"/>
<path d="M0 0 C12.87 0 25.74 0 39 0 C38.34 1.32 37.68 2.64 37 4 C36.76385986 4.62914307 36.52771973 5.25828613 36.28442383 5.90649414 C35.11517324 8.29279183 34.1956249 9.45958405 32 11 C26.54628627 11.90021863 21.19294186 11.65781269 15.6875 11.4375 C14.16869111 11.40236712 12.64980467 11.37043152 11.13085938 11.34179688 C7.41895608 11.26486369 3.7099689 11.1441903 0 11 C0 7.37 0 3.74 0 0 Z " fill="#4DB0FA" transform="translate(229,37)"/>
<path d="M0 0 C5.94 0 11.88 0 18 0 C18 5.28 18 10.56 18 16 C12.06 16 6.12 16 0 16 C0 10.72 0 5.44 0 0 Z " fill="#5D689E" transform="translate(16,459)"/>
<path d="M0 0 C5.94 0 11.88 0 18 0 C18 5.28 18 10.56 18 16 C12.06 16 6.12 16 0 16 C0 10.72 0 5.44 0 0 Z " fill="#A87139" transform="translate(39,432)"/>
<path d="M0 0 C5.94 0 11.88 0 18 0 C18 5.28 18 10.56 18 16 C12.06 16 6.12 16 0 16 C0 10.72 0 5.44 0 0 Z " fill="#AB733A" transform="translate(16,189)"/>
<path d="M0 0 C8.25 0 16.5 0 25 0 C25 3.3 25 6.6 25 10 C21.39538705 10.08076726 17.79257437 10.14038951 14.1875 10.1875 C12.65125977 10.22520508 12.65125977 10.22520508 11.08398438 10.26367188 C9.60961914 10.27817383 9.60961914 10.27817383 8.10546875 10.29296875 C7.19949951 10.3086792 6.29353027 10.32438965 5.36010742 10.34057617 C3 10 3 10 1.1809082 8.91918945 C0 7 0 7 0 0 Z " fill="#DDA267" transform="translate(242,215)"/>
<path d="M0 0 C2.64 0 5.28 0 8 0 C8 5.61 8 11.22 8 17 C-0.16964286 8.83035714 -0.16964286 8.83035714 -0.1875 3.75 C-0.125625 2.5125 -0.06375 1.275 0 0 Z " fill="#F8C694" transform="translate(258,235)"/>
<path d="M0 0 C8.25 0 16.5 0 25 0 C25 3.3 25 6.6 25 10 C21.39538705 10.08076726 17.79257437 10.14038951 14.1875 10.1875 C12.65125977 10.22520508 12.65125977 10.22520508 11.08398438 10.26367188 C9.60961914 10.27817383 9.60961914 10.27817383 8.10546875 10.29296875 C7.19949951 10.3086792 6.29353027 10.32438965 5.36010742 10.34057617 C3 10 3 10 1.1809082 8.91918945 C0 7 0 7 0 0 Z M5 1 C5.33 3.64 5.66 6.28 6 9 C11.94 9 17.88 9 24 9 C24 6.36 24 3.72 24 1 C17.73 1 11.46 1 5 1 Z " fill="#9C7044" transform="translate(242,215)"/>
<path d="M0 0 C1.32 0 2.64 0 4 0 C4 2.64 4 5.28 4 8 C2.35 8 0.7 8 -1 8 C-1.04241723 5.66705225 -1.04092937 3.33297433 -1 1 C-0.67 0.67 -0.34 0.34 0 0 Z " fill="#CE9257" transform="translate(339,413)"/>
<path d="M0 0 C1.65 0 3.3 0 5 0 C5.33 2.64 5.66 5.28 6 8 C1.125 7.125 1.125 7.125 0 6 C-0.04080783 4.00041636 -0.04254356 1.99954746 0 0 Z " fill="#CB9055" transform="translate(147,216)"/>
<path d="M0 0 C2.125 0.375 2.125 0.375 4 1 C3.67 3.31 3.34 5.62 3 8 C1.35 8 -0.3 8 -2 8 C-2.125 5.125 -2.125 5.125 -2 2 C-1.34 1.34 -0.68 0.68 0 0 Z " fill="#CA8F55" transform="translate(149,413)"/>
<path d="M0 0 C1.32 0 2.64 0 4 0 C4 2.64 4 5.28 4 8 C2.35 8 0.7 8 -1 8 C-1.125 2.25 -1.125 2.25 0 0 Z " fill="#CD9156" transform="translate(53,413)"/>
<path d="M0 0 C1.65 0 3.3 0 5 0 C5 2.64 5 5.28 5 8 C3.68 8 2.36 8 1 8 C-0.35439668 5.29120665 -0.06501451 2.99066732 0 0 Z " fill="#CE9257" transform="translate(52,216)"/>
<path d="M0 0 C1.32 0 2.64 0 4 0 C3.67 2.64 3.34 5.28 3 8 C1.68 8 0.36 8 -1 8 C-1.04241723 5.66705225 -1.04092937 3.33297433 -1 1 C-0.67 0.67 -0.34 0.34 0 0 Z " fill="#CF9257" transform="translate(244,413)"/>
</svg>
