<?xml version="1.0" encoding="UTF-8"?>
<svg version="1.1" xmlns="http://www.w3.org/2000/svg" width="512" height="512">
<path d="M0 0 C1.27922927 1.07340623 2.55013137 2.15681479 3.8125 3.25 C5.00166016 4.14525391 5.00166016 4.14525391 6.21484375 5.05859375 C15.93504199 13.25864069 22.35794315 24.51012742 26.8125 36.25 C27.245625 37.36117187 27.67875 38.47234375 28.125 39.6171875 C34.88749219 60.32731984 31.84089175 83.24779945 22.17578125 102.37744141 C18.4898573 109.25114552 13.80043963 115.28082635 8.8125 121.25 C5.32387284 119.75688212 3.09731377 117.76724585 0.44287109 115.07568359 C-0.41126373 114.21494232 -1.26539856 113.35420105 -2.14541626 112.46737671 C-3.05906952 111.53712677 -3.97272278 110.60687683 -4.9140625 109.6484375 C-5.86704051 108.68664594 -6.82061185 107.72544194 -7.77474976 106.76480103 C-10.79297739 103.72376097 -13.80327253 100.67494288 -16.8125 97.625 C-20.30662031 94.0837237 -23.80389324 90.54568628 -27.30967331 87.01594925 C-28.71303639 85.59958888 -30.1102908 84.17718441 -31.50747681 82.75473022 C-32.35530731 81.90029327 -33.20313782 81.04585632 -34.07666016 80.16552734 C-34.82404449 79.40766937 -35.57142883 78.6498114 -36.34146118 77.86898804 C-38.02887646 76.03021381 -38.02887646 76.03021381 -40.1875 76.25 C-41.52177692 77.83218107 -41.52177692 77.83218107 -42.83862305 79.93994141 C-43.63758247 81.156119 -43.63758247 81.156119 -44.4526825 82.39686584 C-45.02903946 83.28941574 -45.60539642 84.18196564 -46.19921875 85.1015625 C-46.79906082 86.0180809 -47.39890289 86.9345993 -48.016922 87.87889099 C-49.304792 89.84806836 -50.58956465 91.81927417 -51.87158203 93.79226685 C-54.55200117 97.91672668 -57.24752354 102.03121348 -59.94355774 106.14547729 C-61.22314992 108.09925471 -62.50107742 110.0541238 -63.77702332 112.01028442 C-69.09442008 120.15310167 -74.54484822 128.20125672 -80.0546875 136.21484375 C-86.01892693 144.90431038 -91.91493854 153.64020684 -97.8125 162.375 C-98.42912506 163.28827057 -99.04575012 164.20154114 -99.68106079 165.14248657 C-110.72441726 181.50993088 -121.62752519 197.9676696 -132.46923828 214.46923828 C-133.0404541 215.33863037 -133.61166992 216.20802246 -134.20019531 217.10375977 C-135.31024931 218.79406926 -136.41964221 220.48481312 -137.52832031 222.17602539 C-140.03163635 225.99069331 -142.54724972 229.79528684 -145.10498047 233.57373047 C-145.55960159 234.24712463 -146.01422272 234.9205188 -146.48262024 235.61431885 C-147.31106541 236.8385035 -148.14332121 238.06012447 -148.9806366 239.27825928 C-155.41156774 248.78711351 -159.15402463 259.44994458 -162.4375 270.375 C-162.67178711 271.12990723 -162.90607422 271.88481445 -163.14746094 272.66259766 C-168.95685822 293.21219449 -168.66672637 314.49499205 -168.57861328 335.64697266 C-168.5614394 339.80836773 -168.57145748 343.96918536 -168.58933067 348.13055992 C-168.60028146 351.39613026 -168.59667252 354.66156831 -168.5889473 357.9271431 C-168.58698073 359.46018166 -168.58927587 360.99323322 -168.59638596 362.52625656 C-168.67494724 384.18569817 -164.33143757 404.75389803 -148.9375 421 C-140.60854248 428.85619533 -130.66754997 433.61070782 -120.48803711 438.60668945 C-114.52136897 441.54212921 -108.77475343 444.63298857 -103.1875 448.25 C-136.22040572 470.27193714 -190.56265771 468.93154685 -227.88232422 461.72998047 C-241.23931077 459.03449482 -254.94633454 455.37058273 -267.1875 449.25 C-267.1875 448.59 -267.1875 447.93 -267.1875 447.25 C-266.05489746 446.66883423 -266.05489746 446.66883423 -264.89941406 446.07592773 C-262.03526758 444.60425699 -259.17267906 443.1296065 -256.31103516 441.65307617 C-255.08409009 441.0207374 -253.85657165 440.38950963 -252.62841797 439.75952148 C-232.04796734 429.19960967 -213.58249343 418.69334107 -205.6875 395.6875 C-205.14791577 393.88638781 -204.6441553 392.07390301 -204.1875 390.25 C-203.92517326 389.20894859 -203.92517326 389.20894859 -203.657547 388.14686584 C-203.01404706 384.18102201 -203.02335641 380.2907895 -203.01049805 376.27905273 C-203.00392685 375.38385925 -202.99735565 374.48866577 -202.99058533 373.56634521 C-202.97089284 370.60542706 -202.9591907 367.64455986 -202.94921875 364.68359375 C-202.94514322 363.66504869 -202.9410677 362.64650364 -202.93686867 361.59709358 C-202.91601227 356.19241669 -202.90171592 350.78776505 -202.89233398 345.38305664 C-202.88134813 339.85283693 -202.84703861 334.32302836 -202.80716228 328.79295254 C-202.7807453 324.49867616 -202.77261954 320.20449334 -202.76905251 315.9101429 C-202.76424078 313.8751966 -202.75278591 311.8402529 -202.73401451 309.8053875 C-202.56967103 290.7882958 -205.23526701 273.02948108 -212.1875 255.25 C-212.65929687 254.0228125 -213.13109375 252.795625 -213.6171875 251.53125 C-219.29743322 237.82274045 -228.28025878 225.90286676 -236.72119141 213.79833984 C-240.46766673 208.41999001 -244.13587356 202.98875571 -247.8125 197.5625 C-249.21310568 195.5023077 -250.61414623 193.44241097 -252.015625 191.3828125 C-252.70462891 190.36993164 -253.39363281 189.35705078 -254.10351562 188.31347656 C-254.79123047 187.3025293 -255.47894531 186.29158203 -256.1875 185.25 C-265.43035664 171.66291412 -274.66754317 158.07202548 -283.89294434 144.4730835 C-290.22216496 135.14356455 -296.55613302 125.81729229 -302.89868164 116.49682617 C-306.49635733 111.20979978 -310.08976692 105.91994252 -313.67578125 100.625 C-324.45492656 83.17367063 -324.45492656 83.17367063 -337.1875 67.25 C-337.625 64.5 -337.625 64.5 -337.1875 61.25 C-333.07357424 57.18655186 -329.01484283 55.00684077 -323.5 53.25 C-322.72221191 53.00072754 -321.94442383 52.75145508 -321.14306641 52.49462891 C-303.0770743 46.99263363 -284.34707188 44.86544674 -265.625 43 C-264.79135925 42.91691589 -263.95771851 42.83383179 -263.09881592 42.74822998 C-241.72154319 40.65165439 -220.4115087 39.97214686 -198.9375 39.625 C-198.27040638 39.61409836 -197.60331276 39.60319672 -196.91600418 39.59196472 C-157.42364993 38.95172216 -157.42364993 38.95172216 -138.1875 40.25 C-137.54425781 40.29253906 -136.90101563 40.33507812 -136.23828125 40.37890625 C-112.72645768 41.94935248 -89.51857555 44.94252952 -66.1875 48.25 C-79.3875 35.05 -92.5875 21.85 -106.1875 8.25 C-100.99299516 -2.13900968 -87.58522301 -7.69380493 -77.1875 -11.75 C-76.07375 -12.18570312 -74.96 -12.62140625 -73.8125 -13.0703125 C-49.08983195 -21.10517962 -20.46940308 -15.78486307 0 0 Z " fill="#FE437C" transform="translate(409.1875,31.75)"/>
<path d="M0 0 C1.27922927 1.07340623 2.55013137 2.15681479 3.8125 3.25 C5.00166016 4.14525391 5.00166016 4.14525391 6.21484375 5.05859375 C15.93504199 13.25864069 22.35794315 24.51012742 26.8125 36.25 C27.245625 37.36117187 27.67875 38.47234375 28.125 39.6171875 C34.88749219 60.32731984 31.84089175 83.24779945 22.17578125 102.37744141 C18.4898573 109.25114552 13.80043963 115.28082635 8.8125 121.25 C5.22801586 119.73520947 2.99411362 117.64164444 0.29443359 114.86376953 C-0.59394196 113.95587677 -1.4823175 113.04798401 -2.39761353 112.11257935 C-2.86824848 111.62721836 -3.33888344 111.14185738 -3.82378006 110.64178848 C-5.30764414 109.11367677 -6.79948919 107.59380177 -8.29403687 106.07614136 C-12.54179709 101.76141332 -16.78144005 97.43898634 -20.99951172 93.09521484 C-23.58454748 90.43432556 -26.18446272 87.78875084 -28.79410934 85.15200424 C-29.77960515 84.15052999 -30.75954806 83.14355657 -31.73344803 82.13080215 C-37.70344121 75.9270095 -42.82279825 71.5948548 -51.1875 69.25 C-52.17919189 68.96439209 -53.17088379 68.67878418 -54.19262695 68.38452148 C-55.01206787 68.21509033 -55.83150879 68.04565918 -56.67578125 67.87109375 C-58.08742554 67.57501221 -58.08742554 67.57501221 -59.52758789 67.27294922 C-60.50848389 67.07975098 -61.48937988 66.88655273 -62.5 66.6875 C-63.55630615 66.47625488 -64.6126123 66.26500977 -65.70092773 66.04736328 C-68.85977072 65.42844727 -72.02174271 64.83243787 -75.1875 64.25 C-76.02087891 64.09644043 -76.85425781 63.94288086 -77.71289062 63.78466797 C-95.78384374 60.58255557 -114.2520058 59.67927936 -132.54055786 58.43458557 C-134.53809213 58.29528672 -136.53496464 58.14645151 -138.53146362 57.99302673 C-147.84891032 57.30865711 -157.12082833 57.08678605 -166.4609375 57.08203125 C-167.99712145 57.07879847 -169.53330513 57.0754331 -171.06948853 57.07194519 C-174.27810372 57.06600441 -177.48669221 57.06409951 -180.6953125 57.06469727 C-183.90793595 57.06477767 -187.12041419 57.05796466 -190.33300781 57.04418945 C-207.34026516 56.97244163 -224.28639302 57.12165341 -241.265625 58.17578125 C-241.93859997 58.21739695 -242.61157494 58.25901264 -243.30494308 58.30188942 C-254.65385537 59.02171876 -265.90946779 60.2037989 -277.1640625 61.8203125 C-280.45044388 62.28736929 -283.74039595 62.72188671 -287.03125 63.15625 C-298.85354185 64.76114908 -310.29614821 66.68762264 -321.7109375 70.19921875 C-327.56886107 71.96975969 -327.56886107 71.96975969 -330.1875 72.25 C-332.76653614 70.76209453 -335.07362869 69.36387131 -337.1875 67.25 C-337.625 64.5 -337.625 64.5 -337.1875 61.25 C-333.07357424 57.18655186 -329.01484283 55.00684077 -323.5 53.25 C-322.72221191 53.00072754 -321.94442383 52.75145508 -321.14306641 52.49462891 C-303.0770743 46.99263363 -284.34707188 44.86544674 -265.625 43 C-264.79135925 42.91691589 -263.95771851 42.83383179 -263.09881592 42.74822998 C-241.72154319 40.65165439 -220.4115087 39.97214686 -198.9375 39.625 C-198.27040638 39.61409836 -197.60331276 39.60319672 -196.91600418 39.59196472 C-157.42364993 38.95172216 -157.42364993 38.95172216 -138.1875 40.25 C-137.54425781 40.29253906 -136.90101563 40.33507812 -136.23828125 40.37890625 C-112.72645768 41.94935248 -89.51857555 44.94252952 -66.1875 48.25 C-79.3875 35.05 -92.5875 21.85 -106.1875 8.25 C-100.99299516 -2.13900968 -87.58522301 -7.69380493 -77.1875 -11.75 C-76.07375 -12.18570312 -74.96 -12.62140625 -73.8125 -13.0703125 C-49.08983195 -21.10517962 -20.46940308 -15.78486307 0 0 Z " fill="#C1CDE6" transform="translate(409.1875,31.75)"/>
<path d="M0 0 C0.61294922 0.12117188 1.22589844 0.24234375 1.85742188 0.3671875 C20.77938018 4.0468503 36.93400651 4.76358342 55.89892578 1.36376953 C58.9240844 0.84000863 61.95831041 0.41606113 65 0 C64.6757605 0.76739502 64.6757605 0.76739502 64.3449707 1.55029297 C51.67150245 31.77138141 48.47323805 59.86126687 48.60888672 92.39697266 C48.6260606 96.55836773 48.61604252 100.71918536 48.59816933 104.88055992 C48.58721854 108.14613026 48.59082748 111.41156831 48.5985527 114.6771431 C48.60051927 116.21018166 48.59822413 117.74323322 48.59111404 119.27625656 C48.51255276 140.93569817 52.85606243 161.50389803 68.25 177.75 C76.57895752 185.60619533 86.51995003 190.36070782 96.69946289 195.35668945 C102.66613103 198.29212921 108.41274657 201.38298857 114 205 C80.96709428 227.02193714 26.62484229 225.68154685 -10.69482422 218.47998047 C-24.05181077 215.78449482 -37.75883454 212.12058273 -50 206 C-50 205.34 -50 204.68 -50 204 C-48.86739746 203.41883423 -48.86739746 203.41883423 -47.71191406 202.82592773 C-44.84776758 201.35425699 -41.98517906 199.8796065 -39.12353516 198.40307617 C-37.89659009 197.7707374 -36.66907165 197.13950963 -35.44091797 196.50952148 C-14.86046734 185.94960967 3.60500657 175.44334107 11.5 152.4375 C12.03958423 150.63638781 12.5433447 148.82390301 13 147 C13.17488449 146.30596573 13.34976898 145.61193146 13.529953 144.89686584 C14.17345294 140.93102201 14.16414359 137.0407895 14.17700195 133.02905273 C14.18357315 132.13385925 14.19014435 131.23866577 14.19691467 130.31634521 C14.21660716 127.35542706 14.2283093 124.39455986 14.23828125 121.43359375 C14.24235678 120.41504869 14.2464323 119.39650364 14.25063133 118.34709358 C14.27148773 112.94241669 14.28578408 107.53776505 14.29516602 102.13305664 C14.30615187 96.60283693 14.34046139 91.07302836 14.38033772 85.54295254 C14.4067547 81.24867616 14.41488046 76.95449334 14.41844749 72.6601429 C14.42325922 70.6251966 14.43471409 68.5902529 14.45348549 66.5553875 C14.647715 44.08001811 10.69014289 23.36282117 0.91796875 2.9765625 C0 1 0 1 0 0 Z " fill="#C1CEE7" transform="translate(192,275)"/>
<path d="M0 0 C2.38320425 0.00504316 4.76639186 0.00649886 7.14960098 0.00745392 C30.3805208 0.02727541 53.4380393 0.62627485 76.56888199 2.95026398 C79.95358052 3.27983711 83.33426069 3.5509327 86.72659683 3.78620148 C106.17514217 5.18088452 127.22558914 7.79224559 145.33987808 15.31745148 C145.33987808 15.97745148 145.33987808 16.63745148 145.33987808 17.31745148 C67.99650337 42.6487044 -26.25290065 35.1184192 -112.66012192 24.31745148 C-111.93969711 25.28295929 -111.21927231 26.2484671 -110.47701645 27.24323273 C-104.94660761 34.66731543 -99.6569015 42.20991919 -94.55440903 49.93390656 C-90.2469562 56.45254116 -85.87115069 62.92245191 -81.47262192 69.37995148 C-80.75251938 70.43746613 -80.03241684 71.49498077 -79.29049301 72.58454132 C-77.815784 74.74973425 -76.34084756 76.9147723 -74.86568832 79.07965851 C-71.29376491 84.32327688 -67.72715513 89.57050586 -64.16012192 94.81745148 C-62.74348198 96.90080298 -61.32681528 98.9841363 -59.91012192 101.06745148 C-57.07678858 105.23411814 -54.24345525 109.40078481 -51.41012192 113.56745148 C-50.70879135 114.59878204 -50.00746078 115.63011261 -49.28487778 116.69269562 C-47.86888243 118.77511827 -46.45302946 120.85763775 -45.03731918 122.94025421 C-41.48654501 128.16332585 -37.93327795 133.38466812 -34.37496567 138.60260773 C-30.12673019 144.83415952 -25.89114093 151.07420133 -21.66012192 157.31745148 C-20.92745102 158.39607452 -20.19478012 159.47469757 -19.43990707 160.58600616 C-17.25672124 163.80459119 -15.08229858 167.02892914 -12.91012192 170.25495148 C-12.25455307 171.21925079 -11.59898422 172.18355011 -10.92354965 173.17707062 C-7.00388748 179.02207331 -3.63533629 184.93840482 -0.66012192 191.31745148 C-9.63900452 191.91938774 -19.61699716 191.85120823 -27.66012192 187.31745148 C-32.35754683 183.14763092 -35.36283501 177.47253331 -38.53512192 172.12995148 C-39.47401384 170.6263481 -40.41768846 169.12572144 -41.36593246 167.62799835 C-43.26656231 164.61838951 -45.14693443 161.59764613 -47.0121727 158.56598663 C-50.64784976 152.68910049 -54.54788889 147.00481672 -58.47262192 141.31745148 C-59.84727451 139.30377995 -61.22098049 137.28946186 -62.59371567 135.27448273 C-63.26386703 134.29302277 -63.9340184 133.31156281 -64.62447739 132.30036163 C-68.10095038 127.20614874 -71.56768889 122.10531985 -75.03512192 117.00495148 C-75.7316185 115.98079132 -76.42811508 114.95663116 -77.14571762 113.90143585 C-82.89140989 105.45169485 -88.62909158 96.99653433 -94.36556625 88.54053497 C-101.38362528 78.19564126 -108.40980826 67.85629719 -115.44137192 57.52057648 C-117.99408107 53.76814191 -120.54527579 50.01468821 -123.09435654 46.25978851 C-124.2467561 44.56230804 -125.39944392 42.86502366 -126.55221176 41.16779327 C-127.99059738 39.04984673 -129.42846354 36.93154726 -130.86568832 34.81281281 C-131.52230453 33.84625763 -132.17892075 32.87970245 -132.85543442 31.88385773 C-133.48481918 30.95718292 -134.11420395 30.03050812 -134.76266098 29.07575226 C-137.25990802 25.44555449 -139.82473376 21.86482715 -142.40572739 18.29376984 C-143.66012192 16.31745148 -143.66012192 16.31745148 -143.66012192 14.31745148 C-142.33367661 14.61715851 -142.33367661 14.61715851 -140.98043442 14.92292023 C-137.39842146 15.34854765 -135.83340738 14.95418848 -132.53512192 13.62995148 C-91.62720386 -1.01609326 -42.93557846 -0.09969271 0 0 Z " fill="#FB225B" transform="translate(219.6601219177246,87.68254852294922)"/>
<path d="M0 0 C-0.65355469 1.36705078 -0.65355469 1.36705078 -1.3203125 2.76171875 C-4.8648531 10.38147977 -7.86504102 18.0632858 -10.25 26.125 C-10.60022217 27.2555481 -10.60022217 27.2555481 -10.95751953 28.40893555 C-16.77770715 48.95432265 -16.47921755 70.24711045 -16.39111328 91.39697266 C-16.3739394 95.55836773 -16.38395748 99.71918536 -16.40183067 103.88055992 C-16.41278146 107.14613026 -16.40917252 110.41156831 -16.4014473 113.6771431 C-16.39948073 115.21018166 -16.40177587 116.74323322 -16.40888596 118.27625656 C-16.48744724 139.93569817 -12.14393757 160.50389803 3.25 176.75 C11.57895752 184.60619533 21.51995003 189.36070782 31.69946289 194.35668945 C37.66613103 197.29212921 43.41274657 200.38298857 49 204 C28.81864378 217.45423748 -6.84419263 224.10673752 -30.52832031 219.51123047 C-31.75180176 219.25817139 -31.75180176 219.25817139 -33 219 C-34.0115918 218.79133301 -35.02318359 218.58266602 -36.06542969 218.36767578 C-39.44687044 217.64987507 -42.81802812 216.89697358 -46.1875 216.125 C-47.26362549 215.88080322 -48.33975098 215.63660645 -49.44848633 215.38500977 C-61.67252659 212.41362767 -61.67252659 212.41362767 -65.34765625 207.0234375 C-66.54943105 203.29577674 -66.61373304 199.85775055 -66 196 C-63.3180208 191.21075143 -60.13787689 189.42898951 -55.375 186.8125 C-39.4114115 177.90670494 -30.90298813 163.51009925 -25.94978333 146.36470032 C-24.83793549 141.83288003 -24.71114138 137.5048474 -24.7253418 132.85620117 C-24.72023087 131.97847046 -24.71511993 131.10073975 -24.70985413 130.19641113 C-24.69602645 127.31185966 -24.6969114 124.42754933 -24.69921875 121.54296875 C-24.69532484 119.51483575 -24.69098875 117.48670355 -24.68623352 115.45857239 C-24.67878348 111.20778768 -24.67905139 106.95708602 -24.68432617 102.70629883 C-24.69008417 97.31175824 -24.67327313 91.91756511 -24.6499815 86.52308178 C-24.63509339 82.33006365 -24.6343933 78.13712597 -24.63749123 73.94408607 C-24.63698438 71.95857372 -24.63186925 69.97305608 -24.62167931 67.98756981 C-24.53207877 48.06893478 -26.44977152 28.63152745 -34.65625 10.234375 C-36 7 -36 7 -36 4 C-35.31486328 3.91959473 -34.62972656 3.83918945 -33.92382812 3.75634766 C-30.78189598 3.38455589 -27.64096914 3.00483813 -24.5 2.625 C-22.88351563 2.43550781 -22.88351563 2.43550781 -21.234375 2.2421875 C-16.55904278 1.67202503 -12.01453039 1.09045482 -7.46875 -0.1640625 C-4.13379093 -0.96775759 -3.10216173 -0.96071876 0 0 Z " fill="#D6DFEE" transform="translate(257,276)"/>
<path d="M0 0 C1.27922927 1.07340623 2.55013137 2.15681479 3.8125 3.25 C4.60527344 3.84683594 5.39804687 4.44367187 6.21484375 5.05859375 C15.93504199 13.25864069 22.35794315 24.51012742 26.8125 36.25 C27.245625 37.36117187 27.67875 38.47234375 28.125 39.6171875 C34.88077495 60.30674829 31.86530738 83.27375634 22.17138672 102.37744141 C18.50705055 109.18889479 14.0562266 115.55792503 8.8125 121.25 C8.1525 121.25 7.4925 121.25 6.8125 121.25 C8.09758385 117.79062736 9.61903482 114.84098593 11.625 111.75 C20.10451478 97.77642308 22.17421311 83.59649181 21.9375 67.5 C21.92847656 66.3140625 21.91945313 65.128125 21.91015625 63.90625 C21.88688497 61.02061093 21.85419684 58.13542145 21.8125 55.25 C21.08888779 55.43792114 20.36527557 55.62584229 19.61973572 55.81945801 C12.78106661 57.59384585 5.94035144 59.36006531 -0.90274906 61.11727142 C-4.42030465 62.0208301 -7.93700573 62.92746364 -11.4519043 63.84130859 C-14.84760006 64.72403808 -18.24534098 65.59844895 -21.6446209 66.4672699 C-23.56419811 66.96015897 -25.48159552 67.46151248 -27.39894104 67.9630127 C-38.88400593 70.884252 -38.88400593 70.884252 -44.1875 70.25 C-46.55239436 68.59666678 -48.18988691 67.2350263 -50.125 65.1875 C-50.61806641 64.72150391 -51.11113281 64.25550781 -51.61914062 63.77539062 C-53.97204753 61.37679621 -55.13441195 59.71989079 -55.51391602 56.36083984 C-55.32003596 50.56777967 -53.5697675 44.96573633 -52.125 39.38671875 C-51.81425537 38.15838821 -51.50351074 36.93005768 -51.18334961 35.664505 C-50.36060396 32.41693963 -49.53102666 29.17128989 -48.69763184 25.92645264 C-47.52094252 21.33865953 -46.35624132 16.74781301 -45.19165039 12.15693665 C-44.57160505 9.7155282 -43.94847413 7.274901 -43.32202148 4.83512878 C-42.90158569 3.18750298 -42.90158569 3.18750298 -42.47265625 1.5065918 C-42.22394775 0.53731247 -41.97523926 -0.43196686 -41.71899414 -1.43061829 C-41.11304539 -3.67832847 -41.11304539 -3.67832847 -41.1875 -5.75 C-62.5808028 -9.23988892 -81.51233314 -5.53861953 -100.1875 5.25 C-100.95449219 5.82621094 -101.72148437 6.40242188 -102.51171875 6.99609375 C-104.1875 8.25 -104.1875 8.25 -106.1875 8.25 C-102.82149027 -0.36931972 -91.01991769 -5.82952649 -82.94384766 -9.42138672 C-81.03545687 -10.22721563 -79.11735518 -10.99715545 -77.1875 -11.75 C-76.07375 -12.18570312 -74.96 -12.62140625 -73.8125 -13.0703125 C-49.08983195 -21.10517962 -20.46940308 -15.78486307 0 0 Z " fill="#8DBF02" transform="translate(409.1875,31.75)"/>
<path d="M0 0 C4.02449002 15.42184575 1.14172124 33.33296917 -4.75 47.75 C-5.07291016 48.54293457 -5.39582031 49.33586914 -5.72851562 50.15283203 C-8.13155679 55.72298812 -11.20969437 60.28308569 -15 65 C-20.86370084 60.13899546 -26.22459486 54.88993778 -31.58203125 49.48046875 C-32.47742111 48.58129227 -33.37281097 47.68211578 -34.29533386 46.75569153 C-37.13682862 43.90204124 -39.97514562 41.04526527 -42.8125 38.1875 C-46.56601534 34.40716482 -50.32308055 30.63040151 -54.08203125 26.85546875 C-54.94657425 25.98262741 -55.81111725 25.10978607 -56.70185852 24.210495 C-57.49996445 23.40908585 -58.29807037 22.6076767 -59.12036133 21.78198242 C-59.82316727 21.07393967 -60.52597321 20.36589691 -61.25007629 19.63639832 C-62.91505453 17.9240295 -62.91505453 17.9240295 -65 17 C-65 16.34 -65 15.68 -65 15 C-64.4009082 14.86537354 -63.80181641 14.73074707 -63.18457031 14.59204102 C-51.88141797 12.0415264 -40.60076281 9.42349423 -29.36328125 6.59765625 C-28.55049713 6.39328445 -27.73771301 6.18891266 -26.90029907 5.97834778 C-22.84822878 4.95751948 -18.79788517 3.93020571 -14.74902344 2.89672852 C-13.25065773 2.51706344 -11.75228564 2.13742358 -10.25390625 1.7578125 C-9.56436356 1.57996719 -8.87482086 1.40212189 -8.16438293 1.21888733 C-5.35186591 0.50847668 -2.91529456 0 0 0 Z " fill="#BFDCAB" transform="translate(431,87)"/>
<path d="M0 0 C1.17665352 3.52996057 0.7536761 4.82738647 -0.15576172 8.38598633 C-0.57146927 10.03834038 -0.57146927 10.03834038 -0.99557495 11.72407532 C-1.30383209 12.91470078 -1.61208923 14.10532623 -1.9296875 15.33203125 C-2.2394754 16.55653488 -2.54926331 17.78103851 -2.86843872 19.04264832 C-3.69415072 22.30187737 -4.52666949 25.55920362 -5.36291504 28.81573486 C-6.53650501 33.39189648 -7.69852326 37.9710032 -8.86013794 42.55021667 C-9.47906057 44.98732327 -10.10107934 47.42364615 -10.72653198 49.85908508 C-11.00997467 50.97011093 -11.29341736 52.08113678 -11.58544922 53.22583008 C-11.83495331 54.19829178 -12.0844574 55.17075348 -12.34152222 56.17268372 C-13.0236646 59.10160905 -13.53669188 62.02927326 -14 65 C-20.04265914 59.99744121 -25.56098043 54.56822676 -31.08984375 49.0078125 C-32.04368954 48.05209752 -32.99775941 47.09660612 -33.95204163 46.1413269 C-36.44153194 43.64805084 -38.92800224 41.15178475 -41.41381836 38.65484619 C-43.95957994 36.09878491 -46.50823777 33.54561495 -49.05664062 30.9921875 C-54.04057069 25.99758981 -59.02131048 20.99982201 -64 16 C-47.84766288 -0.72280486 -21.93394175 -3.57808334 0 0 Z " fill="#BFDCAB" transform="translate(368,25)"/>
<path d="M0 0 C18.45043674 5.95395435 31.02135289 20.74584442 40.15234375 37.1875 C41 39 41 39 41 41 C33.63184466 42.85468284 26.26278173 44.70572488 18.89306641 46.55419922 C16.3843905 47.1838876 13.8759261 47.81441925 11.36767578 48.44580078 C7.7691036 49.35148647 4.16978973 50.25416894 0.5703125 51.15625 C-0.55680145 51.44060913 -1.68391541 51.72496826 -2.84518433 52.01794434 C-3.88611237 52.27821411 -4.92704041 52.53848389 -5.99951172 52.80664062 C-6.91884491 53.03758423 -7.8381781 53.26852783 -8.78536987 53.50646973 C-11 54 -11 54 -13 54 C-11.76840983 46.7472601 -10.25306815 39.63719443 -8.3984375 32.51953125 C-8.0364476 31.11123299 -8.0364476 31.11123299 -7.66714478 29.67448425 C-6.90672647 26.71953947 -6.14096652 23.76601088 -5.375 20.8125 C-4.85381036 18.79110746 -4.33297392 16.76962382 -3.8125 14.74804688 C-2.54574049 9.83097039 -1.27419344 4.91515509 0 0 Z " fill="#BEDCAA" transform="translate(384,31)"/>
<path d="M0 0 C0 3.93169105 -1.39419615 5.16427228 -4 8 C-4.66 8 -5.32 8 -6 8 C-4.73058503 4.08597051 -3.48832306 2.20927127 0 0 Z " fill="#94C10A" transform="translate(422,145)"/>
</svg>
