<?xml version="1.0" encoding="UTF-8"?>
<svg version="1.1" xmlns="http://www.w3.org/2000/svg" width="512" height="512">
<path d="M0 0 C4.16337309 0.77963802 5.19305308 2.36880529 7.75390625 5.69921875 C8.17615479 6.23691895 8.59840332 6.77461914 9.03344727 7.32861328 C9.93317335 8.47792374 10.82483125 9.63358867 11.70898438 10.79492188 C13.04365059 12.54439082 14.40145163 14.27266877 15.76953125 15.99609375 C18.55389571 19.50761702 21.31136583 23.03967025 24.06640625 26.57421875 C25.85585941 28.86762447 27.64756859 31.15924088 29.44140625 33.44921875 C29.88556885 34.01705078 30.32973145 34.58488281 30.78735352 35.16992188 C33.31368249 38.38680174 35.87422535 41.57147747 38.47265625 44.73046875 C39.04967285 45.43316895 39.62668945 46.13586914 40.22119141 46.85986328 C41.33121525 48.20808696 42.44519504 49.5530679 43.56396484 50.89404297 C44.33474365 51.83014404 44.33474365 51.83014404 45.12109375 52.78515625 C45.56952637 53.32446777 46.01795898 53.8637793 46.47998047 54.41943359 C47.00350098 55.1305127 47.52702148 55.8415918 48.06640625 56.57421875 C48.4650205 57.07428531 48.86363476 57.57435186 49.27432823 58.08957195 C53.68289836 64.20067262 53.95804758 69.86055053 54.22558594 77.23413086 C54.29006927 78.50246765 54.35455261 79.77080444 54.42098999 81.07757568 C54.59901661 84.59046453 54.7484306 88.10407269 54.8932333 91.61846614 C55.05569735 95.4354646 55.24521299 99.2511332 55.43145752 103.06703186 C55.75229221 109.71406725 56.05652459 116.36169531 56.34960938 123.01000977 C56.77650377 132.69000984 57.22884113 142.36868833 57.68824482 152.04719424 C58.2647406 164.19617022 58.83605263 176.34537362 59.39416504 188.49520874 C60.68621909 216.61495515 62.03715178 244.73144286 63.42281055 272.84672856 C63.68631196 278.19451023 63.94929424 283.54231743 64.21234131 288.89012146 C64.52367704 295.2185621 64.83506853 301.54699998 65.14661789 307.87543011 C66.09490024 327.13948124 67.04144451 346.40361599 67.97649121 365.66831475 C68.19767792 370.22514088 68.41950493 374.78193328 68.64313507 379.33864021 C68.84874019 383.52824365 69.05254111 387.71793083 69.25490427 391.90769207 C69.32851654 393.42536995 69.40277801 394.94301651 69.47775793 396.46062744 C69.825229 403.50102845 70.16774965 410.52320948 70.06640625 417.57421875 C71.05382812 417.55101562 72.04125 417.5278125 73.05859375 417.50390625 C74.33992187 417.48585938 75.62125 417.4678125 76.94140625 417.44921875 C78.21757812 417.42601562 79.49375 417.4028125 80.80859375 417.37890625 C84.06640625 417.57421875 84.06640625 417.57421875 86.06640625 419.57421875 C86.30691528 421.59902954 86.30691528 421.59902954 86.29345703 424.11572266 C86.29323044 425.52695908 86.29323044 425.52695908 86.29299927 426.96670532 C86.2826767 427.98445038 86.27235413 429.00219543 86.26171875 430.05078125 C86.25888885 431.09116547 86.25605896 432.13154968 86.25314331 433.20346069 C86.24192329 436.53549569 86.2168154 439.86726461 86.19140625 443.19921875 C86.18137881 445.45442321 86.17225255 447.70963187 86.1640625 449.96484375 C86.14197803 455.50139329 86.10848264 461.03778702 86.06640625 466.57421875 C86.8136496 466.56977753 87.56089294 466.5653363 88.33078003 466.5607605 C95.36446171 466.52072691 102.39810409 466.49025638 109.4318676 466.47059441 C113.04821498 466.46014626 116.66446841 466.44596843 120.28076172 466.42333984 C123.76909436 466.40164795 127.25733649 466.3896579 130.74573135 466.38446426 C132.72780596 466.37895706 134.70984404 466.36333841 136.69186401 466.34762573 C137.89295807 466.34747467 139.09405212 466.34732361 140.33154297 466.34716797 C141.3929953 466.34272675 142.45444763 466.33828552 143.54806519 466.33370972 C146.06640625 466.57421875 146.06640625 466.57421875 148.06640625 468.57421875 C148.31364441 470.44044495 148.31364441 470.44044495 148.30932617 472.73266602 C148.3124028 473.5901796 148.31547943 474.44769318 148.31864929 475.33119202 C148.30787102 476.72186134 148.30787102 476.72186134 148.296875 478.140625 C148.29641678 479.08985336 148.29595856 480.03908173 148.29548645 481.01707458 C148.29246263 483.02531178 148.28457249 485.03354659 148.2722168 487.04174805 C148.25396064 490.12752524 148.25170707 493.21300258 148.25195312 496.29882812 C148.24703808 498.24609636 148.24120982 500.19336255 148.234375 502.140625 C148.23326218 503.06976212 148.23214935 503.99889923 148.23100281 504.95619202 C148.22462296 505.81055344 148.2182431 506.66491486 148.21166992 507.54516602 C148.20785812 508.30080338 148.20404633 509.05644073 148.20011902 509.8349762 C148.06640625 511.57421875 148.06640625 511.57421875 147.06640625 512.57421875 C145.49831083 512.67209793 143.92579197 512.69977399 142.35464478 512.70005989 C140.8164058 512.70397151 140.8164058 512.70397151 139.24709129 512.70796216 C138.10674746 512.70573143 136.96640362 512.70350071 135.79150391 512.70120239 C134.59079065 512.70276238 133.3900774 512.70432237 132.1529789 512.70592964 C128.80508653 512.70924296 125.45724976 512.70803043 122.10936069 512.70494342 C118.50468816 512.70269121 114.90002067 512.70616803 111.29534912 512.70892334 C104.22784037 512.71338196 97.16034221 512.71240416 90.09283304 512.7095107 C84.35154031 512.70725702 78.61025056 512.70694399 72.86895752 512.70803452 C72.05342553 512.70818775 71.23789354 512.70834098 70.39764845 512.70849886 C68.74117772 512.70881857 67.08470698 512.70914278 65.42823625 512.70947145 C49.87671838 512.71232651 34.32520641 512.70903881 18.77368951 512.70367108 C5.4148786 512.69920302 -7.94392362 512.69997895 -21.30273438 512.70458984 C-36.7966533 512.70993515 -52.29056706 512.71205182 -67.78448677 512.70897758 C-69.43503952 512.70865901 -71.08559227 512.70834464 -72.73614502 512.70803452 C-73.9544641 512.7078031 -73.9544641 512.7078031 -75.19739568 512.70756701 C-80.93520759 512.70670173 -86.67301623 512.70816499 -92.41082764 512.71051407 C-99.39839733 512.71331178 -106.38595579 512.71257442 -113.37352419 512.70723332 C-116.94218089 512.70459592 -120.51081882 512.7035919 -124.0794754 512.70688248 C-127.93922481 512.71038777 -131.79894312 512.70621705 -135.65869141 512.70120239 C-137.36920716 512.70454848 -137.36920716 512.70454848 -139.11427879 512.70796216 C-140.13977144 512.70535441 -141.16526409 512.70274666 -142.22183228 512.70005989 C-143.56010291 512.69981636 -143.56010291 512.69981636 -144.92540932 512.69956791 C-146.93359375 512.57421875 -146.93359375 512.57421875 -147.93359375 511.57421875 C-148.03660789 510.23428259 -148.07207828 508.8890391 -148.07885742 507.54516602 C-148.08523727 506.6908046 -148.09161713 505.83644318 -148.09819031 504.95619202 C-148.09930313 504.0270549 -148.10041595 503.09791779 -148.1015625 502.140625 C-148.1048909 501.19235336 -148.1082193 500.24408173 -148.11164856 499.26707458 C-148.11672194 497.25707486 -148.11905676 495.24706667 -148.11889648 493.23706055 C-148.12108197 490.15334256 -148.13923058 487.06998269 -148.15820312 483.98632812 C-148.16113709 482.03776165 -148.16312187 480.08919346 -148.1640625 478.140625 C-148.17124802 477.21351212 -148.17843353 476.28639923 -148.18583679 475.33119202 C-148.18276016 474.47367844 -148.17968353 473.61616486 -148.17651367 472.73266602 C-148.17793869 471.97623306 -148.17936371 471.21980011 -148.18083191 470.44044495 C-147.93359375 468.57421875 -147.93359375 468.57421875 -145.93359375 466.57421875 C-143.41525269 466.33370972 -143.41525269 466.33370972 -140.19873047 466.34716797 C-138.99763641 466.34731903 -137.79654236 466.34747009 -136.55905151 466.34762573 C-135.25694733 466.3579483 -133.95484314 466.36827087 -132.61328125 466.37890625 C-131.27092702 466.38263599 -129.92857008 466.38548314 -128.58621216 466.38748169 C-125.05157975 466.39512131 -121.51711147 466.41477245 -117.98254395 466.43688965 C-114.37640605 466.4573411 -110.77024166 466.4664819 -107.1640625 466.4765625 C-100.0871724 466.49801815 -93.01039378 466.53215796 -85.93359375 466.57421875 C-85.93803497 465.98984039 -85.9424762 465.40546204 -85.947052 464.80337524 C-85.99120137 458.73678017 -86.02142509 452.67023052 -86.04345703 446.60351562 C-86.05353234 444.33754626 -86.06719293 442.07158994 -86.08447266 439.80566406 C-86.10865386 436.55400374 -86.12006138 433.30251488 -86.12890625 430.05078125 C-86.14439011 428.52416367 -86.14439011 428.52416367 -86.16018677 426.96670532 C-86.16041336 425.5554689 -86.16041336 425.5554689 -86.16064453 424.11572266 C-86.16508575 423.28521393 -86.16952698 422.4547052 -86.17410278 421.59902954 C-85.93359375 419.57421875 -85.93359375 419.57421875 -83.93359375 417.57421875 C-80.67578125 417.37890625 -80.67578125 417.37890625 -76.80859375 417.44921875 C-75.52726562 417.46726562 -74.2459375 417.4853125 -72.92578125 417.50390625 C-71.44464844 417.53871094 -71.44464844 417.53871094 -69.93359375 417.57421875 C-69.91102304 416.85913281 -69.88845233 416.14404686 -69.86519766 415.40729165 C-69.26882225 396.76270032 -68.4842419 378.13439681 -67.56404233 359.50282168 C-67.381182 355.79070825 -67.20079624 352.07847432 -67.02006531 348.36625671 C-66.66798019 341.14206006 -66.31372118 333.91797168 -65.95867193 326.69392017 C-65.54385407 318.25198811 -65.13129918 309.80994588 -64.71881443 301.36789957 C-63.98237051 286.29710365 -63.24396125 271.22640469 -62.50439453 256.15576172 C-61.78911458 241.57998427 -61.07519115 227.00414124 -60.36279297 212.42822266 C-60.31881616 211.52844585 -60.27483935 210.62866904 -60.22952992 209.70162627 C-60.18562404 208.80329488 -60.14171816 207.90496349 -60.0964818 206.97940993 C-60.00804994 205.17006919 -59.91961747 203.36072847 -59.83118439 201.55138779 C-59.7875569 200.65876727 -59.74392942 199.76614676 -59.69897988 198.84647714 C-59.0161757 184.8774428 -58.33211795 170.90846982 -57.6479415 156.93950264 C-57.40129546 151.90334809 -57.15483576 146.86718445 -56.90851557 141.83101395 C-56.51808836 133.84855109 -56.12711453 125.86611543 -55.73503506 117.88373354 C-55.55627141 114.24406691 -55.37775466 110.60438869 -55.19997215 106.964674 C-54.89008077 100.62427134 -54.57693543 94.28408779 -54.25230408 87.94441986 C-54.05121022 84.01231962 -53.8691032 80.08059693 -53.71315002 76.14646149 C-53.644294 74.60978531 -53.57540403 73.07311065 -53.50646973 71.53643799 C-53.45759865 70.28473438 -53.40872757 69.03303078 -53.35837555 67.74339676 C-52.66853817 62.59671333 -50.32734832 59.36089383 -46.93359375 55.57421875 C-45.8338504 54.19463583 -44.73489839 52.81442174 -43.63671875 51.43359375 C-42.48932619 50.06074399 -41.33818709 48.69101805 -40.18359375 47.32421875 C-35.12168327 41.25710619 -30.21866439 35.1164004 -25.43359375 28.828125 C-22.11840645 24.48763583 -18.70273985 20.2268109 -15.26660156 15.98168945 C-12.98337143 13.15876654 -10.75469638 10.3304861 -8.60546875 7.40234375 C-7.93 6.4896875 -7.25453125 5.57703125 -6.55859375 4.63671875 C-5.71167969 3.44755859 -5.71167969 3.44755859 -4.84765625 2.234375 C-2.93359375 0.57421875 -2.93359375 0.57421875 0 0 Z " fill="#FEB774" transform="translate(255.93359375,-0.57421875)"/>
<path d="M0 0 C3.23046875 0.3828125 3.23046875 0.3828125 5.6171875 2.515625 C6.37644531 3.50304687 7.13570312 4.49046875 7.91796875 5.5078125 C8.34021729 6.0455127 8.76246582 6.58321289 9.19750977 7.13720703 C10.09723585 8.28651749 10.98889375 9.44218242 11.87304688 10.60351562 C13.20771309 12.35298457 14.56551413 14.08126252 15.93359375 15.8046875 C18.71795821 19.31621077 21.47542833 22.848264 24.23046875 26.3828125 C26.01992191 28.67621822 27.81163109 30.96783463 29.60546875 33.2578125 C30.04963135 33.82564453 30.49379395 34.39347656 30.95141602 34.97851562 C33.47774499 38.19539549 36.03828785 41.38007122 38.63671875 44.5390625 C39.21373535 45.2417627 39.79075195 45.94446289 40.38525391 46.66845703 C41.49527775 48.01668071 42.60925754 49.36166165 43.72802734 50.70263672 C44.49880615 51.63873779 44.49880615 51.63873779 45.28515625 52.59375 C45.73358887 53.13306152 46.18202148 53.67237305 46.64404297 54.22802734 C47.16756348 54.93910645 47.69108398 55.65018555 48.23046875 56.3828125 C48.629083 56.88287906 49.02769726 57.38294561 49.43839073 57.8981657 C53.84696086 64.00926637 54.12211008 69.66914428 54.38964844 77.04272461 C54.45413177 78.3110614 54.51861511 79.57939819 54.58505249 80.88616943 C54.76307911 84.39905828 54.9124931 87.91266644 55.0572958 91.42705989 C55.21975985 95.24405835 55.40927549 99.05972695 55.59552002 102.87562561 C55.91635471 109.522661 56.22058709 116.17028906 56.51367188 122.81860352 C56.94056627 132.49860359 57.39290363 142.17728208 57.85230732 151.85578799 C58.4288031 164.00476397 59.00011513 176.15396737 59.55822754 188.30380249 C60.85028159 216.4235489 62.20121428 244.54003661 63.58687305 272.65532231 C63.85037446 278.00310398 64.11335674 283.35091118 64.37640381 288.69871521 C64.68773954 295.02715585 64.99913103 301.35559373 65.31068039 307.68402386 C66.25896274 326.94807499 67.20550701 346.21220974 68.14055371 365.4769085 C68.36174042 370.03373463 68.58356743 374.59052703 68.80719757 379.14723396 C69.01280269 383.3368374 69.21660361 387.52652458 69.41896677 391.71628582 C69.49257904 393.2339637 69.56684051 394.75161026 69.64182043 396.26922119 C69.9892915 403.3096222 70.33181215 410.33180323 70.23046875 417.3828125 C71.21789062 417.35960937 72.2053125 417.33640625 73.22265625 417.3125 C74.50398437 417.29445313 75.7853125 417.27640625 77.10546875 417.2578125 C78.38164062 417.23460937 79.6578125 417.21140625 80.97265625 417.1875 C84.23046875 417.3828125 84.23046875 417.3828125 86.23046875 419.3828125 C86.47097778 421.40762329 86.47097778 421.40762329 86.45751953 423.92431641 C86.45729294 425.33555283 86.45729294 425.33555283 86.45706177 426.77529907 C86.4467392 427.79304413 86.43641663 428.81078918 86.42578125 429.859375 C86.42295135 430.89975922 86.42012146 431.94014343 86.41720581 433.01205444 C86.40598579 436.34408944 86.3808779 439.67585836 86.35546875 443.0078125 C86.34544131 445.26301696 86.33631505 447.51822562 86.328125 449.7734375 C86.30604053 455.30998704 86.27254514 460.84638077 86.23046875 466.3828125 C86.9777121 466.37837128 87.72495544 466.37393005 88.49484253 466.36935425 C95.52852421 466.32932066 102.56216659 466.29885013 109.5959301 466.27918816 C113.21227748 466.26874001 116.82853091 466.25456218 120.44482422 466.23193359 C123.93315686 466.2102417 127.42139899 466.19825165 130.90979385 466.19305801 C132.89186846 466.18755081 134.87390654 466.17193216 136.85592651 466.15621948 C138.05702057 466.15606842 139.25811462 466.15591736 140.49560547 466.15576172 C141.5570578 466.1513205 142.61851013 466.14687927 143.71212769 466.14230347 C146.23046875 466.3828125 146.23046875 466.3828125 148.23046875 468.3828125 C148.47770691 470.2490387 148.47770691 470.2490387 148.47338867 472.54125977 C148.4764653 473.39877335 148.47954193 474.25628693 148.48271179 475.13978577 C148.47193352 476.53045509 148.47193352 476.53045509 148.4609375 477.94921875 C148.46047928 478.89844711 148.46002106 479.84767548 148.45954895 480.82566833 C148.45652513 482.83390553 148.44863499 484.84214034 148.4362793 486.8503418 C148.41802314 489.93611899 148.41576957 493.02159633 148.41601562 496.10742188 C148.41110058 498.05469011 148.40527232 500.0019563 148.3984375 501.94921875 C148.39732468 502.87835587 148.39621185 503.80749298 148.39506531 504.76478577 C148.38868546 505.61914719 148.3823056 506.47350861 148.37573242 507.35375977 C148.37192062 508.10939713 148.36810883 508.86503448 148.36418152 509.64356995 C148.23046875 511.3828125 148.23046875 511.3828125 147.23046875 512.3828125 C145.66237333 512.48069168 144.08985447 512.50836774 142.51870728 512.50865364 C140.9804683 512.51256526 140.9804683 512.51256526 139.41115379 512.51655591 C138.27080996 512.51432518 137.13046612 512.51209446 135.95556641 512.50979614 C134.75485315 512.51135613 133.5541399 512.51291612 132.3170414 512.51452339 C128.96914903 512.51783671 125.62131226 512.51662418 122.27342319 512.51353717 C118.66875066 512.51128496 115.06408317 512.51476178 111.45941162 512.51751709 C104.39190287 512.52197571 97.32440471 512.52099791 90.25689554 512.51810445 C84.51560281 512.51585077 78.77431306 512.51553774 73.03302002 512.51662827 C72.21748803 512.5167815 71.40195604 512.51693473 70.56171095 512.51709261 C68.90524022 512.51741232 67.24876948 512.51773653 65.59229875 512.5180652 C50.04078088 512.52092026 34.48926891 512.51763256 18.93775201 512.51226483 C5.5789411 512.50779677 -7.77986112 512.5085727 -21.13867188 512.51318359 C-36.6325908 512.5185289 -52.12650456 512.52064557 -67.62042427 512.51757133 C-69.27097702 512.51725276 -70.92152977 512.51693839 -72.57208252 512.51662827 C-73.7904016 512.51639685 -73.7904016 512.51639685 -75.03333318 512.51616076 C-80.77114509 512.51529548 -86.50895373 512.51675874 -92.24676514 512.51910782 C-99.23433483 512.52190553 -106.22189329 512.52116817 -113.20946169 512.51582707 C-116.77811839 512.51318967 -120.34675632 512.51218565 -123.9154129 512.51547623 C-127.77516231 512.51898152 -131.63488062 512.5148108 -135.49462891 512.50979614 C-137.20514466 512.51314223 -137.20514466 512.51314223 -138.95021629 512.51655591 C-139.97570894 512.51394816 -141.00120159 512.51134041 -142.05776978 512.50865364 C-143.39604041 512.50841011 -143.39604041 512.50841011 -144.76134682 512.50816166 C-146.76953125 512.3828125 -146.76953125 512.3828125 -147.76953125 511.3828125 C-147.87254539 510.04287634 -147.90801578 508.69763285 -147.91479492 507.35375977 C-147.92117477 506.49939835 -147.92755463 505.64503693 -147.93412781 504.76478577 C-147.93524063 503.83564865 -147.93635345 502.90651154 -147.9375 501.94921875 C-147.9408284 501.00094711 -147.9441568 500.05267548 -147.94758606 499.07566833 C-147.95265944 497.06566861 -147.95499426 495.05566042 -147.95483398 493.0456543 C-147.95701947 489.96193631 -147.97516808 486.87857644 -147.99414062 483.79492188 C-147.99707459 481.8463554 -147.99905937 479.89778721 -148 477.94921875 C-148.00718552 477.02210587 -148.01437103 476.09499298 -148.02177429 475.13978577 C-148.01869766 474.28227219 -148.01562103 473.42475861 -148.01245117 472.54125977 C-148.01387619 471.78482681 -148.01530121 471.02839386 -148.01676941 470.2490387 C-147.76953125 468.3828125 -147.76953125 468.3828125 -145.76953125 466.3828125 C-143.25119019 466.14230347 -143.25119019 466.14230347 -140.03466797 466.15576172 C-138.83357391 466.15591278 -137.63247986 466.15606384 -136.39498901 466.15621948 C-135.09288483 466.16654205 -133.79078064 466.17686462 -132.44921875 466.1875 C-131.10686452 466.19122974 -129.76450758 466.19407689 -128.42214966 466.19607544 C-124.88751725 466.20371506 -121.35304897 466.2233662 -117.81848145 466.2454834 C-114.21234355 466.26593485 -110.60617916 466.27507565 -107 466.28515625 C-99.9231099 466.3066119 -92.84633128 466.34075171 -85.76953125 466.3828125 C-85.77397247 465.79843414 -85.7784137 465.21405579 -85.7829895 464.61196899 C-85.82713887 458.54537392 -85.85736259 452.47882427 -85.87939453 446.41210938 C-85.88946984 444.14614001 -85.90313043 441.88018369 -85.92041016 439.61425781 C-85.94459136 436.36259749 -85.95599888 433.11110863 -85.96484375 429.859375 C-85.98032761 428.33275742 -85.98032761 428.33275742 -85.99612427 426.77529907 C-85.99635086 425.36406265 -85.99635086 425.36406265 -85.99658203 423.92431641 C-86.00102325 423.09380768 -86.00546448 422.26329895 -86.01004028 421.40762329 C-85.76953125 419.3828125 -85.76953125 419.3828125 -83.76953125 417.3828125 C-81.60249901 417.13671684 -81.60249901 417.13671684 -78.85946655 417.14230347 C-77.30293114 417.13817947 -77.30293114 417.13817947 -75.71495056 417.13397217 C-74.57200027 417.14116272 -73.42904999 417.14835327 -72.25146484 417.15576172 C-70.451493 417.15532364 -70.451493 417.15532364 -68.61515808 417.15487671 C-65.31982939 417.15603338 -62.02474962 417.16608104 -58.72946501 417.18002462 C-55.28747506 417.19250593 -51.84548199 417.19370042 -48.4034729 417.19607544 C-41.88342781 417.20229788 -35.36344959 417.21871897 -28.84343398 417.23877442 C-21.42153096 417.26110971 -13.9996248 417.27212087 -6.57769656 417.28216529 C8.69173116 417.30308458 23.96108993 417.33855119 39.23046875 417.3828125 C39.16356228 416.59929877 39.09665582 415.81578504 39.02772188 415.00852847 C38.37480213 407.0144598 37.99044653 399.04586737 37.77526855 391.02911377 C37.73836772 389.7493264 37.70146689 388.46953903 37.66344786 387.15097022 C37.56221152 383.63718672 37.46485034 380.12330539 37.36817527 376.60939384 C37.2627768 372.80399875 37.15369077 368.99870907 37.0450592 365.19340515 C36.85753527 358.60757172 36.67227204 352.02167789 36.48854065 345.43573761 C36.22211225 335.88655233 35.95188423 326.3374774 35.68070859 316.78842589 C35.23970912 301.25664012 34.8013025 285.72478235 34.36474609 270.19287109 C34.33865837 269.26473672 34.31257065 268.33660235 34.28569239 267.38034269 C34.24651602 265.9865471 34.24651602 265.9865471 34.20654821 264.56459403 C33.83713419 251.42211177 33.46704895 238.27964864 33.09619141 225.13720703 C33.07013657 224.21385391 33.04408174 223.29050079 33.01723737 222.33916727 C32.58087125 206.8766474 32.14330689 191.41416156 31.70518351 175.95169139 C31.43582373 166.44252031 31.16767815 156.93331642 30.90117276 147.4240649 C30.71801478 140.89041413 30.53384711 134.35679232 30.34892881 127.82319114 C30.24272506 124.06923049 30.13698611 120.31525839 30.03259468 116.56124687 C29.99338415 115.15390367 29.95416351 113.74656076 29.91493225 112.33921814 C29.89598951 111.65766546 29.87704676 110.97611277 29.85753 110.27390698 C29.73012397 105.7292148 29.58861381 101.18509022 29.44337463 96.64093781 C29.29212537 91.84825814 29.1928695 87.05868307 29.13316345 82.26403046 C29.08790839 80.04350992 29.04251106 77.82299227 28.99694824 75.60247803 C28.99628247 74.62363278 28.99561669 73.64478753 28.99493074 72.6362803 C28.75581399 63.24006887 24.85692447 55.71798079 19.76953125 47.94921875 C16.6069684 43.00893101 13.64738958 37.97738445 10.72338867 32.89282227 C9.01663237 29.9291363 7.29064152 26.97790758 5.5546875 24.03125 C5.0189209 23.11311523 4.4831543 22.19498047 3.93115234 21.24902344 C2.72133035 19.21007566 1.48132112 17.18890967 0.22119141 15.18066406 C-0.42930176 14.12588867 -1.07979492 13.07111328 -1.75 11.984375 C-2.65141724 10.55472412 -2.65141724 10.55472412 -3.57104492 9.09619141 C-4.95537451 5.96206244 -4.85664502 4.58444557 -3.76953125 1.3828125 C-2.76953125 0.3828125 -2.76953125 0.3828125 0 0 Z " fill="#F6A86B" transform="translate(255.76953125,-0.3828125)"/>
<path d="M0 0 C1.52985031 -0.00782324 1.52985031 -0.00782324 3.09060669 -0.01580453 C4.21957367 -0.01134309 5.34854065 -0.00688164 6.51171875 -0.002285 C7.70441376 -0.00540498 8.89710876 -0.00852497 10.12594604 -0.01173949 C13.44690503 -0.01835901 16.76763934 -0.01594626 20.0885849 -0.00976706 C23.66599825 -0.00525803 27.24339139 -0.01221859 30.82080078 -0.0177269 C37.83303865 -0.02663918 44.8452338 -0.02469075 51.85747337 -0.01890162 C57.55439989 -0.01439233 63.2513144 -0.01376904 68.94824219 -0.01594925 C69.75779924 -0.01625572 70.5673563 -0.01656218 71.40144539 -0.01687793 C73.04583486 -0.01751736 74.69022433 -0.01816578 76.3346138 -0.01882312 C91.76885762 -0.02453179 107.20307772 -0.01796012 122.63731766 -0.00722238 C135.89233824 0.00171361 149.1473238 0.00016172 162.40234375 -0.00905991 C177.77982155 -0.01975307 193.15727853 -0.02398241 208.53475952 -0.01783538 C210.17323812 -0.01719825 211.81171671 -0.01656951 213.45019531 -0.01594925 C214.65956851 -0.01548642 214.65956851 -0.01548642 215.89337349 -0.01501425 C221.58614729 -0.01328444 227.27890793 -0.01620854 232.97167969 -0.02090836 C239.90541044 -0.02650662 246.83909589 -0.02502306 253.77282143 -0.01434687 C257.31327433 -0.00907587 260.85365159 -0.00705754 264.394104 -0.01364517 C268.22501875 -0.02066567 272.05580851 -0.01230632 275.88671875 -0.002285 C277.01568573 -0.00674645 278.14465271 -0.01120789 279.30783081 -0.01580453 C280.32773102 -0.01058903 281.34763123 -0.00537354 282.3984375 0 C283.72621216 0.00048706 283.72621216 0.00048706 285.08081055 0.00098395 C287.19921875 0.25168228 287.19921875 0.25168228 289.19921875 2.25168228 C289.44645691 4.11790848 289.44645691 4.11790848 289.44213867 6.41012955 C289.4452153 7.26764313 289.44829193 8.12515671 289.45146179 9.00865555 C289.44068352 10.39932487 289.44068352 10.39932487 289.4296875 11.81808853 C289.42922928 12.76731689 289.42877106 13.71654526 289.42829895 14.69453812 C289.42527513 16.70277531 289.41738499 18.71101012 289.4050293 20.71921158 C289.38677314 23.80498877 289.38451957 26.89046611 289.38476562 29.97629166 C289.37985058 31.92355989 289.37402232 33.87082609 289.3671875 35.81808853 C289.36607468 36.74722565 289.36496185 37.67636276 289.36381531 38.63365555 C289.35743546 39.48801697 289.3510556 40.34237839 289.34448242 41.22262955 C289.34067062 41.97826691 289.33685883 42.73390427 289.33293152 43.51243973 C289.19921875 45.25168228 289.19921875 45.25168228 288.19921875 46.25168228 C286.63112333 46.34956146 285.05860447 46.37723752 283.48745728 46.37752342 C282.46196463 46.38013117 281.43647198 46.38273892 280.37990379 46.38542569 C279.23955996 46.38319497 278.09921612 46.38096424 276.92431641 46.37866592 C275.72360315 46.38022591 274.5228899 46.38178591 273.2857914 46.38339317 C269.93789903 46.38670649 266.59006226 46.38549396 263.24217319 46.38240695 C259.63750066 46.38015474 256.03283317 46.38363156 252.42816162 46.38638687 C245.36065287 46.39084549 238.29315471 46.3898677 231.22564554 46.38697423 C225.48435281 46.38472056 219.74306306 46.38440752 214.00177002 46.38549805 C213.18623803 46.38565128 212.37070604 46.38580451 211.53046095 46.38596239 C209.87399022 46.3862821 208.21751948 46.38660631 206.56104875 46.38693498 C191.00953088 46.38979004 175.45801891 46.38650234 159.90650201 46.38113461 C146.5476911 46.37666655 133.18888888 46.37744248 119.83007812 46.38205338 C104.3361592 46.38739868 88.84224544 46.38951535 73.34832573 46.38644111 C71.69777298 46.38612255 70.04722023 46.38580817 68.39666748 46.38549805 C67.1783484 46.38526663 67.1783484 46.38526663 65.93541682 46.38503055 C60.19760491 46.38416526 54.45979627 46.38562852 48.72198486 46.3879776 C41.73441517 46.39077531 34.74685671 46.39003795 27.75928831 46.38469686 C24.19063161 46.38205945 20.62199368 46.38105544 17.0533371 46.38434601 C13.19358769 46.3878513 9.33386938 46.38368059 5.47412109 46.37866592 C4.33377726 46.38089665 3.19343342 46.38312737 2.01853371 46.38542569 C0.48029473 46.38151407 0.48029473 46.38151407 -1.08901978 46.37752342 C-2.42729041 46.37727989 -2.42729041 46.37727989 -3.79259682 46.37703145 C-5.80078125 46.25168228 -5.80078125 46.25168228 -6.80078125 45.25168228 C-6.90379539 43.91174612 -6.93926578 42.56650263 -6.94604492 41.22262955 C-6.95242477 40.36826813 -6.95880463 39.51390671 -6.96537781 38.63365555 C-6.96649063 37.70451843 -6.96760345 36.77538132 -6.96875 35.81808853 C-6.9720784 34.86981689 -6.9754068 33.92154526 -6.97883606 32.94453812 C-6.98390944 30.93453839 -6.98624426 28.9245302 -6.98608398 26.91452408 C-6.98826947 23.83080609 -7.00641808 20.74744622 -7.02539062 17.66379166 C-7.02832459 15.71522518 -7.03030937 13.76665699 -7.03125 11.81808853 C-7.03843552 10.89097565 -7.04562103 9.96386276 -7.05302429 9.00865555 C-7.04994766 8.15114197 -7.04687103 7.29362839 -7.04370117 6.41012955 C-7.04512619 5.65369659 -7.04655121 4.89726364 -7.04801941 4.11790848 C-6.47927627 -0.17513165 -3.61015164 0.00132428 0 0 Z " fill="#455A64" transform="translate(114.80078125,465.74831771850586)"/>
<path d="M0 0 C7.115625 -0.061875 7.115625 -0.061875 14.375 -0.125 C15.8707959 -0.14320801 17.3665918 -0.16141602 18.90771484 -0.18017578 C20.66656006 -0.18766846 20.66656006 -0.18766846 22.4609375 -0.1953125 C24.26763916 -0.21102295 24.26763916 -0.21102295 26.11083984 -0.22705078 C29 0 29 0 31 2 C31 17.84 31 33.68 31 50 C-25.76 50 -82.52 50 -141 50 C-141 49.67 -141 49.34 -141 49 C-94.47 49 -47.94 49 0 49 C0 32.83 0 16.66 0 0 Z " fill="#E39557" transform="translate(311,417)"/>
<path d="M0 0 C7.115625 -0.061875 7.115625 -0.061875 14.375 -0.125 C15.8707959 -0.14320801 17.3665918 -0.16141602 18.90771484 -0.18017578 C20.66656006 -0.18766846 20.66656006 -0.18766846 22.4609375 -0.1953125 C24.26763916 -0.21102295 24.26763916 -0.21102295 26.11083984 -0.22705078 C29 0 29 0 31 2 C31.24723816 3.8662262 31.24723816 3.8662262 31.24291992 6.15844727 C31.24599655 7.01596085 31.24907318 7.87347443 31.25224304 8.75697327 C31.24505753 9.68408615 31.23787201 10.61119904 31.23046875 11.56640625 C31.22978142 12.99024879 31.22978142 12.99024879 31.2290802 14.44285583 C31.22605638 16.45109303 31.21816624 18.45932784 31.20581055 20.4675293 C31.18755439 23.55330649 31.18530082 26.63878383 31.18554688 29.72460938 C31.18063183 31.67187761 31.17480357 33.6191438 31.16796875 35.56640625 C31.16685593 36.49554337 31.1657431 37.42468048 31.16459656 38.38197327 C31.15821671 39.23633469 31.15183685 40.09069611 31.14526367 40.97094727 C31.13954597 42.10440331 31.13954597 42.10440331 31.13371277 43.26075745 C31 45 31 45 30 46 C27.78144736 46.08783542 25.56011504 46.10694609 23.33984375 46.09765625 C22.12417725 46.09515869 20.90851074 46.09266113 19.65600586 46.09008789 C18.09889893 46.08098389 16.54179199 46.07187988 14.9375 46.0625 C10.008125 46.041875 5.07875 46.02125 0 46 C0 30.82 0 15.64 0 0 Z " fill="#37474F" transform="translate(373,466)"/>
<path d="M0 0 C3.86311333 1.10374667 5.07836771 1.86326358 7.5 5 C8.00170898 8.03686523 8.00170898 8.03686523 7.99609375 11.55859375 C7.99673828 12.83154297 7.99738281 14.10449219 7.99804688 15.41601562 C7.98245728 16.40661987 7.98245728 16.40661987 7.96655273 17.41723633 C7.93763534 19.42808884 7.94594051 21.43629517 7.95898438 23.44726562 C7.88522732 34.66401166 7.88522732 34.66401166 4.5 39 C-0.13854495 42.23428236 -6.01058137 41.44859047 -11.4375 41.5 C-12.52224609 41.54125 -13.60699219 41.5825 -14.72460938 41.625 C-22.46001774 41.7010704 -22.46001774 41.7010704 -25.36767578 39.7409668 C-27.72002645 37.07168265 -28.5 35.37917947 -28.5 31.8125 C-27.47678144 28.93469781 -26.84347785 27.86359865 -24.5 26 C-22.59887695 25.65942383 -22.59887695 25.65942383 -20.48828125 25.70703125 C-19.73095703 25.71669922 -18.97363281 25.72636719 -18.19335938 25.73632812 C-17.40767578 25.76146484 -16.62199219 25.78660156 -15.8125 25.8125 C-14.61657227 25.83280273 -14.61657227 25.83280273 -13.39648438 25.85351562 C-11.43070033 25.88882911 -9.46526418 25.94263553 -7.5 26 C-7.52094727 25.35450195 -7.54189453 24.70900391 -7.56347656 24.04394531 C-7.64674205 21.11278932 -7.69869206 18.18188223 -7.75 15.25 C-7.80027344 13.72632813 -7.80027344 13.72632813 -7.8515625 12.171875 C-7.95017636 4.67722182 -7.95017636 4.67722182 -5.703125 1.296875 C-3.5 0 -3.5 0 0 0 Z " fill="#DE8B48" transform="translate(266.5,310)"/>
<path d="M0 0 C3.21772246 2.568969 4.81574333 4.05648884 5.61523438 8.15039062 C5.60814453 9.30732422 5.60105469 10.46425781 5.59375 11.65625 C5.59117187 12.92597656 5.58859375 14.19570312 5.5859375 15.50390625 C5.54339844 17.48197266 5.54339844 17.48197266 5.5 19.5 C5.50386719 21.47806641 5.50386719 21.47806641 5.5078125 23.49609375 C5.3946556 34.64204826 5.3946556 34.64204826 2 39 C-2.54754712 42.15826759 -8.12275059 41.36841827 -13.4375 41.375 C-14.99307617 41.41173828 -14.99307617 41.41173828 -16.58007812 41.44921875 C-24.17913001 41.47850219 -24.17913001 41.47850219 -28.15625 39.16015625 C-30.55833054 36.34585427 -31.07549736 34.69937046 -31 31 C-29.54296875 28.328125 -29.54296875 28.328125 -27 26 C-24.05999438 25.38766985 -21.23675476 25.52652234 -18.25 25.6875 C-17.06083984 25.72133789 -17.06083984 25.72133789 -15.84765625 25.75585938 C-13.8976238 25.81459529 -11.94856688 25.90427346 -10 26 C-10.02094727 25.35450195 -10.04189453 24.70900391 -10.06347656 24.04394531 C-10.14674205 21.11278932 -10.19869206 18.18188223 -10.25 15.25 C-10.30027344 13.72632813 -10.30027344 13.72632813 -10.3515625 12.171875 C-10.45045567 4.65599408 -10.45045567 4.65599408 -8.16796875 1.33203125 C-5.14429456 -0.52575775 -3.48827533 -0.64070363 0 0 Z " fill="#DE8B48" transform="translate(269,211)"/>
<path d="M0 0 C1.04607422 -0.020625 2.09214844 -0.04125 3.16992188 -0.0625 C4.18248047 -0.06765625 5.19503906 -0.0728125 6.23828125 -0.078125 C7.62527222 -0.09214355 7.62527222 -0.09214355 9.0402832 -0.10644531 C12.24845632 0.32553225 14.08434143 1.35042036 16.6875 3.25 C18.6875 6.25 18.6875 6.25 18.5 9.25 C17.65105876 12.38455226 17.17673859 13.30129404 14.6875 15.25 C12.78637695 15.59057617 12.78637695 15.59057617 10.67578125 15.54296875 C9.91845703 15.53330078 9.16113281 15.52363281 8.38085938 15.51367188 C7.59517578 15.48853516 6.80949219 15.46339844 6 15.4375 C5.20271484 15.42396484 4.40542969 15.41042969 3.58398438 15.39648438 C1.61820033 15.36117089 -0.34723582 15.30736447 -2.3125 15.25 C-2.29155273 15.80461914 -2.27060547 16.35923828 -2.24902344 16.93066406 C-2.16566452 19.45359023 -2.11378132 21.97622649 -2.0625 24.5 C-2.01222656 25.80904297 -2.01222656 25.80904297 -1.9609375 27.14453125 C-1.86215331 33.61489569 -1.86215331 33.61489569 -4.140625 36.828125 C-7.11118862 38.77288248 -8.82952673 38.83049554 -12.3125 38.25 C-14.61525556 36.3829009 -15.99073871 34.89352259 -17.3125 32.25 C-17.61035272 27.98515989 -17.59058765 23.7115133 -17.625 19.4375 C-17.65400391 18.24833984 -17.68300781 17.05917969 -17.71289062 15.83398438 C-17.72126953 14.68607422 -17.72964844 13.53816406 -17.73828125 12.35546875 C-17.75286377 11.30512451 -17.76744629 10.25478027 -17.7824707 9.17260742 C-17.19645186 5.52833125 -15.84516275 3.88226019 -13.3125 1.25 C-9.34565769 -0.73342115 -4.36156262 0.02126295 0 0 Z " fill="#DE8B48" transform="translate(255.3125,286.75)"/>
<path d="M0 0 C1.0415625 -0.01611328 2.083125 -0.03222656 3.15625 -0.04882812 C12.61824644 -0.05487799 12.61824644 -0.05487799 16.625 3.3125 C18.49764676 5.18514676 17.86107378 7.81009947 17.953125 10.3046875 C17.52517675 12.92332321 16.67245909 13.66430555 14.625 15.3125 C12.72387695 15.65307617 12.72387695 15.65307617 10.61328125 15.60546875 C9.85595703 15.59580078 9.09863281 15.58613281 8.31835938 15.57617188 C7.53267578 15.55103516 6.74699219 15.52589844 5.9375 15.5 C5.14021484 15.48646484 4.34292969 15.47292969 3.52148438 15.45898438 C1.55570033 15.42367089 -0.40973582 15.36986447 -2.375 15.3125 C-2.35405273 15.86711914 -2.33310547 16.42173828 -2.31152344 16.99316406 C-2.22816452 19.51609023 -2.17628132 22.03872649 -2.125 24.5625 C-2.07472656 25.87154297 -2.07472656 25.87154297 -2.0234375 27.20703125 C-1.92461872 33.67966148 -1.92461872 33.67966148 -4.20703125 36.88671875 C-7.21687388 38.86616481 -8.83953984 38.96187023 -12.375 38.3125 C-14.93812826 36.65267685 -15.95194287 35.91860064 -17.375 33.3125 C-18.07970142 28.96894885 -17.98088907 24.70208334 -17.875 20.3125 C-17.87886719 18.5490625 -17.87886719 18.5490625 -17.8828125 16.75 C-17.77111542 6.92065661 -17.77111542 6.92065661 -14.375 2.3125 C-9.82643839 -0.71987441 -5.35019218 -0.01643179 0 0 Z " fill="#DE8B48" transform="translate(255.375,187.6875)"/>
<path d="M0 0 C1.83498047 -0.00386719 1.83498047 -0.00386719 3.70703125 -0.0078125 C13.87265442 0.10328721 13.87265442 0.10328721 18.5 3.5 C20.54161111 7.58322222 19.72906579 12.82472808 19.75 17.3125 C19.770625 18.40626953 19.79125 19.50003906 19.8125 20.62695312 C19.82023437 22.2134668 19.82023437 22.2134668 19.828125 23.83203125 C19.84214355 25.28186401 19.84214355 25.28186401 19.85644531 26.76098633 C19.39791365 30.28445667 18.02865126 32.97134874 15.5 35.5 C9.35391566 36.07981928 9.35391566 36.07981928 6.28515625 33.99609375 C3.793206 30.51172567 4.06131081 27.35761854 4.25 23.25 C4.26804687 22.50492188 4.28609375 21.75984375 4.3046875 20.9921875 C4.35164351 19.16090299 4.42338348 17.33028351 4.5 15.5 C2.62054688 15.56960937 2.62054688 15.56960937 0.703125 15.640625 C-0.94789281 15.67814813 -2.59893642 15.71454771 -4.25 15.75 C-5.075 15.78351563 -5.9 15.81703125 -6.75 15.8515625 C-12.88240165 15.9504722 -12.88240165 15.9504722 -16.01171875 13.66796875 C-17.987484 10.78988552 -18.57154166 9.00554121 -18.5 5.5 C-14.17361497 -1.43239578 -7.4585006 -0.17290518 0 0 Z " fill="#DE8A47" transform="translate(255.5,124.5)"/>
<path d="M0 0 C1.27101563 -0.01933594 2.54203125 -0.03867188 3.8515625 -0.05859375 C14.1950862 -0.00415415 14.1950862 -0.00415415 17.3359375 2.97265625 C19.39097136 6.24816797 19.80661436 7.83391251 19 11.625 C16.3144987 14.34790727 14.63672833 15.5209161 10.83374023 16.14257812 C9.67044189 16.14708984 8.50714355 16.15160156 7.30859375 16.15625 C6.03435547 16.16140625 4.76011719 16.1665625 3.44726562 16.171875 C2.45980347 16.15930664 2.45980347 16.15930664 1.45239258 16.14648438 C-0.56095333 16.12501649 -2.57074703 16.14633191 -4.58398438 16.171875 C-5.85693359 16.16671875 -7.12988281 16.1615625 -8.44140625 16.15625 C-10.18466187 16.14948242 -10.18466187 16.14948242 -11.96313477 16.14257812 C-15.61136345 15.52080428 -16.79270637 14.54551108 -19 11.625 C-19.72272574 7.85076559 -19.37943753 6.23120725 -17.33984375 2.97265625 C-12.83488687 -1.29169407 -5.75776716 -0.08759281 0 0 Z " fill="#DF8B48" transform="translate(256,102.375)"/>
<path d="M0 0 C1.27294922 -0.00644531 2.54589844 -0.01289063 3.85742188 -0.01953125 C4.84802612 -0.0038208 4.84802612 -0.0038208 5.85864258 0.01220703 C7.87057669 0.03895177 9.87691241 0.01247569 11.88867188 -0.01953125 C13.8000293 -0.00986328 13.8000293 -0.00986328 15.75 0 C17.49494751 0.00845947 17.49494751 0.00845947 19.27514648 0.01708984 C23.36338949 0.85245448 24.8912368 2.42403685 27.44140625 5.6640625 C27.51481613 9.26114671 26.97436458 10.97695814 24.7734375 13.81445312 C21.72840557 16.22956639 19.92386207 16.17986502 16.06640625 16.1953125 C14.8340625 16.20046875 13.60171875 16.205625 12.33203125 16.2109375 C11.048125 16.19546875 9.76421875 16.18 8.44140625 16.1640625 C6.51554687 16.18726563 6.51554687 16.18726563 4.55078125 16.2109375 C3.3184375 16.20578125 2.08609375 16.200625 0.81640625 16.1953125 C-0.87355469 16.18854492 -0.87355469 16.18854492 -2.59765625 16.18164062 C-6.19617833 15.55261137 -7.34910732 14.51927912 -9.55859375 11.6640625 C-10.55859375 8.7265625 -10.55859375 8.7265625 -10.55859375 5.6640625 C-7.63979061 0.79983876 -5.57726423 0.02706471 0 0 Z " fill="#DE8B48" transform="translate(247.55859375,360.3359375)"/>
<path d="M0 0 C1.83498047 -0.00386719 1.83498047 -0.00386719 3.70703125 -0.0078125 C14.02822606 0.10498744 14.02822606 0.10498744 18.5 3.5 C19.77391029 7.16249207 19.83490272 8.78235132 18.1875 12.3125 C16.5 14.5 16.5 14.5 14.5 15.5 C9.88068733 15.79907141 5.25284765 15.77810074 0.625 15.8125 C-1.31439453 15.85600586 -1.31439453 15.85600586 -3.29296875 15.90039062 C-5.15501953 15.91295898 -5.15501953 15.91295898 -7.0546875 15.92578125 C-8.19405762 15.94036377 -9.33342773 15.95494629 -10.50732422 15.9699707 C-14.15396814 15.39730065 -15.27387178 14.38638727 -17.5 11.5 C-18.5625 8.5625 -18.5625 8.5625 -18.5 5.5 C-14.17361497 -1.43239578 -7.4585006 -0.17290518 0 0 Z " fill="#DE8A47" transform="translate(255.5,164.5)"/>
<path d="M0 0 C1.27101563 -0.01933594 2.54203125 -0.03867187 3.8515625 -0.05859375 C14.19485799 -0.00415535 14.19485799 -0.00415535 17.3671875 2.9375 C19 5.625 19 5.625 19.125 9.25 C18 12.625 18 12.625 15.82055664 14.31103516 C12.56451655 15.82787128 10.32735653 16.01221181 6.74609375 16.0234375 C5.56208984 16.02730469 4.37808594 16.03117187 3.15820312 16.03515625 C1.93037109 16.02355469 0.70253906 16.01195312 -0.5625 16 C-1.79419922 16.01160156 -3.02589844 16.02320313 -4.29492188 16.03515625 C-5.47763672 16.03128906 -6.66035156 16.02742188 -7.87890625 16.0234375 C-8.9572876 16.02005371 -10.03566895 16.01666992 -11.14672852 16.01318359 C-14.36203418 15.57574576 -15.72161962 14.90635347 -18 12.625 C-19.0625 9.25 -19.0625 9.25 -19 5.625 C-14.71460095 -1.4453946 -7.49607821 -0.1140377 0 0 Z " fill="#DE8A47" transform="translate(256,259.375)"/>
</svg>
