<?xml version="1.0" encoding="UTF-8"?>
<svg version="1.1" xmlns="http://www.w3.org/2000/svg" width="512" height="512">
<path d="M0 0 C1.05510773 0.46715927 1.05510773 0.46715927 2.13153076 0.9437561 C3.67770774 1.62958159 5.22168953 2.32037207 6.76373291 3.01544189 C11.12131903 4.97862888 15.49587771 6.90355427 19.8671875 8.8359375 C20.81622955 9.25676605 21.76527161 9.6775946 22.74307251 10.11117554 C33.59663633 14.91668047 44.51282153 19.57451216 55.4291687 24.23516846 C75.20108211 32.67830158 94.94671241 41.18025154 114.6640625 49.75 C131.04192555 56.86762092 147.42394045 63.97519902 163.82086182 71.04882812 C167.00062024 72.42091195 170.17977828 73.7943797 173.35888672 75.16796875 C183.63707773 79.60551877 193.92752256 84.01114348 204.2421875 88.36328125 C207.16220447 89.59939594 210.08194763 90.83615516 213.00161743 92.0730896 C215.719048 93.22043859 218.44078389 94.35709145 221.1628418 95.4934082 C222.79758373 96.18518894 224.43211791 96.87746087 226.06640625 97.5703125 C226.80236023 97.87346878 227.53831421 98.17662506 228.29656982 98.4889679 C232.21467001 100.16453329 235.14530791 101.79547384 237.8515625 105.125 C238.3828125 107.125 238.3828125 107.125 238.3515625 109.125 C238.36703125 110.115 238.36703125 110.115 238.3828125 111.125 C237.8515625 113.125 237.8515625 113.125 233.8515625 117.125 C224.6115625 117.125 215.3715625 117.125 205.8515625 117.125 C205.8515625 138.245 205.8515625 159.365 205.8515625 181.125 C197.9315625 181.125 190.0115625 181.125 181.8515625 181.125 C181.8515625 191.685 181.8515625 202.245 181.8515625 213.125 C179.2115625 213.125 176.5715625 213.125 173.8515625 213.125 C173.8515625 255.365 173.8515625 297.605 173.8515625 341.125 C176.4915625 341.125 179.1315625 341.125 181.8515625 341.125 C181.8515625 351.685 181.8515625 362.245 181.8515625 373.125 C189.7715625 373.125 197.6915625 373.125 205.8515625 373.125 C205.8515625 386.325 205.8515625 399.525 205.8515625 413.125 C211.1315625 413.125 216.4115625 413.125 221.8515625 413.125 C221.8515625 426.325 221.8515625 439.525 221.8515625 453.125 C227.1315625 453.125 232.4115625 453.125 237.8515625 453.125 C237.8515625 466.325 237.8515625 479.525 237.8515625 493.125 C74.1715625 493.125 -89.5084375 493.125 -258.1484375 493.125 C-258.1484375 479.925 -258.1484375 466.725 -258.1484375 453.125 C-252.8684375 453.125 -247.5884375 453.125 -242.1484375 453.125 C-242.1484375 439.925 -242.1484375 426.725 -242.1484375 413.125 C-236.8684375 413.125 -231.5884375 413.125 -226.1484375 413.125 C-226.1484375 399.925 -226.1484375 386.725 -226.1484375 373.125 C-218.2284375 373.125 -210.3084375 373.125 -202.1484375 373.125 C-202.1484375 362.565 -202.1484375 352.005 -202.1484375 341.125 C-199.5084375 341.125 -196.8684375 341.125 -194.1484375 341.125 C-194.1484375 298.885 -194.1484375 256.645 -194.1484375 213.125 C-196.7884375 213.125 -199.4284375 213.125 -202.1484375 213.125 C-202.1484375 202.565 -202.1484375 192.005 -202.1484375 181.125 C-210.0684375 181.125 -217.9884375 181.125 -226.1484375 181.125 C-226.1484375 160.005 -226.1484375 138.885 -226.1484375 117.125 C-235.3884375 117.125 -244.6284375 117.125 -254.1484375 117.125 C-258.1484375 113.125 -258.1484375 113.125 -258.6796875 111.125 C-258.669375 110.465 -258.6590625 109.805 -258.6484375 109.125 C-258.66390625 108.135 -258.66390625 108.135 -258.6796875 107.125 C-257.88441924 104.13104892 -256.539254 103.13183619 -254.1484375 101.125 C-251.15078562 99.53093191 -248.03731368 98.24765812 -244.90234375 96.94921875 C-243.96531113 96.55164871 -243.0282785 96.15407867 -242.06285095 95.74446106 C-240.02350756 94.88041851 -237.9822906 94.02078788 -235.93945312 93.16503906 C-231.52039303 91.31373893 -227.11037479 89.44133625 -222.69967651 87.57022095 C-220.3765067 86.5849056 -218.05286933 85.60069201 -215.72879028 84.61752319 C-204.43862857 79.83824034 -193.19280372 74.95926701 -181.9526062 70.06387329 C-163.87621116 62.19210754 -145.77656806 54.37683791 -127.6484375 46.625 C-111.5138784 39.72512481 -95.39899796 32.78158107 -79.30349731 25.79104614 C-75.93775113 24.32957078 -72.57136123 22.86958726 -69.20483398 21.40991211 C-59.96562954 17.40206189 -50.72904913 13.38934744 -41.51681519 9.31980896 C-38.05043288 7.78934612 -34.58078114 6.26638802 -31.11071777 4.74429321 C-29.53136637 4.04879294 -27.95375292 3.34933038 -26.37805176 2.64559937 C-24.24447845 1.69274448 -22.1055096 0.75319289 -19.96484375 -0.18359375 C-18.78349854 -0.70751709 -17.60215332 -1.23144043 -16.38500977 -1.77124023 C-10.10792637 -3.91189755 -5.85086743 -2.68484174 0 0 Z M-146.1484375 181.125 C-146.1484375 191.685 -146.1484375 202.245 -146.1484375 213.125 C-148.7884375 213.125 -151.4284375 213.125 -154.1484375 213.125 C-154.1484375 255.365 -154.1484375 297.605 -154.1484375 341.125 C-151.5084375 341.125 -148.8684375 341.125 -146.1484375 341.125 C-146.1484375 351.685 -146.1484375 362.245 -146.1484375 373.125 C-128.6584375 373.125 -111.1684375 373.125 -93.1484375 373.125 C-93.1484375 362.565 -93.1484375 352.005 -93.1484375 341.125 C-90.5084375 341.125 -87.8684375 341.125 -85.1484375 341.125 C-85.1484375 298.885 -85.1484375 256.645 -85.1484375 213.125 C-87.7884375 213.125 -90.4284375 213.125 -93.1484375 213.125 C-93.1484375 202.565 -93.1484375 192.005 -93.1484375 181.125 C-110.6384375 181.125 -128.1284375 181.125 -146.1484375 181.125 Z M-36.1484375 181.125 C-36.1484375 191.685 -36.1484375 202.245 -36.1484375 213.125 C-38.7884375 213.125 -41.4284375 213.125 -44.1484375 213.125 C-44.1484375 255.365 -44.1484375 297.605 -44.1484375 341.125 C-41.5084375 341.125 -38.8684375 341.125 -36.1484375 341.125 C-36.1484375 351.685 -36.1484375 362.245 -36.1484375 373.125 C-18.9884375 373.125 -1.8284375 373.125 15.8515625 373.125 C15.8515625 362.565 15.8515625 352.005 15.8515625 341.125 C18.4915625 341.125 21.1315625 341.125 23.8515625 341.125 C23.8515625 298.885 23.8515625 256.645 23.8515625 213.125 C21.2115625 213.125 18.5715625 213.125 15.8515625 213.125 C15.8515625 202.565 15.8515625 192.005 15.8515625 181.125 C-1.3084375 181.125 -18.4684375 181.125 -36.1484375 181.125 Z M72.8515625 181.125 C72.8515625 191.685 72.8515625 202.245 72.8515625 213.125 C70.2115625 213.125 67.5715625 213.125 64.8515625 213.125 C64.8515625 255.365 64.8515625 297.605 64.8515625 341.125 C67.4915625 341.125 70.1315625 341.125 72.8515625 341.125 C72.8515625 351.685 72.8515625 362.245 72.8515625 373.125 C90.3415625 373.125 107.8315625 373.125 125.8515625 373.125 C125.8515625 362.565 125.8515625 352.005 125.8515625 341.125 C128.4915625 341.125 131.1315625 341.125 133.8515625 341.125 C133.8515625 298.885 133.8515625 256.645 133.8515625 213.125 C131.2115625 213.125 128.5715625 213.125 125.8515625 213.125 C125.8515625 202.565 125.8515625 192.005 125.8515625 181.125 C108.3615625 181.125 90.8715625 181.125 72.8515625 181.125 Z " fill="#C3A987" transform="translate(266.1484375,10.875)"/>
<path d="M0 0 C1.05510773 0.46715927 1.05510773 0.46715927 2.13153076 0.9437561 C3.67770774 1.62958159 5.22168953 2.32037207 6.76373291 3.01544189 C11.12131903 4.97862888 15.49587771 6.90355427 19.8671875 8.8359375 C20.81622955 9.25676605 21.76527161 9.6775946 22.74307251 10.11117554 C33.59663633 14.91668047 44.51282153 19.57451216 55.4291687 24.23516846 C75.20108211 32.67830158 94.94671241 41.18025154 114.6640625 49.75 C131.04192555 56.86762092 147.42394045 63.97519902 163.82086182 71.04882812 C167.00062024 72.42091195 170.17977828 73.7943797 173.35888672 75.16796875 C183.63707773 79.60551877 193.92752256 84.01114348 204.2421875 88.36328125 C207.16220447 89.59939594 210.08194763 90.83615516 213.00161743 92.0730896 C215.719048 93.22043859 218.44078389 94.35709145 221.1628418 95.4934082 C222.79758373 96.18518894 224.43211791 96.87746087 226.06640625 97.5703125 C226.80236023 97.87346878 227.53831421 98.17662506 228.29656982 98.4889679 C232.21467001 100.16453329 235.14530791 101.79547384 237.8515625 105.125 C238.3828125 107.125 238.3828125 107.125 238.3515625 109.125 C238.36703125 110.115 238.36703125 110.115 238.3828125 111.125 C237.58163973 114.14117985 236.32228136 115.22044483 233.8515625 117.125 C231.02057329 117.51697625 228.57921535 117.66272548 225.74926758 117.62836456 C224.92192423 117.63417833 224.09458088 117.63999209 223.24216652 117.64598203 C220.45151735 117.66065664 217.66173747 117.64666221 214.87109375 117.63293457 C212.85758512 117.63754054 210.84407986 117.64389139 208.83058167 117.65184355 C203.28328263 117.66860177 197.73625747 117.66026104 192.18895721 117.64789867 C186.21205248 117.63887701 180.23519603 117.65280355 174.25830078 117.66381836 C163.22156182 117.68060817 152.18489854 117.67910934 141.14815903 117.66817249 C130.9530927 117.65811901 120.75805854 117.65547936 110.56298828 117.66026306 C109.88730651 117.6605686 109.21162474 117.66087414 108.51546776 117.66118894 C105.77280768 117.66243425 103.03014761 117.66370785 100.28748757 117.665028 C74.54760225 117.67727009 48.80777282 117.66616051 23.06789613 117.64464041 C0.18846331 117.6256573 -22.69088046 117.62735578 -45.5703125 117.64648438 C-71.26244982 117.66789265 -96.95453774 117.67640197 -122.64668274 117.66403532 C-125.38440958 117.66275241 -128.12213642 117.66150105 -130.85986328 117.66026306 C-131.53398502 117.65994675 -132.20810676 117.65963044 -132.90265644 117.65930455 C-143.09250714 117.65475041 -153.2823222 117.66008365 -163.47216797 117.67018127 C-175.05592433 117.68160281 -186.63959593 117.67840597 -198.2233429 117.6570583 C-204.13770521 117.64651929 -210.05188644 117.64247454 -215.96624756 117.65565491 C-221.37459387 117.66752565 -226.7825903 117.66110441 -232.19090462 117.6397447 C-234.15315465 117.63525599 -236.11543391 117.63759531 -238.07766533 117.64724785 C-240.73425146 117.65931916 -243.38962121 117.64703201 -246.04614258 117.62836456 C-247.20304627 117.64241156 -247.20304627 117.64241156 -248.38332176 117.65674233 C-251.9026531 117.60692715 -253.79498867 117.39745625 -256.62162781 115.21853971 C-258.27676007 112.94904592 -258.69179928 111.90015399 -258.6484375 109.125 C-258.66390625 108.135 -258.66390625 108.135 -258.6796875 107.125 C-257.88441924 104.13104892 -256.539254 103.13183619 -254.1484375 101.125 C-251.15078562 99.53093191 -248.03731368 98.24765812 -244.90234375 96.94921875 C-243.96531113 96.55164871 -243.0282785 96.15407867 -242.06285095 95.74446106 C-240.02350756 94.88041851 -237.9822906 94.02078788 -235.93945312 93.16503906 C-231.52039303 91.31373893 -227.11037479 89.44133625 -222.69967651 87.57022095 C-220.3765067 86.5849056 -218.05286933 85.60069201 -215.72879028 84.61752319 C-204.43862857 79.83824034 -193.19280372 74.95926701 -181.9526062 70.06387329 C-163.87621116 62.19210754 -145.77656806 54.37683791 -127.6484375 46.625 C-111.5138784 39.72512481 -95.39899796 32.78158107 -79.30349731 25.79104614 C-75.93775113 24.32957078 -72.57136123 22.86958726 -69.20483398 21.40991211 C-59.96562954 17.40206189 -50.72904913 13.38934744 -41.51681519 9.31980896 C-38.05043288 7.78934612 -34.58078114 6.26638802 -31.11071777 4.74429321 C-29.53136637 4.04879294 -27.95375292 3.34933038 -26.37805176 2.64559937 C-24.24447845 1.69274448 -22.1055096 0.75319289 -19.96484375 -0.18359375 C-18.78349854 -0.70751709 -17.60215332 -1.23144043 -16.38500977 -1.77124023 C-10.10792637 -3.91189755 -5.85086743 -2.68484174 0 0 Z " fill="#D1B790" transform="translate(266.1484375,10.875)"/>
<path d="M0 0 C163.68 0 327.36 0 496 0 C496 13.2 496 26.4 496 40 C332.32 40 168.64 40 0 40 C0 26.8 0 13.6 0 0 Z " fill="#987E60" transform="translate(8,464)"/>
<path d="M0 0 C153.12 0 306.24 0 464 0 C464 13.2 464 26.4 464 40 C310.88 40 157.76 40 0 40 C0 26.8 0 13.6 0 0 Z " fill="#B59A7E" transform="translate(24,424)"/>
<path d="M0 0 C13.39983416 0 26.71034106 2.2852053 40 4 C40 41.29 40 78.58 40 117 C26.8 117 13.6 117 0 117 C0 78.39 0 39.78 0 0 Z " fill="#B4997D" transform="translate(72,235)"/>
<path d="M0 0 C5.74041768 0 10.56493252 0.06062772 16.1171875 0.83984375 C18.01597656 1.1037793 18.01597656 1.1037793 19.953125 1.37304688 C21.24734375 1.55931641 22.5415625 1.74558594 23.875 1.9375 C25.20566025 2.12224184 26.53638913 2.30649012 27.8671875 2.49023438 C37.57265556 3.85755185 37.57265556 3.85755185 41 5 C41 39.98 41 74.96 41 111 C27.47 111 13.94 111 0 111 C0 74.37 0 37.74 0 0 Z " fill="#B4997D" transform="translate(181,241)"/>
<path d="M0 0 C5.74041768 0 10.56493252 0.06062772 16.1171875 0.83984375 C18.01597656 1.1037793 18.01597656 1.1037793 19.953125 1.37304688 C21.24734375 1.55931641 22.5415625 1.74558594 23.875 1.9375 C25.20566025 2.12224184 26.53638913 2.30649012 27.8671875 2.49023438 C37.57265556 3.85755185 37.57265556 3.85755185 41 5 C41 35.36 41 65.72 41 97 C27.47 97 13.94 97 0 97 C0 64.99 0 32.98 0 0 Z " fill="#B4997D" transform="translate(290,255)"/>
<path d="M0 0 C18.48 0 36.96 0 56 0 C56 10.56 56 21.12 56 32 C53.36 32 50.72 32 48 32 C48 48.17 48 64.34 48 81 C42.1099088 81 37.06709986 80.89182927 31.33984375 80.125 C30.10355225 79.96257812 28.86726074 79.80015625 27.59350586 79.6328125 C26.05702393 79.42398438 24.52054199 79.21515625 22.9375 79 C18.008125 78.34 13.07875 77.68 8 77 C8 62.15 8 47.3 8 32 C5.36 32 2.72 32 0 32 C0 21.44 0 10.88 0 0 Z " fill="#987E60" transform="translate(392,192)"/>
<path d="M0 0 C0.73619064 -0.01377182 1.47238129 -0.02754364 2.23088074 -0.04173279 C3.78836574 -0.06499083 5.34594997 -0.08226342 6.90356445 -0.09399414 C9.27546926 -0.12089528 11.6428927 -0.19578711 14.01367188 -0.27148438 C24.86497319 -0.4671408 24.86497319 -0.4671408 28.66577148 1.67041016 C30.30963527 3.49488568 31.35097434 5.26169295 32.48046875 7.44140625 C32.99826904 8.24376709 33.51606934 9.04612793 34.04956055 9.87280273 C35.75684701 12.51960628 37.34235996 15.21446522 38.91796875 17.94140625 C39.74844727 19.30845703 39.74844727 19.30845703 40.59570312 20.703125 C42.88111918 24.64781573 44.44118609 27.43642492 44.62109375 32.0390625 C43.13658259 36.46717627 41.12560453 40.34361662 38.79296875 44.37890625 C38.37080078 45.13880859 37.94863281 45.89871094 37.51367188 46.68164062 C29.81895148 60.27216489 29.81895148 60.27216489 25.48046875 62.44140625 C20.84373345 62.77086226 16.2072713 62.84038789 11.56005859 62.90136719 C10.0138445 62.92794224 8.46780663 62.96883434 6.92236328 63.02441406 C-5.69672062 63.47268454 -5.69672062 63.47268454 -9.68017578 61.21899414 C-11.32816238 59.39279566 -12.38215449 57.62186196 -13.51953125 55.44140625 C-14.03257812 54.63364746 -14.545625 53.82588867 -15.07421875 52.99365234 C-16.75993086 50.32841825 -18.33293272 47.61845132 -19.89453125 44.87890625 C-20.71244141 43.49928711 -20.71244141 43.49928711 -21.546875 42.09179688 C-22.06121094 41.19525391 -22.57554687 40.29871094 -23.10546875 39.375 C-23.8022876 38.16928345 -23.8022876 38.16928345 -24.51318359 36.93920898 C-25.76789215 33.82496268 -25.89835239 31.78037972 -25.51953125 28.44140625 C-24.19018555 25.40527344 -24.19018555 25.40527344 -22.34375 22.23828125 C-22.01792435 21.67441711 -21.69209869 21.11055298 -21.35639954 20.52960205 C-20.66897446 19.34621114 -19.97526425 18.16645114 -19.27563477 16.99023438 C-18.20670997 15.19086542 -17.15970354 13.38005813 -16.11523438 11.56640625 C-11.60175362 3.83714685 -9.39827597 0.15416634 0 0 Z " fill="#997F61" transform="translate(246.51953125,41.55859375)"/>
<path d="M0 0 C13.37671105 0.78686536 26.71271894 2.26687638 40 4 C40 30.07 40 56.14 40 83 C26.8 83 13.6 83 0 83 C0 55.61 0 28.22 0 0 Z " fill="#B4997D" transform="translate(400,269)"/>
<path d="M0 0 C18.81 0 37.62 0 57 0 C57 10.56 57 21.12 57 32 C54.36 32 51.72 32 49 32 C49 43.88 49 55.76 49 68 C45.390625 67.54625 41.78125 67.0925 38.0625 66.625 C28.0467789 65.36952844 18.02676668 64.16382113 8 63 C8 52.77 8 42.54 8 32 C5.36 32 2.72 32 0 32 C0 21.44 0 10.88 0 0 Z " fill="#987E60" transform="translate(282,192)"/>
<path d="M0 0 C18.81 0 37.62 0 57 0 C57 10.56 57 21.12 57 32 C54.36 32 51.72 32 49 32 C49 39.26 49 46.52 49 54 C47.46472656 53.80664062 45.92945313 53.61328125 44.34765625 53.4140625 C32.23719369 51.89242633 20.12429419 50.40728415 8 49 C8 43.39 8 37.78 8 32 C5.36 32 2.72 32 0 32 C0 21.44 0 10.88 0 0 Z " fill="#987E60" transform="translate(173,192)"/>
<path d="M0 0 C18.48 0 36.96 0 56 0 C56 10.56 56 21.12 56 32 C53.36 32 50.72 32 48 32 C48 36.95 48 41.9 48 47 C34.5616814 46.35392699 21.33402252 44.76675798 8 43 C8 39.37 8 35.74 8 32 C5.36 32 2.72 32 0 32 C0 21.44 0 10.88 0 0 Z " fill="#987E60" transform="translate(64,192)"/>
<path d="M0 0 C0.8996347 -0.00700928 1.79926941 -0.01401855 2.72616577 -0.02124023 C5.70000071 -0.03884504 8.67288389 -0.02718759 11.64672852 -0.01367188 C13.71411827 -0.01636631 15.78150679 -0.02024832 17.84889221 -0.02526855 C22.18242454 -0.03116718 26.5156271 -0.02258966 30.84912109 -0.00390625 C36.40222942 0.01886906 41.95456386 0.00577125 47.5076437 -0.01819611 C51.77734701 -0.0326563 56.04686715 -0.02804678 60.316576 -0.01768494 C62.36389317 -0.01501753 64.41122699 -0.01828788 66.4585247 -0.02760315 C69.32175552 -0.03777061 72.18373714 -0.02226405 75.046875 0 C76.31491219 -0.01214539 76.31491219 -0.01214539 77.60856628 -0.02453613 C81.63711946 0.03345101 83.62216414 0.22363189 87.11170959 2.42492676 C89.23245434 4.6703846 89.77244121 5.4810881 89.71313477 8.51757812 C89.7324707 9.50757813 89.7324707 9.50757813 89.75219727 10.51757812 C88.68448302 13.73328221 86.92905617 14.72299948 84.08813477 16.51757812 C81.07949285 17.10724849 78.12145131 17.08485568 75.06274414 17.06689453 C74.16296341 17.07711639 73.26318268 17.08733826 72.33613586 17.09786987 C69.36778009 17.12562555 66.40035471 17.12375207 63.43188477 17.11914062 C61.3659226 17.12691566 59.29996362 17.13558524 57.23400879 17.14511108 C52.90647002 17.16002691 48.57925762 17.15945885 44.25170898 17.14892578 C38.70622566 17.13732712 33.16207633 17.1712216 27.61681366 17.21761513 C23.35138136 17.24707698 19.08627102 17.24883534 14.820755 17.24259567 C12.77620294 17.24362245 10.73163294 17.25410477 8.68717957 17.27421951 C5.8284119 17.29889786 2.9722513 17.28540435 0.11352539 17.26220703 C-1.15215523 17.28513824 -1.15215523 17.28513824 -2.44340515 17.30853271 C-8.00976927 17.2086963 -8.00976927 17.2086963 -10.57685852 15.24198532 C-12.93298807 12.58112565 -13.90267529 10.97707537 -13.97436523 7.39257812 C-11.2731658 0.08345024 -6.98506164 -0.06674379 0 0 Z " fill="#987E60" transform="translate(77.911865234375,151.482421875)"/>
<path d="M0 0 C1.05706398 -0.00832352 1.05706398 -0.00832352 2.13548279 -0.01681519 C4.45495536 -0.02858475 6.77246224 -0.00436725 9.09179688 0.02148438 C10.70934968 0.02319631 12.32690526 0.02312895 13.94445801 0.0213623 C17.33059317 0.023014 20.71606504 0.04168336 24.10205078 0.07324219 C28.43657307 0.11291978 32.77022711 0.1172866 37.10489655 0.10977936 C40.44386715 0.10670587 43.78264353 0.11884356 47.12156677 0.13591003 C48.71950563 0.14292791 50.31746649 0.14606604 51.91542053 0.1452179 C54.15104752 0.14702112 56.38564538 0.16844578 58.62109375 0.1953125 C60.52707336 0.20794128 60.52707336 0.20794128 62.47155762 0.2208252 C66.05148943 0.64369507 67.95526626 1.45501196 70.81054688 3.61523438 C72.25485542 6.50385147 72.18743193 8.41171139 71.81054688 11.61523438 C69.18405331 14.99147374 67.68610182 16.45061682 63.43359375 17.25015259 C62.14517578 17.25413055 60.85675781 17.25810852 59.52929688 17.26220703 C58.81483398 17.27096863 58.10037109 17.27973022 57.36425781 17.28875732 C55.01239537 17.31068927 52.66242701 17.29622304 50.31054688 17.27929688 C48.67056926 17.28266685 47.03059408 17.28752099 45.390625 17.29379272 C41.95743984 17.30115556 38.52490616 17.29047829 35.09179688 17.26708984 C30.6964533 17.23860151 26.30263622 17.25500877 21.90734863 17.28495216 C18.52201893 17.30304161 15.13704969 17.29725976 11.75170898 17.2843132 C10.13142719 17.2809837 8.5111124 17.2850503 6.89086914 17.29671097 C4.62363332 17.30944804 2.35885046 17.29000835 0.09179688 17.26220703 C-1.19662109 17.25822906 -2.48503906 17.2542511 -3.8125 17.25015259 C-8.06216645 16.45115108 -9.54688159 14.97181257 -12.18945312 11.61523438 C-12.81445312 8.61523438 -12.81445312 8.61523438 -12.18945312 5.61523438 C-8.42854266 0.84769434 -5.99583674 -0.00969431 0 0 Z " fill="#987E60" transform="translate(370.189453125,151.384765625)"/>
<path d="M0 0 C1.86936218 -0.00361794 1.86936218 -0.00361794 3.77648926 -0.00730896 C7.08268124 -0.00607986 10.38768042 0.01895467 13.69366455 0.0524292 C15.71711325 0.06639495 17.7397217 0.06282619 19.76318359 0.05249023 C23.65501228 0.03371783 27.54569195 0.04314286 31.4375 0.0625 C33.24547058 0.0550602 33.24547058 0.0550602 35.08996582 0.04747009 C43.40827922 0.16459954 43.40827922 0.16459954 47.45117188 2.48071289 C49.77067654 5.29967995 50.29328839 6.97652505 50.21875 10.62890625 C48.44835551 13.37607012 47.15583156 15.16036547 44.21875 16.62890625 C42.42255516 16.74009202 40.62229882 16.78812362 38.82275391 16.8059082 C37.69463287 16.81874344 36.56651184 16.83157867 35.40420532 16.84480286 C33.56830338 16.85588326 33.56830338 16.85588326 31.6953125 16.8671875 C30.44245453 16.87525925 29.18959656 16.88333099 27.89877319 16.89164734 C25.24400118 16.90549719 22.58935375 16.91651127 19.93457031 16.92407227 C16.53584589 16.93513972 13.13777568 16.96954387 9.73928261 17.00924397 C6.495524 17.04168775 3.25170864 17.0461869 0.0078125 17.0546875 C-1.21207367 17.07219559 -2.43195984 17.08970367 -3.68881226 17.10774231 C-5.39045029 17.10335396 -5.39045029 17.10335396 -7.12646484 17.09887695 C-8.62299088 17.10767632 -8.62299088 17.10767632 -10.14974976 17.11665344 C-13.53274238 16.48961753 -14.68244074 15.30662581 -16.78125 12.62890625 C-17.84375 9.19140625 -17.84375 9.19140625 -17.78125 5.62890625 C-13.50930617 -1.09402254 -7.33917448 -0.08072945 0 0 Z " fill="#987E60" transform="translate(204.78125,151.37109375)"/>
<path d="M0 0 C4.08752161 0.40688726 6.82514936 1.09262196 9.63574219 4.1875 C12.58070466 8.33013353 14.77071151 12.3344386 14.47949219 17.5234375 C12.8916804 23.15567553 11.19649782 27.58964891 6.65136719 31.4609375 C0.93399145 33.50975853 -5.65078112 33.60514343 -11.34863281 31.4609375 C-15.61268985 28.23595574 -17.84978482 23.50303919 -19.34863281 18.4609375 C-19.03650947 12.899467 -17.08635273 8.36345762 -14.03613281 3.75 C-9.73152867 0.08357845 -5.51503017 -0.0893484 0 0 Z " fill="#F8E0CC" transform="translate(258.3486328125,56.5390625)"/>
<path d="M0 0 C1.27101563 -0.01095703 2.54203125 -0.02191406 3.8515625 -0.03320312 C14.38039106 0.04991921 14.38039106 0.04991921 19 4.5625 C19.6640625 6.5625 19.6640625 6.5625 19.625 8.5625 C19.63789063 9.2225 19.65078125 9.8825 19.6640625 10.5625 C18.62606721 13.68869758 16.69854228 14.76047804 14 16.5625 C9.36398766 17.37106377 4.69897792 17.16550843 0 17.125 C-1.27101563 17.14884766 -2.54203125 17.17269531 -3.8515625 17.19726562 C-14.21171339 17.18090749 -14.21171339 17.18090749 -17.3359375 14.21484375 C-19.40534724 10.91641836 -19.79598379 9.38322219 -19 5.5625 C-14.58671758 -1.47181634 -7.57353528 -0.1420998 0 0 Z " fill="#987E60" transform="translate(313,151.4375)"/>
</svg>
