<?xml version="1.0" encoding="UTF-8"?>
<svg version="1.1" xmlns="http://www.w3.org/2000/svg" width="512" height="512">
<path d="M0 0 C4.32598074 3.19907655 8.56785244 6.49942434 12.78564453 9.83935547 C14.62521632 11.2861116 16.48234044 12.70514975 18.35009766 14.11523438 C27.06714968 20.74019392 34.98068423 28.06506379 42.88916016 35.62695312 C44.54776793 37.19458241 46.22640469 38.73154723 47.92822266 40.25195312 C86.36629168 74.60086587 135.35885267 132.07501022 138.90185547 185.82128906 C138.9476275 188.58996466 138.97595454 191.35793166 138.99072266 194.12695312 C139.02166016 195.55394531 139.02166016 195.55394531 139.05322266 197.00976562 C139.11556722 208.38764905 135.48489005 217.88150085 127.48298645 226.06349182 C126.94268295 226.60086472 126.40237946 227.13823761 125.84570312 227.69189453 C124.97646965 228.57383232 124.97646965 228.57383232 124.0896759 229.47358704 C122.18679358 231.3997161 120.2730644 233.31459348 118.35791016 235.22851562 C117.01965713 236.5738783 115.68170012 237.91953548 114.34402466 239.26547241 C111.54326745 242.07964672 108.73667653 244.88784679 105.92626953 247.69238281 C102.34192219 251.27084103 98.77614247 254.86718747 95.21502495 258.46874428 C92.45774507 261.25199123 89.68895195 264.02356339 86.91684341 266.79203415 C85.59810899 268.11245179 84.28331124 269.43681422 82.97271347 270.76530838 C71.84294981 282.03022161 62.10990632 289.08966624 45.74072266 289.68945312 C20.41218778 289.08384821 -5.52273896 278.85123948 -26.47021484 265.04882812 C-27.26492188 264.52635498 -28.05962891 264.00388184 -28.87841797 263.46557617 C-30.3306252 262.48313598 -31.76165549 261.46824021 -33.16357422 260.4152832 C-36.1802144 258.34528272 -38.10162032 257.25304082 -41.81616211 257.65063477 C-44.6959908 258.41894679 -47.45755919 259.3614382 -50.25927734 260.37695312 C-52.06162326 260.92680206 -53.86769256 261.4645913 -55.67724609 261.99023438 C-56.60432373 262.26569092 -57.53140137 262.54114746 -58.48657227 262.82495117 C-102.95279574 275.81092209 -150.55481587 280.62454925 -196.75927734 280.56445312 C-198.06304825 280.56354675 -198.06304825 280.56354675 -199.39315796 280.56262207 C-249.49255409 280.4686968 -315.28221939 275.31012071 -355.25927734 241.37695312 C-356.33628906 240.53777344 -356.33628906 240.53777344 -357.43505859 239.68164062 C-364.72577206 233.77767304 -372.26640935 224.86417841 -373.54139519 215.24950027 C-373.65439002 212.83001651 -373.67617257 210.42649713 -373.66333008 208.00439453 C-373.67019333 207.09123978 -373.67705658 206.17808502 -373.68412781 205.23725891 C-373.70235129 202.23418396 -373.69856423 199.23163373 -373.69287109 196.22851562 C-373.69743538 194.13015575 -373.70274169 192.03179738 -373.70875549 189.93344116 C-373.71767815 185.54052652 -373.71527345 181.14779375 -373.70532227 176.75488281 C-373.69384034 171.14062977 -373.71403684 165.52700642 -373.7432394 159.91283607 C-373.76163539 155.58037361 -373.76130203 151.24806105 -373.75560188 146.91556931 C-373.75544905 144.84643038 -373.7614618 142.77728106 -373.77389336 140.70817947 C-373.78886374 137.80782484 -373.77808143 134.90862079 -373.76098633 132.00830078 C-373.77548828 130.74085274 -373.77548828 130.74085274 -373.7902832 129.44779968 C-373.64943801 117.9672219 -367.29131 109.58306108 -359.75927734 101.43945312 C-318.56951202 61.57587343 -242.73429114 57.67844061 -189.25927734 58.37695312 C-189.11232422 56.80107422 -189.11232422 56.80107422 -188.96240234 55.19335938 C-186.97552394 35.78486496 -177.59850778 25.3977276 -164.11474609 11.89648438 C-162.93787316 10.71316773 -161.76114348 9.52970859 -160.58454895 8.34611511 C-158.1296352 5.8792978 -155.67069666 3.41657511 -153.20922852 0.95629883 C-150.07572772 -2.17699851 -146.95623546 -5.3238523 -143.84008312 -8.47439098 C-141.41812476 -10.91871487 -138.98699973 -13.35376463 -136.55330849 -15.78640175 C-135.39999012 -16.94205926 -134.24986369 -18.10091246 -133.10320091 -19.26317406 C-94.31718162 -58.52742857 -37.54243915 -26.9701897 0 0 Z " fill="#C6A620" transform="translate(373.25927734375,130.623046875)"/>
<path d="M0 0 C0.3543709 1.98690009 0.60490117 3.99245089 0.8125 6 C6.79615672 51.68916179 38.44663782 94.61452035 68.83984375 127.62890625 C70.65540277 129.62175314 72.4171451 131.64489359 74.17578125 133.6875 C78.34480801 138.46091066 82.76776991 142.95931119 87.25 147.4375 C88.08901855 148.27643799 88.92803711 149.11537598 89.79248047 149.97973633 C94.88339143 155.02393718 100.01681869 159.76578818 105.671875 164.171875 C108.00460637 166.00361709 110.18585124 167.9373425 112.375 169.9375 C123.1492337 179.58862453 135.15311903 187.74265302 147 196 C146 198 146 198 144.0234375 198.8503418 C106.42991953 210.89981285 67.37429006 217.41583238 28 220 C26.70433105 220.08612549 25.40866211 220.17225098 24.07373047 220.26098633 C12.87920055 220.96542996 1.71521495 221.20208714 -9.5 221.1875 C-10.3691806 221.18689575 -11.23836121 221.1862915 -12.13388062 221.18566895 C-62.23327674 221.09174367 -128.02294205 215.93316759 -168 182 C-169.07701172 181.16082031 -169.07701172 181.16082031 -170.17578125 180.3046875 C-177.46649471 174.40071991 -185.007132 165.48722528 -186.28211784 155.87254715 C-186.39511267 153.45306338 -186.41689523 151.049544 -186.40405273 148.62744141 C-186.41091599 147.71428665 -186.41777924 146.8011319 -186.42485046 145.86030579 C-186.44307394 142.85723084 -186.43928689 139.85468061 -186.43359375 136.8515625 C-186.43815804 134.75320263 -186.44346435 132.65484425 -186.44947815 130.55648804 C-186.45840081 126.16357339 -186.4559961 121.77084062 -186.44604492 117.37792969 C-186.434563 111.76367664 -186.4547595 106.1500533 -186.48396206 100.53588295 C-186.50235805 96.20342048 -186.50202469 91.87110792 -186.49632454 87.53861618 C-186.49617171 85.46947726 -186.50218446 83.40032793 -186.51461601 81.33122635 C-186.5295864 78.43087172 -186.51880408 75.53166767 -186.50170898 72.63134766 C-186.51621094 71.36389961 -186.51621094 71.36389961 -186.53100586 70.07084656 C-186.39016067 58.59026878 -180.03203266 50.20610796 -172.5 42.0625 C-141.69935942 12.25354671 -39.35943697 -19.67971848 0 0 Z " fill="#C13110" transform="translate(186,190)"/>
<path d="M0 0 C1.83957179 1.44675613 3.6966959 2.86579428 5.56445312 4.27587891 C14.28150515 10.90083845 22.1950397 18.22570832 30.10351562 25.78759766 C31.7621234 27.35522694 33.44076016 28.89219176 35.14257812 30.41259766 C73.58064715 64.7615104 122.57320814 122.23565476 126.11621094 175.98193359 C126.16198297 178.75060919 126.19031001 181.51857619 126.20507812 184.28759766 C126.23601562 185.71458984 126.23601562 185.71458984 126.26757812 187.17041016 C126.3023067 193.50837542 125.36901097 198.67206854 122.95507812 204.53759766 C119.95507812 204.53759766 119.95507812 204.53759766 117.99871141 202.95612776 C117.2495232 202.20688454 116.50033498 201.45764131 115.7284441 200.68569374 C114.86207225 199.82652843 113.99570039 198.96736312 113.10307485 198.0821625 C112.14099386 197.11290338 111.17905379 196.14350437 110.21723938 195.17398071 C109.19646165 194.15594117 108.17502871 193.13855824 107.15299481 192.1217798 C104.33678282 189.3161987 101.53006599 186.5012804 98.7247628 183.68479729 C95.70153705 180.65275903 92.66971301 177.62934041 89.63894653 174.60484314 C83.69939936 168.6748031 77.76795387 162.736722 71.83922974 156.7958634 C64.94149168 149.88453182 58.03615964 142.9808088 51.1305634 136.0773304 C38.8137536 123.76371325 26.50439784 111.44267094 14.19897461 99.11767578 C2.24542045 87.14511422 -9.71408051 75.17853332 -21.67993164 63.21826172 C-34.695828 50.20841654 -47.70861224 37.19547416 -60.71579295 24.17691457 C-62.1014552 22.79004497 -63.48711813 21.40317606 -64.87278175 20.01630783 C-65.55463203 19.33385402 -66.2364823 18.65140021 -66.9389947 17.94826598 C-71.75539288 13.12798069 -76.57393417 8.30984404 -81.39322472 3.49245071 C-87.26195032 -2.3741577 -93.12701089 -8.24440141 -98.9873999 -14.11933802 C-101.98028877 -17.11949457 -104.97477318 -20.1180122 -107.97356987 -23.11226463 C-110.71454027 -25.84918228 -113.45090244 -28.59061825 -116.1835371 -31.33585794 C-117.17698175 -32.33224973 -118.17214408 -33.32693222 -119.16911646 -34.31979422 C-120.51592815 -35.66155317 -121.85608173 -37.00998571 -123.19581127 -38.35881615 C-123.94451243 -39.10838408 -124.69321358 -39.85795201 -125.46460265 -40.63023412 C-127.04492188 -42.46240234 -127.04492188 -42.46240234 -127.04492188 -44.46240234 C-84.82596101 -61.20440407 -31.66195947 -25.07206655 0 0 Z " fill="#E5C72A" transform="translate(386.044921875,140.46240234375)"/>
<path d="M0 0 C6.01400323 4.98316089 11.51732085 10.37963862 17.02903748 15.90878296 C18.03306742 16.91237625 19.03731733 17.91574952 20.0417667 18.91892302 C22.78737868 21.66230857 25.52987895 24.40878614 28.27186286 27.15579724 C31.23450516 30.12277054 34.20004983 33.0868404 37.16523743 36.05126953 C42.29763561 41.18314416 47.42820421 46.31684199 52.55752373 51.45179367 C59.97360078 58.87600851 67.3924478 66.2974503 74.81196702 73.71822496 C86.85047948 85.75892435 98.88675851 97.80185376 110.92163086 109.84619141 C122.6102357 121.54397962 134.29989361 133.24071385 145.9909668 144.93603516 C146.71198066 145.65731175 147.43299453 146.37858833 148.1758573 147.12172179 C151.79309088 150.74026044 155.41034515 154.35877841 159.02760971 157.9772861 C189.02161418 187.98165204 219.01199325 217.98963968 249 248 C241.15794933 254.34667072 230.5970724 253.59029612 221 253 C203.45105745 250.88335123 186.31784036 244.36160684 170.85009766 235.98974609 C169.05420848 235.02899989 167.24207786 234.11284057 165.41796875 233.20703125 C138.43556859 219.62774934 114.55160199 199.89278829 92.53125 179.41357422 C90.95904729 177.96219448 89.37219307 176.52845331 87.78125 175.09765625 C80.58010147 168.59332379 73.88942655 161.7781788 67.40673828 154.55957031 C66.05221269 153.05788522 64.68070995 151.57156694 63.30859375 150.0859375 C57.92645938 144.25186818 52.83788012 138.29162735 48 132 C47.46745605 131.31292969 46.93491211 130.62585938 46.38623047 129.91796875 C37.19447969 118.02540727 28.73920155 105.88433739 21 93 C20.59587891 92.3414502 20.19175781 91.68290039 19.77539062 91.00439453 C9.00124434 73.38586805 1.45045408 54.14089217 -3 34 C-3.19980469 33.17242187 -3.39960938 32.34484375 -3.60546875 31.4921875 C-5.27373747 20.95401478 -4.81667517 9.63335033 0 0 Z " fill="#E5C72A" transform="translate(246,110)"/>
<path d="M0 0 C0.38373779 0.58048096 0.76747559 1.16096191 1.1628418 1.7590332 C1.60192871 2.41363525 2.04101562 3.0682373 2.4934082 3.74267578 C3.17089111 4.76590942 3.17089111 4.76590942 3.86206055 5.80981445 C8.15244286 12.16617644 12.6462446 18.22071861 17.54956055 24.12231445 C18.26756836 25.01305664 18.98557617 25.90379883 19.7253418 26.8215332 C24.23554493 32.40670703 28.89601316 37.78449294 33.79956055 43.02856445 C35.54956055 45.12231445 35.54956055 45.12231445 36.54956055 48.12231445 C26.71860094 50.39716833 16.94594131 52.05524818 6.92456055 53.24731445 C6.21667389 53.33291626 5.50878723 53.41851807 4.77944946 53.50671387 C-9.61487605 55.22629121 -23.95532814 55.91832308 -38.45043945 56.12231445 C-40.12493333 56.16206412 -41.79941398 56.20237742 -43.47387695 56.2434082 C-97.38675339 57.23587613 -167.10298216 50.51901281 -208.29833984 12.32373047 C-213.90282893 6.91810736 -218.02611951 1.82713153 -219.45043945 -5.87768555 C-191.76523863 -6.12493953 -164.07994044 -6.34353997 -136.3942461 -6.52789783 C-123.53970051 -6.61416602 -110.68535338 -6.70985975 -97.83105469 -6.82763672 C-86.62909079 -6.93025045 -75.42715604 -7.01528749 -64.22490138 -7.07909507 C-58.29167338 -7.11350763 -52.35880657 -7.15680419 -46.4258213 -7.22113991 C-40.84369191 -7.28139358 -35.26190403 -7.31817841 -29.67948532 -7.33682251 C-27.62873369 -7.3478347 -25.57800781 -7.36748476 -23.52742958 -7.39633751 C-20.73050918 -7.43440969 -17.93515613 -7.44159772 -15.13801575 -7.44099426 C-14.32380797 -7.45944942 -13.50960019 -7.47790457 -12.67071944 -7.49691898 C-6.08934119 -7.44027232 -3.82776639 -4.95528552 0 0 Z " fill="#E14D29" transform="translate(221.450439453125,274.877685546875)"/>
<path d="M0 0 C0.3543709 1.98690009 0.60490117 3.99245089 0.8125 6 C3.18837227 24.14135029 10.26479917 41.15010231 18.6796875 57.26953125 C20 60 20 60 20 62 C-47.65 62 -115.3 62 -185 62 C-182.92784518 54.74745814 -180.77771691 51.48060171 -176 46 C-175.13568359 44.99259766 -175.13568359 44.99259766 -174.25390625 43.96484375 C-140.86057719 7.84259748 -74.30377196 1.3300064 -28.75 -0.6875 C-3.2846279 -1.64231395 -3.2846279 -1.64231395 0 0 Z " fill="#E14D29" transform="translate(186,190)"/>
</svg>
