<?xml version="1.0" encoding="UTF-8"?>
<svg version="1.1" xmlns="http://www.w3.org/2000/svg" width="512" height="512">
<path d="M0 0 C1.33919802 -0.03298837 2.67839078 -0.06619082 4.01757812 -0.09960938 C5.92893555 -0.11024414 5.92893555 -0.11024414 7.87890625 -0.12109375 C9.59122437 -0.14127563 9.59122437 -0.14127563 11.33813477 -0.16186523 C15.42567495 0.62859646 16.92693539 2.17620003 19.4375 5.4375 C19.4375 6.7575 19.4375 8.0775 19.4375 9.4375 C26.3675 9.9325 26.3675 9.9325 33.4375 10.4375 C34.0975 9.1175 34.7575 7.7975 35.4375 6.4375 C39.68754737 4.2241964 42.63677423 4.34214537 47.1965332 5.68286133 C47.89480225 5.91126709 48.59307129 6.13967285 49.3125 6.375 C50.05137451 6.60662842 50.79024902 6.83825684 51.55151367 7.0769043 C66.11034807 11.79053011 84.87692023 18.13223037 92.4375 32.4375 C94.60186593 37.65520363 94.70064971 42.22700094 94.6328125 47.7734375 C94.62856766 49.09246567 94.62856766 49.09246567 94.62423706 50.43814087 C94.61309712 53.22973594 94.58800411 56.0210029 94.5625 58.8125 C94.5524622 60.71223493 94.54333775 62.61197492 94.53515625 64.51171875 C94.51317806 69.15377107 94.4786911 73.79558002 94.4375 78.4375 C95.08280607 78.43565641 95.72811214 78.43381283 96.39297295 78.43191338 C112.12717682 78.38765849 127.8613589 78.35460663 143.59560966 78.33387566 C151.2047131 78.3235827 158.81377487 78.30956043 166.42285156 78.28662109 C173.05837792 78.26662637 179.69387409 78.25376918 186.32942975 78.24932301 C189.83976361 78.24672589 193.35001115 78.24066325 196.86031723 78.22603989 C200.78824172 78.20981098 204.71608334 78.2095242 208.64404297 78.21044922 C209.795634 78.20325867 210.94722504 78.19606812 212.13371277 78.18865967 C225.76583607 78.22328746 237.39117925 80.91647526 247.6171875 90.41796875 C256.05616459 99.78052487 257.73659104 109.17534844 257.74389648 121.33276367 C257.75222 122.51419952 257.76054352 123.69563538 257.76911926 124.91287231 C257.789025 128.13839946 257.799849 131.36377689 257.80494571 134.58935714 C257.80860286 136.61050439 257.81484997 138.63162735 257.8219471 140.65276527 C257.84640743 147.72107647 257.85948546 154.78931468 257.86303711 161.85766602 C257.86666671 168.41803953 257.896529 174.97794361 257.93844169 181.53817385 C257.97328572 187.19282421 257.98858799 192.84732009 257.98928314 198.50207692 C257.9900714 201.86955091 258.00101346 205.23616783 258.02728081 208.60359764 C258.05430411 212.36789524 258.04933523 216.1309168 258.03686523 219.89526367 C258.05911667 221.53926399 258.05911667 221.53926399 258.08181763 223.21647644 C258.00573021 231.33142065 256.54596886 240.03207033 250.79793072 246.19557762 C250.26115106 246.69618517 249.7243714 247.19679272 249.17132568 247.71257019 C244.39079827 252.83044097 245.62600507 260.47093245 245.69628906 267.03637695 C245.69138872 268.62708529 245.68382658 270.21778731 245.67381287 271.80847168 C245.65805039 275.22552541 245.66113862 278.64185146 245.67905426 282.0588932 C245.70741531 287.46858198 245.69431264 292.87769645 245.67596436 298.28739929 C245.6519396 306.84955171 245.6566261 315.41141651 245.67308688 323.97357768 C245.70160795 339.29204332 245.68134764 354.61048701 245.65068793 369.92893571 C245.6410713 375.29938302 245.64390302 380.66963731 245.65736341 386.04007494 C245.66420769 389.39040633 245.66313246 392.74070577 245.66035652 396.09104156 C245.66086502 397.63651991 245.66479671 399.18200181 245.67253685 400.72746086 C245.74321743 415.37314962 244.52748292 428.60143157 234.16015625 439.84375 C225.62530695 447.7399371 216.33452691 450.90307368 204.8503418 450.84155273 C203.48275475 450.85184761 203.48275475 450.85184761 202.08753967 450.86235046 C199.10376997 450.88050607 196.12053127 450.87679968 193.13671875 450.87109375 C191.05165945 450.87565846 188.96660165 450.88096489 186.88154602 450.88697815 C182.52668108 450.89588522 178.1719998 450.89351058 173.81713867 450.88354492 C168.23383885 450.87201318 162.65116754 450.8923433 157.06795025 450.92146206 C152.76914954 450.93978613 148.47050086 450.93953995 144.17167091 450.93382454 C142.11235479 450.9336711 140.05302852 450.93973397 137.99374962 450.95211601 C135.12132224 450.9669656 132.25007551 450.95639626 129.37768555 450.93920898 C128.52723663 450.94887695 127.67678772 450.95854492 126.80056763 450.96850586 C123.01789202 450.92102274 121.04450481 450.86008417 117.8787384 448.65614319 C116.4375 446.4375 116.4375 446.4375 116.4375 442.4375 C111.4875 442.4375 106.5375 442.4375 101.4375 442.4375 C101.1075 444.4175 100.7775 446.3975 100.4375 448.4375 C97.12502669 450.64581554 96.12595634 450.68894238 92.27331543 450.69476891 C90.65997739 450.70444224 90.65997739 450.70444224 89.01404667 450.714311 C87.2349549 450.7096652 87.2349549 450.7096652 85.41992188 450.70492554 C84.16330215 450.70945665 82.90668242 450.71398776 81.6119833 450.71865618 C78.11688553 450.73092142 74.62188322 450.73062157 71.12676883 450.72826743 C67.35968971 450.72786013 63.59264156 450.73889046 59.82557678 450.74838257 C52.44082299 450.76501514 45.05610111 450.77049322 37.67133015 450.77160732 C31.66653278 450.77255716 25.66174595 450.77666428 19.6569519 450.78300858 C2.63109701 450.80063069 -14.39473264 450.80984646 -31.42059672 450.80834763 C-32.33899218 450.80826772 -33.25738765 450.8081878 -34.20361328 450.80810547 C-35.12313133 450.80802371 -36.04264937 450.80794195 -36.9900316 450.80785771 C-51.8780969 450.80704555 -66.76606084 450.82616295 -81.65409684 450.8543822 C-96.94218992 450.88313075 -112.23023362 450.89692127 -127.51835442 450.89519465 C-136.10082143 450.89453121 -144.68318234 450.9000028 -153.265625 450.92155075 C-160.57679371 450.93978897 -167.88780828 450.94408863 -175.19898993 450.9305319 C-178.92697197 450.92401421 -182.65465853 450.923841 -186.38261223 450.9412384 C-190.43164786 450.95993897 -194.48000328 450.94738265 -198.52905273 450.93197632 C-199.69726814 450.94226344 -200.86548355 450.95255057 -202.06909943 450.96314943 C-213.06595022 450.87089967 -221.8628023 447.9436119 -230.265625 440.78515625 C-239.55444337 431.29097284 -242.69507521 420.494964 -242.68034363 407.45471191 C-242.68104821 406.78805087 -242.68175279 406.12138982 -242.68247873 405.43452692 C-242.68377809 403.21999649 -242.67813292 401.00553869 -242.67260742 398.79101562 C-242.67236506 397.19544983 -242.6726432 395.59988388 -242.67340088 394.00431824 C-242.67450399 390.57767759 -242.67308217 387.15105039 -242.67003441 383.72441101 C-242.66639246 378.30310288 -242.6755593 372.88186413 -242.68782043 367.46057129 C-242.69085333 366.08613712 -242.69085333 366.08613712 -242.69394749 364.6839366 C-242.69811571 362.81088503 -242.70231847 360.93783355 -242.70655501 359.06478214 C-242.73467446 346.45053592 -242.75480609 333.83644225 -242.73754883 321.22216797 C-242.72598904 312.70258842 -242.73558198 304.18332216 -242.76960641 295.66379881 C-242.78675062 291.1592078 -242.79306597 286.65518237 -242.773489 282.15058899 C-242.75524511 277.91491889 -242.76489669 273.68022368 -242.79574585 269.44463539 C-242.80210424 267.89307203 -242.79827618 266.34142731 -242.78334999 264.78992271 C-242.32737183 255.57665682 -242.32737183 255.57665682 -246.2973175 247.70959473 C-246.83399488 247.20949859 -247.37067226 246.70940245 -247.92361259 246.19415188 C-254.55174905 239.0897417 -255.29238294 229.16500822 -255.19360352 219.95874023 C-255.20075882 218.77496796 -255.20791412 217.59119568 -255.21528625 216.37155151 C-255.23206226 212.49599477 -255.21283493 208.62161286 -255.19140625 204.74609375 C-255.18987016 202.03189934 -255.19464451 199.31772186 -255.19871521 196.60353088 C-255.2032174 190.93062056 -255.1874823 185.25804197 -255.15942383 179.58520508 C-255.12736463 173.05369652 -255.12739964 166.52278528 -255.1446386 159.99123424 C-255.16057477 153.67150575 -255.15372588 147.35199344 -255.13670158 141.03227425 C-255.12988089 138.35899679 -255.13197786 135.68617664 -255.13824654 133.01284599 C-255.14372926 129.27048271 -255.12322397 125.52911492 -255.09594727 121.78686523 C-255.10247314 120.69512497 -255.10899902 119.6033847 -255.11572266 118.4785614 C-254.97455167 107.021086 -251.51676278 97.76588966 -243.5625 89.4375 C-232.6767107 79.2985528 -220.29694692 78.28009266 -206.10961914 78.32397461 C-204.86989349 78.32382858 -203.63016785 78.32368256 -202.35287476 78.3235321 C-198.97114148 78.3241074 -195.58947004 78.32910595 -192.2077477 78.33610606 C-188.66701901 78.34237789 -185.12628941 78.34294642 -181.58555603 78.34413147 C-174.88862186 78.34723352 -168.1917041 78.35543168 -161.49477714 78.36548096 C-153.86719269 78.37667713 -146.23960743 78.38216136 -138.6120168 78.38717639 C-122.92883504 78.39761527 -107.24566964 78.41519284 -91.5625 78.4375 C-91.58606567 76.68276367 -91.58606567 76.68276367 -91.61010742 74.89257812 C-91.66468711 70.52415945 -91.69895153 66.15577053 -91.72729492 61.78710938 C-91.74231793 59.90164103 -91.76274231 58.01620725 -91.78881836 56.13085938 C-91.82548863 53.4100691 -91.84229146 50.68974359 -91.85546875 47.96875 C-91.87095261 47.13508911 -91.88643646 46.30142822 -91.90238953 45.44250488 C-91.90455251 37.80380953 -90.04335138 30.9940988 -84.70703125 25.28125 C-62.38780808 6.09240968 -28.41646088 0.12768255 0 0 Z M-42.5625 57.4375 C-42.5625 64.3675 -42.5625 71.2975 -42.5625 78.4375 C-13.5225 78.4375 15.5175 78.4375 45.4375 78.4375 C45.4375 71.5075 45.4375 64.5775 45.4375 57.4375 C33.69125176 52.13274273 20.34371131 48.9616101 7.4375 48.4375 C6.60347656 48.3859375 5.76945312 48.334375 4.91015625 48.28125 C-7.01784485 47.87974646 -33.42778816 48.30278816 -42.5625 57.4375 Z " fill="#355D7C" transform="translate(254.5625,30.5625)"/>
<path d="M0 0 C0.75632245 -0.00380567 1.5126449 -0.00761134 2.29188621 -0.01153234 C4.84077695 -0.02188578 7.38944653 -0.01793506 9.93835258 -0.01409245 C11.77846586 -0.01854283 13.61857722 -0.02385622 15.45868576 -0.02996117 C20.52686041 -0.04417584 25.59497384 -0.0458038 30.66316557 -0.04536426 C36.12483655 -0.04700944 41.58648207 -0.06007044 47.04813957 -0.07155704 C58.99653983 -0.09443041 70.94492236 -0.10233031 82.89334154 -0.10738349 C90.35231638 -0.11063809 97.81128604 -0.11715918 105.27025795 -0.12438488 C125.91679341 -0.14395462 146.56332405 -0.16035638 167.20986938 -0.16326141 C167.87039167 -0.16335547 168.53091396 -0.16344954 169.21145207 -0.16354645 C171.88827996 -0.16392493 174.56510785 -0.16428893 177.24193574 -0.16464943 C179.25669798 -0.16492115 181.27146022 -0.16519782 183.28622246 -0.16547489 C184.28485578 -0.16560693 184.28485578 -0.16560693 185.30366351 -0.16574163 C206.21618569 -0.16864626 227.1286154 -0.19073368 248.04110527 -0.22699833 C271.53368688 -0.26773606 295.02622133 -0.29140049 318.51884258 -0.29172093 C330.95833162 -0.29230585 343.39770167 -0.30082038 355.83716011 -0.32971859 C366.43005826 -0.35421352 377.02279403 -0.36152812 387.61571284 -0.34647106 C393.0205095 -0.33929426 398.4249854 -0.34019307 403.82974625 -0.36288166 C408.77956566 -0.38346132 413.72881749 -0.38088047 418.67863069 -0.36000682 C420.46737594 -0.35650999 422.25616205 -0.36143009 424.0448537 -0.37571125 C442.09337049 -0.51050234 442.09337049 -0.51050234 449.55477715 5.26006222 C454.43992695 10.46831075 457.79271807 15.85444648 457.82220268 23.15988827 C457.83499763 24.59996243 457.83499763 24.59996243 457.84805107 26.06912899 C457.8471447 27.11077709 457.84623833 28.15242519 457.84530449 29.22563839 C457.85202171 30.33196621 457.85873894 31.43829403 457.86565971 32.57814693 C457.88466038 36.2364873 457.88856531 39.89464432 457.89071465 43.55303097 C457.89714226 46.10025769 457.90387059 48.64748366 457.91088676 51.19470882 C457.92286553 56.5369076 457.9266528 61.87903823 457.92538261 67.22124386 C457.92418331 73.37597955 457.94524575 79.53036338 457.97686994 85.68501014 C458.00629262 91.62503356 458.01335541 97.56495079 458.01216316 103.50505161 C458.01451744 106.02273461 458.02333113 108.54042043 458.0388279 111.05805683 C458.05851799 114.58816848 458.05263648 118.11738601 458.04061699 121.64751339 C458.051856 122.67904034 458.06309502 123.71056728 458.07467461 124.77335262 C458.00826561 132.48492763 456.5157942 139.42147295 451.7227459 145.63506222 C423.77581945 168.56587366 389.9250874 181.36803456 355.55477715 191.26006222 C354.00007419 191.72485427 352.44538521 192.18969308 350.89071465 192.65459347 C328.57183524 199.1223806 305.17474281 202.2083018 282.11727715 204.63506222 C281.31389915 204.72055325 280.51052116 204.80604427 279.68279839 204.89412594 C270.96643436 205.80781276 262.33146005 206.54036027 253.55477715 206.26006222 C253.54543144 205.66580441 253.53608574 205.07154659 253.52645683 204.45928097 C253.47224722 201.72541576 253.38870436 198.99317023 253.30477715 196.26006222 C253.29059746 195.32549191 253.27641777 194.39092159 253.2618084 193.42803097 C253.04789675 187.31015799 252.18103089 182.31953857 248.55477715 177.26006222 C244.154269 173.75761696 240.61100026 172.15649739 235.02670097 172.06719112 C234.11177376 172.0511282 233.19684654 172.03506527 232.25419426 172.01851559 C228.06525349 171.97387263 223.87646888 171.93298685 219.6873455 171.90996456 C217.48281085 171.89342934 215.27832927 171.86617173 213.07406425 171.82793331 C209.88636427 171.77295236 206.69991976 171.75125605 203.5118084 171.73662472 C202.04575912 171.70262066 202.04575912 171.70262066 200.5500927 171.66792965 C194.07548746 171.68775677 189.46002523 172.86703928 184.55477715 177.26006222 C180.48884766 182.81272207 179.90022907 188.53363094 179.55477715 195.26006222 C168.56306239 195.46715783 157.84871535 194.95728285 146.92977715 193.69756222 C145.78857918 193.56843441 145.78857918 193.56843441 144.62432671 193.43669796 C116.09379799 190.16538668 87.99302049 184.79688928 60.55477715 176.26006222 C59.64179863 175.97695187 58.72882011 175.69384151 57.78817558 175.40215206 C32.36750847 167.3591567 6.29713274 156.17531686 -14.7788229 139.56210518 C-15.97971875 138.62378423 -17.21690564 137.73126946 -18.47407246 136.86980057 C-21.59612224 134.53335244 -24.01625428 132.65923735 -25.18488693 128.84748554 C-25.46414563 125.95492454 -25.49257563 123.15657614 -25.43277168 120.25102901 C-25.44197136 119.16391628 -25.45117104 118.07680355 -25.46064949 116.95674801 C-25.48052008 113.37310718 -25.44269608 109.7927097 -25.4022541 106.20928097 C-25.4000232 103.70975493 -25.40060967 101.21022492 -25.4038868 98.71070004 C-25.40214456 93.47426261 -25.37397938 88.23865615 -25.32339668 83.00249386 C-25.25905096 76.30750549 -25.25610733 69.61404674 -25.27037716 62.91880226 C-25.27680598 57.75667504 -25.25798446 52.59488389 -25.23111725 47.43283176 C-25.22027422 44.9654231 -25.21595303 42.49797651 -25.21839523 40.03054523 C-25.21695955 36.57208846 -25.18279519 33.11543764 -25.13980293 29.65727901 C-25.14521095 28.64759563 -25.15061897 27.63791225 -25.15619087 26.59763241 C-25.02101052 19.59882771 -23.448537 14.07258712 -19.44522285 8.26006222 C-16.94326386 5.91431005 -14.39925314 3.99841801 -11.44522285 2.26006222 C-10.89825567 1.91157834 -10.35128849 1.56309447 -9.78774655 1.20405048 C-6.54178915 -0.10400275 -3.44487667 -0.01872177 0 0 Z " fill="#3F6F92" transform="translate(39.44522285461426,124.7399377822876)"/>
<path d="M0 0 C1.33919802 -0.03298837 2.67839078 -0.06619082 4.01757812 -0.09960938 C5.92893555 -0.11024414 5.92893555 -0.11024414 7.87890625 -0.12109375 C9.59122437 -0.14127563 9.59122437 -0.14127563 11.33813477 -0.16186523 C15.42567495 0.62859646 16.92693539 2.17620003 19.4375 5.4375 C19.4375 6.7575 19.4375 8.0775 19.4375 9.4375 C26.3675 9.9325 26.3675 9.9325 33.4375 10.4375 C34.0975 9.1175 34.7575 7.7975 35.4375 6.4375 C39.68754737 4.2241964 42.63677423 4.34214537 47.1965332 5.68286133 C47.89480225 5.91126709 48.59307129 6.13967285 49.3125 6.375 C50.05137451 6.60662842 50.79024902 6.83825684 51.55151367 7.0769043 C66.11034807 11.79053011 84.87692023 18.13223037 92.4375 32.4375 C94.60186593 37.65520363 94.70064971 42.22700094 94.6328125 47.7734375 C94.62856766 49.09246567 94.62856766 49.09246567 94.62423706 50.43814087 C94.61309712 53.22973594 94.58800411 56.0210029 94.5625 58.8125 C94.5524622 60.71223493 94.54333775 62.61197492 94.53515625 64.51171875 C94.51317806 69.15377107 94.4786911 73.79558002 94.4375 78.4375 C95.08280607 78.43565641 95.72811214 78.43381283 96.39297295 78.43191338 C112.12717682 78.38765849 127.8613589 78.35460663 143.59560966 78.33387566 C151.2047131 78.3235827 158.81377487 78.30956043 166.42285156 78.28662109 C173.05837792 78.26662637 179.69387409 78.25376918 186.32942975 78.24932301 C189.83976361 78.24672589 193.35001115 78.24066325 196.86031723 78.22603989 C200.78824172 78.20981098 204.71608334 78.2095242 208.64404297 78.21044922 C209.795634 78.20325867 210.94722504 78.19606812 212.13371277 78.18865967 C225.76583607 78.22328746 237.39117925 80.91647526 247.6171875 90.41796875 C256.05616459 99.78052487 257.73659104 109.17534844 257.74389648 121.33276367 C257.75222 122.51419952 257.76054352 123.69563538 257.76911926 124.91287231 C257.789025 128.13839946 257.799849 131.36377689 257.80494571 134.58935714 C257.80860286 136.61050439 257.81484997 138.63162735 257.8219471 140.65276527 C257.84640743 147.72107647 257.85948546 154.78931468 257.86303711 161.85766602 C257.86666671 168.41803953 257.896529 174.97794361 257.93844169 181.53817385 C257.97328572 187.19282421 257.98858799 192.84732009 257.98928314 198.50207692 C257.9900714 201.86955091 258.00101346 205.23616783 258.02728081 208.60359764 C258.05430411 212.36789524 258.04933523 216.1309168 258.03686523 219.89526367 C258.05911667 221.53926399 258.05911667 221.53926399 258.08181763 223.21647644 C258.00573021 231.33142065 256.54596886 240.03207033 250.79793072 246.19557762 C250.26115106 246.69618517 249.7243714 247.19679272 249.17132568 247.71257019 C244.39079827 252.83044097 245.62600507 260.47093245 245.69628906 267.03637695 C245.69138872 268.62708529 245.68382658 270.21778731 245.67381287 271.80847168 C245.65805039 275.22552541 245.66113862 278.64185146 245.67905426 282.0588932 C245.70741531 287.46858198 245.69431264 292.87769645 245.67596436 298.28739929 C245.6519396 306.84955171 245.6566261 315.41141651 245.67308688 323.97357768 C245.70160795 339.29204332 245.68134764 354.61048701 245.65068793 369.92893571 C245.6410713 375.29938302 245.64390302 380.66963731 245.65736341 386.04007494 C245.66420769 389.39040633 245.66313246 392.74070577 245.66035652 396.09104156 C245.66086502 397.63651991 245.66479671 399.18200181 245.67253685 400.72746086 C245.74321743 415.37314962 244.52748292 428.60143157 234.16015625 439.84375 C225.62530695 447.7399371 216.33452691 450.90307368 204.8503418 450.84155273 C203.48275475 450.85184761 203.48275475 450.85184761 202.08753967 450.86235046 C199.10376997 450.88050607 196.12053127 450.87679968 193.13671875 450.87109375 C191.05165945 450.87565846 188.96660165 450.88096489 186.88154602 450.88697815 C182.52668108 450.89588522 178.1719998 450.89351058 173.81713867 450.88354492 C168.23383885 450.87201318 162.65116754 450.8923433 157.06795025 450.92146206 C152.76914954 450.93978613 148.47050086 450.93953995 144.17167091 450.93382454 C142.11235479 450.9336711 140.05302852 450.93973397 137.99374962 450.95211601 C135.12132224 450.9669656 132.25007551 450.95639626 129.37768555 450.93920898 C128.52723663 450.94887695 127.67678772 450.95854492 126.80056763 450.96850586 C123.00622654 450.92087631 121.05699837 450.88177372 117.9099884 448.62489319 C115.74437807 445.40786189 115.89671586 443.22298898 116.4375 439.4375 C117.93591309 437.24691772 117.93591309 437.24691772 120.4375 435.4375 C123.40567695 435.06532693 125.99875451 434.93380429 128.96289062 434.98681641 C129.82202057 434.98611649 130.68115051 434.98541656 131.5663147 434.98469543 C133.4313232 434.98541247 135.29634498 434.99512996 137.16127014 435.01277542 C140.12244395 435.03931972 143.08255116 435.03935065 146.04382324 435.03207397 C154.4626543 435.01642976 162.88111529 435.05054216 171.29980469 435.09765625 C176.45285639 435.12465617 181.60527069 435.12227554 186.75834656 435.10319138 C188.7133816 435.10211567 190.66846008 435.112435 192.62336731 435.13481522 C203.77067426 435.26192479 213.09367095 435.33040831 222.4375 428.4375 C224.41239148 426.44501071 225.21851962 425.04168535 226.4375 422.4375 C226.79089888 421.68411504 227.14429775 420.93073008 227.50840569 420.15451527 C228.59954639 416.96361645 228.68354055 414.39921737 228.67800903 411.02775574 C228.68075836 409.73351685 228.68350769 408.43927795 228.68634033 407.1058197 C228.67926292 405.67886259 228.67199331 404.25190642 228.66455078 402.82495117 C228.66398641 401.31684375 228.66430373 399.80873577 228.66543579 398.30062866 C228.66600931 394.2121639 228.65425517 390.12381664 228.64028788 386.03537917 C228.62778035 381.76059678 228.62661 377.48581166 228.62423706 373.21101379 C228.61802236 365.11860582 228.60161167 357.02625192 228.58153808 348.93386775 C228.55917878 339.71990811 228.54818557 330.50594587 228.53814721 321.29196584 C228.51724544 302.34044658 228.48206964 283.38897764 228.4375 264.4375 C227.95085153 264.72551703 227.46420305 265.01353407 226.96280766 265.31027889 C224.73453819 266.62803108 222.50509812 267.94379029 220.27563477 269.25952148 C219.51014565 269.71261436 218.74465652 270.16570724 217.95597076 270.63253021 C212.53577567 273.82868207 207.07900719 276.83581347 201.375 279.5 C200.50544678 279.90790771 199.63589355 280.31581543 198.73999023 280.73608398 C171.34330526 293.33782882 142.0670766 302.04104791 112.4375 307.4375 C111.53064453 307.61087891 110.62378906 307.78425781 109.68945312 307.96289062 C96.10032339 310.55268195 82.43432144 312.21421377 68.6875 313.6875 C67.87021423 313.77653595 67.05292847 313.8655719 66.21087646 313.95730591 C56.92570941 314.95879402 47.7924814 315.72768406 38.4375 315.4375 C38.52 316.489375 38.6025 317.54125 38.6875 318.625 C38.63281458 328.90585978 34.60995873 338.19170325 27.4375 345.4375 C19.16733748 353.10588355 10.2006271 356.16784374 -1.02099609 356.11450195 C-10.9992573 355.63267873 -19.31940068 351.28549762 -26.1875 344 C-33.10006034 335.28544744 -35.95738949 326.49440584 -35.5625 315.4375 C-36.19269043 315.45127686 -36.82288086 315.46505371 -37.47216797 315.47924805 C-68.72123755 315.85401146 -100.97493168 309.91870302 -131.3125 302.875 C-132.56028732 302.59061066 -132.56028732 302.59061066 -133.83328247 302.30047607 C-136.20018734 301.75632823 -138.56142418 301.19251701 -140.921875 300.62109375 C-141.62245529 300.46073135 -142.32303558 300.30036896 -143.04484558 300.13514709 C-147.39876419 299.04587273 -150.37442973 297.61550974 -153.5625 294.4375 C-154.625 290.9375 -154.625 290.9375 -154.5625 287.4375 C-153.125 285 -153.125 285 -150.5625 283.4375 C-143.15562875 282.77911144 -136.5633647 284.7587135 -129.4375 286.625 C-102.44846449 293.40531894 -74.38011343 298.13668593 -46.53442383 299.14746094 C-42.77581394 299.28439893 -39.22473942 299.55625107 -35.5625 300.4375 C-35.58344727 299.84324219 -35.60439453 299.24898438 -35.62597656 298.63671875 C-35.70991854 295.90382295 -35.76140281 293.17119943 -35.8125 290.4375 C-35.84601563 289.50292969 -35.87953125 288.56835938 -35.9140625 287.60546875 C-36.00208292 281.31200877 -35.45621676 276.51482541 -31.5625 271.4375 C-25.32390056 265.83786172 -19.89037524 264.55290126 -11.68359375 264.7109375 C-10.16633446 264.70944199 -10.16633446 264.70944199 -8.61842346 264.70791626 C-6.49301237 264.71257075 -4.36758744 264.73186807 -2.24243164 264.76513672 C0.99498858 264.8124268 4.22911747 264.80622887 7.46679688 264.79296875 C9.54168613 264.80412175 11.61656164 264.81834119 13.69140625 264.8359375 C15.12922203 264.83320328 15.12922203 264.83320328 16.59608459 264.83041382 C23.47459667 264.97430604 29.25418403 266.29473583 34.27734375 271.25390625 C34.63957031 271.83011719 35.00179688 272.40632813 35.375 273 C35.75527344 273.57878906 36.13554687 274.15757812 36.52734375 274.75390625 C38.29363996 278.02117521 38.55719377 280.68802861 38.53515625 284.32421875 C38.53193359 285.26201172 38.52871094 286.19980469 38.52539062 287.16601562 C38.51701172 288.14248047 38.50863281 289.11894531 38.5 290.125 C38.49548828 291.11306641 38.49097656 292.10113281 38.48632812 293.11914062 C38.47454303 295.55865474 38.45809011 297.99804689 38.4375 300.4375 C93.03507275 295.42020733 147.76300281 288.29612316 197.4375 263.4375 C198.24316406 263.04208008 199.04882812 262.64666016 199.87890625 262.23925781 C210.79462643 256.85399837 220.79840344 250.86817821 230.4375 243.4375 C231.18773437 242.90640625 231.93796875 242.3753125 232.7109375 241.828125 C237.76233994 238.03424469 239.6936401 233.423361 241.4375 227.4375 C241.96496618 223.58175931 241.99573073 219.79191613 241.97094727 215.90429688 C241.97956284 214.79723892 241.98817841 213.69018097 241.99705505 212.54957581 C242.01961482 208.91822413 242.01299459 205.28765036 242.00390625 201.65625 C242.00914585 199.11616793 242.01542356 196.57608782 242.02268982 194.03601074 C242.03307539 188.72361047 242.0288911 183.41148862 242.01391602 178.09912109 C241.99699155 171.98108668 242.01284724 165.86376566 242.0451389 159.74580908 C242.07516722 153.8297647 242.07699679 147.91394009 242.0676403 141.99781799 C242.06682271 139.49409558 242.07364911 136.9903581 242.08841133 134.48667908 C242.10591705 130.98083133 242.09126266 127.47649147 242.06860352 123.97070312 C242.08029572 122.9470314 242.09198792 121.92335968 242.10403442 120.8686676 C242.01086448 113.74930487 240.33158747 108.42926001 236.4375 102.4375 C234.2408169 100.15189875 234.2408169 100.15189875 231.8125 98.875 C231.05710937 98.41996094 230.30171875 97.96492188 229.5234375 97.49609375 C225.349054 95.37763321 221.68377347 95.29179467 217.11532497 95.2976923 C216.36015637 95.29474088 215.60498776 95.29178945 214.82693526 95.28874859 C212.27600603 95.28003093 209.72512201 95.27847453 207.17417908 95.27687073 C205.33492998 95.27214156 203.49568192 95.2669909 201.65643507 95.26145309 C196.58601814 95.24752242 191.51560841 95.23995646 186.4451772 95.2334801 C182.10011989 95.22711596 177.75507444 95.21704489 173.41002452 95.20691944 C159.09247869 95.17357011 144.77492564 95.15206927 130.45735368 95.13371959 C126.73007418 95.12892584 123.00279498 95.12394237 119.27551579 95.11891437 C96.13852938 95.08794435 73.00154048 95.06125379 49.86453915 95.04449558 C44.50352409 95.04055835 39.14250909 95.03654651 33.78149414 95.0324707 C33.11545571 95.03196904 32.44941727 95.03146737 31.76319585 95.0309505 C10.17277759 95.01453551 -11.41752727 94.97608344 -33.00788976 94.9251836 C-55.83388618 94.87146884 -78.65983284 94.8397758 -101.4858951 94.8322987 C-113.92878511 94.8276338 -126.37148748 94.81285464 -138.8143177 94.7725544 C-149.41090904 94.73827587 -160.00727889 94.72430633 -170.60392249 94.73697854 C-176.01079829 94.74281045 -181.41720552 94.73890351 -186.82401085 94.7088089 C-191.77579078 94.6814719 -196.72676869 94.68192618 -201.67856627 94.70431935 C-203.46802195 94.70754516 -205.25753109 94.70065713 -207.04689778 94.68252213 C-216.61999406 94.59139736 -225.08019801 94.57282086 -232.5625 101.4375 C-236.42775232 106.3270159 -238.67726875 110.78620515 -238.70967102 117.09681702 C-238.71682632 118.05411713 -238.72398163 119.01141724 -238.73135376 119.99772644 C-238.73404266 121.04656509 -238.73673157 122.09540375 -238.73950195 123.17602539 C-238.74935875 124.83507904 -238.74935875 124.83507904 -238.75941467 126.52764893 C-238.77916281 130.1968187 -238.79081535 133.86594747 -238.80078125 137.53515625 C-238.80689454 139.41542417 -238.80689454 139.41542417 -238.81313133 141.33367729 C-238.83184866 147.2870707 -238.84641063 153.2404511 -238.8547433 159.19386679 C-238.86449657 166.04797438 -238.89076551 172.90175738 -238.93124419 179.75575072 C-238.96516522 185.70536437 -238.97689856 191.65489954 -238.98094749 197.60461235 C-238.98581015 200.12788527 -238.99741489 202.65115482 -239.01598549 205.17436409 C-239.04041359 208.71424035 -239.03940431 212.25327759 -239.0324707 215.79321289 C-239.05168579 217.34521645 -239.05168579 217.34521645 -239.07128906 218.92857361 C-239.0186518 226.33496866 -237.88940019 233.57676255 -232.90222645 239.36418247 C-230.90581062 241.26525119 -228.80821981 242.83584854 -226.5625 244.4375 C-226.04252441 244.80842773 -225.52254883 245.17935547 -224.98681641 245.56152344 C-211.28473924 255.23128617 -197.08825349 263.17964799 -181.47998047 269.34399414 C-180.6242041 269.69067139 -179.76842773 270.03734863 -178.88671875 270.39453125 C-178.12447998 270.69335205 -177.36224121 270.99217285 -176.5769043 271.30004883 C-174.14125813 272.67535794 -173.00992128 274.05840524 -171.5625 276.4375 C-171.15254088 279.71717299 -171.27957822 281.76556078 -172.5625 284.8125 C-175.12762374 286.89666304 -177.10266856 286.77771818 -180.32861328 286.70507812 C-184.2184249 286.23915096 -187.49248842 284.67657338 -191 283 C-191.77134277 282.64381592 -192.54268555 282.28763184 -193.33740234 281.9206543 C-203.05711605 277.37114828 -212.71440052 272.5190998 -221.80419922 266.80151367 C-222.51180389 266.3570842 -223.21940857 265.91265472 -223.94845581 265.45475769 C-224.48109039 265.11906265 -225.01372498 264.78336761 -225.5625 264.4375 C-225.65600967 284.24801366 -225.72651171 304.05848243 -225.76974869 323.86917114 C-225.79035946 333.06796656 -225.81845162 342.26662472 -225.86425781 351.46533203 C-225.9041711 359.48447227 -225.92994361 367.50351309 -225.93885398 375.5227499 C-225.94406114 379.76751962 -225.95626872 384.01200493 -225.98542023 388.25668335 C-226.01266046 392.2556336 -226.02092774 396.25418348 -226.01493073 400.2532177 C-226.01602713 401.71730668 -226.0239299 403.18140968 -226.0393219 404.64541817 C-226.12016186 412.73431531 -225.89250844 418.51302045 -221.5625 425.4375 C-221.0675 426.9225 -221.0675 426.9225 -220.5625 428.4375 C-218.70129331 429.54665387 -218.70129331 429.54665387 -216.5625 430.4375 C-216.00119878 430.7849944 -215.43989757 431.13248879 -214.86158723 431.49051332 C-208.74473154 435.09419884 -203.01441791 434.99249096 -196.05513 434.92956543 C-194.80633897 434.93424442 -193.55754793 434.93892341 -192.27091473 434.94374418 C-188.82099573 434.95620591 -185.37154484 434.94399033 -181.9216584 434.92766929 C-178.19499953 434.914462 -174.46839471 434.92446965 -170.74172974 434.93177795 C-164.28934819 434.94144574 -157.83710184 434.9370086 -151.38472939 434.9233551 C-142.05031802 434.90397368 -132.71605831 434.9104394 -123.38164296 434.92392892 C-108.22894916 434.94549799 -93.07629119 434.9522263 -77.92358398 434.94677734 C-77.01728204 434.94645671 -76.1109801 434.94613608 -75.17721447 434.94580573 C-68.74314279 434.94343222 -62.3090714 434.94052732 -55.875 434.9375 C-48.52010103 434.93404016 -41.16520206 434.93082208 -33.81030273 434.92822266 C-32.90419789 434.92789715 -31.99809304 434.92757163 -31.06453047 434.92723626 C-15.96387558 434.92229659 -0.86327045 434.93295935 14.23736888 434.95479441 C23.55060292 434.96750091 32.86363208 434.96602775 42.17685506 434.94634354 C48.5538998 434.93375194 54.93084046 434.93518342 61.30788501 434.94771707 C64.98857993 434.95443999 68.66897132 434.95450165 72.34963799 434.9371357 C76.33692166 434.91844303 80.32377387 434.93043867 84.31108093 434.94543457 C86.06115803 434.92970123 86.06115803 434.92970123 87.84659022 434.91365004 C95.62215424 434.97906786 95.62215424 434.97906786 99.66024494 437.24950409 C101.4375 439.4375 101.4375 439.4375 102 442.9375 C101.34652433 447.00357081 100.60912921 447.93270521 97.4375 450.4375 C94.97204632 450.93889666 94.97204632 450.93889666 92.1502676 450.94086456 C90.53394299 450.95651105 90.53394299 450.95651105 88.88496536 450.97247362 C87.70181702 450.96355073 86.51866868 450.95462785 85.29966736 450.94543457 C84.0421932 450.95167453 82.78471905 450.9579145 81.48913962 450.96434355 C77.99618271 450.9810712 74.50366187 450.97277512 71.01070321 450.96039867 C67.2443081 450.95136374 63.47798899 450.96531058 59.71160889 450.97631836 C52.33028722 450.99412852 44.94912802 450.99025149 37.56779992 450.9786678 C31.56587792 450.96963875 25.5640015 450.9684072 19.56207466 450.97276306 C18.28127159 450.97368246 18.28127159 450.97368246 16.97459372 450.97462043 C15.23994988 450.97589934 13.50530606 450.97719619 11.77066226 450.9785108 C-4.50751255 450.98992514 -20.78559737 450.97679202 -37.06375741 450.95530933 C-51.02033335 450.93746 -64.97677611 450.9405229 -78.93334961 450.95898438 C-95.14193029 450.98041475 -111.35043187 450.98880279 -127.55902475 450.97653532 C-129.28947126 450.97526115 -131.01991777 450.97400367 -132.7503643 450.97276306 C-133.60174659 450.97214596 -134.45312888 450.97152886 -135.33031063 450.97089306 C-141.31895653 450.96744497 -147.30755215 450.97325728 -153.29619026 450.98268127 C-160.60369165 450.99392772 -167.91102128 450.99080678 -175.21850313 450.9695583 C-178.94445499 450.95907982 -182.67012104 450.95487054 -186.39607048 450.96815491 C-190.44288731 450.98236426 -194.48898907 450.96534308 -198.53578186 450.94543457 C-199.70331515 450.95435746 -200.87084844 450.96328034 -202.07376152 450.97247362 C-213.06607421 450.86783748 -221.86569574 447.94114694 -230.265625 440.78515625 C-239.55444337 431.29097284 -242.69507521 420.494964 -242.68034363 407.45471191 C-242.68104821 406.78805087 -242.68175279 406.12138982 -242.68247873 405.43452692 C-242.68377809 403.21999649 -242.67813292 401.00553869 -242.67260742 398.79101562 C-242.67236506 397.19544983 -242.6726432 395.59988388 -242.67340088 394.00431824 C-242.67450399 390.57767759 -242.67308217 387.15105039 -242.67003441 383.72441101 C-242.66639246 378.30310288 -242.6755593 372.88186413 -242.68782043 367.46057129 C-242.69085333 366.08613712 -242.69085333 366.08613712 -242.69394749 364.6839366 C-242.69811571 362.81088503 -242.70231847 360.93783355 -242.70655501 359.06478214 C-242.73467446 346.45053592 -242.75480609 333.83644225 -242.73754883 321.22216797 C-242.72598904 312.70258842 -242.73558198 304.18332216 -242.76960641 295.66379881 C-242.78675062 291.1592078 -242.79306597 286.65518237 -242.773489 282.15058899 C-242.75524511 277.91491889 -242.76489669 273.68022368 -242.79574585 269.44463539 C-242.80210424 267.89307203 -242.79827618 266.34142731 -242.78334999 264.78992271 C-242.32737183 255.57665682 -242.32737183 255.57665682 -246.2973175 247.70959473 C-246.83399488 247.20949859 -247.37067226 246.70940245 -247.92361259 246.19415188 C-254.55174905 239.0897417 -255.29238294 229.16500822 -255.19360352 219.95874023 C-255.20075882 218.77496796 -255.20791412 217.59119568 -255.21528625 216.37155151 C-255.23206226 212.49599477 -255.21283493 208.62161286 -255.19140625 204.74609375 C-255.18987016 202.03189934 -255.19464451 199.31772186 -255.19871521 196.60353088 C-255.2032174 190.93062056 -255.1874823 185.25804197 -255.15942383 179.58520508 C-255.12736463 173.05369652 -255.12739964 166.52278528 -255.1446386 159.99123424 C-255.16057477 153.67150575 -255.15372588 147.35199344 -255.13670158 141.03227425 C-255.12988089 138.35899679 -255.13197786 135.68617664 -255.13824654 133.01284599 C-255.14372926 129.27048271 -255.12322397 125.52911492 -255.09594727 121.78686523 C-255.10247314 120.69512497 -255.10899902 119.6033847 -255.11572266 118.4785614 C-254.97455167 107.021086 -251.51676278 97.76588966 -243.5625 89.4375 C-232.6767107 79.2985528 -220.29694692 78.28009266 -206.10961914 78.32397461 C-204.86989349 78.32382858 -203.63016785 78.32368256 -202.35287476 78.3235321 C-198.97114148 78.3241074 -195.58947004 78.32910595 -192.2077477 78.33610606 C-188.66701901 78.34237789 -185.12628941 78.34294642 -181.58555603 78.34413147 C-174.88862186 78.34723352 -168.1917041 78.35543168 -161.49477714 78.36548096 C-153.86719269 78.37667713 -146.23960743 78.38216136 -138.6120168 78.38717639 C-122.92883504 78.39761527 -107.24566964 78.41519284 -91.5625 78.4375 C-91.58606567 76.68276367 -91.58606567 76.68276367 -91.61010742 74.89257812 C-91.66468711 70.52415945 -91.69895153 66.15577053 -91.72729492 61.78710938 C-91.74231793 59.90164103 -91.76274231 58.01620725 -91.78881836 56.13085938 C-91.82548863 53.4100691 -91.84229146 50.68974359 -91.85546875 47.96875 C-91.87095261 47.13508911 -91.88643646 46.30142822 -91.90238953 45.44250488 C-91.90455251 37.80380953 -90.04335138 30.9940988 -84.70703125 25.28125 C-62.38780808 6.09240968 -28.41646088 0.12768255 0 0 Z M-42.5625 57.4375 C-42.5625 64.3675 -42.5625 71.2975 -42.5625 78.4375 C-13.5225 78.4375 15.5175 78.4375 45.4375 78.4375 C45.4375 71.5075 45.4375 64.5775 45.4375 57.4375 C33.69125176 52.13274273 20.34371131 48.9616101 7.4375 48.4375 C6.60347656 48.3859375 5.76945312 48.334375 4.91015625 48.28125 C-7.01784485 47.87974646 -33.42778816 48.30278816 -42.5625 57.4375 Z " fill="#000000" transform="translate(254.5625,30.5625)"/>
<path d="M0 0 C0.67482422 0.51046875 0.67482422 0.51046875 1.36328125 1.03125 C2.76217364 2.08532523 4.16498764 3.13420361 5.5703125 4.1796875 C7.14016457 5.35581461 8.6984727 6.54758313 10.2421875 7.7578125 C63.96243163 48.77742383 138.18778155 60.35172596 204 64 C204 67.63 204 71.26 204 75 C172.10927097 74.93271998 140.19604691 69.64901662 109.33569336 61.89648438 C108.17555977 61.60842422 108.17555977 61.60842422 106.99198914 61.31454468 C105.56866352 60.95862304 104.14741427 60.59422175 102.7290802 60.21890259 C97.77774586 58.97293542 91.66826021 57.62544171 86.9375 60.0625 C85.38045048 63.28040235 86.09880016 65.63552061 87 69 C89.71704065 71.51400656 92.20039844 72.55022041 95.76171875 73.4296875 C96.70225098 73.66510254 97.6427832 73.90051758 98.61181641 74.14306641 C99.62679199 74.38460449 100.64176758 74.62614258 101.6875 74.875 C102.75403809 75.1332959 103.82057617 75.3915918 104.91943359 75.65771484 C137.62872386 83.46023847 170.54275801 87.31946778 204 90 C204.33 93.3 204.66 96.6 205 100 C196.05917453 100.13136909 187.21778456 99.6760313 178.3125 98.9375 C177.5691037 98.87608826 176.8257074 98.81467651 176.05978394 98.75140381 C150.20131616 96.54389448 123.94833662 92.2257932 99 85 C98.13342773 84.75846191 97.26685547 84.51692383 96.37402344 84.26806641 C69.01526099 76.6162374 43.4202317 65.43919185 19 51 C17.2984375 50.02546875 17.2984375 50.02546875 15.5625 49.03125 C13 47 13 47 12.4140625 44.640625 C12.70703125 41.3203125 12.70703125 41.3203125 13 38 C13.65991943 38.36206543 14.31983887 38.72413086 14.99975586 39.09716797 C21.82378705 42.8315811 28.67551142 46.50805905 35.5625 50.125 C36.52607422 50.63675781 37.48964844 51.14851563 38.48242188 51.67578125 C51.06924755 58.6531695 51.06924755 58.6531695 65 60 C67.31332486 56.53001271 67.33957563 55.07490752 67 51 C64.52823915 47.29235873 61.84324359 46.42436542 57.875 44.8125 C8.64522852 23.96440396 8.64522852 23.96440396 1 6 C0.1875 2.5 0.1875 2.5 0 0 Z " fill="#355C7B" transform="translate(15,256)"/>
<path d="M0 0 C5.3047258 -0.61888468 10.05456419 -0.17599176 15 2 C16.125 4.9375 16.125 4.9375 17 8 C21.06446284 11.04638929 25.6511779 12.28032412 30.4375 13.75 C40.61151814 17.00825757 50.87291778 20.85050217 59 28 C60.69196504 31.38393008 60.11986549 35.22477791 60.09765625 38.9453125 C60.09553383 40.27283035 60.09553383 40.27283035 60.09336853 41.62716675 C60.0877614 44.45981191 60.07520771 47.29237864 60.0625 50.125 C60.05748592 52.04296761 60.05292285 53.96093646 60.04882812 55.87890625 C60.03778966 60.58596782 60.02052025 65.2929706 60 70 C54.39 70 48.78 70 43 70 C42.98582031 67.88078125 42.97164062 65.7615625 42.95703125 63.578125 C42.92639225 61.51937059 42.88730916 59.4609371 42.84741211 57.40234375 C42.82425541 55.97472533 42.80984176 54.54693664 42.80444336 53.11914062 C42.79513508 51.06272587 42.75411728 49.00897973 42.70703125 46.953125 C42.68346558 45.09929199 42.68346558 45.09929199 42.65942383 43.20800781 C42.27361993 39.85731946 42.27361993 39.85731946 39.71533203 37.67895508 C37.42261357 36.26131213 35.3638279 35.11960127 32.84765625 34.18359375 C32.07776367 33.89564941 31.30787109 33.60770508 30.51464844 33.31103516 C29.70543945 33.02276855 28.89623047 32.73450195 28.0625 32.4375 C27.22364258 32.13376465 26.38478516 31.8300293 25.52050781 31.51708984 C18.44543376 29.02262088 11.41080957 27.22259549 4 26 C2.98421875 25.81566406 1.9684375 25.63132812 0.921875 25.44140625 C-17.95016946 23.31736141 -37.16847271 24.55346647 -55.375 29.8125 C-56.19605225 30.04855957 -57.01710449 30.28461914 -57.86303711 30.52783203 C-64.37190678 32.53066258 -71.11331849 35.11331849 -76 40 C-76.37322427 43.10756015 -76.37322427 43.10756015 -76.4140625 46.7578125 C-76.43342865 47.42086395 -76.4527948 48.08391541 -76.4727478 48.76705933 C-76.53255954 50.88624177 -76.57893388 53.0054785 -76.625 55.125 C-76.66317845 56.56122169 -76.70223011 57.99742045 -76.7421875 59.43359375 C-76.83990819 62.95561029 -76.91945876 66.47738072 -77 70 C-82.61 70 -88.22 70 -94 70 C-94.12379331 64.39501978 -94.21443018 58.79083878 -94.2746582 53.18481445 C-94.29976999 51.27874893 -94.33386645 49.37277941 -94.37719727 47.46704102 C-94.43799744 44.72388002 -94.46624245 41.98199414 -94.48828125 39.23828125 C-94.51408768 38.38913651 -94.5398941 37.53999176 -94.56648254 36.66511536 C-94.56855151 32.27986839 -94.4557105 30.5685736 -91.62231445 27.03344727 C-78.0391148 16.50049224 -60.82966726 10.71508362 -44 8 C-42.83210938 7.80792969 -41.66421875 7.61585937 -40.4609375 7.41796875 C-34.11878928 6.5053822 -27.93336461 5.96293296 -21.53125 5.83203125 C-19.83802612 5.79263428 -19.83802612 5.79263428 -18.1105957 5.75244141 C-15.85424118 5.70963488 -13.5973338 5.68924948 -11.34057617 5.69287109 C-10.30392822 5.67434082 -9.26728027 5.65581055 -8.19921875 5.63671875 C-7.26940186 5.63373779 -6.33958496 5.63075684 -5.3815918 5.62768555 C-2.74033201 5.22052075 -2.74033201 5.22052075 -1.40942383 2.48754883 C-0.94431396 1.66665771 -0.4792041 0.8457666 0 0 Z " fill="#E5814C" transform="translate(273,40)"/>
<path d="M0 0 C1.28753174 0.00607269 1.28753174 0.00607269 2.60107422 0.01226807 C3.92147705 0.00939789 3.92147705 0.00939789 5.26855469 0.00646973 C7.13135056 0.00510755 8.99415591 0.00880625 10.85693359 0.01715088 C13.71457158 0.02785 16.57158088 0.01725675 19.42919922 0.00445557 C21.23649228 0.00577716 23.04378495 0.00833954 24.85107422 0.01226807 C25.70942871 0.0082196 26.5677832 0.00417114 27.45214844 0 C33.49615677 0.04797562 33.49615677 0.04797562 35.72607422 2.27789307 C35.95101923 5.18611075 36.05426619 7.99603968 36.06201172 10.90679932 C36.06866852 11.77046616 36.07532532 12.634133 36.08218384 13.52397156 C36.09232481 15.35736968 36.09700041 17.19080482 36.09667969 19.02423096 C36.10101959 21.80538683 36.13722931 24.58491237 36.17529297 27.36578369 C36.18116782 29.1502835 36.18513273 30.93479082 36.18701172 32.71929932 C36.20138275 33.54152481 36.21575378 34.36375031 36.2305603 35.21089172 C36.168096 43.26801942 33.39339818 50.43883202 27.72607422 56.27789307 C21.7300626 60.4751012 15.88980793 60.89698117 8.72607422 60.27789307 C3.44330666 58.89624617 -1.57525437 56.10329265 -4.43408203 51.34820557 C-7.56948239 45.21226078 -8.43290116 40.20038586 -8.44189453 33.30523682 C-8.44522293 32.42638321 -8.44855133 31.5475296 -8.45198059 30.64204407 C-8.45704126 28.78523278 -8.45938918 26.92841241 -8.45922852 25.07159424 C-8.46142001 22.222892 -8.47959837 19.37457391 -8.49853516 16.52593994 C-8.50146819 14.72320689 -8.50345359 12.920472 -8.50439453 11.11773682 C-8.51158005 10.26251938 -8.51876556 9.40730194 -8.52616882 8.52616882 C-8.49744608 1.1416033 -7.37803869 0.05856477 0 0 Z " fill="#FEE179" transform="translate(242.27392578125,310.72210693359375)"/>
<path d="M0 0 C0.65991943 0.36206543 1.31983887 0.72413086 1.99975586 1.09716797 C8.82378705 4.8315811 15.67551142 8.50805905 22.5625 12.125 C23.52607422 12.63675781 24.48964844 13.14851563 25.48242188 13.67578125 C38.06924755 20.6531695 38.06924755 20.6531695 52 22 C52.66 21.01 53.32 20.02 54 19 C57.01564932 19.60598154 60.00768252 20.28797265 63 21 C63.8353125 21.18304688 64.670625 21.36609375 65.53125 21.5546875 C67.89497631 22.17631682 69.88579693 22.76900298 72 24 C73.3125 27.5 73.3125 27.5 74 31 C76.70423862 33.52456127 79.20504071 34.55136681 82.76171875 35.4296875 C83.70225098 35.66510254 84.6427832 35.90051758 85.61181641 36.14306641 C86.62679199 36.38460449 87.64176758 36.62614258 88.6875 36.875 C89.75403809 37.1332959 90.82057617 37.3915918 91.91943359 37.65771484 C124.62872386 45.46023847 157.54275801 49.31946778 191 52 C191.33 55.3 191.66 58.6 192 62 C183.05917453 62.13136909 174.21778456 61.6760313 165.3125 60.9375 C164.5691037 60.87608826 163.8257074 60.81467651 163.05978394 60.75140381 C137.20131616 58.54389448 110.94833662 54.2257932 86 47 C85.13342773 46.75846191 84.26685547 46.51692383 83.37402344 46.26806641 C56.01526099 38.6162374 30.4202317 27.43919185 6 13 C4.2984375 12.02546875 4.2984375 12.02546875 2.5625 11.03125 C0 9 0 9 -0.5859375 6.640625 C-0.390625 4.42708333 -0.1953125 2.21354167 0 0 Z " fill="#2A4C65" transform="translate(28,294)"/>
<path d="M0 0 C1 2 1 2 0.5390625 4.1015625 C-6.35186004 23.12522045 -32.8931817 33.93253386 -50 42 C-66.52859882 49.44222396 -83.60234377 54.99282679 -101 60 C-102.55470296 60.46479205 -104.10939194 60.92963086 -105.6640625 61.39453125 C-127.9829419 67.86231838 -151.38003434 70.94823958 -174.4375 73.375 C-175.24087799 73.46049103 -176.04425598 73.54598206 -176.87197876 73.63406372 C-185.60232747 74.54921648 -194.20946349 75.20279854 -203 75 C-203 71.37 -203 67.74 -203 64 C-202.0519751 63.93530518 -201.1039502 63.87061035 -200.12719727 63.80395508 C-135.44110134 59.31128139 -47.25436034 49.90559508 0 0 Z " fill="#355C7B" transform="translate(496,256)"/>
<path d="M0 0 C0.49572373 3.12538321 0.65100116 5.8890153 0 9 C-2.24478057 11.58287764 -4.99420526 12.98530106 -8 14.5625 C-8.81944092 15.02446777 -9.63888184 15.48643555 -10.4831543 15.96240234 C-12.96966443 17.34766482 -15.47868475 18.67935927 -18 20 C-18.68787598 20.37012207 -19.37575195 20.74024414 -20.08447266 21.12158203 C-65.6661575 45.58593824 -115.57912635 55.67053719 -166.625 60.75 C-168.53599487 60.94178833 -168.53599487 60.94178833 -170.4855957 61.13745117 C-177.69410691 61.81730081 -184.75983514 62.122923 -192 62 C-191.67 58.7 -191.34 55.4 -191 52 C-190.11666992 51.93006836 -189.23333984 51.86013672 -188.32324219 51.78808594 C-140.29078552 47.92511877 -7.95145798 0 0 0 Z " fill="#2A4C64" transform="translate(484,294)"/>
<path d="M0 0 C0.33 0 0.66 0 1 0 C0.98316162 1.15000488 0.96632324 2.30000977 0.94897461 3.48486328 C0.89818782 7.76811818 0.90674292 12.04958835 0.93286133 16.33300781 C0.935936 18.183637 0.9231001 20.03436586 0.89379883 21.88476562 C0.28413829 32.28163114 0.28413829 32.28163114 3.94946289 41.53271484 C6.28573293 43.11690938 8.32589728 44.12238103 11 45 C12.175625 45.45375 13.35125 45.9075 14.5625 46.375 C23.5261108 48.00474742 30.79466358 46.68284631 38.59179688 41.9921875 C40.71956203 40.44468254 41.81347288 39.5569057 42.65525818 37.04362488 C42.90615668 34.66576012 42.94354008 32.37120912 42.90234375 29.98046875 C42.91463516 29.12189774 42.92692657 28.26332672 42.93959045 27.3787384 C42.9712811 24.64745207 42.95505657 21.91886982 42.9375 19.1875 C42.95061134 17.33135516 42.96685237 15.4752296 42.98632812 13.61914062 C43.02714861 9.07885128 43.02501502 4.54038466 43 0 C43.33 0 43.66 0 44 0 C44.0994991 5.53176738 44.17176423 11.06300426 44.21972656 16.59545898 C44.2397382 18.47413213 44.26695637 20.3527438 44.30175781 22.23120117 C44.3507397 24.94465373 44.37307329 27.65727696 44.390625 30.37109375 C44.41127014 31.19959335 44.43191528 32.02809296 44.45318604 32.88169861 C44.45624254 40.97659963 41.69372543 48.13373743 36 54 C30.00398838 58.19720814 24.16373372 58.6190881 17 58 C11.71723244 56.6183531 6.69867141 53.82539959 3.83984375 49.0703125 C1.63392439 44.75335203 -0.12903087 40.90278498 -0.11352539 35.98754883 C-0.11344986 35.18694534 -0.11337433 34.38634186 -0.11329651 33.56147766 C-0.10813522 32.70201035 -0.10297394 31.84254303 -0.09765625 30.95703125 C-0.0962413 30.0734343 -0.09482635 29.18983734 -0.09336853 28.27946472 C-0.08777069 25.45710872 -0.07521861 22.63483203 -0.0625 19.8125 C-0.05748472 17.89908969 -0.05292186 15.98567813 -0.04882812 14.07226562 C-0.03780197 9.38147986 -0.02053883 4.69075337 0 0 Z " fill="#E9C356" transform="translate(234,313)"/>
<path d="M0 0 C5.61 0 11.22 0 17 0 C17 3.3 17 6.6 17 10 C11.39 10 5.78 10 0 10 C0 6.7 0 3.4 0 0 Z " fill="#D36C40" transform="translate(316,100)"/>
<path d="M0 0 C5.61 0 11.22 0 17 0 C17 3.3 17 6.6 17 10 C11.39 10 5.78 10 0 10 C0 6.7 0 3.4 0 0 Z " fill="#D36C40" transform="translate(179,100)"/>
</svg>
