<?xml version="1.0" encoding="UTF-8"?>
<svg version="1.1" xmlns="http://www.w3.org/2000/svg" width="512" height="512">
<path d="M0 0 C8.1839844 5.71231126 13.35876286 13.87896236 15.578125 23.5625 C16.67928103 36.79067308 14.85643338 47.08526595 6.578125 57.5625 C5.77375 58.305 4.969375 59.0475 4.140625 59.8125 C3.625 60.39 3.109375 60.9675 2.578125 61.5625 C2.9999882 65.72966288 4.63776358 69.14044285 6.4296875 72.890625 C6.86545609 73.81007904 6.86545609 73.81007904 7.31002808 74.74810791 C7.93947889 76.07527798 8.57133143 77.40131106 9.20532227 78.72631836 C10.92769318 82.32740948 12.6311775 85.93742193 14.3359375 89.546875 C14.68920105 90.29388672 15.0424646 91.04089844 15.40643311 91.81054688 C18.41018116 98.17509003 21.3371909 104.5724035 24.23266602 110.98681641 C25.46167272 113.70913409 26.70489595 116.42421707 27.96069336 119.13427734 C30.89467958 125.4876029 33.72973847 131.83932231 36.25985718 138.36602783 C37.43046677 141.35969825 38.66088625 144.32689672 39.89892578 147.29321289 C40.46774391 148.70051702 41.00846271 150.11957437 41.51757812 151.54956055 C41.88012695 152.56433472 41.88012695 152.56433472 42.25 153.59960938 C42.45101318 154.19092651 42.65202637 154.78224365 42.85913086 155.39147949 C45.56717289 160.95186862 45.56717289 160.95186862 50.47946358 164.2913723 C52.81756873 164.75895116 55.11934442 165.04462557 57.49243164 165.27709961 C58.37193104 165.3855486 59.25143044 165.49399759 60.15758133 165.60573292 C62.02233769 165.8328896 63.88858139 166.04811341 65.75600624 166.25217438 C68.48112221 166.55183339 71.19939847 166.88588922 73.91874695 167.23370361 C79.49413349 167.94261879 85.07465992 168.60373113 90.65625 169.26171875 C92.69035958 169.50378822 94.72443694 169.74612856 96.75848389 169.98872375 C102.03838045 170.61772328 107.31869801 171.24311393 112.59912109 171.86767578 C118.01686785 172.50915404 123.43419546 173.15415239 128.8515625 173.79882812 C139.4266829 175.05677252 150.00225277 176.31089332 160.578125 177.5625 C160.90353271 176.88413086 161.22894043 176.20576172 161.56420898 175.50683594 C162.00063721 174.61254883 162.43706543 173.71826172 162.88671875 172.796875 C163.52951782 171.46994629 163.52951782 171.46994629 164.18530273 170.11621094 C168.88523389 161.49898396 177.38727287 157.05512732 186.4375 153.91796875 C196.34263493 152.27313795 207.77184524 152.40827679 216.578125 157.5625 C225.84235241 164.46734863 232.53173375 172.00826018 234.578125 183.5625 C235.67305433 195.0726108 233.90800237 205.34779702 226.578125 214.5625 C221.14127337 221.04882433 214.07204192 226.06889827 205.578125 227.5625 C196.09466298 228.17530846 187.84779332 228.02721375 178.8984375 224.4375 C176.52358714 223.38607544 176.52358714 223.38607544 173.578125 223.5625 C171.33529361 225.21130726 171.33529361 225.21130726 169.015625 227.4375 C168.13003906 228.25734375 167.24445313 229.0771875 166.33203125 229.921875 C162.81003802 233.29899191 159.37402475 236.75512486 155.9453125 240.2265625 C153.27884457 242.85782953 150.48649453 245.28599057 147.640625 247.71875 C145.18887811 249.91046313 142.88926927 252.22317104 140.578125 254.5625 C137.05706177 258.12650302 133.44626492 261.46554168 129.640625 264.71875 C127.18887811 266.91046313 124.88926927 269.22317104 122.578125 271.5625 C119.68220542 274.49368191 116.77569929 277.32653174 113.640625 280 C109.24070901 283.75602585 105.23131453 287.87826701 101.19140625 292.01171875 C98.76151224 294.3834987 96.24256924 296.46373863 93.578125 298.5625 C95.94578281 313.56886538 98.64966758 328.50279462 101.46875 343.4296875 C101.64375534 344.35637489 101.81876068 345.28306229 101.99906921 346.23783112 C103.08652762 351.99129606 104.17753417 357.7440844 105.26977539 363.49664307 C106.74900551 371.28782639 108.22567267 379.07949154 109.69896698 386.87179947 C110.21148352 389.57880741 110.72629533 392.28537199 111.24127197 394.99191284 C111.55189512 396.63244834 111.86242685 398.27300116 112.17285156 399.91357422 C112.3161792 400.66349136 112.45950684 401.41340851 112.60717773 402.18605042 C113.578125 407.33497754 113.578125 407.33497754 113.578125 409.5625 C114.38894531 409.63726562 115.19976562 409.71203125 116.03515625 409.7890625 C127.07217595 411.09962829 135.98907066 414.48243208 143.078125 423.34375 C150.06011169 433.67127198 151.65486343 443.32136761 150.578125 455.5625 C148.46617554 465.91868589 142.80596314 473.69341358 134.078125 479.5 C125.01438355 485.13818034 114.95838353 485.72720926 104.578125 484.5625 C95.05805365 482.24971431 87.40187314 476.98153231 81.76171875 468.98828125 C76.6898083 460.42103011 75.18438337 452.57526876 76.04296875 442.7109375 C76.18980103 440.977229 76.18980103 440.977229 76.33959961 439.20849609 C76.41831299 438.33531738 76.49702637 437.46213867 76.578125 436.5625 C63.02644427 428.75707853 49.3389754 421.26441006 35.50772095 413.97070312 C26.6851851 409.31511302 17.9296727 404.57185101 9.265625 399.625 C2.17239728 395.58661162 -4.92833829 391.56822748 -12.109375 387.6875 C-13.28657104 387.03406616 -13.28657104 387.03406616 -14.48754883 386.36743164 C-15.21224365 385.98063232 -15.93693848 385.59383301 -16.68359375 385.1953125 C-17.62658325 384.68315186 -17.62658325 384.68315186 -18.58862305 384.16064453 C-21.69268755 383.14786546 -23.77047929 384.2613425 -26.63818359 385.5871582 C-27.44078613 386.00827881 -28.24338867 386.42939941 -29.0703125 386.86328125 C-29.98143799 387.33942871 -30.89256348 387.81557617 -31.83129883 388.30615234 C-32.80993896 388.82387207 -33.7885791 389.3415918 -34.796875 389.875 C-35.82127686 390.41334473 -36.84567871 390.95168945 -37.90112305 391.50634766 C-46.54656221 396.06496052 -55.1295553 400.7345414 -63.69921875 405.43359375 C-69.88138789 408.82083335 -76.08787833 412.16225559 -82.296875 415.5 C-94.68597594 422.16154643 -107.05716006 428.85581388 -119.421875 435.5625 C-119.37546875 436.87863281 -119.3290625 438.19476563 -119.28125 439.55078125 C-118.95016293 452.77789843 -119.60314983 463.02429666 -128.44140625 473.55859375 C-136.5164184 481.72916817 -145.48641599 484.8235825 -156.796875 485 C-168.13582476 484.9100279 -177.25313292 481.66754818 -185.421875 473.5625 C-192.63757005 464.64156411 -196.2470625 455.1362837 -195.421875 443.5625 C-194.0398432 433.57338404 -189.87750789 425.40979852 -182.421875 418.5625 C-174.43585224 412.84192585 -167.10287522 410.42206863 -157.421875 409.5625 C-157.32544708 408.86982529 -157.22901917 408.17715057 -157.12966919 407.46348572 C-155.7015363 397.68718935 -153.80551884 388.02111312 -151.87688828 378.33337593 C-151.27722935 375.31943167 -150.68155197 372.30472435 -150.08694458 369.28977966 C-148.39781617 360.72794244 -146.7028446 352.1672711 -145.00244141 343.60766602 C-143.95790264 338.34815677 -142.91888264 333.08758182 -141.88327408 327.8263073 C-141.48909229 325.82963099 -141.09277899 323.83337422 -140.69427109 321.83755684 C-140.13849727 319.05358795 -139.58972763 316.26832162 -139.04248047 313.48266602 C-138.79472366 312.25525696 -138.79472366 312.25525696 -138.54196167 311.00305176 C-137.72561455 306.8073474 -137.09942168 302.85960961 -137.421875 298.5625 C-138.83884338 296.38469588 -138.83884338 296.38469588 -140.921875 294.625 C-142.02015625 293.60599609 -142.02015625 293.60599609 -143.140625 292.56640625 C-143.8934375 291.90511719 -144.64625 291.24382812 -145.421875 290.5625 C-146.0921875 289.97339844 -146.7625 289.38429688 -147.453125 288.77734375 C-148.77220023 287.62838735 -150.09516967 286.48388739 -151.421875 285.34375 C-154.21073033 282.85992572 -156.79874483 280.19538563 -159.41796875 277.53515625 C-162.00433651 274.98912171 -164.7372278 272.64228443 -167.48828125 270.27734375 C-169.98619056 268.0620262 -172.30212489 265.6935183 -174.640625 263.3125 C-176.50577174 261.48007513 -178.44115246 259.76896865 -180.421875 258.0625 C-183.02835109 255.8169206 -185.51122021 253.51698488 -187.921875 251.0625 C-190.31240667 248.62860268 -192.77233762 246.34894441 -195.359375 244.125 C-198.88122099 241.0917338 -202.13912367 237.86553199 -205.3984375 234.5546875 C-208.0807045 231.91384548 -210.89994888 229.45578333 -213.7578125 227.0078125 C-215.02353964 225.90847202 -216.2364184 224.7479566 -217.421875 223.5625 C-220.58289296 223.84141335 -222.99589277 224.80850762 -225.921875 226.0625 C-236.09582615 229.95931525 -247.59978486 229.31551728 -257.484375 224.9375 C-268.00021839 219.11660891 -273.6585392 210.85250741 -277.421875 199.5625 C-278.2283915 186.43346907 -277.66593093 175.98512935 -269.109375 165.375 C-261.89739848 157.628803 -253.40640633 153.50053008 -242.85473633 153.08959961 C-230.31876432 152.94627971 -220.67426194 155.71967546 -211.421875 164.5625 C-207.52766831 168.85660077 -205.68505948 172.93558731 -204.421875 178.5625 C-203.51773818 178.36823 -203.51773818 178.36823 -202.59533596 178.17003536 C-196.46715843 176.89327352 -190.37294185 175.97886918 -184.15454102 175.28149414 C-182.69654335 175.11272011 -182.69654335 175.11272011 -181.20909119 174.9405365 C-179.11848065 174.69880314 -177.02766932 174.45880112 -174.93667793 174.2203846 C-171.62855281 173.84225793 -168.32126505 173.45747591 -165.0141449 173.07066345 C-155.61843184 171.97214854 -146.22206026 170.87969652 -136.82348633 169.8059082 C-131.05943005 169.14688308 -125.29695866 168.4752807 -119.53532219 167.79543877 C-117.34177454 167.53910723 -115.14766037 167.28757695 -112.95300484 167.04091072 C-109.89496437 166.69678462 -106.83919726 166.33672634 -103.78344727 165.97290039 C-102.87486969 165.87461945 -101.96629211 165.7763385 -101.03018188 165.67507935 C-99.78355019 165.52177406 -99.78355019 165.52177406 -98.51173401 165.3653717 C-97.42921278 165.24067804 -97.42921278 165.24067804 -96.32482243 165.11346531 C-93.93333995 164.42105318 -92.98747442 163.47791646 -91.421875 161.5625 C-90.12412805 159.10783979 -88.9181679 156.66887991 -87.75390625 154.15234375 C-87.40209793 153.40555862 -87.05028961 152.6587735 -86.68782043 151.88935852 C-85.53054351 149.42906413 -84.38245553 146.96459752 -83.234375 144.5 C-82.42751992 142.77999216 -81.62005793 141.06026889 -80.81201172 139.34082031 C-79.15314943 135.80864722 -77.49780145 132.27485956 -75.84521484 128.73974609 C-73.26503418 123.22279527 -70.66630706 117.71470504 -68.06455994 112.207901 C-65.43573364 106.64194457 -62.82279938 101.06865477 -60.21351624 95.49351501 C-58.36528711 91.55154191 -56.49378364 87.62174689 -54.60110474 83.70092773 C-53.71104085 81.85354791 -52.82764986 80.00314486 -51.94677734 78.15136719 C-50.87624292 75.90384685 -49.7939028 73.66189745 -48.69775391 71.42675781 C-48.23288574 70.44288086 -47.76801758 69.45900391 -47.2890625 68.4453125 C-46.67200439 67.16744873 -46.67200439 67.16744873 -46.04248047 65.86376953 C-45.18492021 63.55901941 -45.18492021 63.55901941 -46.21972656 61.35986328 C-47.45648876 59.51074806 -48.77648455 57.93530017 -50.296875 56.3125 C-57.54225222 47.91846542 -59.71240372 38.455197 -59.3046875 27.37890625 C-57.95697576 16.80349472 -53.26352527 8.00443029 -44.9453125 1.2890625 C-31.25054742 -8.08103992 -14.24557922 -8.45544057 0 0 Z " fill="#FAA514" transform="translate(277.421875,16.4375)"/>
<path d="M0 0 C20.74884085 15.22900191 32.8502089 35.42386318 37.96875 60.40234375 C40.9304611 82.86664307 35.70900051 105.49128507 22.61328125 124.05078125 C7.5099946 143.67582582 -12.54681414 157.43422514 -37.4296875 161.10546875 C-63.49141077 164.15303362 -87.84093456 157.38161169 -108.4296875 141.16796875 C-125.58612184 126.42651637 -137.49787098 106.29798853 -139.6171875 83.54296875 C-141.39664575 58.04704532 -135.60279136 35.16092557 -118.6171875 15.54296875 C-88.66121606 -18.50432061 -37.74585151 -26.33243075 0 0 Z " fill="#FAD107" transform="translate(306.6171875,200.45703125)"/>
<path d="M0 0 C3.41714751 0.69737704 4.64088509 1.71530883 6.79125977 4.40039062 C8.44279387 7.29049601 9.20177651 10.17307272 10.09375 13.37890625 C13.53711554 25.64894559 13.53711554 25.64894559 21.0625 35.625 C30.2138367 40.29889404 42.23045634 40.19590529 52.3004303 40.14978027 C55.7707211 40.18638571 57.71540344 40.37306852 60.56201172 42.43920898 C62.0625 44.625 62.0625 44.625 62.09765625 48.0625 C60.91132031 52.14528634 59.59206088 53.75481219 56.5 56.625 C55.59378906 57.47707031 54.68757813 58.32914062 53.75390625 59.20703125 C52.86574219 60.00496094 51.97757812 60.80289063 51.0625 61.625 C50.34964844 62.26824219 49.63679688 62.91148437 48.90234375 63.57421875 C46.24623581 65.9240558 43.60935772 68.2215652 40.75390625 70.328125 C40.01011719 70.90046875 39.26632812 71.4728125 38.5 72.0625 C37.47712891 72.80306641 37.47712891 72.80306641 36.43359375 73.55859375 C34.6474871 76.25047528 35.01594846 78.07773452 35.55834961 81.17895508 C35.80790405 82.38974731 35.80790405 82.38974731 36.0625 83.625 C36.2488501 84.57979248 36.4352002 85.53458496 36.62719727 86.51831055 C37.49739071 90.88622737 38.41224773 95.24426197 39.33398438 99.6015625 C39.55505859 100.6740625 39.77613281 101.7465625 40.00390625 102.8515625 C40.30856812 104.29909912 40.30856812 104.29909912 40.61938477 105.77587891 C41.82283191 113.51374567 41.82283191 113.51374567 39.4375 117 C36.21235261 119.20667979 34.96877149 119.13565225 31.0625 118.625 C27.46866577 116.9899194 24.12733601 114.97633059 20.75 112.9375 C18.05262291 111.3461442 15.3545329 109.75607952 12.65380859 108.17041016 C10.95258676 107.15583185 9.26703533 106.11440727 7.60009766 105.04443359 C6.83101074 104.5695752 6.06192383 104.0947168 5.26953125 103.60546875 C4.60026611 103.17516357 3.93100098 102.7448584 3.24145508 102.30151367 C-0.93415478 101.00508623 -4.33246379 103.30994191 -8.01782227 105.22900391 C-9.08572998 105.84694824 -10.1536377 106.46489258 -11.25390625 107.1015625 C-12.44188836 107.7789422 -13.63004462 108.45601653 -14.81835938 109.1328125 C-16.66608298 110.19315529 -18.51172969 111.2568077 -20.35424805 112.32617188 C-22.14891211 113.36489951 -23.95074375 114.39017849 -25.75390625 115.4140625 C-27.35407593 116.33759521 -27.35407593 116.33759521 -28.98657227 117.27978516 C-31.99281236 118.65021478 -33.68918568 119.06576489 -36.9375 118.625 C-39.25 116.93359375 -39.25 116.93359375 -40.9375 114.625 C-41.25 112.34765625 -41.25 112.34765625 -40.9375 109.6875 C-40.81503906 108.64464844 -40.69257813 107.60179687 -40.56640625 106.52734375 C-39.62119258 100.6623223 -38.51000169 94.83025257 -37.31054688 89.01196289 C-35.83236176 82.35914157 -35.83236176 82.35914157 -35.9375 75.625 C-37.81259605 72.98567303 -37.81259605 72.98567303 -40.4375 70.6875 C-41.35144531 69.82640625 -42.26539063 68.9653125 -43.20703125 68.078125 C-46.13248487 65.44982046 -49.07681624 62.8472042 -52.046875 60.26953125 C-52.67078125 59.72683594 -53.2946875 59.18414062 -53.9375 58.625 C-54.93523437 57.76455078 -54.93523437 57.76455078 -55.953125 56.88671875 C-59.16618866 53.9414104 -60.76256011 52.1682344 -62.125 47.9375 C-61.9375 44.625 -61.9375 44.625 -60.22265625 42.484375 C-57.67698148 40.41302254 -56.40474413 39.98659127 -53.1875 39.5625 C-52.13691406 39.37945312 -51.08632812 39.19640625 -50.00390625 39.0078125 C-46.72777387 38.58119293 -43.63384853 38.7311808 -40.33984375 38.9296875 C-33.74576272 39.06942822 -27.72826966 39.09926372 -21.9375 35.625 C-15.88781512 28.07089613 -12.29654739 18.78497779 -9.06495667 9.7276001 C-7.23726368 4.73400602 -5.42579449 1.15442436 0 0 Z " fill="#FAA514" transform="translate(255.9375,206.375)"/>
</svg>
