<?xml version="1.0" encoding="UTF-8"?>
<svg version="1.1" xmlns="http://www.w3.org/2000/svg" width="512" height="512">
<path d="M0 0 C1.25646579 -0.00442713 1.25646579 -0.00442713 2.53831473 -0.00894371 C5.3757942 -0.01768084 8.21323313 -0.01921952 11.05072498 -0.02082157 C13.09336422 -0.02554939 15.13600251 -0.03069987 17.17863971 -0.03623921 C22.81578518 -0.05018451 28.45292417 -0.05773995 34.09008253 -0.0642122 C38.91920602 -0.07057176 43.7483188 -0.08064344 48.57743564 -0.09077286 C64.49060476 -0.12413766 80.40377953 -0.14566554 96.31697127 -0.16397271 C100.45855676 -0.16873931 104.60014194 -0.17374818 108.74172711 -0.17877793 C134.44112194 -0.2098225 160.14051934 -0.23644541 185.83992767 -0.25319672 C191.79583904 -0.25713408 197.75175035 -0.26114589 203.70766163 -0.2652216 C204.44762252 -0.26572326 205.18758341 -0.26622493 205.94996736 -0.2667418 C229.94462097 -0.28316218 253.93917266 -0.32162122 277.93377612 -0.3725087 C302.59355891 -0.42471169 327.25328742 -0.45750857 351.91312659 -0.46477425 C355.39498535 -0.46580287 358.87684401 -0.4670392 362.35870266 -0.46839428 C363.04398034 -0.46865232 363.72925801 -0.46891035 364.43530168 -0.46917621 C375.47099005 -0.47387421 386.50654424 -0.49882157 397.54218235 -0.53114571 C408.63213605 -0.56315563 419.72197188 -0.5726667 430.81197491 -0.56071376 C436.82198328 -0.55487172 442.83157021 -0.55885983 448.84151554 -0.5888834 C454.34087804 -0.61613276 459.8395174 -0.61583243 465.33889518 -0.59337295 C467.33088202 -0.59013547 469.3229163 -0.59710251 471.31482383 -0.61517017 C474.01919425 -0.63821783 476.72096491 -0.62439021 479.42527771 -0.60127258 C480.20207226 -0.61674882 480.97886681 -0.63222505 481.77920058 -0.64817026 C487.12046909 -0.5471105 489.82369926 1.01261189 493.70074825 4.6580488 C496.16287707 7.40836866 496.15551663 9.39754471 496.16704941 12.98909187 C496.17274065 14.01984217 496.17843189 15.05059246 496.18429559 16.11257762 C496.18547547 17.25369779 496.18665535 18.39481797 496.18787098 19.57051754 C496.1929588 20.77601893 496.19804662 21.98152032 496.20328861 23.22355205 C496.21631381 26.58039459 496.22478516 29.93719264 496.23126161 33.29405057 C496.23762584 36.17069669 496.24769691 39.0473249 496.25782227 41.92395987 C496.29117174 51.40302275 496.3126727 60.88209653 496.33102211 70.36119887 C496.33581593 72.82897477 496.3407994 75.29675022 496.34582734 77.76452565 C496.37679796 93.08374435 496.40348808 108.40296679 496.42024612 123.72220802 C496.42419574 127.27180837 496.42819871 130.82140866 496.432271 134.37100887 C496.43327936 135.25326367 496.43428773 136.13551847 496.43532664 137.04450826 C496.45233435 151.33722802 496.49344341 165.62977467 496.54429399 179.92240991 C496.59605417 194.5911975 496.6251863 209.25989603 496.63244301 223.92877418 C496.63710738 232.16691894 496.65188045 240.40478025 496.69218731 248.64283466 C496.7264729 255.65883586 496.74043277 262.67450248 496.72776317 269.69058266 C496.72193258 273.27038115 496.72582643 276.84947195 496.75593281 280.42916393 C496.78831477 284.31111948 496.77415829 288.192116 496.75549793 292.07417965 C496.78069033 293.7691295 496.78069033 293.7691295 496.80639166 295.49832076 C496.73063617 301.79242312 496.02297457 305.4034757 491.50945145 309.93508369 C487.99349352 312.79281618 484.37268928 312.28460956 480.05448341 312.2796154 C478.79801762 312.28404254 478.79801762 312.28404254 477.51616868 312.28855911 C474.67868921 312.29729625 471.84125029 312.29883492 469.00375843 312.30043697 C466.96111919 312.30516479 464.9184809 312.31031527 462.8758437 312.31585461 C457.23869823 312.32979991 451.60155924 312.33735535 445.96440089 312.34382761 C441.1352774 312.35018717 436.30616461 312.36025884 431.47704778 312.37038826 C415.56387865 312.40375306 399.65070388 312.42528094 383.73751214 312.44358811 C379.59592665 312.44835471 375.45434148 312.45336358 371.3127563 312.45839334 C345.61336148 312.4894379 319.91396408 312.51606082 294.21455574 312.53281212 C288.25864437 312.53674948 282.30273306 312.54076129 276.34682178 312.544837 C275.23688045 312.5455895 275.23688045 312.5455895 274.10451606 312.5463572 C250.10986244 312.56277758 226.11531075 312.60123663 202.12070729 312.6521241 C177.4609245 312.70432709 152.801196 312.73712397 128.14135683 312.74438965 C124.65949806 312.74541828 121.1776394 312.7466546 117.69578075 312.74800968 C117.01050308 312.74826772 116.3252254 312.74852576 115.61918173 312.74879161 C104.58349337 312.75348961 93.54793918 312.77843697 82.51230106 312.81076111 C71.42234737 312.84277104 60.33251153 312.8522821 49.24250851 312.84032916 C43.23250013 312.83448713 37.2229132 312.83847523 31.21296787 312.8684988 C25.71360538 312.89574816 20.21496601 312.89544783 14.71558823 312.87298835 C12.7236014 312.86975087 10.73156711 312.87671791 8.73965959 312.89478558 C6.03528917 312.91783323 3.3335185 312.90400561 0.6292057 312.88088799 C-0.14758884 312.89636422 -0.92438339 312.91184045 -1.72471717 312.92778566 C-7.06598568 312.8267259 -9.76921584 311.26700351 -13.64626484 307.6215666 C-16.10839366 304.87124674 -16.10103322 302.88207069 -16.11256599 299.29052353 C-16.11825724 298.25977323 -16.12394848 297.22902294 -16.12981218 296.16703779 C-16.13099206 295.02591761 -16.13217193 293.88479744 -16.13338757 292.70909786 C-16.13847539 291.50359647 -16.14356321 290.29809509 -16.1488052 289.05606335 C-16.16183039 285.69922081 -16.17030175 282.34242276 -16.1767782 278.98556483 C-16.18314243 276.10891871 -16.19321349 273.2322905 -16.20333885 270.35565553 C-16.23668833 260.87659265 -16.25818928 251.39751887 -16.2765387 241.91841653 C-16.28133252 239.45064063 -16.28631598 236.98286518 -16.29134393 234.51508975 C-16.32231455 219.19587106 -16.34900466 203.87664861 -16.36576271 188.55740738 C-16.36971232 185.00780703 -16.3737153 181.45820674 -16.37778759 177.90860653 C-16.37879595 177.02635173 -16.37980431 176.14409694 -16.38084323 175.23510715 C-16.39785093 160.94238738 -16.43896 146.64984073 -16.48981058 132.35720549 C-16.54157075 117.6884179 -16.57070289 103.01971937 -16.5779596 88.35084122 C-16.58262397 80.11269646 -16.59739703 71.87483515 -16.6377039 63.63678074 C-16.67198948 56.62077954 -16.68594936 49.60511292 -16.67327975 42.58903275 C-16.66744916 39.00923425 -16.67134302 35.43014345 -16.70144939 31.85045147 C-16.73383136 27.96849592 -16.71967488 24.0874994 -16.70101452 20.20543575 C-16.71780945 19.07546919 -16.73460438 17.94550262 -16.75190824 16.78129464 C-16.67615276 10.48719229 -15.96849116 6.87613971 -11.45496804 2.34453171 C-7.93901011 -0.51320078 -4.31820587 -0.00499416 0 0 Z " fill="#F5B762" transform="translate(15.972758293151855,99.86019229888916)"/>
<path d="M0 0 C0.66 0.66 1.32 1.32 2 2 C-1.82077438 5.91222909 -5.65001459 9.76189133 -9.8125 13.3125 C-13.20195627 16.2225047 -16.36451107 19.32160325 -19.5 22.5 C-22.55336953 25.59492611 -25.62323755 28.61934337 -28.9375 31.4375 C-32.99654291 34.896438 -36.71728898 38.65835029 -40.43725586 42.47436523 C-43.79001735 45.88633665 -47.30342911 49.04497961 -50.92041016 52.17431641 C-54.42848417 55.25407427 -57.80160378 58.47475515 -61.1875 61.6875 C-67.8943099 68.02544999 -74.64168567 74.31512574 -81.43505859 80.56005859 C-83.59874356 82.55091881 -85.75787409 84.54668998 -87.91723633 86.54223633 C-94.09947126 92.25477186 -100.29890469 97.94827137 -106.50732422 103.63232422 C-108.02814876 105.02579152 -109.54747324 106.42087751 -111.06640625 107.81640625 C-116.49654917 112.80376638 -121.95018716 117.76298848 -127.4375 122.6875 C-130.30600772 125.27615331 -133.15439354 127.88625443 -136 130.5 C-137.01033508 131.42587029 -138.02075111 132.35165225 -139.03125 133.27734375 C-140.97326063 135.0564638 -142.90975112 136.84101992 -144.84375 138.62890625 C-145.7203125 139.43199219 -146.596875 140.23507813 -147.5 141.0625 C-148.2734375 141.77535156 -149.046875 142.48820313 -149.84375 143.22265625 C-151.84816479 144.87484598 -153.67224695 145.89066114 -156 147 C-149.39370498 154.9895319 -141.95112072 162.18228653 -134.61938477 169.49414062 C-133.16002777 170.95321522 -131.70089159 172.4125107 -130.24195862 173.87200928 C-126.29845346 177.81580033 -122.35188149 181.75650925 -118.40473676 185.69665718 C-114.2736385 189.8214872 -110.14538825 193.94916561 -106.01683044 198.07653809 C-98.20630619 205.88395924 -90.3932372 213.68882863 -82.57924265 221.49277639 C-73.68005064 230.38077551 -64.78371155 239.2716279 -55.88760674 248.16271687 C-37.59490252 266.44497983 -19.29863223 284.7236705 -1 303 C-1.33 303.66 -1.66 304.32 -2 305 C-2.70125 304.35933594 -3.4025 303.71867187 -4.125 303.05859375 C-10.51642221 297.2278172 -10.51642221 297.2278172 -17 291.5 C-20.20899244 288.71185902 -23.35916444 285.86471815 -26.5 283 C-30.28934126 279.54424587 -34.11083698 276.1347711 -37.98046875 272.76953125 C-42.89736556 268.46130252 -47.72639032 264.05313844 -52.578125 259.671875 C-57.00121401 255.68295423 -61.44615005 251.72432093 -65.9375 247.8125 C-69.17375077 244.96852205 -72.36408668 242.07387299 -75.5625 239.1875 C-77.69417481 237.27445851 -79.8401911 235.38112388 -82 233.5 C-85.89651647 230.10625985 -89.73064945 226.64569997 -93.56640625 223.18359375 C-95.67511146 221.29151315 -97.79919801 219.42094242 -99.9375 217.5625 C-104.13164365 213.91062947 -108.23094292 210.15733816 -112.33984375 206.41015625 C-115.19027034 203.82761116 -118.07825892 201.29344897 -120.98046875 198.76953125 C-125.89736556 194.46130252 -130.72639032 190.05313844 -135.578125 185.671875 C-139.99711954 181.6866468 -144.43683013 177.73042571 -148.92578125 173.82421875 C-152.18551949 170.95736798 -155.39410784 168.03411516 -158.60546875 165.11328125 C-161.00988609 162.99127508 -163.48011097 160.98279012 -166 159 C-170.14689401 160.66077066 -173.06717746 163.65980197 -176.25 166.6875 C-177.41855062 167.7833206 -178.58781826 168.87837712 -179.7578125 169.97265625 C-180.31887695 170.49875488 -180.87994141 171.02485352 -181.45800781 171.56689453 C-183.91210541 173.84769771 -186.44303083 176.03511105 -188.9765625 178.2265625 C-191.51501171 180.45138092 -194.00641776 182.72503319 -196.5 185 C-200.29009082 188.45643771 -204.11056033 191.86843854 -207.984375 195.23046875 C-210.28607764 197.25114956 -212.54764379 199.31312618 -214.8125 201.375 C-218.18940982 204.42858867 -221.63217132 207.34429205 -225.1875 210.1875 C-230.6301636 214.58200442 -235.71534914 219.31109408 -240.78588867 224.12768555 C-244.08072802 227.25033758 -247.39787579 230.22650132 -251 233 C-254.50827915 231.47920927 -256.95271646 229.4004327 -259.75 226.8125 C-260.63171875 226.00425781 -261.5134375 225.19601562 -262.421875 224.36328125 C-263.27265625 223.58339844 -264.1234375 222.80351562 -265 222 C-266.32899114 220.82838939 -267.6619604 219.66126608 -269 218.5 C-272.89512811 215.10746907 -276.72782763 211.64805799 -280.5625 208.1875 C-282.69417481 206.27445851 -284.8401911 204.38112388 -287 202.5 C-290.89651647 199.10625985 -294.73064945 195.64569997 -298.56640625 192.18359375 C-300.67511146 190.29151315 -302.79919801 188.42094242 -304.9375 186.5625 C-308.16559512 183.75177475 -311.33738443 180.884201 -314.5 178 C-318.9513891 173.94156111 -323.45147405 169.94882172 -328 166 C-329.50047985 164.6880486 -331.00048814 163.37555767 -332.5 162.0625 C-333.50546875 161.18271484 -333.50546875 161.18271484 -334.53125 160.28515625 C-335.0159375 159.86105469 -335.500625 159.43695313 -336 159 C-339.73922129 160.5813062 -342.29649737 162.93230398 -345.25 165.6875 C-348.48815511 168.68479616 -351.72928552 171.67054609 -355.0625 174.5625 C-359.76168184 178.64916119 -364.37814829 182.82632785 -369 187 C-374.27985576 191.76786975 -379.57291806 196.51512218 -384.9375 201.1875 C-387.30964429 203.27211164 -389.65556065 205.38428644 -392 207.5 C-395.61676345 210.76390848 -399.26389608 213.98790949 -402.9375 217.1875 C-406.1751333 220.0326929 -409.3668629 222.92853836 -412.56640625 225.81640625 C-414.67511146 227.70848685 -416.79919801 229.57905758 -418.9375 231.4375 C-422.16559512 234.24822525 -425.33738443 237.115799 -428.5 240 C-432.28662998 243.45328153 -436.1047632 246.86099051 -439.97265625 250.22265625 C-442.33489173 252.29359487 -444.66795853 254.39512848 -447 256.5 C-449.98062721 259.18983431 -452.97245233 261.86310364 -456 264.5 C-460.71701284 268.61081039 -465.35638889 272.80667845 -470 277 C-475.27438344 281.76292807 -480.56004364 286.50751764 -485.921875 291.171875 C-489.21714019 294.07071731 -492.45849702 297.02907691 -495.703125 299.984375 C-497.73812959 301.77019535 -499.80900749 303.41203295 -502 305 C-502.66 304.67 -503.32 304.34 -504 304 C-502.80175724 302.80452262 -502.80175724 302.80452262 -501.57930756 301.58489418 C-482.17088886 282.22081172 -462.76819056 262.85101215 -443.37152863 243.47515297 C-433.99144181 234.10539277 -424.60948329 224.73752097 -415.22314453 215.37402344 C-407.04506955 207.21584001 -398.87047846 199.05418481 -390.70010805 190.88828504 C-386.37109367 186.56188523 -382.04031689 182.23728244 -377.70536804 177.91682816 C-373.63001412 173.85499132 -369.55931458 169.78854918 -365.49222374 165.7184391 C-363.99430029 164.22106846 -362.49464636 162.72542674 -360.99318886 161.23159981 C-358.95230998 159.20059029 -356.9176009 157.16359921 -354.88439941 155.12490845 C-354.28130243 154.52763714 -353.67820544 153.93036584 -353.05683279 153.31499541 C-350.00382961 150.65611657 -350.00382961 150.65611657 -349 147 C-350.37957416 145.56532984 -350.37957416 145.56532984 -352.25 144.0625 C-355.90973565 140.95432026 -359.47340004 137.7576267 -363 134.5 C-366.23464316 131.51947528 -369.47826364 128.55683194 -372.8125 125.6875 C-377.50039834 121.62858592 -381.9887823 117.35512404 -386.51098633 113.11401367 C-389.63263641 110.19167583 -392.75678692 107.28802528 -396 104.5 C-400.53040743 100.59991012 -404.86181845 96.48694482 -409.22387695 92.40112305 C-415.1092901 86.88961876 -421.0461717 81.43750715 -427 76 C-434.74962438 68.92242977 -442.45282388 61.79870002 -450.1171875 54.62890625 C-452.74250195 52.17307413 -455.37302856 49.72301303 -458.0078125 47.27734375 C-463.85701778 41.84336428 -469.66336123 36.40129212 -475.26171875 30.70703125 C-477.03030958 28.97023531 -478.86469877 27.35884158 -480.75 25.75 C-484.90363331 22.18507062 -488.7126024 18.31940174 -492.55297852 14.42529297 C-496.08082422 10.86646666 -499.72022006 7.51236343 -503.57421875 4.3046875 C-505 3 -505 3 -506 1 C-500.95361368 1.39468943 -498.14487997 4.1076877 -494.5625 7.375 C-493.31728854 8.47773196 -492.06983185 9.57793302 -490.8203125 10.67578125 C-490.18641602 11.23346191 -489.55251953 11.79114258 -488.89941406 12.36572266 C-485.9912752 14.86791822 -482.97325162 17.21810452 -479.9375 19.5625 C-474.71535681 23.61102946 -469.6363636 27.79406568 -464.61303711 32.08618164 C-461.45242309 34.78306504 -458.2570801 37.42060269 -455 40 C-450.54746299 43.52883403 -446.21314021 47.18229329 -441.88671875 50.86328125 C-438.45428391 53.78004513 -434.99407185 56.65693426 -431.5 59.5 C-425.8225884 64.12421061 -420.23699995 68.8517681 -414.65722656 73.59277344 C-411.94134262 75.8989542 -409.2205156 78.19928668 -406.5 80.5 C-403.22402395 83.27046076 -399.94922865 86.04225845 -396.6796875 88.8203125 C-391.69685653 93.05079624 -386.70297285 97.2585368 -381.625 101.375 C-375.91984597 106.02027055 -370.37621385 110.84156796 -364.828125 115.671875 C-361.21265713 118.81941579 -357.57919443 121.9453653 -353.9375 125.0625 C-353.07741333 125.79883667 -353.07741333 125.79883667 -352.19995117 126.55004883 C-351.04469482 127.53885203 -349.88934024 128.52754049 -348.73388672 129.51611328 C-345.24003337 132.5062063 -341.74913979 135.49975645 -338.25854492 138.49365234 C-335.29536317 141.03470833 -332.32969294 143.57275647 -329.359375 146.10546875 C-324.12223205 150.57540939 -318.90567526 155.0529519 -313.8125 159.6875 C-310.4991692 162.69814479 -307.11058071 165.56565178 -303.625 168.375 C-299.07139288 172.05636689 -294.76417484 175.92774473 -290.48095703 179.91357422 C-286.39490812 183.69353229 -282.12275733 187.19478943 -277.78515625 190.68359375 C-274.2156288 193.65235922 -270.83318326 196.79724517 -267.43652344 199.96020508 C-262.82081222 204.22966219 -257.97440763 208.15914101 -253 212 C-248.30322699 210.55283931 -245.32230007 207.78937308 -241.875 204.4375 C-237.84111376 200.60945346 -233.78152267 196.917762 -229.4375 193.4375 C-225.48505714 190.26522002 -221.70863841 186.95159818 -218 183.5 C-213.41242561 179.23079221 -208.66556996 175.24241261 -203.78125 171.3125 C-200.75980664 168.80028867 -197.87559922 166.17597543 -195 163.5 C-190.38998361 159.2104224 -185.62216764 155.19589103 -180.71484375 151.24609375 C-177.89326505 148.9116941 -175.19409288 146.48009402 -172.5 144 C-168.12829537 139.98025464 -163.62213114 136.20011805 -159.00390625 132.46875 C-153.53858758 127.97709669 -148.23615296 123.29546767 -142.90087891 118.65087891 C-133.87083001 110.80844497 -124.74718257 103.07462025 -115.60888672 95.35888672 C-113.44745393 93.53331238 -111.28773141 91.70572163 -109.12817383 89.87792969 C-108.04094448 88.95780336 -106.95354153 88.03788212 -105.8659668 87.11816406 C-103.20458592 84.86735983 -100.54524762 82.61424128 -97.890625 80.35546875 C-91.0850842 74.57075907 -84.21478036 68.87026361 -77.31103516 63.203125 C-72.88550965 59.56598053 -68.4892194 55.89794325 -64.125 52.1875 C-58.4754859 47.3849791 -52.75215804 42.67886907 -47 38 C-45.16620121 36.50056908 -43.33287057 35.00056542 -41.5 33.5 C-40.12908203 32.37851563 -40.12908203 32.37851563 -38.73046875 31.234375 C-36.96177205 29.78702949 -35.19351457 28.33914699 -33.42578125 26.890625 C-8.86133033 6.76907178 -8.86133033 6.76907178 0 0 Z " fill="#EAA14E" transform="translate(508,104)"/>
</svg>
