<?xml version="1.0" encoding="UTF-8"?>
<svg version="1.1" xmlns="http://www.w3.org/2000/svg" width="512" height="512">
<path d="M0 0 C1.45542961 -0.00203178 1.45542961 -0.00203178 2.94026184 -0.00410461 C6.09903988 0.00087508 9.25567767 0.04501289 12.4140625 0.09375 C14.60196732 0.11262937 16.78987426 0.13126389 18.9777832 0.1496582 C90.37045787 0.97676906 165.02146888 17.28730429 219.0390625 66.59375 C219.85761719 67.34011719 220.67617187 68.08648437 221.51953125 68.85546875 C229.77795899 76.76309602 236.8103126 86.02557707 243.0390625 95.59375 C243.65612061 95.32747803 244.27317871 95.06120605 244.90893555 94.78686523 C277.69255466 80.70817768 310.50837113 71.69241751 346.0390625 67.59375 C346.99828613 67.47660645 347.95750977 67.35946289 348.94580078 67.23876953 C393.05339061 62.03371816 448.07813417 61.52932191 491.0390625 74.59375 C494.38699779 77.52319338 496.3554168 80.13028081 497.0390625 84.53125 C496.90625 86.59375 496.90625 86.59375 496.0390625 88.59375 C493.54766681 90.65305861 490.93625748 92.16037855 488.125 93.75390625 C474.56696628 101.83724028 465.595803 114.75326601 461.42529297 129.80957031 C457.72948419 144.67403201 456.78068892 159.82451242 455.73193359 175.05224609 C450.88226004 245.23757606 429.91722461 300.65362272 376.09375 348.1953125 C373.44567747 350.38016535 370.75600989 352.49535836 368.0390625 354.59375 C366.60433594 355.75390625 366.60433594 355.75390625 365.140625 356.9375 C328.18182405 386.35558841 280.0243476 406.54824782 232.34375 406.796875 C231.44174866 406.80388931 230.53974731 406.81090363 229.6104126 406.81813049 C226.71157799 406.83555639 223.81294758 406.84198374 220.9140625 406.84375 C219.92452576 406.84442474 218.93498901 406.84509949 217.91546631 406.84579468 C203.41516122 406.83006256 189.30219724 406.42665075 175.0390625 403.59375 C174.0893457 403.41682617 173.13962891 403.23990234 172.16113281 403.05761719 C156.66810491 400.12705098 145.26254772 395.79507841 133.0390625 385.59375 C132.87180664 386.12162109 132.70455078 386.64949219 132.53222656 387.19335938 C130.86953213 392.32204635 128.97432869 397.30458762 126.93041992 402.29223633 C119.98753159 419.33387133 114.70489808 436.9849543 111.45581055 455.11450195 C110.61309429 459.42131551 109.66164965 462.00245793 106.0390625 464.59375 C101.9371725 465.57589267 98.21557615 465.19635455 94.4765625 463.28125 C90.76152409 456.3357434 93.25543456 446.64232885 94.9140625 439.28125 C95.1311084 438.31050537 95.3481543 437.33976074 95.57177734 436.33959961 C100.79792083 414.14154647 108.09043569 388.04119905 121.375 369.28515625 C124.40831929 364.08135231 123.16525425 357.73615102 122.7890625 351.96875 C122.65878905 349.35299616 122.53120071 346.73710725 122.40625 344.12109375 C122.30715332 342.19692627 122.30715332 342.19692627 122.20605469 340.23388672 C121.52266553 325.33720193 122.14443317 310.46696267 123.0390625 295.59375 C121.93002563 295.41283813 121.93002563 295.41283813 120.79858398 295.22827148 C118.11072928 294.61022899 116.26207028 293.80915216 113.88671875 292.44140625 C113.11730957 291.99990234 112.34790039 291.55839844 111.55517578 291.10351562 C110.7454834 290.62591797 109.93579102 290.14832031 109.1015625 289.65625 C108.25835449 289.16189453 107.41514648 288.66753906 106.54638672 288.15820312 C82.58092882 273.91805626 60.71421495 254.8253214 44.25830078 232.26171875 C43.02602352 230.57591213 41.76699695 228.91280295 40.50390625 227.25 C22.80431824 203.61193617 11.08032634 175.84203365 7.0390625 146.59375 C6.94407471 145.94349854 6.84908691 145.29324707 6.7512207 144.62329102 C5.80023735 137.3662314 5.84376443 130.08890862 5.8515625 122.78125 C5.8508374 122.08322266 5.8501123 121.38519531 5.84936523 120.66601562 C5.8504891 110.76702502 6.23907193 100.96516143 7.0390625 91.09375 C10.39494803 55.70017224 10.39494803 55.70017224 -3.31054688 23.94482422 C-7.14139561 19.6965112 -11.19036425 15.77413217 -15.9609375 12.59375 C-16.5234375 9.28125 -16.5234375 9.28125 -15.9609375 5.59375 C-11.07904488 0.1437359 -7.08443702 -0.12548221 0 0 Z " fill="#55AA39" transform="translate(15.9609375,23.40625)"/>
<path d="M0 0 C1.45542961 -0.00203178 1.45542961 -0.00203178 2.94026184 -0.00410461 C6.09903988 0.00087508 9.25567767 0.04501289 12.4140625 0.09375 C14.60196732 0.11262937 16.78987426 0.13126389 18.9777832 0.1496582 C90.37045787 0.97676906 165.02146888 17.28730429 219.0390625 66.59375 C219.85761719 67.34011719 220.67617187 68.08648437 221.51953125 68.85546875 C228.08297771 75.14011394 233.64707753 82.29871151 239.0390625 89.59375 C239.45075684 90.1398291 239.86245117 90.6859082 240.28662109 91.24853516 C241.42578125 92.83203125 241.42578125 92.83203125 243.0390625 95.59375 C242.0390625 98.59375 242.0390625 98.59375 239.84375 99.84765625 C238.39355469 100.49541016 238.39355469 100.49541016 236.9140625 101.15625 C219.3959124 109.57244311 204.03641117 122.26390495 190.0390625 135.59375 C188.97945313 136.57408203 188.97945313 136.57408203 187.8984375 137.57421875 C148.61738448 175.01896238 129.76653271 233.83730119 125.81494141 286.58544922 C125.70351807 288.07262451 125.70351807 288.07262451 125.58984375 289.58984375 C125.50150269 290.9519397 125.50150269 290.9519397 125.41137695 292.34155273 C125.0390625 294.59375 125.0390625 294.59375 123.0390625 296.59375 C107.13995096 289.22903893 92.3314321 280.06815786 79.0390625 268.59375 C77.90404297 267.62308594 77.90404297 267.62308594 76.74609375 266.6328125 C64.84556185 256.1883 53.7192205 245.06015248 44.30664062 232.31005859 C43.04964156 230.60807411 41.7717993 228.92330002 40.4921875 227.23828125 C22.8052744 203.59305939 11.08032655 175.84203515 7.0390625 146.59375 C6.94407471 145.94349854 6.84908691 145.29324707 6.7512207 144.62329102 C5.80023735 137.3662314 5.84376443 130.08890862 5.8515625 122.78125 C5.8508374 122.08322266 5.8501123 121.38519531 5.84936523 120.66601562 C5.8504891 110.76702502 6.23907193 100.96516143 7.0390625 91.09375 C10.39494803 55.70017224 10.39494803 55.70017224 -3.31054688 23.94482422 C-7.14139561 19.6965112 -11.19036425 15.77413217 -15.9609375 12.59375 C-16.5234375 9.28125 -16.5234375 9.28125 -15.9609375 5.59375 C-11.07904488 0.1437359 -7.08443702 -0.12548221 0 0 Z " fill="#569B39" transform="translate(15.9609375,23.40625)"/>
<path d="M0 0 C0.99 0.33 1.98 0.66 3 1 C3.69437747 2.99054876 4.35610218 4.99255385 5 7 C6.051875 8.5778125 6.051875 8.5778125 7.125 10.1875 C9 13 9 13 9 16 C9.66 16 10.32 16 11 16 C11.495 17.485 11.495 17.485 12 19 C11.34 19 10.68 19 10 19 C9.83274414 19.52787109 9.66548828 20.05574219 9.49316406 20.59960938 C7.83046963 25.72829635 5.93526619 30.71083762 3.89135742 35.69848633 C-3.05153091 52.74012133 -8.33416442 70.3912043 -11.58325195 88.52075195 C-12.42596821 92.82756551 -13.37741285 95.40870793 -17 98 C-21.10189 98.98214267 -24.82348635 98.60260455 -28.5625 96.6875 C-32.27753841 89.7419934 -29.78362794 80.04857885 -28.125 72.6875 C-27.9079541 71.71675537 -27.6909082 70.74601074 -27.46728516 69.74584961 C-21.95386093 46.32757101 -14.1293344 19.71535033 0 0 Z " fill="#2DA14B" transform="translate(139,390)"/>
</svg>
