<?xml version="1.0" encoding="UTF-8"?>
<svg version="1.1" xmlns="http://www.w3.org/2000/svg" width="512" height="512">
<path d="M0 0 C6.49703848 0.37906737 12.00258616 2.77382325 17.9375 5.3125 C19.5922937 6.01753662 19.5922937 6.01753662 21.28051758 6.73681641 C46.86823584 17.87725937 72.05161695 30.67308288 96 45 C96.99467285 45.59135742 97.9893457 46.18271484 99.01416016 46.79199219 C133.35415873 67.29522531 166.30570458 90.34574421 197 116 C197.51369141 116.42877441 198.02738281 116.85754883 198.55664062 117.29931641 C205.06288254 122.73855009 211.47281576 128.26105615 217.75 133.96484375 C219.74989375 135.77377543 221.77269432 137.54891801 223.8125 139.3125 C235.35150294 149.40049059 246.23342732 160.0980904 257 171 C259.73734482 169.73680902 261.8598148 168.41378517 264.05859375 166.35546875 C264.60966797 165.84306641 265.16074219 165.33066406 265.72851562 164.80273438 C266.29248047 164.26970703 266.85644531 163.73667969 267.4375 163.1875 C267.99759766 162.66607422 268.55769531 162.14464844 269.13476562 161.60742188 C272.49140687 158.47011775 275.76944113 155.26678943 279 152 C278.66226562 151.12859375 278.32453125 150.2571875 277.9765625 149.359375 C270.90773299 130.48192277 269.73250781 111.62388365 277.3125 92.625 C284.42112852 77.01554865 295.16128261 66.52738943 308.07128906 55.63037109 C310.50290072 53.57488975 312.91771079 51.50029551 315.33203125 49.42456055 C317.06034139 47.93935498 318.79150942 46.45754671 320.5234375 44.9765625 C322.88665561 42.95495017 325.24563043 40.92853563 327.6015625 38.8984375 C332.93550064 34.30622865 338.28042213 29.74355043 343.75 25.3125 C348.1164459 21.76955047 352.28853937 18.05835872 356.4453125 14.2734375 C360.83797181 10.36437371 365.39894014 6.66026806 370 3 C370.68449219 2.43152344 371.36898438 1.86304687 372.07421875 1.27734375 C374.63634742 -0.42208034 376.99037115 -0.59967702 380.02734375 -0.48046875 C382 0 382 0 385 2.625 C387.2152818 6.36328804 387.49475263 7.76002312 387 12 C385.41796875 14.60546875 385.41796875 14.60546875 383.1875 17.1875 C381.95966797 18.610625 381.95966797 18.610625 380.70703125 20.0625 C377.10461602 23.97161436 373.36921481 27.7140557 369.5703125 31.43359375 C366.76566512 34.23397874 364.18081004 37.15962253 361.609375 40.171875 C359.43628215 42.64033969 357.09527631 44.91535363 354.75 47.21875 C352.91757513 49.08389674 351.20646865 51.01927746 349.5 53 C346.71760668 56.22956367 343.78980571 59.23322653 340.75 62.21875 C338.91757513 64.08389674 337.20646865 66.01927746 335.5 68 C332.71760668 71.22956367 329.78980571 74.23322653 326.75 77.21875 C324.91757513 79.08389674 323.20646865 81.01927746 321.5 83 C319.2544206 85.60647609 316.95448488 88.08934521 314.5 90.5 C309.93615609 94.991729 305.55686999 99.66469502 302 105 C301.92357291 107.11149645 301.92357291 107.11149645 303 109 C305.49034386 110.29660434 305.49034386 110.29660434 308 111 C315.22404621 104.86071472 322.09894813 98.34575907 329.01220703 91.86279297 C332.17009736 88.90348282 335.33527571 85.95199765 338.5 83 C339.75003792 81.83337397 341.00003785 80.66670722 342.25 79.5 C349.75 72.5 357.25 65.5 364.75 58.5 C365.36931396 57.92193604 365.98862793 57.34387207 366.62670898 56.74829102 C367.87086069 55.58715842 369.11516295 54.42618711 370.35961914 53.26538086 C373.5753811 50.26537963 376.78810738 47.26222219 379.99609375 44.25390625 C399.26993143 26.19222984 399.26993143 26.19222984 403.8125 25.6875 C407.7307645 26.07164358 409.21293267 27.29256317 412 30 C413.42604455 32.85208911 413.30116139 34.83394436 413 38 C411.3828125 40.640625 411.3828125 40.640625 409.125 43.25 C408.30515625 44.20003906 407.4853125 45.15007813 406.640625 46.12890625 C403.31207668 49.74796397 399.86457577 53.22086648 396.34765625 56.65625 C393.63098475 59.36840125 391.13880316 62.22186704 388.64453125 65.13671875 C386.45726258 67.61493052 384.10720121 69.90364167 381.75 72.21875 C379.91757513 74.08389674 378.20646865 76.01927746 376.5 78 C373.74656316 81.19595347 370.85322821 84.17230063 367.84350586 87.12524414 C366.06663359 88.93223688 364.40563127 90.79344934 362.75390625 92.71484375 C359.08593572 96.93296143 355.28275976 101.00629263 351.4375 105.0625 C350.03904919 106.54686246 348.64061198 108.03123774 347.2421875 109.515625 C344.46776954 112.45444347 341.68016224 115.37988849 338.8828125 118.296875 C337.6093322 119.63537595 336.33589283 120.97391584 335.0625 122.3125 C334.4655835 122.92810791 333.86866699 123.54371582 333.25366211 124.17797852 C332.70718018 124.75475342 332.16069824 125.33152832 331.59765625 125.92578125 C331.11820557 126.42505127 330.63875488 126.92432129 330.14477539 127.4387207 C328.77368893 129.30864988 328.25599754 130.69659934 328 133 C329.85432087 135.27144074 329.85432087 135.27144074 332 137 C335.81562395 135.70176525 338.07090879 134.25033142 340.8125 131.3125 C343.46799986 128.54718624 346.15054141 125.93185212 349.0625 123.4375 C352.27302136 120.67757813 355.25357247 117.76908985 358.21875 114.75 C360.71896185 112.29365151 363.37680516 110.03690632 366.03125 107.75 C367.93023071 106.06201714 369.72005988 104.31230266 371.5 102.5 C374.53832417 99.40643357 377.7476532 96.57894493 381.03125 93.75 C382.93023071 92.06201714 384.72005988 90.31230266 386.5 88.5 C389.53832417 85.40643357 392.7476532 82.57894493 396.03125 79.75 C397.93023071 78.06201714 399.72005988 76.31230266 401.5 74.5 C404.53653392 71.40825637 407.74204286 68.58101905 411.02734375 65.7578125 C412.96112494 64.03464114 414.76195003 62.23597111 416.5625 60.375 C424.41942688 52.46450316 424.41942688 52.46450316 430.125 51.4375 C433.69676043 52.13632269 435.41041565 53.48440377 438 56 C439.51816358 59.03632717 439.49607651 60.58947399 439 64 C435.22611406 70.3669108 429.67033685 75.45276081 424.41796875 80.5859375 C421.67712209 83.32235629 419.16096603 86.1959671 416.64453125 89.13671875 C414.45726258 91.61493052 412.10720121 93.90364167 409.75 96.21875 C407.91757513 98.08389674 406.20646865 100.01927746 404.5 102 C401.71760668 105.22956367 398.78980571 108.23322653 395.75 111.21875 C393.91757513 113.08389674 392.20646865 115.01927746 390.5 117 C387.71760668 120.22956367 384.78980571 123.23322653 381.75 126.21875 C379.91757513 128.08389674 378.20646865 130.01927746 376.5 132 C374.2544206 134.60647609 371.95448488 137.08934521 369.5 139.5 C363.93590161 144.97676949 358.96431709 150.98264596 354 157 C354.70339566 159.50965614 354.70339566 159.50965614 356 162 C357.84756243 162.95164373 357.84756243 162.95164373 360 163 C361.82711346 161.97125668 361.82711346 161.97125668 363.5 160.25 C364.19996094 159.59644531 364.89992188 158.94289062 365.62109375 158.26953125 C366.40613281 157.52058594 367.19117188 156.77164063 368 156 C369.85252256 154.31069528 371.70682541 152.62334166 373.5625 150.9375 C380.10780917 144.93179453 386.59351118 138.86188015 393.08105469 132.79394531 C395.57906999 130.4586506 398.07996185 128.12644901 400.58081055 125.79418945 C406.3951783 120.37126894 412.2010328 114.93938488 418 109.5 C420.66641373 106.9997301 423.33312974 104.49978294 426 102 C426.6609668 101.3802832 427.32193359 100.76056641 428.00292969 100.12207031 C451.42110737 78.17543251 451.42110737 78.17543251 455.8125 77.6875 C459.7307645 78.07164358 461.21293267 79.29256317 464 82 C465.54447631 85.08895262 465.27084149 87.59100848 465 91 C463.48828125 93.5625 463.48828125 93.5625 461.3125 96 C460.49007813 96.94230469 459.66765625 97.88460937 458.8203125 98.85546875 C458.36688477 99.35997559 457.91345703 99.86448242 457.44628906 100.38427734 C455.92004419 102.08932268 454.42261257 103.81650463 452.9296875 105.55078125 C450.74005866 108.09340399 448.54373953 110.62988787 446.33984375 113.16015625 C439.56605863 120.94183966 432.80862249 128.7339875 426.3125 136.75 C422.75904431 141.12939404 419.037352 145.31395765 415.23828125 149.48046875 C412.97152842 152.03204917 410.82459913 154.65171532 408.6875 157.3125 C393.81017043 175.5851783 377.78467348 189.56238609 353.375 192.6875 C351.91789621 192.80764715 350.45942423 192.91243455 349 193 C348.02933594 193.07927734 348.02933594 193.07927734 347.0390625 193.16015625 C335.26852789 193.67878134 322.75691514 190.57691638 312 186 C311.47792969 186.58265625 310.95585937 187.1653125 310.41796875 187.765625 C304.32438862 194.55287011 298.1728373 201.28487606 292 208 C295.72146658 213.16870358 299.70013619 218.01078758 303.875 222.8125 C307.61997674 227.15494932 311.31659077 231.51597481 314.8125 236.0625 C315.45832031 236.89910156 316.10414063 237.73570312 316.76953125 238.59765625 C318 241 318 241 318.078125 243.46875 C316.54410892 247.07035296 313.9329471 249.0673707 310.9375 251.4375 C310.35202393 251.91614502 309.76654785 252.39479004 309.16333008 252.88793945 C304.86559723 256.37951446 300.4820657 259.74830528 296 263 C297.59026073 267.15234747 300.63797328 269.6776498 303.875 272.5625 C304.45507812 273.0884375 305.03515625 273.614375 305.6328125 274.15625 C306.8348552 275.24592784 308.03897512 276.33331845 309.24511719 277.41845703 C311.84567655 279.76214423 314.42191777 282.13160179 317 284.5 C317.98951735 285.40632205 318.97910124 286.31257145 319.96875 287.21875 C323.1532194 290.13784695 326.32711625 293.06832137 329.5 296 C335.65148993 301.68329269 341.82278816 307.34469121 348 313 C354.72688606 319.15854189 361.44318077 325.32811854 368.14208984 331.51708984 C373.74711548 336.69366324 379.37246312 341.84792498 385 347 C391.72688606 353.15854189 398.44318077 359.32811854 405.14208984 365.51708984 C410.25440615 370.23861697 415.38347717 374.9416967 420.51611328 379.64111328 C422.00983666 381.00900804 423.50306365 382.37744234 424.99609375 383.74609375 C425.49214111 384.20056885 425.98818848 384.65504395 426.49926758 385.12329102 C427.49630894 386.03793495 428.49224912 386.95378079 429.48706055 387.87084961 C432.03627751 390.21783399 434.60362447 392.53792777 437.2109375 394.8203125 C448.02134489 404.34392415 454.91331956 413.76689882 456.34765625 428.59375 C456.69350172 442.42756894 452.34384948 453.97307787 442.93359375 464.15234375 C433.64371327 473.02934065 422.51665292 476.61746454 409.79614258 476.40234375 C396.49065554 475.83921625 386.29394802 470.00516614 377.20703125 460.47265625 C374.15415839 457.05235798 371.2501618 453.52981855 368.3828125 449.953125 C365.80463961 446.75788122 363.16179737 443.62548017 360.5 440.5 C357.14511404 436.55385805 353.82777084 432.5835659 350.5625 428.5625 C347.10725849 424.31607618 343.57302166 420.14703706 340 416 C335.68071044 410.98680512 331.44902881 405.9146268 327.27734375 400.77734375 C324.71795946 397.65603633 322.11406209 394.5754997 319.5 391.5 C315.37892208 386.65045949 311.33008517 381.74839036 307.3125 376.8125 C304.73853608 373.68200334 302.12430914 370.58827539 299.5 367.5 C296.12721426 363.53092065 292.78823483 359.53983137 289.5 355.5 C284.41824323 349.26083244 279.21105894 343.13108038 274 337 C268.0399173 329.98765442 262.12241205 322.95039195 256.3125 315.8125 C253.73853303 312.68199964 251.12415274 309.58841197 248.5 306.5 C241.1334666 297.82295058 233.9330564 289.02857827 227 280 C226.27554688 280.72574219 225.55109375 281.45148438 224.8046875 282.19921875 C223.06518313 283.93630042 221.32122718 285.66895135 219.5703125 287.39453125 C215.24263373 291.67381745 211.05843714 295.99067651 207.1015625 300.61328125 C204.17879387 303.93263373 201.15035513 307.14925593 198.125 310.375 C193.44920362 315.36345432 188.8228894 320.38699038 184.265625 325.484375 C181.0699394 329.03268798 177.82624735 332.53577726 174.58374023 336.04125977 C171.19297728 339.70710918 167.81040923 343.38021607 164.4375 347.0625 C163.98777832 347.55347168 163.53805664 348.04444336 163.07470703 348.55029297 C162.16937398 349.53884515 161.26410037 350.52745177 160.35888672 351.51611328 C158.07357504 354.01164407 155.7867042 356.50574527 153.5 359 C152.58332596 359.99999325 151.6666593 360.99999324 150.75 362 C126.91666667 388 103.08333333 414 79.25 440 C78.7960083 440.49532227 78.3420166 440.99064453 77.87426758 441.50097656 C76.96027827 442.49793772 76.04605409 443.49468361 75.1315918 444.49121094 C72.79695949 447.03596432 70.46690106 449.58467214 68.14453125 452.140625 C66.28786841 454.18317732 64.42228591 456.21683764 62.546875 458.2421875 C60.9982791 459.91904134 59.46311211 461.60860955 57.953125 463.3203125 C51.38659185 470.45666878 42.52055963 475.52193012 32.75 476.23828125 C20.39361436 476.48283472 10.7384862 474.49120115 1.1875 466.1953125 C-6.98749845 457.99111763 -11.14887063 448.04045211 -11.5 436.5 C-10.9573178 418.68193453 -0.16639603 408.55329885 12 397 C13.87933515 395.29597597 15.7856005 393.63845169 17.71875 391.99609375 C21.00992605 389.11631471 24.18575693 386.11678009 27.375 383.125 C32.36339611 378.44914318 37.38699216 373.82288781 42.484375 369.265625 C46.03268798 366.0699394 49.53577726 362.82624735 53.04125977 359.58374023 C58.18490577 354.826075 63.3484194 350.09040202 68.51611328 345.35888672 C71.01164407 343.07357504 73.50574527 340.7867042 76 338.5 C76.99999325 337.58332596 77.99999324 336.6666593 79 335.75 C79.7425 335.069375 79.7425 335.069375 80.5 334.375 C106 311 131.5 287.625 157 264.25 C157.49516113 263.79608887 157.99032227 263.34217773 158.50048828 262.87451172 C159.49880661 261.95941367 160.49717886 261.04437445 161.49560547 260.12939453 C164.0217842 257.81421148 166.54696832 255.4979599 169.0703125 253.1796875 C175.34685897 247.41553255 181.65321118 241.68683511 188 236 C186.63733356 231.96194134 184.8590849 229.45631882 181.9375 226.375 C177.90335746 222.01915551 174.1176233 217.53117581 170.3828125 212.91796875 C167.79244152 209.74582593 165.15317133 206.61956706 162.5 203.5 C158.37875818 198.65060094 154.33008186 193.74838629 150.3125 188.8125 C147.2756723 185.1190609 144.18039045 181.47701514 141.08374023 177.83374023 C138.2045468 174.44045891 135.36795763 171.01732214 132.5625 167.5625 C129.10725849 163.31607618 125.57302166 159.14703706 122 155 C117.68071044 149.98680512 113.44902881 144.9146268 109.27734375 139.77734375 C106.71795946 136.65603633 104.11406209 133.5754997 101.5 130.5 C97.37892208 125.65045949 93.33008517 120.74839036 89.3125 115.8125 C86.73853608 112.68200334 84.12430914 109.58827539 81.5 106.5 C78.12721426 102.53092065 74.78823483 98.53983137 71.5 94.5 C66.41824323 88.26083244 61.21105894 82.13108038 56 76 C50.0399173 68.98765442 44.12241205 61.95039195 38.3125 54.8125 C35.73853608 51.68200334 33.12430914 48.58827539 30.5 45.5 C26.38135042 40.65319138 22.33399201 35.75469269 18.3203125 30.8203125 C16.17427691 28.21183153 13.99995716 25.63167582 11.80957031 23.06054688 C9.95502062 20.88154567 8.1119874 18.69297988 6.27050781 16.50292969 C5.09371366 15.11085729 3.90290505 13.73066489 2.7109375 12.3515625 C2.06382813 11.57554688 1.41671875 10.79953125 0.75 10 C0.18796875 9.34 -0.3740625 8.68 -0.953125 8 C-2 6 -2 6 -1.734375 3.3125 C-1 1 -1 1 0 0 Z " fill="#252122" transform="translate(29,18)"/>
<path d="M0 0 C-1.36190453 3.02437591 -2.91288207 5.19124265 -5.203125 7.58203125 C-5.84652832 8.2589502 -6.48993164 8.93586914 -7.15283203 9.63330078 C-7.84489746 10.35243652 -8.53696289 11.07157227 -9.25 11.8125 C-10.71125206 13.34735684 -12.17218379 14.8825187 -13.6328125 16.41796875 C-14.36790039 17.18802246 -15.10298828 17.95807617 -15.86035156 18.75146484 C-18.97171995 22.02117078 -22.05006325 25.32106925 -25.125 28.625 C-26.27337992 29.85682452 -27.42181735 31.08859542 -28.5703125 32.3203125 C-29.13524414 32.92649414 -29.70017578 33.53267578 -30.28222656 34.15722656 C-33.18659237 37.27293906 -36.09343299 40.38634111 -39 43.5 C-40.16667826 44.74998918 -41.33334493 45.99998917 -42.5 47.25 C-49.5 54.75 -49.5 54.75 -51.2512207 56.6262207 C-52.41393443 57.87204338 -53.57653272 59.11797379 -54.73901367 60.36401367 C-57.71520683 63.55383516 -60.69358897 66.74156695 -63.67578125 69.92578125 C-78.23167631 83.2444286 -78.23167631 83.2444286 -84.22265625 100.51953125 C-83.93708398 103.70090655 -83.0542284 105.56535893 -81 108 C-77.80580328 110.12946448 -76.81851004 110.29566029 -73.125 110.3125 C-71.86042969 110.33763672 -71.86042969 110.33763672 -70.5703125 110.36328125 C-64.28106986 109.47437613 -60.07861188 104.46080959 -55.6875 100.25 C-54.25531682 98.89181268 -52.82302203 97.53374304 -51.390625 96.17578125 C-50.66166016 95.48178223 -49.93269531 94.7877832 -49.18164062 94.07275391 C-45.78304366 90.84378252 -42.36010111 87.64098399 -38.9375 84.4375 C-37.60674052 83.19013651 -36.27601128 81.94274075 -34.9453125 80.6953125 C-26.01287308 72.32693438 -17.06793556 63.97324408 -8.06054688 55.68554688 C-3.44471168 51.42953319 1.12161756 47.12197328 5.6875 42.8125 C15.38208874 33.68018229 15.38208874 33.68018229 19.9375 29.5 C20.68902344 28.8090625 21.44054687 28.118125 22.21484375 27.40625 C24 26 24 26 26 26 C24.67590922 28.91323815 23.22191076 31.05246245 21.015625 33.36328125 C20.11831665 34.31086304 20.11831665 34.31086304 19.20288086 35.27758789 C18.55843018 35.94910889 17.91397949 36.62062988 17.25 37.3125 C15.88128518 38.75499465 14.51280078 40.19770796 13.14453125 41.640625 C12.45053223 42.36958984 11.7565332 43.09855469 11.04150391 43.84960938 C7.98610322 47.06797451 4.96133214 50.314505 1.9375 53.5625 C0.78005253 54.803483 -0.37749966 56.04436833 -1.53515625 57.28515625 C-2.10637207 57.89762207 -2.67758789 58.51008789 -3.26611328 59.14111328 C-6.17663651 62.26146303 -9.08838287 65.38067102 -12 68.5 C-13.16667246 69.74999459 -14.33333913 70.99999459 -15.5 72.25 C-22.5 79.75 -22.5 79.75 -24.25097656 81.62597656 C-25.41448086 82.87263471 -26.57789273 84.11937914 -27.74121094 85.36621094 C-30.70549947 88.5430647 -33.67151235 91.71827897 -36.640625 94.890625 C-42.05408907 100.67677881 -47.46229684 106.46770726 -52.8125 112.3125 C-53.60269531 113.17488281 -54.39289063 114.03726563 -55.20703125 114.92578125 C-58.46908284 118.69952721 -58.27151971 121.68204823 -58.22265625 126.51953125 C-57.93708398 129.70090655 -57.0542284 131.56535893 -55 134 C-51.15162799 136.56558134 -48.5890299 136.72299738 -44.02734375 136.62109375 C-38.05587107 135.39597871 -34.23556774 131.15366449 -30 127 C-29.24686523 126.26185059 -29.24686523 126.26185059 -28.47851562 125.50878906 C-25.89017422 122.96104272 -23.33143349 120.38652004 -20.7890625 117.79296875 C-17.9005246 114.90038528 -14.90278263 112.22236954 -11.79296875 109.57421875 C-9.33417866 107.41541177 -7.07292218 105.08333895 -4.78125 102.75 C-2.28103815 100.29365151 0.37680516 98.03690632 3.03125 95.75 C4.93023071 94.06201714 6.72005988 92.31230266 8.5 90.5 C11.53832417 87.40643357 14.7476532 84.57894493 18.03125 81.75 C19.93023071 80.06201714 21.72005988 78.31230266 23.5 76.5 C26.53832417 73.40643357 29.7476532 70.57894493 33.03125 67.75 C34.93023071 66.06201714 36.72005988 64.31230266 38.5 62.5 C42.13815186 58.81166673 45.86295162 55.12894004 50 52 C50.66 52 51.32 52 52 52 C50.37699538 55.95371475 47.64750053 58.75862938 44.75 61.8125 C43.95698486 62.65965576 43.95698486 62.65965576 43.14794922 63.52392578 C42.0161946 64.73238711 40.8825087 65.93904215 39.74707031 67.14404297 C37.44405085 69.59059886 35.15459005 72.04964713 32.86450195 74.50830078 C31.10016303 76.40165312 29.33362202 78.29292654 27.56640625 80.18359375 C25.21871004 82.69536591 22.87226955 85.20829748 20.52734375 87.72265625 C14.5268107 94.15651411 8.51892149 100.58333873 2.5 107 C-4.11185507 114.04968096 -10.7178519 121.10472801 -17.30371094 128.17871094 C-18.4546382 129.41445034 -19.60635756 130.64945238 -20.75878906 131.88378906 C-22.44566773 133.69122634 -24.129474 135.50147565 -25.8125 137.3125 C-26.32256592 137.85801514 -26.83263184 138.40353027 -27.3581543 138.96557617 C-31.75004279 143.70389282 -32.28673165 146.17606714 -32.22265625 152.51953125 C-31.93708398 155.70090655 -31.0542284 157.56535893 -29 160 C-25.15474572 162.56350286 -22.59244711 162.71897129 -18.03515625 162.62890625 C-12.08397294 161.39577818 -8.22589268 157.14014993 -4 153 C-3.13117188 152.14921875 -2.26234375 151.2984375 -1.3671875 150.421875 C0.31835179 148.74149026 1.99313804 147.05024081 3.65625 145.34765625 C6.36840125 142.63098475 9.22186704 140.13880316 12.13671875 137.64453125 C14.61493052 135.45726258 16.90364167 133.10720121 19.21875 130.75 C21.71896185 128.29365151 24.37680516 126.03690632 27.03125 123.75 C28.93023071 122.06201714 30.72005988 120.31230266 32.5 118.5 C35.53832417 115.40643357 38.7476532 112.57894493 42.03125 109.75 C43.93023071 108.06201714 45.72005988 106.31230266 47.5 104.5 C50.53832417 101.40643357 53.7476532 98.57894493 57.03125 95.75 C58.93023071 94.06201714 60.72005988 92.31230266 62.5 90.5 C72.25446429 80.61160714 72.25446429 80.61160714 78 78 C77.43384016 81.88350268 75.66155353 83.75770314 73 86.5625 C69.70036721 90.11795875 66.5433774 93.72256855 63.5 97.5 C60.5918662 101.0947765 57.61458668 104.58260628 54.5 108 C51.47717579 111.31989486 48.57487839 114.69764112 45.75 118.1875 C41.07807471 123.9563121 36.22166718 129.55092947 31.34765625 135.1484375 C28.60638999 138.29702771 25.88262105 141.46000487 23.16943359 144.6328125 C22.14715723 145.82735358 21.12277075 147.02009234 20.09619141 148.2109375 C18.07378078 150.55841446 16.07489417 152.9053135 14.15234375 155.3359375 C6.12471283 165.3162354 -4.94497055 171.2298331 -17 175 C-17.74378906 175.24492187 -18.48757813 175.48984375 -19.25390625 175.7421875 C-34.00986491 179.83017605 -50.36689147 176.8471004 -63.66015625 169.890625 C-66.37110041 168.85874642 -67.36655336 168.84583511 -70 170 C-71.73620786 171.33598597 -71.73620786 171.33598597 -73.3125 173.0625 C-73.92609375 173.70316406 -74.5396875 174.34382812 -75.171875 175.00390625 C-77.4265467 177.46573796 -79.61367503 179.97924146 -81.79296875 182.5078125 C-84.75797695 185.85591026 -87.81610858 189.11277538 -90.875 192.375 C-95.5507359 197.36351257 -100.17710902 202.3869886 -104.734375 207.484375 C-107.9300606 211.03268798 -111.17375265 214.53577726 -114.41625977 218.04125977 C-117.80702272 221.70710918 -121.18959077 225.38021607 -124.5625 229.0625 C-125.23708252 229.79895752 -125.23708252 229.79895752 -125.92529297 230.55029297 C-126.83062602 231.53884515 -127.73589963 232.52745177 -128.64111328 233.51611328 C-130.92642496 236.01164407 -133.2132958 238.50574527 -135.5 241 C-136.41667404 241.99999325 -137.3333407 242.99999324 -138.25 244 C-183.625 293.5 -229 343 -275.75 394 C-276.43050415 394.74237915 -276.43050415 394.74237915 -277.12475586 395.49975586 C-278.04220685 396.50059668 -278.95968736 397.50141045 -279.87719727 398.50219727 C-282.15710551 400.98911261 -284.43651293 403.47648315 -286.71484375 405.96484375 C-291.96938349 411.70255956 -297.23746288 417.42745017 -302.51708984 423.14208984 C-305.41544845 426.28033847 -308.30977598 429.4221793 -311.19580078 432.57177734 C-312.1031506 433.56146616 -313.01167068 434.55008341 -313.92138672 435.53759766 C-316.24983122 438.06895306 -318.55089806 440.61910877 -320.81640625 443.20703125 C-327.89131908 451.22804363 -335.45563673 459.23016701 -346.63671875 460.37109375 C-357.68629909 460.70823646 -365.05685125 458.91149527 -373.375 451.1875 C-380.95690454 443.08481818 -382.60806638 434.69219478 -382.3203125 423.81640625 C-381.18319074 410.26801649 -369.03120157 401.30606522 -359.31640625 393.03125 C-356.01590558 390.13705043 -352.82641323 387.12797689 -349.625 384.125 C-344.63926811 379.45167877 -339.61897922 374.8272605 -334.5234375 370.2734375 C-331.49121879 367.54162436 -328.49463353 364.77287299 -325.5 362 C-321.69020002 358.47298019 -317.8666241 354.96489692 -314 351.5 C-309.05135091 347.06383237 -304.17165228 342.55566166 -299.29296875 338.04296875 C-294.70429271 333.79928568 -290.09368397 329.57959459 -285.48388672 325.35888672 C-282.98835593 323.07357504 -280.49425473 320.7867042 -278 318.5 C-277.00000675 317.58332596 -276.00000676 316.6666593 -275 315.75 C-274.2575 315.069375 -274.2575 315.069375 -273.5 314.375 C-269 310.25 -269 310.25 -267.50024414 308.87524414 C-266.49940332 307.95779315 -265.49858955 307.04031264 -264.49780273 306.12280273 C-262.01088739 303.84289449 -259.52351685 301.56348707 -257.03515625 299.28515625 C-251.84702953 294.53392441 -246.66726439 289.77391926 -241.5 285 C-235.84111032 279.77187921 -230.16617168 274.56155911 -224.48388672 269.35888672 C-221.98835593 267.07357504 -219.49425473 264.7867042 -217 262.5 C-216.00000675 261.58332596 -215.00000676 260.6666593 -214 259.75 C-213.505 259.29625 -213.01 258.8425 -212.5 258.375 C-207 253.33333333 -201.5 248.29166667 -196 243.25 C-195.50483887 242.79608887 -195.00967773 242.34217773 -194.49951172 241.87451172 C-193.50119339 240.95941367 -192.50282114 240.04437445 -191.50439453 239.12939453 C-188.9782158 236.81421148 -186.45303168 234.4979599 -183.9296875 232.1796875 C-179.32650235 227.95233249 -174.71586224 223.73473917 -170.0625 219.5625 C-165.09487617 215.10356085 -160.19316748 210.57561669 -155.29296875 206.04296875 C-152.18217146 203.16605226 -149.06199517 200.29952732 -145.9375 197.4375 C-145.44580322 196.98705322 -144.95410645 196.53660645 -144.44750977 196.07250977 C-142.47211162 194.26321506 -140.4963019 192.45437012 -138.52050781 190.64550781 C-132.83677654 185.44135308 -127.16040815 180.22952368 -121.5 175 C-117.81441522 171.59497119 -114.12673764 168.19234729 -110.42651367 164.80322266 C-108.95301255 163.45172811 -107.48429018 162.09502943 -106.015625 160.73828125 C-103.89636127 158.79375151 -101.73589761 156.90852964 -99.546875 155.04296875 C-98.98492432 154.55449463 -98.42297363 154.06602051 -97.84399414 153.56274414 C-96.7637157 152.62512295 -95.67210214 151.70035816 -94.56811523 150.79077148 C-92.90369276 149.39628288 -92.90369276 149.39628288 -91 147 C-90.84887606 144.56134987 -90.84887606 144.56134987 -92 142 C-92.32133911 141.11103027 -92.32133911 141.11103027 -92.64916992 140.20410156 C-93.66143205 137.44072469 -94.74488822 134.70689792 -95.828125 131.97070312 C-101.3230261 117.76207407 -100.36183512 101.47313256 -94.55859375 87.5390625 C-88.26645896 74.07885769 -79.13056561 64.81865298 -67.83056641 55.51611328 C-64.85318102 53.0501806 -61.92914097 50.52285271 -59 48 C-57.83359774 46.9996916 -56.66693075 45.99969182 -55.5 45 C-54.63375 44.2575 -54.63375 44.2575 -53.75 43.5 C-51.125 41.25 -51.125 41.25 -48.5 39 C-47.9222583 38.5047583 -47.3445166 38.0095166 -46.74926758 37.49926758 C-45.58518023 36.50154805 -44.42095544 35.50398886 -43.2565918 34.5065918 C-40.29930113 31.97301257 -37.34461631 29.43649863 -34.39453125 26.89453125 C-28.20256441 21.56442835 -21.96602217 16.31390253 -15.609375 11.1796875 C-11.97385753 8.14283309 -8.5280206 4.91378579 -5.09375 1.65234375 C-3 0 -3 0 0 0 Z " fill="#E1E7DC" transform="translate(408,26)"/>
<path d="M0 0 C8.58085148 8.30404982 15.99322164 17.35946808 23 27 C21.47269638 30.88847991 19.12557367 32.76365184 15.875 35.3125 C11.63612697 38.67686178 7.54699541 42.1284304 3.55859375 45.78515625 C2 47 2 47 0 47 C0.950651 52.82273735 2.8147981 55.14625255 7.33984375 58.80078125 C10.77955194 61.64447539 14.00273873 64.69033278 17.25 67.75 C18.56331493 68.98098869 19.87711685 70.21145802 21.19140625 71.44140625 C21.83480957 72.04355957 22.47821289 72.64571289 23.14111328 73.26611328 C27.72886659 77.54536519 32.36808658 81.76868449 37 86 C38.97993913 87.81165745 40.95891562 89.62436315 42.9375 91.4375 C43.43016357 91.88891357 43.92282715 92.34032715 44.43041992 92.80541992 C48.67716613 96.69901784 52.91020885 100.60735025 57.14208984 104.51708984 C62.25440615 109.23861697 67.38347717 113.9416967 72.51611328 118.64111328 C75.51271731 121.38528868 78.50738983 124.1315719 81.50244141 126.87744141 C83.98928875 129.15725366 86.47656796 131.43659058 88.96484375 133.71484375 C94.70255956 138.96938349 100.42745017 144.23746288 106.14208984 149.51708984 C111.74711548 154.69366324 117.37246312 159.84792498 123 165 C124.97944081 166.81220093 126.95859177 168.62471753 128.9375 170.4375 C129.66972778 171.10785278 129.66972778 171.10785278 130.41674805 171.79174805 C133.09676322 174.24744283 135.76930444 176.71083998 138.43359375 179.18359375 C139.00795166 179.71605713 139.58230957 180.24852051 140.17407227 180.79711914 C141.2708248 181.81453146 142.36645199 182.83315886 143.46069336 183.85327148 C145.9598116 186.17072259 148.4778274 188.39331814 151.1484375 190.51171875 C153.98782004 192.98937173 155.77657959 195.24653351 157.75 198.4375 C158.32234375 199.34371094 158.8946875 200.24992188 159.484375 201.18359375 C164.02500292 209.62120387 164.18455811 218.75125723 162.41796875 228.0703125 C159.27618399 238.14123899 151.92003271 245.21941384 143.23828125 250.84375 C134.87277249 255.16519955 124.28098457 255.52686918 115.171875 253.3125 C112.94254647 252.3771174 111.01901537 251.32666308 109 250 C108.34128906 249.5875 107.68257812 249.175 107.00390625 248.75 C98.32148154 242.79246882 91.9433754 234.02152118 85.3828125 225.91796875 C82.79244248 222.74582711 80.15321062 219.61953249 77.5 216.5 C74.14539595 212.55361117 70.82777828 208.58357507 67.5625 204.5625 C64.10725849 200.31607618 60.57302166 196.14703706 57 192 C52.68071044 186.98680512 48.44902881 181.9146268 44.27734375 176.77734375 C41.71795946 173.65603633 39.11406209 170.5754997 36.5 167.5 C32.37892208 162.65045949 28.33008517 157.74839036 24.3125 152.8125 C21.73853608 149.68200334 19.12430914 146.58827539 16.5 143.5 C13.12721426 139.53092065 9.78823483 135.53983137 6.5 131.5 C1.41824323 125.26083244 -3.78894106 119.13108038 -9 113 C-14.9600827 105.98765442 -20.87758795 98.95039195 -26.6875 91.8125 C-29.26146495 88.68200209 -31.87574336 85.58832138 -34.5 82.5 C-39.40603013 76.72477444 -44.23270545 70.89067683 -49 65 C-49.76441406 64.154375 -50.52882813 63.30875 -51.31640625 62.4375 C-53 60 -53 60 -53.0390625 57.984375 C-51.58461856 55.20671515 -49.64744709 53.4057353 -47.375 51.25 C-44.38609857 48.3495027 -41.45395856 45.48098478 -38.75 42.3125 C-35.32208078 38.30784555 -31.73031423 34.46914909 -28.125 30.625 C-23.44137286 25.62782204 -18.80309544 20.59858982 -14.23828125 15.4921875 C-11.51150091 12.45608653 -8.75820753 9.44503703 -6 6.4375 C-5.27744019 5.649198 -5.27744019 5.649198 -4.5402832 4.8449707 C-1.13650611 1.13650611 -1.13650611 1.13650611 0 0 Z " fill="#E1E7DC" transform="translate(314,232)"/>
<path d="M0 0 C30.6211607 13.29654487 59.74303464 28.53878301 88.1558075 46.02825928 C91.44996126 48.05472448 94.7556768 50.0593584 98.078125 52.0390625 C109.44051954 58.8263661 120.24053948 66.29871748 131 74 C132.54414591 75.0965301 134.08841365 76.19288867 135.6328125 77.2890625 C161.88601233 96.00323122 186.83800468 116.51792265 210.40283203 138.51611328 C212.01973105 140.0183316 213.64674795 141.50876193 215.27734375 142.99609375 C222.72572139 149.79976225 229.92442919 156.8096902 237 164 C233.91202564 171.03371937 227.17147749 175.91392666 221.45703125 180.828125 C218.11857384 183.77913028 214.87507877 186.82729677 211.625 189.875 C206.62912552 194.55732844 201.60158378 199.19472698 196.49609375 203.7578125 C191.62726825 208.13137406 186.81823614 212.5708654 182 217 C178.28436466 215.76145489 177.40541409 214.30982822 175 211.25 C174.2059375 210.25484375 173.411875 209.2596875 172.59375 208.234375 C172.17222656 207.70521484 171.75070313 207.17605469 171.31640625 206.63085938 C169.09442069 203.87810278 166.79524241 201.19169337 164.5 198.5 C160.37808091 193.65118647 156.33006786 188.74836909 152.3125 183.8125 C149.73853608 180.68200334 147.12430914 177.58827539 144.5 174.5 C141.12721426 170.53092065 137.78823483 166.53983137 134.5 162.5 C129.41824323 156.26083244 124.21105894 150.13108038 119 144 C113.0399173 136.98765442 107.12241205 129.95039195 101.3125 122.8125 C98.73853608 119.68200334 96.12430914 116.58827539 93.5 113.5 C89.37898366 108.65040619 85.33008646 103.74839194 81.3125 98.8125 C78.73853608 95.68200334 76.12430914 92.58827539 73.5 89.5 C70.12721426 85.53092065 66.78823483 81.53983137 63.5 77.5 C58.41824323 71.26083244 53.21105894 65.13108038 48 59 C42.0399173 51.98765442 36.12241205 44.95039195 30.3125 37.8125 C27.27865204 34.12268491 24.18684403 30.48383391 21.0925293 26.84472656 C17.38241082 22.47345678 13.76026979 18.03488586 10.1484375 13.58203125 C7.34791574 10.21631328 4.41098471 6.98688995 1.43359375 3.77734375 C0 2 0 2 0 0 Z " fill="#E3E9DE" transform="translate(44,31)"/>
<path d="M0 0 C5.10603393 2.97608835 9.18680489 6.80004422 13.4375 10.875 C14.86177115 12.22547984 16.28625522 13.57573514 17.7109375 14.92578125 C18.42733398 15.60721191 19.14373047 16.28864258 19.88183594 16.99072266 C23.09040364 20.03435016 26.32591507 23.04872965 29.5625 26.0625 C30.80476869 27.22126714 32.04695618 28.38012132 33.2890625 29.5390625 C34.5260198 30.69273178 35.76299895 31.84637764 37 33 C45.35002535 40.78720111 53.69214252 48.58261804 62.01928711 56.39428711 C66.50665618 60.6028632 71.00088588 64.80398409 75.5 69 C81.34907625 74.45503322 87.18640516 79.92244972 93.01953125 85.39453125 C98.11993764 90.17801918 103.22972252 94.9513482 108.34448242 99.71948242 C111.61711056 102.77155171 114.88450675 105.82899901 118.14453125 108.89453125 C118.83506592 109.54341309 119.52560059 110.19229492 120.23706055 110.86083984 C121.60823319 112.15023569 122.9782112 113.44090326 124.34692383 114.73291016 C127.20431537 117.42167918 130.06385358 120.08859541 133.0546875 122.62890625 C139.31970977 127.97369528 144.19913916 132.69429695 145.46875 141.10546875 C145.82540315 148.71109719 144.61625786 154.84869736 140 161 C134.75199413 166.18334871 129.1315875 168.93332852 121.75 169.4375 C114.7654296 169.20351104 109.45494428 166.31710978 104.42578125 161.5703125 C101.84963543 158.78507675 99.40405562 155.93476971 97 153 C96.31035156 152.15824219 95.62070312 151.31648437 94.91015625 150.44921875 C93.5895705 148.8096004 92.27840824 147.16234951 90.9765625 145.5078125 C88.95129949 142.93821003 86.88840648 140.40383153 84.8125 137.875 C81.02830684 133.26076792 77.26108777 128.63308243 73.5 124 C68.34784795 117.654718 63.18051989 111.32215297 58 105 C55.74450597 102.24372321 53.48944257 99.48709445 51.234375 96.73046875 C49.78702949 94.96177205 48.33914699 93.19351457 46.890625 91.42578125 C41.84674935 85.26820312 36.82403544 79.09370109 31.80664062 72.91455078 C27.21819393 67.26505941 22.61344805 61.62909519 18 56 C12.25652937 48.9921086 6.52893551 41.97160311 0.82421875 34.93212891 C-1.69975496 31.81967551 -4.22994476 28.71388656 -6.796875 25.63671875 C-7.60640625 24.66347656 -8.4159375 23.69023437 -9.25 22.6875 C-10.30960937 21.42486328 -10.30960937 21.42486328 -11.390625 20.13671875 C-14.01765259 16.64889329 -14.39517798 13.32036442 -14.35546875 9 C-13.75030799 5.59513944 -11.6162301 4.06864706 -9 2 C-5.46569344 -0.35620437 -4.16428713 -0.48991613 0 0 Z " fill="#CACACA" transform="translate(319,306)"/>
<path d="M0 0 C3.10977399 1.6124754 5.2194416 3.04975499 7.4375 5.75 C8.34763353 9.39053412 8.17990574 12.48621478 7 16 C5.59708542 18.09079528 4.01663588 19.80318687 2.2734375 21.62109375 C-0.51343848 24.53725779 -3.08727209 27.60554654 -5.6875 30.6875 C-10.23240291 36.02665083 -14.9249908 41.19959436 -19.71411133 46.31958008 C-22.7383702 49.57331665 -25.60000498 52.90240919 -28.375 56.375 C-32.60978848 61.65693617 -37.19871525 66.53876878 -41.84716797 71.45263672 C-45.21456839 75.0308973 -48.43367257 78.6556492 -51.5 82.5 C-56.27996646 88.48838495 -61.53219357 93.99684413 -66.78125 99.5703125 C-70.73316017 103.76808922 -74.52345773 108.08290505 -78.25439453 112.47753906 C-79.7304594 114.21559391 -81.20836838 115.95205423 -82.6875 117.6875 C-83.19982178 118.28868652 -83.71214355 118.88987305 -84.23999023 119.50927734 C-87.79695302 123.65879114 -91.45457933 127.69610494 -95.1875 131.6875 C-99.63584901 136.44584849 -103.81683126 141.35538773 -107.91015625 146.42578125 C-121.13785873 162.71934375 -121.13785873 162.71934375 -132.02734375 164.29296875 C-138.59407981 164.71997971 -143.59726677 162.64776376 -149 159 C-153.95309409 154.6192172 -157.43190591 149.27823947 -158.31640625 142.6171875 C-158.60109066 136.61126484 -157.54510554 131.90626354 -154 127 C-145.86154529 118.46797581 -136.93213709 110.6501768 -127.74609375 103.27734375 C-124.73680853 100.78173453 -121.86062978 98.16233195 -119 95.5 C-114.39001057 91.21039593 -109.62216484 87.19588878 -104.71484375 83.24609375 C-101.89326505 80.9116941 -99.19409288 78.48009402 -96.5 76 C-92.94329756 72.72581577 -89.32838189 69.59357567 -85.5625 66.5625 C-81.56776014 63.34056899 -77.75445651 59.99344505 -74 56.5 C-69.38995664 52.21044887 -64.62217044 48.19589328 -59.71484375 44.24609375 C-56.89326505 41.9116941 -54.19409288 39.48009402 -51.5 37 C-47.94329756 33.72581577 -44.32838189 30.59357567 -40.5625 27.5625 C-36.56774141 24.34055388 -32.75461349 20.99329675 -29 17.5 C-23.52817267 12.41247269 -17.86687018 7.63173961 -12 3 C-10.97519531 2.14728516 -10.97519531 2.14728516 -9.9296875 1.27734375 C-6.80352562 -0.79199823 -3.56518972 -0.6239082 0 0 Z " fill="#CACACA" transform="translate(194,312)"/>
<path d="M0 0 C3.10977399 1.6124754 5.2194416 3.04975499 7.4375 5.75 C8.34763353 9.39053412 8.17990574 12.48621478 7 16 C5.59708542 18.09079528 4.01663588 19.80318687 2.2734375 21.62109375 C-0.51343848 24.53725779 -3.08727209 27.60554654 -5.6875 30.6875 C-10.23240291 36.02665083 -14.9249908 41.19959436 -19.71411133 46.31958008 C-22.7383702 49.57331665 -25.60000498 52.90240919 -28.375 56.375 C-32.60978848 61.65693617 -37.19871525 66.53876878 -41.84716797 71.45263672 C-45.21456839 75.0308973 -48.43367257 78.6556492 -51.5 82.5 C-56.27996646 88.48838495 -61.53219357 93.99684413 -66.78125 99.5703125 C-70.73316017 103.76808922 -74.52345773 108.08290505 -78.25439453 112.47753906 C-79.7304594 114.21559391 -81.20836838 115.95205423 -82.6875 117.6875 C-83.19982178 118.28868652 -83.71214355 118.88987305 -84.23999023 119.50927734 C-87.79695302 123.65879114 -91.45457933 127.69610494 -95.1875 131.6875 C-99.63584901 136.44584849 -103.81683126 141.35538773 -107.91015625 146.42578125 C-121.13785873 162.71934375 -121.13785873 162.71934375 -132.02734375 164.29296875 C-138.59407981 164.71997971 -143.59726677 162.64776376 -149 159 C-153.95309409 154.6192172 -157.43190591 149.27823947 -158.31640625 142.6171875 C-158.60109066 136.61126484 -157.54510554 131.90626354 -154 127 C-145.86154529 118.46797581 -136.93213709 110.6501768 -127.74609375 103.27734375 C-124.73680853 100.78173453 -121.86062978 98.16233195 -119 95.5 C-114.39001057 91.21039593 -109.62216484 87.19588878 -104.71484375 83.24609375 C-101.89326505 80.9116941 -99.19409288 78.48009402 -96.5 76 C-92.94329756 72.72581577 -89.32838189 69.59357567 -85.5625 66.5625 C-81.56776014 63.34056899 -77.75445651 59.99344505 -74 56.5 C-69.38995664 52.21044887 -64.62217044 48.19589328 -59.71484375 44.24609375 C-56.89326505 41.9116941 -54.19409288 39.48009402 -51.5 37 C-47.94329756 33.72581577 -44.32838189 30.59357567 -40.5625 27.5625 C-36.56774141 24.34055388 -32.75461349 20.99329675 -29 17.5 C-23.52817267 12.41247269 -17.86687018 7.63173961 -12 3 C-10.97519531 2.14728516 -10.97519531 2.14728516 -9.9296875 1.27734375 C-6.80352562 -0.79199823 -3.56518972 -0.6239082 0 0 Z M-8.7265625 8.9921875 C-9.70614112 9.9394279 -10.67158323 10.90143176 -11.625 11.875 C-12.68767788 12.9061522 -13.75282988 13.93476013 -14.8203125 14.9609375 C-15.35301758 15.4775293 -15.88572266 15.99412109 -16.43457031 16.52636719 C-18.68820672 18.64785024 -21.08058654 20.57148202 -23.5 22.5 C-27.47629157 25.69931506 -31.26670522 29.0258285 -35 32.5 C-39.58760113 36.76918152 -44.33442728 40.75758517 -49.21875 44.6875 C-52.24019188 47.1997101 -55.12441773 49.82400827 -58 52.5 C-62.58760113 56.76918152 -67.33442728 60.75758517 -72.21875 64.6875 C-75.24019336 67.19971133 -78.12440078 69.82402457 -81 72.5 C-85.61001639 76.7895776 -90.37783236 80.80410897 -95.28515625 84.75390625 C-98.10673495 87.0883059 -100.80590712 89.51990598 -103.5 92 C-107.05670244 95.27418423 -110.67161811 98.40642433 -114.4375 101.4375 C-118.96972741 105.09293804 -123.25420622 108.9382073 -127.50830078 112.90722656 C-130.83186724 115.98792116 -134.26242749 118.86589655 -137.8125 121.6875 C-146.17260729 127.94597624 -146.17260729 127.94597624 -150.5625 136.95703125 C-150.75092326 141.73238334 -150.3978662 145.14305742 -148.375 149.5 C-144.00562265 154.09934457 -140.90522367 156.23927176 -134.5 156.5 C-128.87507048 156.56465436 -125.49752671 154.36197146 -121.45263672 150.53662109 C-119.82445022 148.86984957 -118.25015868 147.16581321 -116.6875 145.4375 C-116.11700928 144.81544678 -115.54651855 144.19339355 -114.95874023 143.55249023 C-110.94698044 139.14266435 -107.17410156 134.57625721 -103.44921875 129.921875 C-99.24329761 124.90428487 -94.7062328 120.19447638 -90.21875 115.4296875 C-86.26683983 111.23191078 -82.47654227 106.91709495 -78.74560547 102.52246094 C-77.2695406 100.78440609 -75.79163162 99.04794577 -74.3125 97.3125 C-73.80017822 96.71131348 -73.28785645 96.11012695 -72.76000977 95.49072266 C-68.7176704 90.77497386 -64.52823035 86.21585158 -60.28588867 81.68041992 C-57.2616298 78.42668335 -54.39999502 75.09759081 -51.625 71.625 C-46.7935386 65.60330632 -41.50788329 60.04562085 -36.21875 54.4296875 C-32.26683983 50.23191078 -28.47654227 45.91709495 -24.74560547 41.52246094 C-23.26954069 39.7844062 -21.79160687 38.04796665 -20.3125 36.3125 C-19.80525391 35.71711426 -19.29800781 35.12172852 -18.77539062 34.50830078 C-14.58230411 29.61592918 -10.25003234 24.86599832 -5.83325195 20.17504883 C-3.66259575 17.85960834 -1.76620531 15.64930796 0 13 C-0.3121764 10.35367713 -0.3121764 10.35367713 -1 8 C-4.59566436 6.65326026 -5.55523028 6.67502499 -8.7265625 8.9921875 Z " fill="#292526" transform="translate(194,312)"/>
<path d="M0 0 C5.10603393 2.97608835 9.18680489 6.80004422 13.4375 10.875 C14.86177115 12.22547984 16.28625522 13.57573514 17.7109375 14.92578125 C18.42733398 15.60721191 19.14373047 16.28864258 19.88183594 16.99072266 C23.09040364 20.03435016 26.32591507 23.04872965 29.5625 26.0625 C30.80476869 27.22126714 32.04695618 28.38012132 33.2890625 29.5390625 C34.5260198 30.69273178 35.76299895 31.84637764 37 33 C45.35002535 40.78720111 53.69214252 48.58261804 62.01928711 56.39428711 C66.50665618 60.6028632 71.00088588 64.80398409 75.5 69 C81.34907625 74.45503322 87.18640516 79.92244972 93.01953125 85.39453125 C98.11993764 90.17801918 103.22972252 94.9513482 108.34448242 99.71948242 C111.61711056 102.77155171 114.88450675 105.82899901 118.14453125 108.89453125 C118.83506592 109.54341309 119.52560059 110.19229492 120.23706055 110.86083984 C121.60823319 112.15023569 122.9782112 113.44090326 124.34692383 114.73291016 C127.20431537 117.42167918 130.06385358 120.08859541 133.0546875 122.62890625 C139.31970977 127.97369528 144.19913916 132.69429695 145.46875 141.10546875 C145.82540315 148.71109719 144.61625786 154.84869736 140 161 C134.75199413 166.18334871 129.1315875 168.93332852 121.75 169.4375 C114.7654296 169.20351104 109.45494428 166.31710978 104.42578125 161.5703125 C101.84963543 158.78507675 99.40405562 155.93476971 97 153 C96.31035156 152.15824219 95.62070312 151.31648437 94.91015625 150.44921875 C93.5895705 148.8096004 92.27840824 147.16234951 90.9765625 145.5078125 C88.95129949 142.93821003 86.88840648 140.40383153 84.8125 137.875 C81.02830684 133.26076792 77.26108777 128.63308243 73.5 124 C68.34784795 117.654718 63.18051989 111.32215297 58 105 C55.74450597 102.24372321 53.48944257 99.48709445 51.234375 96.73046875 C49.78702949 94.96177205 48.33914699 93.19351457 46.890625 91.42578125 C41.84674935 85.26820312 36.82403544 79.09370109 31.80664062 72.91455078 C27.21819393 67.26505941 22.61344805 61.62909519 18 56 C12.25652937 48.9921086 6.52893551 41.97160311 0.82421875 34.93212891 C-1.69975496 31.81967551 -4.22994476 28.71388656 -6.796875 25.63671875 C-7.60640625 24.66347656 -8.4159375 23.69023437 -9.25 22.6875 C-10.30960937 21.42486328 -10.30960937 21.42486328 -11.390625 20.13671875 C-14.01765259 16.64889329 -14.39517798 13.32036442 -14.35546875 9 C-13.75030799 5.59513944 -11.6162301 4.06864706 -9 2 C-5.46569344 -0.35620437 -4.16428713 -0.48991613 0 0 Z M-7 10 C-6.91201514 15.00633848 -3.82171358 17.93252661 -0.625 21.4375 C0.47773196 22.68271146 1.57793302 23.93016815 2.67578125 25.1796875 C3.23346191 25.81358398 3.79114258 26.44748047 4.36572266 27.10058594 C6.86791822 30.0087248 9.21810452 33.02674838 11.5625 36.0625 C15.60977551 41.28302574 19.79215608 46.35984682 24.08178711 51.38256836 C27.49094825 55.37941036 30.7941059 59.44726683 34.05859375 63.5625 C36.82109621 67.03091355 39.63745282 70.45430343 42.44921875 73.8828125 C45.47775571 77.57910611 48.48826958 81.29001074 51.5 85 C56.65215205 91.345282 61.81948011 97.67784703 67 104 C69.25549403 106.75627679 71.51055743 109.51290555 73.765625 112.26953125 C75.21297051 114.03822795 76.66085301 115.80648543 78.109375 117.57421875 C83.14962517 123.72737088 88.16908934 129.8971456 93.18237305 136.07226562 C97.1416881 140.94778099 101.11383432 145.81244682 105.09765625 150.66796875 C106.45207792 152.32831729 107.78881888 154.00315598 109.11328125 155.6875 C111.8247228 159.01084037 113.98071412 160.75308565 118.33203125 161.28515625 C123.61748184 161.46741317 127.54908668 161.10528837 132 158 C136.03210554 153.98980807 138.12444924 150.41809961 138.3125 144.6875 C138.36857422 143.57955078 138.36857422 143.57955078 138.42578125 142.44921875 C137.31136838 136.03878876 131.71617637 131.43315596 127.25 127.0625 C126.31401978 126.13618774 126.31401978 126.13618774 125.35913086 125.19116211 C121.59386592 121.48852926 117.75299945 117.91814603 113.72265625 114.50390625 C111.28159971 112.37282514 109.04685876 110.0567791 106.77734375 107.74609375 C104.93406426 105.93522357 103.02177201 104.24678646 101.0625 102.5625 C97.53365237 99.52320349 94.26994973 96.28983153 91.00390625 92.97265625 C88.41753849 90.42662171 85.6846472 88.07978443 82.93359375 85.71484375 C80.43568444 83.4995262 78.11975011 81.1310183 75.78125 78.75 C73.91610326 76.91757513 71.98072254 75.20646865 70 73.5 C67.39352391 71.2544206 64.91065479 68.95448488 62.5 66.5 C60.10946833 64.06610268 57.64953738 61.78644441 55.0625 59.5625 C52.25423653 57.14382221 49.60029407 54.64100317 47 52 C44.41990785 49.37959391 41.78896393 46.89676588 39 44.5 C35.48998489 41.48358077 32.24948724 38.26904868 29.00390625 34.97265625 C26.41753849 32.42662171 23.6846472 30.07978443 20.93359375 27.71484375 C18.43981197 25.50318678 16.12745602 23.13894263 13.79296875 20.76171875 C11.22851982 18.2419661 8.51453722 15.91193178 5.78125 13.578125 C4 12 4 12 1.8125 9.5625 C0.06009769 7.76784284 0.06009769 7.76784284 -2.625 7.625 C-5.18227196 7.79015749 -5.18227196 7.79015749 -7 10 Z " fill="#282525" transform="translate(319,306)"/>
<path d="M0 0 C10.14087222 3.10574936 14.8256905 7.60463941 21 16 C22.75661833 18.15526918 24.56440226 20.26501708 26.375 22.375 C27.30777186 23.47355078 28.24006037 24.57251215 29.171875 25.671875 C30.11446959 26.78134664 31.05717822 27.89072141 32 29 C37.9600827 36.01234558 43.87758795 43.04960805 49.6875 50.1875 C52.7243277 53.8809391 55.81960955 57.52298486 58.91625977 61.16625977 C61.7954532 64.55954109 64.63204237 67.98267786 67.4375 71.4375 C70.89274151 75.68392382 74.42697834 79.85296294 78 84 C82.31928956 89.01319488 86.55097119 94.0853732 90.72265625 99.22265625 C93.28204054 102.34396367 95.88593791 105.4245003 98.5 108.5 C102.62107792 113.34954051 106.66991483 118.25160964 110.6875 123.1875 C113.7243277 126.8809391 116.81960955 130.52298486 119.91625977 134.16625977 C122.7954532 137.55954109 125.63204237 140.98267786 128.4375 144.4375 C131.89274151 148.68392382 135.42697834 152.85296294 139 157 C143.31928956 162.01319488 147.55097119 167.0853732 151.72265625 172.22265625 C154.28204054 175.34396367 156.88593791 178.4245003 159.5 181.5 C163.60909011 186.33543368 167.64664683 191.22283104 171.65234375 196.14453125 C176.04003634 201.48130877 180.52385012 206.73738641 185 212 C184.34 213.32 183.68 214.64 183 216 C179 216 179 216 177.02734375 214.05078125 C176.33769531 213.14714844 175.64804688 212.24351562 174.9375 211.3125 C174.15246094 210.30832031 173.36742187 209.30414063 172.55859375 208.26953125 C172.14335449 207.73408691 171.72811523 207.19864258 171.30029297 206.64697266 C169.10710676 203.8690466 166.80005811 201.18949019 164.5 198.5 C160.37732174 193.65184439 156.33005166 188.74834918 152.3125 183.8125 C149.73853608 180.68200334 147.12430914 177.58827539 144.5 174.5 C141.12721426 170.53092065 137.78823483 166.53983137 134.5 162.5 C129.41824323 156.26083244 124.21105894 150.13108038 119 144 C113.0399173 136.98765442 107.12241205 129.95039195 101.3125 122.8125 C98.73853608 119.68200334 96.12430914 116.58827539 93.5 113.5 C89.37898366 108.65040619 85.33008646 103.74839194 81.3125 98.8125 C78.73853608 95.68200334 76.12430914 92.58827539 73.5 89.5 C70.12721426 85.53092065 66.78823483 81.53983137 63.5 77.5 C58.41824323 71.26083244 53.21105894 65.13108038 48 59 C42.0399173 51.98765442 36.12241205 44.95039195 30.3125 37.8125 C27.27865204 34.12268491 24.18684403 30.48383391 21.0925293 26.84472656 C17.38241082 22.47345678 13.76026979 18.03488586 10.1484375 13.58203125 C7.34791574 10.21631328 4.41098471 6.98688995 1.43359375 3.77734375 C0 2 0 2 0 0 Z " fill="#F0F2EE" transform="translate(44,31)"/>
<path d="M0 0 C4.15391102 1.55892698 6.46912659 4.59723569 9.1875 7.9375 C9.67162354 8.52088135 10.15574707 9.1042627 10.65454102 9.70532227 C12.11080672 11.46398978 13.55709525 13.23036154 15 15 C15.75796875 15.928125 16.5159375 16.85625 17.296875 17.8125 C18.73924504 19.58124574 20.18063149 21.35079398 21.62109375 23.12109375 C24.37251852 26.4508147 27.18069504 29.72776622 30 33 C34.31928956 38.01319488 38.55097119 43.0853732 42.72265625 48.22265625 C45.28203972 51.34396267 47.88589916 54.42453424 50.5 57.5 C53.85447127 61.44650481 57.17221829 65.41642072 60.4375 69.4375 C63.89274151 73.68392382 67.42697834 77.85296294 71 82 C75.31928956 87.01319488 79.55097119 92.0853732 83.72265625 97.22265625 C86.28203972 100.34396267 88.88589916 103.42453424 91.5 106.5 C94.85447127 110.44650481 98.17221829 114.41642072 101.4375 118.4375 C104.89274151 122.68392382 108.42697834 126.85296294 112 131 C116.31928956 136.01319488 120.55097119 141.0853732 124.72265625 146.22265625 C127.28204054 149.34396367 129.88593791 152.4245003 132.5 155.5 C135.87283589 159.46903543 139.21176645 163.46017021 142.5 167.5 C143.22316406 168.38171875 143.94632813 169.2634375 144.69140625 170.171875 C145.89941721 171.65173952 147.10592502 173.13293491 148.29638672 174.62695312 C157.37508067 186.01700344 165.60510856 193.01790804 180 197 C180 197.33 180 197.66 180 198 C168.99252252 198.67050624 161.67883418 196.65194027 153.02734375 189.81640625 C146.42093878 183.8973729 140.94884127 176.79308094 135.3828125 169.91796875 C132.79244248 166.74582711 130.15321062 163.61953249 127.5 160.5 C124.14539595 156.55361117 120.82777828 152.58357507 117.5625 148.5625 C114.10725849 144.31607618 110.57302166 140.14703706 107 136 C102.68071044 130.98680512 98.44902881 125.9146268 94.27734375 120.77734375 C91.71795946 117.65603633 89.11406209 114.5754997 86.5 111.5 C82.37892208 106.65045949 78.33008517 101.74839036 74.3125 96.8125 C71.73853608 93.68200334 69.12430914 90.58827539 66.5 87.5 C63.12721426 83.53092065 59.78823483 79.53983137 56.5 75.5 C51.41824323 69.26083244 46.21105894 63.13108038 41 57 C35.0399173 49.98765442 29.12241205 42.95039195 23.3125 35.8125 C20.73853429 32.68200116 18.1242175 29.58835556 15.5 26.5 C10.59519561 20.72485007 5.73841497 14.91314701 1 9 C0.41734375 8.28328125 -0.1653125 7.5665625 -0.765625 6.828125 C-2 5 -2 5 -1.75 2.8125 C-1 1 -1 1 0 0 Z " fill="#F0F2EE" transform="translate(264,288)"/>
<path d="M0 0 C0.99 2.97 0.99 2.97 2 6 C-3.61504337 11.12992014 -9.24128108 16.23936257 -14.98046875 21.23046875 C-19.02665089 24.77576954 -23.00743187 28.39458999 -27 32 C-32.28259058 36.77033937 -37.57934135 41.51894407 -42.9453125 46.1953125 C-46.99969003 49.75638173 -50.9951293 53.3834804 -55 57 C-60.28259058 61.77033937 -65.57934135 66.51894407 -70.9453125 71.1953125 C-74.99969003 74.75638173 -78.9951293 78.3834804 -83 82 C-88.27985576 86.76786975 -93.57291806 91.51512218 -98.9375 96.1875 C-101.30964429 98.27211164 -103.65556065 100.38428644 -106 102.5 C-108.98062721 105.18983431 -111.97245233 107.86310364 -115 110.5 C-119.71701284 114.61081039 -124.35638889 118.80667845 -129 123 C-138.48872041 131.56860207 -138.48872041 131.56860207 -142.9375 135.4375 C-146.16559512 138.24822525 -149.33738443 141.115799 -152.5 144 C-156.28934126 147.45575413 -160.11083698 150.8652289 -163.98046875 154.23046875 C-168.02666383 157.77578088 -172.00683622 161.39522905 -176 165 C-178.49687992 167.24796977 -180.99453151 169.49508007 -183.4921875 171.7421875 C-185.18592894 173.26708244 -186.87861169 174.79315402 -188.5703125 176.3203125 C-192.97590339 180.29477523 -197.40528272 184.23579301 -201.8828125 188.12890625 C-204.39018296 190.34482959 -206.84901589 192.61040908 -209.3125 194.875 C-215.56842582 200.58124196 -221.94405231 206.29603487 -229 211 C-229 208 -229 208 -227.77734375 206.66796875 C-227.17019531 206.17941406 -226.56304687 205.69085938 -225.9375 205.1875 C-221.6940979 201.63751352 -217.65349909 197.91401295 -213.625 194.125 C-208.6372796 189.44843789 -203.61298817 184.82287022 -198.515625 180.265625 C-194.96731202 177.0699394 -191.46422274 173.82624735 -187.95874023 170.58374023 C-184.29289068 167.19297714 -180.61975871 163.8104369 -176.9375 160.4375 C-176.44580322 159.98705322 -175.95410645 159.53660645 -175.44750977 159.07250977 C-173.47211162 157.26321506 -171.4963019 155.45437012 -169.52050781 153.64550781 C-163.83677654 148.44135308 -158.16040815 143.22952368 -152.5 138 C-146.84111032 132.77187921 -141.16617168 127.56155911 -135.48388672 122.35888672 C-132.98835593 120.07357504 -130.49425473 117.7867042 -128 115.5 C-127.00000675 114.58332596 -126.00000676 113.6666593 -125 112.75 C-124.505 112.29625 -124.01 111.8425 -123.5 111.375 C-118 106.33333333 -112.5 101.29166667 -107 96.25 C-106.50483887 95.79608887 -106.00967773 95.34217773 -105.49951172 94.87451172 C-104.50119339 93.95941367 -103.50282114 93.04437445 -102.50439453 92.12939453 C-99.9782158 89.81421148 -97.45303168 87.4979599 -94.9296875 85.1796875 C-90.32650235 80.95233249 -85.71586224 76.73473917 -81.0625 72.5625 C-76.09487617 68.10356085 -71.19316748 63.57561669 -66.29296875 59.04296875 C-63.18217146 56.16605226 -60.06199517 53.29952732 -56.9375 50.4375 C-56.44580322 49.98705322 -55.95410645 49.53660645 -55.44750977 49.07250977 C-53.47211162 47.26321506 -51.4963019 45.45437012 -49.52050781 43.64550781 C-43.83677654 38.44135308 -38.16040815 33.22952368 -32.5 28 C-27.34688024 23.23914865 -22.18387559 18.48944894 -17.00390625 13.7578125 C-14.87328542 11.80832616 -12.75935073 9.8421643 -10.65234375 7.8671875 C-10.10392822 7.35615479 -9.5555127 6.84512207 -8.99047852 6.31860352 C-7.93384113 5.33350513 -6.88078115 4.34455192 -5.83178711 3.35131836 C-2.22489617 0 -2.22489617 0 0 0 Z " fill="#F8F8F8" transform="translate(319,173)"/>
<path d="M0 0 C1.98 0.66 3.96 1.32 6 2 C4.6094672 5.11159151 2.97662583 7.30433009 0.62109375 9.7578125 C-0.3829248 10.81210449 -0.3829248 10.81210449 -1.40722656 11.88769531 C-2.1184668 12.62600586 -2.82970703 13.36431641 -3.5625 14.125 C-5.02813931 15.66330491 -6.49298897 17.20236258 -7.95703125 18.7421875 C-8.66037598 19.48049805 -9.3637207 20.21880859 -10.08837891 20.97949219 C-13.05616306 24.11632254 -15.93133036 27.33172037 -18.8046875 30.5546875 C-21.46733527 33.52055494 -24.16842041 36.44925724 -26.875 39.375 C-30.77961596 43.59618973 -34.6785393 47.82228923 -38.5625 52.0625 C-39.01222168 52.55347168 -39.46194336 53.04444336 -39.92529297 53.55029297 C-40.83062602 54.53884515 -41.73589963 55.52745177 -42.64111328 56.51611328 C-44.92642496 59.01164407 -47.2132958 61.50574527 -49.5 64 C-50.41667404 64.99999325 -51.3333407 65.99999324 -52.25 67 C-97.625 116.5 -143 166 -189.75 217 C-190.2042334 217.49556396 -190.6584668 217.99112793 -191.12646484 218.50170898 C-192.03810114 219.49614766 -192.9498837 220.49045227 -193.86181641 221.48461914 C-196.23169862 224.06859626 -198.5985741 226.65523946 -200.9609375 229.24609375 C-201.44884766 229.78041016 -201.93675781 230.31472656 -202.43945312 230.86523438 C-203.79113662 232.34564963 -205.14169929 233.82708803 -206.4921875 235.30859375 C-208.94077644 237.93644076 -211.44472245 240.47677791 -214 243 C-213.4129951 239.69798475 -212.40207313 238.0110359 -210.0859375 235.609375 C-209.19684692 234.67484497 -209.19684692 234.67484497 -208.28979492 233.72143555 C-207.6579126 233.07086182 -207.02603027 232.42028809 -206.375 231.75 C-205.08638496 230.39794943 -203.79861408 229.04509376 -202.51171875 227.69140625 C-201.89731934 227.0483252 -201.28291992 226.40524414 -200.64990234 225.74267578 C-198.23326823 223.19015516 -195.92989311 220.54957361 -193.63671875 217.88671875 C-191.62126228 215.56341213 -189.56151538 213.28251535 -187.5 211 C-184.84886006 208.06321535 -182.21709829 205.11397458 -179.625 202.125 C-176.17283922 198.15902924 -172.61249119 194.29482354 -169.05175781 190.42675781 C-165.89550293 186.99245708 -162.79792941 183.5157942 -159.7421875 179.9921875 C-157.68499601 177.63979365 -155.59403085 175.31965034 -153.5 173 C-150.82951656 170.04130249 -148.17701942 167.07073528 -145.5625 164.0625 C-141.91062947 159.86835635 -138.15733816 155.76905708 -134.41015625 151.66015625 C-131.83006864 148.81244205 -129.29798144 145.92755982 -126.77734375 143.02734375 C-123.94688384 139.79875322 -121.06038793 136.62086825 -118.18359375 133.43359375 C-116.29151315 131.32488854 -114.42094242 129.20080199 -112.5625 127.0625 C-108.91062947 122.86835635 -105.15733816 118.76905708 -101.41015625 114.66015625 C-98.83006864 111.81244205 -96.29798144 108.92755982 -93.77734375 106.02734375 C-91.70640513 103.66510827 -89.60487152 101.33204147 -87.5 99 C-84.81016569 96.01937279 -82.13689636 93.02754767 -79.5 90 C-76.10625985 86.10348353 -72.64569997 82.26935055 -69.18359375 78.43359375 C-67.29151315 76.32488854 -65.42094242 74.20080199 -63.5625 72.0625 C-59.91062947 67.86835635 -56.15733816 63.76905708 -52.41015625 59.66015625 C-49.83006864 56.81244205 -47.29798144 53.92755982 -44.77734375 51.02734375 C-42.70640513 48.66510827 -40.60487152 46.33204147 -38.5 44 C-35.81016569 41.01937279 -33.13689636 38.02754767 -30.5 35 C-25.62856797 29.41020011 -20.6410485 23.92465102 -15.671875 18.421875 C-12.11949098 14.48283694 -8.57339502 10.53860679 -5.0625 6.5625 C-4.51722656 5.94503906 -3.97195313 5.32757813 -3.41015625 4.69140625 C-1.81877961 2.84382494 -1.81877961 2.84382494 0 0 Z " fill="#C3C8BE" transform="translate(333,191)"/>
<path d="M0 0 C0.66 0 1.32 0 2 0 C3.18850856 1.49325434 4.2986053 3.04901283 5.375 4.625 C8.70033658 9.32279368 12.22429331 13.71999311 16 18.0625 C20.0403566 22.71613059 23.98899311 27.41095066 27.8125 32.24609375 C30.66072412 35.83180447 33.54822469 39.38483486 36.4375 42.9375 C37.00331787 43.63343262 37.56913574 44.32936523 38.15209961 45.04638672 C41.96729308 49.73632077 45.7935303 54.41710315 49.625 59.09375 C52.59088194 62.7230529 55.54565306 66.36130563 58.5 70 C63.65220766 76.34523326 68.81891905 82.67830794 74 89 C79.74871135 96.01428587 85.47666001 103.0450735 91.19335938 110.08544922 C95.08177519 114.8730327 98.97876939 119.65340867 102.890625 124.421875 C104.34422152 126.19849297 105.79179319 127.98005171 107.234375 129.765625 C118.00152449 144.52111422 118.00152449 144.52111422 134 151 C130.87483809 153.08344127 129.86201549 153.34215176 126.25 153.4375 C125.43015625 153.47746094 124.6103125 153.51742187 123.765625 153.55859375 C116.96483695 152.18498825 112.68415997 146.84734376 108.75 141.5 C107.79905533 140.2483405 106.84587255 138.9983787 105.890625 137.75 C105.41173828 137.12222656 104.93285156 136.49445313 104.43945312 135.84765625 C102.21316402 132.99003143 99.86221345 130.24543478 97.5 127.5 C93.73517441 123.10736954 90.10793065 118.63388846 86.5625 114.0625 C82.28707155 108.55423224 77.82971203 103.23686339 73.26757812 97.96459961 C69.8120696 93.96593817 66.46594025 89.89976716 63.1875 85.75390625 C60.33927609 82.16819579 57.45179168 78.61515157 54.5625 75.0625 C53.99958252 74.37019287 53.43666504 73.67788574 52.85668945 72.96459961 C48.24884798 67.30066898 43.62780153 61.64763187 39 56 C36.74450597 53.24372321 34.48944257 50.48709445 32.234375 47.73046875 C30.78702949 45.96177205 29.33914699 44.19351457 27.890625 42.42578125 C24.5398369 38.33512935 21.19388397 34.24065262 17.859375 30.13671875 C17.03373047 29.12061523 17.03373047 29.12061523 16.19140625 28.08398438 C15.06778136 26.69956433 13.9453759 25.31415365 12.82421875 23.92773438 C10.31410353 20.82717835 7.79429262 17.74034256 5.203125 14.70703125 C4.39359375 13.75183594 3.5840625 12.79664063 2.75 11.8125 C2.04359375 10.99394531 1.3371875 10.17539062 0.609375 9.33203125 C-1.14294645 6.79286643 -1.81405174 5.07331157 -2 2 C-1.34 1.34 -0.68 0.68 0 0 Z " fill="#AFAFAF" transform="translate(314,314)"/>
<path d="M0 0 C1.09441406 0.36738281 1.09441406 0.36738281 2.2109375 0.7421875 C2.2109375 1.7321875 2.2109375 2.7221875 2.2109375 3.7421875 C0.2265625 5.6171875 0.2265625 5.6171875 -2.5390625 7.7421875 C-6.78746409 11.09733542 -10.8361707 14.54523833 -14.7890625 18.2421875 C-19.37546481 22.51259171 -24.12360079 26.49986198 -29.0078125 30.4296875 C-32.02925438 32.9418976 -34.91348023 35.56619577 -37.7890625 38.2421875 C-42.37666363 42.51136902 -47.12348978 46.49977267 -52.0078125 50.4296875 C-55.02925586 52.94189883 -57.91346328 55.56621207 -60.7890625 58.2421875 C-65.39907889 62.5317651 -70.16689486 66.54629647 -75.07421875 70.49609375 C-77.89579745 72.8304934 -80.59496962 75.26209348 -83.2890625 77.7421875 C-87.73633362 81.83569841 -92.33623713 85.66661249 -97.0390625 89.4609375 C-100.82811657 92.60413008 -104.42175602 95.94377345 -108.04296875 99.27734375 C-110.70781416 101.66926047 -113.43738075 103.93473634 -116.2265625 106.1796875 C-120.84356671 109.90499562 -125.23189564 113.81414224 -129.56982422 117.85595703 C-132.25867612 120.35863719 -134.98961729 122.75308104 -137.8515625 125.0546875 C-142.91028365 129.68287919 -144.11823454 134.0339079 -144.7890625 140.7421875 C-147.38633083 138.14491917 -147.23806495 136.8061634 -147.4140625 133.1796875 C-147.28855062 126.99269011 -145.60923857 124.14238622 -141.25390625 119.87890625 C-137.79814185 116.88318022 -134.29487411 113.9664083 -130.7109375 111.125 C-127.6215913 108.60561339 -124.70208184 105.96031511 -121.7890625 103.2421875 C-117.20211341 98.97234261 -112.45457439 94.98455339 -107.5703125 91.0546875 C-104.54887062 88.5424774 -101.66464477 85.91817923 -98.7890625 83.2421875 C-94.20146137 78.97300598 -89.45463522 74.98460233 -84.5703125 71.0546875 C-81.54886914 68.54247617 -78.66466172 65.91816293 -75.7890625 63.2421875 C-71.17904611 58.9526099 -66.41123014 54.93807853 -61.50390625 50.98828125 C-57.72196771 47.85933929 -54.1415038 44.52701305 -50.53125 41.203125 C-47.88890367 38.83178855 -45.18212083 36.58965753 -42.4140625 34.3671875 C-38.2109185 30.97832781 -34.22703073 27.42979484 -30.2890625 23.7421875 C-25.49383226 19.25217893 -20.56954956 15.01826845 -15.42578125 10.92578125 C-11.78737503 7.91264187 -8.4286876 4.62502581 -5.078125 1.296875 C-2.7890625 -0.2578125 -2.7890625 -0.2578125 0 0 Z " fill="#B0B0B0" transform="translate(190.7890625,319.2578125)"/>
<path d="M0 0 C-2.2525817 5.05297434 -6.04790562 8.59006515 -9.8125 12.5625 C-10.88081055 13.71395508 -10.88081055 13.71395508 -11.97070312 14.88867188 C-12.66744141 15.62794922 -13.36417969 16.36722656 -14.08203125 17.12890625 C-14.71343018 17.79994385 -15.3448291 18.47098145 -15.99536133 19.16235352 C-18.17714516 21.16238846 -20.44273396 22.52269286 -23 24 C-24.74214822 25.50334909 -26.44859233 27.04867637 -28.125 28.625 C-31.80501131 32.02913362 -35.52915378 35.29837967 -39.4375 38.4375 C-43.43224521 41.65943533 -47.24549867 45.00659729 -51 48.5 C-54.79680074 52.03207868 -58.65571129 55.42045782 -62.6875 58.6875 C-78.05287005 71.15666361 -90.57055506 85.46567739 -93 106 C-93.45744924 115.32636302 -93.25393877 124.6697036 -93 134 C-93.66 134 -94.32 134 -95 134 C-100.97933043 118.92168847 -100.79948006 102.52395484 -94.55859375 87.5390625 C-88.26645896 74.07885769 -79.13056561 64.81865298 -67.83056641 55.51611328 C-64.85318102 53.0501806 -61.92914097 50.52285271 -59 48 C-57.83359774 46.9996916 -56.66693075 45.99969182 -55.5 45 C-54.9225 44.505 -54.345 44.01 -53.75 43.5 C-51.125 41.25 -51.125 41.25 -48.5 39 C-47.9222583 38.5047583 -47.3445166 38.0095166 -46.74926758 37.49926758 C-45.58518023 36.50154805 -44.42095544 35.50398886 -43.2565918 34.5065918 C-40.29930113 31.97301257 -37.34461631 29.43649863 -34.39453125 26.89453125 C-28.20256441 21.56442835 -21.96602217 16.31390253 -15.609375 11.1796875 C-11.97385753 8.14283309 -8.5280206 4.91378579 -5.09375 1.65234375 C-3 0 -3 0 0 0 Z " fill="#F5F5F5" transform="translate(408,26)"/>
<path d="M0 0 C-0.56615984 3.88350268 -2.33844647 5.75770314 -5 8.5625 C-8.29963279 12.11795875 -11.4566226 15.72256855 -14.5 19.5 C-17.4081338 23.0947765 -20.38541332 26.58260628 -23.5 30 C-26.52282421 33.31989486 -29.42512161 36.69764112 -32.25 40.1875 C-36.92192529 45.9563121 -41.77833282 51.55092947 -46.65234375 57.1484375 C-49.39361001 60.29702771 -52.11737895 63.46000487 -54.83056641 66.6328125 C-55.85284277 67.82735358 -56.87722925 69.02009234 -57.90380859 70.2109375 C-59.92621922 72.55841446 -61.92510583 74.9053135 -63.84765625 77.3359375 C-71.87528717 87.3162354 -82.94497055 93.2298331 -95 97 C-95.74378906 97.24492187 -96.48757813 97.48984375 -97.25390625 97.7421875 C-108.52236863 100.86400061 -122.06279997 99.7607407 -133 96 C-133.66 95.34 -134.32 94.68 -135 94 C-133.94425781 94.0314209 -133.94425781 94.0314209 -132.8671875 94.06347656 C-110.09758968 94.6505517 -88.90188371 92.8155952 -71.0625 77.1875 C-66.76703546 72.99461372 -62.96142806 68.49389546 -59.24609375 63.78515625 C-56.93188644 60.91553918 -54.50034126 58.20838198 -52 55.5 C-48.74492917 51.9644923 -45.63363119 48.37221213 -42.625 44.625 C-38.22830612 39.17403672 -33.51194424 34.07410998 -28.7421875 28.953125 C-23.2297846 23.2692037 -23.2297846 23.2692037 -18.8203125 16.76953125 C-16.22607017 12.82249732 -12.90224197 9.87034243 -9.4375 6.6875 C-8.40979492 5.71973633 -8.40979492 5.71973633 -7.36132812 4.73242188 C-2.25832507 0 -2.25832507 0 0 0 Z " fill="#C2C7BD" transform="translate(486,104)"/>
<path d="M0 0 C22.47462733 12.91880951 42.52318587 32.89162365 61.40283203 50.51611328 C63.01973105 52.0183316 64.64674795 53.50876193 66.27734375 54.99609375 C73.72572139 61.79976225 80.92442919 68.8096902 88 76 C86.25 79.875 86.25 79.875 84 81 C83.5831041 80.51245743 83.16620819 80.02491486 82.73667908 79.52259827 C78.46056839 74.5721218 74.01056358 69.86355881 69.37890625 65.24609375 C68.67531479 64.54154556 67.97172333 63.83699738 67.24681091 63.11109924 C65.76985352 61.63346633 64.29165258 60.15707543 62.81225586 58.68188477 C60.56834915 56.44333519 58.32983296 54.19949527 56.09179688 51.95507812 C54.64615382 50.51009596 53.20020055 49.06542408 51.75390625 47.62109375 C51.0953212 46.96048447 50.43673615 46.29987518 49.75819397 45.61924744 C45.90196143 41.78208269 41.94052937 38.12341136 37.81500244 34.57688904 C34.86074726 32.01020785 32.0337167 29.31005579 29.1875 26.625 C24.13360417 21.89159844 18.95561829 17.4028136 13.546875 13.07421875 C10.18713438 10.33798828 6.97920716 7.44940399 3.77734375 4.53125 C2.06737572 2.93160961 2.06737572 2.93160961 0 2 C0 1.34 0 0.68 0 0 Z " fill="#C2C7BD" transform="translate(193,119)"/>
<path d="M0 0 C5.96226216 5.01372045 11.6925996 10.26635059 17.41943359 15.54443359 C19.94206737 17.86756344 22.47126655 20.18351435 25 22.5 C26.00132909 23.41793929 27.00263114 24.33590808 28.00390625 25.25390625 C29.99031882 27.07483831 31.97734387 28.89509856 33.96484375 30.71484375 C34.95574281 31.62238094 35.94662821 32.52993303 36.9375 33.4375 C37.42557129 33.88432129 37.91364258 34.33114258 38.41650391 34.79150391 C41.09658552 37.24729625 43.76922019 39.71076179 46.43359375 42.18359375 C47.00795166 42.71605713 47.58230957 43.24852051 48.17407227 43.79711914 C49.2708248 44.81453146 50.36645199 45.83315886 51.46069336 46.85327148 C53.9598116 49.17072259 56.4778274 51.39331814 59.1484375 53.51171875 C61.98782004 55.98937173 63.77657959 58.24653351 65.75 61.4375 C66.32234375 62.34371094 66.8946875 63.24992187 67.484375 64.18359375 C70.49845045 69.78449169 71.28383311 74.57054737 71.125 80.875 C71.11597656 81.56335938 71.10695313 82.25171875 71.09765625 82.9609375 C71.07432513 84.64077838 71.03846326 86.32043746 71 88 C70.67 88 70.34 88 70 88 C69.85304688 87.03320312 69.70609375 86.06640625 69.5546875 85.0703125 C66.4988392 66.67600081 55.459654 56.09765885 42.22558594 43.81811523 C34.62621508 36.73494354 27.31610139 29.37360501 20.01904297 21.98168945 C14.84754771 16.76381912 9.60010486 11.75410085 4 7 C1.5 4.75 1.5 4.75 0 3 C0 2.01 0 1.02 0 0 Z " fill="#C1C6BC" transform="translate(406,369)"/>
<path d="M0 0 C8.58085148 8.30404982 15.99322164 17.35946808 23 27 C22.34 28.32 21.68 29.64 21 31 C20.01 31 19.02 31 18 31 C16.14612568 28.89454984 14.47621082 26.81058745 12.8125 24.5625 C11.83580663 23.27546309 10.85662664 21.9903095 9.875 20.70703125 C9.39160156 20.07490723 8.90820312 19.4427832 8.41015625 18.79150391 C5.89676635 15.59841957 3.14149258 12.63381574 0.36328125 9.671875 C-1 8 -1 8 -1 6 C-3.71224618 7.61268692 -6.37352812 9.24901874 -9 11 C-7.59155282 7.78475695 -5.89655214 5.67816132 -3.375 3.25 C-2.74335938 2.63640625 -2.11171875 2.0228125 -1.4609375 1.390625 C-0.73777344 0.70226562 -0.73777344 0.70226562 0 0 Z " fill="#C4C9BF" transform="translate(314,232)"/>
<path d="M0 0 C0.66 0.33 1.32 0.66 2 1 C1.27683594 1.68835938 1.27683594 1.68835938 0.5390625 2.390625 C-0.09257812 3.00421875 -0.72421875 3.6178125 -1.375 4.25 C-2.00148437 4.85328125 -2.62796875 5.4565625 -3.2734375 6.078125 C-5.05756652 7.88290202 -5.05756652 7.88290202 -5.9453125 9.97265625 C-7.34847154 12.66983973 -9.20860541 14.19703223 -11.5 16.1875 C-12.39460938 16.97253906 -13.28921875 17.75757813 -14.2109375 18.56640625 C-15.13132813 19.36949219 -16.05171875 20.17257812 -17 21 C-18.71091756 22.53879823 -20.41932775 24.08038968 -22.125 25.625 C-25.68176201 28.82774526 -29.27103356 31.98854424 -32.8828125 35.12890625 C-35.39018296 37.34482959 -37.84901589 39.61040908 -40.3125 41.875 C-46.56842582 47.58124196 -52.94405231 53.29603487 -60 58 C-60 55 -60 55 -58.77734375 53.66796875 C-58.17019531 53.17941406 -57.56304687 52.69085938 -56.9375 52.1875 C-52.6940979 48.63751352 -48.65349909 44.91401295 -44.625 41.125 C-39.6372796 36.44843789 -34.61298817 31.82287022 -29.515625 27.265625 C-25.97463532 24.07653491 -22.47838019 20.83996145 -18.98071289 17.60351562 C-14.12478371 13.1107205 -9.24664712 8.64263114 -4.36328125 4.1796875 C-2.88277878 2.81419927 -1.42415688 1.42415688 0 0 Z " fill="#F2F3F2" transform="translate(150,326)"/>
<path d="M0 0 C3.80635497 3.20760251 7.54563567 6.40746109 11 10 C7.43235179 9.42380903 5.74840503 8.13030516 3.25 5.5625 C2.63640625 4.94503906 2.0228125 4.32757813 1.390625 3.69140625 C0 2 0 2 0 0 Z " fill="#BBBFB6" transform="translate(395,359)"/>
<path d="M0 0 C0.99 0.33 1.98 0.66 3 1 C1.71372289 2.17260611 0.42080217 3.3379283 -0.875 4.5 C-1.59429687 5.1496875 -2.31359375 5.799375 -3.0546875 6.46875 C-5 8 -5 8 -7 8 C-7 6 -7 6 -5.57421875 4.45703125 C-4.95160156 3.91433594 -4.32898438 3.37164062 -3.6875 2.8125 C-3.07261719 2.26207031 -2.45773438 1.71164062 -1.82421875 1.14453125 C-1.22222656 0.76683594 -0.62023437 0.38914062 0 0 Z " fill="#EFF0EE" transform="translate(74,396)"/>
<path d="M0 0 C0.99 0.33 1.98 0.66 3 1 C-0.96 4.465 -0.96 4.465 -5 8 C-5.66 7.34 -6.32 6.68 -7 6 C-5.90716423 4.96704564 -4.80029421 3.94892165 -3.6875 2.9375 C-3.07261719 2.36902344 -2.45773438 1.80054688 -1.82421875 1.21484375 C-0.92123047 0.61349609 -0.92123047 0.61349609 0 0 Z " fill="#F1F1F0" transform="translate(86,385)"/>
</svg>
