<?xml version="1.0" encoding="UTF-8"?>
<svg version="1.1" xmlns="http://www.w3.org/2000/svg" width="512" height="512">
<path d="M0 0 C1.80597656 -0.0299707 1.80597656 -0.0299707 3.6484375 -0.06054688 C10.71897223 -0.05682554 17.22248389 0.66741824 24.109375 2.17529297 C24.93547146 2.35309768 25.76156792 2.53090239 26.6126976 2.71409512 C35.27043632 4.60903451 43.83036042 6.83972668 52.390625 9.12890625 C54.12291944 9.58803714 55.85534053 10.04669042 57.58787537 10.50491333 C62.25478547 11.74040957 66.92018247 12.98152437 71.58523178 14.22402573 C79.61856791 16.36267337 87.65408066 18.49314104 95.68959618 20.62358284 C97.80436838 21.18431136 99.91908476 21.74525046 102.03374672 22.30639458 C118.09906002 26.56831457 134.18063022 30.76431554 150.2733345 34.92154884 C157.36808887 36.75552883 164.46104792 38.5964456 171.55417061 40.43672466 C177.30621566 41.92817576 183.05953314 43.41433915 188.8157959 44.88943481 C194.24694576 46.28124744 199.6746835 47.68566184 205.10017586 49.09936142 C207.09864037 49.61755126 209.09834883 50.13097102 211.09936333 50.63922501 C213.84662179 51.33762905 216.58897165 52.052876 219.33081055 52.7722168 C220.12241199 52.96905847 220.91401344 53.16590014 221.72960281 53.3687067 C228.31690198 55.12885511 234.95622443 57.81416121 238.6875 63.8125 C241.64459722 70.67296554 241.76808141 76.46826459 239.25 83.4375 C234.09838085 91.96986922 223.9274591 93.73435904 214.78051758 96.07885742 C213.89297287 96.31192093 213.00542816 96.54498444 212.09098816 96.78511047 C209.19379201 97.54410961 206.2942753 98.29376832 203.39453125 99.04296875 C201.36281082 99.57248386 199.33121179 100.10246502 197.29972839 100.63288879 C193.05869568 101.73874777 188.81654854 102.84018677 184.57348633 103.93823242 C179.14468709 105.3433274 173.71833682 106.75761944 168.29272938 108.17498302 C164.10444258 109.2683695 159.91514164 110.35782593 155.72550011 111.44600868 C153.72423312 111.96611146 151.7232239 112.48720717 149.72248268 113.00932884 C146.92640227 113.73817591 144.12905589 114.46194577 141.33129883 115.18432617 C140.51190826 115.39886444 139.6925177 115.61340271 138.84829712 115.83444214 C134.32360476 116.99629113 129.88786663 117.86943199 125.25 118.4375 C125.45979492 119.10128662 125.66958984 119.76507324 125.88574219 120.44897461 C131.03622055 136.79056472 135.98913932 153.18409984 140.8125 169.625 C141.08356567 170.54570282 141.35463135 171.46640564 141.63391113 172.41500854 C142.40611071 175.04011805 143.17444375 177.66632502 143.94140625 180.29296875 C144.17535599 181.08753479 144.40930573 181.88210083 144.65034485 182.70074463 C146.25 188.20727842 146.25 188.20727842 146.25 190.4375 C146.99644775 190.42861755 147.74289551 190.41973511 148.51196289 190.4105835 C155.57316532 190.33017782 162.63420711 190.26940447 169.69573975 190.23025131 C173.32551731 190.20944485 176.95491415 190.18125646 180.58447266 190.13574219 C184.09231263 190.09203341 187.5997882 190.06831079 191.10787964 190.05799103 C193.08644644 190.04708746 195.06486821 190.01590165 197.04321289 189.98431396 C204.76945261 189.98240166 210.85575434 190.32961174 216.76074219 195.84979248 C221.69519611 201.36639364 223.12031529 207.21052465 223.25 214.4375 C222.71923028 221.38468587 220.11672161 226.48106924 215.25 231.4375 C210.41582778 235.43899184 205.39067846 236.15901118 199.25 236.4375 C198.31144245 245.25994095 198.31144245 253.61505905 199.25 262.4375 C200.24 262.355 201.23 262.2725 202.25 262.1875 C208.14027664 262.19942364 212.55329225 265.04928457 217 268.6875 C222.2475174 275.10113237 223.85449195 280.22973402 223.58984375 288.58203125 C223.13667827 292.38966307 222.07864846 295.08497782 220.25 298.4375 C221.24 298.746875 221.24 298.746875 222.25 299.0625 C235.7195406 305.23603944 245.4524354 317.65357811 250.5625 331.25 C255.44511395 345.19738247 254.93131665 361.8190498 249.25 375.4375 C245.67317502 382.8656093 241.50597473 389.03720571 235.25 394.4375 C236.10271484 394.73140625 236.10271484 394.73140625 236.97265625 395.03125 C244.093294 397.78915978 248.99352678 401.87927316 252.41796875 408.796875 C254.39701301 415.07778543 254.4126575 422.81649534 251.6875 428.875 C248.45345321 434.29948273 243.40848377 438.77304493 237.25 440.4375 C235.93 440.4375 234.61 440.4375 233.25 440.4375 C233.22100401 444.20831722 233.20320271 447.97910583 233.1875 451.75 C233.17912109 452.82185547 233.17074219 453.89371094 233.16210938 454.99804688 C233.15888672 456.02607422 233.15566406 457.05410156 233.15234375 458.11328125 C233.14710693 459.06114502 233.14187012 460.00900879 233.13647461 460.9855957 C233.14501146 463.57588681 233.14501146 463.57588681 234.25 466.4375 C236.34881273 467.39452251 236.34881273 467.39452251 238.875 468.125 C245.34344165 470.53444818 249.37011852 474.62727043 252.4140625 480.796875 C254.40123746 487.07411926 254.41187939 494.81822521 251.6875 500.875 C248.31860058 506.52567172 243.46764886 510.38816412 237.25 512.4375 C234.71793547 512.62371611 232.29820652 512.70979189 229.76819611 512.69476891 C229.02006047 512.69827498 228.27192483 512.70178105 227.50111842 512.70539337 C224.98606416 512.71472127 222.47124074 512.70978047 219.95617676 512.70492554 C218.1379628 512.70866113 216.31975045 512.71326228 214.50154066 512.71865618 C209.49842141 512.73091346 204.49536889 512.73062249 199.49223804 512.72826743 C194.09869667 512.72785994 188.70517687 512.73889212 183.31164551 512.74838257 C172.7407604 512.76500979 162.1698976 512.77049294 151.59900051 512.77160732 C143.00511963 512.77255723 134.41124611 512.77666464 125.81736755 512.78300858 C101.45357062 512.80062767 77.08979132 512.8098467 52.72598797 512.80834763 C50.75497353 512.80822776 50.75497353 512.80822776 48.74414062 512.80810547 C47.42852644 512.80802371 46.11291225 512.80794195 44.75743097 512.80785771 C23.44635662 512.80704519 2.13537541 512.82617249 -19.17568153 512.8543822 C-41.05633775 512.88311728 -62.93695949 512.89692207 -84.81763506 512.89519465 C-97.1023663 512.89453084 -109.38702343 512.90001888 -121.67173767 512.92155075 C-132.13422327 512.93977097 -142.5966012 512.94410311 -153.0590958 512.9305319 C-158.3953686 512.92400584 -163.73143488 512.92387204 -169.06768799 512.9412384 C-173.95834597 512.9569905 -178.84863406 512.9540835 -183.73928314 512.93667014 C-185.5031504 512.9336049 -187.2670454 512.93721456 -189.03087991 512.94839029 C-207.90318632 513.05999083 -223.26087809 508.42796746 -237.23828125 495.1484375 C-249.67169524 481.72885849 -253.40037016 466.39827631 -253.0625 448.65234375 C-252.44135468 434.25988911 -245.63721705 421.64649039 -235.75 411.4375 C-237.3606734 410.36371773 -238.98162083 409.30195188 -240.65234375 408.32421875 C-245.86199308 405.25442538 -249.29322886 402.42388083 -252 396.875 C-253.80475466 388.6032078 -253.67459767 381.11182573 -249.4375 373.63671875 C-244.91702271 367.74544858 -239.94638398 365.63689733 -232.75 364.4375 C-232.75 355.8575 -232.75 347.2775 -232.75 338.4375 C-234.73 338.1075 -236.71 337.7775 -238.75 337.4375 C-245.06635542 334.39174933 -248.87421872 330.78818366 -251.75 324.4375 C-253.97701241 317.75646276 -253.65571581 310.50126021 -250.8125 304.0625 C-247.44251048 298.06604301 -242.19497769 294.5858259 -235.75 292.4375 C-233.4674301 292.28604901 -231.18112294 292.18863021 -228.89453125 292.12109375 C-228.23289474 292.10031265 -227.57125824 292.07953156 -226.88957214 292.05812073 C-224.78065148 291.99285273 -222.67160865 291.93384656 -220.5625 291.875 C-219.13084685 291.83179311 -217.69920596 291.78817812 -216.26757812 291.74414062 C-212.76184846 291.63719494 -209.25598214 291.53586359 -205.75 291.4375 C-206.28906982 290.85597168 -206.82813965 290.27444336 -207.38354492 289.67529297 C-219.67470305 276.18211655 -223.51675873 262.09737772 -223.03125 244.1875 C-222.36370572 229.96880692 -215.62954868 216.58316446 -205.75 206.4375 C-191.76798741 194.03985144 -177.52726144 190.07103212 -159.25 190.3125 C-157.950625 190.32152344 -156.65125 190.33054688 -155.3125 190.33984375 C-152.12480701 190.36328267 -148.9375018 190.3960956 -145.75 190.4375 C-145.55623779 189.60589355 -145.36247559 188.77428711 -145.1628418 187.91748047 C-142.10623192 175.23888462 -138.39265695 162.76481135 -134.66723633 150.26904297 C-133.55073306 146.5230203 -132.44003601 142.77531048 -131.33007812 139.02734375 C-130.62273124 136.64573369 -129.91506109 134.26421961 -129.20703125 131.8828125 C-128.87476028 130.76214386 -128.54248932 129.64147522 -128.20014954 128.48684692 C-127.8928038 127.45752045 -127.58545807 126.42819397 -127.26879883 125.36767578 C-126.86386955 124.00777023 -126.86386955 124.00777023 -126.45075989 122.62039185 C-125.75 120.4375 -125.75 120.4375 -124.75 118.4375 C-125.30391922 118.35466766 -125.85783844 118.27183533 -126.42854309 118.18649292 C-136.59363051 116.50776456 -146.49627358 113.75299857 -156.44921875 111.1328125 C-158.45454612 110.60705898 -160.45990246 110.08141594 -162.46528625 109.55587769 C-166.65091386 108.45774242 -170.83560982 107.35613352 -175.01977539 106.25244141 C-180.36688294 104.84261605 -185.7170586 103.4448329 -191.06810284 102.05003548 C-195.20393254 100.96996721 -199.33761378 99.8818513 -203.47074318 98.79150009 C-205.44225057 98.27276296 -207.41451236 97.75688382 -209.38754845 97.24399185 C-212.14827598 96.52540474 -214.90580107 95.79557475 -217.6628418 95.06298828 C-218.87015205 94.75264648 -218.87015205 94.75264648 -220.10185242 94.43603516 C-226.31269928 92.76616712 -232.21822506 90.63614666 -237.125 86.375 C-239.94860035 81.27079936 -241.27967448 75.71643723 -240.33984375 69.8984375 C-238.97217059 65.42921047 -237.26647315 61.59330923 -233.75 58.4375 C-224.75208615 53.7972816 -214.37542365 51.754469 -204.64453125 49.19921875 C-202.79224592 48.70946992 -200.94000774 48.21954275 -199.08781433 47.72944641 C-195.2235557 46.70882929 -191.35794654 45.69351992 -187.49145508 44.68139648 C-182.54514021 43.38567316 -177.60383016 42.07184864 -172.66351795 40.75345135 C-168.84741462 39.73809477 -165.0282136 38.73481031 -161.20804405 37.73487282 C-159.38452186 37.25552663 -157.56212186 36.77188947 -155.7409153 36.2838192 C-153.19604571 35.60322156 -150.64730149 34.93963919 -148.09692383 34.2800293 C-147.35233917 34.07700195 -146.60775452 33.87397461 -145.84060669 33.66479492 C-141.18465662 32.48445037 -137.52149199 32.29202527 -132.75 33.4375 C-130.8125 35.5 -130.8125 35.5 -129.75 37.4375 C-126.45738124 36.6288257 -123.16607984 35.81491268 -119.875 35 C-118.46927734 34.65485352 -118.46927734 34.65485352 -117.03515625 34.30273438 C-116.13925781 34.08037109 -115.24335938 33.85800781 -114.3203125 33.62890625 C-113.49289551 33.42467041 -112.66547852 33.22043457 -111.81298828 33.01000977 C-109.71004845 32.49742006 -109.71004845 32.49742006 -107.75 31.4375 C-107.54375 30.32375 -107.3375 29.21 -107.125 28.0625 C-105.75 24.4375 -105.75 24.4375 -102.60961914 22.96875 C-96.04427139 20.76687692 -89.31455748 19.07598626 -82.62109375 17.3125 C-81.14382493 16.92063765 -79.6666176 16.52854343 -78.18946838 16.13623047 C-75.09959571 15.31663019 -72.0089488 14.50003436 -68.91772461 13.68554688 C-64.998815 12.65269517 -61.08200485 11.61212661 -57.16577053 10.56918335 C-54.1147324 9.75766058 -51.0625463 8.95052365 -48.01002693 8.14459229 C-46.5679051 7.76327342 -45.12613217 7.38063201 -43.68475151 6.996521 C-29.14341136 3.12624842 -15.15974858 -0.08813807 0 0 Z " fill="#020202" transform="translate(255.75,-0.4375)"/>
<path d="M0 0 C2.82219949 0.73836614 5.65360017 1.43125727 8.48828125 2.12011719 C16.78577135 4.14587161 25.07419264 6.18567729 33.26953125 8.59667969 C41.51224935 11.01981576 49.86258743 13.01881056 58.19970703 15.08813477 C68.02759249 17.52900885 77.82365129 20.04963358 87.5703125 22.79980469 C97.31486809 25.54451751 107.09582899 28.07378184 116.92456055 30.50073242 C122.06949167 31.77702301 127.18485423 33.09438875 132.26953125 34.59667969 C139.29923087 36.66576615 146.40693186 38.39938032 153.51953125 40.15917969 C161.85759529 42.22316998 170.16031705 44.31822403 178.3984375 46.75292969 C183.41756053 48.21029708 188.47761887 49.51030001 193.53515625 50.82714844 C196.51953125 51.65917969 196.51953125 51.65917969 198.51953125 52.65917969 C198.51953125 54.30917969 198.51953125 55.95917969 198.51953125 57.65917969 C185.20677256 61.88342042 171.76499395 65.44127706 158.20507812 68.76660156 C149.27814023 70.95645622 140.39440148 73.26867694 131.51953125 75.65917969 C128.43744716 76.4764527 125.35361811 77.28700146 122.26953125 78.09667969 C120.64973775 78.52245398 119.02994614 78.94823544 117.41015625 79.37402344 C116.60126953 79.58655762 115.79238281 79.7990918 114.95898438 80.01806641 C110.97889569 81.0640745 106.99923169 82.1116956 103.01953125 83.15917969 C101.43620003 83.57585437 99.85286669 83.99252103 98.26953125 84.40917969 C97.09390625 84.71855469 97.09390625 84.71855469 95.89453125 85.03417969 C88.76953125 86.90917969 88.76953125 86.90917969 86.39233398 87.53466797 C84.81626576 87.94948251 83.24025618 88.36451992 81.66430664 88.77978516 C77.59528072 89.8516672 73.52516711 90.91912149 69.453125 91.97949219 C67.78773204 92.41427934 66.12236696 92.84917332 64.45703125 93.28417969 C63.66095459 93.49123535 62.86487793 93.69829102 62.04467773 93.91162109 C57.11546007 95.2043772 52.24955926 96.61434244 47.4296875 98.27636719 C45.04298378 98.75468409 43.77969162 98.56859333 41.51953125 97.65917969 C39.66015625 96.05761719 39.66015625 96.05761719 37.76953125 94.03417969 C35.20527673 91.37111903 32.637398 88.81716891 29.83203125 86.40917969 C26.14848855 83.24147827 22.57968187 79.96376362 19.01953125 76.65917969 C15.47041082 73.36859105 11.91770633 70.09038836 8.26953125 66.90917969 C7.66496094 66.35875 7.06039063 65.80832031 6.4375 65.24121094 C4.51327366 63.56710017 4.51327366 63.56710017 2.0703125 62.23339844 C-0.98567246 60.22326076 -2.58382228 58.82582731 -4.48046875 55.65917969 C-5.30237753 51.08861109 -5.33086239 46.50055022 -5.23217773 41.86791992 C-5.10458161 33.8753823 -6.74136451 28.06455253 -11.79296875 21.78417969 C-18.08902347 16.80590386 -23.38377736 16.03944788 -31.3203125 16.24902344 C-36.88674835 16.97149039 -40.39026484 19.26513661 -44.0390625 23.44433594 C-49.09486587 30.19018123 -48.72965835 36.44478745 -48.77563477 44.4831543 C-48.78717691 45.89048295 -48.80766439 47.29776708 -48.8371582 48.70483398 C-48.87982532 50.74069893 -48.89599831 52.77526702 -48.90625 54.81152344 C-48.92083252 56.02831787 -48.93541504 57.2451123 -48.95043945 58.4987793 C-48.38784034 62.28207569 -47.47547613 63.363219 -44.48046875 65.65917969 C-37.17251389 69.24672117 -30.55700255 70.32332931 -22.48046875 69.65917969 C-20.89680515 69.05587927 -19.31347039 68.45171491 -17.73046875 67.84667969 C-15.25390625 67.26855469 -15.25390625 67.26855469 -12.48046875 67.65917969 C-7.72251092 70.69428515 -3.88531218 75.01106581 -0.01513672 79.07226562 C1.75931339 80.90712495 3.629461 82.5787136 5.58203125 84.22167969 C9.84215094 87.88908707 13.94019185 91.730163 18.04125977 95.57348633 C20.45364883 97.82037977 22.7698204 99.82603912 25.51953125 101.65917969 C25.51953125 102.31917969 25.51953125 102.97917969 25.51953125 103.65917969 C21.4500523 104.76774196 17.37896593 105.87014591 13.30639648 106.96728516 C11.92607549 107.34001517 10.5461783 107.71431886 9.16674805 108.09033203 C-2.73171525 111.3318313 -14.13903279 114.05556578 -26.54296875 114.03417969 C-27.538125 114.03256836 -28.53328125 114.03095703 -29.55859375 114.02929688 C-38.93161645 113.87628018 -47.48480294 112.15176982 -56.48046875 109.65917969 C-57.68058594 109.34722656 -58.88070312 109.03527344 -60.1171875 108.71386719 C-63.19599438 107.90775494 -66.2663625 107.07492778 -69.33642578 106.23632812 C-72.63362153 105.34876598 -75.94088744 104.50082151 -79.24707031 103.64746094 C-89.00053734 101.12828736 -98.71556349 98.49317329 -108.41796875 95.78417969 C-120.31696238 92.46843328 -132.26338856 89.39820305 -144.25756836 86.44873047 C-153.02904221 84.28888329 -161.75772409 82.00630403 -170.48046875 79.65917969 C-173.5625798 78.84200912 -176.64637773 78.0313414 -179.73046875 77.22167969 C-181.35547292 76.7946122 -182.98047279 76.36752841 -184.60546875 75.94042969 C-185.81976563 75.62138672 -185.81976563 75.62138672 -187.05859375 75.29589844 C-189.40778481 74.67828853 -191.75668383 74.05958217 -194.10546875 73.44042969 C-195.6471308 73.03416216 -197.18879749 72.62791226 -198.73046875 72.22167969 C-199.50285889 72.01808838 -200.27524902 71.81449707 -201.07104492 71.60473633 C-205.4306576 70.45704792 -209.7922676 69.31748967 -214.15625 68.18652344 C-223.3834954 65.79396201 -232.60457379 63.3850241 -241.79296875 60.84667969 C-242.92230835 60.53633789 -242.92230835 60.53633789 -244.07446289 60.21972656 C-249.23564052 58.7815938 -249.23564052 58.7815938 -251.48046875 57.65917969 C-251.48046875 56.00917969 -251.48046875 54.35917969 -251.48046875 52.65917969 C-246.63753627 50.97300765 -241.75303362 49.62957831 -236.79296875 48.34667969 C-235.08592172 47.90142767 -233.37889091 47.45611349 -231.671875 47.01074219 C-230.3727417 46.67284668 -230.3727417 46.67284668 -229.04736328 46.328125 C-225.10618416 45.30103438 -221.16848006 44.26083648 -217.23046875 43.22167969 C-212.12701221 41.87528105 -207.02129738 40.53863923 -201.91015625 39.22167969 C-192.20359702 36.71750228 -182.51063577 34.16797699 -172.85546875 31.47167969 C-171.98486816 31.23392822 -171.11426758 30.99617676 -170.21728516 30.7512207 C-163.92314658 29.0636149 -163.92314658 29.0636149 -158.48046875 25.65917969 C-157.11146521 22.0792171 -157.11146521 22.0792171 -156.48046875 18.65917969 C-153.23440779 17.78953939 -149.98314467 16.94121056 -146.73046875 16.09667969 C-145.81007813 15.84982422 -144.8896875 15.60296875 -143.94140625 15.34863281 C-142.60722656 15.00541992 -142.60722656 15.00541992 -141.24609375 14.65527344 C-140.02067871 14.33320923 -140.02067871 14.33320923 -138.77050781 14.00463867 C-136.2910964 13.63061232 -134.81393148 13.76887874 -132.48046875 14.65917969 C-130.73046875 16.72167969 -130.73046875 16.72167969 -129.48046875 18.65917969 C-123.31579738 18.00913902 -117.43520259 16.82028798 -111.41796875 15.34667969 C-110.49258301 15.12302734 -109.56719727 14.899375 -108.61376953 14.66894531 C-102.13743196 13.09280076 -95.69047812 11.4287262 -89.2578125 9.68261719 C-84.19398943 8.31061962 -79.11746678 6.98844479 -74.04101562 5.6640625 C-69.58129078 4.49450414 -65.13401866 3.28910996 -60.6953125 2.04199219 C-59.72279541 1.7704834 -58.75027832 1.49897461 -57.74829102 1.21923828 C-55.873415 0.69422869 -54.00008682 0.16364701 -52.12866211 -0.37353516 C-34.9314033 -5.17552297 -17.15175079 -4.53296271 0 0 Z " fill="#3397AB" transform="translate(282.48046875,18.3408203125)"/>
<path d="M0 0 C0.73270534 -0.00696761 1.46541068 -0.01393521 2.22031921 -0.02111396 C4.67731196 -0.03836909 7.1327299 -0.01998808 9.58969688 -0.0017767 C11.36824394 -0.00682154 13.14678593 -0.01404989 14.92531621 -0.02327484 C19.8142431 -0.04223398 24.70267096 -0.02994254 29.5915854 -0.0125519 C34.86376942 0.00080009 40.13587938 -0.0146075 45.40805626 -0.02637386 C55.73856394 -0.04477327 66.06888273 -0.03622175 76.39938457 -0.01828564 C84.79732224 -0.00426748 93.19520857 -0.00036517 101.59315681 -0.00372791 C102.78783526 -0.00420536 103.9825137 -0.0046828 105.21339452 -0.00517471 C107.64034055 -0.00620103 110.06728657 -0.00725639 112.49423258 -0.00834047 C133.96695892 -0.01691277 155.43959406 -0.00021781 176.9122982 0.02948856 C197.74241534 0.05830554 218.57240098 0.06542042 239.40253258 0.04999638 C262.08212604 0.03322586 284.76165701 0.0292104 307.44125211 0.04670674 C309.86117005 0.04855111 312.28108799 0.05038584 314.70100594 0.05221081 C315.8916431 0.0531229 317.08228026 0.05403499 318.30899734 0.05497472 C326.69218258 0.06057648 335.0753373 0.05727607 343.45852089 0.05066586 C353.6820461 0.04292468 363.90544195 0.04971291 374.12894113 0.0748409 C379.34357014 0.08732015 384.55799794 0.09350163 389.77263451 0.08229923 C394.55096468 0.07222827 399.32889438 0.0807774 404.10717599 0.10388041 C405.83128353 0.10902231 407.55542721 0.10750943 409.2795188 0.09848576 C424.82579167 0.02391953 438.55334772 2.95365111 450.29852867 13.87641239 C459.30105349 23.55837305 463.31833393 35.07342453 462.95868492 48.22406864 C461.72860648 58.42786218 457.6216995 67.22837776 450.54852867 74.62641239 C449.94138023 75.2619202 449.3342318 75.89742802 448.70868492 76.55219364 C438.56859029 86.23608769 425.93383821 88.90596272 412.37274742 88.93500614 C410.22495792 88.96013839 408.07717153 88.98553676 405.92938805 89.01117802 C402.5673339 89.04004003 399.20533309 89.06408247 395.84320641 89.08271122 C392.58195982 89.10428062 389.32129449 89.1436784 386.06024742 89.18500614 C385.05088631 89.18512196 384.04152519 89.18523777 383.00157738 89.18535709 C382.06662941 89.19869587 381.13168144 89.21203465 380.16840172 89.22577763 C379.34647835 89.23084827 378.52455498 89.23591892 377.67772484 89.24114323 C375.03070489 89.72011045 374.14411972 90.48983042 372.54852867 92.62641239 C372.0278113 96.12265757 372.0154206 97.87422106 374.08099937 100.7886591 C377.45766441 103.30351366 380.42077744 103.16283755 384.46649742 103.09296513 C385.657425 103.09642445 385.657425 103.09642445 386.87241173 103.09995365 C388.59336774 103.10258076 390.31435615 103.09614913 392.03525352 103.08170223 C394.75902472 103.05982141 397.48168504 103.06352994 400.20551109 103.07418156 C406.96874623 103.09585487 413.73173451 103.07846039 420.4949398 103.05268192 C426.21215092 103.03129851 431.9286503 103.02930556 437.64584923 103.05559826 C440.32960444 103.05995513 443.01212954 103.03529425 445.69574547 103.01006413 C447.34068923 103.01533441 448.98562921 103.02205655 450.63055992 103.03046513 C451.3766552 103.01555531 452.12275047 103.00064548 452.8914547 102.98528385 C456.64922479 103.03708262 458.24348417 103.34344535 461.03949547 105.9370966 C462.54852867 108.62641239 462.54852867 108.62641239 462.61102867 112.25141239 C461.54852867 115.62641239 461.54852867 115.62641239 459.36415702 117.31427842 C456.13313148 118.81999503 453.99031955 118.9993492 450.43597507 118.99555588 C449.19986459 119.00152902 447.9637541 119.00750217 446.69018573 119.01365632 C445.32144706 119.00509775 443.95271011 118.99626098 442.58397484 118.98717594 C441.12772812 118.9884842 439.67148209 118.991111 438.21523982 118.99494344 C434.21309222 119.00165638 430.21118514 118.9896447 426.20906818 118.97460926 C421.89350571 118.96166479 417.57795702 118.96603723 413.2623806 118.96831608 C405.78519217 118.96988982 398.30808223 118.96047008 390.83091354 118.94360256 C380.0201694 118.91923079 369.20946325 118.91140916 358.39869461 118.90763859 C340.85934369 118.90107124 323.32003461 118.88110239 305.78070641 118.85273075 C288.74197156 118.82519751 271.70324807 118.80396033 254.66449547 118.79120731 C253.61438664 118.79041914 252.56427782 118.78963097 251.48234751 118.78881892 C246.21430767 118.78490383 240.94626775 118.7811127 235.67822778 118.77738321 C191.96829882 118.74627849 148.25841656 118.69321211 104.54852867 118.62641239 C104.54852867 113.67641239 104.54852867 108.72641239 104.54852867 103.62641239 C105.76627605 103.62494583 106.98402344 103.62347927 108.23867226 103.62196827 C137.13299785 103.58628117 166.02723456 103.5300616 194.92146541 103.44849144 C198.47635197 103.43847375 202.03123899 103.42862966 205.58612633 103.41889286 C206.64771602 103.4159808 206.64771602 103.4159808 207.73075196 103.41300991 C219.19642968 103.38197245 230.66208737 103.3650044 242.12779918 103.35321817 C253.88904479 103.34081563 265.65018514 103.31333461 277.41136432 103.27179933 C284.01900379 103.24912109 290.62649288 103.23350552 297.23417473 103.23452854 C303.44924157 103.23527139 309.66397517 103.21747168 315.87895584 103.18524456 C318.16386649 103.17670244 320.44881434 103.17502463 322.73373413 103.1806097 C325.84624146 103.1872062 328.95767496 103.16943306 332.07007408 103.14539433 C332.98057746 103.15315474 333.89108084 103.16091516 334.82917523 103.16891074 C339.80891308 103.11765342 339.80891308 103.11765342 344.11358833 100.78538227 C346.05586944 97.86308209 346.06073067 96.06548293 345.54852867 92.62641239 C344.02271997 90.63567191 343.13346882 89.74317732 340.64987022 89.24740487 C339.92802187 89.24550627 339.20617352 89.24360767 338.46245098 89.24165154 C337.62742969 89.23219499 336.7924084 89.22273845 335.93208343 89.21299535 C334.55612267 89.22026671 334.55612267 89.22026671 333.15236473 89.22768497 C332.17791599 89.22103815 331.20346726 89.21439132 330.19948977 89.20754308 C326.91965377 89.18882408 323.64017973 89.19152437 320.36029625 89.19403934 C318.01505069 89.18502763 315.66980987 89.17470188 313.32457542 89.16315556 C306.94477894 89.13549016 300.56507158 89.12628809 294.18522286 89.12030149 C288.19729745 89.11189017 282.20942961 89.08976657 276.22154268 89.067683 C264.36025934 89.02438623 252.49898125 88.99443602 240.63764 88.97284794 C229.11450176 88.95184689 217.5914065 88.92457947 206.06830406 88.88886356 C205.35818728 88.88666474 204.64807051 88.88446591 203.91643504 88.88220046 C200.35403766 88.87113102 196.79164068 88.85993817 193.22924387 88.84868395 C163.66904628 88.75545796 134.10881727 88.68410082 104.54852867 88.62641239 C104.54852867 83.34641239 104.54852867 78.06641239 104.54852867 72.62641239 C107.01760657 72.62421255 107.01760657 72.62421255 109.53656483 72.62196827 C148.61424079 72.58626301 187.69184112 72.5300171 226.76944947 72.44849144 C231.57967934 72.43847403 236.38990955 72.4286299 241.20014 72.41889286 C242.15776655 72.41695149 243.1153931 72.41501011 244.10203863 72.41300991 C259.60591878 72.38199243 275.10978414 72.36500996 290.61368947 72.35321817 C306.52321975 72.34080531 322.43267236 72.31330085 338.34215361 72.27179933 C348.15844012 72.24666781 357.97459784 72.23329486 367.79091699 72.23498282 C374.5231785 72.23501258 381.25530886 72.22037757 387.98751926 72.19424811 C391.87115225 72.17960661 395.75451628 72.1713953 399.63817215 72.1806097 C403.85231598 72.19043889 408.06574971 72.16936906 412.27983665 72.14539433 C413.50261548 72.15315474 414.72539431 72.16091516 415.98522705 72.16891074 C425.91695775 72.06883554 433.45690059 69.71804048 440.54852867 62.62641239 C446.12055179 54.69699488 446.1311857 47.07605008 445.54852867 37.62641239 C444.45291105 32.13969736 441.79829807 27.30469691 437.54852867 23.62641239 C434.63972997 21.76115153 431.64607306 20.15388516 428.54852867 18.62641239 C427.88852867 18.29641239 427.22852867 17.96641239 426.54852867 17.62641239 C424.20824834 17.53003616 421.86510731 17.50162077 419.52284336 17.50171375 C418.7875911 17.50036952 418.05233884 17.49902528 417.29480621 17.49764031 C414.80564458 17.49430395 412.31654344 17.4981325 409.82738304 17.50183964 C408.03493194 17.50085421 406.24248104 17.49941775 404.45003062 17.49756646 C400.53971646 17.49449816 396.6294193 17.49462194 392.71910477 17.49712276 C386.3579507 17.50117067 379.99681003 17.4984194 373.63565636 17.49477482 C365.59909692 17.49067948 357.56254046 17.48844508 349.52597997 17.48835883 C333.73691788 17.48815641 317.94788661 17.47571531 302.15883446 17.45874882 C299.67561728 17.45614296 297.19240011 17.45354415 294.70918292 17.45095229 C290.94544821 17.44701376 287.18171352 17.44306727 283.41797885 17.43909107 C269.21873951 17.42413622 255.01949922 17.41051584 240.82025719 17.39838505 C239.52178232 17.39727149 238.22330745 17.39615793 236.88548485 17.39501062 C215.83720859 17.37743049 194.78895154 17.37456679 173.74066915 17.37623546 C152.14940166 17.37751325 130.5582059 17.35981019 108.96696597 17.32521749 C95.63888562 17.30453205 82.31097678 17.2992568 68.98288725 17.31354579 C59.85292085 17.32198719 50.72308813 17.31231977 41.59314998 17.28823629 C36.32064047 17.27489212 31.04845134 17.26980274 25.77594376 17.28635693 C20.95272342 17.30133348 16.1301085 17.29348695 11.30694161 17.26718739 C9.5586117 17.26174578 7.8102311 17.26482319 6.06193586 17.27710435 C3.69113162 17.29254072 1.32243523 17.2774193 -1.0482626 17.25447559 C-3.0259286 17.25357996 -3.0259286 17.25357996 -5.04354745 17.25266623 C-9.32069814 16.46667977 -10.79772102 15.00471897 -13.45147133 11.62641239 C-14.13897133 8.62641239 -14.13897133 8.62641239 -13.45147133 5.62641239 C-9.04705621 1.10049474 -6.47422505 0.00133946 0 0 Z " fill="#C0E5F3" transform="translate(31.45147132873535,306.3735876083374)"/>
<path d="M0 0 C1.29873047 0.00644531 2.59746094 0.01289063 3.93554688 0.01953125 C5.30729432 0.0362419 6.67903911 0.05317179 8.05078125 0.0703125 C9.43423843 0.08034576 10.81770252 0.08947101 12.20117188 0.09765625 C15.58871577 0.12126283 18.97591197 0.15419213 22.36328125 0.1953125 C22.3890625 1.24332031 22.41484375 2.29132813 22.44140625 3.37109375 C22.49768983 4.75004152 22.55503713 6.12894615 22.61328125 7.5078125 C22.62746094 8.19810547 22.64164063 8.88839844 22.65625 9.59960938 C22.80884957 12.75842039 23.00325274 14.75537112 25.03515625 17.23828125 C28.24152014 18.55633352 29.99234696 17.99152773 33.36328125 17.1953125 C35.87780981 16.07347012 38.27017154 14.91953608 40.6953125 13.6328125 C41.37252853 13.2814624 42.04974457 12.9301123 42.7474823 12.56811523 C44.89437594 11.45156255 47.03493862 10.32341542 49.17578125 9.1953125 C50.63308921 8.43678039 52.09076805 7.67896038 53.54882812 6.921875 C54.93131997 6.20115423 56.3134931 5.4798217 57.6953125 4.7578125 C58.34941605 4.41613037 59.00351959 4.07444824 59.67744446 3.72241211 C62.71436282 2.23890696 62.71436282 2.23890696 65.36328125 0.1953125 C67.19295052 0.09778102 69.02643778 0.07159863 70.85870457 0.07226467 C72.05898369 0.07027362 73.25926282 0.06828257 74.49591404 0.06623119 C75.84497824 0.06908478 77.19404226 0.07203039 78.54310608 0.07505798 C79.96290066 0.07462241 81.38269515 0.07374775 82.80248922 0.07246882 C86.72238143 0.07022119 90.64224658 0.07424877 94.56213534 0.07924688 C98.78233443 0.08354738 103.00253188 0.08210524 107.22273254 0.0813446 C114.54062833 0.08081911 121.85851522 0.08396852 129.17640877 0.08958244 C139.7569802 0.09769406 150.33754731 0.10031232 160.91812151 0.10157043 C178.08254243 0.10376149 195.24695861 0.11042301 212.41137695 0.11987305 C229.08943661 0.12904579 245.76749498 0.1361273 262.44555664 0.14038086 C263.4728204 0.14064358 264.50008415 0.14090631 265.55847711 0.14117699 C270.71172698 0.14248199 275.86497686 0.1437457 281.01822674 0.14498889 C323.79991503 0.15536317 366.58159752 0.17325728 409.36328125 0.1953125 C409.36328125 9.1053125 409.36328125 18.0153125 409.36328125 27.1953125 C356.5968823 27.28651472 303.83049334 27.3573263 251.06403106 27.39957382 C244.83793464 27.40457679 238.61183837 27.40975407 232.38574219 27.41503906 C231.14621092 27.4160883 229.90667965 27.41713755 228.62958683 27.41821858 C208.54535152 27.43563544 188.46116189 27.46718019 168.37695371 27.50392368 C147.77680152 27.54129745 127.17667331 27.56354081 106.57648861 27.57166648 C93.85966016 27.57716164 81.14296082 27.59453291 68.42617209 27.62697837 C59.71204236 27.64808225 50.99797961 27.65452191 42.28382616 27.64931801 C37.25223215 27.64674981 32.22086415 27.65075427 27.18931007 27.6721344 C22.58502345 27.69155658 17.98111546 27.69261075 13.37681164 27.67890808 C11.70914439 27.67721378 10.0414538 27.68232468 8.37383269 27.69484523 C6.10968247 27.71085922 3.84690548 27.70227181 1.58277702 27.68750381 C0.32438385 27.6890227 -0.93400933 27.69054158 -2.23053563 27.69210649 C-7.07155897 26.98604014 -10.12868546 24.76085553 -13.48046875 21.28125 C-15.74492687 17.19604514 -15.34766317 12.70230875 -14.63671875 8.1953125 C-11.38933037 1.88716726 -6.79153901 -0.05931475 0 0 Z " fill="#F4F4F4" transform="translate(63.63671875,439.8046875)"/>
<path d="M0 0 C1.30882275 -0.00256327 1.30882275 -0.00256327 2.64408636 -0.00517833 C5.54906439 -0.00845572 8.45380813 0.00250148 11.35876465 0.01345825 C13.448588 0.01402274 15.53841174 0.01370506 17.62823486 0.01257324 C23.28877254 0.01200022 28.94922518 0.02374651 34.60974312 0.03772116 C40.53010755 0.0502368 46.45047399 0.05139968 52.37084961 0.05377197 C63.57621401 0.05998428 74.78153931 0.07639176 85.9868865 0.09647095 C98.74619502 0.11883768 111.50550543 0.12982533 124.26482868 0.13986182 C150.50644879 0.16075818 176.74803422 0.19592935 202.98962402 0.24050903 C202.32962402 5.19050903 201.66962402 10.14050903 200.98962402 15.24050903 C199.92594384 15.24289739 198.86226366 15.24528574 197.76635075 15.24774647 C171.87631423 15.30655927 145.98637064 15.38245321 120.0964365 15.47622395 C107.57622177 15.52117608 95.05603544 15.56059217 82.5357666 15.58694458 C71.62221569 15.60992929 60.70875472 15.64333276 49.79527515 15.68921059 C44.01748538 15.71313627 38.23978466 15.73186941 32.46194649 15.73812294 C27.02089139 15.74417665 21.58006412 15.76418728 16.1390934 15.79478455 C14.14493136 15.80356009 12.15073955 15.80728836 10.15655899 15.8055172 C7.4269108 15.80385866 4.69795236 15.82061311 1.96839905 15.84178162 C1.18529738 15.83693404 0.4021957 15.83208646 -0.40463632 15.82709199 C-8.46447533 15.9297475 -15.65288652 18.18341515 -22.01037598 23.24050903 C-27.71821389 29.34656819 -30.57304756 34.63647192 -30.44787598 43.05300903 C-30.44102783 43.75788452 -30.43417969 44.46276001 -30.42712402 45.18899536 C-30.20129465 52.53986819 -28.35663021 57.37286497 -23.76037598 62.99050903 C-17.39887974 68.19536959 -12.16742607 71.36438846 -3.81150913 71.36800098 C-2.50521284 71.37100863 -1.19891654 71.37401628 0.14696449 71.37711507 C1.60529555 71.37542739 3.06362652 71.37365632 4.5219574 71.37181091 C6.06437167 71.37351235 7.60678551 71.3756617 9.14919859 71.37822217 C12.51007472 71.38282652 15.87093242 71.3842386 19.23181152 71.38325691 C24.69943468 71.38166682 30.16703949 71.3868604 35.63465881 71.3928833 C43.57238192 71.40100253 51.5101018 71.40594223 59.44782829 71.40917397 C71.98802421 71.41466475 84.52819284 71.43155576 97.06837463 71.45051575 C101.35608955 71.45687268 105.64380453 71.46318106 109.93151951 71.46949291 C111.53888882 71.47186856 111.53888882 71.47186856 113.17873023 71.47429219 C125.38123649 71.49223492 137.58374467 71.50845893 149.78625488 71.52346802 C151.45987115 71.52553182 151.45987115 71.52553182 153.16729785 71.52763733 C171.25774456 71.54957851 189.34818429 71.56032614 207.43864196 71.56783877 C225.99811142 71.57590166 244.5575207 71.59916456 263.11695582 71.63579243 C274.57257619 71.65785217 286.02807296 71.6674715 297.48371352 71.6612921 C305.32974186 71.65812447 313.17566441 71.66940141 321.02166002 71.69218651 C325.55277305 71.70489022 330.0836505 71.71098104 334.6147728 71.69976997 C338.75936391 71.68964669 342.90349644 71.69775618 347.04803307 71.72063293 C348.55068933 71.72565213 350.05338633 71.72385223 351.55602311 71.71470026 C353.59230047 71.70326918 355.62867631 71.71864423 357.66491604 71.73549366 C358.79789417 71.73647047 359.9308723 71.73744728 361.0981831 71.73845369 C364.63258249 72.35214913 365.8100634 73.44810914 367.98962402 76.24050903 C368.69844705 79.14835785 368.32934191 81.18304804 367.98962402 84.24050903 C366.85221714 85.96265841 366.85221714 85.96265841 364.98962402 87.24050903 C362.20708948 87.61885786 362.20708948 87.61885786 358.75063419 87.62361908 C357.43533791 87.63267572 356.12004162 87.64173236 354.76488787 87.65106344 C353.29634699 87.64595853 351.82780708 87.64056639 350.35926819 87.63491821 C348.8060523 87.63980399 347.25284004 87.64599233 345.69963402 87.6533761 C341.4197303 87.6698401 337.14001 87.66744457 332.86008561 87.66200113 C328.24839057 87.65933868 323.63674529 87.67384835 319.02507019 87.68609619 C309.9836029 87.70718948 300.94219969 87.71168867 291.90071071 87.70990831 C284.54961787 87.70860202 277.19854505 87.71239803 269.84745598 87.71983337 C267.73195249 87.72193254 265.616449 87.72403014 263.50094551 87.72612619 C261.92158524 87.72769149 261.92158524 87.72769149 260.3103187 87.7292884 C240.37771134 87.74820831 220.44514074 87.74713593 200.51252811 87.74031907 C182.28516312 87.73474895 164.05793892 87.75554326 145.83060683 87.78867954 C127.11743643 87.82243485 108.40433342 87.83758213 89.69113201 87.83296251 C79.18428527 87.83071883 68.67756848 87.83594549 58.17074776 87.8608551 C49.22074087 87.88189258 40.27093509 87.88543648 31.32091988 87.86655551 C26.75635212 87.85741069 22.19215905 87.85621575 17.6276207 87.87691116 C13.44307103 87.89567314 9.25920153 87.89105965 5.07467734 87.86836535 C3.56648709 87.86419252 2.05824416 87.86833506 0.55010969 87.88196129 C-12.36246864 87.99061643 -23.31030443 85.1444624 -33.01037598 76.24050903 C-37.85713237 71.45346627 -41.47718318 66.57349102 -44.01037598 60.24050903 C-44.45896973 59.13449341 -44.45896973 59.13449341 -44.91662598 58.00613403 C-48.4304946 48.05017294 -48.35631545 37.51255701 -44.26818848 27.76394653 C-38.18045517 15.55066792 -29.79463961 7.25833251 -17.01037598 2.24050903 C-11.1878805 0.53867888 -6.04608946 -0.04394156 0 0 Z " fill="#FB7F5A" transform="translate(95.0103759765625,204.75949096679688)"/>
<path d="M0 0 C12.8019783 2.59071251 25.37430383 5.55611679 37.9453125 9.1171875 C48.57813131 12.11832613 59.26376634 14.85608691 69.9909668 17.5012207 C71.12703369 17.7818335 72.26310059 18.06244629 73.43359375 18.3515625 C74.54331543 18.62516602 75.65303711 18.89876953 76.79638672 19.18066406 C79.79123093 19.94660654 82.75380579 20.7882789 85.72265625 21.6484375 C90.80834169 23.04838008 95.74273012 23.69000454 101 24 C101.78020508 24.04995117 102.56041016 24.09990234 103.36425781 24.15136719 C122.11515255 25.12030553 139.74528821 20.96733727 157.68359375 15.89453125 C161.76186075 14.79450399 165.87117618 13.88793781 170 13 C170.14845558 18.05358014 170.25726186 23.10588883 170.32958984 28.16113281 C170.35974161 29.88010771 170.4006713 31.59892902 170.45263672 33.31738281 C170.52553181 35.79009864 170.55946901 38.26077994 170.5859375 40.734375 C170.61690521 41.50118591 170.64787292 42.26799683 170.67977905 43.05804443 C170.68115234 45.24121094 170.68115234 45.24121094 170 49 C167.07763672 51.36645508 167.07763672 51.36645508 164 53 C162.12462959 55.34903084 162.12462959 55.34903084 160.75 57.9375 C160.27046875 58.77152344 159.7909375 59.60554688 159.296875 60.46484375 C158.04827536 62.90563039 157.01820942 65.45447646 156 68 C97.92 68 39.84 68 -20 68 C-18.00133708 60.00534832 -15.94311408 52.08743125 -13.625 44.1875 C-13.31973389 43.14215088 -13.01446777 42.09680176 -12.69995117 41.01977539 C-10.66668198 34.11327585 -8.46325089 27.29480623 -6.12890625 20.484375 C-4.46847043 15.35943121 -3.12751027 10.16814478 -1.796875 4.94921875 C-1 2 -1 2 0 0 Z " fill="#278999" transform="translate(146,122)"/>
<path d="M0 0 C0.84871304 -0.00170885 1.69742608 -0.0034177 2.57185769 -0.00517833 C5.42016263 -0.00847666 8.26823281 0.00253615 11.11651611 0.01345825 C13.156489 0.01402229 15.19646229 0.01370595 17.23643494 0.01257324 C22.77944516 0.01199845 28.32236916 0.02377332 33.86535931 0.03772116 C39.65628817 0.05020736 45.44721893 0.05139735 51.23815918 0.05377197 C62.20637014 0.05999295 73.17454133 0.07641213 84.14273477 0.09647095 C96.62867873 0.11881073 109.11462458 0.12981855 121.60058355 0.13986182 C147.28723158 0.16077781 172.97384428 0.1959658 198.66046143 0.24050903 C198.7094458 0.85539185 198.75843018 1.47027466 198.80889893 2.10379028 C198.92104736 3.31615356 198.92104736 3.31615356 199.03546143 4.55300903 C199.13987549 5.75377075 199.13987549 5.75377075 199.24639893 6.97879028 C199.55610569 9.51275344 199.55610569 9.51275344 201.66046143 12.24050903 C204.00018661 12.6788219 204.00018661 12.6788219 206.75274658 12.58108521 C208.34416977 12.58074532 208.34416977 12.58074532 209.96774292 12.58039856 C211.11673065 12.5649147 212.26571838 12.54943085 213.44952393 12.53347778 C214.62308441 12.52923294 215.7966449 12.5249881 217.00576782 12.52061462 C220.76589597 12.50377879 224.5254944 12.46611681 228.28546143 12.42800903 C230.82972454 12.41296858 233.37399602 12.39927907 235.91827393 12.38699341 C242.16587486 12.35385908 248.41307824 12.30204251 254.66046143 12.24050903 C255.32046143 8.28050903 255.98046143 4.32050903 256.66046143 0.24050903 C285.04046143 0.24050903 313.42046143 0.24050903 342.66046143 0.24050903 C342.66046143 9.15050903 342.66046143 18.06050903 342.66046143 27.24050903 C297.93693265 27.37611113 253.21345313 27.4835471 208.48975959 27.54690101 C203.21129202 27.55440537 197.93282486 27.56217129 192.65435791 27.57009888 C191.07806757 27.57245967 191.07806757 27.57245967 189.46993298 27.57486816 C172.44823329 27.60098534 155.42665501 27.64829794 138.40502738 27.70342581 C120.94291953 27.75950914 103.48087533 27.79285627 86.01868111 27.80504 C75.24106497 27.8132781 64.46379202 27.83930927 53.68628151 27.88800783 C46.29855095 27.91969175 38.91099815 27.92931684 31.52320456 27.9215173 C27.25891577 27.91766923 22.99522719 27.92362146 18.73104477 27.95574188 C14.82658373 27.98493809 10.92312653 27.98641765 7.01861931 27.9659024 C5.60664002 27.96336694 4.19459813 27.97098232 2.78274208 27.98980813 C-9.07169132 28.13867749 -9.07169132 28.13867749 -13.664855 24.32041359 C-17.67187714 20.17780552 -17.73538016 16.64086401 -17.69110107 11.01004028 C-17.13843478 6.65625801 -15.59410072 5.12523457 -12.33953857 2.24050903 C-8.53376596 -0.38169467 -4.44414706 -0.03261654 0 0 Z " fill="#F2F2F2" transform="translate(96.33953857421875,234.75949096679688)"/>
<path d="M0 0 C0.72680969 0.00141495 1.45361938 0.0028299 2.20245361 0.00428772 C4.51521994 0.00986833 6.82788812 0.02241721 9.140625 0.03515625 C10.71223818 0.04017376 12.28385289 0.04473623 13.85546875 0.04882812 C17.70058872 0.05897892 21.54549748 0.07855793 25.390625 0.09765625 C25.390625 5.04765625 25.390625 9.99765625 25.390625 15.09765625 C22.24273437 15.10152344 22.24273437 15.10152344 19.03125 15.10546875 C16.95571406 15.12840802 14.8805583 15.16140564 12.80517578 15.1953125 C11.38372 15.21326908 9.9620927 15.22107863 8.54052734 15.21777344 C-1.23026508 15.20398262 -9.34168859 16.33408455 -17.609375 22.09765625 C-24.46754158 29.13647222 -26.06558913 36.01327605 -26.04101562 45.64404297 C-25.81488389 54.13674863 -22.91438821 59.11140347 -16.859375 64.97265625 C-8.35240417 72.62893 3.19849684 71.51754567 13.83966064 71.46273804 C15.62578025 71.4645979 17.41189887 71.46778803 19.19801402 71.47218955 C24.09357505 71.48050887 28.98894813 71.47029998 33.88449192 71.45710087 C39.16873687 71.4461788 44.45296291 71.45266606 49.73721313 71.45722961 C58.88949763 71.46297224 68.04172913 71.45835153 77.19400787 71.44721603 C90.43207186 71.43156102 103.67006449 71.43712551 116.90812954 71.44883247 C138.39383167 71.46772119 159.87952409 71.47694455 181.36523438 71.4765625 C182.65077889 71.47654506 183.93632341 71.47652762 185.26082382 71.47650965 C199.61158773 71.47605718 213.96234816 71.47272426 228.31311035 71.46563721 C229.60420382 71.46500482 230.8952973 71.46437244 232.22551481 71.4637209 C233.51535633 71.46308833 234.80519785 71.46245577 236.13412547 71.46180403 C238.73525031 71.46053426 241.33637515 71.45926885 243.9375 71.45800781 C245.22269056 71.45737962 246.50788112 71.45675143 247.83201686 71.4561042 C269.24269427 71.44615908 290.65331376 71.45545301 312.06397891 71.48019183 C325.27354248 71.49464508 338.48290261 71.49251702 351.69245455 71.46922983 C360.73637341 71.45451303 369.78017268 71.45760081 378.8240867 71.47485875 C384.04602466 71.48422137 389.26763111 71.48526842 394.48954391 71.46462822 C399.26620926 71.44589444 404.04228234 71.44996494 408.81892642 71.47245581 C410.55023054 71.47650428 412.2815791 71.47202252 414.01283374 71.45832185 C416.36055663 71.44094961 418.70617465 71.45415741 421.05382156 71.47517967 C423.01212587 71.47444909 423.01212587 71.47444909 425.00999188 71.47370374 C429.27924492 72.26166595 430.78585909 73.68144191 433.390625 77.09765625 C433.515625 80.72265625 433.515625 80.72265625 432.390625 84.09765625 C428.37352909 87.30749009 425.09468566 87.47399851 420.04937744 87.47797298 C418.94996703 87.48496286 418.94996703 87.48496286 417.82834631 87.49209395 C415.3648752 87.50407372 412.90195258 87.49463717 410.43847656 87.4853363 C408.65738431 87.48950797 406.87629472 87.49498456 405.09521008 87.50165612 C400.19467062 87.51615239 395.29429875 87.51185289 390.39374995 87.5044893 C385.11063337 87.49977003 379.8275537 87.51225675 374.54444885 87.52250671 C364.19012173 87.53972681 353.83585522 87.54052775 343.48151749 87.53529381 C335.06354894 87.53125539 326.64559831 87.53269179 318.22763062 87.53804207 C317.03033005 87.53879049 315.83302948 87.53953891 314.59944707 87.54031001 C312.16718824 87.54184148 309.73492942 87.54337983 307.3026706 87.54492498 C284.47671307 87.55866265 261.65078979 87.55320435 238.82483304 87.54173977 C217.95025193 87.53181503 197.07575956 87.54473269 176.20119214 87.56867396 C154.76801664 87.59307055 133.33488245 87.60267089 111.90169334 87.59602123 C99.86847734 87.59252911 87.83532952 87.59476021 75.80212402 87.61227226 C65.55372899 87.62700157 55.30545009 87.62762053 45.05705732 87.61020135 C39.83015157 87.60169339 34.6034532 87.59953676 29.3765583 87.61485291 C24.58581379 87.62871676 19.79545401 87.62391484 15.00473166 87.60461367 C13.2772061 87.60085844 11.54964961 87.6037618 9.82215166 87.61422532 C-5.31445808 87.69934372 -17.9464511 85.60176399 -29.609375 75.09765625 C-39.30552589 65.07095476 -43.02595597 53.49570548 -42.8828125 39.796875 C-42.01669106 28.07948928 -36.34355436 18.34912707 -27.921875 10.34765625 C-19.59275041 3.46920111 -10.67630682 -0.07858569 0 0 Z " fill="#FDE46A" transform="translate(60.609375,409.90234375)"/>
<path d="M0 0 C40.40917983 -0.06779806 80.81834473 -0.12151746 121.22756997 -0.15319599 C125.99660273 -0.15694818 130.76563538 -0.16083114 135.53466797 -0.16479492 C136.4841096 -0.16558185 137.43355124 -0.16636878 138.41176383 -0.16717956 C153.79159472 -0.18023889 169.17139202 -0.20389563 184.55120297 -0.23145839 C200.32846298 -0.25949793 216.10570538 -0.27617319 231.88298929 -0.28226548 C241.62098471 -0.28638494 251.35888519 -0.29940303 261.09685139 -0.3237494 C267.77157329 -0.33958867 274.44624601 -0.34440446 281.12098534 -0.34050413 C284.97385077 -0.33857976 288.82655013 -0.34156121 292.67938614 -0.35761642 C296.85502092 -0.37488989 301.03030084 -0.36897357 305.20596313 -0.36076355 C306.42580764 -0.36950207 307.64565215 -0.3782406 308.90246165 -0.38724393 C319.19227982 -0.33235026 319.19227982 -0.33235026 324 3 C327.42766919 6.77043611 327.50853701 10.66769838 327.35546875 15.55859375 C326.82863459 19.17696026 325.42077514 21.31024985 323 24 C319.79631161 26.03225225 317.28412097 26.24904562 313.52586746 26.24609566 C312.40670008 26.25007775 311.2875327 26.25405985 310.13445115 26.25816262 C308.29010944 26.24942409 308.29010944 26.24942409 306.4085083 26.24050903 C304.44940195 26.24307231 304.44940195 26.24307231 302.45071769 26.24568737 C298.82260879 26.25016556 295.19461768 26.24215076 291.56652379 26.23213124 C287.65517379 26.22350583 283.74383059 26.22641626 279.83247375 26.22793579 C273.05482658 26.22898522 266.27721788 26.22270258 259.49958038 26.21146011 C249.7002225 26.19521591 239.90088324 26.18999821 230.10151336 26.18748413 C214.20324445 26.18310533 198.30499605 26.16979121 182.40673828 26.15087891 C166.96175235 26.13252489 151.51677198 26.11836604 136.07177734 26.10986328 C135.11997665 26.10933783 134.16817595 26.10881239 133.18753281 26.10827102 C128.41269665 26.10566097 123.63786046 26.10313355 118.86302423 26.10064721 C79.24200109 26.07990896 39.62100348 26.04412852 0 26 C0 17.42 0 8.84 0 0 Z " fill="#F6F6F6" transform="translate(136,338)"/>
<path d="M0 0 C1.08338307 -0.01141701 1.08338307 -0.01141701 2.18865266 -0.02306467 C4.62188507 -0.04376618 7.05419033 -0.03587229 9.48748684 -0.02818489 C11.2443985 -0.03708611 13.00130213 -0.04771303 14.75819391 -0.05992234 C19.59645342 -0.08834736 24.43445639 -0.09160771 29.27278745 -0.09072852 C34.48707285 -0.09401934 39.70125168 -0.12014224 44.91548061 -0.14311409 C56.3226417 -0.18885875 67.72972848 -0.20466056 79.13696885 -0.21476698 C86.25893054 -0.22127685 93.38087057 -0.23431947 100.50282001 -0.24876976 C120.21859607 -0.28791004 139.93435196 -0.32071273 159.65016937 -0.32652283 C160.91243171 -0.32689797 162.17469405 -0.32727311 163.47520676 -0.32765961 C166.03418092 -0.32839212 168.59315508 -0.32911952 171.15212924 -0.32984184 C172.42242478 -0.33020746 173.69272032 -0.33057308 175.00150967 -0.33094978 C176.9092773 -0.33149143 176.9092773 -0.33149143 178.85558569 -0.33204402 C199.460141 -0.33912598 220.06427808 -0.39315714 240.66868836 -0.46794556 C261.81933266 -0.54410254 282.96976944 -0.58283773 304.12055391 -0.58344185 C315.997408 -0.58461133 327.87376344 -0.60161519 339.75048923 -0.65943718 C349.86517619 -0.70845359 359.97918276 -0.72303951 370.09395636 -0.69294213 C375.25419883 -0.67859769 380.41309772 -0.6803397 385.57318974 -0.72576332 C390.30100258 -0.76698235 395.02644093 -0.76171541 399.75422852 -0.72001363 C401.46090609 -0.71303029 403.1677556 -0.72281884 404.87420774 -0.75142251 C413.26192481 -0.88291333 419.92843116 -0.65259341 426.29610252 5.33915329 C429.89653101 9.10140254 432.70874291 12.78612215 434.86991787 17.52012444 C434.03497407 17.35769634 433.20003028 17.19526825 432.33978516 17.0279181 C428.62436251 16.48418892 425.10713583 16.39527655 421.35204124 16.3954258 C420.61217361 16.39408156 419.87230597 16.39273733 419.1100181 16.39135236 C416.62924242 16.38804143 414.14852854 16.39183053 411.66775417 16.39555168 C409.87185085 16.39456532 408.07594773 16.39312808 406.28004509 16.39127851 C402.37458186 16.38821956 398.46913566 16.38832702 394.56367207 16.39083481 C388.20950146 16.39489469 381.85534419 16.39212536 375.50117397 16.38848686 C367.47268311 16.38439657 359.44419522 16.38215724 351.4157033 16.38207087 C335.64603848 16.38186821 319.87640442 16.36941336 304.10674953 16.35246086 C301.62487315 16.34985509 299.14299676 16.34725628 296.66112036 16.34466434 C292.89990062 16.34072597 289.1386809 16.33677945 285.37746121 16.33280312 C271.19827154 16.3178577 257.01908093 16.30423191 242.83988857 16.29209709 C240.89556928 16.29042675 240.89556928 16.29042675 238.9119708 16.28872266 C217.88981494 16.27113387 196.86767831 16.26827955 175.84551632 16.2699475 C154.27220236 16.27122526 132.6989602 16.25352506 111.12567383 16.21892953 C97.81268254 16.19824819 84.49986295 16.19296574 71.18686248 16.20725784 C62.07001639 16.21569871 52.95330418 16.20603323 43.83648639 16.18194833 C38.57204997 16.16860444 33.30793443 16.16351448 28.04349995 16.18006897 C23.22784056 16.19504538 18.41278755 16.1871993 13.59718169 16.16089943 C11.85166312 16.15545791 10.10609378 16.15853505 8.36060994 16.17081639 C5.9936518 16.18625291 3.62880491 16.17113129 1.26195335 16.14818764 C-0.05432236 16.14759055 -1.37059807 16.14699346 -2.72676092 16.14637828 C-7.00121489 15.35982507 -8.48523416 13.90363551 -11.13008213 10.52012444 C-11.69258213 7.45762444 -11.69258213 7.45762444 -11.13008213 4.52012444 C-7.90126488 0.15060611 -5.27389365 0.01595629 0 0 Z " fill="#C3E9F8" transform="translate(29.13008213043213,307.4798755645752)"/>
<path d="M0 0 C8.25 0 16.5 0 25 0 C25.99 1.98 26.98 3.96 28 6 C31.07869235 7.53934618 34.31298445 7.13539245 37.69091797 7.12597656 C38.48457764 7.1278447 39.2782373 7.12971283 40.09594727 7.13163757 C41.82238311 7.13564595 43.54882428 7.13771681 45.27526474 7.13809967 C48.94264924 7.14150844 52.60985536 7.16286129 56.27717781 7.18333054 C63.10945084 7.22139609 69.94153468 7.25261296 76.77392578 7.25048828 C81.52270515 7.24970221 86.27083393 7.27301992 91.01944351 7.3123703 C92.83031415 7.3228486 94.64125971 7.32434089 96.45214462 7.31671906 C98.98557935 7.30711973 101.51703693 7.32823437 104.05029297 7.35644531 C104.79953033 7.34624863 105.5487677 7.33605194 106.32070923 7.32554626 C110.08083416 7.40069955 111.696113 7.71796828 114.49295044 10.31365967 C116 13 116 13 116.0625 16.625 C115 20 115 20 112.81562835 21.68786603 C109.5846028 23.19358264 107.44179088 23.37293681 103.8874464 23.36914349 C102.65133592 23.37511663 101.41522543 23.38108978 100.14165705 23.38724393 C98.77291839 23.37868536 97.40418144 23.36984859 96.03544617 23.36076355 C94.57919945 23.36207181 93.12295342 23.36469861 91.66671115 23.36853105 C87.66456355 23.37524399 83.66265647 23.36323231 79.66053951 23.34819686 C75.34497704 23.3352524 71.02942835 23.33962484 66.71385193 23.34190369 C59.2366635 23.34347743 51.75955356 23.33405769 44.28238487 23.31719017 C33.47164073 23.2928184 22.66093458 23.28499677 11.85016594 23.2812262 C-5.68918498 23.27465885 -23.22849406 23.25469 -40.76782227 23.22631836 C-57.80655711 23.19878512 -74.8452806 23.17754794 -91.8840332 23.16479492 C-92.93414203 23.16400675 -93.98425085 23.16321858 -95.06618116 23.16240653 C-100.334221 23.15849144 -105.60226092 23.15470031 -110.87030089 23.15097082 C-154.58022985 23.1198661 -198.29011211 23.06679971 -242 23 C-242 18.05 -242 13.1 -242 8 C-240.78225262 7.99853344 -239.56450523 7.99706688 -238.30985641 7.99555588 C-209.41553083 7.95986878 -180.52129411 7.90364921 -151.62706326 7.82207905 C-148.0721767 7.81206136 -144.51728968 7.80221727 -140.96240234 7.79248047 C-139.90081265 7.78956841 -139.90081265 7.78956841 -138.81777671 7.78659752 C-127.35209899 7.75556006 -115.8864413 7.73859201 -104.42072949 7.72680578 C-92.65948388 7.71440324 -80.89834353 7.68692222 -69.13716435 7.64538693 C-62.52952488 7.6227087 -55.92203579 7.60709313 -49.31435394 7.60811615 C-43.09928711 7.608859 -36.8845535 7.59105928 -30.66957283 7.55883217 C-28.38466218 7.55029005 -26.09971433 7.54861224 -23.81479454 7.55419731 C-20.70228721 7.56079381 -17.59085371 7.54302067 -14.47845459 7.51898193 C-13.56795121 7.52674235 -12.65744783 7.53450277 -11.71935344 7.54249835 C-6.74943557 7.49911058 -6.74943557 7.49911058 -2.47009659 5.15506363 C-0.84048631 2.97708585 -0.84048631 2.97708585 0 0 Z " fill="#FDE46A" transform="translate(378,402)"/>
<path d="M0 0 C2.82219949 0.73836614 5.65360017 1.43125727 8.48828125 2.12011719 C16.78577135 4.14587161 25.07419264 6.18567729 33.26953125 8.59667969 C41.51224935 11.01981576 49.86258743 13.01881056 58.19970703 15.08813477 C68.02759249 17.52900885 77.82365129 20.04963358 87.5703125 22.79980469 C97.31486809 25.54451751 107.09582899 28.07378184 116.92456055 30.50073242 C122.06949167 31.77702301 127.18485423 33.09438875 132.26953125 34.59667969 C139.29923087 36.66576615 146.40693186 38.39938032 153.51953125 40.15917969 C161.85759529 42.22316998 170.16031705 44.31822403 178.3984375 46.75292969 C183.41756053 48.21029708 188.47761887 49.51030001 193.53515625 50.82714844 C196.51953125 51.65917969 196.51953125 51.65917969 198.51953125 52.65917969 C198.51953125 54.30917969 198.51953125 55.95917969 198.51953125 57.65917969 C187.59271008 61.03298919 176.72463846 64.32819023 165.51953125 66.65917969 C165.45765625 65.58667969 165.39578125 64.51417969 165.33203125 63.40917969 C164.34652741 58.8607004 163.30033691 58.19286514 159.51953125 55.65917969 C156.7716912 54.53597488 156.7716912 54.53597488 153.77734375 53.79980469 C152.64594971 53.49324951 151.51455566 53.18669434 150.34887695 52.87084961 C149.12644287 52.55349854 147.90400879 52.23614746 146.64453125 51.90917969 C145.34113746 51.56157373 144.03800097 51.2130017 142.73510742 50.86352539 C138.66785947 49.77750922 134.59424739 48.71676714 130.51953125 47.65917969 C129.29282715 47.33933105 128.06612305 47.01948242 126.80224609 46.68994141 C121.23438525 45.2406279 115.6637753 43.80248332 110.08998108 42.37615967 C100.32812376 39.87754766 90.5821062 37.31993489 80.8366394 34.75823975 C67.54031505 31.26324632 54.24011144 27.80401418 40.8918457 24.51196289 C36.15431454 23.33802705 31.45307233 22.09919177 26.76953125 20.72167969 C18.52681315 18.29854362 10.17647507 16.29954881 1.83935547 14.23022461 C-8.14331259 11.7509084 -18.09498543 9.19629632 -27.98828125 6.37792969 C-36.10584562 4.07332439 -44.11406058 1.89386988 -52.48046875 0.65917969 C-37.81231589 -7.57435895 -15.44537767 -4.08199267 0 0 Z " fill="#278898" transform="translate(282.48046875,18.3408203125)"/>
<path d="M0 0 C4.00738441 11.61917602 7.4463527 23.38752378 10.734375 35.2265625 C11.18816528 36.85911987 11.18816528 36.85911987 11.65112305 38.5246582 C12.24168244 40.65513325 12.82927362 42.78643421 13.41333008 44.91870117 C15.15816867 51.22556038 17.10061945 57.42544148 19.24584961 63.6081543 C20 66 20 66 20 68 C6.8 68 -6.4 68 -20 68 C-22.31 63.71 -24.62 59.42 -27 55 C-28.4540625 53.98808594 -29.908125 52.97617188 -31.40625 51.93359375 C-33.65160646 50.1775126 -34.81120194 48.8963074 -35.40527344 46.07598877 C-36.00938045 40.0781849 -35.72656756 34.0745558 -35.5 28.0625 C-35.45983882 26.2155716 -35.42334266 24.36855963 -35.390625 22.52148438 C-35.30279268 18.01225037 -35.16494219 13.50704545 -35 9 C-30.01557756 7.29720018 -25.05598939 5.6691462 -19.94140625 4.39453125 C-18.89662109 4.13349609 -17.85183594 3.87246094 -16.77539062 3.60351562 C-15.71513672 3.34248047 -14.65488281 3.08144531 -13.5625 2.8125 C-12.47517578 2.53986328 -11.38785156 2.26722656 -10.26757812 1.98632812 C-2.2675047 0 -2.2675047 0 0 0 Z " fill="#278897" transform="translate(366,122)"/>
<path d="M0 0 C54.82996771 -0.09156278 109.65992768 -0.16204243 164.48995681 -0.20426132 C170.96368227 -0.20926412 177.43740758 -0.21444141 183.91113281 -0.21972656 C185.19993067 -0.2207758 186.48872853 -0.22182505 187.81658086 -0.22290608 C208.68244489 -0.24030956 229.54826483 -0.27184697 250.4141027 -0.30861118 C271.82563286 -0.34602213 293.23713993 -0.36823619 314.64870143 -0.37635398 C327.85993291 -0.38184141 341.07103974 -0.39917085 354.28223285 -0.43166587 C363.3426135 -0.45281561 372.40292974 -0.45919897 381.46333328 -0.45400551 C386.69009314 -0.45144448 391.91663522 -0.45536042 397.14335632 -0.4768219 C401.93299422 -0.49634469 406.72226871 -0.49723284 411.51192364 -0.48359558 C413.24026225 -0.4819111 414.96862391 -0.48693658 416.69691744 -0.49953273 C432.26292023 -0.6063402 445.98889444 2.31242918 457.75 13.25 C466.75252482 22.93196066 470.76980526 34.44701214 470.41015625 47.59765625 C469.18007781 57.80144979 465.07317083 66.60196537 458 74 C457.39285156 74.63550781 456.78570312 75.27101563 456.16015625 75.92578125 C446.13543333 85.49949414 433.59585413 88.33908984 420.15625 88.1953125 C419.14655151 88.1924826 418.13685303 88.18965271 417.09655762 88.18673706 C413.89758033 88.1756153 410.6988915 88.15052563 407.5 88.125 C405.32031657 88.11495985 403.14062871 88.10583582 400.9609375 88.09765625 C395.64052795 88.07570225 390.32028459 88.04230518 385 88 C385 87.67 385 87.34 385 87 C386.13953125 87.00112793 387.2790625 87.00225586 388.453125 87.00341797 C392.71029553 86.99972685 396.96634515 86.9567534 401.22314453 86.90234375 C403.0599848 86.88425635 404.89696033 86.876602 406.73388672 86.87988281 C409.38614061 86.882761 412.03563122 86.84723269 414.6875 86.8046875 C415.90518066 86.8183284 415.90518066 86.8183284 417.14746094 86.83224487 C423.60572378 86.67027145 427.31118169 84.34290338 432 80 C434.295392 77.62465353 434.295392 77.62465353 436 75.25 C436.5775 74.49203125 437.155 73.7340625 437.75 72.953125 C439.17968457 71.10572261 439.17968457 71.10572261 439 69 C440.57421875 67.7734375 440.57421875 67.7734375 442.6875 66.375 C448.0030012 62.52974381 451.83488649 57.56700343 453 51 C453.62493445 41.24140828 453.46885408 33.87514628 447.6875 25.75 C445.09578533 22.89560194 445.09578533 22.89560194 441.8125 20.9375 C438.54915476 18.68941772 438.42465437 17.56424517 437 14 C435.21594794 11.60716248 435.21594794 11.60716248 433.125 9.375 C432.44695312 8.61960937 431.76890625 7.86421875 431.0703125 7.0859375 C427.13022862 3.05972759 427.13022862 3.05972759 421.77809358 1.62099248 C420.48856333 1.61909388 419.19903309 1.61719528 417.87042618 1.61523914 C417.14825198 1.61008924 416.42607779 1.60493933 415.68201953 1.59963337 C413.24928742 1.58596013 410.81709053 1.59371432 408.38433838 1.60127258 C406.62784158 1.59583614 404.87134844 1.58908584 403.11486125 1.58113068 C398.2781874 1.56304579 393.44166661 1.56366971 388.60496688 1.56726015 C383.39296578 1.56788233 378.18101679 1.55127963 372.96903992 1.53674316 C363.93562692 1.51391812 354.90225258 1.50206533 345.86881256 1.49761391 C332.80790064 1.49116208 319.74705872 1.46824176 306.68617496 1.44127061 C285.49701059 1.39796295 264.30784916 1.36801894 243.11865234 1.34643555 C222.53237461 1.32543777 201.94612096 1.29817318 181.35986328 1.26245117 C180.09144105 1.26025235 178.82301883 1.25805352 177.51615956 1.25578807 C171.15301164 1.24471871 164.78986393 1.23352585 158.42671633 1.22227156 C105.61783218 1.12903013 52.80893437 1.05745829 0 1 C0 0.67 0 0.34 0 0 Z " fill="#A4D1E3" transform="translate(24,307)"/>
<path d="M0 0 C6.6 0 13.2 0 20 0 C20 29.7 20 59.4 20 90 C2 100 2 100 0 100 C0 67 0 34 0 0 Z " fill="#3397AB" transform="translate(101,338)"/>
<path d="M0 0 C13.99506034 -0.07011242 27.99009341 -0.12279957 41.98529339 -0.15543652 C48.48366571 -0.17109973 54.98192014 -0.1923503 61.48022461 -0.22631836 C67.75014723 -0.25888793 74.01995637 -0.27684808 80.28995705 -0.28463173 C82.68338622 -0.29017952 85.07680911 -0.30101282 87.47019005 -0.31719017 C90.81970064 -0.33893204 94.16874087 -0.34196822 97.51831055 -0.34057617 C98.51021393 -0.351362 99.50211731 -0.36214783 100.52407837 -0.3732605 C109.22858316 -0.33405425 109.22858316 -0.33405425 113 3 C114.23958138 6.9374938 114.51840561 8.97110545 112.644104 12.69108582 C108.59794791 16.22431567 104.83662515 15.66161328 99.63183594 15.56762695 C98.57786621 15.56835709 97.52389648 15.56908722 96.43798828 15.56983948 C92.95292771 15.56635499 89.4692022 15.52745077 85.984375 15.48828125 C83.56871267 15.47895625 81.15304089 15.47183866 78.73736572 15.46684265 C72.37819326 15.44774853 66.01959146 15.39862574 59.66064453 15.34332275 C53.17227906 15.29218303 46.6838214 15.26933982 40.1953125 15.24414062 C27.46329814 15.19051034 14.73167942 15.10612801 2 15 C0.58365167 12.16730334 0.6536995 9.52533562 0.4375 6.375 C0.35371094 5.18648437 0.26992188 3.99796875 0.18359375 2.7734375 C0.12300781 1.85820312 0.06242187 0.94296875 0 0 Z " fill="#FD7F5B" transform="translate(350,205)"/>
<path d="M0 0 C15.18 0 30.36 0 46 0 C46 8.58 46 17.16 46 26 C30.82 26 15.64 26 0 26 C0 17.42 0 8.84 0 0 Z " fill="#F6F6F6" transform="translate(39,338)"/>
<path d="M0 0 C1.38146684 0.00933585 2.76295033 0.01644832 4.1444397 0.0214386 C7.76489685 0.04044853 11.38433683 0.08949438 15.00439453 0.1449585 C18.70461266 0.19628266 22.40499659 0.21898051 26.10546875 0.24414062 C33.35468213 0.29762204 40.6028497 0.38550524 47.8515625 0.48828125 C47.8515625 5.76828125 47.8515625 11.04828125 47.8515625 16.48828125 C39.72372351 16.60134668 31.59649816 16.69303264 23.46808338 16.74734211 C19.6935124 16.77341107 15.91950836 16.80875754 12.14526367 16.86547852 C8.50125769 16.91989806 4.85779619 16.94972211 1.21341515 16.96266747 C-0.17529177 16.97188982 -1.56396965 16.98989978 -2.95244408 17.01693153 C-4.90053494 17.05334196 -6.84917641 17.05532464 -8.79760742 17.0559082 C-9.9056926 17.06701126 -11.01377777 17.07811432 -12.15544128 17.08955383 C-16.13719293 16.28964701 -17.62930658 14.60135842 -20.1484375 11.48828125 C-20.8359375 8.48828125 -20.8359375 8.48828125 -20.1484375 5.48828125 C-14.73677426 -1.17255692 -8.00535833 -0.1590467 0 0 Z " fill="#BDE2F0" transform="translate(38.1484375,378.51171875)"/>
<path d="M0 0 C4.94413562 2.1578219 6.82005066 5.15030257 9 10 C12.39517205 20.41649915 14.18348584 30.98988741 14.0625 41.9375 C14.041875 44.598125 14.02125 47.25875 14 50 C5.09 50 -3.82 50 -13 50 C-10.55848435 14.19110379 -10.55848435 14.19110379 -3 2 C-2.01 1.34 -1.02 0.68 0 0 Z " fill="#FBE269" transform="translate(323,183)"/>
<path d="M0 0 C3.35664651 1.03727464 4.30354274 2.60338199 6.03515625 5.62890625 C6.50667935 8.91784402 6.4136517 12.12770617 6.28515625 15.44140625 C6.26710938 16.32505859 6.2490625 17.20871094 6.23046875 18.11914062 C6.18354138 20.28953168 6.11180356 22.45936144 6.03515625 24.62890625 C3.07166344 25.61673719 1.06388995 25.7630115 -2.02734375 25.75390625 C-3.34412109 25.75777344 -3.34412109 25.75777344 -4.6875 25.76171875 C-6.96484375 25.62890625 -6.96484375 25.62890625 -8.96484375 24.62890625 C-9.05213257 21.37907625 -9.10533033 18.12954875 -9.15234375 14.87890625 C-9.17748047 13.95851563 -9.20261719 13.038125 -9.22851562 12.08984375 C-9.23818359 11.20039062 -9.24785156 10.3109375 -9.2578125 9.39453125 C-9.27352295 8.57758789 -9.2892334 7.76064453 -9.30541992 6.91894531 C-8.44936991 1.16285274 -5.47396084 0.17930122 0 0 Z " fill="#F4DC66" transform="translate(256.96484375,48.37109375)"/>
</svg>
