<?xml version="1.0" encoding="UTF-8"?>
<svg version="1.1" xmlns="http://www.w3.org/2000/svg" width="512" height="512">
<path d="M0 0 C7.38803751 1.96306921 13.62199175 7.59361603 17.84765625 13.83203125 C20.68823608 19.25589202 21.46098646 24.50527016 21.6796875 30.59765625 C21.72158203 31.70947266 21.76347656 32.82128906 21.80664062 33.96679688 C21.84595703 35.11728516 21.88527344 36.26777344 21.92578125 37.453125 C21.96896484 38.62294922 22.01214844 39.79277344 22.05664062 40.99804688 C22.16246404 43.87879531 22.2645495 46.75962623 22.36328125 49.640625 C22.97429688 48.70476562 23.5853125 47.76890625 24.21484375 46.8046875 C29.23188521 39.41595371 35.50810501 34.38262688 44.36328125 32.640625 C53.11465281 31.7520242 60.38965155 33.09294095 67.625 38.25390625 C73.95524556 43.53106105 77.5965071 49.14824868 79.6953125 57.15234375 C79.89292679 57.87022064 80.09054108 58.58809753 80.29414368 59.32772827 C80.93251958 61.65832387 81.55479269 63.9928418 82.17578125 66.328125 C82.6131337 67.94670514 83.05112786 69.56511202 83.48974609 71.18334961 C84.3714717 74.44501501 85.24577919 77.70854627 86.11474609 80.97363281 C87.24136302 85.20058764 88.40248655 89.41706264 89.5703125 93.6328125 C90.21082802 95.98925949 90.85022851 98.34600997 91.48828125 100.703125 C91.78323486 101.75781982 92.07818848 102.81251465 92.38208008 103.89916992 C95.16320917 114.40104545 95.8417357 123.9244249 90.36328125 133.640625 C86.40547184 139.31283206 82.31578677 142.30584212 76.36328125 145.640625 C77.10430537 145.64122209 77.84532948 145.64181918 78.60880888 145.64243436 C122.53284569 145.67833222 166.45681378 145.73497722 210.3807871 145.81854595 C215.65538773 145.82856335 220.92998868 145.83840749 226.20458984 145.84814453 C227.25466314 145.8500859 228.30473643 145.85202728 229.38663013 145.85402748 C246.3868359 145.8850443 263.38702817 145.90202725 280.38725691 145.91381922 C297.83247514 145.92623242 315.27762256 145.95373766 332.72279608 145.99523807 C343.48646388 146.02036858 354.25001422 146.0337426 365.01371177 146.03205457 C372.39587457 146.03202481 379.77791779 146.04666129 387.16003399 146.07278928 C391.41845795 146.08742958 395.67663666 146.09564303 399.93508148 146.08642769 C403.83771826 146.07812536 407.73986281 146.08833742 411.64242668 146.11296162 C413.05039063 146.11863355 414.45840141 146.11764792 415.86635105 146.10913745 C425.80799166 146.0542175 433.31929607 147.30969139 441.67578125 152.828125 C446.67004077 158.05467566 450.41428105 164.49532994 450.56860352 171.83666992 C450.58854874 172.67731491 450.60849396 173.5179599 450.62904358 174.38407898 C450.65411232 175.73890129 450.65411232 175.73890129 450.6796875 177.12109375 C450.7004686 178.04908279 450.72124969 178.97707184 450.74266052 179.93318176 C450.80805448 182.8980874 450.86699387 185.86308172 450.92578125 188.828125 C450.96897612 190.8378998 451.01259072 192.84766563 451.05664062 194.85742188 C451.16372552 199.78506532 451.2650217 204.71279799 451.36328125 209.640625 C451.94227173 208.72591431 451.94227173 208.72591431 452.53295898 207.79272461 C453.31328491 206.58628296 453.31328491 206.58628296 454.109375 205.35546875 C454.61911865 204.56003662 455.1288623 203.76460449 455.65405273 202.94506836 C459.30877955 198.01763422 464.49232192 194.39710054 470.36328125 192.640625 C473.59674113 192.35851105 476.80694783 192.36129116 480.05078125 192.390625 C480.91767578 192.38289062 481.78457031 192.37515625 482.67773438 192.3671875 C483.50595703 192.36976563 484.33417969 192.37234375 485.1875 192.375 C485.94119873 192.37725586 486.69489746 192.37951172 487.47143555 192.38183594 C489.36328125 192.640625 489.36328125 192.640625 491.36328125 194.640625 C491.56287175 197.14432763 491.63697881 199.53778798 491.62397766 202.04284668 C491.62780321 202.81493579 491.63162876 203.58702491 491.63557023 204.38251066 C491.64593347 206.98359092 491.64190185 209.5844518 491.63793945 212.18554688 C491.64228406 214.04464422 491.64746636 215.90373977 491.65342712 217.76283264 C491.66685456 222.82262455 491.66739171 227.88234194 491.66486382 232.94214821 C491.66379677 237.15966825 491.66867058 241.37717305 491.67346925 245.59468985 C491.68457712 255.54018886 491.68499447 265.48565012 491.67895508 275.43115234 C491.67291126 285.70700118 491.68523374 295.98271323 491.70652515 306.25853872 C491.72410997 315.06788811 491.7301475 323.87719384 491.7268874 332.68656015 C491.72506961 337.95383323 491.72776002 343.22100872 491.74160194 348.48826599 C491.75412527 353.43929107 491.75228863 358.39010201 491.73919106 363.34112358 C491.73681378 365.16247567 491.7396008 366.98384257 491.74781418 368.80517769 C491.75818659 371.28317244 491.75025864 373.76043588 491.73750305 376.23840332 C491.74487734 376.96660263 491.75225162 377.69480193 491.75984937 378.44506788 C491.73801136 380.44843292 491.73801136 380.44843292 491.36328125 383.640625 C487.67682296 386.09826386 484.82378259 385.96367999 480.5546875 385.9765625 C479.79155746 385.9832193 479.02842743 385.9898761 478.24217224 385.99673462 C476.62916472 386.00685307 475.0161154 386.01155189 473.40307617 386.01123047 C470.93793659 386.01560344 468.47458838 386.05192719 466.00976562 386.08984375 C464.44141236 386.09571222 462.87305061 386.09968141 461.3046875 386.1015625 C460.56916153 386.11593353 459.83363556 386.13030457 459.07582092 386.14511108 C453.81784231 386.09827196 453.38875391 385.66609766 449.36328125 381.640625 C449.36328125 355.240625 449.36328125 328.840625 449.36328125 301.640625 C308.12328125 301.640625 166.88328125 301.640625 21.36328125 301.640625 C21.36328125 328.040625 21.36328125 354.440625 21.36328125 381.640625 C16.90560655 386.0982997 16.90560655 386.0982997 11.65074158 386.14511108 C10.54745262 386.12355453 10.54745262 386.12355453 9.421875 386.1015625 C8.65778824 386.10064606 7.89370148 386.09972961 7.10646057 386.0987854 C5.49514534 386.09275618 3.88384097 386.07703032 2.27270508 386.05224609 C-0.1942672 386.01569836 -2.65973815 386.01122713 -5.12695312 386.01171875 C-6.6940234 386.00188846 -8.26108351 385.99023184 -9.828125 385.9765625 C-10.9344503 385.97322403 -10.9344503 385.97322403 -12.06312561 385.96981812 C-15.78519228 385.90074709 -17.46108567 385.75771372 -20.63671875 383.640625 C-21.01276624 380.94513416 -21.01276624 380.94513416 -21.01424217 377.4342804 C-21.01860249 376.78761315 -21.02296282 376.14094591 -21.02745527 375.47468269 C-21.03848827 373.2867062 -21.02795287 371.09934986 -21.01766968 368.91137695 C-21.02112308 367.33539918 -21.0258855 365.75942382 -21.03185141 364.18345356 C-21.04443475 359.83636719 -21.03815794 355.48947708 -21.02889276 351.14238977 C-21.02213245 346.4606658 -21.03256843 341.77897667 -21.04083252 337.09725952 C-21.05420444 327.91929971 -21.05127676 318.74141331 -21.0425946 309.56345057 C-21.03583202 302.10736788 -21.03489513 294.65130583 -21.03816605 287.19522095 C-21.03862575 286.13588138 -21.03908544 285.07654181 -21.03955907 283.98510104 C-21.04051821 281.83338157 -21.04149084 279.6816621 -21.04247685 277.52994263 C-21.05104087 257.33153108 -21.04118075 237.13316031 -21.02507575 216.93475544 C-21.01167165 199.58636601 -21.01399946 182.23803679 -21.02783203 164.88964844 C-21.04386999 144.76577226 -21.05021681 124.64193187 -21.04099524 104.51805019 C-21.04003955 102.37404315 -21.03909644 100.23003611 -21.03816605 98.08602905 C-21.03770322 97.03101033 -21.03724039 95.97599161 -21.03676354 94.88900262 C-21.03416829 87.43792542 -21.03855614 79.98687082 -21.04560471 72.53579712 C-21.05400012 63.46108283 -21.05178099 54.38644643 -21.03576247 45.31174111 C-21.02785326 40.67762605 -21.02483299 36.04364106 -21.03470993 31.40952682 C-21.04360284 27.17317564 -21.03881409 22.93707598 -21.02277727 18.70074785 C-21.01940638 17.16242676 -21.02117479 15.62408472 -21.02840464 14.08577693 C-21.03743544 12.00586587 -21.0282662 9.92683354 -21.01424217 7.8469696 C-21.01375512 6.68838786 -21.01326806 5.52980612 -21.01276624 4.33611584 C-20.88867057 3.44660386 -20.7645749 2.55709188 -20.63671875 1.640625 C-14.99534982 -2.12028762 -6.56664737 -0.89500972 0 0 Z M21.36328125 73.640625 C21.36328125 103.670625 21.36328125 133.700625 21.36328125 164.640625 C23.48926701 161.82927935 23.48926701 161.82927935 25.43359375 158.89453125 C28.96159213 153.23666719 33.89361676 150.08032746 40.21875 148.04296875 C43.17418325 147.48848856 46.11457867 147.28803418 49.11328125 147.078125 C50.28375 146.99433594 51.45421875 146.91054687 52.66015625 146.82421875 C53.5521875 146.76363281 54.44421875 146.70304687 55.36328125 146.640625 C53.71142203 145.53938552 52.04185966 144.45940445 50.3125 143.484375 C49.56613281 143.0409375 48.81976563 142.5975 48.05078125 142.140625 C47.31214844 141.7178125 46.57351562 141.295 45.8125 140.859375 C38.4913832 134.22716711 35.88774943 124.90073155 33.49609375 115.6328125 C33.17164276 114.4261795 32.84719177 113.21954651 32.51290894 111.97634888 C31.66346442 108.80637908 30.82735234 105.6333057 29.99786377 102.45806885 C29.14402932 99.20339388 28.27238483 95.95349746 27.40234375 92.703125 C25.70642789 86.35318049 24.02803663 79.99880561 22.36328125 73.640625 C22.03328125 73.640625 21.70328125 73.640625 21.36328125 73.640625 Z " fill="#CD9774" transform="translate(20.63671875,63.359375)"/>
<path d="M0 0 C7.38803751 1.96306921 13.62199175 7.59361603 17.84765625 13.83203125 C20.68823608 19.25589202 21.46098646 24.50527016 21.6796875 30.59765625 C21.72158203 31.70947266 21.76347656 32.82128906 21.80664062 33.96679688 C21.84595703 35.11728516 21.88527344 36.26777344 21.92578125 37.453125 C21.96896484 38.62294922 22.01214844 39.79277344 22.05664062 40.99804688 C22.16246404 43.87879531 22.2645495 46.75962623 22.36328125 49.640625 C22.97429688 48.70476562 23.5853125 47.76890625 24.21484375 46.8046875 C29.23188521 39.41595371 35.50810501 34.38262688 44.36328125 32.640625 C53.11465281 31.7520242 60.38965155 33.09294095 67.625 38.25390625 C73.95524556 43.53106105 77.5965071 49.14824868 79.6953125 57.15234375 C79.89292679 57.87022064 80.09054108 58.58809753 80.29414368 59.32772827 C80.93251958 61.65832387 81.55479269 63.9928418 82.17578125 66.328125 C82.6131337 67.94670514 83.05112786 69.56511202 83.48974609 71.18334961 C84.3714717 74.44501501 85.24577919 77.70854627 86.11474609 80.97363281 C87.24136302 85.20058764 88.40248655 89.41706264 89.5703125 93.6328125 C90.21082802 95.98925949 90.85022851 98.34600997 91.48828125 100.703125 C91.78323486 101.75781982 92.07818848 102.81251465 92.38208008 103.89916992 C95.16320917 114.40104545 95.8417357 123.9244249 90.36328125 133.640625 C86.26332098 139.51655817 82.80375789 141.96035264 76.36328125 145.640625 C97.15328125 145.970625 117.94328125 146.300625 139.36328125 146.640625 C137.31795177 147.66328974 135.27200206 148.6849369 133.21484375 149.68359375 C125.1384595 153.83513863 120.29850649 158.9298323 117.36328125 167.640625 C116.89964264 171.16915747 116.89964264 171.16915747 116.9309082 174.86108398 C116.92063441 175.55578073 116.91036062 176.25047747 116.89977551 176.96622562 C116.87015499 179.18981464 116.86038821 181.41296066 116.8515625 183.63671875 C116.83607713 185.01958735 116.81927684 186.40244186 116.80114746 187.78527832 C116.74346059 192.88273876 116.71112371 197.98046067 116.67578125 203.078125 C116.52109375 220.1865625 116.52109375 220.1865625 116.36328125 237.640625 C84.68328125 237.640625 53.00328125 237.640625 20.36328125 237.640625 C20.52828125 246.365 20.69328125 255.089375 20.86328125 264.078125 C20.95663674 269.80207051 21.04795495 275.52584109 21.125 281.25 C21.13498205 281.99067467 21.1449641 282.73134933 21.15524864 283.49446869 C21.40220336 302.11390167 21.57801522 320.73357727 21.65039062 339.35452271 C21.66524316 343.00607338 21.68967965 346.65737192 21.72216797 350.30880737 C21.7601919 354.64397564 21.77868625 358.97879561 21.78223228 363.31412506 C21.78674572 364.92117969 21.79808732 366.52823125 21.81662941 368.13518524 C21.84082772 370.34078849 21.8401752 372.54503872 21.83325195 374.75073242 C21.83911819 375.99078537 21.84498444 377.23083832 21.85102844 378.50846863 C21.36328125 381.640625 21.36328125 381.640625 19.56011963 384.0408783 C16.34479421 386.38229143 13.2460417 386.17628077 9.421875 386.1015625 C8.65778824 386.10064606 7.89370148 386.09972961 7.10646057 386.0987854 C5.49514534 386.09275618 3.88384097 386.07703032 2.27270508 386.05224609 C-0.1942672 386.01569836 -2.65973815 386.01122713 -5.12695312 386.01171875 C-6.6940234 386.00188846 -8.26108351 385.99023184 -9.828125 385.9765625 C-10.9344503 385.97322403 -10.9344503 385.97322403 -12.06312561 385.96981812 C-15.78519228 385.90074709 -17.46108567 385.75771372 -20.63671875 383.640625 C-21.01276624 380.94513416 -21.01276624 380.94513416 -21.01424217 377.4342804 C-21.01860249 376.78761315 -21.02296282 376.14094591 -21.02745527 375.47468269 C-21.03848827 373.2867062 -21.02795287 371.09934986 -21.01766968 368.91137695 C-21.02112308 367.33539918 -21.0258855 365.75942382 -21.03185141 364.18345356 C-21.04443475 359.83636719 -21.03815794 355.48947708 -21.02889276 351.14238977 C-21.02213245 346.4606658 -21.03256843 341.77897667 -21.04083252 337.09725952 C-21.05420444 327.91929971 -21.05127676 318.74141331 -21.0425946 309.56345057 C-21.03583202 302.10736788 -21.03489513 294.65130583 -21.03816605 287.19522095 C-21.03862575 286.13588138 -21.03908544 285.07654181 -21.03955907 283.98510104 C-21.04051821 281.83338157 -21.04149084 279.6816621 -21.04247685 277.52994263 C-21.05104087 257.33153108 -21.04118075 237.13316031 -21.02507575 216.93475544 C-21.01167165 199.58636601 -21.01399946 182.23803679 -21.02783203 164.88964844 C-21.04386999 144.76577226 -21.05021681 124.64193187 -21.04099524 104.51805019 C-21.04003955 102.37404315 -21.03909644 100.23003611 -21.03816605 98.08602905 C-21.03770322 97.03101033 -21.03724039 95.97599161 -21.03676354 94.88900262 C-21.03416829 87.43792542 -21.03855614 79.98687082 -21.04560471 72.53579712 C-21.05400012 63.46108283 -21.05178099 54.38644643 -21.03576247 45.31174111 C-21.02785326 40.67762605 -21.02483299 36.04364106 -21.03470993 31.40952682 C-21.04360284 27.17317564 -21.03881409 22.93707598 -21.02277727 18.70074785 C-21.01940638 17.16242676 -21.02117479 15.62408472 -21.02840464 14.08577693 C-21.03743544 12.00586587 -21.0282662 9.92683354 -21.01424217 7.8469696 C-21.01375512 6.68838786 -21.01326806 5.52980612 -21.01276624 4.33611584 C-20.88867057 3.44660386 -20.7645749 2.55709188 -20.63671875 1.640625 C-14.99534982 -2.12028762 -6.56664737 -0.89500972 0 0 Z M21.36328125 73.640625 C21.36328125 103.670625 21.36328125 133.700625 21.36328125 164.640625 C23.48926701 161.82927935 23.48926701 161.82927935 25.43359375 158.89453125 C28.96159213 153.23666719 33.89361676 150.08032746 40.21875 148.04296875 C43.17418325 147.48848856 46.11457867 147.28803418 49.11328125 147.078125 C50.28375 146.99433594 51.45421875 146.91054687 52.66015625 146.82421875 C53.5521875 146.76363281 54.44421875 146.70304687 55.36328125 146.640625 C53.71142203 145.53938552 52.04185966 144.45940445 50.3125 143.484375 C49.56613281 143.0409375 48.81976563 142.5975 48.05078125 142.140625 C47.31214844 141.7178125 46.57351562 141.295 45.8125 140.859375 C38.4913832 134.22716711 35.88774943 124.90073155 33.49609375 115.6328125 C33.17164276 114.4261795 32.84719177 113.21954651 32.51290894 111.97634888 C31.66346442 108.80637908 30.82735234 105.6333057 29.99786377 102.45806885 C29.14402932 99.20339388 28.27238483 95.95349746 27.40234375 92.703125 C25.70642789 86.35318049 24.02803663 79.99880561 22.36328125 73.640625 C22.03328125 73.640625 21.70328125 73.640625 21.36328125 73.640625 Z " fill="#D8A98A" transform="translate(20.63671875,63.359375)"/>
<path d="M0 0 C1.77245283 -0.00935994 1.77245283 -0.00935994 3.5807128 -0.01890898 C6.83407487 -0.03203162 10.08683204 -0.02740662 13.34017825 -0.0149641 C16.85900382 -0.00587072 20.37775096 -0.01990446 23.89656067 -0.03088379 C30.77941672 -0.04862812 37.66209784 -0.04484735 44.54496062 -0.03323323 C50.14104685 -0.02418303 55.73708421 -0.02298175 61.33317566 -0.02732849 C62.13101293 -0.02794142 62.9288502 -0.02855436 63.75086436 -0.02918586 C65.37188472 -0.03046482 66.99290506 -0.03176168 68.6139254 -0.03307623 C83.79810648 -0.04447005 98.98219081 -0.03138716 114.16635603 -0.00987476 C127.1822822 0.00799515 140.19806566 0.0048907 153.21398926 -0.0135498 C168.345511 -0.03497772 183.47694804 -0.04337153 198.60848284 -0.03110075 C200.22338898 -0.02982661 201.83829513 -0.02856913 203.45320129 -0.02732849 C204.24767216 -0.02671139 205.04214303 -0.02609429 205.86068878 -0.02545848 C211.44711955 -0.02201134 217.0334964 -0.02782019 222.61991882 -0.0372467 C229.43213974 -0.04848945 236.2441764 -0.04537903 243.05637634 -0.02412373 C246.52909472 -0.01364372 250.00150639 -0.00943884 253.47422218 -0.02272034 C257.24524503 -0.03367285 261.01540864 -0.01991368 264.78637695 0 C265.8749114 -0.00892289 266.96344584 -0.01784577 268.08496618 -0.02703905 C276.54675722 0.0594574 283.13345928 2.02509454 290.20568848 6.69543457 C310.51276804 27.94702946 298.89318848 67.64633402 298.89318848 90.50793457 C188.67318848 90.50793457 78.45318848 90.50793457 -35.10681152 90.50793457 C-35.10681152 16.76217186 -35.10681152 16.76217186 -26.41931152 7.63293457 C-18.33823126 1.22285243 -10.0755727 -0.08259104 0 0 Z " fill="#355D7C" transform="translate(172.1068115234375,209.4920654296875)"/>
<path d="M0 0 C7.52607334 5.36833901 11.97355284 11.51732346 14.33203125 20.51171875 C14.52964554 21.22959564 14.72725983 21.94747253 14.93086243 22.68710327 C15.56923833 25.01769887 16.19151144 27.3522168 16.8125 29.6875 C17.24985245 31.30608014 17.68784661 32.92448702 18.12646484 34.54272461 C19.00819045 37.80439001 19.88249794 41.06792127 20.75146484 44.33300781 C21.87808177 48.55996264 23.0392053 52.77643764 24.20703125 56.9921875 C24.84754677 59.34863449 25.48694726 61.70538497 26.125 64.0625 C26.41995361 65.11719482 26.71490723 66.17188965 27.01879883 67.25854492 C29.79992792 77.76042045 30.47845445 87.2837999 25 97 C20.90003973 102.87593317 17.44047664 105.31972764 11 109 C31.79 109.33 52.58 109.66 74 110 C71.95467052 111.02266474 69.90872081 112.0443119 67.8515625 113.04296875 C59.77517825 117.19451363 54.93522524 122.2892073 52 131 C51.53636139 134.52853247 51.53636139 134.52853247 51.56762695 138.22045898 C51.55735316 138.91515573 51.54707937 139.60985247 51.53649426 140.32560062 C51.50687374 142.54918964 51.49710696 144.77233566 51.48828125 146.99609375 C51.47279588 148.37896235 51.45599559 149.76181686 51.43786621 151.14465332 C51.38017934 156.24211376 51.34784246 161.33983567 51.3125 166.4375 C51.209375 177.843125 51.10625 189.24875 51 201 C19.32 201 -12.36 201 -45 201 C-45.061875 189.78 -45.12375 178.56 -45.1875 167 C-45.21481201 163.47054687 -45.24212402 159.94109375 -45.27026367 156.3046875 C-45.28381348 151.9609375 -45.28381348 151.9609375 -45.28633118 149.92089844 C-45.29090734 148.5103877 -45.30139459 147.09988795 -45.31672668 145.68945312 C-45.43743312 133.99023909 -44.50235555 124.74581507 -36 116 C-29.24470686 110.50958685 -21.43329979 109.80374265 -13 109 C-13.58007812 108.67128906 -14.16015625 108.34257812 -14.7578125 108.00390625 C-31.20690936 97.98787202 -33.40700984 76.91210845 -38.02197266 59.55053711 C-38.75949544 56.7767886 -39.50242326 54.0045278 -40.24609375 51.23242188 C-40.72166473 49.45320798 -41.19693649 47.67391408 -41.671875 45.89453125 C-41.89164001 45.0737056 -42.11140503 44.25287994 -42.33782959 43.40718079 C-45.50392166 31.47572735 -47.10035628 20.3079775 -41 9 C-37.3025781 2.97457171 -31.06330117 -0.75198841 -24.625 -3.375 C-15.66280467 -4.92020609 -8.03401535 -4.54328231 0 0 Z " fill="#D2EEFA" transform="translate(86,100)"/>
<path d="M0 0 C22.64508516 -0.85701923 22.64508516 -0.85701923 33.3125 6.1875 C53.61957956 27.43909489 42 67.13839945 42 90 C-54.69 90 -151.38 90 -251 90 C-251 83.4 -251 76.8 -251 70 C-248.45474609 69.99857498 -245.90949219 69.99714996 -243.28710938 69.99568176 C-219.27525521 69.97986513 -195.26356287 69.93647196 -171.25180054 69.86790943 C-158.90775596 69.83332075 -146.56382235 69.80791194 -134.21972656 69.80444336 C-123.45512783 69.80139495 -112.69072703 69.78078677 -101.92620468 69.73947543 C-96.23140315 69.71822337 -90.53688247 69.70550468 -84.84204102 69.71384621 C-79.47061064 69.72143574 -74.09974702 69.70536556 -68.72842026 69.67193985 C-66.76783797 69.66376535 -64.8071987 69.66388633 -62.84662247 69.67340279 C-45.16632664 69.75065424 -29.12132979 67.16807296 -15.5390625 54.75 C-1.50881078 40.20701483 0.42049577 23.89762038 0.10546875 4.609375 C0.07240013 3.07287032 0.03807776 1.53638871 0 0 Z " fill="#2B4D66" transform="translate(429,210)"/>
<path d="M0 0 C1.28680664 -0.00483398 1.28680664 -0.00483398 2.59960938 -0.00976562 C8.91993428 0.04493428 8.91993428 0.04493428 11.1875 2.3125 C11.3870905 4.81620263 11.46119756 7.20966298 11.44819641 9.71472168 C11.45393473 10.87285535 11.45393473 10.87285535 11.45978898 12.05438566 C11.47015222 14.65546592 11.4661206 17.2563268 11.4621582 19.85742188 C11.46650281 21.71651922 11.47168511 23.57561477 11.47764587 25.43470764 C11.49107331 30.49449955 11.49161046 35.55421694 11.48908257 40.61402321 C11.48801552 44.83154325 11.49288933 49.04904805 11.497688 53.26656485 C11.50879587 63.21206386 11.50921322 73.15752512 11.50317383 83.10302734 C11.49713001 93.37887618 11.50945249 103.65458823 11.5307439 113.93041372 C11.54832872 122.73976311 11.55436625 131.54906884 11.55110615 140.35843515 C11.54928836 145.62570823 11.55197877 150.89288372 11.56582069 156.16014099 C11.57834402 161.11116607 11.57650738 166.06197701 11.56340981 171.01299858 C11.56103253 172.83435067 11.56381955 174.65571757 11.57203293 176.47705269 C11.58240534 178.95504744 11.57447739 181.43231088 11.5617218 183.91027832 C11.56909609 184.63847763 11.57647037 185.36667693 11.58406812 186.11694288 C11.56223011 188.12030792 11.56223011 188.12030792 11.1875 191.3125 C7.50104171 193.77013886 4.64800134 193.63555499 0.37890625 193.6484375 C-0.38422379 193.6550943 -1.14735382 193.6617511 -1.93360901 193.66860962 C-3.54661653 193.67872807 -5.15966585 193.68342689 -6.77270508 193.68310547 C-9.23784466 193.68747844 -11.70119287 193.72380219 -14.16601562 193.76171875 C-15.73436889 193.76758722 -17.30273064 193.77155641 -18.87109375 193.7734375 C-19.60661972 193.78780853 -20.34214569 193.80217957 -21.09996033 193.81698608 C-24.33769082 193.78814374 -26.37101489 193.63897427 -29.00933838 191.68795776 C-31.38155218 188.56283929 -31.30212824 186.72202321 -31.2824707 182.81933594 C-31.28570107 181.84274222 -31.28570107 181.84274222 -31.2889967 180.84641933 C-31.29123441 178.66274541 -31.26470687 176.48037636 -31.23828125 174.296875 C-31.23387853 172.7263476 -31.23119667 171.15581457 -31.23010254 169.58528137 C-31.22168296 165.30550523 -31.18771594 161.02628008 -31.1480751 156.74669266 C-31.10941064 152.2490807 -31.08975337 147.75137799 -31.06713867 143.25366211 C-31.0310595 136.59528597 -30.98433286 129.93708832 -30.92755604 123.27885723 C-30.8413079 113.16305051 -30.79093917 103.04781889 -30.7713747 92.93166542 C-30.75521364 84.84467347 -30.72088216 76.75790422 -30.6723814 68.67104149 C-30.64347677 63.80070545 -30.62181185 58.93060693 -30.61831665 54.06018066 C-30.61415064 49.46104645 -30.58574753 44.86266527 -30.53938293 40.26376915 C-30.52635949 38.57620311 -30.52170054 36.88854741 -30.52626038 35.20093727 C-30.54800022 24.96182069 -30.18587255 16.0638826 -22.82307434 8.18312073 C-15.849188 1.49570026 -9.40093226 -0.1806482 0 0 Z " fill="#D8AA8A" transform="translate(500.8125,255.6875)"/>
<path d="M0 0 C0.91808441 0.00565979 1.83616882 0.01131958 2.78207397 0.01715088 C5.6755898 0.03930025 8.56780461 0.08945329 11.4609375 0.140625 C13.43878403 0.16071782 15.41665023 0.17896367 17.39453125 0.1953125 C22.20882428 0.23909425 27.02216139 0.30796869 31.8359375 0.390625 C29.72902811 1.45407821 27.62912907 2.48174356 25.46875 3.43359375 C18.12327212 6.78596917 13.8526046 10.27610197 10.28955078 17.5456543 C7.88545181 24.10436056 8.35323042 31.15479739 8.32421875 38.046875 C8.30735059 39.56003253 8.2891975 41.07317622 8.26982117 42.58630371 C8.22254657 46.5448779 8.19259218 50.50339599 8.16638184 54.4621582 C8.13118975 59.22482062 8.07424188 63.98726773 8.02098846 68.74975586 C7.94273907 75.96335063 7.89193448 83.17666872 7.8359375 90.390625 C-5.6940625 90.390625 -19.2240625 90.390625 -33.1640625 90.390625 C-33.36460655 73.57166429 -33.36460655 73.57166429 -33.40820312 66.3515625 C-33.43798702 61.44243029 -33.47305682 56.53376841 -33.54125977 51.625 C-33.59595426 47.66326654 -33.62556084 43.70203805 -33.63844872 39.7399559 C-33.64762208 38.23537125 -33.66553443 36.73081137 -33.69271278 35.22644424 C-33.8652188 25.2737994 -33.18104379 17.16774965 -26.4210968 9.38357544 C-18.87664834 2.13625879 -10.24650753 -0.2439673 0 0 Z " fill="#407092" transform="translate(170.1640625,209.609375)"/>
<path d="M0 0 C3.05887946 9.31981997 5.7288397 18.66186673 8.046875 28.19311523 C10.04261634 36.33277748 12.33286993 44.37793138 14.66796875 52.42578125 C14.89452148 53.20816162 15.12107422 53.99054199 15.35449219 54.79663086 C15.93940514 56.79316618 16.54471139 58.78369899 17.15234375 60.7734375 C19.40807605 69.35977336 18.39233199 77.29786544 14 85 C9.11393374 92.20838482 3.35259557 96.4719147 -5 99 C-7.51320346 99.33045582 -9.4646679 99.28170357 -12 99 C-15.20662515 93.38446888 -16.67924247 87.43868761 -18.3203125 81.21484375 C-18.62444061 80.08099747 -18.92856873 78.94715118 -19.24191284 77.77894592 C-20.20899706 74.16671711 -21.16690722 70.55212275 -22.125 66.9375 C-22.77678554 64.50180368 -23.42912331 62.06625507 -24.08203125 59.63085938 C-24.70362549 57.30482119 -25.32473573 54.9786536 -25.9453125 52.65234375 C-26.23697296 51.55953598 -26.52863342 50.46672821 -26.82913208 49.34080505 C-27.099664 48.31946976 -27.37019592 47.29813446 -27.64892578 46.24584961 C-27.88636505 45.35127548 -28.12380432 44.45670135 -28.36843872 43.53501892 C-31.02558122 32.86953527 -31.32288225 22.86680612 -26 13 C-22.25202521 6.89218923 -15.91434236 3.08670393 -9.3125 0.625 C-6.10967128 0.02069269 -3.24745154 -0.0454189 0 0 Z " fill="#D2EEFA" transform="translate(71,96)"/>
<path d="M0 0 C9.43817924 0.43695274 15.62344164 3.22298647 22.359375 9.828125 C27.50552116 16.6406423 29.48096575 24.51817943 31.63671875 32.63671875 C31.96162796 33.83432327 32.28653717 35.0319278 32.62129211 36.26582336 C33.65132802 40.07094989 34.66936138 43.87917503 35.6875 47.6875 C36.38162832 50.25896303 37.07867506 52.82962634 37.77539062 55.40039062 C39.04550139 60.10262567 40.31523434 64.80494396 41.57299805 69.51049805 C41.825186 70.45233444 42.07737396 71.39417084 42.33720398 72.36454773 C44.88919054 82.51192121 45.25158438 91.6465864 40 101 C35.99523205 106.91377651 30.98754565 112.01791189 24 114 C20.80972895 114.39832708 17.65075617 114.52049665 14.4375 114.5625 C13.6340918 114.57732422 12.83068359 114.59214844 12.00292969 114.60742188 C3.47555438 114.460579 -2.97391271 110.88594572 -9 105 C-10.875 101.6875 -10.875 101.6875 -12 99 C-10.72125 98.773125 -9.4425 98.54625 -8.125 98.3125 C-0.35575044 96.55065443 6.83048612 93.47474411 11.75 87.00390625 C16.3210884 79.67588016 18.23707792 72.59555864 17 64 C15.94545992 59.82505855 14.71430936 55.73751897 13.41796875 51.6328125 C11.94836479 46.94639771 10.77214856 42.21142477 9.625 37.4375 C7.45049543 28.46389039 4.90243843 19.61982674 2.23486328 10.78100586 C1.94466309 9.81042236 1.65446289 8.83983887 1.35546875 7.83984375 C0.96331177 6.54614868 0.96331177 6.54614868 0.56323242 5.22631836 C0 3 0 3 0 0 Z " fill="#B1E4F9" transform="translate(71,96)"/>
<path d="M0 0 C0.33 0 0.66 0 1 0 C1 21.78 1 43.56 1 66 C-30.68 66 -62.36 66 -95 66 C-94.67 59.07 -94.34 52.14 -94 45 C-62.98 45 -31.96 45 0 45 C0 30.15 0 15.3 0 0 Z " fill="#B1E0F4" transform="translate(136,235)"/>
<path d="M0 0 C13.53 0 27.06 0 41 0 C41 6.6 41 13.2 41 20 C27.47 20 13.94 20 0 20 C0 13.4 0 6.8 0 0 Z " fill="#365E7D" transform="translate(137,280)"/>
</svg>
