<?xml version="1.0" encoding="UTF-8"?>
<svg version="1.1" xmlns="http://www.w3.org/2000/svg" width="512" height="512">
<path d="M0 0 C0.96838806 0.00215515 1.93677612 0.0043103 2.93450928 0.00653076 C17.25143438 0.05761097 31.24098845 0.44399783 45.3125 3.3125 C46.33859375 3.51649414 47.3646875 3.72048828 48.421875 3.93066406 C93.05493007 13.01327924 134.10503836 32.05912667 168.3125 62.3125 C169.56546875 63.39917969 169.56546875 63.39917969 170.84375 64.5078125 C181.91897413 74.2525714 192.26364912 84.65212414 201.3125 96.3125 C202.075625 97.24707031 202.83875 98.18164062 203.625 99.14453125 C211.46588144 108.93306753 217.93436966 119.53001208 224.3125 130.3125 C224.89644531 131.28993164 224.89644531 131.28993164 225.4921875 132.28710938 C247.32539728 169.26403044 256.79127437 213.36624954 256.625 255.9375 C256.62226578 257.39233292 256.62226578 257.39233292 256.61947632 258.8765564 C256.57408309 273.22806055 256.0687347 287.19192918 253.3125 301.3125 C253.15152832 302.20952637 252.99055664 303.10655273 252.82470703 304.03076172 C242.00212011 363.84088904 207.94435543 421.35495829 159.3125 458.3125 C158.77222168 458.72918945 158.23194336 459.14587891 157.67529297 459.57519531 C147.6802884 467.2584873 137.22040964 474.00092968 126.3125 480.3125 C125.63525879 480.70679199 124.95801758 481.10108398 124.26025391 481.50732422 C101.3416244 494.68961173 75.76677437 503.29510918 49.9375 508.625 C49.22682373 508.77243652 48.51614746 508.91987305 47.78393555 509.07177734 C32.14141634 512.05713787 16.50580394 512.6873098 0.625 512.625 C-0.34239105 512.62317719 -1.3097821 512.62135437 -2.30648804 512.61947632 C-16.63940977 512.57404826 -30.58523917 512.06516072 -44.6875 509.3125 C-45.58452637 509.15152832 -46.48155273 508.99055664 -47.40576172 508.82470703 C-107.21588904 498.00212011 -164.72995829 463.94435543 -201.6875 415.3125 C-202.10418945 414.77222168 -202.52087891 414.23194336 -202.95019531 413.67529297 C-210.6334873 403.6802884 -217.37592968 393.22040964 -223.6875 382.3125 C-224.08179199 381.63525879 -224.47608398 380.95801758 -224.88232422 380.26025391 C-238.06461173 357.3416244 -246.67010918 331.76677437 -252 305.9375 C-252.14743652 305.22682373 -252.29487305 304.51614746 -252.44677734 303.78393555 C-255.43213787 288.14141634 -256.0623098 272.50580394 -256 256.625 C-255.99817719 255.65760895 -255.99635437 254.6902179 -255.99447632 253.69351196 C-255.94904826 239.36059023 -255.44016072 225.41476083 -252.6875 211.3125 C-252.44604248 209.96696045 -252.44604248 209.96696045 -252.19970703 208.59423828 C-241.37712011 148.78411096 -207.31935543 91.27004171 -158.6875 54.3125 C-158.14722168 53.89581055 -157.60694336 53.47912109 -157.05029297 53.04980469 C-147.0552884 45.3665127 -136.59540964 38.62407032 -125.6875 32.3125 C-125.01025879 31.91820801 -124.33301758 31.52391602 -123.63525391 31.11767578 C-100.7166244 17.93538827 -75.14177437 9.32989082 -49.3125 4 C-48.60182373 3.85256348 -47.89114746 3.70512695 -47.15893555 3.55322266 C-31.51685465 0.56794578 -15.88048677 -0.0638264 0 0 Z M-155.6875 76.3125 C-156.53183594 77.04726562 -157.37617188 77.78203125 -158.24609375 78.5390625 C-167.90742657 87.04103538 -177.49417583 96.0631873 -185.32978821 106.30509949 C-186.97258523 108.40058402 -188.60865053 110.34789494 -190.38883972 112.31245422 C-196.14779031 118.98419522 -196.14779031 118.98419522 -197.92520142 127.35531616 C-197.42624798 131.86184751 -196.24793698 136.18050966 -195.05078125 140.54296875 C-194.65732779 142.15118637 -194.26916841 143.76070747 -193.8860321 145.37141418 C-192.86953398 149.57624933 -191.77704132 153.75761743 -190.66845703 157.93896484 C-189.77481472 161.36274419 -188.937028 164.79905276 -188.10159016 168.23742199 C-187.10285335 172.34384249 -186.08065762 176.44425894 -185.05078125 180.54296875 C-184.85538568 181.32208303 -184.65999012 182.10119732 -184.45867348 182.90392113 C-183.90066408 185.10372044 -183.3270859 187.29876861 -182.74731445 189.49291992 C-182.42181107 190.74086838 -182.09630768 191.98881683 -181.76094055 193.27458191 C-180.50277446 196.93120257 -180.50277446 196.93120257 -177.6875 199.3125 C-175.05099133 200.41670422 -172.4620969 201.39612834 -169.76293945 202.31860352 C-168.95605179 202.60177933 -168.14916412 202.88495514 -167.31782532 203.17671204 C-164.6490848 204.10908038 -161.97567301 205.02684372 -159.30078125 205.94140625 C-158.38678244 206.25505568 -157.47278362 206.5687051 -156.53108788 206.89185905 C-151.6950973 208.54944616 -146.85512018 210.19477772 -142.01196289 211.83129883 C-137.01141994 213.52402637 -132.02748918 215.26109109 -127.04583454 217.00848484 C-123.21024087 218.34430297 -119.36351731 219.64541582 -115.51299095 220.93748283 C-113.67013591 221.56273991 -111.83170862 222.20120949 -109.99810219 222.85309029 C-100.5779928 226.67185734 -100.5779928 226.67185734 -90.86523438 226.4131012 C-88.76364077 224.86439147 -87.31855773 223.33765779 -85.6875 221.3125 C-84.44506756 220.27306062 -83.18384732 219.25532747 -81.8984375 218.26953125 C-80.61880487 217.2225591 -79.34018715 216.17434547 -78.0625 215.125 C-72.97667006 210.96904195 -67.86529286 206.85332281 -62.6875 202.8125 C-57.63892986 198.87069295 -52.64987342 194.86225302 -47.6875 190.8125 C-43.31933555 187.24767614 -38.94378809 183.69674326 -34.49647522 180.23085499 C-33.36318404 179.34228052 -32.23477071 178.44740972 -31.11375427 177.54339886 C-28.02108707 175.06221542 -24.90008205 172.77439123 -21.55883789 170.63764954 C-12.83115873 164.86738276 -12.83115873 164.86738276 -8.28466797 155.83358765 C-7.64505454 150.62508129 -7.88211839 145.45863099 -8.125 140.23046875 C-8.15490555 138.32100484 -8.17765098 136.41141673 -8.19360352 134.50178528 C-8.25421846 129.51548176 -8.41088825 124.53683779 -8.58886719 119.55352783 C-8.7536286 114.45275512 -8.8258432 109.35072295 -8.90625 104.24804688 C-9.07698892 94.26619571 -9.34941486 84.28998858 -9.6875 74.3125 C-27.29853443 66.96151736 -44.95517854 59.77183181 -62.75 52.875 C-66.6582826 51.35734192 -70.56573148 49.83755613 -74.47265625 48.31640625 C-75.38109283 47.96333405 -76.28952942 47.61026184 -77.22549438 47.24649048 C-83.07506828 44.96549344 -88.87706953 42.60186517 -94.63842773 40.10522461 C-109.75019672 34.25893438 -144.32269147 66.15139196 -155.6875 76.3125 Z M89.31445312 42.41772461 C88.07525368 42.91274727 88.07525368 42.91274727 86.8110199 43.41777039 C84.07058965 44.51347882 81.33216521 45.61411 78.59375 46.71484375 C76.69578913 47.47501227 74.79771639 48.23490154 72.89953613 48.99452209 C68.91737666 50.58891621 64.9361206 52.18553801 60.95556641 53.78393555 C55.84522794 55.83598416 50.73341183 57.88431858 45.62100983 59.93122005 C40.75726801 61.87870933 35.89421347 63.82791188 31.03125 65.77734375 C30.0984169 66.15115614 29.1655838 66.52496853 28.20448303 66.91010857 C25.5727929 67.9650935 22.9415881 69.02127882 20.31054688 70.07788086 C19.52606674 70.39221069 18.74158661 70.70654053 17.93333435 71.03039551 C14.07725123 72.5681492 14.07725123 72.5681492 10.3125 74.3125 C10.01032175 85.33475852 9.77982669 96.35602104 9.63894176 107.38158894 C9.57129487 112.50238884 9.47967694 117.62034116 9.33178711 122.73950195 C9.18976262 127.68701465 9.11265432 132.63180296 9.07909584 137.58119774 C9.0552077 139.46210812 9.00855192 141.34288113 8.93800926 143.22262001 C8.26960333 154.36301575 8.26960333 154.36301575 13.16059875 163.88305664 C16.30708653 166.76121023 19.71337303 169.0370884 23.3125 171.3125 C24.58364 172.3017965 25.84402246 173.30548193 27.08203125 174.3359375 C28.08621094 175.11195313 29.09039062 175.88796875 30.125 176.6875 C35.24103581 180.6653485 40.29293146 184.71363791 45.3125 188.8125 C50.27474593 192.86241541 55.26408465 196.87049778 60.3125 200.8125 C66.08502679 205.32073413 71.78364292 209.91458267 77.45703125 214.546875 C78.71848655 215.57658068 79.99184604 216.59185128 81.27587891 217.59326172 C83.3125 219.3125 83.3125 219.3125 85.45458984 221.64501953 C88.00249304 224.20251533 89.99725991 225.85974507 93.3125 227.3125 C99.07459441 226.92999947 104.08947754 224.88184211 109.4375 222.8125 C111.02270866 222.24096681 112.60984887 221.67476683 114.19873047 221.11352539 C117.6675253 219.88381677 121.12631196 218.62971666 124.58203125 217.36376953 C130.78206299 215.11686614 137.04108702 213.06488172 143.3125 211.02734375 C144.40384247 210.671492 145.49518494 210.31564026 146.61959839 209.94900513 C150.97307374 208.5295488 155.32681321 207.11091627 159.68170166 205.69580078 C162.73102353 204.70091753 165.77606958 203.69389438 168.8203125 202.68359375 C169.7373999 202.38710434 170.6544873 202.09061493 171.59936523 201.78514099 C172.44200928 201.5034053 173.28465332 201.22166962 174.15283203 200.93139648 C174.88728546 200.6900145 175.62173889 200.44863251 176.37844849 200.19993591 C178.68197111 199.14296887 179.78295307 198.34934576 181.3125 196.3125 C182.47410993 193.18732955 182.47410993 193.18732955 183.38818359 189.50878906 C183.57210159 188.82043472 183.75601959 188.13208038 183.94551086 187.42286682 C184.54832013 185.14473767 185.13245557 182.86254817 185.7109375 180.578125 C186.00873549 179.40226963 186.00873549 179.40226963 186.31254959 178.20265961 C187.3595418 174.04594546 188.38823974 169.88508975 189.40625 165.72119141 C190.24855878 162.29283977 191.12848145 158.87779299 192.04394531 155.46826172 C193.15337909 151.3353973 194.19261115 147.19038728 195.18587112 143.02812958 C195.57308689 141.45472535 195.98363964 139.886855 196.41889572 138.32605743 C198.88963592 129.76113817 198.88963592 129.76113817 197.42246246 121.21894836 C195.01797121 117.09666459 192.06063975 113.51787315 188.84753609 110.00447655 C186.74692396 107.68910006 184.78920661 105.26661876 182.81911469 102.84023094 C172.72641385 90.45604562 161.00571846 78.99793644 148.3125 69.3125 C147.39597656 68.590625 146.47945312 67.86875 145.53515625 67.125 C134.04226806 58.23922336 121.77477089 50.94603248 108.9375 44.1875 C107.55413452 43.45877686 107.55413452 43.45877686 106.14282227 42.71533203 C99.04141885 39.03844974 96.76939077 39.41140268 89.31445312 42.41772461 Z M-187.73046875 219.11328125 C-188.79201172 220.35658203 -188.79201172 220.35658203 -189.875 221.625 C-190.66519531 222.5428125 -191.45539063 223.460625 -192.26953125 224.40625 C-195.30275749 228.05200173 -198.32050319 231.70849175 -201.3046875 235.39453125 C-203.89505848 238.56667407 -206.53432867 241.69293294 -209.1875 244.8125 C-213.29978869 249.65136405 -217.34091692 254.54183727 -221.34765625 259.46875 C-224.5387285 263.34704816 -227.7915901 267.17185656 -231.05859375 270.98632812 C-235.74632139 276.48486912 -237.06499536 279.04223796 -236.54931641 286.24169922 C-233.53728551 318.61545356 -221.10518658 352.89389447 -203.6875 380.3125 C-203.37683562 380.86286769 -203.06617125 381.41323538 -202.7460928 381.98028088 C-200.44234047 385.70346392 -199.23795887 387.11388779 -194.98664856 388.64781189 C-193.53748965 388.89633287 -192.08244787 389.11203127 -190.62426758 389.30053711 C-189.82695724 389.42835571 -189.02964691 389.55617432 -188.20817566 389.68786621 C-185.58633609 390.10082793 -182.96033847 390.47049679 -180.33203125 390.83984375 C-178.50510884 391.11869685 -176.67858829 391.40019449 -174.85246277 391.68421936 C-170.05495033 392.42294858 -165.25274399 393.12487617 -160.44866943 393.81945801 C-155.55149549 394.53450562 -150.65989275 395.28576436 -145.76757812 396.03320312 C-138.63523106 397.11717756 -131.50123713 398.18876407 -124.36254883 399.23022461 C-123.61083405 399.3407869 -122.85911926 399.45134918 -122.08462524 399.56526184 C-118.40109452 400.11813995 -118.40109452 400.11813995 -114.6875 400.3125 C-113.33878674 398.85075674 -113.33878674 398.85075674 -111.9921875 396.89453125 C-111.44916992 396.14518311 -110.90615234 395.39583496 -110.34667969 394.6237793 C-109.75790039 393.79918213 -109.16912109 392.97458496 -108.5625 392.125 C-107.29592607 390.37640402 -106.02763165 388.62905324 -104.7578125 386.8828125 C-104.09297852 385.96790039 -103.42814453 385.05298828 -102.74316406 384.11035156 C-99.37313591 379.52359116 -95.90172443 375.0157388 -92.4375 370.5 C-91.09957917 368.73879856 -89.76232382 366.97709135 -88.42578125 365.21484375 C-86.12224756 362.17967535 -83.78985451 359.1733525 -81.41796875 356.19140625 C-80.48615701 354.98240405 -79.5551028 353.77281741 -78.625 352.5625 C-77.82964844 351.55703125 -77.03429687 350.5515625 -76.21484375 349.515625 C-74.65773659 346.25008057 -74.53939683 345.56060416 -74.99365234 342.19010925 C-75.09965256 341.39269506 -75.20565277 340.59528088 -75.31486511 339.77370262 C-75.9074033 335.86006868 -76.5511633 331.9616314 -77.26171875 328.06762695 C-77.4203389 327.19147232 -77.57895905 326.31531769 -77.74238586 325.41261292 C-79.22790548 317.34804827 -80.90160382 309.32590221 -82.64181519 301.31275654 C-83.80170322 295.94874349 -84.89080366 290.58958651 -85.82275391 285.1809082 C-89.01300821 262.42414176 -89.01300821 262.42414176 -100.70693588 243.57130432 C-110.81105921 236.84830754 -123.1235247 234.50736083 -134.86712646 232.28634644 C-141.06611193 231.09712338 -146.82268633 229.07527894 -152.73828125 226.8828125 C-154.49841129 226.28374319 -156.26070709 225.69098889 -158.02539062 225.10546875 C-160.58272323 224.24891214 -163.1392539 223.39032053 -165.69360352 222.52490234 C-168.31077341 221.63846815 -170.93041062 220.75973242 -173.55078125 219.8828125 C-174.32021561 219.62049835 -175.08964996 219.3581842 -175.88240051 219.08792114 C-182.09085026 216.7212032 -182.09085026 216.7212032 -187.73046875 219.11328125 Z M174.45458984 219.77514648 C173.66717911 220.0368866 172.87976837 220.29862671 172.0684967 220.56829834 C169.46817984 221.43430058 166.87082113 222.30883711 164.2734375 223.18359375 C162.4680662 223.78702527 160.66253205 224.38996975 158.85684204 224.9924469 C155.07456347 226.25575314 151.29361136 227.52292527 147.51367188 228.79321289 C142.66175615 230.42372381 137.80770073 232.04774185 132.95277977 233.66928005 C128.32978878 235.21359731 123.70779688 236.76089371 119.0859375 238.30859375 C117.75767 238.75304746 117.75767 238.75304746 116.40256882 239.20648003 C113.90503451 240.04283989 111.40821145 240.8812862 108.91162109 241.72045898 C108.167686 241.96933365 107.42375092 242.21820831 106.65727234 242.47462463 C102.91605995 243.72301486 102.91605995 243.72301486 99.3125 245.3125 C98.39793352 248.24771446 97.60497578 251.14674248 96.86645508 254.12744141 C96.51247902 255.51530853 96.51247902 255.51530853 96.15135193 256.93121338 C95.36962145 260.00671946 94.60029923 263.08516788 93.83203125 266.1640625 C93.29475652 268.29829533 92.75712885 270.43243933 92.21916199 272.5664978 C91.09135944 277.04927831 89.97004926 281.53362533 88.8527832 286.01904297 C87.42122502 291.76272259 85.97049808 297.50136047 84.51437855 303.23885536 C83.39785259 307.64958342 82.29328972 312.06324236 81.19211388 316.47782516 C80.66231484 318.5943024 80.12841872 320.70975844 79.59034157 322.82414627 C78.83793051 325.78688905 78.1021458 328.7532968 77.37036133 331.72119141 C77.03305496 333.02759079 77.03305496 333.02759079 76.68893433 334.36038208 C75.48456674 339.33161583 75.0572088 343.23492154 76.3125 348.3125 C77.97034966 350.76298181 79.57025135 352.85441635 81.5 355.0625 C82.60373633 356.38121308 83.7038403 357.70297271 84.80078125 359.02734375 C85.66630615 360.06930908 85.66630615 360.06930908 86.54931641 361.13232422 C90.1103175 365.5355006 93.39688887 370.14573641 96.71166992 374.73535156 C103.03067944 383.42411071 109.69454234 391.85089827 116.3125 400.3125 C127.03775009 398.81965218 137.75591361 397.28399452 148.46719551 395.69384098 C153.44155484 394.9567358 158.41713048 394.23438116 163.3984375 393.5456543 C168.20854337 392.88004371 173.0115484 392.17580091 177.81212997 391.44476128 C179.64168386 391.17306263 181.473348 390.91519173 183.30685806 390.67161751 C193.19733802 389.68470592 193.19733802 389.68470592 201.7175293 385.21409607 C203.25084156 382.94879525 204.29989878 380.84464531 205.3125 378.3125 C206.09957559 376.97616653 206.90408657 375.64976598 207.734375 374.33984375 C222.29866626 349.11439263 231.02834791 321.8469213 236.3125 293.3125 C236.46219238 292.55469238 236.61188477 291.79688477 236.76611328 291.01611328 C237.82443637 285.35992063 238.55188554 280.60012206 235.7421875 275.4140625 C233.42489452 272.51536985 230.9323851 269.93987049 228.3125 267.3125 C226.43834767 265.17961276 224.62801408 262.99533308 222.8125 260.8125 C221.87583534 259.70762463 220.93834212 258.6034511 220 257.5 C216.82561426 253.74845322 213.72721226 249.93628935 210.625 246.125 C207.5954398 242.44039975 204.50801838 238.80668613 201.41821289 235.17260742 C197.57999292 230.65007992 193.82254505 226.0672211 190.08984375 221.45703125 C188.33994291 219.27779769 188.33994291 219.27779769 186.3125 217.3125 C181.93925704 217.3125 178.53262455 218.39226651 174.45458984 219.77514648 Z M-64.63354492 362.61206055 C-66.33673885 365.45894005 -66.33673885 365.45894005 -67.6875 368.3125 C-68.78448752 369.83150265 -69.9060655 371.3335111 -71.06640625 372.8046875 C-72.13032289 374.2636463 -73.19146862 375.72462929 -74.25 377.1875 C-78.14085305 382.53028564 -82.06926191 387.83518061 -86.109375 393.06640625 C-86.8408374 394.01467285 -87.5722998 394.96293945 -88.32592773 395.93994141 C-89.75234866 397.7836365 -91.18398882 399.62330785 -92.62133789 401.45849609 C-93.2683667 402.29590332 -93.91539551 403.13331055 -94.58203125 403.99609375 C-95.15800049 404.73400146 -95.73396973 405.47190918 -96.32739258 406.23217773 C-97.7402571 408.39319346 -98.49335747 409.73823273 -98.6875 412.3125 C-97.76395895 414.53385298 -97.76395895 414.53385298 -96.21484375 416.7421875 C-95.6523291 417.6081958 -95.08981445 418.4742041 -94.51025391 419.36645508 C-93.88812012 420.2973999 -93.26598633 421.22834473 -92.625 422.1875 C-91.31867534 424.18858338 -90.01269495 426.18989154 -88.70703125 428.19140625 C-88.03494629 429.21250488 -87.36286133 430.23360352 -86.67041016 431.28564453 C-83.66865 435.8677453 -80.74237273 440.49674838 -77.8125 445.125 C-74.02661565 451.08042082 -70.23114526 457.02966453 -66.42578125 462.97265625 C-65.88736603 463.81353539 -65.88736603 463.81353539 -65.33807373 464.67140198 C-63.59419754 467.39449429 -61.84953053 470.11707663 -60.10400391 472.83911133 C-59.47026855 473.82806396 -58.8365332 474.8170166 -58.18359375 475.8359375 C-57.57918457 476.77131348 -56.97477539 477.70668945 -56.35205078 478.67041016 C-55.30093789 480.33880905 -54.28366216 482.02945953 -53.31591797 483.74755859 C-50.93061977 488.00511155 -50.93061977 488.00511155 -46.953125 490.6796875 C-31.44181641 493.29169542 -16.34495638 494.69208677 -0.625 494.625 C0.22157166 494.62384186 1.06814331 494.62268372 1.94036865 494.62149048 C15.09815213 494.58604603 28.00646714 493.97350969 40.99609375 491.70947266 C43.13964712 491.34212255 45.28142677 491.04398573 47.4375 490.76171875 C48.5925 490.57222656 49.7475 490.38273438 50.9375 490.1875 C51.85789062 490.04054688 52.77828125 489.89359375 53.7265625 489.7421875 C61.29099392 485.56003962 65.32548369 474.05532086 69.3125 466.75 C70.63439849 464.3443474 71.96070385 461.94115333 73.2890625 459.5390625 C73.79054306 458.63215416 73.79054306 458.63215416 74.30215454 457.70692444 C77.67458829 451.6273542 81.16923776 445.62120407 84.6875 439.625 C85.26177734 438.64168701 85.83605469 437.65837402 86.42773438 436.64526367 C89.0152148 432.2170078 91.617879 427.7995336 94.2578125 423.40234375 C95.10985431 421.95601142 95.96145165 420.50941712 96.8125 419.0625 C97.2048584 418.42481689 97.5972168 417.78713379 98.00146484 417.13012695 C99.98704314 413.86036953 99.98704314 413.86036953 99.7578125 410.19921875 C99.04238281 409.26529297 99.04238281 409.26529297 98.3125 408.3125 C97.78398437 407.56097656 97.25546875 406.80945313 96.7109375 406.03515625 C96.04320312 405.15730469 95.37546875 404.27945313 94.6875 403.375 C93.89085937 402.32441406 93.09421875 401.27382813 92.2734375 400.19140625 C91.28669627 398.89825591 90.29969023 397.60530761 89.3125 396.3125 C88.03371445 394.63422103 86.75507918 392.95582755 85.4765625 391.27734375 C83.38644965 388.5337766 81.29580509 385.79062405 79.20336914 383.04882812 C74.83394676 377.321349 70.49439409 371.57440587 66.20703125 365.78515625 C65.58183594 364.96917969 64.95664062 364.15320313 64.3125 363.3125 C63.68059753 362.28915054 63.04869507 361.26580109 62.39764404 360.21144104 C60.64591732 358.14132824 59.65515225 357.39770085 56.99922943 356.73730278 C54.00498087 356.4935863 51.05995927 356.44475569 48.05566406 356.45678711 C46.34987183 356.42896904 46.34987183 356.42896904 44.60961914 356.40058899 C40.84869366 356.3486768 37.08938697 356.34183999 33.328125 356.33984375 C30.71123585 356.32310245 28.09435322 356.30531114 25.47747803 356.28651428 C19.98974746 356.25274128 14.5024616 356.24767372 9.01464844 356.25561523 C2.68738808 356.26404771 -3.63717817 356.2096177 -9.96381927 356.12507051 C-16.0664191 356.04647098 -22.1677443 356.02931537 -28.27082062 356.03521919 C-30.85919005 356.0299938 -33.44758753 356.00711535 -36.0356369 355.9660778 C-51.91923004 354.92381039 -51.91923004 354.92381039 -64.63354492 362.61206055 Z " fill="#000000" transform="translate(255.6875,-0.3125)"/>
</svg>
