<?xml version="1.0" encoding="UTF-8"?>
<svg version="1.1" xmlns="http://www.w3.org/2000/svg" width="512" height="512">
<path d="M0 0 C0.75394043 0.20898926 1.50788086 0.41797852 2.28466797 0.63330078 C16.50240566 4.7090319 31.02659773 10.47704798 43.07373047 19.15991211 C45.75695881 20.33012614 47.23238551 19.84533498 50 19 C52.22792197 18.00706581 52.22792197 18.00706581 54.4140625 16.7421875 C55.24784424 16.28465088 56.08162598 15.82711426 56.94067383 15.35571289 C57.82650146 14.86707764 58.7123291 14.37844238 59.625 13.875 C89.70324101 -2.26141785 124.95658435 -10.0357914 158.55957031 -0.73632812 C190.75603579 8.9780116 216.85470636 26.17678669 233.22265625 55.984375 C252.30147217 91.97196689 253.91830089 136.47705528 242.6015625 175.14257812 C239.82610447 184.05708498 236.14472708 192.52740829 232.32421875 201.03466797 C213.87298484 242.35264125 202.88150022 282.41630729 196.75268555 327.1418457 C190.53197706 372.52904335 177.4883929 423.60886361 139 453 C128.05677475 460.22141767 119.24366697 463.3188714 106 462 C95.23080467 458.80912731 88.88801965 450.84864089 83.6328125 441.3515625 C74.08885475 421.76133344 73.58537795 401.33126714 73.9375 380 C74.81023098 343.77939103 74.81023098 343.77939103 61 311 C60.360625 310.05125 59.72125 309.1025 59.0625 308.125 C55.31132785 304.26015597 51.79266397 302.25160196 46.4375 301.5 C39.89777949 302.45123207 35.8367223 306.65101035 31.734375 311.54296875 C22.22335466 325.01691424 19.79307195 341.1421042 19.97265625 357.20703125 C19.98531854 359.42643064 19.99767828 361.64583178 20.00976562 363.86523438 C20.03437904 367.32256676 20.06218067 370.77980503 20.09594727 374.23706055 C20.25098186 391.20663491 20.39854384 408.25769835 15.8125 424.75 C15.49430298 425.92030762 15.49430298 425.92030762 15.16967773 427.11425781 C11.15652929 441.08521847 5.10464833 452.46215288 -7.73046875 459.8359375 C-14.37185637 463.24236351 -23.41328202 463.14323601 -30.6015625 461.3515625 C-32.86316882 460.38935181 -34.8962086 459.26992499 -37 458 C-37.81210938 457.57203125 -38.62421875 457.1440625 -39.4609375 456.703125 C-69.28742201 439.73439187 -86.4690133 402.82461441 -95.25 371.125 C-99.43699049 355.25351287 -101.85628998 339.18556495 -104.10888672 322.94824219 C-110.09966852 279.79809749 -120.72141824 241.14351162 -138.81567383 201.37451172 C-146.89334928 183.56998454 -152.43751537 166.39074193 -155 147 C-155.13148438 146.04351562 -155.26296875 145.08703125 -155.3984375 144.1015625 C-159.5686949 107.47092319 -151.39248353 68.15868187 -128.6875 38.6875 C-112.44381034 18.43551635 -88.81468883 5.81869143 -64 -1 C-62.845 -1.31839844 -61.69 -1.63679688 -60.5 -1.96484375 C-40.84814899 -6.48227137 -19.34390419 -5.40436629 0 0 Z " fill="#FEFEFE" transform="translate(209,28)"/>
<path d="M0 0 C0.75394043 0.20898926 1.50788086 0.41797852 2.28466797 0.63330078 C16.50240566 4.7090319 31.02659773 10.47704798 43.07373047 19.15991211 C45.75695881 20.33012614 47.23238551 19.84533498 50 19 C52.22792197 18.00706581 52.22792197 18.00706581 54.4140625 16.7421875 C55.24784424 16.28465088 56.08162598 15.82711426 56.94067383 15.35571289 C57.82650146 14.86707764 58.7123291 14.37844238 59.625 13.875 C89.70324101 -2.26141785 124.95658435 -10.0357914 158.55957031 -0.73632812 C190.75603579 8.9780116 216.85470636 26.17678669 233.22265625 55.984375 C252.30147217 91.97196689 253.91830089 136.47705528 242.6015625 175.14257812 C239.82610447 184.05708498 236.14472708 192.52740829 232.32421875 201.03466797 C213.87298484 242.35264125 202.88150022 282.41630729 196.75268555 327.1418457 C190.53197706 372.52904335 177.4883929 423.60886361 139 453 C128.05677475 460.22141767 119.24366697 463.3188714 106 462 C95.23080467 458.80912731 88.88801965 450.84864089 83.6328125 441.3515625 C74.08885475 421.76133344 73.58537795 401.33126714 73.9375 380 C74.81023098 343.77939103 74.81023098 343.77939103 61 311 C60.360625 310.05125 59.72125 309.1025 59.0625 308.125 C55.31132785 304.26015597 51.79266397 302.25160196 46.4375 301.5 C39.89777949 302.45123207 35.8367223 306.65101035 31.734375 311.54296875 C22.22335466 325.01691424 19.79307195 341.1421042 19.97265625 357.20703125 C19.98531854 359.42643064 19.99767828 361.64583178 20.00976562 363.86523438 C20.03437904 367.32256676 20.06218067 370.77980503 20.09594727 374.23706055 C20.25098186 391.20663491 20.39854384 408.25769835 15.8125 424.75 C15.49430298 425.92030762 15.49430298 425.92030762 15.16967773 427.11425781 C11.15652929 441.08521847 5.10464833 452.46215288 -7.73046875 459.8359375 C-14.37185637 463.24236351 -23.41328202 463.14323601 -30.6015625 461.3515625 C-32.86316882 460.38935181 -34.8962086 459.26992499 -37 458 C-37.81210938 457.57203125 -38.62421875 457.1440625 -39.4609375 456.703125 C-69.28742201 439.73439187 -86.4690133 402.82461441 -95.25 371.125 C-99.43699049 355.25351287 -101.85628998 339.18556495 -104.10888672 322.94824219 C-110.09966852 279.79809749 -120.72141824 241.14351162 -138.81567383 201.37451172 C-146.89334928 183.56998454 -152.43751537 166.39074193 -155 147 C-155.13148438 146.04351562 -155.26296875 145.08703125 -155.3984375 144.1015625 C-159.5686949 107.47092319 -151.39248353 68.15868187 -128.6875 38.6875 C-112.44381034 18.43551635 -88.81468883 5.81869143 -64 -1 C-62.845 -1.31839844 -61.69 -1.63679688 -60.5 -1.96484375 C-40.84814899 -6.48227137 -19.34390419 -5.40436629 0 0 Z M-66 17 C-67.63582031 17.5259375 -67.63582031 17.5259375 -69.3046875 18.0625 C-81.91295795 22.50159766 -95.06060611 28.9589744 -105 38 C-105.7940625 38.70253906 -106.588125 39.40507813 -107.40625 40.12890625 C-127.75315045 59.18842566 -137.77216644 87.5335982 -139.20483398 114.91479492 C-139.30200698 118.88207425 -139.3342415 122.84446753 -139.3125 126.8125 C-139.31067719 127.50899658 -139.30885437 128.20549316 -139.30697632 128.9230957 C-139.19319042 154.83514744 -131.81766716 176.75447774 -121.234375 200.12890625 C-102.61075198 241.30074017 -91.87833636 281.72061729 -86.91186523 326.61987305 C-83.30187658 358.96345413 -74.74384462 392.49133213 -55 419 C-54.35289062 419.86882812 -53.70578125 420.73765625 -53.0390625 421.6328125 C-45.33526586 431.58989353 -35.38220304 443.93179846 -22.25 446.1875 C-17.74052644 446.33218899 -14.38753124 444.93858132 -11 442 C0.87015782 430.10067717 3.1375794 410.99290465 3.2051239 394.98754883 C3.17476834 388.65761345 3.10006008 382.32919707 3 376 C2.50210027 344.50586619 2.50210027 344.50586619 6 331 C6.29036133 329.76854248 6.58072266 328.53708496 6.87988281 327.26831055 C10.44899221 312.54843163 17.98607875 297.83170436 31.0625 289.5625 C34.97109465 287.4115813 38.57767242 285.80405956 43 285 C43.9590625 284.82404297 43.9590625 284.82404297 44.9375 284.64453125 C53.52025354 283.80834387 61.69393707 288.84596696 68.39453125 293.75390625 C78.11040914 302.62659158 84.09836345 316.38301157 87.125 328.9375 C87.29386719 329.60201172 87.46273437 330.26652344 87.63671875 330.95117188 C89.83762406 339.88476785 90.09907632 348.38086884 89.95703125 357.546875 C89.93461695 360.02733552 89.91316444 362.50780488 89.89257812 364.98828125 C89.85577253 368.85164976 89.81304941 372.71455291 89.75317383 376.57763672 C89.05598072 409.9006924 89.05598072 409.9006924 102.5 439.625 C106.94811507 444.27681719 106.94811507 444.27681719 112.921875 446.19140625 C120.14928773 445.9735587 125.33131107 442.15646246 131 438 C131.639375 437.53464844 132.27875 437.06929688 132.9375 436.58984375 C167.66150096 409.01963003 176.90082017 356.00870463 181.87792969 314.94433594 C183.76903333 299.46675781 186.5242247 284.19920261 190 269 C190.19400391 268.13842285 190.38800781 267.2768457 190.58789062 266.38916016 C196.39456763 241.07481348 206.49735527 217.40883023 217.34130859 193.90942383 C220.7217935 186.531458 223.78977636 179.14538136 226.3671875 171.4453125 C226.60862991 170.72438919 226.85007233 170.00346588 227.09883118 169.26069641 C238.23012578 134.85358609 234.79529631 96.2926058 219 64 C205.23959462 38.62816943 182.75144841 24.38612115 155.796875 16.00390625 C121.84135125 6.3089548 88.99360611 16.27710159 59.13671875 32.6328125 C54.87461468 35.02942718 50.7477991 37.62297551 46.625 40.25 C40.60931714 44.07849135 34.67602914 47.42442887 28 50 C26.90945312 50.42925781 25.81890625 50.85851562 24.6953125 51.30078125 C11.64424889 56.05810444 -6.09799966 60.72462044 -20 58 C-23.23472036 55.47560674 -23.91824687 54.58249105 -24.5 50.4375 C-24 47 -24 47 -22.36328125 45.31640625 C-19.34192564 43.63343627 -17.13786669 43.59551188 -13.6875 43.5 C-5.91806636 43.09618328 1.42751847 41.74041564 9 40 C9.99128906 39.773125 10.98257813 39.54625 12.00390625 39.3125 C18.71219115 37.63304318 24.79678607 35.03561533 31 32 C22.79517696 25.5681732 13.10938461 22.16610633 3.375 18.75 C1.92710083 18.2382019 1.92710083 18.2382019 0.44995117 17.71606445 C-10.85178874 13.84220066 -21.10661401 12.59102522 -33.0625 12.625 C-33.74842224 12.62521149 -34.43434448 12.62542297 -35.14105225 12.62564087 C-45.89937379 12.65874195 -55.76748604 13.52048742 -66 17 Z " fill="#020202" transform="translate(209,28)"/>
<path d="M0 0 C18.72319611 8.78372163 29.79535517 25.81387621 38 44 C38.40992188 44.88300781 38.81984375 45.76601562 39.2421875 46.67578125 C54.34961108 81.51654493 49.50693418 122.59862265 36 157 C33.82772977 162.03619466 31.54741489 167.01991094 29.25 172 C13.79304308 205.55384728 2.79409253 239.85945173 -1.79272461 276.5949707 C-7.42285072 321.46940779 -14.99453436 376.63584248 -52.12109375 407.70703125 C-58.07602556 412.30890739 -63.49352495 416.35621785 -71.0625 417.4375 C-74.86092602 416.87177698 -77.03922395 415.3968187 -80 413 C-80 412.34 -80 411.68 -80 411 C-78.43580927 409.82004955 -76.82056709 408.7076207 -75.1875 407.625 C-43.76407905 385.18545453 -29.76685104 341.67616194 -23.53222656 305.35302734 C-22.9479542 301.57677411 -22.4579464 297.79343658 -22 294 C-21.75681621 292.04813896 -21.51330754 290.09631838 -21.26953125 288.14453125 C-20.8837531 285.03714727 -20.49903513 281.92964693 -20.1171875 278.82177734 C-19.00317191 269.82495295 -17.68928399 260.90698098 -16 252 C-15.81099121 250.99018066 -15.62198242 249.98036133 -15.42724609 248.93994141 C-9.89266887 219.91217035 -0.09367098 193.01703517 12.08984375 166.16796875 C22.61177709 142.9690855 29.52119135 121.54769431 31 96 C30.23816406 96.48597656 29.47632813 96.97195312 28.69140625 97.47265625 C25.4424387 99.31640997 23.68154733 99.54831556 20 99 C15.60795132 95.43887945 14.91441901 92.6982359 14.25 87.25 C11.48181121 69.03612017 2.57729628 52.10724473 -12.1875 40.875 C-30.61106917 28.11830103 -50.98762451 23.23099992 -73.125 26.8125 C-76.43133676 27.5239254 -79.56266327 28.50037116 -82.75 29.625 C-86.64086996 30.98228022 -89.84640357 31.57010147 -94 31 C-96.4375 29.4375 -96.4375 29.4375 -98 27 C-98.67169833 22.89517689 -98.53461399 20.85142229 -96.3125 17.3125 C-83.95632802 6.70155005 -60.78503307 8.29102525 -45.55859375 9.20703125 C-25.78213357 11.50544489 -8.10046502 21.32530391 6 35 C6.61230469 35.53882813 7.22460938 36.07765625 7.85546875 36.6328125 C19.65636733 47.38054164 25.86788524 62.95141461 30 78 C31.34450071 53.35082023 20.58971035 25.81402144 5 7 C3.37733085 5.27910632 1.69910995 3.64601277 0 2 C0 1.34 0 0.68 0 0 Z " fill="#CACACA" transform="translate(394,57)"/>
<path d="M0 0 C-0.66 0.515625 -1.32 1.03125 -2 1.5625 C-2.99 2.366875 -3.98 3.17125 -5 4 C-5.61617187 4.474375 -6.23234375 4.94875 -6.8671875 5.4375 C-22.8326308 18.35894827 -28.70168908 40.40167141 -31 60 C-31.21030653 64.47077196 -31.16652541 68.92044311 -31.08984375 73.39453125 C-31.06942127 75.92252411 -31.04924666 78.45051899 -31.02929688 80.97851562 C-30.98594423 84.89470432 -30.93752412 88.8107499 -30.88354492 92.72680664 C-30.31399771 137.36752469 -30.31399771 137.36752469 -43 153.25 C-46.27903093 156.53750388 -49.39533548 158.89378141 -54.203125 159.08984375 C-59.27872677 158.7621145 -62.30224336 157.69775664 -66 154 C-65.48050781 153.48953125 -64.96101562 152.9790625 -64.42578125 152.453125 C-58.72255105 146.50742845 -55.6810296 140.74633361 -53 133 C-52.70351562 132.19949219 -52.40703125 131.39898437 -52.1015625 130.57421875 C-46.76640895 114.85928626 -47.80192964 97.83373087 -48 81.5 C-48.32253032 54.90276713 -48.63152869 26.1537359 -29.125 5.4375 C-19.85039247 -3.21786211 -11.68648037 -4.92062332 0 0 Z " fill="#CBCBCB" transform="translate(243,315)"/>
<path d="M0 0 C2.47578075 2.18625917 4.85976574 4.43916253 7.23046875 6.73828125 C7.84277344 7.27710937 8.45507812 7.8159375 9.0859375 8.37109375 C22.3170959 20.42143939 30.78910124 40.28687377 32.16796875 57.86328125 C32.24853516 58.55292969 32.32910156 59.24257812 32.41210938 59.953125 C32.72091339 63.94089044 32.41495419 65.50157705 29.92578125 68.6953125 C27.23046875 70.73828125 27.23046875 70.73828125 24.16796875 71.30078125 C20.61312294 70.6200661 19.45342275 69.53755666 17.23046875 66.73828125 C15.94046148 64.15826671 15.83023759 61.85638575 15.48046875 58.98828125 C12.71227996 40.77440142 3.80776503 23.84552598 -10.95703125 12.61328125 C-29.38060042 -0.14341772 -49.75715576 -5.03071883 -71.89453125 -1.44921875 C-75.20086801 -0.73779335 -78.33219452 0.23865241 -81.51953125 1.36328125 C-85.41040121 2.72056147 -88.61593482 3.30838272 -92.76953125 2.73828125 C-95.20703125 1.17578125 -95.20703125 1.17578125 -96.76953125 -1.26171875 C-97.44122958 -5.36654186 -97.30414524 -7.41029646 -95.08203125 -10.94921875 C-70.95361025 -31.66967068 -21.42766339 -17.49875473 0 0 Z " fill="#040404" transform="translate(392.76953125,85.26171875)"/>
<path d="M0 0 C5.29286412 1.73221008 7.17964637 5.44968454 9.62890625 10.22265625 C10.42943892 11.87270965 11.21911408 13.52805854 12 15.1875 C12.42837158 16.09435547 12.85674316 17.00121094 13.2980957 17.93554688 C18.93497436 30.09188182 23.75934282 42.57407589 28.4375 55.125 C28.77910156 56.03685059 29.12070313 56.94870117 29.47265625 57.88818359 C37.44572111 79.49302096 43.54251887 103.2522565 46.4375 126.125 C46.5317627 126.86685547 46.62602539 127.60871094 46.72314453 128.37304688 C47.00040683 130.70494339 47.2283831 133.0360811 47.4375 135.375 C47.55532837 136.43170898 47.55532837 136.43170898 47.67553711 137.50976562 C47.94386602 141.43951662 47.5897049 142.93114444 45.125 146.0703125 C42.4375 148.125 42.4375 148.125 39.4375 148.75 C35.3540683 147.89928506 34.04670292 146.35014591 31.4375 143.125 C30.81659482 140.39301723 30.47720887 138.12898275 30.3125 135.375 C30.17604727 133.84857961 30.03529994 132.32253804 29.890625 130.796875 C29.82037109 130.02021484 29.75011719 129.24355469 29.67773438 128.44335938 C25.75659913 90.6028103 11.35449379 52.66850995 -5.21044922 18.76049805 C-9.39645168 10.01498942 -9.39645168 10.01498942 -8.5625 5.125 C-5.89616981 1.32749942 -4.69543738 0.16475219 0 0 Z " fill="#040404" transform="translate(100.5625,187.875)"/>
<path d="M0 0 C4.95 2.475 4.95 2.475 10 5 C-3.45025499 15.08769124 -21.73471471 16.92796944 -38.06640625 17.65625 C-41.1872421 17.79686976 -41.1872421 17.79686976 -44 20 C-46.63320982 19.82157485 -49.09475999 19.54622947 -51.6875 19.125 C-52.38939453 19.02058594 -53.09128906 18.91617188 -53.81445312 18.80859375 C-55.54458829 18.54966196 -57.27254118 18.27622343 -59 18 C-58.67 17.34 -58.34 16.68 -58 16 C-55.97241211 15.42504883 -55.97241211 15.42504883 -53.27734375 14.95703125 C-52.27509766 14.77374268 -51.27285156 14.5904541 -50.24023438 14.40161133 C-49.15033203 14.20720459 -48.06042969 14.01279785 -46.9375 13.8125 C-35.80383639 11.72212085 -25.07388014 8.86767054 -14.25 5.55078125 C-9.53875856 4.11613559 -4.82090859 3.00270947 0 2 C0 1.34 0 0.68 0 0 Z " fill="#C8C8C8" transform="translate(230,54)"/>
</svg>
