<?xml version="1.0" encoding="UTF-8"?>
<svg version="1.1" xmlns="http://www.w3.org/2000/svg" width="512" height="512">
<path d="M0 0 C1.04258469 -0.0066568 2.08516937 -0.0133136 3.15934753 -0.02017212 C5.36915326 -0.03029102 7.57898949 -0.03498938 9.78881836 -0.03466797 C13.11821315 -0.03899779 16.44623407 -0.07520549 19.77539062 -0.11328125 C34.92789607 -0.19507883 49.05330612 0.71608644 62.66796875 8.0859375 C63.32547119 8.42955322 63.98297363 8.77316895 64.66040039 9.12719727 C83.2103628 19.07139028 97.21288322 34.41921757 104.35546875 54.3359375 C105.46457882 58.11143797 106.48474087 61.90927263 107.5 65.7109375 C107.77573853 66.73316406 108.05147705 67.75539063 108.33557129 68.80859375 C109.01174349 71.31695086 109.68495241 73.82606373 110.35546875 76.3359375 C111.1414703 76.33691431 111.92747185 76.33789112 112.73729163 76.33889753 C159.28292181 76.39712155 205.82850501 76.4708818 252.37407731 76.56492378 C257.95812488 76.57619246 263.54217271 76.58733083 269.1262207 76.59838867 C270.23794247 76.60059236 271.34966423 76.60279604 272.49507453 76.6050665 C290.51524977 76.64047553 308.53542497 76.66531928 326.55562214 76.68628452 C345.03475734 76.70801789 363.51384725 76.74104476 381.99294394 76.78463906 C393.40304611 76.81119832 404.81309179 76.82886217 416.22322335 76.83528354 C424.03889431 76.84052438 431.85449409 76.85669723 439.67012695 76.88160316 C444.18485241 76.89566305 448.69945033 76.90477233 453.21419907 76.90094566 C457.34275923 76.89755228 461.47104629 76.90780207 465.59955045 76.92917302 C467.09756571 76.93447077 468.59560912 76.93464482 470.09362433 76.92933313 C472.1213068 76.92287259 474.14902413 76.93644742 476.1766634 76.95117664 C477.30557194 76.95307525 478.43448048 76.95497385 479.59759837 76.95692998 C482.35546875 77.3359375 482.35546875 77.3359375 484.21390074 78.74402589 C486.68071513 82.18398781 485.81461054 86.32181143 485.35546875 90.3359375 C484.16081798 96.32650095 482.61876759 102.21205035 481.0625 108.1171875 C480.60293365 109.89749396 480.14447106 111.67808565 479.68702698 113.4589386 C478.45131283 118.25757992 477.20106186 123.05232168 475.94792938 127.84643936 C474.63956435 132.86124992 473.34384754 137.87932406 472.04736328 142.8972168 C470.44116328 149.11111255 468.8337957 155.32469425 467.22064209 161.53678894 C463.79187091 174.74478614 460.4049313 187.96271408 457.05770683 201.19160843 C456.33482009 204.04776616 455.61076035 206.90362371 454.88624573 209.7593689 C454.65161716 210.68420767 454.41698858 211.60904644 454.17525005 212.56191063 C453.708719 214.40070434 453.24216211 216.23949149 452.7755785 218.07827187 C451.64583553 222.53228071 450.51857452 226.98688923 449.39663696 231.44287109 C448.34466201 235.61999028 447.28501058 239.79509171 446.21983147 243.96886253 C445.83470548 245.4835613 445.45230295 246.99895595 445.07303047 248.515131 C440.25001007 267.78320179 434.23800132 285.36801142 416.328125 296.16015625 C407.70845398 300.64934179 400.01015813 302.6502871 390.36914062 302.56298828 C389.5096582 302.56328033 388.65017578 302.56357239 387.76464844 302.56387329 C384.95106569 302.5624907 382.13775468 302.54698035 379.32421875 302.53125 C377.36267237 302.52751606 375.40112411 302.52467089 373.4395752 302.52267456 C368.29722877 302.51506812 363.15499678 302.49544547 358.01269531 302.4732666 C352.7571772 302.45274358 347.50164045 302.44365907 342.24609375 302.43359375 C331.9491687 302.41219662 321.65232827 302.378097 311.35546875 302.3359375 C311.2282695 302.9524971 311.10107025 303.5690567 310.97001648 304.20429993 C310.7977504 305.01384628 310.62548431 305.82339264 310.44799805 306.6574707 C310.2795488 307.4596553 310.11109955 308.2618399 309.93754578 309.08833313 C308.02815279 316.46117183 301.60764925 323.21726073 295.35546875 327.3359375 C286.94595706 331.77404364 279.81709684 333.02349386 270.39624023 332.75732422 C269.16014008 332.74371353 267.92403992 332.73010284 266.65048218 332.71607971 C263.98333177 332.68493898 261.3179334 332.64507097 258.65130424 332.59130478 C254.40457223 332.5085802 250.15832667 332.47656924 245.91090393 332.4536438 C233.8403596 332.38241197 221.77121583 332.27147543 209.70239258 332.05175781 C203.01843704 331.93049963 196.33620565 331.86561732 189.65113121 331.8589288 C186.13320729 331.85301629 182.62058322 331.82095264 179.10406303 331.71761703 C158.34641137 331.12811369 145.37288052 335.24190485 128.32962227 346.42320633 C123.58895028 349.47201704 118.66049447 352.17115486 113.73046875 354.8984375 C108.86370084 357.64783719 104.04272914 360.46196113 99.3125 363.44140625 C98.19838745 364.13786255 98.19838745 364.13786255 97.06176758 364.84838867 C94.94454403 366.38239771 94.94454403 366.38239771 94.66796875 370.0859375 C95.06153787 373.40564388 95.06153787 373.40564388 97.35546875 375.3359375 C100.59657919 376.46854664 103.69258853 376.46179293 107.10398483 376.46342945 C108.87461229 376.46794092 108.87461229 376.46794092 110.68101001 376.47254354 C111.97904221 376.47079317 113.27707441 376.46904279 114.61444092 376.46723938 C116.00637472 376.4689415 117.39830804 376.47109118 118.79024053 376.47365063 C121.81933736 376.4782492 124.84841376 376.47966819 127.87751389 376.47868538 C132.80595453 376.47709328 137.73437487 376.48229329 142.66281128 376.48831177 C149.81857039 376.49642691 156.97432594 376.50136934 164.13008881 376.50460243 C175.44068401 376.5100981 186.75124905 376.52699465 198.06182861 376.54594421 C201.93102641 376.55230105 205.80022428 376.55860947 209.66942215 376.56492138 C211.1198935 376.56729702 211.1198935 376.56729702 212.5996673 376.56972066 C223.6087604 376.58765988 234.61785565 376.60388501 245.62695312 376.61889648 C247.13665408 376.62096029 247.13665408 376.62096029 248.67685404 376.62306579 C264.98624001 376.64499504 281.29561822 376.65575183 297.60501632 376.66326723 C314.34748017 376.67133785 331.08987744 376.69462642 347.83230329 376.7312209 C358.16017704 376.75324858 368.48791393 376.76290973 378.81580999 376.75672057 C385.89422433 376.75354631 392.97252178 376.76487387 400.05089995 376.78761498 C404.13493965 376.80028402 408.21871894 376.80645117 412.30276871 376.79519844 C416.04353758 376.78502401 419.78380109 376.79329102 423.52451029 376.8160614 C425.51465358 376.82341172 427.50483969 376.81113475 429.49495387 376.79810125 C437.51233668 376.87102013 443.13173327 377.69113102 449.37890625 383.08203125 C449.82492187 383.64019531 450.2709375 384.19835937 450.73046875 384.7734375 C451.19195312 385.32902344 451.6534375 385.88460938 452.12890625 386.45703125 C456.19210129 392.68122493 456.04480773 399.12841857 455.35546875 406.3359375 C453.68121733 412.5316703 449.66653349 416.8688391 444.35546875 420.3359375 C440.54110395 422.14159972 437.52922188 422.58757257 433.32328701 422.59320641 C432.1050271 422.5996553 430.88676719 422.60610419 429.63159031 422.6127485 C428.2829118 422.60980632 426.93423369 422.60667089 425.58555603 422.60336304 C424.15023531 422.60709981 422.71491662 422.61170144 421.27960116 422.61709368 C417.33489268 422.62933637 413.39026894 422.62906171 409.44554579 422.62670493 C405.19109069 422.62629707 400.93666287 422.63733318 396.68222046 422.64682007 C388.34556194 422.66343939 380.00893171 422.66893009 371.67225801 422.67004482 C364.89377605 422.67099512 358.11530342 422.6751045 351.33682442 422.68144608 C332.11435096 422.69906318 312.89189985 422.70828454 293.66941827 422.70678513 C292.63293651 422.70670522 291.59645475 422.7066253 290.52856445 422.70654297 C289.49081513 422.70646121 288.45306581 422.70637945 287.38386954 422.70629521 C270.57605359 422.70548279 253.76832737 422.72460803 236.96053737 422.7528197 C219.6982453 422.78156524 202.43599696 422.79535899 185.17368037 422.79363215 C175.48400846 422.79296869 165.79443053 422.79844128 156.1047802 422.81998825 C147.85203248 422.83822229 139.59942132 422.84252936 131.34666216 422.8289694 C127.13856647 422.82245017 122.93073257 422.82228442 118.72266197 422.8396759 C114.86394199 422.85545891 111.00569023 422.85249021 107.14698131 422.83510764 C105.10315711 422.83060945 103.05931808 422.84565417 101.01555103 422.86158693 C86.54740561 422.75396819 73.78092326 417.86264442 63.0078125 408.078125 C51.05228001 395.47252809 47.84576156 381.34042753 48.078125 364.62890625 C48.44614598 354.23460238 52.47147483 345.7682305 58.35546875 337.3359375 C59.07283203 336.30533203 59.07283203 336.30533203 59.8046875 335.25390625 C69.95870706 322.28643039 88.55188819 315.10728466 102.73681641 307.36474609 C107.99775416 304.45176142 113.1678533 301.37678011 118.35546875 298.3359375 C109.34730686 262.05049161 100.21411563 225.79954906 90.88134766 189.59619141 C90.07703477 186.47561522 89.2728585 183.35500386 88.46875 180.234375 C88.26707214 179.45186497 88.06539429 178.66935493 87.85760498 177.86313248 C84.59696114 165.20780904 81.37154906 152.54374349 78.15966034 139.87596512 C76.65316119 133.93690082 75.14315049 127.99872798 73.63336182 122.06049919 C72.17145666 116.30856944 70.7154217 110.55519367 69.26354122 104.80072594 C68.35798835 101.21772848 67.44672965 97.63619977 66.53396034 94.05503464 C66.11168251 92.39332374 65.69177214 90.73100905 65.27446556 89.06804276 C61.22554174 72.9419532 57.94029218 59.92713588 43.13671875 50.78125 C35.05835858 46.58322575 26.67230845 46.21010106 17.76171875 46.16015625 C16.13800769 46.13697071 14.5143097 46.11285391 12.890625 46.08789062 C10.36953741 46.05278687 7.84893928 46.02340282 5.32763672 46.01000977 C2.86758769 45.99443984 0.40890206 45.95420444 -2.05078125 45.91015625 C-3.16519592 45.91301888 -3.16519592 45.91301888 -4.30212402 45.91593933 C-10.65691312 45.76923591 -15.86869837 43.77952784 -20.66796875 39.5546875 C-21.11398438 38.9875 -21.56 38.4203125 -22.01953125 37.8359375 C-22.48101563 37.26875 -22.9425 36.7015625 -23.41796875 36.1171875 C-27.82469477 29.71761086 -27.41031164 22.83584855 -26.64453125 15.3359375 C-24.41151842 8.99149762 -19.43681312 4.42093709 -13.62231445 1.22412109 C-9.10814261 -0.12232124 -4.68711676 0.0104757 0 0 Z M114.35546875 92.3359375 C115.67616281 99.59975485 117.08427298 106.65692184 118.921875 113.78125 C119.16082993 114.71774384 119.39978485 115.65423767 119.64598083 116.61911011 C120.14582952 118.57402527 120.64755978 120.52846025 121.15112305 122.48242188 C121.92465068 125.48689089 122.69022338 128.49331277 123.45507812 131.5 C123.94354162 133.40637018 124.43245715 135.31262461 124.921875 137.21875 C125.15105118 138.11965363 125.38022736 139.02055725 125.61634827 139.94876099 C125.83004562 140.77407318 126.04374298 141.59938538 126.26391602 142.44970703 C126.45107681 143.17819855 126.63823761 143.90669006 126.83106995 144.65725708 C127.21848713 146.35365514 127.21848713 146.35365514 128.35546875 147.3359375 C129.98221653 147.42934184 131.61300926 147.45338921 133.24243164 147.44946289 C134.803937 147.44934959 134.803937 147.44934959 136.39698792 147.44923401 C138.09540077 147.44149208 138.09540077 147.44149208 139.828125 147.43359375 C141.55729408 147.43147133 141.55729408 147.43147133 143.32139587 147.42930603 C147.02027939 147.42368755 150.71910339 147.41113192 154.41796875 147.3984375 C156.91861892 147.39342488 159.41927004 147.38886156 161.91992188 147.38476562 C168.06512463 147.37371212 174.21029244 147.35695602 180.35546875 147.3359375 C178.64140675 133.82470588 176.81911116 120.34734127 174.66796875 106.8984375 C173.90484375 102.0928125 173.14171875 97.2871875 172.35546875 92.3359375 C153.21546875 92.3359375 134.07546875 92.3359375 114.35546875 92.3359375 Z M188.35546875 92.3359375 C190.02747037 106.62543536 190.02747037 106.62543536 192.03540039 120.85693359 C192.19014328 121.87872208 192.34488617 122.90051056 192.50431824 123.95326233 C193.00523888 127.25574033 193.51026568 130.55757357 194.015625 133.859375 C194.36926992 136.18199036 194.72273656 138.50463287 195.07603455 140.82730103 C195.81128263 145.65663731 196.54856349 150.48565746 197.28735352 155.31445312 C198.23492326 161.50887126 199.17746175 167.70404287 200.11853886 173.8994503 C200.84492375 178.67798238 201.57384523 183.45612478 202.30355644 188.23414993 C202.6523954 190.52024276 203.00045869 192.80645408 203.34773445 195.09278488 C203.83089559 198.27107759 204.31744627 201.44883292 204.80493164 204.62646484 C204.94780609 205.5707988 205.09068054 206.51513275 205.23788452 207.48808289 C205.37099533 208.35112534 205.50410614 209.21416779 205.64125061 210.10336304 C205.75572068 210.85282385 205.87019075 211.60228466 205.98812962 212.37445641 C206.34730905 214.53844843 206.34730905 214.53844843 207.35546875 217.3359375 C222.20546875 217.3359375 237.05546875 217.3359375 252.35546875 217.3359375 C251.7139524 196.55062264 251.7139524 196.55062264 250.85546875 175.7734375 C250.80241577 174.58186035 250.80241577 174.58186035 250.74829102 173.36621094 C250.55877089 169.5923967 250.1426697 166.02693791 249.35546875 162.3359375 C248.34121826 162.3265918 247.32696777 162.31724609 246.28198242 162.30761719 C242.51884033 162.26774388 238.75651815 162.20199408 234.99389648 162.12841797 C233.3654229 162.10019261 231.73681192 162.07898578 230.1081543 162.06494141 C227.76669904 162.04353218 225.4268983 161.99689786 223.0859375 161.9453125 C222.35771286 161.94408386 221.62948822 161.94285522 220.87919617 161.94158936 C217.63496248 161.84757934 215.80967084 161.74839369 213.3605957 159.52441406 C211.84292579 156.21997075 212.52242514 153.79627249 213.35546875 150.3359375 C216.18553877 147.50586748 218.97499727 147.98347824 222.76953125 147.921875 C223.86399063 147.89282578 223.86399063 147.89282578 224.9805603 147.8631897 C227.31374377 147.80335328 229.64697648 147.75699327 231.98046875 147.7109375 C233.56121957 147.67276136 235.14194951 147.63370985 236.72265625 147.59375 C240.60009105 147.49764872 244.47762324 147.41363338 248.35546875 147.3359375 C248.70080166 128.9340438 247.44815207 110.70667588 246.35546875 92.3359375 C227.21546875 92.3359375 208.07546875 92.3359375 188.35546875 92.3359375 Z M262.35546875 92.3359375 C262.32662942 105.40419415 262.32662942 105.40419415 262.79296875 118.4296875 C262.83228516 119.18024414 262.87160156 119.93080078 262.91210938 120.70410156 C263.0553079 123.41495979 263.20575786 126.12543113 263.35546875 128.8359375 C263.68546875 134.9409375 264.01546875 141.0459375 264.35546875 147.3359375 C281.84546875 147.3359375 299.33546875 147.3359375 317.35546875 147.3359375 C318.34546875 129.1859375 319.33546875 111.0359375 320.35546875 92.3359375 C301.21546875 92.3359375 282.07546875 92.3359375 262.35546875 92.3359375 Z M336.35546875 92.3359375 C335.09759304 96.10956463 335.01107363 99.76388143 334.8203125 103.703125 C334.77733536 104.53369415 334.73435822 105.36426331 334.69007874 106.22000122 C334.59985486 107.98347819 334.51173072 109.74706364 334.42553711 111.51074219 C334.29515858 114.16633434 334.15691827 116.82142729 334.01757812 119.4765625 C333.93051144 121.19789255 333.8439093 122.91924617 333.7578125 124.640625 C333.717202 125.41719452 333.67659149 126.19376404 333.63475037 126.99386597 C333.30953228 133.79742292 333.35546875 140.49733548 333.35546875 147.3359375 C350.51546875 147.3359375 367.67546875 147.3359375 385.35546875 147.3359375 C387.29193347 137.00812568 389.1533795 126.73802215 390.71801758 116.359375 C391.04821769 114.17623373 391.38626568 111.99439236 391.72460938 109.8125 C391.93927184 108.40111303 392.15348193 106.98965717 392.3671875 105.578125 C392.55756592 104.3288623 392.74794434 103.07959961 392.9440918 101.79248047 C393.47364871 97.92310142 393.47364871 97.92310142 393.35546875 92.3359375 C374.54546875 92.3359375 355.73546875 92.3359375 336.35546875 92.3359375 Z M410.35546875 92.3359375 C408.68697518 98.94139337 408.68697518 98.94139337 407.48583984 105.55859375 C407.3439624 106.51185547 407.20208496 107.46511719 407.0559082 108.44726562 C406.91499756 109.42115234 406.77408691 110.39503906 406.62890625 111.3984375 C406.49331299 112.31431641 406.35771973 113.23019531 406.21801758 114.17382812 C405.71780741 117.56055674 405.22453636 120.94830733 404.73046875 124.3359375 C403.61671875 131.9259375 402.50296875 139.5159375 401.35546875 147.3359375 C418.51546875 147.3359375 435.67546875 147.3359375 453.35546875 147.3359375 C455.70353493 140.40153887 455.70353493 140.40153887 457.70581055 133.41455078 C457.92581223 132.5640213 458.1458139 131.71349182 458.3724823 130.83718872 C458.59761002 129.95247894 458.82273773 129.06776917 459.0546875 128.15625 C459.41455498 126.75437943 459.41455498 126.75437943 459.7816925 125.32418823 C460.28324464 123.36660449 460.78315866 121.40860038 461.28149414 119.45019531 C462.04646105 116.44722808 462.81881239 113.44622471 463.59179688 110.4453125 C464.07986944 108.53657139 464.56751501 106.62772104 465.0546875 104.71875 C465.40148811 103.37346725 465.40148811 103.37346725 465.7552948 102.00100708 C466.07111259 100.75358231 466.07111259 100.75358231 466.39331055 99.48095703 C466.57967575 98.75087433 466.76604095 98.02079163 466.95805359 97.26858521 C467.45617781 95.17503239 467.45617781 95.17503239 467.35546875 92.3359375 C448.54546875 92.3359375 429.73546875 92.3359375 410.35546875 92.3359375 Z M132.35546875 162.3359375 C133.07683431 168.45587559 134.51007319 174.30257626 136.04296875 180.265625 C136.30553467 181.29656281 136.56810059 182.32750061 136.83862305 183.38967896 C137.39158216 185.55679803 137.94638559 187.72344726 138.50292969 189.88964844 C139.35762702 193.2193456 140.20457783 196.55094783 141.05078125 199.8828125 C141.58938287 201.9897012 142.12842958 204.09647619 142.66796875 206.203125 C142.92215576 207.20407196 143.17634277 208.20501892 143.43823242 209.23629761 C143.79365112 210.61375656 143.79365112 210.61375656 144.15625 212.01904297 C144.36419189 212.83065887 144.57213379 213.64227478 144.78637695 214.47848511 C145.19556914 216.33235284 145.19556914 216.33235284 146.35546875 217.3359375 C147.76771921 217.4288101 149.18455809 217.45340522 150.59985352 217.44946289 C151.95114098 217.44934959 151.95114098 217.44934959 153.32972717 217.44923401 C154.30888596 217.44407272 155.28804474 217.43891144 156.296875 217.43359375 C157.29428207 217.4321788 158.29168915 217.43076385 159.31932068 217.42930603 C162.51889999 217.42368864 165.71841044 217.41113321 168.91796875 217.3984375 C171.0813792 217.39342474 173.24479074 217.38886145 175.40820312 217.38476562 C180.723982 217.37371357 186.03972046 217.35695854 191.35546875 217.3359375 C190.53823527 211.73485138 189.72033528 206.13386311 188.90185547 200.53295898 C188.62433486 198.63324523 188.34698672 196.73350627 188.06982422 194.83374023 C187.28612808 189.462451 186.49872351 184.0917314 185.70617676 178.72174072 C185.38365854 176.52770752 185.06587009 174.33304136 184.74902344 172.13818359 C184.57532227 170.95949707 184.40162109 169.78081055 184.22265625 168.56640625 C184.07683105 167.56375732 183.93100586 166.5611084 183.78076172 165.52807617 C183.57374068 163.36771272 183.57374068 163.36771272 182.35546875 162.3359375 C180.78999827 162.24267034 179.22034103 162.21848168 177.65209961 162.22241211 C176.15065651 162.22252541 176.15065651 162.22252541 174.61888123 162.22264099 C173.53035355 162.22780228 172.44182587 162.23296356 171.3203125 162.23828125 C169.65773155 162.24040367 169.65773155 162.24040367 167.96156311 162.24256897 C164.40533806 162.24818717 160.84917492 162.26074275 157.29296875 162.2734375 C154.88867278 162.27845016 152.48437583 162.28301347 150.08007812 162.28710938 C144.17185371 162.29816251 138.26366565 162.31491833 132.35546875 162.3359375 Z M265.35546875 162.3359375 C265.66484375 169.3690625 265.97421875 176.4021875 266.29296875 183.6484375 C266.38827881 185.84540283 266.48358887 188.04236816 266.58178711 190.3059082 C266.66109457 192.08285403 266.74059094 193.85979145 266.8203125 195.63671875 C266.85838013 196.53048218 266.89644775 197.42424561 266.93566895 198.34509277 C267.22468422 204.71291878 267.77691535 210.97185005 268.35546875 217.3359375 C283.20546875 217.3359375 298.05546875 217.3359375 313.35546875 217.3359375 C314.0004337 214.11111275 314.49335561 211.45481722 314.65258789 208.25512695 C314.69255386 207.48695145 314.73251984 206.71877594 314.7736969 205.92732239 C314.83157631 204.70066109 314.83157631 204.70066109 314.890625 203.44921875 C314.93360214 202.59216843 314.97657928 201.7351181 315.02085876 200.85209656 C315.11083518 199.04089032 315.19897564 197.22959207 315.28540039 195.41821289 C315.41669551 192.67503952 315.55455508 189.93225565 315.69335938 187.18945312 C315.78034173 185.42189434 315.86694227 183.65431671 315.953125 181.88671875 C315.9937355 181.0790657 316.03434601 180.27141266 316.07618713 179.43928528 C316.34484511 173.71831458 316.35546875 168.07898456 316.35546875 162.3359375 C299.52546875 162.3359375 282.69546875 162.3359375 265.35546875 162.3359375 Z M332.35546875 162.3359375 C331.12760594 180.67202216 330.03132528 198.97211257 329.35546875 217.3359375 C335.74584106 217.36120812 342.13620058 217.37877067 348.52661133 217.39086914 C350.70239748 217.39591058 352.87818022 217.40274357 355.05395508 217.41137695 C358.17399942 217.42345088 361.29399913 217.42916755 364.4140625 217.43359375 C365.39322128 217.43875504 366.37238007 217.44391632 367.38121033 217.44923401 C368.28206863 217.44930954 369.18292694 217.44938507 370.11108398 217.44946289 C370.90828354 217.4516835 371.70548309 217.45390411 372.52684021 217.45619202 C374.37469156 217.53644206 374.37469156 217.53644206 375.35546875 216.3359375 C375.68345496 214.72610775 375.95520206 213.10476335 376.20336914 211.48071289 C376.36345963 210.4461647 376.52355011 209.41161652 376.68849182 208.34571838 C376.85832077 207.21971725 377.02814972 206.09371613 377.203125 204.93359375 C377.37927841 203.78555771 377.55543182 202.63752167 377.73692322 201.45469666 C378.10950721 199.02128106 378.48009949 196.58755982 378.84887695 194.15356445 C379.41508677 190.41745414 379.98727205 186.68229772 380.56054688 182.94726562 C380.92092445 180.58859535 381.28096188 178.22987308 381.640625 175.87109375 C381.81247818 174.74711685 381.98433136 173.62313995 382.16139221 172.46510315 C382.31833054 171.4274028 382.47526886 170.38970245 382.63696289 169.32055664 C382.77606583 168.40423965 382.91516876 167.48792267 383.05848694 166.5438385 C383.39990479 164.37687675 383.39990479 164.37687675 383.35546875 162.3359375 C366.52546875 162.3359375 349.69546875 162.3359375 332.35546875 162.3359375 Z M399.35546875 162.3359375 C397.41900403 172.66374932 395.557558 182.93385285 393.99291992 193.3125 C393.66271981 195.49564127 393.32467182 197.67748264 392.98632812 199.859375 C392.77166566 201.27076197 392.55745557 202.68221783 392.34375 204.09375 C392.15337158 205.3430127 391.96299316 206.59227539 391.7668457 207.87939453 C391.23728879 211.74877358 391.23728879 211.74877358 391.35546875 217.3359375 C405.87546875 217.3359375 420.39546875 217.3359375 435.35546875 217.3359375 C437.70353493 210.40153887 437.70353493 210.40153887 439.70581055 203.41455078 C439.92581223 202.5640213 440.1458139 201.71349182 440.3724823 200.83718872 C440.59761002 199.95247894 440.82273773 199.06776917 441.0546875 198.15625 C441.41455498 196.75437943 441.41455498 196.75437943 441.7816925 195.32418823 C442.28324464 193.36660449 442.78315866 191.40860038 443.28149414 189.45019531 C444.04646105 186.44722808 444.81881239 183.44622471 445.59179688 180.4453125 C446.07986944 178.53657139 446.56751501 176.62772104 447.0546875 174.71875 C447.28588791 173.82189484 447.51708832 172.92503967 447.7552948 172.00100708 C448.07111259 170.75358231 448.07111259 170.75358231 448.39331055 169.48095703 C448.57967575 168.75087433 448.76604095 168.02079163 448.95805359 167.26858521 C449.45617781 165.17503239 449.45617781 165.17503239 449.35546875 162.3359375 C432.85546875 162.3359375 416.35546875 162.3359375 399.35546875 162.3359375 Z M150.35546875 232.3359375 C151.17963536 239.06372827 151.17963536 239.06372827 152.57055664 245.55859375 C152.81073013 246.49896484 153.05090363 247.43933594 153.2983551 248.40820312 C153.6843412 249.88836914 153.6843412 249.88836914 154.078125 251.3984375 C154.34306259 252.43033203 154.60800018 253.46222656 154.88096619 254.52539062 C155.72201617 257.79678289 156.56988228 261.06636315 157.41796875 264.3359375 C157.99198874 266.56368559 158.56556117 268.79154906 159.13867188 271.01953125 C160.53826458 276.45991621 161.9470746 281.89779418 163.35546875 287.3359375 C175.89546875 287.3359375 188.43546875 287.3359375 201.35546875 287.3359375 C200.7639513 279.64621062 200.17949755 272.21420873 198.98046875 264.640625 C198.8510791 263.80048859 198.72168945 262.96035217 198.58837891 262.09475708 C198.31841728 260.34861584 198.0461168 258.60283459 197.77148438 256.85742188 C197.35089911 254.18186774 196.93859079 251.50512884 196.52734375 248.828125 C196.26219606 247.11971752 195.9965883 245.41138136 195.73046875 243.703125 C195.60752441 242.90631317 195.48458008 242.10950134 195.35791016 241.2885437 C194.86951304 238.20056875 194.34610541 235.30784748 193.35546875 232.3359375 C179.16546875 232.3359375 164.97546875 232.3359375 150.35546875 232.3359375 Z M209.35546875 232.3359375 C210.47333917 239.84782303 211.59324387 247.359344 212.71850586 254.87011719 C213.10091815 257.42690006 213.48210675 259.98386625 213.86206055 262.54101562 C214.40744892 266.21012123 214.95719096 269.87855157 215.5078125 273.546875 C215.67764145 274.69586273 215.8474704 275.84485046 216.02244568 277.02865601 C216.18253616 278.0896048 216.34262665 279.15055359 216.50756836 280.24365234 C216.71741615 281.64929947 216.71741615 281.64929947 216.9315033 283.08334351 C217.2535546 285.36049228 217.2535546 285.36049228 218.35546875 287.3359375 C230.89546875 287.3359375 243.43546875 287.3359375 256.35546875 287.3359375 C255.36546875 269.1859375 254.37546875 251.0359375 253.35546875 232.3359375 C238.83546875 232.3359375 224.31546875 232.3359375 209.35546875 232.3359375 Z M269.35546875 232.3359375 C269.35546875 239.94680407 269.36132756 247.44951398 269.7578125 255.03125 C269.79983292 255.87138641 269.84185333 256.71152283 269.88514709 257.57711792 C269.97345467 259.32298072 270.06341624 261.06876065 270.1550293 262.81445312 C270.29451647 265.49063182 270.42583043 268.16713464 270.55664062 270.84375 C270.64404449 272.55210831 270.73191749 274.26044269 270.8203125 275.96875 C270.85889877 276.76556183 270.89748505 277.56237366 270.9372406 278.3833313 C271.10983811 281.57315601 271.34002079 284.28959362 272.35546875 287.3359375 C284.89546875 287.3359375 297.43546875 287.3359375 310.35546875 287.3359375 C310.68546875 281.7878125 311.01546875 276.2396875 311.35546875 270.5234375 C311.45988281 268.81696045 311.56429687 267.1104834 311.671875 265.35229492 C311.75433872 263.92369026 311.83639337 262.49506191 311.91796875 261.06640625 C311.98274414 260.04625427 311.98274414 260.04625427 312.04882812 259.00549316 C312.54522016 250.09850632 312.35546875 241.29750274 312.35546875 232.3359375 C298.16546875 232.3359375 283.97546875 232.3359375 269.35546875 232.3359375 Z M328.35546875 232.3359375 C328.02546875 238.4409375 327.69546875 244.5459375 327.35546875 250.8359375 C327.25105469 252.72634766 327.14664062 254.61675781 327.0390625 256.56445312 C326.9566978 258.12368034 326.87464763 259.68292421 326.79296875 261.2421875 C326.74978516 262.00241211 326.70660156 262.76263672 326.66210938 263.54589844 C326.25311651 271.50178345 326.35546875 279.32937468 326.35546875 287.3359375 C338.89546875 287.3359375 351.43546875 287.3359375 364.35546875 287.3359375 C365.49687566 279.98558272 366.63692215 272.63504438 367.7734375 265.28393555 C368.16064649 262.78218215 368.54866395 260.28055376 368.9375 257.77905273 C369.49560718 254.18766148 370.05082468 250.59583375 370.60546875 247.00390625 C370.78045898 245.88195358 370.95544922 244.76000092 371.13574219 243.60404968 C371.2959082 242.56319717 371.45607422 241.52234467 371.62109375 240.44995117 C371.76321289 239.53283859 371.90533203 238.61572601 372.05175781 237.67082214 C372.4199631 235.23254021 372.4199631 235.23254021 372.35546875 232.3359375 C357.83546875 232.3359375 343.31546875 232.3359375 328.35546875 232.3359375 Z M388.35546875 232.3359375 C387.21330528 239.52544862 386.07300382 246.71520309 384.9375 253.90576172 C384.5505841 256.35222579 384.16256951 258.79851635 383.7734375 261.24462891 C383.21456138 264.75899022 382.65962888 268.27395487 382.10546875 271.7890625 C381.93047852 272.8839801 381.75548828 273.97889771 381.57519531 275.10699463 C381.4150293 276.12775085 381.25486328 277.14850708 381.08984375 278.20019531 C380.94772461 279.09732239 380.80560547 279.99444946 380.65917969 280.91876221 C380.27235753 283.59137315 380.27235753 283.59137315 380.35546875 287.3359375 C393.14505442 287.76225702 404.88080242 286.13223075 414.6796875 277.22265625 C422.44310626 268.91393266 425.29508854 259.89323649 428.10546875 249.0859375 C428.57919922 247.33023438 428.57919922 247.33023438 429.0625 245.5390625 C430.81218419 239.02656631 430.81218419 239.02656631 431.35546875 232.3359375 C417.16546875 232.3359375 402.97546875 232.3359375 388.35546875 232.3359375 Z " fill="#000000" transform="translate(26.64453125,-0.3359375)"/>
<path d="M0 0 C3.62018392 1.4433923 5.03811751 3.10549848 7 6.4375 C7.474375 7.21996094 7.94875 8.00242187 8.4375 8.80859375 C12.49375852 17.09350178 14.8952475 25.88320965 17.05859375 34.81640625 C17.32962418 35.91234604 17.6006546 37.00828583 17.87989807 38.13743591 C18.73810738 41.61108883 19.58832671 45.08662816 20.4375 48.5625 C21.55769405 53.12717022 22.68160224 57.69090965 23.80859375 62.25390625 C24.08101898 63.35824005 24.35344421 64.46257385 24.63412476 65.60037231 C26.41850776 72.78754331 28.32377711 79.92998016 30.34092712 87.0549469 C32.06658093 93.16481016 33.56850695 99.31463749 35 105.5 C36.69769787 112.70976061 38.45987141 119.8792931 40.5 127 C42.84787546 135.19484273 44.81234463 143.46602927 46.76953125 151.76171875 C48.22296575 157.88105067 49.76775604 163.9539098 51.5 170 C53.84787546 178.19484273 55.81234463 186.46602927 57.76953125 194.76171875 C59.3915152 201.59068707 61.16624746 208.34974339 63.10107422 215.09570312 C65.25979559 222.72122648 67.06198782 230.43046498 68.85742188 238.1484375 C69.98958107 242.97484765 71.16150561 247.78658061 72.4921875 252.5625 C72.70987793 253.34753906 72.92756836 254.13257813 73.15185547 254.94140625 C74.14564651 257.35350933 74.9339337 258.40099224 77 260 C79.65587709 260.46034769 79.65587709 260.46034769 82.71366882 260.39872742 C83.90418854 260.41126556 85.09470825 260.42380371 86.32130432 260.4367218 C87.62897263 260.43528671 88.93664093 260.43385162 90.28393555 260.43237305 C91.67353184 260.4413882 93.06312015 260.45171482 94.45269775 260.46325684 C98.22721399 260.49088225 102.00157958 260.5001188 105.77618384 260.50611091 C109.72005695 260.51548023 113.66381688 260.54168239 117.60762024 260.56611633 C125.07672544 260.60982484 132.54580874 260.63834501 140.01500303 260.66143972 C148.51799873 260.68846813 157.02088082 260.73238104 165.52379549 260.77772844 C183.01580522 260.870637 200.50783947 260.94228922 218 261 C214.81305678 268.77389515 214.81305678 268.77389515 211.1875 271.3125 C210.21876953 272.01826172 210.21876953 272.01826172 209.23046875 272.73828125 C202.51526375 276.53689984 196.15163925 276.23565838 188.64257812 276.12841797 C186.06555234 276.10928621 183.48852594 276.09023696 180.91149902 276.07125854 C179.53346016 276.05770148 178.15542366 276.04390222 176.77738953 276.02987289 C172.48624345 275.98859546 168.19525202 275.97354668 163.90393066 275.96463013 C163.1766714 275.96301467 162.44941215 275.96139921 161.70011473 275.9597348 C160.21283736 275.95649735 158.72555985 275.95332764 157.2382822 275.95022416 C147.25813556 275.92851329 137.27888192 275.89116227 127.29931641 275.77734375 C120.55568015 275.70062895 113.81331532 275.66792858 107.069242 275.68324578 C103.51271886 275.68964561 99.95927175 275.67553288 96.40333557 275.60717392 C78.37748619 275.27637827 65.55651916 277.25060648 50.44154358 287.40251541 C46.96137447 289.6795653 43.34630034 291.69010312 39.71530914 293.71482658 C37.13136006 295.15631845 34.56775498 296.62964156 32.0078125 298.11328125 C28.72528848 300.0125194 25.42903743 301.8828827 22.1171875 303.73046875 C20.5987753 304.59082288 19.08053697 305.45148397 17.5625 306.3125 C16.88276123 306.68455566 16.20302246 307.05661133 15.50268555 307.43994141 C9.92336048 310.64078986 5.91502662 314.77927341 2.625 320.3125 C1.0061532 327.27354123 1.46025856 333.53806236 4.6640625 339.95703125 C7.98113035 345.02962332 12.31713559 348.05680844 18 350 C20.84485471 350.29533851 20.84485471 350.29533851 23.91117859 350.24774647 C25.10240483 350.25212847 26.29363108 350.25651046 27.52095509 350.26102525 C28.8259027 350.25567992 30.13085032 350.25033458 31.4753418 350.24482727 C32.87852688 350.24624985 34.28171129 350.24856281 35.68489361 350.25168961 C39.54051567 350.25779195 43.39603479 350.25154608 47.25164938 350.243379 C51.40984584 350.23679225 55.56802916 350.24179817 59.72622681 350.24560547 C66.93163964 350.25082905 74.13702558 350.24933343 81.34243774 350.24382973 C92.72790732 350.2356201 104.11331882 350.24684058 115.4987793 350.2610321 C119.39350878 350.26563315 123.28823841 350.2700835 127.18296814 350.27447033 C128.15627022 350.27556847 129.1295723 350.27666661 130.13236839 350.27779803 C141.21031364 350.28997123 152.28826075 350.29752418 163.36621094 350.3034668 C164.3788809 350.30401486 165.39155086 350.30456292 166.43490779 350.30512758 C182.85619472 350.31359215 199.27746526 350.31024602 215.69875228 350.30431245 C232.55310566 350.29869959 249.40737634 350.31220547 266.26170444 350.34186524 C276.66109455 350.35942744 287.06024594 350.36101506 297.45963502 350.34222009 C304.58241355 350.33063497 311.70503062 350.33702802 318.82778811 350.3576893 C322.93987767 350.36903518 327.05155154 350.37212794 331.16362381 350.35351372 C334.92648272 350.33663741 338.68857849 350.34264434 342.45138991 350.36701228 C344.46061978 350.37399912 346.46988837 350.35627801 348.47904491 350.33774453 C358.19819463 350.43732642 358.19819463 350.43732642 361.33830261 353.31254864 C363 356 363 356 363.0625 359.625 C361.87748742 363.3891576 361.33085809 364.09525986 358 366 C355.32410002 366.37834883 355.32410002 366.37834883 352.20018768 366.38311005 C351.00830259 366.39216669 349.81641749 366.40122333 348.58841467 366.41055441 C346.6221134 366.40256252 346.6221134 366.40256252 344.61608887 366.39440918 C343.21050227 366.39929688 341.80491969 366.40548612 340.39934397 366.41286707 C336.53215033 366.42930658 332.66516001 366.42694051 328.79794359 366.4214921 C324.62866734 366.41882666 320.45944588 366.43334494 316.29019165 366.44558716 C308.11848691 366.4666675 299.94685308 366.47118039 291.77512437 366.46939927 C285.13057646 366.46809238 278.4860507 366.47189211 271.84150696 366.47932434 C269.92847777 366.48142353 268.01544857 366.48352114 266.10241938 366.48561716 C264.67417022 366.48718245 264.67417022 366.48718245 263.21706754 366.48877937 C245.19679559 366.50769394 227.17656431 366.50662848 209.15628654 366.49981004 C192.68140763 366.49423987 176.20668449 366.51503536 159.73184198 366.54817051 C142.81309833 366.5819339 125.89442922 366.59707212 108.97565126 366.59245348 C99.47821173 366.59021067 89.98091598 366.5954237 80.48350525 366.62034607 C72.39356412 366.64139399 64.30384551 366.64491716 56.21389514 366.62604648 C52.08878892 366.61690813 47.96409716 366.61568646 43.83902359 366.63640213 C40.05603095 366.6551889 36.27378994 366.65052369 32.49082524 366.62785631 C30.48770947 366.62172893 28.48456385 366.64000133 26.48153257 366.65939283 C15.25209652 366.55008125 5.86759591 363.64567742 -2.32421875 355.7421875 C-2.87722656 355.16726563 -3.43023437 354.59234375 -4 354 C-4.9075 353.071875 -5.815 352.14375 -6.75 351.1875 C-13.21424937 342.02981339 -14.99120298 332.01716414 -14 321 C-10.98098932 309.53317467 -3.62335501 300.64484983 6.43823242 294.5144043 C9.40130221 292.83340944 12.38369786 291.19271826 15.375 289.5625 C17.60763633 288.32708367 19.83938318 287.09005871 22.0703125 285.8515625 C23.21145508 285.21895508 24.35259766 284.58634766 25.52832031 283.93457031 C31.12844236 280.81393972 36.69676081 277.64069882 42.25 274.4375 C43.75699463 273.58103882 43.75699463 273.58103882 45.29443359 272.70727539 C52.45819466 268.77495356 52.45819466 268.77495356 58 263 C58.0100344 259.94619673 57.73731037 257.90266815 57 255 C56.67249756 253.67572998 56.67249756 253.67572998 56.33837891 252.32470703 C55.53420734 249.22586903 54.67815902 246.14470778 53.8125 243.0625 C51.33596968 234.0759774 49.00714825 225.07441737 46.875 216 C45.04788752 208.23941312 43.08953414 200.54863971 40.89404297 192.88476562 C38.77411885 185.39155176 37.01832055 177.81623179 35.23046875 170.23828125 C33.77703425 164.11894933 32.23224396 158.0460902 30.5 152 C28.15212454 143.80515727 26.18765537 135.53397073 24.23046875 127.23828125 C22.77703425 121.11894933 21.23224396 115.0460902 19.5 109 C17.45982765 101.87914036 15.70100789 94.70905914 14 87.5 C12.16828234 79.74380248 10.24974651 72.04200768 8.03076172 64.38769531 C6.60147804 59.37905618 5.35126427 54.33858431 4.15625 49.26953125 C3.81848138 47.85548208 3.48042453 46.44150173 3.14208984 45.02758789 C2.63810398 42.92102981 2.1395247 40.81411367 1.66094971 38.70162964 C-0.3963414 29.62773779 -3.17428416 21.99885551 -7.80908203 13.89941406 C-9 11 -9 11 -8.30273438 8.72851562 C-6.79232777 6.72445289 -5.18308153 4.99111555 -3.375 3.25 C-2.74335937 2.63640625 -2.11171875 2.0228125 -1.4609375 1.390625 C-0.73777344 0.70226563 -0.73777344 0.70226563 0 0 Z " fill="#B3CBFC" transform="translate(104,41)"/>
<path d="M0 0 C8.88452198 6.47559911 15.49285657 14.18088556 18 25 C19.20973379 35.88491581 18.66689771 46.59701634 12.046875 55.6796875 C5.32785132 63.59685876 -2.32421818 70.03578616 -12.97705078 71.21972656 C-25.01101394 71.90573452 -34.81251245 70.87480397 -44.3125 62.8125 C-52.30371276 55.07537986 -57.13552237 47.23922069 -57.38110352 35.89868164 C-57.34627519 23.637717 -55.21742798 15.30277044 -46.43359375 6.23046875 C-34.19076182 -4.99048956 -14.93112713 -8.70592366 0 0 Z " fill="#000000" transform="translate(449,441)"/>
<path d="M0 0 C8.88452198 6.47559911 15.49285657 14.18088556 18 25 C19.20973379 35.88491581 18.66689771 46.59701634 12.046875 55.6796875 C5.32785132 63.59685876 -2.32421818 70.03578616 -12.97705078 71.21972656 C-25.01101394 71.90573452 -34.81251245 70.87480397 -44.3125 62.8125 C-52.30371276 55.07537986 -57.13552237 47.23922069 -57.38110352 35.89868164 C-57.34627519 23.637717 -55.21742798 15.30277044 -46.43359375 6.23046875 C-34.19076182 -4.99048956 -14.93112713 -8.70592366 0 0 Z " fill="#000000" transform="translate(192,441)"/>
<path d="M0 0 C5.27811704 3.0517508 9.06296684 7.71272782 12.1875 12.875 C13.66749742 19.78165461 13.33005863 26.02738274 10.1484375 32.390625 C7.01972148 37.10991732 2.90884621 40.42057689 -2.125 42.9375 C-8.98793594 44.17282847 -15.1632195 44.44492313 -21.36328125 40.8984375 C-26.61485322 37.00596801 -31.07065854 32.05189698 -32.25 25.5 C-32.97996886 18.64061006 -32.43782348 13.13431405 -28.25 7.5 C-20.5891037 -0.60871488 -10.91385595 -4.8080535 0 0 Z " fill="#224970" transform="translate(439.25,453.5)"/>
<path d="M0 0 C5.27811704 3.0517508 9.06296684 7.71272782 12.1875 12.875 C13.66749742 19.78165461 13.33005863 26.02738274 10.1484375 32.390625 C7.01972148 37.10991732 2.90884621 40.42057689 -2.125 42.9375 C-8.98793594 44.17282847 -15.1632195 44.44492313 -21.36328125 40.8984375 C-26.61485322 37.00596801 -31.07065854 32.05189698 -32.25 25.5 C-32.97996886 18.64061006 -32.43782348 13.13431405 -28.25 7.5 C-20.5891037 -0.60871488 -10.91385595 -4.8080535 0 0 Z " fill="#224970" transform="translate(182.25,453.5)"/>
<path d="M0 0 C0.8560936 0.00091644 1.71218719 0.00183289 2.59422302 0.0027771 C4.40735408 0.00881507 6.22047507 0.02456703 8.03344727 0.04931641 C10.7746365 0.0854894 13.5144579 0.09033774 16.25585938 0.08984375 C32.97137808 0.15623081 52.03579193 1.80128059 65.24609375 13.4609375 C65.24609375 17.4609375 65.24609375 17.4609375 63.49609375 19.6015625 C62.75359375 20.29765625 62.01109375 20.99375 61.24609375 21.7109375 C60.50359375 22.41734375 59.76109375 23.12375 58.99609375 23.8515625 C58.12984375 24.64820313 58.12984375 24.64820313 57.24609375 25.4609375 C54.61850898 24.42335375 52.00915672 23.35897287 49.4140625 22.2421875 C48.43050781 21.819375 47.44695312 21.3965625 46.43359375 20.9609375 C44.96986328 20.32671875 44.96986328 20.32671875 43.4765625 19.6796875 C36.46580287 17.03475763 30.31220923 16.18514743 22.890625 16.22265625 C21.11652867 16.20725196 19.34243996 16.1909495 17.56835938 16.17382812 C14.8032943 16.15732689 12.03879237 16.14848784 9.27368164 16.15551758 C6.58286096 16.1581358 3.89372084 16.13005716 1.203125 16.09765625 C0.37907669 16.10786301 -0.44497162 16.11806976 -1.29399109 16.12858582 C-5.58873378 16.05546991 -7.27215564 15.83497569 -10.77856445 13.11254883 C-12.75390625 10.4609375 -12.75390625 10.4609375 -13.31640625 7.3984375 C-11.89115777 -0.04452677 -6.5604326 -0.11500411 0 0 Z " fill="#FB4B3A" transform="translate(27.75390625,14.5390625)"/>
<path d="M0 0 C0 4.95 0 9.9 0 15 C-1.98 15.99 -3.96 16.98 -6 18 C-7.3309316 21.39969811 -7.3309316 21.39969811 -7 25 C-4.82946501 27.94572605 -3.47817177 28.84060941 0 30 C0 34.95 0 39.9 0 45 C-8.14410151 44.50641809 -12.63977386 42.73541498 -18.25 36.625 C-22.53275578 31.32200659 -23.48587345 26.23347723 -23.3046875 19.51953125 C-22.43312208 12.31235564 -18.43820889 7.86425361 -12.94921875 3.41015625 C-8.31358648 0.05652249 -5.89544002 0 0 0 Z " fill="#355594" transform="translate(430,452)"/>
<path d="M0 0 C0 4.95 0 9.9 0 15 C-1.98 15.99 -3.96 16.98 -6 18 C-7.3309316 21.39969811 -7.3309316 21.39969811 -7 25 C-4.82946501 27.94572605 -3.47817177 28.84060941 0 30 C0 34.95 0 39.9 0 45 C-8.14410151 44.50641809 -12.63977386 42.73541498 -18.25 36.625 C-22.53275578 31.32200659 -23.48587345 26.23347723 -23.3046875 19.51953125 C-22.43312208 12.31235564 -18.43820889 7.86425361 -12.94921875 3.41015625 C-8.31358648 0.05652249 -5.89544002 0 0 0 Z " fill="#355594" transform="translate(173,452)"/>
<path d="M0 0 C3.06398451 -0.13530844 6.12197126 -0.2342407 9.1875 -0.3125 C10.05181641 -0.35439453 10.91613281 -0.39628906 11.80664062 -0.43945312 C16.33877658 -0.52627565 18.35732844 -0.47392991 22.109375 2.29296875 C24 5 24 5 24.0625 8.625 C23 12 23 12 21.54296875 13.69921875 C17.55808063 15.73757166 13.65189501 15.31429018 9.25 15.1875 C8.36183594 15.17396484 7.47367187 15.16042969 6.55859375 15.14648438 C4.372135 15.11121891 2.18598928 15.05741412 0 15 C0 10.05 0 5.1 0 0 Z " fill="#9EB2DC" transform="translate(443,392)"/>
<path d="M0 0 C7.26 0 14.52 0 22 0 C18.60628019 7.91867955 18.60628019 7.91867955 15.1875 10.3125 C14.54167969 10.78300781 13.89585937 11.25351562 13.23046875 11.73828125 C8.04443244 14.67188848 3.53317086 15.23647492 -2.375 15.125 C-3.62023437 15.10695313 -4.86546875 15.08890625 -6.1484375 15.0703125 C-7.55996094 15.03550781 -7.55996094 15.03550781 -9 15 C-8.60167969 14.50371094 -8.20335937 14.00742187 -7.79296875 13.49609375 C-7.26316406 12.81675781 -6.73335938 12.13742187 -6.1875 11.4375 C-5.66542969 10.77621094 -5.14335937 10.11492187 -4.60546875 9.43359375 C-2.49244104 6.38711511 -2.49244104 6.38711511 0 0 Z " fill="#9EB2DB" transform="translate(300,302)"/>
<path d="M0 0 C2 1.625 2 1.625 3 4 C2.93439072 7.739729 2.76345433 10.0603639 0.375 13 C-3.11581787 14.46981805 -5.39148956 13.98413921 -9 13 C-11 11.375 -11 11.375 -12 9 C-11.93439072 5.260271 -11.76345433 2.9396361 -9.375 0 C-5.88418213 -1.46981805 -3.60851044 -0.98413921 0 0 Z " fill="#010203" transform="translate(434,468)"/>
<path d="M0 0 C2 1.625 2 1.625 3 4 C2.93439072 7.739729 2.76345433 10.0603639 0.375 13 C-3.11581787 14.46981805 -5.39148956 13.98413921 -9 13 C-11 11.375 -11 11.375 -12 9 C-11.93439072 5.260271 -11.76345433 2.9396361 -9.375 0 C-5.88418213 -1.46981805 -3.60851044 -0.98413921 0 0 Z " fill="#010203" transform="translate(177,468)"/>
</svg>
