<?xml version="1.0" encoding="UTF-8"?>
<svg version="1.1" xmlns="http://www.w3.org/2000/svg" width="512" height="512">
<path d="M0 0 C0.88038437 -0.0071553 1.76076874 -0.01431061 2.66783142 -0.02168274 C3.63101791 -0.02437164 4.59420441 -0.02706055 5.58657837 -0.02983093 C6.60310989 -0.03640213 7.61964142 -0.04297333 8.66697693 -0.04974365 C12.03552318 -0.06947717 15.4040249 -0.08113806 18.77261353 -0.09111023 C20.49675413 -0.09722352 20.49675413 -0.09722352 22.25572586 -0.10346031 C28.33687409 -0.12431908 34.41799975 -0.1386229 40.49917603 -0.147995 C46.78646175 -0.15907221 53.0733948 -0.19348813 59.36055565 -0.23316669 C64.19037546 -0.25927985 69.02011046 -0.26768202 73.84999466 -0.27127647 C76.16807061 -0.27615441 78.48614247 -0.28780252 80.80414963 -0.30631447 C84.04571479 -0.33059742 87.28635683 -0.32976067 90.52798462 -0.32279968 C91.48712265 -0.33560974 92.44626068 -0.3484198 93.4344635 -0.36161804 C97.71777047 -0.32804954 100.04917786 -0.24796867 103.75909424 2.05154419 C107.09493836 5.67820454 107.02620282 8.44711383 106.96401978 13.22138977 C106.1655489 21.64469525 103.24379883 29.62793592 96.68667603 35.14717102 C89.35951219 39.86605043 81.929915 39.67351039 73.46401978 39.53779602 C72.10925641 39.53031984 70.7544821 39.52463343 69.39970398 39.52064514 C65.8632939 39.50549665 62.32755884 39.46631157 58.79141235 39.42182922 C55.17130663 39.38064068 51.55109001 39.36258424 47.93081665 39.34248352 C40.84913664 39.29980378 33.76802191 39.22954541 26.68667603 39.14717102 C27.01667603 44.09717102 27.34667603 49.04717102 27.68667603 54.14717102 C31.98947427 55.37654195 35.77860208 56.43175252 40.11196899 57.13691711 C41.12347015 57.30404205 42.13497131 57.47116699 43.17712402 57.64335632 C44.25019806 57.81734955 45.32327209 57.99134277 46.42886353 58.17060852 C48.73493254 58.55554967 51.04091967 58.94098156 53.34683228 59.32685852 C56.95553427 59.92659112 60.56471384 60.52266521 64.17544556 61.11006165 C67.67848666 61.68186964 71.17871541 62.26888532 74.67886353 62.85810852 C75.7478891 63.02805328 76.81691467 63.19799805 77.91833496 63.37309265 C86.10119534 64.76741352 94.79610458 66.91999549 100.68667603 73.14717102 C102.27870453 76.05846789 103.50551431 79.05002349 104.68667603 82.14717102 C105.09917603 83.11654602 105.51167603 84.08592102 105.93667603 85.08467102 C107.01316239 89.48032368 107.44930929 93.66109297 106.68667603 98.14717102 C104.24917603 101.20967102 104.24917603 101.20967102 101.68667603 103.14717102 C101.35667603 103.47717102 101.02667603 103.80717102 100.68667603 104.14717102 C92.48296191 104.71226106 84.54182267 103.76174179 76.46401978 102.43232727 C75.35611588 102.25713058 74.24821198 102.0819339 73.10673523 101.90142822 C70.78935036 101.53330638 68.47265377 101.16082702 66.15664673 100.78413391 C62.60363733 100.20633095 59.04875879 99.64143267 55.49331665 99.07881165 C53.23343333 98.71822037 50.97366333 98.35691799 48.71401978 97.99482727 C47.65158554 97.82499832 46.58915131 97.65516937 45.49452209 97.48019409 C44.51242264 97.32010361 43.53032318 97.16001312 42.51846313 96.99507141 C41.65530991 96.85517288 40.79215668 96.71527435 39.90284729 96.57113647 C37.68667603 96.14717102 37.68667603 96.14717102 34.68667603 95.14717102 C34.37730103 95.93092102 34.06792603 96.71467102 33.74917603 97.52217102 C32.68667603 100.14717102 32.68667603 100.14717102 31.68667603 102.14717102 C31.53023431 104.69823131 31.42846213 107.22635765 31.37026978 109.77998352 C31.33909813 110.90773697 31.33909813 110.90773697 31.30729675 112.05827332 C31.24184898 114.46281187 31.18293865 116.8674607 31.12417603 119.27217102 C31.08098625 120.90108873 31.03737181 122.52999524 30.99331665 124.15888977 C30.88617251 128.15487017 30.7848917 132.15096161 30.68667603 136.14717102 C32.38171265 136.11889221 32.38171265 136.11889221 34.11099243 136.09004211 C53.66844665 135.85871359 70.14040284 140.18838868 84.68667603 154.14717102 C95.55095688 166.3803166 101.01421522 180.04119457 100.94737244 196.31182861 C100.95119798 197.3087007 100.95502353 198.30557278 100.958965 199.33265311 C100.96924875 202.6588195 100.96531163 205.98481177 100.96133423 209.31098938 C100.96568323 211.70147867 100.970867 214.09196656 100.9768219 216.48245239 C100.9888136 222.29304407 100.99136586 228.10358194 100.98902164 233.9141845 C100.98723557 238.63884554 100.98899429 243.36349257 100.99324608 248.08815193 C100.99384127 248.76165765 100.99443646 249.43516337 100.99504968 250.12907835 C100.99626148 251.4974825 100.99747562 252.86588664 100.99869206 254.23429079 C101.00955747 267.05444486 101.00740973 279.8745726 101.00130721 292.69472814 C100.99613787 304.41198511 101.00739571 316.12915895 101.02640543 327.84639948 C101.04579658 339.89150625 101.05403766 351.93657371 101.05028218 363.98169619 C101.04837221 370.73859778 101.05083784 377.49542861 101.06499672 384.25231743 C101.07757241 390.60613352 101.07563321 396.95978319 101.06258583 403.31359673 C101.06022005 405.64319413 101.06295477 407.97280325 101.07120895 410.30238724 C101.08167753 413.48696083 101.07357441 416.67097607 101.06089783 419.85552979 C101.06827211 420.77324864 101.0756464 421.69096749 101.08324414 422.63649601 C100.99178144 433.58853104 97.32268549 441.20815029 89.87026978 449.06123352 C81.01568608 457.46861602 71.81061718 458.74169211 59.9503479 458.66474915 C58.59564974 458.67018124 57.24095749 458.67730997 55.88627625 458.68598938 C52.23533726 458.70409688 48.58485458 458.69720796 44.93390846 458.68447304 C41.09623698 458.67427956 37.25860213 458.68375621 33.42092896 458.6900177 C26.97867893 458.69727577 20.5366129 458.68775502 14.09439087 458.6686554 C6.66771241 458.64689007 -0.75852666 458.65394275 -8.18519449 458.67596102 C-14.5846882 458.69416777 -20.98405035 458.69664769 -27.38356161 458.68620634 C-31.19559515 458.68000025 -35.00742279 458.67905553 -38.81944275 458.69235229 C-42.40496239 458.70398752 -45.98992072 458.69574723 -49.57538033 458.67277527 C-51.50327427 458.66504476 -53.43121621 458.67677832 -55.35908508 458.68928528 C-66.32714741 458.5834456 -75.20964932 455.72802796 -83.31332397 448.14717102 C-91.36669313 439.18072146 -93.46288517 430.32066141 -93.460495 418.5355072 C-93.46417168 417.561766 -93.46784837 416.5880248 -93.47163647 415.58477628 C-93.48265813 412.31862257 -93.48651464 409.05250069 -93.49032593 405.78633118 C-93.49659188 403.44542846 -93.5032388 401.10452674 -93.51023865 398.7636261 C-93.53127128 391.07116894 -93.54164245 383.37871161 -93.55160522 375.68623352 C-93.55565352 373.03521591 -93.55977046 370.3841984 -93.56395531 367.733181 C-93.58096687 356.70124201 -93.59545782 345.66930399 -93.60270405 334.6373539 C-93.60461374 331.77653121 -93.60653409 328.91570852 -93.60848999 326.05488586 C-93.60897373 325.34390048 -93.60945747 324.6329151 -93.60995587 323.90038471 C-93.61824411 312.40036899 -93.64356087 300.90045769 -93.67607067 289.4004875 C-93.70922695 277.57467493 -93.72716065 265.74891526 -93.73034829 253.92305601 C-93.73250583 247.29108432 -93.7415919 240.65924733 -93.76680946 234.02731705 C-93.79017636 227.7810199 -93.79428867 221.53499538 -93.78404808 215.28866577 C-93.78355466 213.00512152 -93.78981753 210.72156345 -93.80360413 208.43806076 C-93.92192765 187.66523499 -91.66762702 170.23845182 -76.72738647 154.49873352 C-60.74379201 138.9289538 -45.69472428 136.14717102 -23.31332397 136.14717102 C-23.31332397 124.59717102 -23.31332397 113.04717102 -23.31332397 101.14717102 C-30.80962409 101.21500026 -38.30501358 101.28569779 -45.80084991 101.38271332 C-49.29253387 101.42712191 -52.78410481 101.46660654 -56.27597046 101.49360657 C-60.29522049 101.52492206 -64.3138693 101.5796984 -68.33285522 101.63545227 C-69.56663406 101.64184219 -70.8004129 101.64823212 -72.07157898 101.65481567 C-88.40649196 101.92873777 -99.84932748 106.56437663 -111.31332397 118.14717102 C-118.72196927 126.24080056 -121.41481866 137.32966743 -121.47154236 148.05044556 C-121.47648034 148.73258737 -121.48141831 149.41472919 -121.48650593 150.11754197 C-121.50182537 152.39605202 -121.51022641 154.67453402 -121.51864624 156.95307922 C-121.52822914 158.58926641 -121.53823946 160.22545114 -121.54864502 161.8616333 C-121.57565556 166.2991965 -121.59668596 170.73677029 -121.61664701 175.17437005 C-121.63853032 179.81353191 -121.66590753 184.45266126 -121.69270325 189.09179688 C-121.74259841 197.87477245 -121.78754903 206.65776611 -121.83072561 215.440777 C-121.88012513 225.44072415 -121.93503319 235.44063868 -121.9904052 245.44055426 C-122.1041765 266.00939611 -122.2110261 286.57826912 -122.31332397 307.14717102 C-121.6765976 307.41059296 -121.03987122 307.67401489 -120.3838501 307.94541931 C-118.31332397 309.14717102 -118.31332397 309.14717102 -117.18490601 312.37519836 C-115.88994168 318.68848155 -115.16551602 325.10766339 -114.36801147 331.49873352 C-114.1918228 332.88544144 -114.01531366 334.27210868 -113.83850098 335.65873718 C-113.47074402 338.55131201 -113.10635049 341.44428418 -112.74447632 344.33760071 C-112.28187803 348.03461529 -111.81160508 351.73060437 -111.33891106 355.4263401 C-110.974073 358.28452079 -110.61292047 361.14315778 -110.25290298 364.00194931 C-110.08091023 365.36475627 -109.90787841 366.72743253 -109.73376083 368.08996964 C-109.49081766 369.99610434 -109.25328395 371.90292611 -109.01596069 373.80976868 C-108.87987396 374.8915036 -108.74378723 375.97323853 -108.60357666 377.0877533 C-107.81500712 385.39969574 -107.81500712 385.39969574 -110.31332397 389.14717102 C-113.00802612 389.52139282 -113.00802612 389.52139282 -116.47543335 389.51948547 C-117.77017578 389.52571426 -119.06491821 389.53194305 -120.39889526 389.5383606 C-121.81829206 389.52967279 -123.23768513 389.52035484 -124.65707397 389.51045227 C-126.10674031 389.50993382 -127.55640736 389.51045094 -129.006073 389.51196289 C-132.04593384 389.51187311 -135.0855298 389.50143167 -138.12533569 389.48335266 C-142.0262845 389.46066504 -145.92684609 389.46012064 -149.82784271 389.46687031 C-152.82180232 389.47020823 -155.81567328 389.4635836 -158.80961609 389.45374107 C-160.24815914 389.4498857 -161.68671205 389.44874225 -163.1252594 389.45032692 C-165.13393356 389.45069683 -167.14259484 389.43661687 -169.1512146 389.42182922 C-170.29545898 389.41722183 -171.43970337 389.41261444 -172.61862183 389.40786743 C-175.31332397 389.14717102 -175.31332397 389.14717102 -177.31332397 387.14717102 C-178.33951759 378.6925332 -176.73161924 369.84785586 -175.66879272 361.46748352 C-175.4963614 360.08273961 -175.32419129 358.69796314 -175.15226746 357.31315613 C-174.79295221 354.43331695 -174.42829757 351.55421415 -174.06015015 348.67549133 C-173.59027331 344.99531776 -173.13744411 341.31326395 -172.68892956 337.63043404 C-172.339229 334.77947376 -171.97884169 331.92993952 -171.61541176 329.08069992 C-171.44389067 327.72325001 -171.27605879 326.3653284 -171.11208153 325.00694656 C-170.88194806 323.11105968 -170.63544157 321.21718215 -170.38827515 319.32344055 C-170.25281784 318.24853363 -170.11736053 317.17362671 -169.97779846 316.06614685 C-169.18686279 312.59163858 -167.86254216 309.6963892 -165.31332397 307.14717102 C-165.20856462 305.05478419 -165.17531433 302.95881211 -165.16856384 300.86381531 C-165.16327357 299.86772969 -165.16327357 299.86772969 -165.15787643 298.85152113 C-165.14713795 296.60940667 -165.14349936 294.36733461 -165.13973999 292.12519836 C-165.13343796 290.52379169 -165.12667256 288.92238679 -165.11947632 287.32098389 C-165.10477166 283.86152385 -165.09306033 280.40207073 -165.08352852 276.94259262 C-165.06808823 271.4607552 -165.04413326 265.97897577 -165.01863098 260.49717712 C-164.94741521 244.90463436 -164.88789212 229.31205689 -164.83651733 213.71943665 C-164.80809367 205.11567455 -164.77263758 196.51196868 -164.72986358 187.90826571 C-164.70325894 182.47237295 -164.68524982 177.03654383 -164.67382634 171.60059905 C-164.66461357 168.19426928 -164.6472105 164.7880156 -164.6276474 161.38173103 C-164.62025607 159.81741233 -164.61609601 158.25307397 -164.61565208 156.68873787 C-164.60149059 129.04565828 -158.11575723 104.27763647 -138.31332397 84.14717102 C-118.96750426 65.21006581 -94.68359887 58.885557 -68.14535522 58.83857727 C-66.18601242 58.81986265 -64.22666961 58.80113139 -62.26733685 58.781394 C-57.50435777 58.73641244 -52.74125411 58.71216496 -47.9781189 58.69087219 C-43.99201826 58.67200149 -40.0062861 58.62996147 -36.02035522 58.58857727 C-34.78920486 58.58846146 -33.5580545 58.58834564 -32.28959656 58.58822632 C-31.15378647 58.57488754 -30.01797638 58.56154877 -28.8477478 58.54780579 C-27.84850784 58.54273514 -26.84926788 58.53766449 -25.81974792 58.53244019 C-23.28735289 58.33677441 -23.28735289 58.33677441 -21.49147034 56.84004211 C-19.49905576 53.97715414 -19.89334422 50.69636166 -19.90707397 47.33076477 C-19.8908197 46.17412071 -19.8908197 46.17412071 -19.87423706 44.99411011 C-19.83996431 42.52421292 -19.82439959 40.05477454 -19.81332397 37.58467102 C-19.70246351 13.23151866 -19.70246351 13.23151866 -13.87582397 6.20967102 C-13.03019897 5.52904602 -12.18457397 4.84842102 -11.31332397 4.14717102 C-10.61207397 3.56967102 -9.91082397 2.99217102 -9.18832397 2.39717102 C-6.1418421 0.36618311 -3.5620031 0.01989703 0 0 Z " fill="#020101" transform="translate(291.3133239746094,26.852828979492188)"/>
<path d="M0 0 C57.42 0 114.84 0 174 0 C174 61.05 174 122.1 174 185 C116.58 185 59.16 185 0 185 C0 123.95 0 62.9 0 0 Z " fill="#FCCC00" transform="translate(208,232)"/>
<path d="M0 0 C1.875 1.125 1.875 1.125 3 3 C2.76533153 5.75735456 2.21937678 8.22427806 1.46801758 10.88110352 C-1.19537457 22.93930927 -0.03860936 37.77157584 5 49 C5.32742188 49.75410156 5.65484375 50.50820313 5.9921875 51.28515625 C8.47777512 56.28354596 11.90148948 60.48097923 15.375 64.8125 C25.85363619 77.90423187 34.14033 92.31954806 33.41796875 109.578125 C32.26194025 119.04243306 29.47297072 126.94992104 23 134 C22.47535156 134.60328125 21.95070313 135.2065625 21.41015625 135.828125 C11.31608421 146.75347357 -2.60191017 151.64543772 -17.1875 152.2734375 C-34.1964924 152.69238539 -46.93887813 150.26989789 -61 140 C-62.051875 139.2575 -63.10375 138.515 -64.1875 137.75 C-76.79430015 125.42335096 -83.16440452 109.33277987 -83.4375 91.8125 C-83.35891615 79.4453662 -81.07363674 60.07363674 -72 51 C-68.72698457 51.14679637 -67.27203123 51.76305407 -64.7890625 53.92578125 C-64.07492188 54.71339844 -63.36078125 55.50101562 -62.625 56.3125 C-58.97572805 60.15126513 -55.74063222 62.68011615 -51 65 C-51.04640625 64.20078125 -51.0928125 63.4015625 -51.140625 62.578125 C-51.6462986 47.19119974 -45.79151551 34.52008243 -35.875 22.875 C-28.57269134 15.15188033 -11.40218214 -1.43023887 0 0 Z " fill="#060400" transform="translate(320,248)"/>
<path d="M0 0 C57.09 0 114.18 0 173 0 C173 32.42861675 173 32.42861675 164.7109375 41.49609375 C159.19227376 46.34697397 152.76652577 48.1150757 145.56158447 48.14717102 C144.45697876 48.15432632 143.35237305 48.16148163 142.21429443 48.16885376 C141.00694641 48.17154266 139.79959839 48.17423157 138.55566406 48.17700195 C137.28045898 48.18357315 136.00525391 48.19014435 134.69140625 48.19691467 C130.46615853 48.21791088 126.24091064 48.22831289 122.015625 48.23828125 C120.55840791 48.24233046 119.10119101 48.24644744 117.6439743 48.25063133 C110.79678009 48.26967325 103.94959658 48.28390637 97.10238099 48.2922433 C89.2102638 48.30201236 81.31842732 48.32832715 73.42640901 48.36874419 C67.31839587 48.39894672 61.21046303 48.41371608 55.1023767 48.41702431 C51.45793799 48.41937008 47.81379952 48.42826826 44.16944122 48.45348549 C40.10008698 48.48118963 36.03135674 48.47692251 31.96191406 48.4699707 C30.76266296 48.48278076 29.56341187 48.49559082 28.32781982 48.50878906 C18.60006804 48.44825619 12.04649246 46.04649246 5 39 C0 30 0 30 0 0 Z " fill="#F15D61" transform="translate(209,427)"/>
<path d="M0 0 C2.04540559 -0.00015524 4.09081148 -0.00164838 6.13621521 -0.00440979 C10.40694302 -0.0057886 14.67733289 0.00667833 18.94799805 0.02954102 C24.4005485 0.05794184 29.85253895 0.05517629 35.30513096 0.0424509 C39.52354144 0.03547065 43.74182426 0.04330948 47.96021843 0.05570793 C49.96990404 0.06019836 51.97960347 0.06058048 53.98929024 0.05664253 C56.80507276 0.05370671 59.62010389 0.07034907 62.43579102 0.09204102 C63.25217545 0.08753937 64.06855988 0.08303772 64.90968323 0.07839966 C77.76654644 0.24158267 89.63377587 5.74906224 98.93359375 14.49609375 C108.1442908 24.99893895 111.67252864 34.62437756 112.93359375 48.49609375 C55.84359375 48.49609375 -1.24640625 48.49609375 -60.06640625 48.49609375 C-60.06640625 34.50956613 -55.31869715 24.02467176 -45.81640625 13.80859375 C-41.71731909 9.92524802 -37.14291488 6.94886282 -32.06640625 4.49609375 C-31.41956375 4.1661441 -30.77272125 3.83619446 -30.10627747 3.49624634 C-20.42597265 -0.7593321 -10.3594893 -0.06426442 0 0 Z " fill="#F05D61" transform="translate(269.06640625,173.50390625)"/>
<path d="M0 0 C0 6.6 0 13.2 0 20 C-4.33125 20.1546875 -4.33125 20.1546875 -8.75 20.3125 C-26.823457 21.20120757 -42.33224617 26.53612116 -55 40 C-62.37004195 48.18351236 -68.21676082 59.75586818 -68.2784729 70.88461304 C-68.28963638 72.03718597 -68.30079987 73.18975891 -68.31230164 74.3772583 C-68.31446182 75.62738708 -68.31662201 76.87751587 -68.31884766 78.16552734 C-68.3281541 79.50630289 -68.33832384 80.84707268 -68.34928894 82.18783569 C-68.37652237 85.8154517 -68.3917185 89.44302901 -68.40471697 93.0707202 C-68.42037674 96.86641583 -68.44715786 100.66203279 -68.4727478 104.45767212 C-68.51948528 111.63980081 -68.55625369 118.82194439 -68.58942068 126.00414717 C-68.62767767 134.18313946 -68.67707844 142.36205265 -68.72740483 150.54097819 C-68.83064984 167.36059623 -68.91953906 184.18025736 -69 201 C-75.93 201 -82.86 201 -90 201 C-90.04642876 184.01386438 -90.08205598 167.02775435 -90.10362434 150.04156971 C-90.11390803 142.1534235 -90.1279123 134.26531759 -90.15087891 126.37719727 C-90.17090231 119.49663139 -90.18373754 112.61609472 -90.18817699 105.73550051 C-90.19076932 102.09708103 -90.19680072 98.45874509 -90.21146011 94.82035255 C-90.22774655 90.74453759 -90.227974 86.66886504 -90.22705078 82.59301758 C-90.23783661 80.81167923 -90.23783661 80.81167923 -90.24884033 78.99435425 C-90.19473655 56.78594138 -83.46868363 38.53415768 -68.2421875 22.15234375 C-48.23990258 2.95154412 -26.47862875 -0.79435886 0 0 Z " fill="#5A5C6F" transform="translate(228,97)"/>
<path d="M0 0 C0.029729 0.89138672 0.029729 0.89138672 0.06005859 1.80078125 C0.15623993 4.53424419 0.26553557 7.26703803 0.375 10 C0.4059375 10.93457031 0.436875 11.86914062 0.46875 12.83203125 C1.11223024 28.16831031 6.49074868 41.03674834 16 53 C26.64753424 66.53500116 34.63293858 79.2285386 33 97 C31.23747423 105.20934822 26.23903005 111.52901244 20 117 C17.21484375 118.28125 17.21484375 118.28125 15 119 C14.87044922 117.58460938 14.87044922 117.58460938 14.73828125 116.140625 C13.77240695 107.31483785 11.99210272 100.02856214 8 92 C7.5565625 91.08734375 7.113125 90.1746875 6.65625 89.234375 C2.87900801 81.88973779 -1.91974833 75.48723587 -7 69 C-7.48726563 68.31035156 -7.97453125 67.62070312 -8.4765625 66.91015625 C-10.43073334 64.23105107 -11.49522926 63.09477615 -14.80859375 62.47265625 C-19.26641539 63.20926081 -20.87510772 65.70365594 -23.375 69.1875 C-23.84760254 69.82026855 -24.32020508 70.45303711 -24.80712891 71.10498047 C-34.84723755 84.75341242 -41.68547699 98.29264823 -45 115 C-53.86618038 108.0843793 -59.12699214 99.91128985 -62 89 C-62.51182033 84.48271796 -62.51668189 80.04146431 -62.4375 75.5 C-62.44458984 74.35402344 -62.45167969 73.20804687 -62.45898438 72.02734375 C-62.40396397 64.58689223 -61.34282762 58.06150556 -59 51 C-55.44270343 51 -54.58395849 51.77621165 -51.75 53.8125 C-45.13205418 58.33494116 -40.13916371 60.56132164 -32 60 C-30.78624927 59.01355913 -30.78624927 59.01355913 -30.93408203 57.11743164 C-30.95841309 56.30653076 -30.98274414 55.49562988 -31.0078125 54.66015625 C-31.02457031 53.76103516 -31.04132813 52.86191406 -31.05859375 51.93554688 C-31.10205706 50.05511953 -31.15381538 48.17486113 -31.21484375 46.29492188 C-31.35371106 37.37585351 -29.64180205 29.74115238 -24.625 22.25 C-24.06039062 21.38890625 -23.49578125 20.5278125 -22.9140625 19.640625 C-18.71915041 13.85335853 -14.45722705 9.46619029 -8.8125 5.125 C-8.18408203 4.62742187 -7.55566406 4.12984375 -6.90820312 3.6171875 C-2.26250215 0 -2.26250215 0 0 0 Z " fill="#EF9A1E" transform="translate(310,264)"/>
<path d="M0 0 C1.29349365 0.00523682 2.5869873 0.01047363 3.91967773 0.01586914 C4.9496714 0.01799156 4.9496714 0.01799156 6.00047302 0.02015686 C8.20144949 0.0257706 10.40232557 0.03832532 12.60327148 0.05102539 C14.09220231 0.05603863 15.58113473 0.06060184 17.07006836 0.06469727 C20.72700223 0.07574446 24.38387707 0.09301826 28.04077148 0.11352539 C30.08958771 14.53506299 32.08918843 28.95889542 33.79077148 43.42602539 C33.91814697 44.4848291 34.04552246 45.54363281 34.17675781 46.63452148 C34.29172607 47.63435059 34.40669434 48.63417969 34.52514648 49.66430664 C34.62537109 50.52709229 34.7255957 51.38987793 34.82885742 52.27880859 C35.09814685 55.88102002 35.04077148 59.50126239 35.04077148 63.11352539 C19.86077148 63.11352539 4.68077148 63.11352539 -10.95922852 63.11352539 C-9.81139568 45.89603286 -9.81139568 45.89603286 -8.80297852 38.90649414 C-8.69578491 38.13018143 -8.58859131 37.35386871 -8.47814941 36.55403137 C-8.14345041 34.13564224 -7.80180507 31.71830991 -7.45922852 29.30102539 C-7.00866946 26.08654609 -6.56143359 22.87161507 -6.11547852 19.65649414 C-6.00969482 18.90028778 -5.90391113 18.14408142 -5.79492188 17.36495972 C-5.22788068 13.26158449 -4.740805 9.16569883 -4.36547852 5.03930664 C-3.85931922 0.14805572 -3.85931922 0.14805572 0 0 Z " fill="#EE5C60" transform="translate(135.959228515625,342.886474609375)"/>
<path d="M0 0 C1.43421295 -0.00021904 1.43421295 -0.00021904 2.8973999 -0.0004425 C6.06817874 0.000256 9.23889935 0.00804549 12.40966797 0.01586914 C14.60399341 0.01773354 16.79831926 0.01915734 18.99264526 0.02015686 C24.77619571 0.02398029 30.55972117 0.03380911 36.34326172 0.04486084 C42.24169578 0.0550787 48.14013387 0.05965529 54.03857422 0.06469727 C65.6180123 0.07543151 77.19743181 0.09250586 88.77685547 0.11352539 C88.10102833 3.64255845 87.25356324 6.87939438 85.96435547 10.23852539 C85.64853516 11.08672852 85.33271484 11.93493164 85.00732422 12.80883789 C83.54013113 15.55691383 82.46172808 16.53375701 79.77685547 18.11352539 C76.68978882 18.49206543 76.68978882 18.49206543 73.02050781 18.49829102 C72.01495598 18.50635017 72.01495598 18.50635017 70.98908997 18.51457214 C69.53827161 18.52433271 68.087395 18.52729948 66.63654709 18.5242157 C64.34185666 18.51973451 62.04793609 18.53374336 59.75332642 18.5526123 C54.0578595 18.59561831 48.36240995 18.60666506 42.66680908 18.61883545 C37.84817765 18.63034426 33.02989857 18.65383921 28.21141434 18.69352722 C25.9477911 18.70714009 23.68463838 18.70292004 21.42098999 18.69812012 C20.03879181 18.70745614 18.65659891 18.7176238 17.27441406 18.72875977 C16.06514252 18.73081421 14.85587097 18.73286865 13.60995483 18.73498535 C12.67503204 18.85990356 11.74010925 18.98482178 10.77685547 19.11352539 C8.29641232 22.83419011 8.33304374 25.97893013 8.15185547 30.30102539 C8.11318359 31.05061523 8.07451172 31.80020508 8.03466797 32.57250977 C7.94057331 34.41911738 7.85763228 36.26628729 7.77685547 38.11352539 C6.92220703 37.95110352 6.06755859 37.78868164 5.18701172 37.62133789 C1.80630911 37.11791138 -1.37042799 36.98046112 -4.78564453 36.98852539 C-5.88005859 36.98594727 -6.97447266 36.98336914 -8.10205078 36.98071289 C-10.93669681 37.10133613 -13.45798579 37.52364829 -16.22314453 38.11352539 C-16.34733211 33.80861076 -16.43775455 29.50466189 -16.49780273 25.19848633 C-16.52284982 23.73573632 -16.55689846 22.27311027 -16.6003418 20.81079102 C-16.66143809 18.7004532 -16.68944888 16.59177787 -16.71142578 14.48071289 C-16.73760986 13.21340332 -16.76379395 11.94609375 -16.79077148 10.64038086 C-16.04170068 5.98615425 -14.5198785 4.41987625 -11.22314453 1.11352539 C-7.774363 -0.61086538 -3.79503385 -0.01500711 0 0 Z " fill="#ADB7BD" transform="translate(299.22314453125,36.886474609375)"/>
<path d="M0 0 C2.8125 2.375 2.8125 2.375 5 5 C5.721875 5.804375 6.44375 6.60875 7.1875 7.4375 C11.40856135 13.40520743 11.93516225 19.8850542 11 27 C8.82915936 33.5777403 5.72279511 38.14587268 0 42 C-0.86625 42.598125 -1.7325 43.19625 -2.625 43.8125 C-8.96903369 46.04466 -16.04088385 45.93661352 -22.4375 43.8125 C-26.14768167 41.92486371 -28.30399837 40.14533524 -31 37 C-31.721875 36.195625 -32.44375 35.39125 -33.1875 34.5625 C-37.44123371 28.54860062 -37.78634975 22.15884645 -37 15 C-35.13464824 7.92668627 -29.78722647 3.15743419 -24 -1 C-16.3186409 -4.72612239 -7.53219442 -3.75115238 0 0 Z " fill="#808A91" transform="translate(308,86)"/>
<path d="M0 0 C4.462438 1.51147094 6.43168159 5.04124015 8.875 8.8125 C9.53036743 9.80987183 9.53036743 9.80987183 10.19897461 10.82739258 C15.82111567 19.57814236 21.11392369 28.82779615 21.1875 39.4375 C21.20167969 40.36433594 21.21585937 41.29117188 21.23046875 42.24609375 C20.97777939 45.26551747 20.48040985 47.35207449 19 50 C14.18603736 51.7131611 8.85131214 51.22459956 3.8125 51.25 C2.80896484 51.270625 1.80542969 51.29125 0.77148438 51.3125 C-5.4563416 51.34491549 -11.40804721 51.00714814 -17 48 C-19.91516832 43.62724753 -19.62428011 40.13520735 -19 35 C-15.8744707 21.97431699 -8.49979221 10.22723266 0 0 Z " fill="#F16F16" transform="translate(294,339)"/>
<path d="M0 0 C9.23018843 0.55234888 18.26102035 1.86582906 27.36450195 3.41918945 C29.69230415 3.8133134 32.02262969 4.18905601 34.35351562 4.56445312 C53.37891856 7.7236482 53.37891856 7.7236482 57.71875 13.1484375 C57.9765625 13.88320312 58.234375 14.61796875 58.5 15.375 C58.78359375 16.15488281 59.0671875 16.93476562 59.359375 17.73828125 C60.13555751 20.47858413 60.70928198 23.1654993 61 26 C52.41656171 25.29227194 43.93802326 23.97520963 35.4375 22.625 C34.00912306 22.40009264 32.5807376 22.17523939 31.15234375 21.95043945 C21.41469757 20.41182874 11.6938923 18.79570595 2 17 C1.93941406 16.10796875 1.87882812 15.2159375 1.81640625 14.296875 C1.73261719 13.12640625 1.64882813 11.9559375 1.5625 10.75 C1.48128906 9.58984375 1.40007812 8.4296875 1.31640625 7.234375 C1.0659662 4.67432116 0.6585193 2.46534629 0 0 Z " fill="#A9B3B9" transform="translate(327,95)"/>
<path d="M0 0 C2.97 0.99 5.94 1.98 9 3 C13.03530795 3.4665438 13.03530795 3.4665438 17 3.375 C18.299375 3.38273438 19.59875 3.39046875 20.9375 3.3984375 C25.9281691 3.06080713 25.9281691 3.06080713 34 0 C34 8.91 34 17.82 34 27 C22.78 27 11.56 27 0 27 C0 18.09 0 9.18 0 0 Z " fill="#585A6C" transform="translate(278,137)"/>
<path d="M0 0 C6.6 0 13.2 0 20 0 C20 8.25 20 16.5 20 25 C13.4 25 6.8 25 0 25 C0 16.75 0 8.5 0 0 Z " fill="#ADB7BD" transform="translate(138,308)"/>
<path d="M0 0 C7.92 0 15.84 0 24 0 C23.9375 7.6875 23.9375 7.6875 23.90991211 10.08081055 C23.89473569 13.95275691 24.23266023 17.16330116 25 21 C16.75 21 8.5 21 0 21 C0 14.07 0 7.14 0 0 Z " fill="#A8B1B7" transform="translate(238,97)"/>
</svg>
