<?xml version="1.0" encoding="UTF-8"?>
<svg version="1.1" xmlns="http://www.w3.org/2000/svg" width="512" height="512">
<path d="M0 0 C1.33804688 1.19882813 1.33804688 1.19882813 2.703125 2.421875 C14.77518118 13.81951463 21.6497646 26.93700031 28.39819336 41.95141602 C43.67613484 75.83176735 64.9465287 106.6436294 91.56079102 132.59350586 C93.72647469 134.7099611 95.86590352 136.85174699 98 139 C98.64582031 139.64839844 99.29164063 140.29679688 99.95703125 140.96484375 C107.96308836 149.47654657 113.24508412 159.41445243 117.375 170.25 C117.73295654 171.18694702 117.73295654 171.18694702 118.09814453 172.14282227 C126.2345765 194.70774258 123.61103451 221.11770209 113.75 242.6640625 C101.75961067 265.52074217 81.85764595 282.2038718 57.625 290.8125 C36.51839654 297.3203694 16.15769617 297.56878563 -5.28613281 292.22216797 C-23.82564394 287.60948297 -41.73784859 285.73090817 -60.8125 285.6875 C-61.58174805 285.68382416 -62.35099609 285.68014832 -63.14355469 285.67636108 C-79.45299377 285.63564845 -94.96047057 287.28344014 -110.80441284 291.1446228 C-139.22185186 297.94267918 -166.65519605 297.28700689 -193 284 C-194.06992188 283.46503906 -195.13984375 282.93007813 -196.2421875 282.37890625 C-204.28854946 278.02133101 -210.50491325 272.33412979 -217 266 C-217.65742188 265.41605469 -218.31484375 264.83210938 -218.9921875 264.23046875 C-233.20021943 251.29919545 -242.03546084 229.42694573 -243.14233398 210.57592773 C-244.02283277 186.18409505 -239.66508348 161.909431 -223 143 C-218.49027522 138.27004347 -213.85693327 133.66956226 -209.15795898 129.12841797 C-202.93522124 123.09401644 -197.34667746 116.82000728 -192 110 C-191.43603516 109.29488281 -190.87207031 108.58976563 -190.29101562 107.86328125 C-174.45047976 87.98807941 -161.3301139 66.4881708 -150.41796875 43.546875 C-150.11258682 42.90624619 -149.8072049 42.26561737 -149.49256897 41.60557556 C-147.99922447 38.46574388 -146.52173621 35.31994343 -145.07055664 32.16040039 C-134.57976374 9.78843112 -117.14806791 -7.9854105 -94 -17 C-61.7574967 -28.15569083 -25.6760138 -23.32657463 0 0 Z " fill="#FEC498" transform="translate(317,195)"/>
<path d="M0 0 C1.46657043 -0.00472824 1.46657043 -0.00472824 2.96276855 -0.009552 C4.0262854 -0.00752777 5.08980225 -0.00550354 6.18554688 -0.00341797 C7.81127625 -0.00485306 7.81127625 -0.00485306 9.46984863 -0.00631714 C11.76652077 -0.00699912 14.06319482 -0.00514358 16.35986328 -0.00097656 C19.88904115 0.00437141 23.41809174 -0.00092097 26.94726562 -0.00732422 C29.17252632 -0.00666344 31.39778694 -0.00538228 33.62304688 -0.00341797 C34.68656372 -0.0054422 35.75008057 -0.00746643 36.8458252 -0.009552 C37.82353882 -0.00639984 38.80125244 -0.00324768 39.80859375 0 C40.67383667 0.00079559 41.53907959 0.00159119 42.43054199 0.00241089 C44.40429688 0.12939453 44.40429688 0.12939453 45.40429688 1.12939453 C45.49763393 2.72550435 45.5217506 4.32572881 45.51782227 5.92456055 C45.51770897 7.45603477 45.51770897 7.45603477 45.51759338 9.01844788 C45.5124321 10.12884933 45.50727081 11.23925079 45.50195312 12.38330078 C45.50053818 13.51388412 45.49912323 14.64446747 45.49766541 15.80931091 C45.49204706 19.43686518 45.47949145 23.06435877 45.46679688 26.69189453 C45.46178424 29.1443676 45.45722092 31.59684163 45.453125 34.04931641 C45.44207168 40.07602998 45.42531571 46.10270792 45.40429688 52.12939453 C46.04100815 52.12717392 46.67771942 52.12495331 47.33372498 52.12266541 C53.93544964 52.10061413 60.53716391 52.0854886 67.13891602 52.07446289 C69.60571721 52.06942097 72.0725154 52.06258763 74.53930664 52.05395508 C78.07634216 52.04188328 81.61333833 52.03616497 85.15039062 52.03173828 C86.26079208 52.026577 87.37119354 52.02141571 88.51524353 52.01609802 C90.04671776 52.01598473 90.04671776 52.01598473 91.60913086 52.01586914 C92.51291977 52.01364853 93.41670868 52.01142792 94.34788513 52.00914001 C96.40429688 52.12939453 96.40429688 52.12939453 97.40429688 53.12939453 C97.50260834 54.62809501 97.53228144 56.13137992 97.53369141 57.63330078 C97.53684357 58.59099365 97.53999573 59.54868652 97.54324341 60.53540039 C97.54020706 62.09786499 97.54020706 62.09786499 97.53710938 63.69189453 C97.5380661 64.75351807 97.53902283 65.8151416 97.54000854 66.90893555 C97.54069052 69.15852925 97.53883506 71.4081249 97.53466797 73.65771484 C97.52931997 77.11446525 97.53461242 80.5710857 97.54101562 84.02783203 C97.54035485 86.20751982 97.53907369 88.38720753 97.53710938 90.56689453 C97.53913361 91.6085376 97.54115784 92.65018066 97.54324341 93.72338867 C97.53851517 95.15992798 97.53851517 95.15992798 97.53369141 96.62548828 C97.53289581 97.47296631 97.53210022 98.32044434 97.53128052 99.19360352 C97.40429688 101.12939453 97.40429688 101.12939453 96.40429688 102.12939453 C94.80818706 102.22273159 93.20796259 102.24684826 91.60913086 102.24291992 C90.58814804 102.24284439 89.56716522 102.24276886 88.51524353 102.24269104 C87.40484207 102.23752975 86.29444061 102.23236847 85.15039062 102.22705078 C84.01980728 102.22563583 82.88922394 102.22422089 81.72438049 102.22276306 C78.09682622 102.21714472 74.46933264 102.20458911 70.84179688 102.19189453 C68.38932381 102.18688189 65.93684977 102.18231858 63.484375 102.17822266 C57.45766142 102.16716933 51.43098348 102.15041337 45.40429688 102.12939453 C45.40651749 102.7661058 45.4087381 103.40281708 45.411026 104.05882263 C45.43307728 110.66054729 45.44820281 117.26226157 45.45922852 123.86401367 C45.46427044 126.33081487 45.47110378 128.79761305 45.47973633 131.2644043 C45.49180812 134.80143982 45.49752643 138.33843599 45.50195312 141.87548828 C45.50711441 142.98588974 45.5122757 144.0962912 45.51759338 145.24034119 C45.51766891 146.26132401 45.51774445 147.28230682 45.51782227 148.33422852 C45.52004288 149.23801743 45.52226349 150.14180634 45.52455139 151.07298279 C45.40429688 153.12939453 45.40429688 153.12939453 44.40429688 154.12939453 C42.87495057 154.22778667 41.34110122 154.25737992 39.80859375 154.25878906 C38.34202332 154.2635173 38.34202332 154.2635173 36.8458252 154.26834106 C35.78230835 154.26631683 34.7187915 154.2642926 33.62304688 154.26220703 C31.9973175 154.26364212 31.9973175 154.26364212 30.33874512 154.2651062 C28.04207298 154.26578818 25.74539893 154.26393264 23.44873047 154.25976562 C19.9195526 154.25441765 16.39050201 154.25971003 12.86132812 154.26611328 C10.63606743 154.2654525 8.41080681 154.26417135 6.18554688 154.26220703 C5.12203003 154.26423126 4.05851318 154.26625549 2.96276855 154.26834106 C1.98505493 154.2651889 1.00734131 154.26203674 0 154.25878906 C-0.86524292 154.25799347 -1.73048584 154.25719788 -2.62194824 154.25637817 C-4.59570312 154.12939453 -4.59570312 154.12939453 -5.59570312 153.12939453 C-5.68904018 151.53328472 -5.71315685 149.93306025 -5.70922852 148.33422852 C-5.70915298 147.3132457 -5.70907745 146.29226288 -5.70899963 145.24034119 C-5.70383835 144.12993973 -5.69867706 143.01953827 -5.69335938 141.87548828 C-5.69194443 140.74490494 -5.69052948 139.61432159 -5.68907166 138.44947815 C-5.68345331 134.82192388 -5.6708977 131.19443029 -5.65820312 127.56689453 C-5.65319049 125.11442146 -5.64862717 122.66194743 -5.64453125 120.20947266 C-5.63347793 114.18275908 -5.61672196 108.15608114 -5.59570312 102.12939453 C-6.2324144 102.13161514 -6.86912567 102.13383575 -7.52513123 102.13612366 C-14.12685589 102.15817493 -20.72857016 102.17330047 -27.33032227 102.18432617 C-29.79712346 102.18936809 -32.26392165 102.19620144 -34.73071289 102.20483398 C-38.26774841 102.21690578 -41.80474458 102.22262409 -45.34179688 102.22705078 C-46.45219833 102.23221207 -47.56259979 102.23737335 -48.70664978 102.24269104 C-50.23812401 102.24280434 -50.23812401 102.24280434 -51.80053711 102.24291992 C-53.15622047 102.24625084 -53.15622047 102.24625084 -54.53929138 102.24964905 C-56.59570312 102.12939453 -56.59570312 102.12939453 -57.59570312 101.12939453 C-57.69401459 99.63069405 -57.72368769 98.12740915 -57.72509766 96.62548828 C-57.7298259 95.18894897 -57.7298259 95.18894897 -57.73464966 93.72338867 C-57.73262543 92.68174561 -57.7306012 91.64010254 -57.72851562 90.56689453 C-57.72947235 89.505271 -57.73042908 88.44364746 -57.73141479 87.34985352 C-57.73209677 85.10025982 -57.73024131 82.85066416 -57.72607422 80.60107422 C-57.72072622 77.14432382 -57.72601867 73.68770336 -57.73242188 70.23095703 C-57.7317611 68.05126924 -57.73047994 65.87158154 -57.72851562 63.69189453 C-57.73053986 62.65025146 -57.73256409 61.6086084 -57.73464966 60.53540039 C-57.7314975 59.57770752 -57.72834534 58.62001465 -57.72509766 57.63330078 C-57.72430206 56.78582275 -57.72350647 55.93834473 -57.72268677 55.06518555 C-57.59570312 53.12939453 -57.59570312 53.12939453 -56.59570312 52.12939453 C-54.99959331 52.03605748 -53.39936884 52.01194081 -51.80053711 52.01586914 C-50.77955429 52.01594467 -49.75857147 52.0160202 -48.70664978 52.01609802 C-47.59624832 52.02125931 -46.48584686 52.02642059 -45.34179688 52.03173828 C-43.64592186 52.0338607 -43.64592186 52.0338607 -41.91578674 52.036026 C-38.28823247 52.04164434 -34.66073889 52.05419995 -31.03320312 52.06689453 C-28.58073006 52.07190717 -26.12825602 52.07647048 -23.67578125 52.08056641 C-17.64906767 52.09161973 -11.62238973 52.10837569 -5.59570312 52.12939453 C-5.59792374 51.49268326 -5.60014435 50.85597198 -5.60243225 50.19996643 C-5.62448353 43.59824177 -5.63960906 36.99652749 -5.65063477 30.39477539 C-5.65567669 27.9279742 -5.66251003 25.46117601 -5.67114258 22.99438477 C-5.68321437 19.45734924 -5.68893268 15.92035308 -5.69335938 12.38330078 C-5.69852066 11.27289932 -5.70368195 10.16249786 -5.70899963 9.01844788 C-5.70907516 7.99746506 -5.7091507 6.97648224 -5.70922852 5.92456055 C-5.71144913 5.02077164 -5.71366974 4.11698273 -5.71595764 3.18580627 C-5.48819387 -0.70906698 -3.39087149 0.00311792 0 0 Z " fill="#FF6248" transform="translate(236.595703125,268.87060546875)"/>
<path d="M0 0 C10.04552923 11.1891051 13.58081698 24.43331727 13.4375 39.25 C13.43065186 40.34465576 13.42380371 41.43931152 13.41674805 42.56713867 C13.24473694 51.28558916 12.04692845 58.78131141 9 67 C8.649375 68.01578125 8.29875 69.0315625 7.9375 70.078125 C3.20943495 82.62063089 -4.59129618 93.54168966 -14 103 C-14.99193359 104.04414063 -14.99193359 104.04414063 -16.00390625 105.109375 C-27.42541105 116.29248027 -43.23575064 121.81562281 -59 122 C-70.82645146 121.14962932 -79.6573622 116.37254419 -87.73828125 107.796875 C-98.60441795 94.35964897 -100.24009194 77.64598776 -99 61 C-96.11844774 38.86342409 -84.7155052 17.55562962 -67.69140625 3.0625 C-47.54809857 -12.37388092 -20.27304651 -19.44153484 0 0 Z " fill="#FEC498" transform="translate(499,170)"/>
<path d="M0 0 C18.63383431 14.94107966 30.88145024 36.16957258 34 60 C35.0198252 76.72313369 33.68039827 93.26569057 22.73828125 106.796875 C14.63847492 115.39258784 5.83800372 120.11135629 -6 121 C-24.26098418 121.1803554 -39.39967733 113.34007828 -52.25 100.8125 C-71.17894476 81.45335195 -78.57934468 58.78956331 -78.28125 32.21875 C-78.07195569 25.21157659 -76.96788917 19.41102856 -74 13 C-73.62617187 12.17886719 -73.25234375 11.35773438 -72.8671875 10.51171875 C-68.17751706 1.27213626 -61.55132021 -5.79846297 -52 -10 C-33.37789935 -16.04556348 -15.43744442 -11.70580318 0 0 Z " fill="#FEC498" transform="translate(78,171)"/>
<path d="M0 0 C14.91324824 10.95359791 22.33419113 26.31156969 25.58984375 44.25 C28.36021006 69.57906341 24.12826194 95.59509322 8 116 C0.59156167 124.69835132 -7.13079016 130.37693005 -18 134 C-26.70367365 134.63659963 -34.43211221 134.79150292 -42 130 C-43.02673828 129.36384766 -43.02673828 129.36384766 -44.07421875 128.71484375 C-57.78602797 119.33857802 -63.6442316 103.60862532 -67 88 C-71.20816161 63.78216926 -66.33682092 38.33646625 -52.28125 18.125 C-39.91172658 1.18044737 -20.58959012 -10.95565922 0 0 Z " fill="#FEC499" transform="translate(360,25)"/>
<path d="M0 0 C17.11772761 11.58034737 25.87375709 30.97812957 30.24609375 50.55859375 C33.97468179 72.80154997 31.66423044 97.12106487 18.5 116 C12.41979471 123.77620184 5.83348015 128.80550662 -3.5625 131.9375 C-14.80119895 132.91235617 -24.00810688 131.89096377 -33.28125 124.8828125 C-35.8305619 122.66368256 -38.21218788 120.36547461 -40.5625 117.9375 C-41.21089844 117.27492188 -41.85929687 116.61234375 -42.52734375 115.9296875 C-58.72143197 98.42448054 -63.38470242 74.59630442 -62.84765625 51.4765625 C-62.07292976 32.42282904 -55.60472319 15.04065937 -41.74609375 1.6953125 C-28.8875527 -8.65592806 -13.81080532 -8.15568448 0 0 Z " fill="#FEC598" transform="translate(188.5625,27.0625)"/>
<path d="M0 0 C1.33804688 1.19882813 1.33804688 1.19882813 2.703125 2.421875 C14.77518118 13.81951463 21.6497646 26.93700031 28.39819336 41.95141602 C43.67613484 75.83176735 64.9465287 106.6436294 91.56079102 132.59350586 C93.72647469 134.7099611 95.86590352 136.85174699 98 139 C98.64582031 139.64839844 99.29164063 140.29679688 99.95703125 140.96484375 C107.96308836 149.47654657 113.24508412 159.41445243 117.375 170.25 C117.6136377 170.87463135 117.85227539 171.4992627 118.09814453 172.14282227 C126.2345765 194.70774258 123.61103451 221.11770209 113.75 242.6640625 C101.75961067 265.52074217 81.85764595 282.2038718 57.625 290.8125 C44.48812283 294.87149336 31.73253831 296.53970675 18 296 C19.43033759 293.13932481 21.15899312 293.00603729 24.125 291.875 C52.0130878 280.54133399 75.41220933 262.00697669 88.53125 234.53125 C96.00607397 216.5598647 98.20570785 196.37231721 91 178 C85.99103825 165.95181687 78.64399722 157.33426863 69.0625 148.7355957 C62.75424007 143.00287386 57.38959512 136.58491126 52 130 C51.01308507 128.81505066 50.02610583 127.63015489 49.0390625 126.4453125 C29.29978737 102.50398406 13.66279987 75.59315593 0.48046875 47.578125 C-8.19858135 28.85407137 -8.19858135 28.85407137 -20 12 C-20.42845215 11.48244141 -20.8569043 10.96488281 -21.29833984 10.43164062 C-34.84967587 -5.80425412 -51.65451328 -16.24131248 -72.9296875 -18.3984375 C-76.28632119 -18.64832773 -79.63741983 -18.85380086 -83 -19 C-59.99780414 -34.33479724 -17.78210075 -16.15498042 0 0 Z " fill="#F7AA74" transform="translate(317,195)"/>
<path d="M0 0 C14.91324824 10.95359791 22.33419113 26.31156969 25.58984375 44.25 C28.36021006 69.57906341 24.12826194 95.59509322 8 116 C0.59156167 124.69835132 -7.13079016 130.37693005 -18 134 C-20.43526603 134.12162188 -22.87422867 134.17544129 -25.3125 134.1875 C-26.60800781 134.20167969 -27.90351563 134.21585938 -29.23828125 134.23046875 C-32.8662588 134.00819391 -35.6332728 133.32059222 -39 132 C-39 131.01 -39 130.02 -39 129 C-37.42578125 127.5703125 -37.42578125 127.5703125 -35.3125 126.125 C-31.85951979 123.65511785 -28.89721758 121.12594528 -26 118 C-25.55269531 117.55785156 -25.10539062 117.11570312 -24.64453125 116.66015625 C-7.31985179 98.40653956 -5.31345383 72.83647368 -5.87695312 49.06298828 C-6.46939151 34.31550408 -12.41472854 17.74170404 -23 7 C-25.09920938 5.30536552 -27.22024932 3.72874671 -29.4609375 2.2265625 C-29.96882813 1.82179688 -30.47671875 1.41703125 -31 1 C-31 0.34 -31 -0.32 -31 -1 C-20.03056485 -4.92098958 -10.55965432 -5.61876043 0 0 Z " fill="#F7AA74" transform="translate(360,25)"/>
<path d="M0 0 C-1.14371389 3.43114167 -1.71673874 3.68167467 -4.625 5.5625 C-16.46067485 14.18563453 -22.48792243 30.01991684 -25 44 C-25.4734158 49.14727047 -25.58458927 54.27175538 -25.5625 59.4375 C-25.5620166 60.13632294 -25.5615332 60.83514587 -25.56103516 61.55514526 C-25.46261812 82.11288161 -20.14285922 103.52295708 -5.25 118.58203125 C-4 120 -4 120 -4 122 C-3.42765625 122.26941406 -2.8553125 122.53882813 -2.265625 122.81640625 C0.0648076 124.03385639 2.12492458 125.39091733 4.25 126.9375 C4.95640625 127.44152344 5.6628125 127.94554687 6.390625 128.46484375 C6.92171875 128.97144531 7.4528125 129.47804687 8 130 C8 130.99 8 131.98 8 133 C-0.8065373 136.35294769 -10.47203301 136.37910469 -19.3125 133.0625 C-25.53452586 130.10201996 -30.23850572 125.91883061 -35 121 C-35.64839844 120.33742188 -36.29679687 119.67484375 -36.96484375 118.9921875 C-53.15893197 101.48698054 -57.82220242 77.65880442 -57.28515625 54.5390625 C-56.51042976 35.48532904 -50.04222319 18.10315937 -36.18359375 4.7578125 C-24.992163 -4.25138936 -13.11211939 -4.68688523 0 0 Z " fill="#F7AA74" transform="translate(183,24)"/>
<path d="M0 0 C12.54271935 1.01124655 22.74468913 4.51889098 31.31640625 14.06640625 C40.03892348 25.16580943 43.13920887 37.37906184 43.00390625 51.3671875 C42.99705811 52.46184326 42.99020996 53.55649902 42.9831543 54.68432617 C42.81114319 63.40277666 41.6133347 70.89849891 38.56640625 79.1171875 C38.21578125 80.13296875 37.86515625 81.14875 37.50390625 82.1953125 C32.7758412 94.73781839 24.97511007 105.65887716 15.56640625 115.1171875 C14.90511719 115.81328125 14.24382812 116.509375 13.5625 117.2265625 C2.02216911 128.52601361 -13.57230444 133.67936019 -29.43359375 134.1171875 C-31.86027511 133.95092222 -34.04918162 133.6162505 -36.43359375 133.1171875 C-36.43359375 132.4571875 -36.43359375 131.7971875 -36.43359375 131.1171875 C-34.66796875 129.9609375 -34.66796875 129.9609375 -32.18359375 128.6171875 C-10.97632522 116.18637332 2.75200377 95.26080781 9.5 71.8828125 C14.67243497 51.98502437 14.30575972 31.50566283 4.484375 13.203125 C1.92208801 9.08050438 -0.96808798 5.50895911 -4.43359375 2.1171875 C-2.43359375 0.1171875 -2.43359375 0.1171875 0 0 Z " fill="#F7AA74" transform="translate(469.43359375,157.8828125)"/>
<path d="M0 0 C-0.36351562 0.46148437 -0.72703125 0.92296875 -1.1015625 1.3984375 C-15.36639935 19.9061489 -18.90526368 37.89077121 -16.60546875 60.95703125 C-13.90269106 77.05163644 -6.44744042 91.84702641 3 105 C3.64710937 105.91265625 4.29421875 106.8253125 4.9609375 107.765625 C11.75784689 116.80967586 20.31176066 123.41124104 30.19921875 128.80859375 C31.09060547 129.39833984 31.09060547 129.39833984 32 130 C32 130.66 32 131.32 32 132 C16.24265911 134.06745253 2.30713377 130.97379016 -10.78125 121.7265625 C-25.76947253 110.06319215 -36.64446232 96.02620474 -43 78 C-43.39316406 76.94167969 -43.78632812 75.88335937 -44.19140625 74.79296875 C-49.12365952 59.48064239 -49.85787561 39.81390777 -43 25 C-42.62617187 24.17886719 -42.25234375 23.35773438 -41.8671875 22.51171875 C-37.18663004 13.29009065 -30.55262403 6.16794707 -21 2 C-13.70235141 -0.22667674 -7.56489226 -1.39378574 0 0 Z " fill="#F7AA74" transform="translate(47,159)"/>
</svg>
