<?xml version="1.0" encoding="UTF-8"?>
<svg version="1.1" xmlns="http://www.w3.org/2000/svg" width="512" height="512">
<path d="M0 0 C4.86991651 3.77784149 9.6554916 8.08292528 13.51953125 12.890625 C14.99116543 14.236066 14.99116543 14.236066 17.2421875 13.9140625 C20.73827602 12.75530228 23.88754874 11.10300923 27.125 9.375 C54.20120927 -4.55143489 83.88188344 -10.66324216 114.1875 -10.4375 C115.07597626 -10.43412628 115.96445251 -10.43075256 116.87985229 -10.42727661 C131.5399769 -10.34706087 145.69707235 -9.44548188 160 -6 C161.50336914 -5.63793457 161.50336914 -5.63793457 163.03710938 -5.26855469 C178.46994503 -1.4079177 193.45951955 3.96974877 207.3046875 11.890625 C209.88187595 13.27523133 209.88187595 13.27523133 212.18359375 12.38671875 C214.02802283 10.97860623 215.51588942 9.54106476 217.0625 7.8125 C227.27874777 -2.64285144 242.74817545 -9.7972829 257.390625 -10.30078125 C259.34365631 -10.3203066 261.29690326 -10.32370905 263.25 -10.3125 C264.78297729 -10.30404053 264.78297729 -10.30404053 266.34692383 -10.29541016 C284.76293415 -9.99892222 298.83204943 -2.72805705 312.125 9.75 C325.04838028 23.11015456 330.44274477 40.06820725 330.36352539 58.26000977 C329.99167612 76.25255639 322.75765246 91.41503996 310 104 C308.93458984 105.08087891 308.93458984 105.08087891 307.84765625 106.18359375 C302.6733016 111.13338328 294.51089665 118 287 118 C287.33 118.99 287.66 119.98 288 121 C291.91362232 156.34119553 282.08426864 191.18750303 260.36914062 219.30810547 C257.16005947 223.27367829 253.67383769 226.98467881 250.15234375 230.671875 C247.98333334 232.80100516 247.98333334 232.80100516 247 235 C247.75337646 235.42128174 247.75337646 235.42128174 248.52197266 235.85107422 C266.88997142 246.17182119 283.19663037 257.77194241 298.7890625 272.01171875 C300.55080083 273.5960382 302.33088787 275.09390998 304.1875 276.5625 C307.11061949 279.09587022 309.52931479 281.77601698 312.02734375 284.71875 C314.22109537 287.25568257 316.51583542 289.6809751 318.8125 292.125 C337.53695782 312.75027399 351.98429477 338.62178964 351.25 367.06640625 C350.29770469 382.05017778 343.6546995 395.18064333 332.53125 405.23046875 C320.68184652 414.51831001 306.97588901 418.01669091 292.078125 416.63671875 C282.79038997 415.39519499 282.79038997 415.39519499 280 414 C280.03480469 415.06476563 280.06960938 416.12953125 280.10546875 417.2265625 C280.64610836 440.90493068 273.18315629 461.54316937 257 479 C238.71786795 496.730516 217.55646901 502.57414637 192.546875 502.26953125 C178.59909626 501.86711523 164.08410343 496.95111312 152.88720703 488.38330078 C147.82567279 484.54447792 144.68572563 483.38062342 138.35375977 484.18457031 C137.45326904 484.32991211 136.55277832 484.47525391 135.625 484.625 C133.6687723 484.86852335 131.71170667 485.10539911 129.75390625 485.3359375 C128.29815186 485.51527832 128.29815186 485.51527832 126.81298828 485.69824219 C122.7235355 486.13693023 118.67297353 486.2566014 114.5625 486.25 C113.43183105 486.25302124 113.43183105 486.25302124 112.27832031 486.25610352 C107.81016826 486.20692574 103.45409588 485.85254084 99.01953125 485.30078125 C97.48800415 485.12144043 97.48800415 485.12144043 95.92553711 484.93847656 C93.94622805 484.69452811 91.97077183 484.41588087 90.00219727 484.09667969 C85.91663986 483.58928273 83.17237899 483.33025077 79.5234375 485.41479492 C77.26567463 487.19772204 75.13872601 489.07736288 73 491 C55.05316999 501.9291593 33.11680064 504.83814794 12.515625 501.38671875 C-0.29551295 498.2664094 -13.2394381 491.92343342 -23 483 C-23.89203125 482.19949219 -24.7840625 481.39898437 -25.703125 480.57421875 C-42.35227533 464.8576028 -49.91135221 444.4953553 -50.984375 421.98046875 C-50.99944986 418.14014704 -50.65012592 414.7677752 -50 411 C-50.66902344 411.26554687 -51.33804688 411.53109375 -52.02734375 411.8046875 C-67.85013042 417.62407481 -84.91021052 419.15758812 -100.6875 412.203125 C-104.68637984 410.1226267 -108.38309856 407.68415691 -112 405 C-112.81726563 404.40316406 -113.63453125 403.80632812 -114.4765625 403.19140625 C-123.78985376 395.10354805 -129.38494648 383.06803883 -131 371 C-132.50093424 344.44500958 -122.13590705 321.56594699 -106 301 C-105.27039063 300.06542969 -104.54078125 299.13085938 -103.7890625 298.16796875 C-97.7790273 290.78339869 -91.20816156 284.00250034 -84.5 277.25 C-83.63415283 276.3748877 -82.76830566 275.49977539 -81.8762207 274.59814453 C-67.82403424 260.61338318 -51.89242757 249.19045553 -34.75 239.3125 C-33.85684082 238.79518311 -32.96368164 238.27786621 -32.04345703 237.74487305 C-31.19895996 237.26832275 -30.35446289 236.79177246 -29.484375 236.30078125 C-28.73897461 235.87966064 -27.99357422 235.45854004 -27.22558594 235.0246582 C-24.82531643 233.91957581 -22.60158907 233.41747893 -20 233 C-20.53367187 232.36835938 -21.06734375 231.73671875 -21.6171875 231.0859375 C-44.68665486 203.38661164 -59.24327024 173.95656244 -59.125 137.3125 C-59.12886719 136.10271484 -59.13273437 134.89292969 -59.13671875 133.64648438 C-59.13542969 132.48052734 -59.13414063 131.31457031 -59.1328125 130.11328125 C-59.13168457 129.05923096 -59.13055664 128.00518066 -59.12939453 126.91918945 C-59.00757662 124.1709314 -58.62105749 121.6751111 -58 119 C-58.85658203 118.83177734 -58.85658203 118.83177734 -59.73046875 118.66015625 C-74.83450267 114.98620205 -86.65876484 103.38748244 -94.83886719 90.64379883 C-104.42127125 74.80586317 -106.31520726 56.16230072 -101.96484375 38.33984375 C-97.09895149 21.49637053 -86.93897293 7.78747315 -71.96875 -1.36328125 C-49.69911276 -13.64088389 -21.63050743 -14.2864786 0 0 Z " fill="#020101" transform="translate(146,10)"/>
<path d="M0 0 C19.39288529 18.37082782 33.44970442 39.98916623 38.625 66.4375 C38.84800781 67.41332031 39.07101562 68.38914062 39.30078125 69.39453125 C45.20329208 98.1040227 37.42600802 128.54635417 21.6875 152.8125 C-3.34185672 188.48540841 -41.57312123 211.47280573 -84.375 219.4375 C-94.78362464 221.19914104 -104.90578261 221.72770088 -115.44799805 221.64331055 C-117.83457979 221.62482902 -120.22077527 221.62280336 -122.60742188 221.62304688 C-124.15364914 221.61813695 -125.69987383 221.61231093 -127.24609375 221.60546875 C-127.9452037 221.60435593 -128.64431366 221.6032431 -129.36460876 221.60209656 C-134.11978857 221.55693338 -138.67378899 221.08305347 -143.375 220.4375 C-144.97661215 220.31448105 -146.58154563 220.22222334 -148.1875 220.1875 C-148.91582031 220.16171875 -149.64414063 220.1359375 -150.39453125 220.109375 C-152.96544127 220.53532459 -153.81637003 221.38337963 -155.375 223.4375 C-155.95845476 226.39496492 -155.95845476 226.39496492 -155.375 229.4375 C-153.24605028 232.18546327 -151.86412787 233.29859698 -148.49755859 234.25463867 C-139.31145473 235.38833701 -130.24808944 235.79769144 -121 235.75 C-120.26165924 235.74817719 -119.52331848 235.74635437 -118.76260376 235.74447632 C-105.46884421 235.68958997 -92.47739941 234.8089535 -79.375 232.4375 C-78.50198242 232.2818457 -77.62896484 232.12619141 -76.72949219 231.96582031 C-53.45186186 227.60615946 -31.52208953 217.70261748 -11.375 205.4375 C-10.61405033 215.5623581 -13.42195935 222.40592664 -19.51904297 230.38574219 C-22.86452627 234.08416914 -26.93507611 236.59857575 -31.125 239.25 C-32.05602539 239.85328125 -32.98705078 240.4565625 -33.94628906 241.078125 C-36.74503162 242.88228885 -39.55725588 244.6631954 -42.375 246.4375 C-43.14457031 246.92653809 -43.91414062 247.41557617 -44.70703125 247.91943359 C-63.18767155 259.62800142 -82.30951114 270.6765119 -102.375 279.4375 C-103.53708984 280.01371094 -103.53708984 280.01371094 -104.72265625 280.6015625 C-117.1635862 284.52256251 -130.47242661 281.78208863 -141.72265625 275.96875 C-143.27475737 275.1274304 -144.82547784 274.28356006 -146.375 273.4375 C-148.14380646 272.50903457 -149.91336871 271.58200788 -151.68359375 270.65625 C-167.40612918 262.33132991 -182.66437305 253.18300736 -197.625 243.5625 C-198.29184814 243.13445068 -198.95869629 242.70640137 -199.64575195 242.26538086 C-210.72640424 235.05420715 -220.87807548 227.87416756 -224.375 214.4375 C-224.64856558 211.66596672 -224.58180047 209.22930633 -224.375 206.4375 C-219.85728146 207.77458262 -216.19987464 209.60913573 -212.1875 212.0625 C-201.57249917 218.36996426 -187.0726738 226.8659883 -174.375 225.4375 C-172.24629307 224.47632095 -172.24629307 224.47632095 -171.375 222.4375 C-170.84127912 218.43598611 -170.84127912 218.43598611 -172.4765625 214.90234375 C-175.15233937 212.8377011 -177.91902482 212.06754983 -181.125 211 C-203.91947002 202.90596363 -223.11451495 190.10114947 -240.375 173.4375 C-241.35533203 172.55191406 -241.35533203 172.55191406 -242.35546875 171.6484375 C-253.1094611 161.68630682 -260.46385266 148.67847004 -266.375 135.4375 C-266.80619141 134.49390625 -266.80619141 134.49390625 -267.24609375 133.53125 C-271.55861726 123.99202748 -273.87921084 114.77889125 -275.375 104.4375 C-275.4692627 103.78620117 -275.56352539 103.13490234 -275.66064453 102.46386719 C-279.64564932 73.16445809 -270.9422061 44.36246959 -253.78125 20.58984375 C-228.4277284 -12.62491587 -193.96466962 -32.02433523 -153.375 -40.5625 C-152.30378906 -40.79839844 -151.23257813 -41.03429687 -150.12890625 -41.27734375 C-97.43938209 -52.00314585 -39.60206843 -35.94104862 0 0 Z " fill="#E2986C" transform="translate(378.375,58.5625)"/>
<path d="M0 0 C28.83691824 16.33300946 54.67829105 43.66034448 64.28833008 75.87573242 C65.33442166 79.73154782 66.14231815 83.61169098 66.90942383 87.53198242 C67.13243164 88.50780273 67.35543945 89.48362305 67.58520508 90.48901367 C73.48771591 119.19850513 65.71043184 149.6408366 49.97192383 173.90698242 C26.59998975 207.21766129 -9.29223534 231.0448782 -49.46557617 238.96948242 C-51.73901367 239.34057617 -51.73901367 239.34057617 -54.09057617 239.53198242 C-55.12698242 239.62995117 -56.16338867 239.72791992 -57.23120117 239.82885742 C-62.51655036 239.4222921 -66.6690953 237.50632487 -71.46557617 235.34448242 C-72.80749023 234.7634375 -72.80749023 234.7634375 -74.17651367 234.1706543 C-80.00683709 231.60717634 -85.58124521 228.72510093 -91.09057617 225.53198242 C-91.09057617 225.20198242 -91.09057617 224.87198242 -91.09057617 224.53198242 C-90.50791992 224.46205078 -89.92526367 224.39211914 -89.32495117 224.32006836 C-59.70644433 220.69925247 -32.23685237 214.37925185 -12.09057617 190.53198242 C-3.47300442 178.20538254 0.0966746 165.54819642 -1.09057617 150.53198242 C-3.82007848 137.0248453 -10.56877944 127.22260534 -20.09057617 117.53198242 C-20.90268555 116.70053711 -20.90268555 116.70053711 -21.73120117 115.85229492 C-30.40701338 107.74610675 -43.90256163 100.77967269 -55.27807617 97.65698242 C-58.91001916 96.20420522 -61.15643235 93.89690292 -64.02026367 91.27807617 C-73.54569014 83.24436744 -86.01983471 82.59460659 -97.92407227 83.2980957 C-105.36370999 84.10124794 -111.07558455 87.32302719 -116.34057617 92.46948242 C-120.65250764 96.64106169 -125.30707876 98.34308947 -130.859375 100.24487305 C-141.07457465 103.80462497 -150.13783141 109.30861841 -158.41870117 116.28198242 C-160.09057617 117.53198242 -160.09057617 117.53198242 -162.09057617 117.53198242 C-163.11943539 80.68357992 -151.11441511 48.99393194 -125.74682617 21.93041992 C-109.63331716 5.11782455 -91.25782062 -6.79684495 -69.96557617 -16.09301758 C-69.19624756 -16.43623047 -68.42691895 -16.77944336 -67.63427734 -17.13305664 C-47.16877369 -25.69326512 -17.92386899 -9.6599448 0 0 Z " fill="#E9A982" transform="translate(350.090576171875,37.468017578125)"/>
<path d="M0 0 C2.92431111 1.3222972 4.95698238 2.77127259 7.25 5 C12.89277444 10.03893511 19.34936636 13.76009998 25.79833984 17.66308594 C27.97387346 18.98413518 30.13851615 20.32142503 32.30078125 21.6640625 C47.45803417 31.05278925 62.82732328 40.02836918 78.75 48.0625 C80.08853027 48.7421582 80.08853027 48.7421582 81.45410156 49.43554688 C91.19977004 54.27350961 98.9880512 56.49903403 109.9375 56.375 C111.46793945 56.39240234 111.46793945 56.39240234 113.02929688 56.41015625 C125.18892814 56.36359736 134.40719367 52.13177282 145.125 46.6875 C145.7306076 46.3820929 146.33621521 46.07668579 146.96017456 45.76202393 C172.86832054 32.67862399 197.82162755 17.48151946 221 0 C233.62888383 18.62760365 245.37380267 42.33860229 245.0625 65.375 C245.05347656 66.24898438 245.04445313 67.12296875 245.03515625 68.0234375 C245.01775391 69.00183594 245.01775391 69.00183594 245 70 C242.57744743 68.8335858 240.25812241 67.57297262 237.92578125 66.23046875 C218.72750679 55.27190063 197.66309785 50.9960125 175.82421875 55.90234375 C154.05203431 62.15156114 136.27589536 75.55615603 124.95019531 95.24951172 C122.54908565 99.67293316 120.68843791 104.26672218 119 109 C118.74347656 109.67804688 118.48695313 110.35609375 118.22265625 111.0546875 C116.78612593 115.27977667 116.9035059 118.69836928 118 123 C121.46923881 125.31282587 122.92205575 125.42478586 127 125 C130.22806085 122.64287636 130.77427103 119.88984102 131.75 116.125 C137.1561855 97.88165492 148.64956311 84.34310679 165 75 C169.2521876 73.00587064 173.51919423 71.39951676 178 70 C178.75539063 69.75507813 179.51078125 69.51015625 180.2890625 69.2578125 C195.81954179 65.01165149 212.98079171 68.75517424 227 76 C242.56004419 85.64849416 253.72425694 99.07372704 259.16015625 116.69921875 C261.12711564 125.26910321 260.51546057 134.28925511 260 143 C259.93941406 144.08539063 259.87882812 145.17078125 259.81640625 146.2890625 C257.93537012 161.66246888 247.00431714 176.50184353 235.25 185.8125 C220.10554109 196.55584077 203.40054672 201.00005943 185 199 C166.83578293 195.69813491 151.38783788 185.25408872 140.5234375 170.44140625 C135.99026748 163.17671071 132.7474244 155.36195283 130.8359375 147.0234375 C129.74865982 144.39161583 128.41765296 143.44785997 126 142 C122.85515635 141.69318599 121.02172942 141.99275686 118 143 C116.82409639 149.25048765 117.22545681 153.29112085 119.5 159.1875 C119.76828613 159.91638428 120.03657227 160.64526855 120.31298828 161.39624023 C122.9315465 168.277655 126.27198792 174.65796761 130 181 C126.04886452 182.30351387 122.06175257 182.12612281 117.953125 182.09765625 C117.18192322 182.0962413 116.41072144 182.09482635 115.6161499 182.09336853 C113.16072662 182.08778534 110.70539558 182.07523595 108.25 182.0625 C106.58203257 182.05748283 104.91406371 182.0529203 103.24609375 182.04882812 C99.16402713 182.03782141 95.08202919 182.02056836 91 182 C92.22338924 178.8758738 93.50161065 176.04903058 95.25 173.1875 C97.68888095 168.8759069 99.50595102 164.4363438 101.25 159.8125 C101.50813477 159.13533936 101.76626953 158.45817871 102.03222656 157.76049805 C108.2164398 140.97212956 107.16425373 119.28925059 100 103 C99.53078125 101.906875 99.0615625 100.81375 98.578125 99.6875 C95.50757675 93.08417042 91.68450529 87.5460235 87 82 C86.55269531 81.40832031 86.10539062 80.81664062 85.64453125 80.20703125 C74.29818426 65.66640476 54.49308645 56.65656967 36.50390625 54.3203125 C13.49909033 52.21730815 -3.37124606 58.69706714 -23 70 C-24.85376858 45.11830617 -13.53936899 20.30905348 0 0 Z " fill="#C56B32" transform="translate(150,298)"/>
<path d="M0 0 C1.39766952 1.2033269 2.77214203 2.43400448 4.125 3.6875 C5.35283203 4.76257813 5.35283203 4.76257813 6.60546875 5.859375 C15.99376844 14.55171904 22.28730803 25.16413214 25.125 37.6875 C25.29628418 38.28973389 25.46756836 38.89196777 25.64404297 39.51245117 C26.57667999 43.73014825 26.30965687 48.07334584 26.3125 52.375 C26.32474609 53.33083984 26.33699219 54.28667969 26.34960938 55.27148438 C26.38032193 70.28992237 21.31444017 82.85480513 12.125 94.6875 C11.66480469 95.31269531 11.20460938 95.93789063 10.73046875 96.58203125 C1.25286306 108.68168348 -14.79327005 116.64555556 -29.875 118.6875 C-47.88049487 120.11037325 -64.51911005 116.75190769 -78.93359375 105.24609375 C-93.16629832 93.02889447 -102.57833714 77.5184211 -104.03515625 58.60864258 C-105.04006084 40.18033836 -100.28650702 23.59465283 -87.8125 9.5625 C-65.07896565 -14.76863153 -27.30320449 -20.39283592 0 0 Z " fill="#D77A40" transform="translate(214.875,378.3125)"/>
<path d="M0 0 C2.92431111 1.3222972 4.95698238 2.77127259 7.25 5 C12.89277444 10.03893511 19.34936636 13.76009998 25.79833984 17.66308594 C27.97387346 18.98413518 30.13851615 20.32142503 32.30078125 21.6640625 C47.45803417 31.05278925 62.82732328 40.02836918 78.75 48.0625 C80.08853027 48.7421582 80.08853027 48.7421582 81.45410156 49.43554688 C91.19977004 54.27350961 98.9880512 56.49903403 109.9375 56.375 C111.46793945 56.39240234 111.46793945 56.39240234 113.02929688 56.41015625 C125.18892814 56.36359736 134.40719367 52.13177282 145.125 46.6875 C145.7306076 46.3820929 146.33621521 46.07668579 146.96017456 45.76202393 C172.86832054 32.67862399 197.82162755 17.48151946 221 0 C233.62888383 18.62760365 245.37380267 42.33860229 245.0625 65.375 C245.05347656 66.24898438 245.04445313 67.12296875 245.03515625 68.0234375 C245.01775391 69.00183594 245.01775391 69.00183594 245 70 C242.57744743 68.8335858 240.25812241 67.57297262 237.92578125 66.23046875 C218.72750679 55.27190063 197.66309785 50.9960125 175.82421875 55.90234375 C154.05203431 62.15156114 136.27589536 75.55615603 124.95019531 95.24951172 C122.54908565 99.67293316 120.68843791 104.26672218 119 109 C118.74347656 109.67804688 118.48695313 110.35609375 118.22265625 111.0546875 C116.78302451 115.28889849 116.84207182 118.69912389 118 123 C118.67289063 123.40347656 119.34578125 123.80695313 120.0390625 124.22265625 C122 126 122 126 122.390625 129.57421875 C122.3641199 130.94585748 122.3165309 132.31721938 122.25 133.6875 C122.23195313 134.38939453 122.21390625 135.09128906 122.1953125 135.81445312 C122.14826213 137.54355436 122.07651873 139.27195205 122 141 C121.360625 141.165 120.72125 141.33 120.0625 141.5 C117.60128654 142.95289951 117.60128654 142.95289951 117.09375 146.61328125 C116.74349154 151.23856931 117.84942068 154.90864455 119.5 159.1875 C119.76828613 159.91638428 120.03657227 160.64526855 120.31298828 161.39624023 C122.9315465 168.277655 126.27198792 174.65796761 130 181 C126.04886452 182.30351387 122.06175257 182.12612281 117.953125 182.09765625 C117.18192322 182.0962413 116.41072144 182.09482635 115.6161499 182.09336853 C113.16072662 182.08778534 110.70539558 182.07523595 108.25 182.0625 C106.58203257 182.05748283 104.91406371 182.0529203 103.24609375 182.04882812 C99.16402713 182.03782141 95.08202919 182.02056836 91 182 C92.22338924 178.8758738 93.50161065 176.04903058 95.25 173.1875 C97.68888095 168.8759069 99.50595102 164.4363438 101.25 159.8125 C101.50813477 159.13533936 101.76626953 158.45817871 102.03222656 157.76049805 C108.2164398 140.97212956 107.16425373 119.28925059 100 103 C99.53078125 101.906875 99.0615625 100.81375 98.578125 99.6875 C95.50757675 93.08417042 91.68450529 87.5460235 87 82 C86.55269531 81.40832031 86.10539062 80.81664062 85.64453125 80.20703125 C74.29818426 65.66640476 54.49308645 56.65656967 36.50390625 54.3203125 C13.49909033 52.21730815 -3.37124606 58.69706714 -23 70 C-24.85376858 45.11830617 -13.53936899 20.30905348 0 0 Z " fill="#E7A781" transform="translate(150,298)"/>
<path d="M0 0 C0.21914062 0.71285156 0.43828125 1.42570313 0.6640625 2.16015625 C3.97301928 12.1542818 8.13841912 17.56485656 17.37109375 22.7109375 C27.91883912 27.88293746 38.5033728 28.53245983 49.8125 25.3125 C58.67964765 22.25007957 65.78577984 18.01444951 71 10 C72.31899212 6.72122881 73.25716566 3.45241105 74 0 C86.08052843 1.76036844 97.01610081 11.74618427 104.375 21 C110.3975089 29.54752679 113.05230678 38.58068071 112 49 C108.67611802 62.50445765 100.19865746 73.06055266 88.75 80.6875 C78.09504937 87.11847157 67.00115641 90.24297758 55 93 C54.38729248 93.17869629 53.77458496 93.35739258 53.14331055 93.54150391 C50.46909291 94.11357142 47.97321036 94.12976134 45.23828125 94.1328125 C43.55895508 94.13474609 43.55895508 94.13474609 41.84570312 94.13671875 C40.67974609 94.13285156 39.51378906 94.12898438 38.3125 94.125 C37.16587891 94.12886719 36.01925781 94.13273437 34.83789062 94.13671875 C12.00794656 94.11058258 -9.4533276 87.37850278 -26.02734375 70.99609375 C-29.97643445 66.72973995 -32.74765567 62.34798347 -35 57 C-35.53560547 55.89978516 -35.53560547 55.89978516 -36.08203125 54.77734375 C-38.4501949 47.61238905 -38.359265 37.01302275 -35.375 30 C-34.62371058 28.64350522 -33.83116075 27.30907818 -33 26 C-32.5875 25.2678125 -32.175 24.535625 -31.75 23.78125 C-25.93345933 14.13108025 -12.12657878 0 0 0 Z " fill="#FAE19E" transform="translate(223,152)"/>
<path d="M0 0 C-0.16113281 0.85722656 -0.32226562 1.71445313 -0.48828125 2.59765625 C-1.69628382 10.62949016 -1.56652875 18.30041376 1 26 C1.71424792 30.92410917 -0.51044014 33.5988759 -3.3125 37.375 C-14.19599954 52.93494177 -21.55357711 70.58788416 -26 89 C-26.18780029 89.73798828 -26.37560059 90.47597656 -26.5690918 91.23632812 C-28.51179582 99.67080632 -28.5636577 108.34858671 -28.72729492 116.97216797 C-28.94553067 127.27627127 -30.98665975 134.38828246 -37 143 C-37.49765869 143.89420654 -37.99531738 144.78841309 -38.50805664 145.7097168 C-40.7350858 149.12843069 -43.97182281 150.21375609 -47.625 151.6875 C-48.35138672 151.98857666 -49.07777344 152.28965332 -49.82617188 152.59985352 C-61.46651284 157.31929793 -75.98660985 159.97915991 -88.05859375 155.03125 C-97.15138946 150.20127401 -105.91734672 142.06650936 -109.375 132.1875 C-113.34969125 111.91657464 -106.75594039 93.05484803 -95.57421875 76.2578125 C-93.15456464 72.75690512 -90.5930129 69.37336201 -88 66 C-87.04287109 64.70642578 -87.04287109 64.70642578 -86.06640625 63.38671875 C-74.9871526 49.05279501 -61.30653645 35.79425877 -46.62695312 25.18261719 C-44.97593246 23.98250553 -43.35485632 22.74876512 -41.734375 21.5078125 C-13.19235076 0 -13.19235076 0 0 0 Z " fill="#DD8956" transform="translate(141,254)"/>
<path d="M0 0 C2.8702015 1.79610436 4.8938459 3.34141156 7.25 5.8125 C10.08959765 8.50647726 12.16036667 9.04098645 15.8359375 10.12890625 C35.80666266 17.10498148 53.05287045 30.05553736 62.6875 49.125 C68.55026972 62.95384948 67.96747853 76.35646429 62.46875 90.19140625 C59.02556109 97.68034214 54.53440361 103.36338348 48.6875 109.125 C47.50994141 110.300625 47.50994141 110.300625 46.30859375 111.5 C25.30063615 131.46261781 -1.65935834 135.80855382 -29.46484375 135.4609375 C-35.87714774 135.25465685 -42.02898508 134.38711204 -48.3125 133.125 C-49.42625 132.90199219 -50.54 132.67898438 -51.6875 132.44921875 C-67.27674436 128.66789906 -81.23720393 121.68829501 -93.3125 111.125 C-93.95058594 110.57070312 -94.58867187 110.01640625 -95.24609375 109.4453125 C-105.3587798 100.03082972 -111.6382772 86.91086235 -112.5859375 73.15625 C-113.10873589 56.72077567 -108.11338905 44.46648733 -97.37109375 31.84375 C-86.83157592 20.77193328 -72.90342466 14.00266712 -58.8125 8.5625 C-54.97666391 7.03125898 -52.30043614 5.47211128 -49.3125 2.625 C-35.89444643 -9.88938873 -15.11255513 -8.58517041 0 0 Z M-85.3125 41.125 C-94.98857327 51.70033658 -98.11136609 62.00455734 -97.49169922 76.11816406 C-97.11212105 80.36902582 -95.56813191 83.57237974 -93.3125 87.125 C-92.9 87.8571875 -92.4875 88.589375 -92.0625 89.34375 C-82.59394446 105.05294442 -65.25334116 113.70209278 -48.0625 118.375 C-22.47807798 123.4918844 5.8943638 121.04564735 28.27734375 106.8515625 C40.31714343 98.22661686 47.05551778 89.02094667 51.6875 75.125 C52.8695796 62.73589654 48.5676276 52.26430643 40.75390625 42.77734375 C34.1351532 35.69709966 25.59830301 29.97152885 16.6875 26.125 C15.6975 26.125 14.7075 26.125 13.6875 26.125 C13.57535156 26.73085937 13.46320313 27.33671875 13.34765625 27.9609375 C11.50930348 35.77093292 7.79543946 40.95391742 1.6875 46.125 C-1.85210968 48.2688487 -5.40329805 49.78687258 -9.3125 51.125 C-10.31216797 51.49044922 -10.31216797 51.49044922 -11.33203125 51.86328125 C-22.73938879 55.39355821 -34.47197897 53.20207094 -44.8515625 47.8046875 C-53.43716315 42.54995533 -57.77417274 35.74392437 -60.3125 26.125 C-69.27983439 26.125 -79.20840903 35.30974614 -85.3125 41.125 Z " fill="#030302" transform="translate(283.3125,125.875)"/>
<path d="M0 0 C14.46862818 5.98701856 26.79325571 14.32774713 39 24 C39.55510254 24.43650879 40.11020508 24.87301758 40.68212891 25.32275391 C55.78535472 37.30405793 69.86050428 51.23855447 81 67 C81.40009277 67.56106445 81.80018555 68.12212891 82.21240234 68.70019531 C94.51621231 86.1916384 100.72958487 103.50306854 99 125 C97.23282477 134.63051198 90.03647903 142.06993824 82.5 147.9375 C71.7019941 154.82672548 58.16476234 154.40559643 45.9375 152 C40.82164083 150.24781824 38.88795988 147.89377869 36.45727539 143.2890625 C35.15578027 140.52716335 33.99191542 137.72405549 32.86816406 134.88574219 C31.96626935 132.73727438 31.96626935 132.73727438 29.82421875 130.2109375 C27.10561902 125.42573627 27.41023006 120.91326673 27.375 115.5 C27.31983613 113.32930167 27.25997005 111.15871754 27.1953125 108.98828125 C27.16598633 107.94881348 27.13666016 106.9093457 27.10644531 105.83837891 C26.16081212 80.62293959 16.45174292 51.69278675 0.3125 32.125 C-2.97325721 27.79377458 -2.97325721 27.79377458 -3.0859375 24.44921875 C-2.5625 21.8125 -2.5625 21.8125 -1.79296875 19.125 C-0.79229217 15.18144699 -0.57457281 11.36422979 -0.375 7.3125 C-0.33576416 6.59231689 -0.29652832 5.87213379 -0.25610352 5.13012695 C-0.16483198 3.42038957 -0.08154166 1.71022904 0 0 Z " fill="#DD8956" transform="translate(382,258)"/>
<path d="M0 0 C0.76094967 10.1248581 -2.04695935 16.96842664 -8.14404297 24.94824219 C-11.48952627 28.64666914 -15.56007611 31.16107575 -19.75 33.8125 C-20.68102539 34.41578125 -21.61205078 35.0190625 -22.57128906 35.640625 C-25.37003162 37.44478885 -28.18225588 39.2256954 -31 41 C-31.76957031 41.48903809 -32.53914062 41.97807617 -33.33203125 42.48193359 C-51.81267155 54.19050142 -70.93451114 65.2390119 -91 74 C-91.77472656 74.38414062 -92.54945313 74.76828125 -93.34765625 75.1640625 C-105.7885862 79.08506251 -119.09742661 76.34458863 -130.34765625 70.53125 C-131.89975737 69.6899304 -133.45047784 68.84606006 -135 68 C-136.76880646 67.07153457 -138.53836871 66.14450788 -140.30859375 65.21875 C-156.03112918 56.89382991 -171.28937305 47.74550736 -186.25 38.125 C-186.91684814 37.69695068 -187.58369629 37.26890137 -188.27075195 36.82788086 C-199.35140424 29.61670715 -209.50307548 22.43666756 -213 9 C-213.27356558 6.22846672 -213.20680047 3.79180633 -213 1 C-208.48228146 2.33708262 -204.82487464 4.17163573 -200.8125 6.625 C-190.33469395 12.85094273 -175.56344306 21.62366531 -163 20 C-162.505 19.484375 -162.01 18.96875 -161.5 18.4375 C-161.005 17.963125 -160.51 17.48875 -160 17 C-157.15812093 17.14209395 -154.75519579 17.43885003 -152 18 C-150.1128125 18.309375 -150.1128125 18.309375 -148.1875 18.625 C-147.135625 19.07875 -146.08375 19.5325 -145 20 C-144.54625 21.155 -144.0925 22.31 -143.625 23.5 C-142.43814309 27.05618393 -142.43814309 27.05618393 -140.0703125 27.8671875 C-137.70811391 28.38416699 -135.40290142 28.72727806 -133 29 C-131.94256592 29.16677246 -130.88513184 29.33354492 -129.7956543 29.50537109 C-123.24597882 30.35888898 -116.65781279 30.24472354 -110.0625 30.25 C-108.9287645 30.25101212 -108.9287645 30.25101212 -107.77212524 30.25204468 C-94.33674451 30.2330684 -81.24439489 29.39715381 -68 27 C-67.12698242 26.8443457 -66.25396484 26.68869141 -65.35449219 26.52832031 C-45.47399344 22.80490728 -17.4508954 0 0 0 Z " fill="#F3C855" transform="translate(367,264)"/>
<path d="M0 0 C4.62759994 1.61550797 7.63724631 0.16808002 11.95703125 -1.7265625 C19.30760154 -4.55154267 27.57315484 -4.39691735 34.76953125 -1.2265625 C40.79360021 2.2269754 44.96879295 7.2979943 47.5546875 13.71484375 C50.46899525 24.54522465 48.19224163 34.93785744 43.39453125 44.8359375 C35.82946587 57.86631587 24.17813358 71.87731893 9.39453125 76.8359375 C1.79320615 78.03151016 -3.44938646 76.22291309 -9.60546875 71.8359375 C-23.39816982 61.61985375 -36.71209819 47.47982464 -39.60546875 29.8359375 C-40.4443472 21.42318507 -39.71898415 14.09293959 -34.6484375 7.16015625 C-24.62797216 -4.63565559 -13.95796455 -5.63111016 0 0 Z " fill="#030201" transform="translate(170.60546875,398.1640625)"/>
<path d="M0 0 C4.65358307 1.60107199 7.64909046 0.17830462 11.9921875 -1.7265625 C18.21042459 -4.13747208 25.47903294 -4.34166146 31.8671875 -2.4375 C39.20258437 0.98012809 43.64222876 6.87284028 47.4296875 13.8359375 C50.22093951 22.20969352 49.02044078 31.89848288 45.4296875 39.8359375 C45.10097656 40.62226563 44.77226562 41.40859375 44.43359375 42.21875 C38.20036173 55.97931065 25.73901609 69.55120451 11.921875 76.0078125 C7.01752635 77.63747067 2.02037312 77.78321201 -2.8671875 75.99609375 C-19.28658769 67.34970748 -32.31313938 52.29015724 -38.5703125 34.8359375 C-40.40602763 25.65736185 -40.81401011 17.42750574 -36.1171875 9.12890625 C-27.02101283 -4.35456479 -14.54570753 -5.81004182 0 0 Z " fill="#030201" transform="translate(340.5703125,398.1640625)"/>
<path d="M0 0 C12.08052843 1.76036844 23.01610081 11.74618427 30.375 21 C36.3975089 29.54752679 39.05230678 38.58068071 38 49 C34.37016937 63.74748332 24.69917728 74.66310162 11.91796875 82.40234375 C7.08910109 85.04626192 2.18264705 87.15285144 -3 89 C-4.02609375 89.37898438 -5.0521875 89.75796875 -6.109375 90.1484375 C-13.38302883 92.45606879 -13.38302883 92.45606879 -17.4375 91.3125 C-19.8204771 90.05481764 -21.86471061 88.64223165 -24 87 C-25.12535156 86.19755859 -25.12535156 86.19755859 -26.2734375 85.37890625 C-32.60473351 80.70066193 -39.75700495 75.34970236 -43 68 C-42.02160156 67.98582031 -41.04320312 67.97164063 -40.03515625 67.95703125 C-31.9445504 67.66268276 -25.64337579 67.00487503 -19 62 C-18.154375 61.401875 -17.30875 60.80375 -16.4375 60.1875 C-14.14269124 56.69539972 -14.53446249 54.12333228 -15 50 C-18.7205836 47.51961093 -20.59796571 47.53662797 -25 48 C-27.27144074 49.85432087 -27.27144074 49.85432087 -29 52 C-34.36626335 53.78875445 -39.43731906 54.20219885 -44.65625 51.75390625 C-47.85754943 49.56061092 -50.47230145 47.68242715 -51.6640625 43.8828125 C-51.89208558 38.05785934 -49.90756909 32.43884282 -48 27 C-46.92363281 27.04640625 -45.84726563 27.0928125 -44.73828125 27.140625 C-31.10229393 27.54984573 -18.54649331 25.71774244 -8.06640625 16.25390625 C-3.35430585 11.38506239 -1.41418817 6.57260787 0 0 Z " fill="#FDEFCD" transform="translate(297,152)"/>
<path d="M0 0 C15.56004419 9.64849416 26.72425694 23.07372704 32.16015625 40.69921875 C34.12711564 49.26910321 33.51546057 58.28925511 33 67 C32.93941406 68.08539063 32.87882812 69.17078125 32.81640625 70.2890625 C31.12788709 84.08905861 21.83319479 97.31744358 12.171875 106.79296875 C5.91449081 110.27054378 -1.96301137 106.97341924 -8.375 105.15625 C-12.57412048 103.81687536 -16.18150903 102.18199484 -20 100 C-18.70420198 96.01812068 -17.44300705 94.22362267 -14 91.875 C-2.18794111 83.10630572 8.54152364 69.87912647 11 55 C11.93204359 44.09508999 10.57359645 36.68609288 3.6875 28.125 C-2.96067697 22.86830193 -8.17883346 21.36151584 -16.74609375 21.58984375 C-20.84879036 22.10699038 -24.12761621 23.46862986 -27.8671875 25.1640625 C-31.61528977 26.63309892 -34.30799311 25.6230126 -37.94140625 24.28515625 C-44.28603152 22.00381514 -50.27517955 21.32998273 -57 21 C-55.08740231 11.53767458 -52.62027365 -0.03150077 -44.5625 -6.25 C-31.5595995 -12.90033843 -12.05391498 -6.22920438 0 0 Z " fill="#D67A40" transform="translate(377,374)"/>
<path d="M0 0 C-1.69854295 4.3435377 -3.5589479 8.60737634 -5.4375 12.875 C-6.04062865 14.24727981 -6.64349531 15.61967479 -7.24609375 16.9921875 C-7.54209473 17.65822998 -7.8380957 18.32427246 -8.14306641 19.01049805 C-8.71057809 20.32806291 -9.24994618 21.65813803 -9.75927734 22.99926758 C-11.57369946 27.69695592 -11.57369946 27.69695592 -13.796875 29.27734375 C-14.44140625 29.49519531 -15.0859375 29.71304687 -15.75 29.9375 C-21.49876031 32.43604039 -25.23744141 36.58738656 -28.1015625 42.1328125 C-31.64951688 51.38402064 -30.68509886 60.96871604 -27 70 C-20.57189041 84.15420286 -8.62420115 99.03231509 6.00390625 105.44921875 C12.89100943 107.34957403 18.78965106 106.24018206 25 103 C25.58007812 103.66515625 25.58007812 103.66515625 26.171875 104.34375 C33.57848856 111.05401528 45.48989627 112.40199077 55 114 C45.94852344 123.74520286 31.94544804 128.5802396 18.8203125 129.2734375 C-0.20621468 129.85331674 -16.59553861 124.6100476 -30.71606445 111.38037109 C-44.49922732 97.89817041 -51.10060422 81.60005681 -51.375 62.5 C-51.46569223 45.02723571 -44.2507878 29.27258172 -32.05078125 16.86328125 C-23.83287026 8.92187066 -11.86370374 0 0 0 Z " fill="#C46B32" transform="translate(162,368)"/>
<path d="M0 0 C2.92431111 1.3222972 4.95698238 2.77127259 7.25 5 C12.89277444 10.03893511 19.34936636 13.76009998 25.79833984 17.66308594 C27.97387346 18.98413518 30.13851615 20.32142503 32.30078125 21.6640625 C40.49168993 26.7361534 48.7654611 31.64821915 57.125 36.4375 C57.98955811 36.93362793 58.85411621 37.42975586 59.74487305 37.94091797 C64.75747345 40.79371241 69.81750099 43.46859459 75 46 C73.56390017 52.73862227 71.85991713 59.36629557 70 66 C68.9378125 65.52949219 67.875625 65.05898438 66.78125 64.57421875 C65.35421725 63.94519773 63.92713104 63.31629798 62.5 62.6875 C61.80390625 62.37876953 61.1078125 62.07003906 60.390625 61.75195312 C40.95135899 53.20227595 20.3271106 50.83118804 0 58 C-8.00927812 61.32500989 -15.49824521 65.68022346 -23 70 C-24.85376858 45.11830617 -13.53936899 20.30905348 0 0 Z " fill="#E1976B" transform="translate(150,298)"/>
<path d="M0 0 C4.51771854 1.33708262 8.17512536 3.17163573 12.1875 5.625 C22.66530605 11.85094273 37.43655694 20.62366531 50 19 C50.495 18.484375 50.99 17.96875 51.5 17.4375 C51.995 16.963125 52.49 16.48875 53 16 C55.84187907 16.14209395 58.24480421 16.43885003 61 17 C62.8871875 17.309375 62.8871875 17.309375 64.8125 17.625 C65.864375 18.07875 66.91625 18.5325 68 19 C68.45375 20.155 68.9075 21.31 69.375 22.5 C70.56185691 26.05618393 70.56185691 26.05618393 72.9296875 26.8671875 C75.29188609 27.38416699 77.59709858 27.72727806 80 28 C80.98613281 28.16628906 81.97226563 28.33257812 82.98828125 28.50390625 C88.59964693 29.31007599 94.27934964 29.36628216 99.9375 29.5625 C101.09830078 29.60568359 102.25910156 29.64886719 103.45507812 29.69335938 C106.30328232 29.79884842 109.15156529 29.90096555 112 30 C111.61763184 30.44585449 111.23526367 30.89170898 110.84130859 31.35107422 C109.76327728 32.60838573 108.68566375 33.86605555 107.60839844 35.12402344 C106.31755374 36.62961704 105.02270709 38.13177908 103.7265625 39.6328125 C96.14428216 48.62443863 90.00666752 58.36083152 85 69 C81.1346925 68.39888449 78.18207295 67.24185586 74.73828125 65.40234375 C73.71452393 64.85610352 72.6907666 64.30986328 71.63598633 63.74707031 C69.9908606 62.85133301 69.9908606 62.85133301 68.3125 61.9375 C67.16998779 61.31842773 66.02747559 60.69935547 64.8503418 60.06152344 C52.26975918 53.19230122 40.0959372 45.68806008 28 38 C27.18273437 37.48356934 26.36546875 36.96713867 25.5234375 36.43505859 C15.40435193 30.0114666 6.8063647 24.35171562 2 13 C1.5875 12.175 1.175 11.35 0.75 10.5 C-0.32225557 6.92581477 -0.12625207 3.72443599 0 0 Z " fill="#EEB50B" transform="translate(154,265)"/>
<path d="M0 0 C0.90105469 0.49242187 1.80210938 0.98484375 2.73046875 1.4921875 C3.66246094 1.98460937 4.59445313 2.47703125 5.5546875 2.984375 C10.1900488 5.59641801 14.47996725 8.23290967 17.73046875 12.4921875 C17.42454875 16.58966146 14.74873602 19.86616839 12.60546875 23.2421875 C6.16962212 33.6678982 1.29168301 44.76112876 -2.26953125 56.4921875 C-12.99597288 54.58526454 -22.08704277 46.12332022 -28.26953125 37.4921875 C-34.09682124 27.5507529 -36.59828997 19.02003415 -36.39453125 7.5546875 C-36.38550781 6.58466797 -36.37648437 5.61464844 -36.3671875 4.61523438 C-36.34379232 2.24062343 -36.31101301 -0.13346026 -36.26953125 -2.5078125 C-25.41956121 -6.12446918 -10.26723851 -4.80132422 0 0 Z " fill="#F9E19E" transform="translate(94.26953125,57.5078125)"/>
<path d="M0 0 C3.81632894 0.65859606 6.82109833 2.48639359 10.203125 4.3046875 C13.64981063 5.9789569 15.75558842 6.10058207 19.53515625 5.4375 C21.36329785 4.63906466 23.17475351 3.80187632 24.97265625 2.9375 C29.96322614 0.54476101 33.03740898 -0.49432157 38.53515625 0.4375 C41.5418598 2.22314054 43.94516946 4.25752641 45.53515625 7.4375 C47.07936396 16.91332004 43.73362709 24.70170616 38.53515625 32.4375 C33.46387843 39.22984396 26.63978358 47.47310478 18.53515625 50.4375 C13.25741027 50.31526338 10.0715229 48.04350273 6.22265625 44.6875 C5.6601416 44.2030542 5.09762695 43.7186084 4.51806641 43.21948242 C-3.45750511 36.07010648 -11.30350303 26.27378812 -12.734375 15.38671875 C-13.01184459 9.92981684 -11.56344509 5.97886983 -8.11328125 1.80078125 C-5.49912019 -0.36116712 -3.28611128 -0.08549233 0 0 Z " fill="#FDEFCD" transform="translate(328.46484375,409.5625)"/>
<path d="M0 0 C4.00436905 0.05794103 6.61547469 1.04321493 10.125 2.9375 C14.41253489 5.24262629 17.04663479 6.30651144 22 5.4375 C23.8281416 4.63906466 25.63959726 3.80187632 27.4375 2.9375 C32.42806989 0.54476101 35.50225273 -0.49432157 41 0.4375 C44.00670355 2.22314054 46.41001321 4.25752641 48 7.4375 C49.54420771 16.91332004 46.19847084 24.70170616 41 32.4375 C35.92872218 39.22984396 29.10462733 47.47310478 21 50.4375 C13.36464366 50.1905343 8.13612767 44.57362767 3 39.4375 C-4.30536557 31.17973121 -10.92652507 21.95621776 -10.3984375 10.48046875 C-9.32579721 4.98055825 -5.69223877 0.17280011 0 0 Z " fill="#FDEFCD" transform="translate(156,409.5625)"/>
<path d="M0 0 C1.01126953 -0.00128906 2.02253906 -0.00257812 3.06445312 -0.00390625 C4.11439453 -0.00003906 5.16433594 0.00382812 6.24609375 0.0078125 C7.29990234 0.00394531 8.35371094 0.00007813 9.43945312 -0.00390625 C10.95442383 -0.00197266 10.95442383 -0.00197266 12.5 0 C13.42240479 0.00112793 14.34480957 0.00225586 15.29516602 0.00341797 C17.68359375 0.1328125 17.68359375 0.1328125 20.68359375 1.1328125 C24.89818414 11.8294922 20.62368855 25.13171176 16.43359375 35.109375 C11.14128854 45.78419517 2.45013695 54.03940937 -8.31640625 59.1328125 C-8.97640625 59.1328125 -9.63640625 59.1328125 -10.31640625 59.1328125 C-10.65671875 58.1634375 -10.99703125 57.1940625 -11.34765625 56.1953125 C-16.06519795 43.0352436 -21.37161875 30.1534218 -30.1640625 19.1484375 C-31.31640625 17.1328125 -31.31640625 17.1328125 -31.2734375 15.08203125 C-27.73971749 7.88478111 -16.39441088 3.86903793 -9.31640625 1.1328125 C-6.15466593 0.17627687 -3.29814033 0.00402809 0 0 Z " fill="#F9E09E" transform="translate(439.31640625,53.8671875)"/>
<path d="M0 0 C3.77161969 3.04044948 7.16648403 6.36233732 10.41796875 9.94921875 C6.65979104 13.82794178 2.68761258 17.30431028 -1.45703125 20.76171875 C-6.63923878 25.13323359 -11.38917749 29.58993198 -15.58203125 34.94921875 C-18.4387814 33.64292701 -19.98781148 32.56188308 -22.33203125 30.32421875 C-26.06360746 27.02352171 -30.2144339 24.90219083 -34.64453125 22.69921875 C-35.3293457 22.35810059 -36.01416016 22.01698242 -36.71972656 21.66552734 C-45.83240752 17.24119094 -54.48733131 15.91110966 -64.51953125 15.38671875 C-65.29876953 15.34353516 -66.07800781 15.30035156 -66.88085938 15.25585938 C-68.78110242 15.15093798 -70.68154794 15.04969425 -72.58203125 14.94921875 C-69.31343337 5.51931386 -61.00452737 0.49537148 -52.58203125 -4.05078125 C-51.06609375 -4.91703125 -51.06609375 -4.91703125 -49.51953125 -5.80078125 C-33.68750308 -12.53781452 -13.97779085 -9.74850466 0 0 Z " fill="#DB8755" transform="translate(138.58203125,24.05078125)"/>
<path d="M0 0 C4.91957645 4.24789996 8.87224821 8.15190284 12.1171875 13.828125 C11.28078735 13.83428833 11.28078735 13.83428833 10.42749023 13.84057617 C-9.46245839 14.09596842 -26.71852265 17.92752597 -41.8828125 31.828125 C-45.48535609 30.32027304 -47.6020697 28.22311519 -50.2578125 25.390625 C-56.2912052 19.20368788 -63.00642106 14.03991448 -69.8828125 8.828125 C-65.93517583 -0.12245714 -56.48127587 -4.58344962 -47.8828125 -8.171875 C-32.18738354 -13.88676115 -13.02169391 -10.08414006 0 0 Z " fill="#DB8855" transform="translate(440.8828125,25.171875)"/>
<path d="M0 0 C3.55702382 2.14978375 6.35364512 4.01979023 8.25 7.8125 C9.08625398 11.76977332 9.06531572 15.12575371 7.28515625 18.80859375 C3.24549079 24.25336024 -2.29014273 26.35881707 -8.75 27.8125 C-17.7523528 29.01363923 -24.28684444 26.85124421 -31.6875 21.8125 C-34.85440731 18.74155958 -35.59046684 16.86940719 -36.25 12.5 C-35.47164833 6.75965647 -32.48321806 4.05717184 -28.1328125 0.484375 C-20.36244166 -4.41959237 -8.05928006 -3.77853486 0 0 Z " fill="#AC5E2C" transform="translate(273.75,137.1875)"/>
<path d="M0 0 C0.99 0 1.98 0 3 0 C3.25523437 1.2684375 3.25523437 1.2684375 3.515625 2.5625 C6.25361315 15.37861474 10.64145645 24.83767346 21.52734375 32.86328125 C26.47127572 35.93324209 31.48726039 38.16242013 37 40 C34.33711813 42.82426866 31.60571352 45.46071728 28.5625 47.875 C28.02753906 48.30554688 27.49257812 48.73609375 26.94140625 49.1796875 C23.94787035 50.44456183 22.09045374 49.88792887 19 49 C7.74338798 41.75384085 -2.72739692 30.19877665 -6 17 C-6.76187337 12.05183293 -6.54755749 9.00385539 -4.125 4.5625 C-2 2 -2 2 0 0 Z " fill="#F7DF9D" transform="translate(152,410)"/>
<path d="M0 0 C0.14695312 0.92619141 0.14695312 0.92619141 0.296875 1.87109375 C2.66260123 15.27007766 8.86114782 25.95963135 20 34 C23.25680163 35.85402262 26.58969884 37.45144488 30 39 C31.33604881 39.66120783 32.67034635 40.32602418 34 41 C32.47065791 42.32684028 30.92590495 43.63592933 29.375 44.9375 C28.51648438 45.66839844 27.65796875 46.39929688 26.7734375 47.15234375 C23.67437179 49.2169326 21.71186853 49.89038777 18 50 C15.91015625 48.99609375 15.91015625 48.99609375 14.0625 47.4375 C13.381875 46.8703125 12.70125 46.303125 12 45.71875 C11.34 45.1515625 10.68 44.584375 10 44 C9.4225 43.5771875 8.845 43.154375 8.25 42.71875 C0.37173435 36.73710386 -6.56612151 26.5732554 -9 17 C-9.70667538 11.62312214 -8.90600294 7.62807876 -6 3 C-3.83302329 0.29127911 -3.59481737 0 0 0 Z " fill="#F7DF9D" transform="translate(325,410)"/>
<path d="M0 0 C1.43575196 1.27622396 2.87030237 2.55469471 4.265625 3.875 C7.8005314 6.16791226 11.98376443 5.63026067 16 5 C19.02286884 3.61451845 20.66871425 2.33128575 23 0 C26.52986508 -0.32683936 29.13775866 -0.35374004 32.4375 1 C34.41219766 3.527613 34.80112597 5.68225372 34.6484375 8.87109375 C33.04541946 14.13401442 27.66819739 17.00603239 23.1875 19.67578125 C16.4605277 22.47044254 7.42228939 22.15528356 0.5 19.875 C-3.93640956 17.49835202 -8.6841047 14.63179059 -11 10 C-11.38503376 6.45768939 -11.41935959 4.63742658 -9.4375 1.625 C-6.00932673 -0.66044885 -4.04989831 -0.6284325 0 0 Z " fill="#050504" transform="translate(249,199)"/>
<path d="M0 0 C2.65234375 1.50390625 2.65234375 1.50390625 5 4 C5.51404955 7.04498764 5.70257878 9.40934163 5.625 12.4375 C5.64433594 13.18837891 5.66367187 13.93925781 5.68359375 14.71289062 C5.64671545 18.9059529 5.31109404 20.59221457 2.6875 24.03125 C0 26 0 26 -3.625 26.0625 C-7.44858586 24.85877853 -8.15366066 24.45709235 -10 21 C-10.31985208 18.0723449 -10.46477894 15.42132651 -10.4375 12.5 C-10.45748047 11.74074219 -10.47746094 10.98148438 -10.49804688 10.19921875 C-10.49488906 6.59298864 -10.32357238 4.4387422 -8.15625 1.5 C-5.1898088 -0.56361127 -3.54539212 -0.57883953 0 0 Z " fill="#040302" transform="translate(322,112)"/>
<path d="M0 0 C3.73883345 0.71594683 4.68924835 1.49368392 6.9375 4.5625 C7.55340409 7.57270768 7.54159966 10.49880767 7.5 13.5625 C7.52384766 14.36945313 7.54769531 15.17640625 7.57226562 16.0078125 C7.56184629 20.21722209 7.53252992 21.92832338 4.5625 25.09375 C1.60986405 26.74582012 0.25099461 27.2421912 -3.0625 26.5625 C-5.30682982 24.69222515 -6.75693202 23.17363596 -8.0625 20.5625 C-8.26603342 18.10556092 -8.38590647 15.71007347 -8.4375 13.25 C-8.48648438 11.93386719 -8.53546875 10.61773437 -8.5859375 9.26171875 C-7.82748286 3.90159525 -5.39148574 0.99027289 0 0 Z " fill="#070504" transform="translate(203.0625,111.4375)"/>
<path d="M0 0 C0.886875 0.804375 1.77375 1.60875 2.6875 2.4375 C6.79519942 5.98505859 11.22988341 8.9967348 15.73120117 12.01538086 C17.169826 12.98742466 18.5871678 13.99083415 20 15 C20 15.33 20 15.66 20 16 C10.76 16 1.52 16 -8 16 C-6.60284829 12.50712071 -5.27126503 9.5366421 -3.4375 6.3125 C-1.66392613 3.18543787 -1.66392613 3.18543787 0 0 Z " fill="#DC9469" transform="translate(249,464)"/>
</svg>
