<?xml version="1.0" encoding="UTF-8"?>
<svg version="1.1" xmlns="http://www.w3.org/2000/svg" width="512" height="512">
<path d="M0 0 C52.8 0 105.6 0 160 0 C160 57.75 160 115.5 160 175 C218.08 175 276.16 175 336 175 C336 227.8 336 280.6 336 335 C277.92 335 219.84 335 160 335 C160 393.08 160 451.16 160 511 C107.2 511 54.4 511 0 511 C0 452.92 0 394.84 0 335 C-57.75 335 -115.5 335 -175 335 C-175 282.2 -175 229.4 -175 175 C-117.25 175 -59.5 175 0 175 C0 117.25 0 59.5 0 0 Z " fill="#CD2A00" transform="translate(175,0)"/>
<path d="M0 0 C26.4 0 52.8 0 80 0 C80 168.63 80 337.26 80 511 C53.6 511 27.2 511 0 511 C0 452.92 0 394.84 0 335 C-57.75 335 -115.5 335 -175 335 C-175 282.2 -175 229.4 -175 175 C-117.25 175 -59.5 175 0 175 C0 117.25 0 59.5 0 0 Z " fill="#AB2300" transform="translate(175,0)"/>
</svg>
